<?xml version="1.0" encoding="UTF-8" standalone="no"?><!DOCTYPE svg PUBLIC "-//W3C//DTD SVG 1.1//EN" "http://www.w3.org/Graphics/SVG/1.1/DTD/svg11.dtd"><svg width="100%" height="100%" viewBox="0 0 400 240" version="1.1" xmlns="http://www.w3.org/2000/svg" xmlns:xlink="http://www.w3.org/1999/xlink" xml:space="preserve" xmlns:serif="http://www.serif.com/" style="fill-rule:evenodd;clip-rule:evenodd;stroke-linecap:round;stroke-linejoin:round;stroke-miterlimit:1.5;"><rect id="author" x="0" y="0" width="400" height="240" style="fill:none;"/><path d="M69.497,135.475c2.136,2.137 11.44,0.55 13.85,0.438c15.896,-0.739 31.604,-4.587 46.933,-8.623c47.65,-12.546 98.351,-28.739 139.32,-56.724c10.518,-7.184 21.189,-15.521 28.587,-26.039c3.58,-5.09 7.015,-11.567 5.276,-17.988c-2.5,-9.231 -13.955,-9.831 -21.702,-8.894c-16.977,2.055 -37.622,14.451 -42.434,31.968c-5.54,20.167 17.653,29.044 33.668,29.307c31.278,0.512 64.471,-14.032 88.783,-33.179" style="fill:none;stroke:#ecf4f8;stroke-width:2px;"/><path d="M193.358,118.438c-2.222,2.245 -2.368,4.317 -1.43,5.744" style="fill:none;stroke:#ffe5f2;stroke-width:2px;"/><path d="M196.046,95.07c0.324,-1.935 4.396,-7.706 4.753,-7.617c0.966,0.242 2.59,5.825 2.714,6.943c0.365,3.301 -0.294,6.93 -0.412,10.236c-0.298,8.345 -1.907,33.897 -3.658,36.81c-0.435,0.723 -2.066,1.377 -4.401,1.227c-1.455,-0.094 -3.079,-0.613 -3.974,-1.359c-0.536,-0.446 -0.061,-2.109 0.056,-2.638c0.518,-2.327 0.694,-4.775 0.842,-7.148c0.192,-3.072 3.214,-31.28 4.08,-36.454Z" style="fill:#82b7d1;"/><clipPath id="_clip1"><path d="M196.046,95.07c0.324,-1.935 4.396,-7.706 4.753,-7.617c0.966,0.242 2.59,5.825 2.714,6.943c0.365,3.301 -0.294,6.93 -0.412,10.236c-0.298,8.345 -1.907,33.897 -3.658,36.81c-0.435,0.723 -2.066,1.377 -4.401,1.227c-1.455,-0.094 -3.079,-0.613 -3.974,-1.359c-0.536,-0.446 -0.061,-2.109 0.056,-2.638c0.518,-2.327 0.694,-4.775 0.842,-7.148c0.192,-3.072 3.214,-31.28 4.08,-36.454Z"/></clipPath><g clip-path="url(#_clip1)"><path d="M198.856,88.261c0,0.216 0.305,0.486 0.441,0.618c0.653,0.636 1.611,0.788 2.484,0.671c0.489,-0.066 1.012,-0.185 1.451,-0.42c0.369,-0.197 1.741,3.697 0.996,5.031c-0.283,0.506 -1.133,-0.655 -2.11,-0.72c-0.976,-0.064 -1.028,1.63 -2.507,1.58c-1.479,-0.05 -1.086,-1.538 -1.908,-1.632c-0.821,-0.095 -1.313,0.969 -2.178,0.18c-1.461,-1.331 0.209,-4.351 1.65,-5.17l1.681,-0.138Z" style="fill:#bad7e6;"/></g><path d="M176.597,143.694c5.471,-0.665 16.709,-9.773 16.963,-16.991" style="fill:none;stroke:#ffe5f2;stroke-width:2px;"/><path d="M85.012,213.26c-0.81,-0.107 -1.496,-0.647 -1.792,-1.408c-0.295,-0.761 -0.152,-1.623 0.374,-2.248c13.186,-15.599 29.792,-21.775 52.261,-11.811c4.325,-7.509 8.72,-6.594 13.157,-0.709c10.93,-18.834 25.974,-23.777 43.732,-19.557c1.153,-6.233 5.436,-8.497 13.156,-6.4c13.76,-16.19 26.95,-13.944 39.822,-1.422c8.755,-6.506 13.498,-5.977 13.512,2.845c11.344,3.016 19.802,4.528 9.755,13.209c13.273,-1.616 38.436,12.09 40.301,21.167c0.333,1.616 -0.691,3.201 -2.301,3.561c-10.045,2.034 -23.346,1.082 -34.242,3.077c-14.081,-5.601 -28.951,-9.91 -43.097,2.025c-22.047,1.388 -44.818,2.163 -66.882,2.142c-3.843,-6.051 -12.964,-8.26 -18.791,-0.229c-21.129,-1.715 -41.294,-2.013 -58.965,-4.242Z" style="fill:#ecf4f8;"/><path d="M167.653,131.774c0.003,-0.381 0.637,0.421 0.937,0.656c0.696,0.544 1.325,1.173 1.966,1.778c1.973,1.867 3.698,3.994 5.202,6.251c4.145,6.218 7.929,18.081 4.266,25.412c-2.403,4.809 -32.537,10.126 -41.508,10.966c-2.18,0.204 -4.718,0.872 -6.867,0.206c-2.181,-0.677 -2.62,-2.892 -2.619,-4.902c0,-4.52 4.152,-7.742 5.446,-11.883c1.066,-3.413 1.641,-7.47 1.309,-11.041c-0.217,-2.331 -1.676,-4.636 -0.823,-6.98c1.381,-3.794 5.545,-5.382 9.079,-6.531c2.232,-0.726 4.466,-1.25 6.793,-1.554l16.819,-2.378Z" style="fill:#82b7d1;"/><path d="M93.574,105.233c4.501,-19.856 39.058,18.945 38.461,26.243c-0.243,2.977 -14.138,6.979 -15.836,8.087c-0.481,0.315 -8.132,-0.413 -9.788,-1.049c-4.009,-1.54 -18.362,-8.903 -12.837,-33.281Z" style="fill:#bad7e6;"/><path d="M128.896,131.693c-0.492,-0.986 -1.313,1.217 -1.515,1.661c-0.875,1.928 -1.772,4.803 -1.178,6.906c0.985,3.484 8.477,8.132 11.337,8.432c11.641,1.218 25.072,-1.127 35.536,-6.449c3.983,-2.025 8.461,-9.365 7.743,-14.615c-0.968,-7.084 -9.337,-13.858 -16.459,-12.753c-12.322,1.912 -35.464,16.818 -35.464,16.818Z" style="fill:#ff0078;"/><path d="M171.54,99.337c4.314,3.447 7.993,9.136 6.705,14.699c-3.174,13.704 -19.358,19.12 -22.706,20.165c-4.205,1.312 -8.56,1.784 -12.944,1.419c-5.702,-0.475 -11.582,-1.828 -16.482,-4.884c-7.265,-4.531 -11.999,-12.444 -13.213,-20.861c-0.892,-6.187 0.628,-12.989 4.087,-18.214c0.898,-1.356 6.424,-5.927 6.427,-7.506l0.84,3.464c3.035,-3.036 7.58,-4.396 11.715,-5.077c7.94,-1.309 15.656,0.947 21.822,5.474c2.272,-1.065 5.356,-1.718 6.045,-1.697c7.178,0.218 9.078,7.156 7.704,13.018Z" style="fill:#ffe5f2;"/><path d="M128.592,140.544c0,0 15.641,-4.156 -0.272,-5.131c-15.914,-0.975 -27.633,15.745 -34.434,19.354c-7.469,3.963 -16.525,5.301 -24.904,4.836c-5.65,-0.314 -11.701,-1.329 -16.623,-4.283c-4.67,-2.803 -5.101,-9.782 -8.683,-4.546c-5.251,7.674 -3.131,18.122 6.283,20.764c12.763,3.582 27.824,2.595 40.133,-2.213c12.173,-4.755 18.434,-15.307 27.186,-24.06c0.996,-0.996 9.427,-6.608 11.314,-4.721Z" style="fill:#ff0078;"/><path d="M190.211,176.343c-2.37,1.548 -3.105,4.302 -0.022,5.258c0.606,0.188 2.331,-0.058 2.733,-0.169c2.961,-0.816 9.657,-8.144 6.68,-7.964c-2.627,0.158 -5.854,1.437 -6.533,1.676c-1.002,0.352 -1.993,0.634 -2.858,1.199Z" style="fill:#445;stroke:#445;stroke-width:2px;"/><path d="M175.732,166.952c0,0 8.65,-4.663 12.733,-5.841c8.473,-2.447 3.287,12.231 2.341,16.335" style="fill:none;stroke:#82b7d1;stroke-width:2px;"/><path d="M136.791,151.563c-2.846,-1.207 -8.715,-3.059 -9.178,2.043c-0.283,3.125 1.726,6.455 4.137,8.31c0.245,0.188 2.237,1.413 1.87,1.44c-0.696,0.051 -1.399,0.052 -2.097,0.037c-2.262,-0.05 -4.477,-0.198 -6.643,-0.898" style="fill:none;stroke:#ffe5f2;stroke-width:2px;"/><path d="M159.502,83.917c-1.146,11.47 -12.681,19.071 -13.812,18.845c-0.634,-0.127 -0.245,-1.581 -0.167,-1.946c0.451,-2.103 1.057,-4.161 1.403,-6.288c0.016,-0.095 0.356,-2.491 0,-2.339c-1.338,0.571 -3.1,3.966 -4.025,5.052c-2.898,3.398 -6.076,6.536 -9.32,9.6c-0.805,0.761 -4.086,4.477 -5.5,4.043c-0.835,-0.257 -0.268,-2.317 -0.187,-2.807c0.499,-2.991 0.935,-5.992 1.442,-8.982c0.146,-0.867 0.252,-1.747 0.355,-2.62c0.01,-0.086 0.155,-1.237 0.037,-1.198c-1.268,0.421 -3.36,4.492 -4.137,5.5c-2.977,3.863 -6.783,9.149 -11.245,11.379c-0.983,0.492 7.407,12.677 6.81,19.975c-0.243,2.977 -6.93,3.571 -8.627,4.679c-0.481,0.315 -4.462,2.34 -6.118,1.704c-4.009,-1.54 -18.362,-8.903 -12.837,-33.281c4.501,-19.856 19.889,-33.048 39.806,-33.834c9.798,-0.387 27.269,1.048 26.122,12.518Z" style="fill:#bad7e6;"/><path d="M111.983,107.466c-0.75,-1.503 -4.735,-0.404 -5.751,-0.024c-4.811,1.804 -9.416,4.743 -10.825,10.034c-1.685,6.328 4.392,11.939 9.941,13.571c6.627,1.949 12.681,-0.749 15.974,-6.737" style="fill:#ffe5f2;"/><path d="M162.628,97.56c-0.747,2.732 -5.537,6.111 -8.704,6.381" style="fill:none;stroke:#445;stroke-width:2px;"/><path d="M144.849,107.516c-0.874,1.59 -5.489,5.023 -11.304,3.592" style="fill:none;stroke:#445;stroke-width:2px;"/><path d="M161.204,109.649c1.173,-1.168 4.222,-3.584 6.389,-4.314" style="fill:none;stroke:#445;stroke-width:2px;"/><path d="M131.899,198.509c0,0.071 11.708,0.214 13.081,-1.572c0.7,-0.912 -0.743,-2.082 -1.386,-2.49c-1.906,-1.207 -4.581,-1.202 -6.625,-0.375c-1.725,0.698 -3.071,1.218 -4.584,2.229c0,0 -0.498,0.722 -0.486,2.208Z" style="fill:#445;stroke:#445;stroke-width:2px;"/><path d="M139.365,175.772c0,5.296 -2.147,13.836 -4.037,18.676" style="fill:none;stroke:#82b7d1;stroke-width:2px;"/><path d="M191.928,124.182c1.921,2.922 8.391,3.14 10.909,-3.396" style="fill:none;stroke:#ffe5f2;stroke-width:2px;"/><path d="M24.062,112.435c3.131,0 7.229,-2.922 9.873,-4.244c7.491,-3.744 14.764,-7.869 21.933,-12.194c26.02,-15.695 52.194,-34.244 71.739,-57.768" style="fill:none;stroke:#ecf4f8;stroke-width:2px;"/><path d="M223.656,131.722c-0.651,0 15.685,-0.338 19.082,-0.637c11.907,-1.049 23.718,-3.397 35.276,-6.4c36.09,-9.378 70.367,-24.471 99.62,-47.731" style="fill:none;stroke:#ecf4f8;stroke-width:2px;"/></svg>