<?xml version="1.0" encoding="UTF-8" standalone="no"?><!DOCTYPE svg PUBLIC "-//W3C//DTD SVG 1.1//EN" "http://www.w3.org/Graphics/SVG/1.1/DTD/svg11.dtd"><svg width="100%" height="100%" viewBox="0 0 400 300" version="1.1" xmlns="http://www.w3.org/2000/svg" xmlns:xlink="http://www.w3.org/1999/xlink" xml:space="preserve" xmlns:serif="http://www.serif.com/" style="fill-rule:evenodd;clip-rule:evenodd;stroke-linecap:round;stroke-linejoin:round;stroke-miterlimit:1.5;"><rect id="bold-and-italic" x="0" y="0" width="400" height="300" style="fill:none;"/><path d="M59.186,54.13c0,-2.409 -9.538,-4.735 -11.864,-3.651c-1.861,0.867 -2.399,4.022 -2.763,5.74c-2.867,13.518 -0.102,127.282 1.474,148.87c0.848,11.608 1.496,23.232 2.527,34.824c0.384,4.32 -1.186,10.371 4.316,10.707c9.679,0.592 7.124,-15.44 6.92,-21.208c-0.066,-1.879 -1.705,-97.065 -2.631,-134.225c-0.235,-9.41 0.143,-18.803 -1.132,-28.158c-0.531,-3.896 3.153,-12.899 3.153,-12.899Z" style="fill:#ff0078;"/><path d="M83.448,42.688c-31.847,1.027 -33.138,23.108 -33.138,32.677c0,31.942 0.667,63.872 0.667,95.809c0,9.507 -1.936,35.556 6.018,43.208c8.332,8.017 61.379,6.839 80.195,6.839c23.954,0 172.544,-2.44 193.317,-4.773c18.589,-2.087 10.199,-21.414 10.786,-33.267c1.578,-31.889 2.999,-64.963 1.579,-96.849c-0.524,-11.759 3.067,-26.696 -8.379,-34.921c-13.753,-9.883 -27.658,-8.544 -44.325,-8.982c-12.45,-0.328 -94.509,-1.77 -110.717,-0.86l-96.003,1.119Z" style="fill:#445;"/><path d="M108.121,57.166c-4.251,-3.189 -22.42,15.319 -25.994,21.336c-1.238,2.083 6.318,5.414 7.343,6c6.339,3.622 11.222,7.567 11.993,15.333c1.041,10.493 -22.317,29.869 -7.995,36c8.357,3.578 19.292,0.535 28.002,2.667c6.635,1.624 10.408,9.922 18,6.666c4.873,-2.089 6.984,-8.186 8.664,-12.666c3.691,-9.841 7.949,-24.567 7.323,-35.336c-0.346,-5.962 -8.891,-10.882 -12.669,-14.667c-0.89,-0.891 -4.543,-3.596 -3.328,-5.331c2.837,-4.052 12.56,-1.463 16.016,-0.666c7.98,1.841 17.44,7.995 22.079,14.968c2.113,3.175 4.335,10.638 8.577,11.698c5.706,1.427 10.409,-9.289 12,-12.666c1.201,-2.552 2.679,-4.494 3.333,-7.334c1.213,-5.263 2.1,-10.871 2.096,-16.262c-0.011,-13.016 -9.647,-15.074 -20.117,-15.074c-14.518,0 -30.87,-0.392 -43.33,8.667c-6.454,4.692 -10.298,13.814 -17.323,17.333c-2.74,1.373 -7.278,-15.123 -14.67,-20.666Z" style="fill:#ecf4f8;fill-opacity:0.0470588;"/><path d="M236.791,95.166c0,0 -20.848,12.777 -19.328,23.336c1.824,12.677 19.559,7.948 21.333,18.666c1.187,7.177 -9.707,13.569 -13.344,18.664c-0.894,1.253 -3.267,5.07 -2.429,6.738c1.856,3.698 7.054,5.089 10.45,6.598c12.55,5.578 26.049,3.267 37.014,6.927c5.426,1.811 6.484,11.535 9.642,15.74c4.4,5.859 21.877,4.662 27.336,2c2.438,-1.189 3.43,-4.575 4.667,-6.667c7.028,-11.881 13.749,-32.495 5.418,-46.985c-4.186,-7.282 -18.104,-10.547 -18.09,-20.348c0.011,-7.82 17.995,-11.348 16.664,-18.003c-2.258,-11.292 -8.954,-17.929 -18.669,-24c-11.794,-7.369 -30.997,8.332 -34.664,19.334c-1.012,3.036 -0.855,15.397 -4.667,16.666c-6.07,2.021 -15.83,-3.328 -17.331,-9.33c-0.687,-2.751 0.132,-9.336 -4.002,-9.336Z" style="fill:#ecf4f8;fill-opacity:0.0470588;"/><path d="M334.85,236.713c0,0 -0.77,-88.668 -0.77,-141.885c0,-12.143 0.268,-27.174 1.016,-39.289c0.138,-2.239 5.415,-8.052 9.037,-7.842c3.902,0.226 4.947,4.719 4.947,7.649c0,12.264 -1.384,83.59 -0.974,105.615c0.368,19.722 0.556,39.273 1.184,59.505c0.245,7.88 0.414,20.563 -2.899,27.792c-3.666,8.002 -12.529,4.67 -11.541,-11.545Z" style="fill:#ff0078;"/><path d="M49.082,245.118c-0.001,0.266 -4.222,1.213 -4.424,1.288c-4.367,1.607 -8.778,2.949 -13.105,4.658c-0.919,0.363 -4.073,0.936 -3.603,2.58c1.843,6.438 12.178,3.593 16.346,2.474c8.26,-2.219 16.712,-4.397 24.631,-7.658c2.996,-1.234 7.923,-3.225 9.655,-6.263c1.143,-2.005 -4.788,-2.47 -5.555,-2.502c-5.433,-0.227 -11.29,0.856 -16.236,3.184l-7.709,2.239Z" style="fill:#ff0078;"/><path d="M326.885,251.776c0,0 -6.742,3.187 -12.736,6.184c-1.113,0.557 -4.876,1.956 -4.55,3.685c0.91,4.84 13.645,3.072 16.53,2.685c10.939,-1.467 21.31,-6.243 30.84,-11.632c1.68,-0.949 9.563,-4.208 9.919,-6.71c0.238,-1.673 -2.359,-1.783 -3.397,-1.923c-3.547,-0.48 -7.429,-0.252 -10.948,0.368c-3.13,0.553 -6.234,1.335 -9.316,2.106c-5.636,1.408 -11.038,2.878 -16.342,5.237Z" style="fill:#ff0078;"/><g id="browser-writing"><path d="M107.918,188.583c-0.002,0.6 -4.369,2.886 -4.865,3.198c-4.46,2.808 -9.197,5.453 -13.073,9.053c-0.195,0.181 -1.436,1.193 -2.42,2.069" style="fill:none;stroke:#82b7d1;stroke-width:3px;"/><path d="M245.979,164.166c-5.116,-1.119 -14.735,-1.89 -26.277,-2.651c-19.235,-1.27 -43.809,-2.513 -61.765,-5.298c-5.024,-0.78 -10.086,-1.287 -15.111,-2.06c-6.055,-0.931 -13.494,-2.397 -19.255,0.598c-3.998,2.079 -6.425,6.371 -8.317,10.287c-4.155,8.597 -17.077,47.199 -20.313,57.445c-1.382,4.376 -5.514,15.056 -3.918,19.636c1.844,5.291 8.249,5.643 13.46,6.485c4.209,0.68 61.818,10.95 86.746,13.967c7.644,0.925 15.238,1.722 22.878,2.778c17.198,2.376 31.003,7.253 34.286,-15.13c1.638,-11.163 11.249,-52.551 13.208,-60.519c1.007,-4.094 2.306,-8.712 1.332,-12.928c-1.405,-6.088 -3.312,-9.626 -16.954,-12.61Z" style="fill:#bad7e6;"/><path d="M78.317,205.783c0,-5.449 10.386,-5.493 9.347,1.62c-0.142,0.971 -0.481,1.873 -1.054,2.673c-0.675,0.945 -1.683,1.715 -2.715,2.232" style="fill:none;stroke:#82b7d1;stroke-width:3px;"/><path d="M120.717,249.381c0.273,7.538 -4.627,10.901 -7.453,12.442c-0.863,0.471 -1.851,0.782 -2.842,0.737c-1.972,-0.089 -3.515,-0.642 -4.947,-2.02c-2.202,-2.121 -2.631,-3.545 -4.568,-1.285c-0.51,0.595 -1.008,1.183 -1.474,1.811c-0.509,0.686 -2.674,2.505 -2.546,3.517c0.114,0.909 9.053,-4.473 6.013,-5.993" style="fill:none;stroke:#82b7d1;stroke-width:3px;"/><path d="M192.717,258.581c3.2,5.979 1.437,13.137 -0.778,15.896c-0.575,0.716 -1.889,1.372 -2.021,2.295c-0.272,1.914 0.75,4.527 1.116,6.358c0.237,1.184 0.127,3.05 1.293,3.827c1.473,0.98 2.662,0.753 3.991,0.426c0.408,-0.101 -2.596,-1.75 -2.667,-2.424c-0.252,-2.396 0.003,-7.534 -3.256,-7.534" style="fill:none;stroke:#82b7d1;stroke-width:3px;"/><path d="M281.844,167.98c0.113,0.256 -0.465,-1.017 -0.53,-1.147c-0.391,-0.786 -0.786,-1.57 -1.18,-2.355c-1.229,-2.448 -2.409,-4.919 -3.591,-7.39c-0.839,-1.753 -1.656,-3.518 -2.455,-5.29c-0.756,-1.677 -1.485,-3.364 -2.173,-5.07c-2.035,-5.044 -8.217,-16.404 -0.337,-18.774c6.624,-1.992 8.512,3.428 10.807,8.617c3.384,7.65 6.768,15.3 10.152,22.95c1.236,2.795 4.918,8.324 4.267,11.625c-0.453,2.293 -3.926,2.804 -5.793,2.677c-4.7,-0.321 -7.726,-4.049 -9.821,-7.948" style="fill:#fff;"/><path d="M256.717,198.981c0,-0.091 2.949,-0.294 3.14,-0.336c2.06,-0.449 4.191,-1.088 6.17,-1.81c5.045,-1.84 9.822,-5.7 13.03,-9.979c2.787,-3.715 4.792,-8.097 5.451,-12.715c0.216,-1.512 0.21,-3.025 0.21,-4.548" style="fill:none;stroke:#82b7d1;stroke-width:3px;"/><path d="M277.92,162.583c-0.013,3.347 5.156,7.203 9.157,5.116c3.951,-2.061 5.599,-7.63 5.599,-11.727" style="fill:none;stroke:#82b7d1;stroke-width:3px;"/></g><g id="bold"><path d="M97.594,138.965c0.49,-0.124 4.023,-2.114 2.44,-8.387c-1.381,-5.469 -4.133,-5.669 -4.89,-6.088c0.665,-1.429 2.131,-4.322 1.185,-8.07c-1.062,-4.207 -4.768,-6.445 -7.307,-5.804l-21.295,5.376c-0.153,0.039 -0.208,0.338 -0.015,1.103l1.342,5.316c0.097,0.382 0.221,0.554 0.527,0.477l3.29,-0.831l3.649,14.457l-3.427,0.865c-0.183,0.047 -0.198,0.376 -0.005,1.141l1.468,5.813c0.068,0.268 0.213,0.394 0.351,0.359l22.687,-5.727Zm-14.283,-8.233l5.278,-1.333c0.658,-0.166 1.792,0.524 2.13,1.863c0.299,1.185 -0.296,1.987 -1.229,2.222l-5.156,1.302l-1.023,-4.054Zm-2.655,-10.518l5.293,-1.336c0.627,-0.158 1.786,0.566 2.066,1.675c0.28,1.109 -0.205,2.086 -0.649,2.198l-5.706,1.441l-1.004,-3.978Z" style="fill:#fff;fill-rule:nonzero;"/><path d="M108.925,105.592c-5.064,1.278 -7.61,5.501 -8.14,9.012c-0.307,2.071 -0.476,4.88 0.257,7.786c0.56,2.219 1.846,5.637 3.82,7.783c2.546,2.734 5.996,5.443 12.268,3.86l2.769,-0.699c7.649,-1.931 8.75,-10.915 6.983,-17.914c-1.728,-6.846 -7.875,-12.373 -14.928,-10.593l-3.029,0.765Zm3.195,6.272c2.57,-0.649 5.248,3.516 6.108,6.92c0.869,3.442 0.496,7.767 -2.059,8.412c-2.264,0.572 -5.012,-2.965 -6.045,-7.058c-0.975,-3.862 0.037,-7.779 1.996,-8.274Z" style="fill:#fff;fill-rule:nonzero;"/><path d="M156.944,111.573c-0.193,-0.765 -0.454,-1.024 -0.653,-0.974l-5.584,1.41c-0.26,0.065 -0.143,0.849 -0.047,1.232l1.101,4.36l-8.858,2.236l-3.591,-14.227l3.457,-0.873c0.199,-0.05 0.229,-0.383 0.113,-0.842l-1.371,-5.431c-0.193,-0.765 -0.444,-0.987 -0.674,-0.929l-14.472,3.654c-0.229,0.058 -0.284,0.357 -0.188,0.739l1.487,5.89c0.097,0.382 0.296,0.657 0.48,0.611l3.381,-0.854l3.592,14.228l-3.32,0.838c-0.306,0.077 -0.301,0.483 -0.224,0.789l1.458,5.775c0.125,0.497 0.346,0.726 0.499,0.688l26.022,-6.57c0.153,-0.039 0.269,-0.353 0.096,-1.041l-2.704,-10.709Z" style="fill:#fff;fill-rule:nonzero;"/><path d="M164.932,114.723l-3.365,0.85c-0.306,0.077 -0.154,0.812 -0.009,1.385l1.149,4.552c0.242,0.956 0.578,0.871 0.884,0.794l15.329,-3.87c3.427,-0.865 10.918,-5.035 7.828,-17.273c-3.099,-12.277 -13.586,-11.786 -14.305,-11.605l-16.43,4.148c-0.245,0.062 -0.19,0.536 -0.113,0.842l1.391,5.508c0.135,0.535 0.299,0.412 0.437,0.378l3.381,-0.854l3.823,15.145Zm3.963,-17.111l3.58,-0.903c0.75,-0.19 4.192,1.26 5.553,6.653c1.303,5.163 -0.735,8.241 -2.494,8.685l-2.815,0.711l-3.824,-15.146Z" style="fill:#fff;fill-rule:nonzero;"/></g><g id="italic"><path d="M236.705,60.034c0.689,0.173 1.141,0.538 1.355,1.095c0.215,0.557 0.133,1.152 -0.245,1.786c-0.37,0.618 -0.929,1.089 -1.679,1.412c-0.75,0.323 -1.461,0.4 -2.133,0.231c-0.673,-0.169 -1.118,-0.536 -1.336,-1.103c-0.219,-0.566 -0.143,-1.159 0.226,-1.777c0.379,-0.633 0.936,-1.109 1.673,-1.427c0.737,-0.317 1.45,-0.39 2.139,-0.217Zm-5.044,9.061l-14.345,14.633c-0.968,0.988 -1.514,1.588 -1.641,1.799c-0.144,0.241 -0.183,0.457 -0.117,0.647c0.066,0.19 0.205,0.311 0.418,0.365c0.246,0.062 0.614,0.015 1.102,-0.139c1.341,-0.444 2.861,-1.172 4.56,-2.185l0.55,0.737c-2.052,1.288 -4.153,2.278 -6.301,2.969c-1.593,0.519 -2.898,0.651 -3.916,0.395c-0.672,-0.169 -1.111,-0.491 -1.317,-0.968c-0.206,-0.477 -0.142,-0.994 0.191,-1.552c0.333,-0.558 1.092,-1.434 2.277,-2.628l9.253,-9.33c1.516,-1.527 2.4,-2.501 2.652,-2.924c0.198,-0.331 0.233,-0.635 0.105,-0.91c-0.128,-0.275 -0.414,-0.468 -0.857,-0.579c-0.361,-0.091 -1.157,-0.195 -2.388,-0.314l0.527,-0.882l9.247,0.866Z" style="fill:#fff;fill-rule:nonzero;"/><path d="M250.514,67.38l-5.594,5.67l3.863,0.971l-1.27,1.32l-3.838,-0.964l-12.205,12.282c-1.315,1.317 -2.099,2.187 -2.351,2.609c-0.154,0.257 -0.205,0.469 -0.155,0.638c0.05,0.169 0.166,0.276 0.346,0.321c0.41,0.103 1.109,-0.025 2.097,-0.384c0.574,-0.202 2.006,-0.909 4.295,-2.12l0.474,0.769c-2.716,1.642 -4.995,2.708 -6.835,3.2c-1.261,0.342 -2.359,0.396 -3.294,0.161c-0.722,-0.182 -1.189,-0.537 -1.4,-1.068c-0.212,-0.53 -0.124,-1.119 0.263,-1.767c0.487,-0.815 1.492,-1.993 3.017,-3.535l11.933,-12.065l-3.715,-0.933l0.773,-0.821c2.075,0.001 3.979,-0.296 5.712,-0.893c1.734,-0.596 4.001,-1.817 6.802,-3.663l1.082,0.272Z" style="fill:#fff;fill-rule:nonzero;"/><path d="M271.721,79.159l-13.96,14.132l-1.771,1.922c-0.166,0.184 -0.29,0.343 -0.371,0.479c-0.144,0.241 -0.188,0.473 -0.132,0.695c0.05,0.169 0.174,0.278 0.37,0.328c0.214,0.053 0.565,0.003 1.053,-0.152c0.901,-0.277 2.295,-0.967 4.181,-2.072l0.512,0.753c-2.068,1.284 -3.947,2.187 -5.636,2.708c-1.688,0.521 -3.041,0.654 -4.058,0.398c-0.705,-0.177 -1.138,-0.472 -1.297,-0.885c-0.159,-0.413 -0.054,-0.928 0.316,-1.547c0.441,-0.739 1.203,-1.666 2.284,-2.782l1.53,-1.566c-3.689,2.038 -6.742,3.344 -9.159,3.916c-1.738,0.413 -3.23,0.463 -4.477,0.15c-1.197,-0.301 -1.958,-1.017 -2.283,-2.147c-0.324,-1.131 -0.009,-2.496 0.946,-4.094c1.432,-2.398 3.727,-4.731 6.883,-6.999c3.157,-2.268 6.419,-3.899 9.785,-4.891c2.643,-0.793 4.802,-0.979 6.475,-0.559c1.001,0.252 1.689,0.702 2.065,1.352c0.376,0.649 0.403,1.575 0.081,2.778l2.426,-2.357l4.237,0.44Zm-9.463,-1.024c-1.05,-0.264 -2.435,-0.092 -4.157,0.516c-2.439,0.862 -5.063,2.388 -7.871,4.579c-2.809,2.19 -4.821,4.304 -6.037,6.339c-0.613,1.026 -0.818,1.907 -0.616,2.642c0.202,0.736 0.663,1.195 1.385,1.376c1.788,0.449 4.458,-0.276 8.008,-2.177c4.733,-2.522 8.113,-5.48 10.14,-8.873c0.765,-1.282 1.049,-2.277 0.85,-2.986c-0.199,-0.709 -0.767,-1.181 -1.702,-1.416Z" style="fill:#fff;fill-rule:nonzero;"/><path d="M295.243,71.619l-24.495,24.804c-1.212,1.239 -1.908,2.01 -2.088,2.311c-0.136,0.226 -0.17,0.434 -0.104,0.624c0.065,0.19 0.213,0.314 0.443,0.372c0.311,0.078 0.724,0.034 1.238,-0.131c1.223,-0.404 2.689,-1.137 4.399,-2.199l0.319,0.887c-2.766,1.629 -5.043,2.678 -6.833,3.148c-1.31,0.33 -2.4,0.385 -3.27,0.167c-0.623,-0.157 -1.027,-0.484 -1.211,-0.981c-0.184,-0.497 -0.123,-1.002 0.183,-1.515c0.325,-0.543 1.254,-1.593 2.788,-3.15l19.343,-19.542c1.577,-1.598 2.443,-2.526 2.596,-2.782c0.216,-0.362 0.238,-0.699 0.066,-1.011c-0.172,-0.312 -0.586,-0.551 -1.243,-0.715c-0.377,-0.095 -0.983,-0.187 -1.817,-0.275l0.5,-0.837l9.186,0.825Z" style="fill:#fff;fill-rule:nonzero;"/><path d="M303.908,76.918c0.689,0.173 1.14,0.538 1.355,1.095c0.214,0.556 0.132,1.152 -0.246,1.785c-0.369,0.618 -0.929,1.089 -1.679,1.412c-0.749,0.324 -1.46,0.401 -2.133,0.232c-0.673,-0.169 -1.118,-0.537 -1.336,-1.103c-0.218,-0.567 -0.143,-1.159 0.227,-1.777c0.378,-0.634 0.936,-1.109 1.673,-1.427c0.737,-0.318 1.45,-0.39 2.139,-0.217Zm-5.045,9.06l-14.345,14.633c-0.967,0.988 -1.514,1.588 -1.64,1.799c-0.144,0.242 -0.184,0.457 -0.118,0.647c0.066,0.19 0.205,0.312 0.419,0.365c0.246,0.062 0.613,0.016 1.102,-0.139c1.34,-0.444 2.86,-1.172 4.559,-2.184l0.551,0.736c-2.053,1.288 -4.153,2.278 -6.302,2.97c-1.593,0.519 -2.898,0.65 -3.915,0.395c-0.673,-0.169 -1.112,-0.492 -1.318,-0.969c-0.206,-0.476 -0.142,-0.993 0.191,-1.551c0.334,-0.558 1.093,-1.434 2.278,-2.628l9.252,-9.33c1.516,-1.527 2.4,-2.502 2.652,-2.924c0.198,-0.332 0.233,-0.635 0.105,-0.91c-0.128,-0.275 -0.413,-0.469 -0.856,-0.58c-0.361,-0.09 -1.157,-0.195 -2.388,-0.314l0.527,-0.882l9.246,0.866Z" style="fill:#fff;fill-rule:nonzero;"/><path d="M311.456,107.014c-2.832,1.457 -5.381,2.408 -7.647,2.853c-2.266,0.445 -4.367,0.425 -6.303,-0.061c-2.329,-0.586 -3.786,-1.645 -4.369,-3.179c-0.584,-1.535 -0.268,-3.319 0.949,-5.355c1.378,-2.308 3.435,-4.401 6.171,-6.28c2.736,-1.88 5.705,-3.219 8.909,-4.019c3.204,-0.799 5.946,-0.912 8.226,-0.34c1.788,0.45 2.92,1.129 3.396,2.037c0.476,0.909 0.417,1.861 -0.177,2.856c-0.559,0.935 -1.348,1.656 -2.368,2.163c-0.766,0.398 -1.485,0.512 -2.157,0.343c-0.509,-0.128 -0.841,-0.385 -0.997,-0.771c-0.156,-0.386 -0.099,-0.805 0.171,-1.258c0.171,-0.286 0.39,-0.535 0.657,-0.745c0.268,-0.21 0.695,-0.437 1.283,-0.679c0.589,-0.243 0.969,-0.429 1.141,-0.559c0.172,-0.131 0.308,-0.279 0.407,-0.444c0.189,-0.317 0.191,-0.62 0.005,-0.91c-0.295,-0.421 -0.878,-0.741 -1.747,-0.959c-1.608,-0.404 -3.51,-0.283 -5.707,0.362c-2.196,0.644 -4.424,1.784 -6.684,3.419c-2.732,1.985 -4.792,4.138 -6.179,6.46c-0.919,1.539 -1.171,2.876 -0.755,4.012c0.415,1.136 1.443,1.911 3.084,2.323c1.263,0.317 2.687,0.341 4.272,0.072c1.586,-0.27 3.605,-0.972 6.056,-2.108l0.363,0.767Z" style="fill:#fff;fill-rule:nonzero;"/></g><path d="M49.965,264.71c-2.884,-0.192 -2.489,-0.012 -5.378,-0.117c-0.792,-0.029 -5.396,-0.256 -5.204,1.03c0.407,2.738 0.826,3.091 2.982,3.532c5.656,1.159 16.157,1.87 21.861,0.936c0.742,-0.121 1.463,-0.306 2.175,-0.55c0.515,-0.176 2.93,-1.007 3.051,-1.742c0.079,-0.48 -0.639,-2.102 -0.924,-2.235c-2.242,-1.051 -5.733,-0.632 -8.223,-0.632c-2.401,0 -9.995,-0.199 -10.34,-0.222Z" style="fill:#ffe5f2;"/><path d="M68.04,67.226c2.06,-8.876 7.386,-5.198 10.18,-10.627c2.832,-5.503 2.705,-11.318 7.256,-4.397c3.119,4.742 2.286,8.118 1.515,10.204c0.913,-0.275 1.744,-0.376 2.606,-0.493c4.025,-0.544 9.519,1.331 10.347,5.727c0.101,0.158 0.157,0.335 0.148,0.537c-0.021,0.479 -0.481,0.698 -0.835,0.952c3.895,0.069 8.506,1.168 8.986,4.115c0.467,2.875 -2.625,6.118 -4.412,7.968c-7.279,7.531 -18.335,12.463 -28.527,14.526c-4.107,0.832 -13.172,1.873 -15.686,-2.733c-2.008,-3.679 1.037,-7.745 3.893,-10.624c-0.017,-0.029 -0.031,-0.058 -0.044,-0.088l-0.005,0.008c-0.575,-0.721 -0.969,-1.833 -1.105,-2.259c-0.922,-2.879 -0.757,-6.504 1.62,-8.859c0.966,-0.957 2.347,-1.873 3.946,-2.606c-0.067,-0.408 -0.102,-0.809 0.014,-1.158c0.025,-0.074 0.06,-0.138 0.103,-0.193Z" style="fill:#ffe5f2;"/><path d="M92.342,78.71c-1.321,-0.027 -2.373,2.116 -2.522,2.734c-0.46,1.911 0.641,3.953 2.756,3.953c4.777,0 3.724,-6.606 -0.234,-6.687Z" style="fill:#445;"/><path d="M71.596,75.953c-2.196,0.821 -4.982,3.305 -5.977,4.195c-3,2.683 -8.673,8.01 -6.108,12.709c2.513,4.605 11.578,3.564 15.685,2.733c10.192,-2.064 21.249,-6.996 28.527,-14.527c1.787,-1.849 4.88,-5.093 4.412,-7.968c-0.705,-4.331 -10.335,-4.67 -13.497,-3.616" style="fill:none;stroke:#445;stroke-width:2px;"/><path d="M63.354,82.152c-0.575,-0.721 -0.968,-1.833 -1.105,-2.259c-0.922,-2.879 -0.757,-6.504 1.62,-8.859c1.871,-1.853 5.304,-3.558 8.85,-4.062" style="fill:none;stroke:#445;stroke-width:2px;"/><path d="M84.779,63.173c1.858,-1.056 3.237,-1.21 4.711,-1.409c4.135,-0.559 9.822,1.436 10.404,6.097" style="fill:none;stroke:#445;stroke-width:2px;"/><path d="M67.85,67.443c-1.117,-8.426 8.896,-6.407 11.728,-11.91c2.832,-5.502 1.239,-10.4 5.791,-3.48c4.199,6.385 2.058,8.919 1.728,9.988" style="fill:none;stroke:#445;stroke-width:2px;"/><path d="M76.277,86.711c-2.664,-1.586 -7.014,0.327 -4.291,3.738c1.973,2.471 7.538,0.581 5.162,-2.593l-0.871,-1.145Z" style="fill:#445;"/><path d="M80.671,88.23c0,-0.001 0.279,0.166 0.299,0.178c0.192,0.115 0.392,0.214 0.599,0.299c0.708,0.293 1.46,0.461 2.228,0.367c1.718,-0.211 4.049,-1.931 3.712,-3.94" style="fill:none;stroke:#445;stroke-width:2px;"/></svg>