<?xml version="1.0" encoding="UTF-8" standalone="no"?><!DOCTYPE svg PUBLIC "-//W3C//DTD SVG 1.1//EN" "http://www.w3.org/Graphics/SVG/1.1/DTD/svg11.dtd"><svg width="100%" height="100%" viewBox="0 0 310 200" version="1.1" xmlns="http://www.w3.org/2000/svg" xmlns:xlink="http://www.w3.org/1999/xlink" xml:space="preserve" xmlns:serif="http://www.serif.com/" style="fill-rule:evenodd;clip-rule:evenodd;stroke-linecap:round;stroke-linejoin:round;stroke-miterlimit:1.5;"><rect id="merging-white-space" x="0" y="0" width="310" height="200" style="fill:none;"/><g id="browser"><path d="M48.192,19.071c22.539,-1.099 103.765,0.161 150.782,0.649c8.222,0.085 29.773,-0.651 37.995,-0.556c9.908,0.115 22.158,-0.236 30.636,5.826c5.882,4.207 4.961,13.908 6.613,20.397c3.689,14.488 4.92,63.824 6.337,82.028c0.555,7.134 3.884,37 0.212,43.618c-4.241,7.644 -14.567,6.551 -23.103,6.514c-6.894,-0.03 -101.501,1.036 -142.088,-0.691c-12.446,-0.529 -46.448,0.007 -58.918,-0.321c-28.074,-0.739 -33.417,1.139 -33.192,-34.027c0.112,-17.538 -2.139,-82.586 -2.565,-95.354c-0.608,-18.201 4.753,-26.983 27.291,-28.083Z" style="fill:#bad7e6;"/><path d="M33.042,32.745c2.055,-3.848 9.246,-5.988 14.599,-1.908c5.477,4.174 4.842,8.474 1.843,12.129c-3.729,4.544 -11.274,4.433 -15.007,0.801c-3.732,-3.633 -3.491,-7.174 -1.435,-11.022Z" style="fill:#ecf4f8;"/><path d="M36.983,38.704c3.565,-0.89 7.036,-1.447 10.732,-1.628" style="fill:none;stroke:#82b7d1;stroke-width:2px;"/><path d="M38.759,34.217c0,0 -3.063,2.988 -2.551,4.544c0.512,1.555 4.135,3.253 4.135,3.253" style="fill:none;stroke:#82b7d1;stroke-width:2px;"/><path d="M59.996,33.959c-0.03,4.706 -0.375,9.347 3.246,11.384c5.864,3.298 17.741,2.22 25.443,1.835c17.341,-0.869 34.517,-0.83 51.91,-0.576c20.18,0.294 40.484,0.75 60.684,0.738c10.06,-0.006 20.072,-0.923 30.122,-1.175c3.786,-0.095 9.208,0.425 11.602,-3.012c0.833,-1.196 1.266,-2.77 1.649,-4.144c4.056,-14.581 -20.152,-10.481 -28.796,-10.278c-21.993,0.514 -44.578,1.186 -66.583,1.032c-16.392,-0.114 -32.263,-1.041 -48.609,-0.986c-9.466,0.032 -18.92,0.269 -28.376,0.391c-3.738,0.048 -12.251,-1.849 -12.292,4.791Z" style="fill:#ecf4f8;"/><path d="M29.92,68.363c0.325,7.907 0.446,47.444 1.894,65.325c0.734,9.074 -1.34,27.863 8.011,33.114c4.536,2.547 10.251,1.744 15.231,2.043c12.155,0.732 149.446,0.189 166.943,-0.061c6.012,-0.086 17.582,-0.022 23.602,-0.16c13.643,-0.313 27.016,2.279 28.639,-7.32c0.397,-2.342 -3.06,-48.342 -3.445,-55.464c-1.016,-18.814 0.947,-46.046 -5.85,-50.679c-3.084,-2.102 -9.899,-1.97 -13.423,-1.89c-8.542,0.195 -70.68,0.488 -88.17,-0.523c-12.13,-0.701 -108.94,2.892 -121.455,3.12c-7.917,0.145 -12.506,-0.414 -11.977,12.495Z" style="fill:#445;"/></g><g id="white-right"><path d="M172.492,143.515c0.12,0 -0.844,0.423 -0.998,0.512c-0.691,0.4 -1.293,1.072 -1.552,1.835c-0.336,0.992 0.176,2.071 0.918,2.731c0.079,0.07 1.414,0.915 1.408,0.922c-0.546,0.679 -3.39,-0.395 -6.651,0.064" style="fill:none;stroke:#fff;stroke-width:2px;"/><path d="M190.116,141.089c0,0.742 3.085,7.121 11.862,6.92" style="fill:none;stroke:#fff;stroke-width:2px;"/><path d="M183.764,114.165c-6.445,-2.409 -20.018,-0.649 -23.724,6.529c-2.003,3.879 -3.68,9.007 -2.086,13.369c4.361,11.935 26.165,16.21 34.178,6.007c6.69,-8.517 1.108,-22.364 -8.368,-25.905Z" style="fill:#fff;"/><path d="M162.618,136.393c0.162,1.52 -1.001,4.617 -3.663,5.244c-2.663,0.627 -7.699,-1.66 -7.699,-5.128" style="fill:none;stroke:#fff;stroke-width:2px;"/><path d="M150.164,110.644c4.247,-1.56 7.144,-1.592 9.594,-0.829c5.796,1.806 7.538,7.656 8.946,12.816" style="fill:none;stroke:#fff;stroke-width:2px;"/><path d="M167.389,134.356c3.308,-2.798 -0.969,-7.501 -3.897,-5.858c-0.792,0.445 -1.279,1.25 -1.486,2.136c-0.686,2.93 2.864,5.854 5.383,3.722Z" style="fill:#82b7d1;"/><path d="M177.008,120.315c-2.955,-0.996 -5.225,1.804 -5.118,3.005c0.17,1.925 1.811,3.241 3.645,3.234c3.883,-0.014 4.428,-5.242 1.473,-6.239Z" style="fill:#82b7d1;"/><path d="M178.503,134.415c0.854,-4.709 -4.639,-4.447 -6.139,-2.347c-1.585,2.218 -1.064,6.236 2.736,5.977c1.891,-0.59 3.113,-1.728 3.403,-3.63Z" style="fill:none;stroke:#82b7d1;stroke-width:2px;"/></g><g id="white-left"><path d="M127.643,113.802c-5.642,-2.231 -15.524,-0.096 -20.153,4.627c-4.069,4.151 -6.389,10.476 -5.415,16.317c2.374,14.225 24.46,16.395 33.642,7.917c9.16,-8.458 2.433,-24.708 -8.074,-28.861Z" style="fill:#fff;"/><path d="M136.413,134.643c0,2.268 -0.388,4.002 1.198,6.013c3.869,4.906 9.337,1.003 10.276,-3.71" style="fill:none;stroke:#fff;stroke-width:2px;"/><path d="M129.162,119.142c-0.489,-0.98 2.608,-3.864 3.121,-4.367c3.32,-3.256 8.295,-5.945 13.025,-4.369" style="fill:none;stroke:#fff;stroke-width:2px;"/><path d="M126.996,145.656c4.39,1.433 2.282,4.694 0.276,5.263c-0.258,0.073 8.457,-0.507 8.514,-0.45" style="fill:none;stroke:#fff;stroke-width:2px;"/><path d="M106.262,141.116c-0.004,1.842 -5.094,8.541 -13.553,8.912" style="fill:none;stroke:#fff;stroke-width:2px;"/><path d="M127.073,120.485c-1.252,-0.308 -1.916,0.044 -2.01,0.095c-0.94,0.515 -1.65,1.225 -1.924,2.288c-0.535,2.079 1.195,4.163 3.29,4.291c4.321,0.263 3.321,-6.015 0.644,-6.674Z" style="fill:#82b7d1;"/><path d="M135.195,131.63c-0.447,-0.527 -1.404,-0.907 -2.506,-0.859c-0.967,0.041 -1.849,0.425 -2.375,1.285c-2.843,4.649 5.819,7.632 5.583,1.849c-0.033,-0.821 -0.255,-1.748 -0.702,-2.275Z" style="fill:#82b7d1;"/><path d="M118.659,131.641c-0.311,-0.623 0.951,-1.011 1.331,-1.078c1.281,-0.226 2.833,0.194 3.803,1.053c3.727,3.302 0.348,8.516 -4.002,5.526" style="fill:none;stroke:#82b7d1;stroke-width:2px;"/></g><path d="M126.501,84.597c0,-3.612 1.431,-6.545 3.194,-6.545c1.763,0 3.195,2.933 3.195,6.545c3.612,0 6.545,1.432 6.545,3.195c0,1.763 -2.933,3.194 -6.545,3.194c0,3.613 -1.432,6.545 -3.195,6.545c-1.763,0 -3.194,-2.932 -3.194,-6.545c-3.613,0 -6.546,-1.431 -6.546,-3.194c0,-1.763 2.933,-3.195 6.546,-3.195Z" style="fill:#ff0078;"/><path d="M167.131,70.54c0,-3.961 1.569,-7.176 3.502,-7.176c1.933,0 3.502,3.215 3.502,7.176c3.96,0 7.175,1.569 7.175,3.502c0,1.932 -3.215,3.501 -7.175,3.501c0,3.961 -1.569,7.176 -3.502,7.176c-1.933,0 -3.502,-3.215 -3.502,-7.176c-3.96,0 -7.176,-1.569 -7.176,-3.501c0,-1.933 3.216,-3.502 7.176,-3.502Z" style="fill:#ff0078;"/><path d="M177.42,84.892c0,-2.395 0.949,-4.34 2.118,-4.34c1.169,0 2.118,1.945 2.118,4.34c2.396,0 4.341,0.949 4.341,2.118c0,1.169 -1.945,2.119 -4.341,2.119c0,2.395 -0.949,4.34 -2.118,4.34c-1.169,0 -2.118,-1.945 -2.118,-4.34c-2.396,0 -4.341,-0.95 -4.341,-2.119c0,-1.169 1.945,-2.118 4.341,-2.118Z" style="fill:#ffe5f2;"/><path d="M158.478,89.7c0,-3.323 1.316,-6.021 2.938,-6.021c1.622,0 2.938,2.698 2.938,6.021c3.323,0 6.021,1.317 6.021,2.938c0,1.622 -2.698,2.939 -6.021,2.939c0,3.323 -1.316,6.021 -2.938,6.021c-1.622,0 -2.938,-2.698 -2.938,-6.021c-3.323,0 -6.021,-1.317 -6.021,-2.939c0,-1.621 2.698,-2.938 6.021,-2.938Z" style="fill:#82b7d1;"/><path d="M150.438,75.411c0,-2.164 0.858,-3.921 1.914,-3.921c1.056,0 1.913,1.757 1.913,3.921c2.164,0 3.92,0.857 3.92,1.913c0,1.056 -1.756,1.913 -3.92,1.913c0,2.164 -0.857,3.921 -1.913,3.921c-1.056,0 -1.914,-1.757 -1.914,-3.921c-2.163,0 -3.92,-0.857 -3.92,-1.913c0,-1.056 1.757,-1.913 3.92,-1.913Z" style="fill:#ffe5f2;"/></svg>