<?xml version="1.0" encoding="UTF-8" standalone="no"?><!DOCTYPE svg PUBLIC "-//W3C//DTD SVG 1.1//EN" "http://www.w3.org/Graphics/SVG/1.1/DTD/svg11.dtd"><svg width="100%" height="100%" viewBox="0 0 270 250" version="1.1" xmlns="http://www.w3.org/2000/svg" xmlns:xlink="http://www.w3.org/1999/xlink" xml:space="preserve" xmlns:serif="http://www.serif.com/" style="fill-rule:evenodd;clip-rule:evenodd;stroke-linecap:round;stroke-linejoin:round;stroke-miterlimit:1.5;"><rect id="we-have-a-problem" x="0" y="0" width="270" height="250" style="fill:none;"/><g id="aeoewolfae"><path d="M22.084,42.786c1.067,-1.806 2.328,-3.488 3.672,-5.094c2.402,-2.868 8.392,-10.88 13.109,-8.92c2.224,0.924 1.655,6.004 1.704,7.777c0.066,2.34 0.144,4.68 0.211,7.02c0.038,1.31 0.111,2.618 0.17,3.927c0.041,0.935 0.113,1.868 0.178,2.802c0.48,6.852 6.526,-0.676 9.521,-2.18" style="fill:none;stroke:#ff0078;stroke-width:5px;"/><path d="M40.014,41.951c-9.245,0.366 -16.221,9.249 -13.099,14.32c3.104,5.04 9.574,-0.364 11.965,-3.195c0.218,-0.259 1.548,-2.087 1.802,-3.331" style="fill:none;stroke:#ff0078;stroke-width:5px;"/><path d="M19.296,33.342c0.456,-3.376 3.157,-12.458 4.865,-13.527c1.207,-0.756 9.036,1.963 10.529,2.307" style="fill:none;stroke:#ff0078;stroke-width:5px;"/><path d="M62.738,20.008c-1.632,0.634 -3.178,1.496 -4.586,2.532c-4.925,3.626 -7.97,10.118 -5.63,16.112c3.473,8.894 13.037,5.197 18.802,0.711" style="fill:none;stroke:#ff0078;stroke-width:5px;"/><path d="M52.147,37.488c0.781,-0.326 1.734,-0.624 1.906,-0.693c3.107,-1.233 6.307,-2.245 9.55,-3.048" style="fill:none;stroke:#ff0078;stroke-width:5px;"/><path d="M81.375,16.529c-6.009,0.268 -7.323,6.448 -7.729,7.987c-1.978,7.495 4.678,14.971 12.349,11.443c4.372,-2.01 7.775,-8.202 5.655,-12.902c-2.146,-4.756 -4.267,-6.796 -10.275,-6.528Z" style="fill:none;stroke:#ff0078;stroke-width:5px;"/><path d="M92.483,24.479c0.909,-0.344 3.331,-1.664 3.558,-1.801c2.724,-1.634 5.573,-4.023 6.392,-7.247c1.139,-4.484 -4.081,-5.252 -7.253,-4.098c-2.898,1.054 -5.484,3.194 -7.051,5.886" style="fill:none;stroke:#ff0078;stroke-width:5px;"/><path d="M91.372,30.936c5.089,3.272 12.707,2.923 15.088,-3.605" style="fill:none;stroke:#ff0078;stroke-width:5px;"/><path d="M114.892,10.173c-6.862,12.068 -1.553,20.127 4.997,18.515c1.969,-0.485 3.478,-2.349 4.242,-4.141c0.353,-0.829 0.721,-2.603 0.721,-2.603c0,0 0.31,2.627 0.857,3.808c1.932,4.17 7.895,2.578 9.94,-0.158c2.887,-3.864 3.449,-13.57 -3.622,-16.312" style="fill:none;stroke:#ff0078;stroke-width:5px;"/><path d="M157.182,8.568c-3.38,-1.094 -7.018,-0.946 -10.729,2.957c-4.873,5.124 -1.108,15.247 5.966,16.399c11.492,1.871 14.816,-16.1 4.763,-19.356Z" style="fill:none;stroke:#ff0078;stroke-width:5px;"/><path d="M171.907,9.744c0.185,-0.026 -3.634,13.585 -3.497,17.42c0.037,1.035 0.726,1.641 1.713,1.831c2.292,0.441 4.35,0.762 6.756,1.302" style="fill:none;stroke:#ff0078;stroke-width:5px;"/><path d="M183.866,31.228c0.007,-0.992 0.395,-3.213 0.525,-4.196c0.404,-3.066 1.296,-8.364 1.921,-9.931c2.807,-7.04 7.801,-5.623 12.74,-1.667" style="fill:none;stroke:#ff0078;stroke-width:5px;"/><path d="M185.15,23.167c1.901,-0.971 6.347,0.424 8.209,1.027" style="fill:none;stroke:#ff0078;stroke-width:5px;"/><path d="M210.186,15.257c-2.146,3.967 -5.529,9.328 -7.726,13.263" style="fill:none;stroke:#ff0078;stroke-width:5px;"/><path d="M199.315,34.169l-0.415,0.936" style="fill:none;stroke:#ff0078;stroke-width:5px;"/><path d="M217.049,20.646c7.99,-2.419 13.487,0.154 14.101,3.827c0.805,4.814 -4.709,9.068 -7.583,12.171c-1.024,1.106 -3.881,3.696 -2.648,5.498c1.037,1.515 3.554,2.15 5.761,2.809" style="fill:none;stroke:#ff0078;stroke-width:5px;"/><path d="M226.813,32.568c-0.005,0.021 -1.459,-0.8 -1.56,-0.855c-1.184,-0.651 -2.448,-1.124 -3.72,-1.57c-3.495,-1.226 -9.08,-2.074 -11.635,1.47c-4.249,5.895 5.985,9.876 10.381,8.741" style="fill:none;stroke:#ff0078;stroke-width:5px;"/><path d="M223.037,12.427c0.444,-0.337 8.328,-4.597 9.013,-4.273c0.919,0.435 1.118,7.86 1.238,8.842" style="fill:none;stroke:#ff0078;stroke-width:5px;"/><path d="M254.111,33.524c-15.504,-10.407 -29.871,14.026 -9.701,19.407" style="fill:none;stroke:#ff0078;stroke-width:5px;"/><path d="M237.728,38.633c3.287,2.651 6.45,3.116 9.153,4.046" style="fill:none;stroke:#ff0078;stroke-width:5px;"/></g><g id="aeoewolfae1" serif:id="aeoewolfae"><path d="M22.084,88.118c1.067,-1.806 2.328,-3.488 3.672,-5.094c2.402,-2.868 8.392,-10.88 13.109,-8.92c2.224,0.924 1.655,6.004 1.704,7.777c0.066,2.34 0.144,4.68 0.211,7.02c0.038,1.31 0.111,2.618 0.17,3.927c0.041,0.935 0.113,1.868 0.178,2.802c0.48,6.852 6.526,-0.676 9.521,-2.18" style="fill:none;stroke:#ff0078;stroke-width:5px;"/><path d="M40.014,87.283c-9.245,0.366 -16.221,9.249 -13.099,14.32c3.104,5.04 9.574,-0.364 11.965,-3.195c0.218,-0.258 1.548,-2.087 1.802,-3.331" style="fill:none;stroke:#ff0078;stroke-width:5px;"/><path d="M19.296,78.674c0.456,-3.376 3.157,-12.458 4.865,-13.527c1.207,-0.756 9.036,1.963 10.529,2.307" style="fill:none;stroke:#ff0078;stroke-width:5px;"/><path d="M62.738,65.34c-1.632,0.634 -3.178,1.496 -4.586,2.533c-4.925,3.625 -7.97,10.117 -5.63,16.111c3.473,8.894 13.037,5.197 18.802,0.711" style="fill:none;stroke:#ff0078;stroke-width:5px;"/><path d="M52.147,82.82c0.781,-0.325 1.734,-0.624 1.906,-0.693c3.107,-1.233 6.307,-2.245 9.55,-3.048" style="fill:none;stroke:#ff0078;stroke-width:5px;"/><path d="M81.375,61.861c-6.009,0.268 -7.323,6.448 -7.729,7.987c-1.978,7.495 4.678,14.971 12.349,11.443c4.372,-2.01 7.775,-8.202 5.655,-12.902c-2.146,-4.756 -4.267,-6.796 -10.275,-6.528Z" style="fill:none;stroke:#ff0078;stroke-width:5px;"/><path d="M92.483,69.811c0.909,-0.344 3.331,-1.664 3.558,-1.801c2.724,-1.634 5.573,-4.023 6.392,-7.247c1.139,-4.484 -4.081,-5.252 -7.253,-4.098c-2.898,1.054 -5.484,3.194 -7.051,5.886" style="fill:none;stroke:#ff0078;stroke-width:5px;"/><path d="M91.372,76.268c5.089,3.272 12.707,2.923 15.088,-3.605" style="fill:none;stroke:#ff0078;stroke-width:5px;"/><path d="M114.892,55.505c-6.862,12.068 -1.553,20.127 4.997,18.515c1.969,-0.485 3.478,-2.349 4.242,-4.141c0.353,-0.829 0.721,-2.603 0.721,-2.603c0,0 0.31,2.627 0.857,3.808c1.932,4.17 7.895,2.578 9.94,-0.158c2.887,-3.864 3.449,-13.57 -3.622,-16.311" style="fill:none;stroke:#ff0078;stroke-width:5px;"/><path d="M157.182,53.9c-3.38,-1.094 -7.018,-0.946 -10.729,2.957c-4.873,5.124 -1.108,15.247 5.966,16.399c11.492,1.871 14.816,-16.1 4.763,-19.356Z" style="fill:none;stroke:#ff0078;stroke-width:5px;"/><path d="M171.907,55.076c0.185,-0.026 -3.634,13.586 -3.497,17.42c0.037,1.035 0.726,1.641 1.713,1.831c2.292,0.441 4.35,0.762 6.756,1.302" style="fill:none;stroke:#ff0078;stroke-width:5px;"/><path d="M183.866,76.56c0.007,-0.992 0.395,-3.213 0.525,-4.196c0.404,-3.066 1.296,-8.364 1.921,-9.931c2.807,-7.04 7.801,-5.623 12.74,-1.667" style="fill:none;stroke:#ff0078;stroke-width:5px;"/><path d="M185.15,68.499c1.901,-0.971 6.347,0.424 8.209,1.027" style="fill:none;stroke:#ff0078;stroke-width:5px;"/><path d="M210.186,60.589c-2.146,3.967 -5.529,9.328 -7.726,13.263" style="fill:none;stroke:#ff0078;stroke-width:5px;"/><path d="M199.315,79.501l-0.415,0.936" style="fill:none;stroke:#ff0078;stroke-width:5px;"/><path d="M217.049,65.978c7.99,-2.419 13.487,0.154 14.101,3.827c0.805,4.814 -4.709,9.068 -7.583,12.171c-1.024,1.106 -3.881,3.696 -2.648,5.498c1.037,1.515 3.554,2.15 5.761,2.809" style="fill:none;stroke:#ff0078;stroke-width:5px;"/><path d="M226.813,77.9c-0.005,0.021 -1.459,-0.8 -1.56,-0.855c-1.184,-0.651 -2.448,-1.124 -3.72,-1.57c-3.495,-1.226 -9.08,-2.074 -11.635,1.471c-4.249,5.894 5.985,9.875 10.381,8.74" style="fill:none;stroke:#ff0078;stroke-width:5px;"/><path d="M223.037,57.759c0.444,-0.337 8.328,-4.597 9.013,-4.273c0.919,0.435 1.118,7.86 1.238,8.842" style="fill:none;stroke:#ff0078;stroke-width:5px;"/><path d="M254.111,78.856c-15.504,-10.407 -29.871,14.026 -9.701,19.407" style="fill:none;stroke:#ff0078;stroke-width:5px;"/><path d="M237.728,83.965c3.287,2.651 6.45,3.116 9.153,4.046" style="fill:none;stroke:#ff0078;stroke-width:5px;"/></g><g id="aeoewolfae2" serif:id="aeoewolfae"><path d="M22.084,134.951c1.067,-1.805 2.328,-3.488 3.672,-5.093c2.402,-2.868 8.392,-10.881 13.109,-8.921c2.224,0.924 1.655,6.004 1.704,7.777c0.066,2.34 0.144,4.68 0.211,7.02c0.038,1.31 0.111,2.619 0.17,3.928c0.041,0.935 0.113,1.868 0.178,2.801c0.48,6.852 6.526,-0.676 9.521,-2.179" style="fill:none;stroke:#ff0078;stroke-width:5px;"/><path d="M40.014,134.117c-9.245,0.365 -16.221,9.249 -13.099,14.319c3.104,5.041 9.574,-0.363 11.965,-3.195c0.218,-0.258 1.548,-2.086 1.802,-3.33" style="fill:none;stroke:#ff0078;stroke-width:5px;"/><path d="M19.296,125.507c0.456,-3.376 3.157,-12.458 4.865,-13.527c1.207,-0.755 9.036,1.964 10.529,2.308" style="fill:none;stroke:#ff0078;stroke-width:5px;"/><path d="M62.738,112.173c-1.632,0.635 -3.178,1.496 -4.586,2.533c-4.925,3.625 -7.97,10.118 -5.63,16.111c3.473,8.894 13.037,5.197 18.802,0.712" style="fill:none;stroke:#ff0078;stroke-width:5px;"/><path d="M52.147,129.653c0.781,-0.325 1.734,-0.624 1.906,-0.692c3.107,-1.234 6.307,-2.245 9.55,-3.048" style="fill:none;stroke:#ff0078;stroke-width:5px;"/><path d="M81.375,108.694c-6.009,0.268 -7.323,6.448 -7.729,7.987c-1.978,7.495 4.678,14.971 12.349,11.443c4.372,-2.01 7.775,-8.202 5.655,-12.902c-2.146,-4.756 -4.267,-6.796 -10.275,-6.528Z" style="fill:none;stroke:#ff0078;stroke-width:5px;"/><path d="M92.483,116.644c0.909,-0.344 3.331,-1.664 3.558,-1.801c2.724,-1.634 5.573,-4.023 6.392,-7.247c1.139,-4.484 -4.081,-5.252 -7.253,-4.098c-2.898,1.055 -5.484,3.194 -7.051,5.886" style="fill:none;stroke:#ff0078;stroke-width:5px;"/><path d="M91.372,123.101c5.089,3.272 12.707,2.924 15.088,-3.605" style="fill:none;stroke:#ff0078;stroke-width:5px;"/><path d="M114.892,102.339c-6.862,12.068 -1.553,20.126 4.997,18.514c1.969,-0.485 3.478,-2.348 4.242,-4.141c0.353,-0.828 0.721,-2.602 0.721,-2.602c0,0 0.31,2.627 0.857,3.807c1.932,4.17 7.895,2.579 9.94,-0.158c2.887,-3.863 3.449,-13.569 -3.622,-16.311" style="fill:none;stroke:#ff0078;stroke-width:5px;"/><path d="M157.182,100.734c-3.38,-1.095 -7.018,-0.947 -10.729,2.957c-4.873,5.124 -1.108,15.247 5.966,16.398c11.492,1.871 14.816,-16.1 4.763,-19.355Z" style="fill:none;stroke:#ff0078;stroke-width:5px;"/><path d="M171.907,101.909c0.185,-0.026 -3.634,13.586 -3.497,17.42c0.037,1.035 0.726,1.642 1.713,1.832c2.292,0.441 4.35,0.761 6.756,1.301" style="fill:none;stroke:#ff0078;stroke-width:5px;"/><path d="M183.866,123.394c0.007,-0.992 0.395,-3.214 0.525,-4.197c0.404,-3.065 1.296,-8.363 1.921,-9.93c2.807,-7.04 7.801,-5.623 12.74,-1.668" style="fill:none;stroke:#ff0078;stroke-width:5px;"/><path d="M185.15,115.333c1.901,-0.971 6.347,0.423 8.209,1.027" style="fill:none;stroke:#ff0078;stroke-width:5px;"/><path d="M210.186,107.422c-2.146,3.967 -5.529,9.328 -7.726,13.263" style="fill:none;stroke:#ff0078;stroke-width:5px;"/><path d="M199.315,126.335l-0.415,0.936" style="fill:none;stroke:#ff0078;stroke-width:5px;"/><path d="M217.049,112.811c7.99,-2.419 13.487,0.154 14.101,3.828c0.805,4.813 -4.709,9.067 -7.583,12.171c-1.024,1.106 -3.881,3.696 -2.648,5.497c1.037,1.515 3.554,2.151 5.761,2.809" style="fill:none;stroke:#ff0078;stroke-width:5px;"/><path d="M226.813,124.734c-0.005,0.02 -1.459,-0.8 -1.56,-0.856c-1.184,-0.651 -2.448,-1.123 -3.72,-1.57c-3.495,-1.226 -9.08,-2.073 -11.635,1.471c-4.249,5.895 5.985,9.875 10.381,8.74" style="fill:none;stroke:#ff0078;stroke-width:5px;"/><path d="M223.037,104.592c0.444,-0.337 8.328,-4.597 9.013,-4.272c0.919,0.435 1.118,7.859 1.238,8.841" style="fill:none;stroke:#ff0078;stroke-width:5px;"/><path d="M254.111,125.69c-15.504,-10.407 -29.871,14.026 -9.701,19.407" style="fill:none;stroke:#ff0078;stroke-width:5px;"/><path d="M237.728,130.799c3.287,2.65 6.45,3.115 9.153,4.045" style="fill:none;stroke:#ff0078;stroke-width:5px;"/></g><g id="aeoewolfae3" serif:id="aeoewolfae"><path d="M22.084,180.284c1.067,-1.805 2.328,-3.487 3.672,-5.093c2.402,-2.868 8.392,-10.881 13.109,-8.92c2.224,0.924 1.655,6.004 1.704,7.776c0.066,2.341 0.144,4.68 0.211,7.02c0.038,1.31 0.111,2.619 0.17,3.928c0.041,0.935 0.113,1.868 0.178,2.802c0.48,6.851 6.526,-0.676 9.521,-2.18" style="fill:none;stroke:#ff0078;stroke-width:5px;"/><path d="M40.014,179.45c-9.245,0.366 -16.221,9.249 -13.099,14.319c3.104,5.041 9.574,-0.363 11.965,-3.194c0.218,-0.259 1.548,-2.087 1.802,-3.331" style="fill:none;stroke:#ff0078;stroke-width:5px;"/><path d="M19.296,170.84c0.456,-3.375 3.157,-12.458 4.865,-13.527c1.207,-0.755 9.036,1.964 10.529,2.308" style="fill:none;stroke:#ff0078;stroke-width:5px;"/><path d="M62.738,157.506c-1.632,0.635 -3.178,1.496 -4.586,2.533c-4.925,3.626 -7.97,10.118 -5.63,16.111c3.473,8.894 13.037,5.198 18.802,0.712" style="fill:none;stroke:#ff0078;stroke-width:5px;"/><path d="M52.147,174.987c0.781,-0.326 1.734,-0.624 1.906,-0.693c3.107,-1.233 6.307,-2.245 9.55,-3.048" style="fill:none;stroke:#ff0078;stroke-width:5px;"/><path d="M81.375,154.027c-6.009,0.268 -7.323,6.449 -7.729,7.988c-1.978,7.494 4.678,14.971 12.349,11.443c4.372,-2.011 7.775,-8.203 5.655,-12.903c-2.146,-4.755 -4.267,-6.795 -10.275,-6.528Z" style="fill:none;stroke:#ff0078;stroke-width:5px;"/><path d="M92.483,161.978c0.909,-0.345 3.331,-1.665 3.558,-1.801c2.724,-1.634 5.573,-4.023 6.392,-7.248c1.139,-4.483 -4.081,-5.251 -7.253,-4.097c-2.898,1.054 -5.484,3.193 -7.051,5.885" style="fill:none;stroke:#ff0078;stroke-width:5px;"/><path d="M91.372,168.434c5.089,3.272 12.707,2.924 15.088,-3.605" style="fill:none;stroke:#ff0078;stroke-width:5px;"/><path d="M114.892,147.672c-6.862,12.068 -1.553,20.126 4.997,18.514c1.969,-0.484 3.478,-2.348 4.242,-4.141c0.353,-0.828 0.721,-2.602 0.721,-2.602c0,0 0.31,2.627 0.857,3.807c1.932,4.171 7.895,2.579 9.94,-0.157c2.887,-3.864 3.449,-13.57 -3.622,-16.312" style="fill:none;stroke:#ff0078;stroke-width:5px;"/><path d="M157.182,146.067c-3.38,-1.094 -7.018,-0.946 -10.729,2.957c-4.873,5.124 -1.108,15.247 5.966,16.399c11.492,1.87 14.816,-16.101 4.763,-19.356Z" style="fill:none;stroke:#ff0078;stroke-width:5px;"/><path d="M171.907,147.243c0.185,-0.026 -3.634,13.585 -3.497,17.419c0.037,1.035 0.726,1.642 1.713,1.832c2.292,0.441 4.35,0.761 6.756,1.301" style="fill:none;stroke:#ff0078;stroke-width:5px;"/><path d="M183.866,168.727c0.007,-0.992 0.395,-3.213 0.525,-4.197c0.404,-3.065 1.296,-8.363 1.921,-9.93c2.807,-7.04 7.801,-5.623 12.74,-1.668" style="fill:none;stroke:#ff0078;stroke-width:5px;"/><path d="M185.15,160.666c1.901,-0.971 6.347,0.423 8.209,1.027" style="fill:none;stroke:#ff0078;stroke-width:5px;"/><path d="M210.186,152.756c-2.146,3.966 -5.529,9.327 -7.726,13.263" style="fill:none;stroke:#ff0078;stroke-width:5px;"/><path d="M199.315,171.668l-0.415,0.936" style="fill:none;stroke:#ff0078;stroke-width:5px;"/><path d="M217.049,158.144c7.99,-2.418 13.487,0.155 14.101,3.828c0.805,4.814 -4.709,9.067 -7.583,12.171c-1.024,1.106 -3.881,3.696 -2.648,5.497c1.037,1.516 3.554,2.151 5.761,2.809" style="fill:none;stroke:#ff0078;stroke-width:5px;"/><path d="M226.813,170.067c-0.005,0.021 -1.459,-0.8 -1.56,-0.855c-1.184,-0.652 -2.448,-1.124 -3.72,-1.57c-3.495,-1.226 -9.08,-2.074 -11.635,1.47c-4.249,5.895 5.985,9.875 10.381,8.741" style="fill:none;stroke:#ff0078;stroke-width:5px;"/><path d="M223.037,149.926c0.444,-0.337 8.328,-4.597 9.013,-4.273c0.919,0.435 1.118,7.859 1.238,8.842" style="fill:none;stroke:#ff0078;stroke-width:5px;"/><path d="M254.111,171.023c-15.504,-10.407 -29.871,14.026 -9.701,19.407" style="fill:none;stroke:#ff0078;stroke-width:5px;"/><path d="M237.728,176.132c3.287,2.651 6.45,3.116 9.153,4.046" style="fill:none;stroke:#ff0078;stroke-width:5px;"/></g><g id="aeoewolfae4" serif:id="aeoewolfae"><path d="M22.084,224.784c1.067,-1.805 2.328,-3.487 3.672,-5.093c2.402,-2.868 8.392,-10.881 13.109,-8.92c2.224,0.924 1.655,6.004 1.704,7.776c0.066,2.341 0.144,4.68 0.211,7.02c0.038,1.31 0.111,2.619 0.17,3.928c0.041,0.935 0.113,1.868 0.178,2.802c0.48,6.851 6.526,-0.676 9.521,-2.18" style="fill:none;stroke:#ff0078;stroke-width:5px;"/><path d="M40.014,223.95c-9.245,0.366 -16.221,9.249 -13.099,14.319c3.104,5.041 9.574,-0.363 11.965,-3.194c0.218,-0.259 1.548,-2.087 1.802,-3.331" style="fill:none;stroke:#ff0078;stroke-width:5px;"/><path d="M19.296,215.34c0.456,-3.375 3.157,-12.458 4.865,-13.527c1.207,-0.755 9.036,1.964 10.529,2.308" style="fill:none;stroke:#ff0078;stroke-width:5px;"/><path d="M62.738,202.006c-1.632,0.635 -3.178,1.496 -4.586,2.533c-4.925,3.626 -7.97,10.118 -5.63,16.111c3.473,8.894 13.037,5.198 18.802,0.712" style="fill:none;stroke:#ff0078;stroke-width:5px;"/><path d="M52.147,219.487c0.781,-0.326 1.734,-0.624 1.906,-0.693c3.107,-1.233 6.307,-2.245 9.55,-3.048" style="fill:none;stroke:#ff0078;stroke-width:5px;"/><path d="M81.375,198.527c-6.009,0.268 -7.323,6.449 -7.729,7.988c-1.978,7.494 4.678,14.971 12.349,11.443c4.372,-2.011 7.775,-8.203 5.655,-12.903c-2.146,-4.755 -4.267,-6.795 -10.275,-6.528Z" style="fill:none;stroke:#ff0078;stroke-width:5px;"/><path d="M92.483,206.478c0.909,-0.345 3.331,-1.665 3.558,-1.801c2.724,-1.634 5.573,-4.023 6.392,-7.248c1.139,-4.483 -4.081,-5.251 -7.253,-4.097c-2.898,1.054 -5.484,3.193 -7.051,5.885" style="fill:none;stroke:#ff0078;stroke-width:5px;"/><path d="M91.372,212.934c5.089,3.272 12.707,2.924 15.088,-3.605" style="fill:none;stroke:#ff0078;stroke-width:5px;"/><path d="M114.892,192.172c-6.862,12.068 -1.553,20.126 4.997,18.514c1.969,-0.484 3.478,-2.348 4.242,-4.141c0.353,-0.828 0.721,-2.602 0.721,-2.602c0,0 0.31,2.627 0.857,3.807c1.932,4.171 7.895,2.579 9.94,-0.157c2.887,-3.864 3.449,-13.57 -3.622,-16.312" style="fill:none;stroke:#ff0078;stroke-width:5px;"/><path d="M157.182,190.567c-3.38,-1.094 -7.018,-0.946 -10.729,2.957c-4.873,5.124 -1.108,15.247 5.966,16.399c11.492,1.87 14.816,-16.101 4.763,-19.356Z" style="fill:none;stroke:#ff0078;stroke-width:5px;"/><path d="M171.907,191.743c0.185,-0.026 -3.634,13.585 -3.497,17.419c0.037,1.035 0.726,1.642 1.713,1.832c2.292,0.441 4.35,0.761 6.756,1.301" style="fill:none;stroke:#ff0078;stroke-width:5px;"/><path d="M183.866,213.227c0.007,-0.992 0.395,-3.213 0.525,-4.197c0.404,-3.065 1.296,-8.363 1.921,-9.93c2.807,-7.04 7.801,-5.623 12.74,-1.668" style="fill:none;stroke:#ff0078;stroke-width:5px;"/><path d="M185.15,205.166c1.901,-0.971 6.347,0.423 8.209,1.027" style="fill:none;stroke:#ff0078;stroke-width:5px;"/><path d="M210.186,197.256c-2.146,3.966 -5.529,9.327 -7.726,13.263" style="fill:none;stroke:#ff0078;stroke-width:5px;"/><path d="M199.315,216.168l-0.415,0.936" style="fill:none;stroke:#ff0078;stroke-width:5px;"/><path d="M217.049,202.644c7.99,-2.418 13.487,0.155 14.101,3.828c0.805,4.814 -4.709,9.067 -7.583,12.171c-1.024,1.106 -3.881,3.696 -2.648,5.497c1.037,1.516 3.554,2.151 5.761,2.809" style="fill:none;stroke:#ff0078;stroke-width:5px;"/><path d="M226.813,214.567c-0.005,0.021 -1.459,-0.8 -1.56,-0.855c-1.184,-0.652 -2.448,-1.124 -3.72,-1.57c-3.495,-1.226 -9.08,-2.074 -11.635,1.47c-4.249,5.895 5.985,9.875 10.381,8.741" style="fill:none;stroke:#ff0078;stroke-width:5px;"/><path d="M223.037,194.426c0.444,-0.337 8.328,-4.597 9.013,-4.273c0.919,0.435 1.118,7.859 1.238,8.842" style="fill:none;stroke:#ff0078;stroke-width:5px;"/><path d="M254.111,215.523c-15.504,-10.407 -29.871,14.026 -9.701,19.407" style="fill:none;stroke:#ff0078;stroke-width:5px;"/><path d="M237.728,220.632c3.287,2.651 6.45,3.116 9.153,4.046" style="fill:none;stroke:#ff0078;stroke-width:5px;"/></g><path d="M122.061,129.896c-2.821,-0.718 -5.49,-1.892 -8.032,-3.523c-0.751,-0.482 -3.068,-2.541 -4.368,-3.635c-12.415,-1.34 -27.891,-12.855 -21.296,-21.936c1.449,-1.995 10.791,-7.238 16.703,-5.012c-0.212,-3.022 -0.461,-6.003 0.01,-9.181c1.73,-11.668 10.568,-21.692 21.424,-25.973c18.602,-7.336 42.909,8.378 42.237,28.449c3.756,-4.759 13.346,-12.399 19.526,-7.133c9.101,7.754 4.678,20.752 -2.611,27.603c-2.121,1.994 -8.743,5.531 -13.502,5.277c-1.279,1.671 -2.946,3.11 -4.751,4.359c1.052,2.725 1.458,6.239 2.036,8.618c2.601,10.719 4.302,23.539 1.475,34.422c-0.87,3.347 -4.922,4.867 -8.49,5.674c-0.274,1.06 -0.833,2.497 -0.988,4.01c-0.383,3.729 0.992,7.671 3.417,10.395c0,0 0.004,0.006 0.011,0.018c0.03,0.032 0.058,0.067 0.082,0.106c0.115,0.177 0.158,0.337 0.138,0.481c0.017,0.136 0.009,0.281 -0.047,0.424c-0.194,0.497 -0.552,0.581 -0.998,0.352c-1.925,0.592 -6.1,0.579 -9.109,0.694c-1.727,0.066 -3.978,0.576 -4.1,-1.132c-0.137,-1.92 2.411,-3.305 4.105,-3.691c0.878,-0.2 1.386,-0.275 2.657,-0.273c0.708,0.01 1.416,0.068 2.111,0.199c0.491,0.092 0.989,0.218 1.469,0.393c-1.047,-2.143 -1.868,-4.832 -1.792,-7.188c0.048,-1.497 0.339,-3.099 0.772,-4.343c-0.34,0.059 -0.666,0.112 -0.973,0.162c-8.834,1.421 -18.339,2.383 -27.243,1.263c-0.212,-0.027 -0.425,-0.054 -0.64,-0.083c1.172,2.146 1.714,5.246 0.97,7.717c-0.25,0.826 -0.623,1.61 -1.077,2.349c0.463,-0.073 0.918,-0.111 1.342,-0.106c4.094,0.095 9.623,5.446 4.081,5.014c-3.22,-0.261 -6.452,-0.496 -9.691,-0.53c0,0 -0.022,-0.013 -0.058,-0.038c-0.419,-0.05 -0.805,-0.354 -0.806,-0.849c-0.129,-0.283 -0.118,-0.598 0.238,-0.884c0.236,-0.518 0.772,-1.003 1.469,-1.416c1.934,-2.034 3.353,-4.628 2.711,-7.419c-0.393,-1.711 -1.446,-3.185 -2.653,-4.433c-2.8,-0.634 -5.515,-1.745 -7.258,-4.042c-2.339,-3.08 -1.668,-8.202 -1.528,-11.789c0.303,-7.773 2.366,-15.618 3.027,-23.37Z" style="fill:#fff;fill-rule:nonzero;stroke:#fff;stroke-width:7.5px;stroke-linecap:butt;stroke-miterlimit:1.41421;"/><g id="guy"><path d="M128.288,168.148c8.401,8.288 -1.702,14.988 -1.359,14.988" style="fill:none;stroke:#445;stroke-width:2px;"/><path d="M126.929,183.136c0.705,0 3.656,0.147 6.342,0.253c0.62,0.024 4.762,0.43 4.761,0.348c-0.004,-0.53 -1.888,-1.69 -2.229,-1.93c-1.67,-1.179 -4.413,-2.235 -8.611,0.996" style="fill:#445;stroke:#445;stroke-width:2px;"/><path d="M161.804,167.156c-4.247,8.611 2.299,15.819 2.299,15.819" style="fill:none;stroke:#445;stroke-width:2px;"/><path d="M164.103,182.975c0,0 -10.072,0.488 -11.767,0.486c-1.648,-0.002 1.138,-2.393 2.078,-2.716c2.475,-0.848 6.796,-0.574 8.324,1.336" style="fill:#445;stroke:#445;stroke-width:2px;"/><path d="M122.263,125.582c-0.035,9.145 -2.87,18.465 -3.229,27.684c-0.14,3.587 -0.811,8.709 1.528,11.789c2.606,3.434 7.385,4.218 11.372,4.72c8.904,1.12 18.409,0.158 27.243,-1.263c3.788,-0.61 10.578,-1.828 11.735,-6.281c2.827,-10.883 1.126,-23.703 -1.475,-34.422c-0.753,-3.1 -1.214,-8.126 -3.193,-10.824c-1.794,-2.446 -43.981,8.597 -43.981,8.597Z" style="fill:#82b7d1;"/><path d="M105.068,95.79c-0.212,-3.022 -0.461,-6.003 0.01,-9.181c1.73,-11.668 10.568,-21.692 21.424,-25.973c18.602,-7.336 42.909,8.378 42.237,28.449c3.756,-4.759 13.346,-12.399 19.526,-7.133c9.101,7.754 4.678,20.752 -2.611,27.603c-2.121,1.994 -8.743,5.531 -13.502,5.277c-2.637,3.447 -6.927,5.904 -10.676,7.751c-9.951,4.904 -22.67,8.615 -33.787,8.132c-4.967,-0.216 -9.484,-1.663 -13.66,-4.342c-0.751,-0.482 -3.068,-2.541 -4.368,-3.635c-12.415,-1.34 -27.891,-12.855 -21.296,-21.936c1.449,-1.995 10.791,-7.238 16.703,-5.012Z" style="fill:#ffe5f2;"/><path d="M126.715,101.037c-4.041,-1.282 -2.765,-6.377 1.006,-6.191c7.068,0.35 2.476,13.873 -4.617,10.139c-7.71,-4.058 -4.984,-18.648 4.423,-16.297" style="fill:none;stroke:#445;stroke-width:2px;"/><path d="M151.492,96.355c0.812,-1.137 0.718,-2.845 -0.598,-3.597c-2.075,-1.186 -5.008,0.467 -4.683,2.93c0.679,5.143 7.175,6.505 10.457,2.983c0.885,-0.949 1.63,-2.169 2.035,-3.404c2.454,-7.485 -6.976,-15.755 -13.511,-10.036" style="fill:none;stroke:#445;stroke-width:2px;"/><path d="M128.405,116.772c0.385,-2.147 2.33,-4.727 2.915,-5.525c3.899,-5.317 6.373,2.864 10.386,1.527c2.487,-0.83 4.238,-5.659 7.072,-6.156c4.064,-0.713 5.136,4.344 5.558,5.612" style="fill:none;stroke:#445;stroke-width:2px;"/><path d="M128.261,137.247c0,-0.072 0.362,4.725 0.456,5.93c0.335,4.274 1.214,8.698 1.211,12.982" style="fill:none;stroke:#ffe5f2;stroke-width:2px;"/><path d="M159.926,132.579c0.006,-0.732 -0.049,1.464 -0.104,2.194c-0.116,1.523 -0.31,3.041 -0.456,4.561c-0.475,4.94 -0.948,9.212 -0.948,14.179" style="fill:none;stroke:#ffe5f2;stroke-width:2px;"/><path d="M154.261,159.247c0.368,-7.582 8.126,-7.448 7.637,0.916" style="fill:none;stroke:#ffe5f2;stroke-width:2px;"/><path d="M127.861,164.352c-1.455,-1.357 -1.929,-6.783 1.783,-7.595c3.711,-0.812 5.552,4.836 3.647,7.003" style="fill:none;stroke:#ffe5f2;stroke-width:2px;"/></g></svg>