<?xml version="1.0" encoding="UTF-8" standalone="no"?><!DOCTYPE svg PUBLIC "-//W3C//DTD SVG 1.1//EN" "http://www.w3.org/Graphics/SVG/1.1/DTD/svg11.dtd"><svg width="100%" height="100%" viewBox="0 0 320 220" version="1.1" xmlns="http://www.w3.org/2000/svg" xmlns:xlink="http://www.w3.org/1999/xlink" xml:space="preserve" xmlns:serif="http://www.serif.com/" style="fill-rule:evenodd;clip-rule:evenodd;stroke-linecap:round;stroke-linejoin:round;stroke-miterlimit:1.5;"><rect id="auto-closing-tag" x="0" y="0" width="320" height="220" style="fill:none;"/><g id="self-closing-element"><path d="M96.928,29.439c-20.506,21.517 -39.622,43.658 -57.499,66.774c-5.653,7.309 -10.6,14.911 -14.949,22.832c-1.88,3.424 -4.448,7.618 -4.48,11.471c-0.034,4.141 2.578,8.445 4.796,12c7.703,12.348 65.501,43.579 77.892,49.936c7.462,3.829 14.724,7.532 23.642,8.041c11.475,0.654 22.858,-5.469 31.601,-11.05c9.184,-5.863 50.234,-43.266 63.616,-57.389c6.633,-7 11.707,-16.854 6.469,-25.526c-8.627,-14.283 -59.877,-57.145 -69.127,-65.645c-11.484,-10.553 -31.254,-29.468 -51.03,-19.606c-4.145,2.067 -7.741,5.245 -10.936,8.25" style="fill:#bad7e6;"/><path d="M133.546,96.319c-14.052,-1.496 -43.803,0.29 -61.141,12.352c-3.58,2.491 -6.891,5.468 -9.645,8.912c-1.999,2.501 -3.697,5.302 -4.956,8.286c-0.957,2.265 -1.668,4.638 -1.954,7.111c-1.685,14.558 14.579,21.1 25.403,24.785c8.563,2.916 17.334,5.785 26.293,6.021c38.992,1.028 73.613,-8.833 81.343,-14.711c2.524,-1.919 4.763,-4.214 6.506,-6.919c8.615,-13.379 3.852,-22.473 -8.042,-31.049c-14.18,-10.225 -39.756,-13.292 -53.807,-14.788Z" style="fill:#ffe5f2;"/><g id="face"><path d="M113.544,70.13c-0,0.201 -1.327,1.374 -1.495,1.633c-1.103,1.7 -1.913,3.858 -0.91,5.744c2.283,4.295 9.191,2.82 9.175,-1.712c-0.002,-0.393 0.043,0.786 0.116,1.174c0.15,0.791 0.573,1.58 1.215,2.16c1.68,1.519 4.319,1.17 6.051,-0.074c3.677,-2.639 2.206,-7.765 -1.621,-9.728" style="fill:none;stroke:#445;stroke-width:2px;"/><path d="M91.433,65.286c0,0 -3.691,-1.681 -5.854,-0.506c-5.538,3.01 -7.531,10.233 -0.903,13.403c7.062,3.377 14.136,-9.07 6.757,-12.897Z" style="fill:#445;"/><path d="M153.437,62.696c-2.143,-0.158 -4.817,1.204 -6.072,2.443c-4.192,4.138 -1.993,11.1 3.66,11.798c4.843,0.598 8.729,-5.107 7.948,-9.524c-0.411,-2.326 -3.392,-4.559 -5.536,-4.717Z" style="fill:#445;"/></g><g id="self-closing-text"><path d="M170.767,117.281c-3.608,5.758 -7.731,16.181 -9.492,21.463" style="fill:none;stroke:#ff0078;stroke-width:3px;"/><path d="M95.548,120.071c-0.121,6.558 2.078,12.766 3.039,19.184" style="fill:none;stroke:#445;stroke-width:3px;"/><path d="M94.975,120.195c2.691,-1.822 12.837,-5.254 14.361,0.217c0.872,3.13 -2.968,5.727 -5.396,6.767c-0.914,0.392 -1.85,0.749 -2.787,1.082c-0.365,0.129 -2.736,0.959 -2.352,0.919c17.22,-1.793 16.383,5.576 14.568,7.215c-3.429,3.097 -10.103,3.477 -14.551,3.414" style="fill:none;stroke:#445;stroke-width:3px;"/><path d="M122.525,116.316c0.594,6.957 2.344,13.886 2.796,20.826" style="fill:none;stroke:#445;stroke-width:3px;"/><path d="M121.631,116.05c4.655,-1.974 11.168,-1.39 15.79,0.788c1.94,0.914 4.289,2.226 3.878,4.735c-0.308,1.881 -2.387,3.137 -3.959,3.822c-3.662,1.593 -7.683,2.517 -11.676,2.345" style="fill:none;stroke:#445;stroke-width:3px;"/><path d="M131.921,127.505c2.82,4.254 4.828,6.412 8.22,10.202" style="fill:none;stroke:#445;stroke-width:3px;"/><path d="M177.116,117.489c-0,-0.029 6.649,3.655 7.316,4.056c1.491,0.898 5.903,2.697 5.902,5.034c-0.001,1.93 -2.173,3.47 -3.544,4.463c-3.438,2.487 -7.156,4.623 -10.679,6.972" style="fill:none;stroke:#445;stroke-width:3px;"/><path d="M82.279,122.681c-1.76,1.76 -3.662,3.405 -5.469,5.12c-1.882,1.786 -3.787,3.549 -5.645,5.36c-0.538,0.523 -1.666,1.286 -1.731,2.12c-0.11,1.401 3.215,2.131 4.11,2.418c4.438,1.42 9.074,2.157 13.41,3.891" style="fill:none;stroke:#445;stroke-width:3px;"/></g></g><g id="bottom-arrow"><path d="M164.653,148.72c-0.145,-0.145 16.318,46.552 61.284,29.075" style="fill:none;stroke:#ff0078;stroke-width:2px;"/><path d="M173.595,152.539c0.686,0.474 -7.172,-5.603 -8.954,-4.628c-2.659,1.454 -2.04,10.157 -1.908,10.879" style="fill:none;stroke:#ff0078;stroke-width:2px;"/></g><g id="self-close-text"><g><path d="M219.899,171.51c-1.228,-3.061 -1.314,-6.662 0.119,-9.704c0.716,-1.52 2.365,-3.62 4.322,-2.469c1.112,0.654 1.471,1.927 1.754,3.096c0.603,2.486 0.678,4.947 0.794,7.482" style="fill:none;stroke:#ff0078;stroke-width:2px;"/><path d="M219.698,165.763c1.93,-0.174 3.865,-0.29 5.798,-0.425" style="fill:none;stroke:#ff0078;stroke-width:2px;"/><path d="M230.55,158.559c-0.462,2.511 -1.114,6.417 0.373,8.772c0.904,1.433 3.147,2.891 4.66,1.392c2.626,-2.601 2.291,-7.22 2.033,-10.649" style="fill:none;stroke:#ff0078;stroke-width:2px;"/><path d="M240.801,157.41c3.987,-0.411 7.962,-1.111 11.927,-1.693" style="fill:none;stroke:#ff0078;stroke-width:2px;"/><path d="M246.806,157.087c-0.737,3.426 -0.623,6.713 -0.4,10.146" style="fill:none;stroke:#ff0078;stroke-width:2px;"/><path d="M259.349,156.08c-2.409,0.557 -4.677,3.053 -4.75,5.764c-0.086,3.211 2.993,5.44 5.822,4.629c2.887,-0.827 5.253,-4.051 4.775,-7.343c-0.418,-2.881 -3.977,-3.891 -6.074,-2.68" style="fill:none;stroke:#ff0078;stroke-width:2px;"/></g><g><path d="M231.845,187.243c-0.876,-3.177 -3.113,-8.926 0.75,-11.04c0.646,-0.354 1.389,-0.572 2.105,-0.733c1.523,-0.343 3.115,-0.301 4.666,-0.408" style="fill:none;stroke:#ff0078;stroke-width:2px;"/><path d="M230.796,182.492c1.712,-0.648 3.506,-0.916 5.232,-1.48" style="fill:none;stroke:#ff0078;stroke-width:2px;"/><path d="M247.533,175.155c-3.63,-0.749 -7.86,4.302 -6.31,7.762c1.123,2.504 5.4,1.864 7.32,0.786" style="fill:none;stroke:#ff0078;stroke-width:2px;"/><path d="M241.064,180.795c1.726,-0.274 3.473,-0.567 5.177,-0.955" style="fill:none;stroke:#ff0078;stroke-width:2px;"/><path d="M252.282,173.797c0.405,3.317 0.497,6.702 1.162,9.985" style="fill:none;stroke:#ff0078;stroke-width:2px;"/><path d="M252.447,173.813c1.191,-0.338 2.591,-0.837 3.843,-0.752c1.662,0.113 3.743,1.983 2.356,3.706c-1.087,1.35 -3.27,2.232 -4.996,2.187" style="fill:none;stroke:#ff0078;stroke-width:2px;"/><path d="M256.75,178.343c0.987,1.569 1.786,3.201 2.899,4.69" style="fill:none;stroke:#ff0078;stroke-width:2px;"/><path d="M264.285,183.087c-0.315,-1.203 -0.578,-2.486 -0.693,-3.725c-0.082,-0.884 -0.105,-1.768 -0.113,-2.655c-0.005,-0.621 -0.017,-1.246 0.021,-1.866c0.02,-0.327 0.058,-0.654 0.113,-0.977c0.133,-0.772 0.214,-1.656 1.153,-0.887c0.164,0.134 0.296,0.305 0.417,0.477c0.788,1.118 1.385,2.456 1.89,3.724c0.121,0.304 0.501,1.737 1.038,1.573c0.589,-0.18 0.896,-0.939 1.116,-1.453c0.542,-1.272 0.841,-2.638 1.342,-3.926c0.149,-0.384 0.395,-1.248 0.782,-1.47c0.233,-0.135 0.559,0.167 0.698,0.306c0.482,0.483 0.612,1.228 0.681,1.88c0.301,2.825 0.017,5.717 0.456,8.535" style="fill:none;stroke:#ff0078;stroke-width:2px;"/><path d="M277.642,183.138c-0.808,-2.983 -0.557,-7.071 1.407,-9.581c0.586,-0.748 2.089,-2.363 3.199,-1.714c1.139,0.665 1.41,1.972 1.706,3.163c0.613,2.462 0.516,5.056 0.593,7.573" style="fill:none;stroke:#ff0078;stroke-width:2px;"/><path d="M277.592,178.51c2.183,-0.552 4.332,-0.879 6.545,-1.277" style="fill:none;stroke:#ff0078;stroke-width:2px;"/><path d="M288.455,182.904c-0.276,-1.421 -0.4,-2.864 -0.548,-4.302c-0.101,-0.988 -0.187,-1.973 -0.224,-2.966c-0.011,-0.299 -0.022,-0.599 -0.022,-0.898c0,-1.037 0.155,-3.819 1.846,-2.774c0.211,0.13 0.403,0.301 0.566,0.488c0.294,0.337 0.518,0.74 0.744,1.124c0.371,0.631 0.597,1.284 0.79,1.986c0.141,0.514 0.258,1.035 0.393,1.551c0.098,0.378 0.203,0.75 0.327,1.12c0.11,0.329 0.216,0.659 0.341,0.981c0.084,0.217 0.177,0.427 0.27,0.639c0.329,0.743 1.248,3.118 2.335,1.957c0.144,-0.153 0.251,-0.35 0.341,-0.538c0.149,-0.315 0.245,-0.653 0.316,-0.992c0.113,-0.533 0.192,-1.063 0.224,-1.606c0.054,-0.903 0.056,-1.796 -0.035,-2.696c-0.153,-1.508 -0.241,-3.023 -0.427,-4.527" style="fill:none;stroke:#ff0078;stroke-width:2px;"/><path d="M298.839,170.914c3.611,-0.36 7.092,-1.202 10.743,-1.129" style="fill:none;stroke:#ff0078;stroke-width:2px;"/><path d="M304.851,170.288c-0.142,2.446 -0.044,4.869 0.006,7.313c0.034,1.645 -0.11,3.39 0.108,5.034" style="fill:none;stroke:#ff0078;stroke-width:2px;"/></g></g><g id="top-arrow" serif:id="top arrow"><path d="M159.314,91.762c15.11,-21.222 37.131,-38.831 63.478,-42.952" style="fill:none;stroke:#ff0078;stroke-width:2px;"/><path d="M156.697,86.309c-0.104,-0.766 0.418,1.375 0.452,1.527c0.295,1.332 0.545,2.679 0.764,4.026c0.03,0.188 0.071,1.573 0.333,1.661c0.141,0.048 5.989,-1.857 7.969,-2.012" style="fill:none;stroke:#ff0078;stroke-width:2px;"/></g><g id="single-tag"><g><path d="M233.207,25.813c-0,3.17 0.413,6.357 0.409,9.519" style="fill:none;stroke:#ff0078;stroke-width:2px;"/><path d="M228.756,26.032c2.102,-0.028 4.242,-0.128 6.295,-0.433c0.484,-0.072 1.529,-0.3 2.172,-0.445" style="fill:none;stroke:#ff0078;stroke-width:2px;"/><path d="M239.432,34.906c0,-2.42 0.001,-4.953 0.767,-7.274c0.318,-0.967 0.9,-2.253 1.958,-2.503c4.5,-1.065 4.124,7.249 4.115,9.628" style="fill:none;stroke:#ff0078;stroke-width:2px;"/><path d="M240.088,30.4c1.97,0 4.162,-0.029 6.095,0.357" style="fill:none;stroke:#ff0078;stroke-width:2px;"/><path d="M256.603,25.683c-2.136,-1.385 -5.178,-0.103 -6.151,1.518c-1.27,2.117 -1.069,5.035 1.131,6.668c0.571,0.424 1.48,0.816 2.236,0.894c2.421,0.249 4.176,-0.787 4.165,-2.706c-0.012,-1.919 -2.674,-2.844 -3.911,-1.986" style="fill:none;stroke:#ff0078;stroke-width:2px;"/></g><path d="M235.42,42.74c-2.38,0.305 -4.868,1.764 -5.866,4.038c-1.671,3.809 1.808,7.702 5.76,7.371c2.817,-0.236 5.604,-3.097 5.907,-5.903c0.239,-2.217 -1.996,-5.117 -4.384,-5.13" style="fill:none;stroke:#ff0078;stroke-width:2px;"/><path d="M245.358,43.885c-0.198,2.749 -0.226,5.832 1.145,8.331c1.318,2.403 3.889,2.062 5.305,-0.164c1.589,-2.497 0.979,-5.884 0.537,-8.237" style="fill:none;stroke:#ff0078;stroke-width:2px;"/><path d="M255.984,44.413c0.366,1.311 0.608,2.656 0.992,3.961c0.412,1.401 0.877,2.802 1.522,4.116c0.031,0.063 0.487,1.093 0.522,1.088c0.702,-0.089 1.427,-1.418 1.75,-1.942c1.326,-2.149 1.844,-4.736 3.165,-6.865" style="fill:none;stroke:#ff0078;stroke-width:2px;"/><path d="M267.247,44.879c0.194,3.251 0.533,6.525 0.615,9.78" style="fill:none;stroke:#ff0078;stroke-width:2px;"/><path d="M266.245,45.136c1.078,-0.464 2.124,-0.833 3.304,-0.901c0.598,-0.035 1.204,0.012 1.794,0.108c2.165,0.35 3.255,1.847 1.654,3.764c-1.143,1.37 -2.677,1.888 -4.364,2.147" style="fill:none;stroke:#ff0078;stroke-width:2px;"/><path d="M270.76,49.91c0.779,1.701 1.562,2.935 2.555,4.513" style="fill:none;stroke:#ff0078;stroke-width:2px;"/><path d="M277.476,54.599c-0.063,-1.146 -0.089,-1.09 -0.069,-2.235c0.028,-1.603 0.012,-5.888 1.998,-6.739c0.813,-0.348 1.928,0.861 2.298,1.385c1.28,1.811 1.646,4.52 1.597,6.695" style="fill:none;stroke:#ff0078;stroke-width:2px;"/><path d="M277.465,50.84c1.548,0.413 2.689,0.192 4.451,0.007" style="fill:none;stroke:#ff0078;stroke-width:2px;"/><path d="M286.914,54.695c-0.058,-1.113 -0.04,-2.195 0.056,-3.305c0.065,-0.744 0.153,-1.484 0.252,-2.223c0.171,-1.281 0.834,-4.335 2.393,-2.359c0.659,0.835 1.198,9.673 4.244,6.832c1.308,-1.22 1.277,-6.53 1.37,-7.654" style="fill:none;stroke:#ff0078;stroke-width:2px;"/><path d="M297.898,46.062c3.73,0.309 7.42,-0.525 11.131,-0.441" style="fill:none;stroke:#ff0078;stroke-width:2px;"/><path d="M303.094,45.873c-0.183,3.606 -0.514,7.202 -0.924,10.789" style="fill:none;stroke:#ff0078;stroke-width:2px;"/></g></svg>