<?xml version="1.0" encoding="UTF-8" standalone="no"?><!DOCTYPE svg PUBLIC "-//W3C//DTD SVG 1.1//EN" "http://www.w3.org/Graphics/SVG/1.1/DTD/svg11.dtd"><svg width="100%" height="100%" viewBox="0 0 120 36" version="1.1" xmlns="http://www.w3.org/2000/svg" xmlns:xlink="http://www.w3.org/1999/xlink" xml:space="preserve" xmlns:serif="http://www.serif.com/" style="fill-rule:evenodd;clip-rule:evenodd;stroke-linejoin:round;stroke-miterlimit:2;"><rect id="browsers" x="0" y="0" width="120" height="36" style="fill:none;"/><g id="edge"><path d="M26.074,23.63c-0.308,0.161 -0.624,0.302 -0.949,0.424c-1.033,0.387 -2.128,0.584 -3.231,0.582c-4.26,-0 -7.97,-2.93 -7.97,-6.69c0.011,-1.025 0.578,-1.968 1.479,-2.458c-3.852,0.162 -4.842,4.176 -4.842,6.528c-0,6.65 6.128,7.324 7.449,7.324c0.712,0 1.786,-0.207 2.43,-0.41l0.118,-0.04c2.479,-0.857 4.594,-2.534 5.995,-4.752c0.036,-0.058 0.056,-0.125 0.056,-0.193c-0,-0.198 -0.163,-0.36 -0.36,-0.36c-0.062,-0 -0.122,0.015 -0.175,0.045Z" style="fill:url(#_Linear1);fill-rule:nonzero;"/><path d="M26.074,23.63c-0.308,0.161 -0.624,0.302 -0.949,0.424c-1.033,0.387 -2.128,0.584 -3.231,0.582c-4.26,-0 -7.97,-2.93 -7.97,-6.69c0.011,-1.025 0.578,-1.968 1.479,-2.458c-3.852,0.162 -4.842,4.176 -4.842,6.528c-0,6.65 6.128,7.324 7.449,7.324c0.712,0 1.786,-0.207 2.43,-0.41l0.118,-0.04c2.479,-0.857 4.594,-2.534 5.995,-4.752c0.036,-0.058 0.056,-0.125 0.056,-0.193c-0,-0.198 -0.163,-0.36 -0.36,-0.36c-0.062,-0 -0.122,0.015 -0.175,0.045Z" style="fill:url(#_Radial2);fill-rule:nonzero;"/><path d="M14.792,28.21c-0.803,-0.499 -1.499,-1.151 -2.047,-1.921c-0.908,-1.244 -1.397,-2.744 -1.397,-4.283c0,-2.764 1.576,-5.297 4.055,-6.518c0.281,-0.132 0.761,-0.372 1.399,-0.36c0.911,0.006 1.767,0.44 2.312,1.17c0.364,0.485 0.564,1.073 0.573,1.68c-0,-0.019 2.201,-7.165 -7.201,-7.165c-3.952,-0 -7.201,3.75 -7.201,7.039c-0.015,1.741 0.357,3.463 1.09,5.041c2.469,5.267 8.558,7.88 14.076,6.04c-1.897,0.599 -3.965,0.335 -5.651,-0.72l-0.008,-0.003Z" style="fill:url(#_Linear3);fill-rule:nonzero;"/><path d="M14.792,28.21c-0.803,-0.499 -1.499,-1.151 -2.047,-1.921c-0.908,-1.244 -1.397,-2.744 -1.397,-4.283c0,-2.764 1.576,-5.297 4.055,-6.518c0.281,-0.132 0.761,-0.372 1.399,-0.36c0.911,0.006 1.767,0.44 2.312,1.17c0.364,0.485 0.564,1.073 0.573,1.68c-0,-0.019 2.201,-7.165 -7.201,-7.165c-3.952,-0 -7.201,3.75 -7.201,7.039c-0.015,1.741 0.357,3.463 1.09,5.041c2.469,5.267 8.558,7.88 14.076,6.04c-1.897,0.599 -3.965,0.335 -5.651,-0.72l-0.008,-0.003Z" style="fill:url(#_Radial4);fill-rule:nonzero;"/><path d="M18.986,19.879c-0.073,0.094 -0.297,0.225 -0.297,0.509c0,0.235 0.153,0.461 0.425,0.651c1.294,0.9 3.735,0.781 3.741,0.781c0.959,-0.002 1.9,-0.262 2.725,-0.752c1.69,-0.987 2.734,-2.802 2.738,-4.759c0.024,-2.017 -0.72,-3.359 -1.02,-3.953c-1.908,-3.73 -6.025,-5.876 -10.502,-5.876c-6.259,-0.001 -11.433,5.1 -11.521,11.359c0.043,-3.289 3.313,-5.945 7.201,-5.945c0.315,-0 2.112,0.03 3.78,0.906c1.471,0.772 2.242,1.705 2.777,2.629c0.556,0.961 0.655,2.174 0.655,2.657c0,0.484 -0.246,1.2 -0.702,1.793Z" style="fill:url(#_Radial5);fill-rule:nonzero;"/><path d="M18.986,19.879c-0.073,0.094 -0.297,0.225 -0.297,0.509c0,0.235 0.153,0.461 0.425,0.651c1.294,0.9 3.735,0.781 3.741,0.781c0.959,-0.002 1.9,-0.262 2.725,-0.752c1.69,-0.987 2.734,-2.802 2.738,-4.759c0.024,-2.017 -0.72,-3.359 -1.02,-3.953c-1.908,-3.73 -6.025,-5.876 -10.502,-5.876c-6.259,-0.001 -11.433,5.1 -11.521,11.359c0.043,-3.289 3.313,-5.945 7.201,-5.945c0.315,-0 2.112,0.03 3.78,0.906c1.471,0.772 2.242,1.705 2.777,2.629c0.556,0.961 0.655,2.174 0.655,2.657c0,0.484 -0.246,1.2 -0.702,1.793Z" style="fill:url(#_Radial6);fill-rule:nonzero;"/></g><g id="chrome"><path d="M59.306,18.112l-0,0l-0,-6.181l10.715,-0c-2.139,-4.134 -6.124,-6.184 -10.699,-6.184c-4.578,-0 -8.566,2.494 -10.703,6.192l5.341,9.265l5.346,-3.092Z" style="fill:#dc4536;fill-rule:nonzero;"/><path d="M59.306,11.931l-0,6.181l-0,0l5.362,3.092l-5.35,9.275c6.83,-0 12.369,-5.536 12.369,-12.366c-0,-2.255 -0.612,-4.149 -1.666,-6.182l-10.715,-0Z" style="fill:#ffce40;fill-rule:nonzero;"/><path d="M59.306,18.112l-0,0.001l-0,-0.001l-5.346,3.092l-5.346,-9.266c-1.051,1.819 -1.66,3.923 -1.66,6.174c-0,6.83 5.538,12.367 12.367,12.367l5.347,-9.275l-5.362,-3.092Z" style="fill:#169e58;fill-rule:nonzero;"/><path d="M53.965,21.201l-1.847,-3.192l-3.482,-6.04l7.802,7.802l-0.277,0.16l-2.196,1.27Z" style="fill:#cb4033;"/><path d="M59.346,30.436l2.855,-10.654l2.467,1.422l-0.72,1.248l-4.602,7.984Z" style="fill:#069353;"/><path d="M59.323,14.787l0,-2.856l10.658,-0l-10.658,2.856Z" style="fill:#f2c239;"/><path d="M65.506,18.113c-0,3.415 -2.769,6.183 -6.184,6.183c-3.414,-0 -6.183,-2.768 -6.183,-6.183c0,-3.415 2.769,-6.183 6.183,-6.183c3.415,-0 6.184,2.768 6.184,6.183Z" style="fill:#f3f3f4;fill-rule:nonzero;"/><path d="M63.857,18.113c-0,2.504 -2.03,4.534 -4.535,4.534c-2.504,0 -4.534,-2.03 -4.534,-4.534c0,-2.505 2.03,-4.535 4.534,-4.535c2.505,0 4.535,2.03 4.535,4.535Z" style="fill:#547dbf;fill-rule:nonzero;"/></g><g id="firefox"><path d="M113.875,16.853l-0.861,3.377l-2.046,3.682l-4.761,3.273l-6.918,-0.409l-3.534,-2.641l-3.422,-8.146c0,0 0,-2.581 1.08,-5.5c0,0 -2.493,1.971 -3.001,6.115c-0.008,0.064 -0.015,0.128 -0.022,0.192c-0.003,0.022 -0.005,0.044 -0.007,0.067c-0.019,0.193 -0.034,0.387 -0.044,0.583c-0.001,0.014 -0.002,0.029 -0.002,0.044c-0.004,0.082 -0.007,0.164 -0.01,0.246c-0,0.023 -0.001,0.046 -0.002,0.069c-0.002,0.097 -0.003,0.194 -0.003,0.292c-0,6.82 5.529,12.35 12.35,12.35c6.82,-0 12.35,-5.53 12.35,-12.35c-0,-1.511 -0.272,-2.959 -0.769,-4.297l-0.378,3.053Z" style="fill:url(#_Linear7);"/><path d="M111.151,10.573l1.145,6.566l-1.703,3.562l-5.172,2.509c-0,-0 -4.843,-0.376 -6.66,-3.749c-1.816,-3.373 0.019,-8.658 3.911,-10.253c-6.729,-0.97 -12.838,4.28 -9.975,11.816c1.595,4.196 5.106,6.96 10.562,6.96c5.455,-0 11.189,-4.395 11.292,-13.275c-0.178,-0.627 -0.405,-1.233 -0.676,-1.815c-1.668,-3.586 -2.724,-2.321 -2.724,-2.321Z" style="fill:url(#_Linear8);"/><path d="M109.044,7.516c-1.86,-1.123 -4.041,-1.769 -6.372,-1.769c-0.388,-0 -0.77,0.018 -1.148,0.053c-1.33,0.14 -3.572,0.618 -5.391,2.216c6.622,-3.38 15.467,0.691 14.714,8.264c-0.268,2.698 -2.561,4.557 -4.696,4.87c6.971,-0.556 8.624,-10.037 2.893,-13.634Z" style="fill:url(#_Linear9);"/><path d="M109.044,7.516c5.731,3.597 4.078,13.078 -2.893,13.634c-0.392,0.058 -0.779,0.063 -1.147,0.012c-5.215,-0.725 -4.896,-5 -3.312,-6.827c-2.907,-0.018 -4.902,4.97 -0.826,7.906c4.076,2.936 8.922,0.912 10.861,-2.138c1.199,-1.888 2.147,-4.392 2.147,-7.209c-1.04,-2.237 -2.731,-4.111 -4.83,-5.378Z" style="fill:url(#_Linear10);"/></g><defs><linearGradient id="_Linear1" x1="0" y1="0" x2="1" y2="0" gradientUnits="userSpaceOnUse" gradientTransform="matrix(16.0523,0,0,16.0523,10.5606,22.4159)"><stop offset="0" style="stop-color:#0c59a4;stop-opacity:1"/><stop offset="1" style="stop-color:#114a8b;stop-opacity:1"/></linearGradient><radialGradient id="_Radial2" cx="0" cy="0" r="1" gradientUnits="userSpaceOnUse" gradientTransform="matrix(8.58509,0,0,-8.15584,19.4265,22.5424)"><stop offset="0" style="stop-color:#000;stop-opacity:0"/><stop offset="0.72" style="stop-color:#000;stop-opacity:0"/><stop offset="0.95" style="stop-color:#000;stop-opacity:0.19"/><stop offset="1" style="stop-color:#000;stop-opacity:0.35"/></radialGradient><linearGradient id="_Linear3" x1="0" y1="0" x2="1" y2="0" gradientUnits="userSpaceOnUse" gradientTransform="matrix(-10.0261,10.9208,-10.9208,-10.0261,19.0232,15.4527)"><stop offset="0" style="stop-color:#1b9de2;stop-opacity:1"/><stop offset="0.16" style="stop-color:#1595df;stop-opacity:1"/><stop offset="0.67" style="stop-color:#0680d7;stop-opacity:1"/><stop offset="1" style="stop-color:#0078d4;stop-opacity:1"/></linearGradient><radialGradient id="_Radial4" cx="0" cy="0" r="1" gradientUnits="userSpaceOnUse" gradientTransform="matrix(1.93394,-12.764,-10.3144,-1.54715,11.6294,24.3923)"><stop offset="0" style="stop-color:#000;stop-opacity:0"/><stop offset="0.76" style="stop-color:#000;stop-opacity:0"/><stop offset="0.95" style="stop-color:#000;stop-opacity:0.2"/><stop offset="1" style="stop-color:#000;stop-opacity:0.41"/></radialGradient><radialGradient id="_Radial5" cx="0" cy="0" r="1" gradientUnits="userSpaceOnUse" gradientTransform="matrix(-0.728824,18.2206,38.8099,1.45765,7.60307,10.7441)"><stop offset="0" style="stop-color:#35c1f1;stop-opacity:1"/><stop offset="0.11" style="stop-color:#34c1ed;stop-opacity:1"/><stop offset="0.23" style="stop-color:#2fc2df;stop-opacity:1"/><stop offset="0.31" style="stop-color:#2bc3d2;stop-opacity:1"/><stop offset="0.67" style="stop-color:#36c752;stop-opacity:1"/><stop offset="1" style="stop-color:#36c752;stop-opacity:1"/></radialGradient><radialGradient id="_Radial6" cx="0" cy="0" r="1" gradientUnits="userSpaceOnUse" gradientTransform="matrix(2.45322,8.41105,6.83398,-2.01515,26.8839,13.447)"><stop offset="0" style="stop-color:#66eb6e;stop-opacity:1"/><stop offset="1" style="stop-color:#66eb6e;stop-opacity:0"/></radialGradient><linearGradient id="_Linear7" x1="0" y1="0" x2="1" y2="0" gradientUnits="userSpaceOnUse" gradientTransform="matrix(-16.8633,16.8633,-16.8633,-16.8633,111.134,9.92075)"><stop offset="0" style="stop-color:#ffe124;stop-opacity:1"/><stop offset="0.1" style="stop-color:#fdd426;stop-opacity:1"/><stop offset="0.5" style="stop-color:#f04d38;stop-opacity:1"/><stop offset="1" style="stop-color:#b30774;stop-opacity:1"/></linearGradient><linearGradient id="_Linear8" x1="0" y1="0" x2="1" y2="0" gradientUnits="userSpaceOnUse" gradientTransform="matrix(-18.2193,13.334,-13.334,-18.2193,112.792,10.7852)"><stop offset="0" style="stop-color:#ffe124;stop-opacity:1"/><stop offset="0.7" style="stop-color:#fd5f1e;stop-opacity:1"/><stop offset="0.9" style="stop-color:#f13e34;stop-opacity:1"/><stop offset="1" style="stop-color:#e62149;stop-opacity:1"/></linearGradient><linearGradient id="_Linear9" x1="0" y1="0" x2="1" y2="0" gradientUnits="userSpaceOnUse" gradientTransform="matrix(10.942,12.187,-12.187,10.942,99.9452,5.59514)"><stop offset="0" style="stop-color:#bf38ef;stop-opacity:1"/><stop offset="1" style="stop-color:#7967ef;stop-opacity:1"/></linearGradient><linearGradient id="_Linear10" x1="0" y1="0" x2="1" y2="0" gradientUnits="userSpaceOnUse" gradientTransform="matrix(-13.0644,8.52279,-8.52279,-13.0644,113.412,12.2245)"><stop offset="0" style="stop-color:#ffe124;stop-opacity:1"/><stop offset="1" style="stop-color:#ff9111;stop-opacity:1"/></linearGradient></defs></svg>