<?xml version="1.0" encoding="UTF-8" standalone="no"?><!DOCTYPE svg PUBLIC "-//W3C//DTD SVG 1.1//EN" "http://www.w3.org/Graphics/SVG/1.1/DTD/svg11.dtd"><svg width="100%" height="100%" viewBox="0 0 500 280" version="1.1" xmlns="http://www.w3.org/2000/svg" xmlns:xlink="http://www.w3.org/1999/xlink" xml:space="preserve" xmlns:serif="http://www.serif.com/" style="fill-rule:evenodd;clip-rule:evenodd;stroke-linecap:round;stroke-linejoin:round;stroke-miterlimit:1.5;"><rect id="html-element-anatomy" x="0" y="0" width="500" height="280" style="fill:none;"/><path d="M96.329,210.907c-22.463,-11.82 -82.14,-32.208 -85.727,-47.271c-3.588,-15.063 40.122,-92.773 54.397,-108.86c25.797,-29.07 31.819,-33.904 77.262,-8.762c25.538,14.13 90.251,61.856 91.161,75.233c0.726,10.661 -11.353,28.347 -18.307,36.621c-14.288,17 -56.94,56.388 -81.431,65.654c-6.272,2.373 -14.891,-0.795 -37.355,-12.615Z" style="fill:#bad7e6;"/><path d="M298.998,161.557c0.27,-16.343 48.069,-95.146 66.757,-112.587c6.638,-6.194 14.426,-15.015 24.126,-15.518c18.652,-0.968 33.22,12.191 43.555,26.372c20.011,27.457 45.487,107.491 36.892,128.339c-9.932,24.092 -75.015,55.376 -105.134,44.705c-33.81,-11.979 -66.466,-54.969 -66.196,-71.311Z" style="fill:#bad7e6;"/><g id="h1-face"><path d="M94.974,81.122c0.036,0.198 -1.059,1.589 -1.178,1.874c-0.782,1.869 -1.193,4.138 0.131,5.814c3.015,3.818 9.547,1.131 8.721,-3.326c-0.072,-0.386 0.183,0.766 0.324,1.135c0.289,0.751 0.847,1.452 1.582,1.907c1.925,1.195 4.459,0.379 5.941,-1.154c3.145,-3.255 0.781,-8.035 -3.336,-9.282" style="fill:none;stroke:#445;stroke-width:2px;"/><path d="M73.577,90.577c-3.269,0.186 -7.221,-0.892 -9.228,-1.833c-3.232,-1.517 -7.414,-3.431 -8.758,-6.464c-3.122,-7.045 4.706,-17.031 13.45,-18.249c12.197,-1.7 16.741,7.207 15.007,15.704c-0.63,3.088 -3.32,10.435 -10.471,10.842Z" style="fill:#ecf4f8;"/><path d="M138.099,76.893c-5.513,4.898 -14.673,6.782 -19.036,0.65c-1.834,-2.578 -2.548,-5.393 -2.422,-8.543c0.332,-8.293 4.9,-20.387 15.458,-18.793c17.18,2.593 11.857,21.483 6,26.686Z" style="fill:#ecf4f8;"/><path d="M77.676,76.042c0,-0 -3.932,-0.994 -5.85,0.549c-4.91,3.951 -5.579,11.415 1.51,13.348c7.552,2.06 12.285,-11.453 4.34,-13.897Z" style="fill:#445;"/><path d="M125.785,66.694c-2.137,0.228 -4.524,2.047 -5.537,3.49c-3.384,4.821 0.025,11.278 5.711,10.953c4.872,-0.278 7.675,-6.586 6.117,-10.792c-0.821,-2.215 -4.153,-3.879 -6.291,-3.651Z" style="fill:#445;"/></g><path d="M98.768,102.711c-6.38,2.803 -16.845,8.335 -11.237,17.543c4.205,6.906 13.027,8.412 22.977,7.879c4.789,-0.256 11.101,-0.916 15.36,-2.73c12.262,-5.225 10.012,-17.348 0.874,-23.128c-5.739,-3.63 -16.535,-4.59 -27.974,0.436Z" style="fill:#ffe5f2;"/><path d="M402.905,87.066c-2.692,-1.403 -5.276,-2.557 -9.894,-2.793c-3.641,-0.187 -7.533,0.229 -10.942,1.149c-13.662,3.689 -16.177,17.655 -2.293,22.38c8.642,2.941 22.249,0.764 28.619,-4.068c7.25,-5.501 2.794,-12.352 -5.49,-16.668Z" style="fill:#ffe5f2;"/><path d="M397.266,189.644c0,0 -17.861,-0.33 -24.467,4.933c-12.719,10.133 -5.133,21.455 12.527,20.913c10.69,-0.328 20.394,-4.471 25.332,-11.183c5.451,-7.409 -1.759,-14.859 -13.392,-14.663Z" style="fill:#ffe5f2;"/><path d="M125.914,175.809c0,-0 -9.342,1.077 -14.883,3.331c-9.098,3.7 -15.06,12.927 -8.747,19.41c8.223,8.445 25.042,9.357 38.521,7.582c7.897,-1.04 15.813,-6.139 17.166,-11.542c0.988,-3.943 -1.056,-8.354 -4.2,-11.67c-5.419,-5.716 -18.238,-8.748 -27.857,-7.111Z" style="fill:#ffe5f2;"/><path d="M48.984,156.926c-1.417,-5.178 8.213,-6.994 13.477,-8.336c16.614,-4.237 112.58,-25.158 121.856,-26.582c5.061,-0.778 15.807,-2.902 20.903,-1.818c5.453,1.159 9.088,18.202 6.402,24.526c-1.367,3.22 -4.99,4.653 -8.142,5.65c-17.863,5.654 -129.706,26.586 -141.217,28.487c-3.136,0.518 -8.817,0.663 -9.837,-3.856c-1.019,-4.52 -3.442,-18.071 -3.442,-18.071Z" style="fill:#82b7d1;"/><path d="M342.691,117.386c-4.013,-0.327 -13.075,0.76 -13.176,10.88c-0.102,10.12 -3.742,50.714 -0.177,54.242c2.711,2.683 6.61,2.923 9.978,2.931c6.957,0.017 72.009,-3.151 93.689,-4.874c10.581,-0.841 14.172,0.747 16.437,-8.89c1.474,-6.271 -1.628,-50.79 -3.296,-53.109c-5.337,-7.418 -15.203,-6.264 -22.474,-5.504c-17.176,1.796 -70.964,5.14 -80.981,4.324Z" style="fill:#82b7d1;"/><g id="tag-h1-opening"><path d="M102.276,111.165c0,-0.063 0.542,2.466 0.636,3.028c0.347,2.079 0.541,4.229 0.998,6.285" style="fill:none;stroke:#445;stroke-width:2px;"/><path d="M107.652,109.885c-0.027,-0 0.295,2.087 0.314,2.19c0.414,2.241 1.35,4.868 1.35,7.154" style="fill:none;stroke:#445;stroke-width:2px;"/><path d="M103.94,115.773c1.445,0 3.782,-0.846 5.081,-1.496" style="fill:none;stroke:#445;stroke-width:2px;"/><path d="M111.861,112.08c0.16,0.011 2.851,-4.058 2.877,-4.048c0.219,0.091 0.815,4.189 1.111,5.578c0.162,0.762 0.357,1.517 0.527,2.278c0.057,0.254 0.086,0.517 0.136,0.773c0.024,0.124 0.195,0.383 0.068,0.374" style="fill:none;stroke:#445;stroke-width:2px;"/><path d="M114.156,118.109c-0.041,-0.081 4.77,-1.331 5.164,-1.332" style="fill:none;stroke:#445;stroke-width:2px;"/><path d="M97.569,112.797c-0,0.372 -4.557,5.596 -4.954,5.876c-0.405,0.286 0.448,0.46 0.543,0.481c0.718,0.159 6.364,1.836 7.394,2.007" style="fill:none;stroke:#445;stroke-width:2px;"/><path d="M119.56,107.253c0,0.068 4.609,1.166 6.058,1.51c2.388,0.567 1.362,1.999 1.064,2.273c-1.427,1.31 -3.042,3.357 -4.408,4.723" style="fill:none;stroke:#445;stroke-width:2px;"/></g><g id="tag-h1-closing"><path d="M112.297,188.516c-1.377,1.296 -4.393,5.076 -4.753,5.45c-0.6,0.625 0.375,1.293 0.468,1.339c0.204,0.101 5.155,2.654 6.92,3.023" style="fill:none;stroke:#445;stroke-width:2px;"/><path d="M120.089,187.221c-0,0.636 -2.044,10.434 -2.077,10.417" style="fill:none;stroke:#ff0078;stroke-width:2px;"/><path d="M123.241,186.457c-0,0.597 2.145,8.909 2.145,9.279" style="fill:none;stroke:#445;stroke-width:2px;"/><path d="M128.389,184.958c-0.012,0 2.032,9.003 2.032,9.542" style="fill:none;stroke:#445;stroke-width:2px;"/><path d="M124.457,190.922c0,0.001 4.621,-1.316 4.731,-1.206" style="fill:none;stroke:#445;stroke-width:2px;"/><path d="M131.931,187.939c0.179,-0 2.584,-3.726 2.759,-4.035c0.081,-0.142 0.521,-0.391 0.524,0.337c0.002,0.551 0.801,8.572 0.644,8.885" style="fill:none;stroke:#445;stroke-width:2px;"/><path d="M133.697,193.937c0.633,-0.447 3.704,-1.391 5.28,-1.263" style="fill:none;stroke:#445;stroke-width:2px;"/><path d="M139.333,183.32c-0.043,0 5.68,1.468 7.136,1.883c1.67,0.476 1.291,1.689 0.546,2.63c-0.92,1.162 -3.492,3.7 -4.798,4.42" style="fill:none;stroke:#445;stroke-width:2px;"/></g><path d="M388.883,61.598c-2.589,1.97 -3.664,5.903 -2.57,8.065c0.835,1.65 2.692,2.694 4.52,2.735c3.004,0.067 5.565,-3.407 5.565,-3.407c-0,-0 3.115,6.645 7.697,2.207c2.908,-2.816 2.432,-6.328 -0.506,-9.201" style="fill:none;stroke:#445;stroke-width:2px;"/><path d="M379.901,51.177c0,0 -4.858,-3.058 -8.574,-0.53c-4.738,3.222 -7.461,10.954 -2.041,14.678c8.291,5.696 19.852,-7.862 10.615,-14.148Z" style="fill:#445;"/><path d="M420.131,54.111c-0,-0 -5.253,-2.275 -8.622,1.963c-4.141,5.21 -1.958,13.238 4.71,14.89c11.182,2.77 11.986,-12.51 3.912,-16.853Z" style="fill:#445;"/><g id="h1-content-text"><path d="M83.734,153.728c-3.701,0.077 -6.028,3.543 -6.394,4.627c-2.915,8.642 4.894,8.664 9.28,5.809" style="fill:none;stroke:#445;stroke-width:2px;"/><path d="M99.136,151.934c-0.976,-0.621 -4.985,-1.78 -7.069,-0.333c-1.44,1 -2.092,2.962 -2.39,4.644c-0.189,1.062 -0.218,2.181 0.057,3.23c2.706,10.319 16.665,-2.919 9.402,-7.541Z" style="fill:none;stroke:#445;stroke-width:2px;"/><path d="M107.988,159.831c-0,0.182 -1.035,-2.557 -1.162,-3c-0.404,-1.414 -2.447,-6.928 -0.517,-8c0.859,-0.476 2.25,1.346 2.633,1.828c1.519,1.916 2.956,3.871 4.54,5.736c0.413,0.485 1.293,1.821 2.069,1.724c0.905,-0.113 0.728,-2.356 0.712,-2.874c-0.064,-2.096 -0.324,-7.657 -1.931,-9.264" style="fill:none;stroke:#445;stroke-width:2px;"/><path d="M119.901,146.276c1.414,-0.999 8.193,-2.843 11.025,-3.241" style="fill:none;stroke:#445;stroke-width:2px;"/><path d="M125.657,144.421c-0.291,0.001 2.747,12.051 2.744,11.117" style="fill:none;stroke:#445;stroke-width:2px;"/><path d="M142.955,140.665c-3.342,0.123 -9.575,1.372 -8.002,8.846c1.147,5.45 7.042,3.751 10.926,1.554" style="fill:none;stroke:#445;stroke-width:2px;"/><path d="M135.227,149.331c0.247,-1.584 6.316,-2.258 7.579,-2.441" style="fill:none;stroke:#445;stroke-width:2px;"/><path d="M150.97,150.598c-0,0.087 -2.185,-10.608 0.151,-11.374c2.337,-0.765 4.138,10.566 6.873,9.866c2.734,-0.699 0.85,-12.413 0.851,-11.972" style="fill:none;stroke:#445;stroke-width:2px;"/><path d="M164.191,136.07c0.028,3.186 -0.511,7.645 1.387,10.458c1.56,2.313 4.472,1.213 5.691,-0.702c1.985,-3.119 1.154,-7.69 0.52,-11.094" style="fill:none;stroke:#444456;stroke-width:2px;"/></g><g id="tag-p-opening"><path d="M383.673,92.222c-1.101,0.589 -4.972,3.593 -5.324,3.9c-1.69,1.47 -1.22,1.569 0.853,2.616c0.819,0.413 4.121,1.89 5.365,2.251" style="fill:none;stroke:#445;stroke-width:2px;"/><path d="M388.903,101.386c0.276,-2.438 -0.942,-9.51 -0.784,-9.752c0.133,-0.204 5.019,0.198 6.12,1.473c1.814,2.101 -0.668,3.828 -2.32,4.063c-1.009,0.144 -1.951,0.121 -2.955,0.007" style="fill:none;stroke:#445;stroke-width:2px;"/><path d="M397.848,91.33c0,-0.051 5.361,2.951 5.959,3.292c0.867,0.496 1.371,1.753 -0.161,2.715c-1.66,1.042 -3.433,2.049 -4.95,3.305" style="fill:none;stroke:#445;stroke-width:2px;"/></g><g id="tag-p-closing"><path d="M380.537,198.563c-2.503,1.162 -4.538,2.96 -5.757,3.973c-1.487,1.235 0.254,2.009 0.78,2.396c1.535,1.128 3.638,2.3 5.737,2.813" style="fill:none;stroke:#445;stroke-width:2px;"/><path d="M387.113,198.039c-1.049,2.341 -2.54,7.271 -2.933,9.52" style="fill:none;stroke:#ff0078;stroke-width:2px;"/><path d="M390.886,207.564c-0.069,0.283 -0.078,-9.675 0.389,-9.896c3.025,-1.439 8.287,3.201 3.241,4.977c-0.767,0.271 -2.39,0.289 -3.175,0.167" style="fill:none;stroke:#445;stroke-width:2px;"/><path d="M399.159,197.865c0.736,0.274 3.361,1.971 4.784,3.008c1.552,1.131 0.777,2.273 0.032,2.844c-1.577,1.209 -2.874,1.995 -4.825,2.743" style="fill:none;stroke:#445;stroke-width:2px;"/></g><g id="content-text"><path d="M356.369,143.624c-1.342,-0.06 -2.69,0.258 -3.961,0.694c-3.555,1.217 -5.967,5.743 -3.368,9.009c2.296,2.883 6.685,2.607 9.346,0.503" style="fill:none;stroke:#444456;stroke-width:2px;"/><path d="M364.668,143.555c-2.27,0.52 -3.984,2.942 -4.009,5.43c-0.027,2.687 3.039,5.255 5.646,4.241c2.119,-0.824 4.15,-3.786 3.753,-6.125c-0.308,-1.819 -2.861,-4.124 -5.39,-3.546Z" style="fill:none;stroke:#444456;stroke-width:2px;"/><path d="M373.706,153.574c-0.33,-2.891 -0.007,-5.852 0.526,-8.694c0.229,-1.223 0.912,-2.708 2.176,-1.511c0.618,0.585 0.97,1.453 1.303,2.25c0.229,0.548 0.42,1.124 0.568,1.704c0.281,1.097 1.417,7.34 3.149,4.444c0.141,-0.235 0.256,-0.49 0.351,-0.752c0.162,-0.449 0.261,-0.926 0.304,-1.406c0.072,-0.801 0.146,-5.383 -0.188,-6.753" style="fill:none;stroke:#444456;stroke-width:2px;"/><path d="M385.283,143.219c3.076,0.206 6.505,-0.175 9.592,-0.523" style="fill:none;stroke:#444456;stroke-width:2px;"/><path d="M390.171,143.343c-0.363,2.845 -0.38,5.766 -0.433,8.633" style="fill:none;stroke:#444456;stroke-width:2px;"/><path d="M401.929,142.98c-4.374,-0.667 -9.118,7.354 -3.855,9.324c0.809,0.303 1.604,0.342 2.457,0.312c0.984,-0.035 1.761,-0.178 2.609,-0.674" style="fill:none;stroke:#444456;stroke-width:2px;"/><path d="M395.668,148.598c2.079,-0.444 4.084,-0.582 6.185,-0.657" style="fill:none;stroke:#444456;stroke-width:2px;"/><path d="M407.632,152.451c-0.213,-1.32 -0.345,-2.68 -0.334,-4.018c0.008,-0.874 0.111,-1.745 0.195,-2.614c0.049,-0.508 0.113,-1.019 0.212,-1.52c0.36,-1.815 1.328,-2.736 2.639,-0.844c1.346,1.94 1.856,4.462 2.943,6.558c0.239,0.462 0.946,2.618 1.808,2.325c1.008,-0.343 1.201,-1.984 1.232,-2.856c0.085,-2.405 -0.273,-4.829 -0.175,-7.207" style="fill:none;stroke:#444456;stroke-width:2px;"/><path d="M420.67,142.178c-0.321,1.479 -0.533,3.034 -0.474,4.549c0.052,1.366 0.085,3.164 0.839,4.368c1.062,1.696 3.642,1.859 4.894,0.368c2.071,-2.467 2.286,-5.869 1.979,-8.936" style="fill:none;stroke:#444456;stroke-width:2px;"/></g><g id="opening-tag"><g id="opening"><path d="M246.371,17.892c-2.515,0.296 -5.298,2.207 -6.281,4.612c-1.48,3.619 1.596,6.14 5.06,5.913c2.779,-0.182 5.509,-2.112 6.383,-4.835c0.741,-2.307 -1.891,-4.961 -4.047,-5.142" style="fill:none;stroke:#ff0078;stroke-width:2px;"/><path d="M254.415,17.851c-0.109,2.429 -0.344,5.315 1.054,7.443c1.259,1.917 3.872,2.433 5.19,0.292c1.55,-2.517 0.873,-4.905 0.909,-7.601" style="fill:none;stroke:#ff0078;stroke-width:2px;"/><path d="M265.643,17.542c0.244,1.326 0.76,2.495 1.243,3.745c0.529,1.372 1.117,2.674 1.766,3.992c0.098,0.197 0.326,1.053 0.575,1.153c0.789,0.315 1.742,-1.882 1.934,-2.342c1.031,-2.474 1.562,-5.133 2.354,-7.698" style="fill:none;stroke:#ff0078;stroke-width:2px;"/><path d="M277.431,15.179c-0.069,3.592 0.736,7.136 0.734,10.7" style="fill:none;stroke:#ff0078;stroke-width:2px;"/><path d="M276.857,15.618c1.776,-1.446 4.4,-1.651 6.569,-1.006c0.989,0.294 2.083,0.855 1.957,2.078c-0.371,3.585 -4.189,4.434 -6.971,5.223" style="fill:none;stroke:#ff0078;stroke-width:2px;"/><path d="M281.635,21.002c1.455,1.531 2.498,3.561 4.127,4.938" style="fill:none;stroke:#ff0078;stroke-width:2px;"/><path d="M290.712,25.671c-0.546,-3.124 0.682,-6.712 2.211,-9.342c0.376,-0.647 1.812,-2.836 2.873,-2.45c1.005,0.365 1.517,1.978 1.749,2.893c0.676,2.663 0.736,5.74 0.678,8.495" style="fill:none;stroke:#ff0078;stroke-width:2px;"/><path d="M291.598,20.59c1.733,0.238 3.553,-0.196 5.303,-0.238" style="fill:none;stroke:#ff0078;stroke-width:2px;"/><path d="M302.766,26.325c-0.469,-2.885 -0.769,-6.949 -0.072,-9.811c0.231,-0.948 1.237,-3.21 2.52,-1.852c0.658,0.697 0.74,1.831 0.91,2.726c0.129,0.681 0.441,2.458 0.587,3.135c0.096,0.443 0.208,0.88 0.338,1.313c0.372,1.242 1.631,6.066 3.438,3.619c0.191,-0.259 0.286,-0.431 0.425,-0.731c0.22,-0.476 0.371,-0.984 0.474,-1.497c0.225,-1.117 0.34,-7.565 0.61,-9.081" style="fill:none;stroke:#ff0078;stroke-width:2px;"/><path d="M315.927,14.616c1.891,-0.206 3.745,-0.658 5.646,-0.828c2.6,-0.233 5.367,-0.15 7.982,-0.087" style="fill:none;stroke:#ff0078;stroke-width:2px;"/><path d="M323.227,14.162c-0.841,2.728 -1.618,5.906 -1.903,8.749c-0.102,1.02 0.01,2.047 -0.072,3.067" style="fill:none;stroke:#ff0078;stroke-width:2px;"/></g><g id="tag"><path d="M196.107,27.693c-0.778,0.154 7.597,-1.421 10.679,-2.61" style="fill:none;stroke:#ff0078;stroke-width:2px;"/><path d="M201.52,26.828c-0.054,0.971 1.637,5.575 2.484,10.203" style="fill:none;stroke:#ff0078;stroke-width:2px;"/><path d="M209.656,35.765c-0.203,-1.777 0.147,-7.302 0.347,-8.501c0.291,-1.748 2.094,-5.052 4.304,-2.356c1.563,1.906 3.498,8.252 3.416,9.276" style="fill:none;stroke:#ff0078;stroke-width:2px;"/><path d="M209.9,31.103c1.804,-0.201 4.28,-0.794 6.094,-0.997" style="fill:none;stroke:#ff0078;stroke-width:2px;"/><path d="M226.375,22.148c0.008,0.043 -2.972,-0.147 -4.567,1.445c-2.457,2.45 -2.422,7.942 1.063,9.154c6.374,2.218 8.426,-6.45 2.505,-5.478" style="fill:none;stroke:#ff0078;stroke-width:2px;"/></g></g><g id="closing-tag"><g id="closing"><path d="M235.066,261.367c-0.334,-3.779 -2.761,-9.834 2.085,-11.553c0.844,-0.299 1.709,-0.577 2.594,-0.723c1.196,-0.198 2.369,-0.139 3.562,0.01" style="fill:none;stroke:#ff0078;stroke-width:2px;"/><path d="M234.34,256.483c2.233,-0.42 4.232,-0.7 6.497,-0.673" style="fill:none;stroke:#ff0078;stroke-width:2px;"/><path d="M247.386,249.546c-0.327,1.999 -0.562,4.018 -0.845,6.025c-0.12,0.85 -0.435,2.025 -0.078,2.844c1.073,2.47 4.775,2.184 7.638,1.716" style="fill:none;stroke:#ff0078;stroke-width:2px;"/><path d="M247.276,249.356c2.427,-0.264 4.83,-0.389 7.25,-0.462" style="fill:none;stroke:#ff0078;stroke-width:2px;"/><path d="M247.001,254.794c1.79,-0.118 3.62,-0.164 5.399,-0.372" style="fill:none;stroke:#ff0078;stroke-width:2px;"/><path d="M259.633,250.098c-0.211,3.23 -0.761,6.43 -0.843,9.671" style="fill:none;stroke:#ff0078;stroke-width:2px;"/><path d="M258.672,250.405c0.89,-0.741 1.852,-1.37 2.946,-1.772c1.922,-0.705 7.275,-0.124 5.98,3.238c-0.875,2.273 -4.79,3.585 -7.03,3.58" style="fill:none;stroke:#ff0078;stroke-width:2px;"/><path d="M263.79,254.953c0.968,1.46 1.887,3.157 3.111,4.433" style="fill:none;stroke:#ff0078;stroke-width:2px;"/><path d="M272.705,260.075c-0.27,-1.357 -0.426,-2.742 -0.387,-4.126c0.029,-1.015 0.042,-2.04 0.134,-3.051c0.06,-0.661 0.134,-1.324 0.26,-1.976c0.065,-0.332 0.145,-0.654 0.269,-0.969c0.435,-1.097 1.253,-1.341 2.107,-0.439c0.955,1.009 1.261,2.39 1.8,3.626c0.178,0.406 0.279,1.621 0.977,1.487c0.604,-0.115 1.071,-0.905 1.382,-1.37c0.69,-1.031 1.222,-2.161 1.961,-3.161c0.294,-0.397 0.635,-0.945 1.126,-1.134c1.09,-0.421 1.312,2.003 1.343,2.547c0.162,2.915 -0.195,5.933 -0.322,8.859" style="fill:none;stroke:#ff0078;stroke-width:2px;"/><path d="M287.9,260.559c0.006,-1.874 0.195,-3.724 0.519,-5.568c0.183,-1.038 0.369,-2.071 0.66,-3.086c0.591,-2.067 1.948,-4.984 4.082,-2.146c0.266,0.354 0.498,0.743 0.692,1.142c1.209,2.488 1.584,5.718 1.588,8.487" style="fill:none;stroke:#ff0078;stroke-width:2px;"/><path d="M288.531,255.456c1.718,0.049 3.491,-0.035 5.204,0.106" style="fill:none;stroke:#ff0078;stroke-width:2px;"/><path d="M299.987,260.105c-0.029,-2.988 -0.241,-6.001 0.206,-8.97c0.1,-0.665 0.32,-2.488 0.934,-2.899c0.434,-0.291 3.994,11.424 6.481,11.1c0.589,-0.077 1.738,-9.496 1.432,-11.331" style="fill:none;stroke:#ff0078;stroke-width:2px;"/><path d="M313.232,247.844c4.173,-0.051 8.458,-0.892 12.642,-0.505" style="fill:none;stroke:#ff0078;stroke-width:2px;"/><path d="M319.803,247.335c-0.383,3.946 -0.251,7.912 -0.31,11.872" style="fill:none;stroke:#ff0078;stroke-width:2px;"/></g><g id="TAG"><path d="M185.838,247.912c0.906,-0 7.66,-0.283 10.708,0.394" style="fill:none;stroke:#ff0078;stroke-width:2px;"/><path d="M191.17,248.027c0,2.675 -0.665,5.496 -0.839,8.186c-0.059,0.914 -0.134,4.596 -0.134,4.135" style="fill:none;stroke:#ff0078;stroke-width:2px;"/><path d="M197.468,261.046c0.112,-3.301 1.136,-6.703 2.505,-9.762c0.313,-0.7 1.159,-2.902 2.457,-2.686c1.261,0.21 1.831,2.221 2.094,3.082c0.924,3.017 1.075,6.411 0.969,9.53" style="fill:none;stroke:#ff0078;stroke-width:2px;"/><path d="M198.798,256.539c0.007,-0.149 1.18,-0.125 1.281,-0.127c1.378,-0.035 2.736,0.037 4.106,0.177" style="fill:none;stroke:#ff0078;stroke-width:2px;"/><path d="M217.949,250.169c-0.959,-0.317 -3.906,-0.494 -5.493,0.29c-5.129,2.534 -3.96,10.1 1.885,10.948c4.644,0.674 6.563,-6.455 0.702,-5.852" style="fill:none;stroke:#ff0078;stroke-width:2px;"/></g></g><g id="opening-arrows"><path d="M212.598,47.18c33.222,-12.326 68.39,-15.909 103.557,-13.42" style="fill:none;stroke:#ff0078;stroke-width:2px;"/><path d="M143.004,113.582c27.217,-7.964 54.065,-20.772 75.113,-40.062c10.943,-10.029 19.518,-21.953 27.678,-34.277" style="fill:none;stroke:#ff0078;stroke-width:2px;"/><path d="M296.565,32.486c16.19,26.151 38.957,49.942 68.186,60.957" style="fill:none;stroke:#ff0078;stroke-width:2px;"/><path d="M145.8,107.626c-2.666,3.946 -6.445,5.502 -1.199,8.124c0.688,0.344 1.392,0.666 2.096,0.979c1.007,0.447 1.959,1.115 2.965,1.517" style="fill:none;stroke:#ff0078;stroke-width:2px;"/><path d="M363.777,88.621c0.826,0.823 3.544,4.661 2.49,5.831c-0.677,0.752 -4.247,2.132 -5.164,2.284" style="fill:none;stroke:#ff0078;stroke-width:2px;"/></g><path d="M152.976,207.342c16.289,15.075 31.925,25.154 51.91,32.933" style="fill:none;stroke:#ff0078;stroke-width:2px;"/><path d="M362.808,201.807c-29.725,3.022 -58.738,12.403 -83.703,28.969" style="fill:none;stroke:#ff0078;stroke-width:2px;"/><path d="M183.354,244.977c39.99,-20.765 83.112,-28.891 124.958,-4.379" style="fill:none;stroke:#ff0078;stroke-width:2px;"/><path d="M152.67,213.795c0,-1.583 -0.187,-3.167 -0.187,-4.753c0,-0.552 -0.094,-1.499 0.237,-1.985c0.452,-0.665 1.466,-0.58 2.158,-0.536c2.069,0.131 4.263,0.744 6.32,1.087" style="fill:none;stroke:#ff0078;stroke-width:2px;"/><path d="M358.904,198.23c1.33,0.82 3.808,2.786 4.054,3.665c0.165,0.593 -0.412,1.276 -0.799,1.632c-1.094,1.006 -2.372,1.811 -3.665,2.538" style="fill:none;stroke:#ff0078;stroke-width:2px;"/></svg>