<?xml version="1.0" encoding="UTF-8" standalone="no"?><!DOCTYPE svg PUBLIC "-//W3C//DTD SVG 1.1//EN" "http://www.w3.org/Graphics/SVG/1.1/DTD/svg11.dtd"><svg width="100%" height="100%" viewBox="0 0 501 150" version="1.1" xmlns="http://www.w3.org/2000/svg" xmlns:xlink="http://www.w3.org/1999/xlink" xml:space="preserve" xmlns:serif="http://www.serif.com/" style="fill-rule:evenodd;clip-rule:evenodd;stroke-linecap:round;stroke-linejoin:round;stroke-miterlimit:1.5;"><rect id="web-page-file-types" x="0.885" y="0" width="500" height="150" style="fill:none;"/><g id="html"><path d="M54.909,23.329c0.539,-0.134 1.11,-0.254 1.716,-0.359c11.802,-2.049 28.464,0.119 39.864,2.779c5.693,1.329 17.008,3.664 21.828,7.446c5.066,3.976 1.006,30.69 0.367,44.984c-0.484,10.834 -0.973,21.895 -2.17,32.685c-0.557,5.013 -0.862,10.595 -6.073,12.955c-6.837,3.098 -14.83,0.978 -21.971,0.622c-5.276,-0.264 -10.664,-0.081 -15.743,-1.732c-0,0 -32.634,-90.78 -32.097,-91.245c2.577,-2.234 8.591,-7.216 13.746,-8.075c0.168,-0.028 0.346,-0.048 0.533,-0.06Z" style="fill:#bad7e6;"/><path d="M48.19,30.433c0.157,-0 11.266,-3.746 13.137,-4.377c0.176,-0.059 0.361,-0.083 0.547,-0.072c1.996,0.129 14.241,0.963 24.69,2.629c8.741,1.393 18.57,4.44 22.694,5.791c1.182,0.396 1.971,1.512 1.949,2.759c-0.121,6.85 -0.532,28.897 -0.935,41.63c-0.418,13.197 -4.291,34.344 -5.31,39.714c-0.154,0.799 -0.677,1.479 -1.411,1.832c-3.089,1.486 -11.247,5.41 -11.247,5.41c-0,-0 -44.285,-95.316 -44.114,-95.316Z" style="fill:#ecf4f8;"/><path d="M51.585,29.279l9.497,-3.2c0,0 3.325,2.086 0.727,3.964c-3.215,2.325 -10.224,-0.764 -10.224,-0.764Z" style="fill:#82b7d1;"/><path d="M39.454,36.78c-1.495,18.688 -3.866,37.364 -4.533,56.107c-0.233,6.544 -1.939,16.286 1.797,22.158c4.574,7.189 15.65,9.212 23.294,10.829c13.727,2.903 32.98,8.246 36.968,-2.872c1.024,-2.854 1.805,-10.879 2.292,-13.867c2.592,-15.917 4.99,-64.807 1.69,-70.071c-2.841,-4.534 -10.648,-4.816 -15.6,-5.923c-9.461,-2.115 -19.668,-3.064 -29.333,-3.751c-7.993,-0.568 -15.639,-2.362 -16.499,4.935l-0.076,2.455Z" style="fill:#bad7e6;"/><path d="M46.588,103.143c-0.927,0.814 -1.95,1.856 -2.004,3.685c-0.101,3.443 3.884,5.556 6.814,3.979c2.645,-1.423 3.89,-5.874 0.929,-7.717c-1.66,-1.034 -4.528,-1.01 -5.739,0.053Z" style="fill:#445;"/><path d="M76.429,106.169c-1.667,1.11 -3.254,2.604 -2.875,4.839c0.538,3.183 4.995,6.237 7.89,3.959c2.759,-2.172 2.239,-7.395 -0.94,-8.953c-2.194,-1.075 -4.075,0.155 -4.075,0.155Z" style="fill:#445;"/><path d="M56.765,115.112c2.591,3.627 6.779,5.779 10.243,1.838" style="fill:none;stroke:#445;stroke-width:2.7px;"/><path d="M47.495,42.291c-0.431,3.045 -1.049,9.282 -1.619,13.93c-0.151,1.233 -0.847,4.083 0.229,5.034c0.888,0.784 2.237,1 3.368,1.162c2.32,0.331 4.678,0.413 7.006,0.717c7.449,0.972 14.916,1.87 22.39,2.618c2.351,0.235 6.581,1.175 8.881,0.601c1.934,-0.483 1.674,-2.399 2.065,-4.087c0.884,-3.827 0.871,-13.935 0.633,-15.294c-0.359,-2.054 -2.213,-2 -4.087,-2.257c-1.836,-0.252 -30.354,-3.594 -32.368,-3.944c-3.416,-0.593 -6.066,-1.525 -6.498,1.52Z" style="fill:#ecf4f8;"/><path d="M51.228,47.231c-0.194,3.004 -0.477,6.212 -0.735,9.213" style="fill:none;stroke:#82b7d1;stroke-width:2.02px;"/><path d="M55.974,47.39c-0.51,3.395 -0.965,6.075 -1.247,9.499" style="fill:none;stroke:#82b7d1;stroke-width:2.02px;"/><path d="M51.502,52.042c1.07,-0 2.127,0.203 3.194,0.266" style="fill:none;stroke:#82b7d1;stroke-width:2.02px;"/><path d="M59.014,48.257c2.673,0.001 4.504,0.187 7.098,0.925" style="fill:none;stroke:#82b7d1;stroke-width:2.02px;"/><path d="M62.237,48.889c-0,2.692 -0.388,6.368 -0.642,9.05" style="fill:none;stroke:#82b7d1;stroke-width:2.02px;"/><path d="M68.276,59.061c0.24,-2.153 0.291,-4.273 0.762,-6.397c0.055,-0.248 0.532,-2.825 0.813,-2.696c1.11,0.511 1.553,2.759 1.865,3.857c0.059,0.211 0.227,1.524 0.371,1.594c0.013,0.006 0.456,-1.402 0.501,-1.556c0.326,-1.115 0.949,-1.968 1.599,-2.943c0.08,-0.119 0.584,-0.907 0.733,-0.881c0.831,0.147 1.092,1.328 1.259,1.981c0.585,2.3 0.101,5.639 -0.136,7.982" style="fill:none;stroke:#82b7d1;stroke-width:2.02px;"/><path d="M81.197,50.448c-0.773,2.812 -1.124,7.313 -0.911,10.1c0.015,0.203 1.308,0.162 1.477,0.166c1.525,0.035 3.018,-0.44 4.535,-0.461" style="fill:none;stroke:#82b7d1;stroke-width:2.02px;"/></g><g id="js"><path d="M418.083,113.204l3.526,3.471c-1.161,1.966 -5.768,8.341 -7.68,9.696c-3.998,2.831 -14.232,2.445 -15.203,-3.466c-0.486,-2.959 1.844,-6.067 3.929,-7.823c4.6,-3.874 10.569,-5.739 15.428,-1.878Z" style="fill:#82b7d1;"/><path d="M451.196,135.51c0.896,-0.104 1.543,-0.906 1.454,-1.803c-0.805,-7.396 -3.015,-16.743 -5.045,-24.113c-1.024,-3.718 -2.08,-5.83 -3.805,-9.351c-6.003,-12.256 -30.081,-33.799 -37.001,-37.448c-5.217,-2.751 -24.031,-7.269 -30.084,-7.17c-5.668,0.094 -19.174,-0.953 -22.934,7.397c-6.171,13.706 -11.481,25.671 -13.623,39.197c-0.918,5.793 3.54,17.044 8.809,21.084c2.763,2.118 14.774,0.554 14.513,-2.726c-0.273,-3.44 -4.559,-4.462 -1.882,-6.205c3.181,-2.071 15.009,3.101 18.528,3.762c3.12,0.587 -3.777,6.557 -2.352,8.772c2.744,4.263 12.628,5.304 17.316,4.608c4.246,-0.63 7.048,-3.69 9.385,-6.748c2.608,-3.414 6.71,-5.257 10.729,-5.521c3.192,-0.209 9.324,-1.105 11.879,1.328c3.178,3.028 3.24,9.26 5.146,12.899c1.878,3.587 14.454,2.538 18.967,2.038Z" style="fill:#bad7e6;"/><path d="M361.31,61.097c3.444,-10.854 5.842,-22.091 9.73,-32.797c1.32,-3.635 2.718,-9.104 5.597,-11.845c4.565,-4.347 12.742,-3.66 18.281,-2.094c3.408,0.963 6.412,3.624 6.215,7.613c-0.223,4.5 -4.596,8.442 -7.165,11.761c-5.851,7.56 -12.003,14.73 -15.406,23.88l-17.252,3.482Z" style="fill:#bad7e6;"/><clipPath id="_clip1"><path d="M361.31,61.097c3.444,-10.854 5.842,-22.091 9.73,-32.797c1.32,-3.635 2.718,-9.104 5.597,-11.845c4.565,-4.347 12.742,-3.66 18.281,-2.094c3.408,0.963 6.412,3.624 6.215,7.613c-0.223,4.5 -4.596,8.442 -7.165,11.761c-5.851,7.56 -12.003,14.73 -15.406,23.88l-17.252,3.482Z"/></clipPath><g clip-path="url(#_clip1)"><path d="M366.942,32.104c0,-0 8.77,-9.583 18.713,-8.014c7.538,1.19 16.203,5.805 16.203,5.805l2.165,-20.42l-34.06,-2.536l-3.021,25.165Z" style="fill:#82b7d1;"/></g><path d="M400.452,63.798c4.871,-9.616 12.229,-18.949 19.493,-26.801c2.655,-2.869 5.617,-7.072 9.087,-8.899c5.984,-3.151 21.471,2.235 19.389,10.866c-1.282,5.314 -8.063,8.174 -12.073,10.852c-9.475,6.326 -18.848,11.754 -25.565,21.297l-10.331,-7.315Z" style="fill:#bad7e6;"/><clipPath id="_clip2"><path d="M400.452,63.798c4.871,-9.616 12.229,-18.949 19.493,-26.801c2.655,-2.869 5.617,-7.072 9.087,-8.899c5.984,-3.151 21.471,2.235 19.389,10.866c-1.282,5.314 -8.063,8.174 -12.073,10.852c-9.475,6.326 -18.848,11.754 -25.565,21.297l-10.331,-7.315Z"/></clipPath><g clip-path="url(#_clip2)"><path d="M416.618,38.673c4.376,-7.415 30.772,-0.15 26.565,10.391c-1.174,2.94 13.14,-14.271 13.14,-14.271l-20.756,-19.533l-18.949,23.413Z" style="fill:#82b7d1;"/></g><path d="M350.875,83.246c-2.808,1.253 -5.67,7.311 0.089,8.938c0.894,0.253 1.841,0.295 2.757,0.142c3.134,-0.525 5.767,-3.925 4.574,-7.12c-0.991,-2.656 -4.612,-3.212 -7.42,-1.96Z" style="fill:#445;"/><path d="M383.024,87.212c-4.223,-0.583 -7.74,4.434 -5.427,8.17c0.973,1.572 2.691,2.238 4.391,2.417c6.593,0.693 6.982,-9.766 1.036,-10.587Z" style="fill:#445;"/><path d="M358.051,94.451c-0.187,1.369 -0.581,3.644 1.133,5.102c1.715,1.459 5.142,0.649 6.466,-1.619c0.027,-0.046 0.787,3.193 3.026,3.158c2.025,-0.032 4.644,-3.078 4.222,-5.733" style="fill:none;stroke:#445;stroke-width:3.24px;"/><path d="M372.446,35.638c3.31,-2.204 7.22,-3.396 11.057,-4.17" style="fill:none;stroke:#82b7d1;stroke-width:2.43px;"/><path d="M378.209,33.07c0.44,3.008 1.813,6.915 0.446,9.868c-1.368,2.955 -5.639,2.407 -6.421,-0.539" style="fill:none;stroke:#82b7d1;stroke-width:2.43px;"/><path d="M431.02,41.903c-1.948,-2.302 -5.404,-3.412 -8.169,-1.959c-0.767,0.403 -1.585,0.945 -1.912,1.802c-0.505,1.324 0.611,2.453 1.603,3.102c1.857,1.215 4.433,2.289 3.636,5.124c-0.634,2.253 -3.065,3.13 -5.131,3.064c-2.882,-0.094 -5.199,-1.994 -5.965,-4.798" style="fill:none;stroke:#82b7d1;stroke-width:2.43px;"/></g><g id="css"><path d="M212.638,49.756c-3.798,15.594 -5.699,20.391 -9.126,36.062c-1.724,7.884 -4.536,16.599 -0.349,24.001c4.448,7.866 13.627,10.537 21.419,13.418c14.619,5.407 34.643,11.45 43.81,-6.68c1.976,-3.908 3.555,-8.236 4.673,-12.481c3.834,-14.559 4.472,-18.641 6.692,-33.494c1.079,-7.219 2.101,-16.205 -2.396,-22.355c-3.156,-4.317 -8.085,-7.138 -12.989,-8.778c-3.182,-1.064 -6.302,-2.044 -9.597,-2.695c-13.781,-2.72 -31.845,-8.569 -40.816,8.839l-1.321,4.163Z" style="fill:#bad7e6;"/><path d="M221.353,43.723c-0.389,5.162 18.151,13.306 29.142,14.403c10.99,1.097 21.986,1.405 24.211,-0.027c2.225,-1.433 0.844,-8.088 -3.308,-11.073c-4.151,-2.986 -28.456,-10.289 -37.194,-9.849c-6.711,0.338 -12.515,2.087 -12.851,6.546Z" style="fill:#82b7d1;"/><clipPath id="_clip3"><path d="M221.353,43.723c-0.389,5.162 18.151,13.306 29.142,14.403c10.99,1.097 21.986,1.405 24.211,-0.027c2.225,-1.433 0.844,-8.088 -3.308,-11.073c-4.151,-2.986 -28.456,-10.289 -37.194,-9.849c-6.711,0.338 -12.515,2.087 -12.851,6.546Z"/></clipPath><g clip-path="url(#_clip3)"><path d="M225.307,57.924c-0,-0 12.24,-6.298 22.292,-6.91c10.052,-0.612 24.724,0.025 26.653,2.97c1.929,2.945 0.782,7.032 0.782,7.032l-47.869,3.883l-1.858,-6.975Z" style="fill:#ff0078;"/></g><path d="M210.776,98.476c-0.85,0.807 -1.516,2.129 -1.636,3.98c-0.178,2.732 2.819,4.757 5.167,3.741c5.051,-2.185 3.887,-10.117 -1.488,-8.823c-0,0 -1.194,0.295 -2.043,1.102Z" style="fill:#445;"/><path d="M236.35,104.054c-6.501,1.628 -4.52,11.051 2.041,9.344c5.958,-1.55 4.291,-9.417 -1.245,-9.381l-0.796,0.037Z" style="fill:#445;"/><path d="M218.806,111.162c0.859,3.901 4.018,4.604 7.28,2.832" style="fill:none;stroke:#445;stroke-width:2.96px;"/><path d="M253.481,54.358c0,0 14.857,-31.725 21.697,-33.614c6.839,-1.888 10.553,-0.196 9.955,3.806c-0.598,4.001 -16.909,26.291 -19.497,29.215c-2.589,2.924 -4.036,3.018 -4.365,3.28c-1.463,1.165 -9.407,-1.066 -7.79,-2.687Zm22.476,-30.566c1.802,-1.337 3.562,0.362 2.463,2.116c-1.1,1.755 -3.944,6.722 -4.909,4.769c-0.965,-1.953 0.804,-5.667 2.446,-6.885Z" style="fill:#445;"/><path d="M243.404,74.632c0,-0 1.154,-4.934 2.136,-8.048c0.517,-1.638 0.394,-2.324 1.861,-3.14c1.332,-0.742 7.956,0.699 14.453,0.806c6.005,0.1 11.393,-1.261 12.722,-0.696c1.33,0.566 2.412,1.155 2.337,2.947c-0.091,2.151 0.034,6.825 -0.829,9.875c-0.437,1.544 -1.959,3.42 -3.276,3.954c-2.67,1.082 -14.659,-0.069 -17.655,-0.306c-4.013,-0.317 -13.27,0.547 -11.749,-5.392Z" style="fill:#82b7d1;"/><path d="M254.788,68.222c-0.695,-0.47 -1.583,-0.803 -2.426,-0.813c-0.803,-0.009 -1.564,0.261 -2.269,0.668c-1.237,0.716 -2.44,2.108 -2.507,3.639c-0.147,3.369 3.819,5.706 6.407,3.626" style="fill:none;stroke:#ecf4f8;stroke-width:2.19px;"/><path d="M264.277,68.769c-1.747,-1.404 -5.029,-2.258 -5.413,1.172c-0.125,1.114 0.895,1.614 1.714,1.86c1.528,0.458 3.077,0.408 3.464,2.441c0.255,1.345 -0.955,2.713 -2.156,2.877c-1.515,0.208 -3.118,-0.569 -4.073,-1.777" style="fill:none;stroke:#ecf4f8;stroke-width:2.17px;"/><path d="M272.553,68.782c-1.259,-1.302 -4.843,-1.474 -4.629,1.201c0.139,1.733 2.173,1.569 3.365,1.775c1.236,0.214 1.874,1.392 1.865,2.628c-0.026,3.268 -4.672,4.404 -5.515,1.119" style="fill:none;stroke:#ecf4f8;stroke-width:2.19px;"/><g id="splats"><path d="M274.706,46.656c-1.48,1.041 -2.99,2.587 -3.088,4.577c-0.186,3.763 3.833,6.376 7.103,4.976c6.309,-2.702 3.244,-11.04 -3.053,-9.836l-0.962,0.283Z" style="fill:#ff0078;"/><path d="M284.116,54.426c-2.88,0.202 -2.997,5.15 -0.206,5.452c3.023,0.327 3.845,-4.381 1.088,-5.325l-0.882,-0.127Z" style="fill:#ff0078;"/><path d="M291.414,42.301c-1.973,0.922 -1.707,4.571 0.716,3.996c2.417,-0.573 2.483,-4.218 -0.04,-4.074l-0.676,0.078Z" style="fill:#ff0078;"/></g></g></svg>