<?xml version="1.0" encoding="UTF-8" standalone="no"?><!DOCTYPE svg PUBLIC "-//W3C//DTD SVG 1.1//EN" "http://www.w3.org/Graphics/SVG/1.1/DTD/svg11.dtd"><svg width="100%" height="100%" viewBox="0 0 220 160" version="1.1" xmlns="http://www.w3.org/2000/svg" xmlns:xlink="http://www.w3.org/1999/xlink" xml:space="preserve" xmlns:serif="http://www.serif.com/" style="fill-rule:evenodd;clip-rule:evenodd;stroke-linecap:round;stroke-linejoin:round;stroke-miterlimit:1.5;"><rect id="server" x="0" y="0" width="220" height="160" style="fill:none;"/><g id="server1" serif:id="server"><path d="M29.764,128.88c-1.777,-6.212 3.693,-55.444 8.675,-78.698c2.06,-9.613 2.868,-21.386 11.788,-27.509c9.07,-6.227 23.946,-3.763 34.75,-3.789c16.611,-0.041 61.408,5.341 74.796,7.111c7.103,0.94 25.624,2.362 29.833,8.462c9.158,13.274 0.749,88.215 0.035,92.984c-0.715,4.768 -10.695,5.395 -17.03,6.757c-8.228,1.768 -90.544,12.993 -107.378,9.211c-10.081,-2.265 -33.692,-8.318 -35.469,-14.529Z" style="fill:#82b7d1;"/><clipPath id="_clip1"><path d="M29.764,128.88c-1.777,-6.212 3.693,-55.444 8.675,-78.698c2.06,-9.613 2.868,-21.386 11.788,-27.509c9.07,-6.227 23.946,-3.763 34.75,-3.789c16.611,-0.041 61.408,5.341 74.796,7.111c7.103,0.94 25.624,2.362 29.833,8.462c9.158,13.274 0.749,88.215 0.035,92.984c-0.715,4.768 -10.695,5.395 -17.03,6.757c-8.228,1.768 -90.544,12.993 -107.378,9.211c-10.081,-2.265 -33.692,-8.318 -35.469,-14.529Z"/></clipPath><g clip-path="url(#_clip1)"><path d="M31.544,57.093c0,0 7.35,-21.915 12.75,-27.672c3.118,-3.325 23.573,-2.496 31.666,-0.126c4.287,1.256 6.177,2.87 6.32,7.912c0.238,8.457 -0.943,33.607 -2.22,46.854c-1.276,13.246 -5.836,47.52 -9.143,56.288c-2.401,6.366 -17.097,2.137 -17.097,2.137l-32.658,-12.464c0,0 5.451,-58.166 10.382,-72.929Z" style="fill:#bad7e6;"/></g><path d="M35.412,118.388c1.8,-1.416 5.402,-0.916 6.302,0.583c0.9,1.499 1.26,4.498 -0.451,5.497c-1.71,0.999 -5.042,1.582 -6.392,-0.75c-1.35,-2.332 -1.26,-3.914 0.541,-5.33Z" style="fill:#445;"/><path d="M56.113,123.397c1.393,-1.146 5.488,-1.311 6.553,0.901c1.066,2.212 1.065,4.587 -0.655,5.489c-1.72,0.901 -3.522,1.393 -5.734,-0.164c-1.999,-1.406 -1.749,-4.921 -0.164,-6.226Z" style="fill:#445;"/><path d="M44.38,127.346c0,0 -0.063,2.707 2.588,2.965c3.02,0.293 3.51,-2.116 3.51,-2.116" style="fill:none;stroke:#445;stroke-width:2px;"/><path d="M69.112,36.774c0,0 -0.672,2.406 -0.079,3.249c0.631,0.897 2.137,0.982 3.117,1.111c2.199,0.289 5.306,1.237 6.1,-1.567c0.115,-0.409 0.192,-0.85 0.198,-1.276c0.041,-2.934 -2.529,-2.905 -4.818,-3.111c-1.835,-0.165 -3.802,-0.591 -4.518,1.594Z" style="fill:#ff0078;"/><path d="M68.022,47.878c0.129,-0.638 0.145,-1.514 0.642,-2c1.373,-1.341 4.603,-0.956 6.284,-0.521c0.59,0.153 1.323,0.278 1.77,0.718c0.939,0.927 0.861,2.967 0.706,4.175c-0.138,1.078 -1.656,1.395 -2.564,1.371c-1.421,-0.038 -2.802,-0.356 -4.205,-0.547c-1.43,-0.194 -2.415,-0.159 -2.684,-1.887l0.051,-1.309Z" style="fill:#ff0078;"/><path d="M66.992,58.659c0,0 0.404,-2.151 1.199,-2.785c0.868,-0.692 2.416,-0.537 3.443,-0.464c2.55,0.18 5.431,0.387 5.124,3.618c-0.055,0.581 -0.132,1.275 -0.345,1.821c-0.797,2.041 -3.659,1.192 -5.252,0.949c-2.104,-0.321 -4.567,-0.35 -4.169,-3.139Z" style="fill:#ff0078;"/></g></svg>