<?xml version="1.0" encoding="UTF-8" standalone="no"?><!DOCTYPE svg PUBLIC "-//W3C//DTD SVG 1.1//EN" "http://www.w3.org/Graphics/SVG/1.1/DTD/svg11.dtd"><svg width="100%" height="100%" viewBox="0 0 460 220" version="1.1" xmlns="http://www.w3.org/2000/svg" xmlns:xlink="http://www.w3.org/1999/xlink" xml:space="preserve" xmlns:serif="http://www.serif.com/" style="fill-rule:evenodd;clip-rule:evenodd;stroke-linecap:round;stroke-linejoin:round;stroke-miterlimit:1.5;"><rect id="in-paris-with-love" x="0" y="0" width="460" height="220" style="fill:none;"/><path d="M329.45,163.972c0,0 -37.209,-126.708 -45.699,-129.97c-2.06,-0.792 -20.544,5.38 -44.746,3.962c-38.931,-2.282 -91.128,-12.098 -102.083,-11.296c-4.85,0.356 -13.901,0.001 -16.991,4.428c-3.582,5.132 -0.678,13.44 0.893,18.677c4.656,15.516 19.296,73.881 22.145,90.431c2.934,17.045 3.66,35.11 10.306,47.518c2.375,4.435 43.839,10.115 83.755,6.16c18.78,-1.861 38.31,-7.209 56.13,-10.614c20.058,-3.833 37.378,-5.689 38.069,-6.659c1.795,-2.517 -1.319,-9.844 -1.779,-12.637Z" style="fill:#ecf4f8;"/><clipPath id="_clip1"><path d="M329.45,163.972c0,0 -37.209,-126.708 -45.699,-129.97c-2.06,-0.792 -20.544,5.38 -44.746,3.962c-38.931,-2.282 -91.128,-12.098 -102.083,-11.296c-4.85,0.356 -13.901,0.001 -16.991,4.428c-3.582,5.132 -0.678,13.44 0.893,18.677c4.656,15.516 19.296,73.881 22.145,90.431c2.934,17.045 3.66,35.11 10.306,47.518c2.375,4.435 43.839,10.115 83.755,6.16c18.78,-1.861 38.31,-7.209 56.13,-10.614c20.058,-3.833 37.378,-5.689 38.069,-6.659c1.795,-2.517 -1.319,-9.844 -1.779,-12.637Z"/></clipPath><g clip-path="url(#_clip1)"><path d="M316.99,9.8c0,0 2.092,120.659 2.057,122.272c-0.086,3.917 -4.705,3.92 -6.375,4.198c-2.05,0.341 -67.753,10.916 -101.703,13.396c-35.027,2.559 -47.092,-1.122 -58.269,-2.188c-6.122,-0.585 -7.249,-0.759 -9.013,-7.615c-5.075,-19.723 -39.005,-127.517 -39.005,-127.517l212.308,-2.546Z" style="fill:#ffe5f2;"/><clipPath id="_clip2"><path d="M316.99,9.8c0,0 2.092,120.659 2.057,122.272c-0.086,3.917 -4.705,3.92 -6.375,4.198c-2.05,0.341 -67.753,10.916 -101.703,13.396c-35.027,2.559 -47.092,-1.122 -58.269,-2.188c-6.122,-0.585 -7.249,-0.759 -9.013,-7.615c-5.075,-19.723 -39.005,-127.517 -39.005,-127.517l212.308,-2.546Z"/></clipPath><g clip-path="url(#_clip2)"><path d="M134.751,135.539c22.174,-11.932 47.323,-14.226 72.344,-17.209c17.159,-2.046 34.578,-2.816 51.847,-2.606c10.476,0.127 20.924,0.306 31.358,1.324c2.838,0.277 27.938,4.84 30.768,5.185c9.247,1.126 7.441,19.607 7.441,19.607c0,0 -186.24,38.937 -189.732,21.925l-4.026,-28.226Z" style="fill:#bad7e6;"/></g></g><path d="M329.45,163.972c0,0 -37.209,-126.708 -45.699,-129.97c-2.06,-0.792 -20.544,5.38 -44.746,3.962c-38.931,-2.282 -91.128,-12.098 -102.083,-11.296c-4.85,0.356 -13.901,0.001 -16.991,4.428c-3.582,5.132 -0.678,13.44 0.893,18.677c4.656,15.516 19.296,73.881 22.145,90.431c2.934,17.045 3.66,35.11 10.306,47.518c2.375,4.435 43.839,10.115 83.755,6.16c18.78,-1.861 38.31,-7.209 56.13,-10.614c20.058,-3.833 37.378,-5.689 38.069,-6.659c1.795,-2.517 -1.319,-9.844 -1.779,-12.637Z" style="fill:none;stroke:#82b7d1;stroke-width:3px;"/><path d="M251.173,115.765c-29.225,-15.93 -33.218,-28.364 -40.657,-70.046c-0.159,-0.857 -0.932,-1.462 -1.804,-1.411c-0.871,0.052 -1.567,0.745 -1.623,1.615c-3.278,52.314 -20.531,75.898 -22.861,75.322c1.667,0.068 9.369,-0.791 10.245,-1.644c5.812,-5.657 7.783,-11.588 21.553,-12.073c11.44,-0.403 16.196,6.133 23.906,8.595c4.937,1.577 11.241,-0.358 11.241,-0.358Z" style="fill:#82b7d1;"/><path d="M202.22,99.317c-2.166,0.208 -2.374,0.983 -2.406,1.028c-0.512,0.701 -0.657,1.613 -0.463,2.448c0.41,1.771 2.27,2.423 3.814,1.525c3.03,-1.761 1.221,-5.208 -0.945,-5.001Z" style="fill:#445;"/><path d="M222.425,97.761c-1.095,-0.409 -2.355,1.088 -2.694,1.821c-0.62,1.338 0.161,3.015 1.68,3.33c3.467,0.72 4.662,-3.787 1.014,-5.151Z" style="fill:#445;"/><path d="M210.455,100.429c0,1.084 1.056,2.781 2.365,2.639c1.333,-0.143 2.047,-2.187 1.644,-3.186" style="fill:none;stroke:#445;stroke-width:1.5px;"/><path d="M156.899,60.482c-0.443,-3.158 1.952,-4.862 3.969,-4.561c2.018,0.301 3.659,2.607 4.102,5.765c0.392,2.325 -0.533,5.588 -1.508,8.019c-2.617,0.125 -6.002,-0.071 -8.071,-1.204c-2.838,-1.453 -4.479,-3.759 -4.102,-5.764c0.377,-2.005 2.772,-3.709 5.61,-2.255Z" style="fill:#fff;"/><path d="M261.84,54.223c4.649,-3.436 9.434,-1.093 10.699,2.383c1.264,3.475 -0.992,8.082 -5.641,11.518c-3.367,2.635 -9.366,3.982 -14.083,4.528c-2.461,-4.061 -5.075,-9.626 -5.058,-13.901c-0.136,-5.779 2.12,-10.387 5.641,-11.519c3.521,-1.132 8.306,1.212 8.442,6.991Z" style="fill:#fff;"/><path d="M181.01,46.982c-0.813,-2.569 0.943,-4.325 2.667,-4.358c1.723,-0.033 3.414,1.658 4.227,4.227c0.653,1.883 0.341,4.731 -0.131,6.894c-2.162,0.471 -5.011,0.784 -6.894,0.13c-2.568,-0.813 -4.259,-2.503 -4.227,-4.227c0.033,-1.723 1.789,-3.479 4.358,-2.666Z" style="fill:#fff;"/><path d="M155.559,105.518c-0.812,-2.569 0.944,-4.325 2.667,-4.358c1.724,-0.032 3.414,1.658 4.227,4.227c0.653,1.883 0.341,4.731 -0.131,6.894c-2.162,0.471 -5.01,0.784 -6.893,0.13c-2.569,-0.812 -4.26,-2.503 -4.227,-4.227c0.033,-1.723 1.789,-3.479 4.357,-2.666Z" style="fill:#fff;"/><path d="M285.501,92.001c3.335,-2.262 6.602,-0.495 7.384,1.961c0.783,2.457 -0.919,5.602 -4.254,7.864c-2.419,1.74 -6.636,2.509 -9.936,2.756c-1.6,-2.898 -3.264,-6.848 -3.131,-9.825c0.068,-4.029 1.77,-7.175 4.254,-7.864c2.484,-0.689 5.751,1.079 5.683,5.108Z" style="fill:#fff;"/><path d="M292.942,170.593c0.728,-2.159 3.001,-2.644 4.342,-1.927c1.341,0.716 1.75,2.633 1.022,4.793c-0.489,1.607 -2.228,3.481 -3.729,4.803c-1.909,-0.595 -4.261,-1.597 -5.363,-2.865c-1.545,-1.675 -1.954,-3.592 -1.022,-4.793c0.932,-1.201 3.205,-1.686 4.75,-0.011Z" style="fill:#ff0078;"/><path d="M156.727,157.351c0,2.724 -0.087,5.446 -0.087,8.169" style="fill:none;stroke:#445;stroke-width:2px;"/><path d="M159.894,165.721c-0.041,-0.62 0.026,-1.303 0.047,-1.773c0.063,-1.45 0.204,-2.91 0.436,-4.342c0.044,-0.273 0.179,-2.012 0.688,-1.933c0.491,0.075 0.77,1.018 0.906,1.386c0.582,1.561 0.805,3.231 1.406,4.787c0.112,0.291 0.802,1.943 1.395,1.623c0.357,-0.192 0.379,-1.06 0.431,-1.385c0.23,-1.437 0.309,-2.893 0.412,-4.342c0.005,-0.063 0.102,-1.74 0.136,-1.74" style="fill:none;stroke:#445;stroke-width:2px;"/><path d="M174.175,166.539c-0.736,-1.636 -2.102,-6.593 -0.488,-7.86c1.369,-1.074 5.194,-0.104 5.031,2.221c-0.109,1.566 -2.24,1.664 -3.268,1.816c-0.353,0.053 -1.578,0.044 -1.934,0.044" style="fill:none;stroke:#445;stroke-width:2px;"/><path d="M181.163,166.028c-0.096,-0.645 -0.15,-1.295 -0.184,-1.946c-0.096,-1.872 0.032,-6.069 3.023,-5.675c2.762,0.364 3.137,4.211 3.128,6.344c-0.003,0.783 -0.023,0.58 -0.041,1.363" style="fill:none;stroke:#445;stroke-width:2px;"/><path d="M190.603,166.215c-0.901,-1.803 -1.139,-4.804 -0.549,-6.831c0.577,-1.982 3.747,-1.574 4.718,-0.084c1.284,1.97 -1.83,4.298 -3.509,3.461c-0.234,-0.117 3.736,3.094 4.254,3.382" style="fill:none;stroke:#445;stroke-width:2px;"/><path d="M198.746,158.41c0.024,-0.221 -0.141,5.738 0.588,7.79" style="fill:none;stroke:#445;stroke-width:2px;"/><path d="M266.004,175.049c0.281,0.765 0.834,5.319 1.701,6.705" style="fill:none;stroke:#445;stroke-width:2px;"/><path d="M268.243,174.756c0.679,-0.475 5.4,-1.368 5.848,-1.505" style="fill:none;stroke:#445;stroke-width:2px;"/><path d="M271.085,174.011c0.167,-0.022 0.376,0.973 0.401,1.064c0.349,1.267 0.644,2.548 0.93,3.831c0.061,0.275 0.577,1.847 0.557,1.702" style="fill:none;stroke:#445;stroke-width:2px;"/><path d="M276.313,172.804c0.127,-0.017 0.54,1.493 0.573,1.6c0.489,1.57 0.88,3.318 1.645,4.78" style="fill:none;stroke:#445;stroke-width:2px;"/><path d="M281.149,171.423c-0.039,0.005 0.466,2.098 0.495,2.22c0.373,1.546 0.739,3.1 1.147,4.637" style="fill:none;stroke:#445;stroke-width:2px;"/><path d="M278.009,176.154c1.164,-0.157 2.488,-1.126 3.74,-1.688" style="fill:none;stroke:#445;stroke-width:2px;"/><path d="M181.221,163.696c0.47,-0.235 5.078,-0.479 5.243,-0.425" style="fill:none;stroke:#445;stroke-width:2px;"/><path d="M206.764,160.088c-2.237,-2.747 -5.303,-1.624 -5.417,0.057c-0.114,1.682 1.899,2.312 2.608,2.406c1.844,0.245 3.953,1.07 2.971,3c-0.7,1.378 -3.546,0.952 -4.548,0.24c-0.544,-0.386 -1.071,-1.129 -0.694,-1.809" style="fill:none;stroke:#445;stroke-width:2px;"/><path d="M256.875,177.503c-0.73,0.496 -1.159,1.853 -1.307,2.712c-0.29,1.679 0.311,3.529 2.177,3.946c2.405,0.537 2.948,-2.302 2.948,-2.302c0,0 1.102,1.865 2.486,1.111c1.7,-0.926 1.669,-2.739 1.107,-3.966c-0.3,-0.655 -1.494,-2.384 -3.663,-2.398" style="fill:none;stroke:#445;stroke-width:2px;"/><path d="M303.118,168.458c0.298,1.882 0.163,3.612 0.163,4.776c0,0.313 -0.1,1.029 0.152,1.28c0.284,0.285 0.781,0.193 1.129,0.134c0.867,-0.147 1.767,-0.483 3.096,-0.712" style="fill:none;stroke:#445;stroke-width:2px;"/><path d="M309.565,167.544c0,-0.059 0.058,0.49 0.064,0.576c0.026,0.359 0.057,0.717 0.082,1.076c0.071,1.054 0.096,2.111 0.168,3.165c0.022,0.311 0.061,0.622 0.111,0.93c0.013,0.083 0.145,0.427 0.145,0.425" style="fill:none;stroke:#445;stroke-width:2px;"/><path d="M317.216,167.165c0,0.072 -0.512,-0.758 -1.868,-0.874c-1.357,-0.116 -2.464,0.479 -2.516,1.748c-0.087,2.141 3.061,1.622 4.172,2.085c0.785,0.327 1.252,1.2 0.852,2.013c-0.8,1.624 -3.872,1.451 -4.955,-0.287" style="fill:none;stroke:#445;stroke-width:2px;"/><path d="M321.618,172.068c-1.331,-1.376 -1.739,-5.984 0.101,-6.408c1.841,-0.424 3.77,2.811 3.683,5.396" style="fill:none;stroke:#445;stroke-width:2px;"/><path d="M320.976,169.872c0,0.069 0.105,-0.097 0.169,-0.122c0.221,-0.089 0.448,-0.168 0.675,-0.239c0.566,-0.177 1.145,-0.287 1.728,-0.384c0.251,-0.042 0.5,-0.098 0.75,-0.14c0.117,-0.019 0.462,-0.093 0.343,-0.093" style="fill:none;stroke:#445;stroke-width:2px;"/><path d="M78.057,53.311c26.794,-12.927 52.988,-11.097 71.885,13.092" style="fill:none;stroke:#ff0078;stroke-width:3px;"/><path d="M300.053,155.307c24.41,0.003 53.437,-8.482 63.902,-32.509" style="fill:none;stroke:#ff0078;stroke-width:3px;"/><g id="metadata"><path d="M345.82,116.904c-0.747,-0.63 -1.141,-1.242 -1.543,-2.199c-0.927,-2.203 -1.29,-8.355 1.726,-9.116c3.58,-0.902 4.546,4.151 4.546,4.151c0,0 2.241,-7.155 6.136,-5.444c4.28,1.88 0.331,10.654 -0.257,11.407" style="fill:none;stroke:#ff0078;stroke-width:3px;"/><path d="M369.446,104.129c-0.882,-0.255 -2.112,0.014 -2.261,0.064c-1.665,0.554 -2.826,1.887 -3.6,3.417c-1.048,2.073 -1.216,4.828 0.059,6.846c1.692,2.678 5.733,2.612 7.862,0.48" style="fill:none;stroke:#ff0078;stroke-width:3px;"/><path d="M362.896,111.009c2.263,0 4.463,-0.818 6.778,-0.56" style="fill:none;stroke:#ff0078;stroke-width:3px;"/><path d="M373.61,104.305c2.183,-0.467 9.266,-0.103 12.23,-0.696" style="fill:none;stroke:#ff0078;stroke-width:3px;"/><path d="M379.809,104.44c0,2.862 0.092,5.026 -0.096,7.9c-0.059,0.904 -0.178,2.369 -0.148,3.277" style="fill:none;stroke:#ff0078;stroke-width:3px;"/><path d="M387.371,115.928c0,-1.861 0.58,-3.778 1.039,-5.577c0.304,-1.192 0.67,-2.372 1.064,-3.543c0.608,-1.806 2.271,-5.745 4.243,-2.308c0.28,0.489 0.495,1.013 0.658,1.543c0.954,3.092 1.127,6.49 1.15,9.729" style="fill:none;stroke:#ff0078;stroke-width:3px;"/><path d="M388.97,111.608c0.001,-0.169 3.984,-0.716 5.384,-0.525" style="fill:none;stroke:#ff0078;stroke-width:3px;"/><path d="M400.495,115.561c-0.06,0.325 -0.111,-1.19 -0.143,-1.519c-0.078,-0.801 -0.073,-1.616 -0.087,-2.42c-0.039,-2.28 0.062,-4.561 0.048,-6.842c-0.006,-1.007 -0.19,-2.259 1.226,-2.16c3.22,0.226 6.693,2.393 7.49,5.428c0.949,3.612 -0.884,7.438 -4.503,7.698c-0.997,0.071 -4.031,-0.185 -4.031,-0.185Z" style="fill:none;stroke:#ff0078;stroke-width:3px;"/><path d="M413.242,115.281c0.139,-2.842 -0.098,-5.648 0.56,-8.462c0.255,-1.091 0.671,-2.819 1.872,-3.456c1.683,-0.891 3.422,1.199 3.924,2.355c0.855,1.967 0.859,4.209 1.131,6.269c0.167,1.268 0.248,1.986 0.477,3.265" style="fill:none;stroke:#ff0078;stroke-width:3px;"/><path d="M413.837,110.664c1.048,-0.809 3.969,-0.702 5.245,-0.6" style="fill:none;stroke:#ff0078;stroke-width:3px;"/><path d="M422.895,103.238c-0.1,0 0.42,-0.008 0.469,-0.011c0.299,-0.016 0.595,-0.042 0.893,-0.068c0.843,-0.076 1.691,-0.118 2.538,-0.126c2.671,-0.026 5.465,-0.036 8.101,0.491" style="fill:none;stroke:#ff0078;stroke-width:3px;"/><path d="M429.005,103.886c0,4.021 -0.522,7.325 -0.522,11.36" style="fill:none;stroke:#ff0078;stroke-width:3px;"/><path d="M437.319,115.453c0,-3.16 0.796,-12.261 5.372,-11.737c4.053,0.464 2.727,8.065 2.346,11.842" style="fill:none;stroke:#ff0078;stroke-width:3px;"/><path d="M438.599,111.133c1.661,0 4.636,-0.093 6.303,0.008" style="fill:none;stroke:#ff0078;stroke-width:3px;"/></g><g id="content"><path d="M22.746,70.564c-1.138,-0.673 -2.422,-0.561 -2.685,-0.532c-1.576,0.18 -2.912,1.043 -3.683,2.336c-1.945,3.263 -0.785,7.986 3.923,8.046c1.678,0.022 2.964,-0.734 4.313,-1.547" style="fill:none;stroke:#ff0078;stroke-width:3px;"/><path d="M32.164,67.842c-2.701,0.093 -5.066,1.47 -5.016,5.126c0.047,3.451 3.558,6.308 7.144,4.995c2.551,-0.935 3.422,-4.059 3.029,-6.418c-0.368,-2.207 -2.455,-3.795 -5.157,-3.703Z" style="fill:none;stroke:#ff0078;stroke-width:3px;"/><path d="M43.423,76.475c-0.916,-1.249 -1.542,-2.652 -1.867,-5.473c-0.325,-2.821 0.829,-7.026 2.764,-4.629c0.108,0.134 0.486,0.657 0.576,0.788c1.515,2.207 2.154,3.489 3.089,5.926c0.27,0.705 0.697,2.412 1.662,2.674c1.359,0.369 1.683,-2.381 1.753,-3.017c0.29,-2.668 -0.025,-5.69 -2.297,-7.72" style="fill:none;stroke:#ff0078;stroke-width:3px;"/><path d="M53.868,65.011c3.349,0 7.45,-0.323 10.832,-1.252" style="fill:none;stroke:#ff0078;stroke-width:3px;"/><path d="M59.317,65.139c0.118,1.979 0.148,4.626 0.148,6.609c0,0.54 0.234,3.654 0.263,3.566" style="fill:none;stroke:#ff0078;stroke-width:3px;"/><path d="M74.012,64.04c-1.558,-0.785 -4.038,0.059 -4.708,0.509c-2.02,1.358 -3.141,3.887 -2.501,6.275c0.936,3.495 5.109,4.128 8.016,2.634" style="fill:none;stroke:#ff0078;stroke-width:3px;"/><path d="M67.341,69.529c-0.073,0.009 1.484,-0.003 1.821,-0.01c1.402,-0.032 2.758,-0.18 4.116,-0.508" style="fill:none;stroke:#ff0078;stroke-width:3px;"/><path d="M79.312,73.569c-1.263,-2.288 -1.231,-4.94 -0.928,-6.962c0.086,-0.573 0.537,-3.58 1.883,-2.686c2.209,1.469 3.162,4.492 3.773,6.732c0.097,0.359 0.199,0.718 0.303,1.075c0.946,3.24 2.862,-0.627 3.126,-2.122c0.157,-0.886 0.191,-2.211 0.151,-3.107c-0.058,-1.296 -0.326,-2.56 -0.607,-3.829" style="fill:none;stroke:#ff0078;stroke-width:3px;"/><path d="M91.273,62.917c3.931,-0.46 8.434,-0.638 11,0.06" style="fill:none;stroke:#ff0078;stroke-width:3px;"/><path d="M96.393,62.872c0,2.629 -0.339,8.796 -0.467,9.954" style="fill:none;stroke:#ff0078;stroke-width:3px;"/></g><path d="M303.63,150.463c-1.883,0.838 -5.199,3.321 -5.334,4c-0.234,1.173 3.163,5.062 5.357,5.881" style="fill:none;stroke:#ff0078;stroke-width:3px;"/><path d="M151.959,60.804c0.178,1.823 -0.262,5.99 -1.121,7.13c-0.629,0.835 -6.76,-0.101 -8.595,-1.643" style="fill:none;stroke:#ff0078;stroke-width:3px;"/></svg>