<?xml version="1.0" encoding="UTF-8" standalone="no"?><!DOCTYPE svg PUBLIC "-//W3C//DTD SVG 1.1//EN" "http://www.w3.org/Graphics/SVG/1.1/DTD/svg11.dtd"><svg width="100%" height="100%" viewBox="0 0 360 250" version="1.1" xmlns="http://www.w3.org/2000/svg" xmlns:xlink="http://www.w3.org/1999/xlink" xml:space="preserve" xmlns:serif="http://www.serif.com/" style="fill-rule:evenodd;clip-rule:evenodd;stroke-linecap:round;stroke-linejoin:round;stroke-miterlimit:1.5;"><rect id="speaking-different-language" x="0" y="0" width="360" height="250" style="fill:none;"/><path d="M254.12,124.589c-0.477,0.139 -0.985,-0.083 -1.208,-0.527c-0.222,-0.444 -0.096,-0.984 0.302,-1.283c5.43,-2.425 13.119,-5.192 21.2,-9.235c17.28,-8.646 27.031,-23.179 44.532,-20.129c5.896,1.028 13.527,3.225 16.961,8.333c8.302,12.347 7.172,29.756 -4.796,38.002c-6.541,4.508 -10.516,7.292 -20.981,6.929c-10.466,-0.363 -19.73,-3.628 -24.806,-15.77c-3.362,-8.044 -18.309,-9.878 -31.204,-6.32Z" style="fill:#ffe5f2;"/><path d="M112.428,127.576c-0.71,0.414 -1.615,0.261 -2.149,-0.364c-0.534,-0.625 -0.544,-1.543 -0.024,-2.18c6.594,-6.926 16.375,-15.923 25.189,-25.329c14.644,-15.629 27.376,-31.913 29.592,-34.71c10.213,-12.888 28.99,-20.695 45.054,-22.139c12.602,-1.133 21.611,3.474 25.044,5.338c5.16,2.801 9.168,5.989 12.8,10.592c2.494,3.159 5.087,6.421 6.506,10.232c1.836,4.931 3.049,10.225 2.796,15.511c-0.579,12.113 -8.92,23.38 -19.068,29.545c-5.287,3.211 -11.16,4.825 -17.273,5.504c-10.859,1.206 -22.64,0.787 -33.318,-1.528c-6.547,-1.419 -12.672,-4.209 -19.135,-5.929c-7.599,-2.023 -9.766,-2.803 -17.599,-2.663c-9.714,0.174 -20.282,7.526 -29.249,12.777c-1.798,1.052 -5.573,3.251 -9.166,5.343Z" style="fill:#ffe5f2;"/><path d="M86.138,160.285c0.416,0.578 0.345,1.373 -0.167,1.868c-0.512,0.495 -1.309,0.539 -1.873,0.104c-1.181,-0.901 -2.315,-1.872 -3.393,-2.948c-8.804,-8.787 -6.468,-20.699 0,-30.413c9.624,-14.452 32.43,-24.947 28.61,-45.375c-1.868,-9.987 -10.224,-19.573 -20.02,-22.225c-7.669,-2.076 -16.072,-1.648 -23.396,-4.685c-10.846,-4.499 -13.586,-16.165 -7.479,-25.821c4.754,-7.518 30.919,-19.132 56.918,-20.399c28.071,-1.368 42.342,6.95 47.777,9.775c5.223,2.715 6.657,9.299 6.557,14.732c-0.236,12.837 -42.525,64.196 -47.629,68.575c-4.92,4.22 -9.532,8.762 -14.596,12.826c-9.355,7.508 -25.599,14.975 -27.199,28.4c-0.589,4.937 1.217,9.673 4.373,13.428c0.407,0.483 0.947,1.27 1.517,2.158Z" style="fill:#ecf4f8;"/><path d="M243.036,120.558c-0.341,0.109 -0.709,-0.056 -0.854,-0.382c-0.146,-0.327 -0.023,-0.711 0.286,-0.892c2.782,-1.803 5.466,-3.876 7.801,-5.567c14.674,-10.628 18.812,-28.307 13.147,-43.085c-3.119,-8.136 -12.317,-17.2 -14.458,-25.492c-3.14,-12.156 3.784,-32.245 55.503,-26.023c16.187,1.948 43.089,11.312 43.505,33.5c0.053,2.789 -0.401,5.828 -1.283,8.469c-2.718,8.137 -8.805,14.061 -16.162,18.385c-10.929,6.424 -24.608,4.843 -35.016,12.064c-4.681,3.248 -17.151,13.249 -30.269,19.898c-8.107,4.11 -16.366,7.182 -22.2,9.125Z" style="fill:#ecf4f8;"/><path d="M89.295,172.998c0.43,0.235 0.63,0.744 0.475,1.208c-0.155,0.464 -0.62,0.751 -1.105,0.68c-2.704,-0.429 -5.394,-0.973 -8.102,-1.335c-6.828,-0.914 -13.735,-0.889 -20.427,-2.714c-19.524,-5.323 -36.733,-18.273 -45.346,-36.886c-6.142,-13.272 -2.497,-27.605 4.919,-39.48c11.513,-18.435 34.354,-32.575 56.8,-28.706c16.934,2.918 23.8,19.586 17.669,34.469c-5.144,12.487 -17.93,18.966 -24.222,30.717c-3.886,7.256 -5.837,16.46 -3.212,24.5c2.188,6.7 14.916,13.805 22.551,17.547Z" style="fill:#ffe5f2;"/><g id="browser"><path d="M112.655,135.892c13.642,-2.984 59.312,-3.492 88.041,-7.949c5.024,-0.779 10.086,-1.286 15.111,-2.06c6.056,-0.931 13.495,-2.396 19.256,0.599c3.998,2.078 6.425,6.37 8.317,10.286c4.154,8.597 17.077,47.2 20.313,57.445c1.382,4.376 5.514,15.056 3.918,19.637c-1.844,5.29 -8.25,5.642 -13.46,6.484c-4.209,0.68 -61.819,10.95 -86.746,13.967c-7.644,0.925 -15.238,1.722 -22.878,2.778c-17.198,2.377 -31.003,7.253 -34.287,-15.13c-1.637,-11.163 -11.248,-52.551 -13.207,-60.519c-1.007,-4.094 -2.306,-8.712 -1.333,-12.928c1.406,-6.088 3.313,-9.626 16.955,-12.61Z" style="fill:#bad7e6;"/><path d="M103.088,147.564c0.868,-2.659 5.037,-4.768 8.709,-2.734c3.756,2.081 3.799,4.879 2.336,7.515c-1.818,3.275 -6.429,3.991 -9.068,2.073c-2.638,-1.919 -2.845,-4.195 -1.977,-6.854Z" style="fill:#ecf4f8;"/><path d="M106.087,150.94c2.084,-0.937 4.144,-1.653 6.379,-2.153" style="fill:none;stroke:#82b7d1;stroke-width:2px;"/><path d="M106.721,147.904c0,0 -1.569,2.218 -1.101,3.152c0.467,0.935 2.846,1.636 2.846,1.636" style="fill:none;stroke:#82b7d1;stroke-width:2px;"/><path d="M119.015,145.448c0.314,3.012 0.429,6.006 2.796,7.043c3.831,1.678 11.043,0.115 15.743,-0.698c10.581,-1.831 21.125,-3.07 31.816,-4.187c12.406,-1.296 24.899,-2.498 37.295,-3.991c6.173,-0.744 12.253,-2.067 18.402,-2.967c2.317,-0.339 5.682,-0.406 6.908,-2.78c0.427,-0.827 0.582,-1.865 0.719,-2.773c1.461,-9.625 -13.107,-5.221 -18.397,-4.456c-13.461,1.947 -27.274,4.037 -40.789,5.558c-10.068,1.132 -19.873,1.707 -29.901,2.944c-5.807,0.717 -11.592,1.564 -17.387,2.337c-2.29,0.306 -7.649,-0.281 -7.205,3.97Z" style="fill:#ecf4f8;"/><path d="M103.683,166.121c0.68,5.046 1.964,9.202 3.532,15.727c2.693,11.2 4.258,22.053 6.929,33.262c1.356,5.689 2.227,16.168 8.453,18.529c3.019,1.146 6.423,0.04 9.489,-0.289c7.483,-0.803 14.546,-1.965 21.876,-3.789c9.855,-2.453 66.193,-9.517 76.834,-11.5c3.656,-0.681 10.716,-1.847 14.372,-2.562c8.285,-1.621 16.696,-1.368 16.726,-7.637c0.007,-1.529 -2.161,-9.659 -2.433,-11.154c-0.826,-4.551 -1.673,-7.846 -3.381,-12.079c-3.606,-8.939 -5.415,-16.827 -8.467,-25.974c-1.491,-4.47 -3.833,-12.843 -8.44,-15.078c-2.09,-1.014 -6.231,-0.219 -8.372,0.199c-5.187,1.014 -11.609,0.837 -16.834,1.908c-10.633,2.18 -19.765,3.583 -30.527,4.764c-7.464,0.819 -60.301,8.742 -67.178,9.136c-4.884,0.279 -13.258,1.491 -12.579,6.537Z" style="fill:#ecf4f8;"/><path d="M159.665,207.052c1.109,-2.384 6.629,-4.127 8.516,-1.319c1.887,2.808 2.076,5.184 0.377,6.912c-1.699,1.728 -5.286,2.808 -7.363,1.296c-2.077,-1.512 -2.64,-4.506 -1.53,-6.889Z" style="fill:#445;"/><path d="M210.351,198.672c2.233,-2.271 6.449,-2.097 7.69,0c1.242,2.096 1.746,4.465 -0.039,6.563c-1.916,2.253 -5.631,2.098 -7.379,0.35c-1.747,-1.748 -2.487,-4.661 -0.272,-6.913Z" style="fill:#445;"/><path d="M187.976,203.971c0,0 -3.235,1.857 -2.697,5.079c0.564,3.38 4.258,6.101 7.448,4.224c5.701,-3.354 1.349,-12.153 -4.751,-9.303Z" style="fill:none;stroke:#445;stroke-width:2px;"/></g><g id="cute"><path d="M88.3,36.328c-1.088,-0.013 -2.217,0.128 -3.235,0.408c-3.438,0.946 -6.725,3.105 -6.774,6.616c-0.09,6.472 8.299,8.525 13.062,5.141" style="fill:none;stroke:#82b7d1;stroke-width:3px;"/><path d="M94.647,35.838c-3.637,12.833 7.121,14.157 9.731,10.244c2.146,-3.217 2.591,-7.033 0.102,-10.542" style="fill:none;stroke:#82b7d1;stroke-width:3px;"/><path d="M116.526,35.547c-0.361,-0.06 -0.459,2.6 -0.475,2.803c-0.254,3.204 -0.375,6.445 -0.338,9.659" style="fill:none;stroke:#82b7d1;stroke-width:3px;"/><path d="M109.579,35.007c4.602,-0.108 10.818,-0.254 15.389,0.433" style="fill:none;stroke:#82b7d1;stroke-width:3px;"/><path d="M137.444,36.587c-6.748,-1.303 -9.46,3.449 -10,4.602c-4.234,9.04 7.18,8.489 12.011,5.736" style="fill:none;stroke:#82b7d1;stroke-width:3px;"/><path d="M126.823,43.251c1.958,-0.509 6.488,-0.304 7.153,-0.268" style="fill:none;stroke:#82b7d1;stroke-width:3px;"/></g><g id="mignon"><path d="M164.296,96.885c-5.181,-4.103 -8.409,-9.469 -4.196,-12.528c4.213,-3.06 7.565,6.495 7.432,5.623c-0.435,-2.845 1.551,-11.522 5.893,-8.056c3.336,2.661 2.306,9.159 1.207,12.742" style="fill:none;stroke:#ff0078;stroke-width:3px;"/><path d="M179.642,80.293c-0.093,0.015 0.396,2.867 0.424,3.046c0.549,3.594 1.14,7.18 1.689,10.774" style="fill:none;stroke:#ff0078;stroke-width:3px;"/><path d="M194.331,80.274c-2.22,-1.491 -4.747,-1.16 -6.295,-0.195c-4.937,3.076 -3.314,10.383 1.694,12.316c7.909,3.053 7.602,-8.842 1.294,-5.946" style="fill:none;stroke:#ff0078;stroke-width:3px;"/><path d="M200.399,92.121c-0.14,-0.916 -0.553,-3.032 -0.645,-3.955c-0.177,-1.782 -1.021,-8.173 1.235,-9.07c1.4,-0.556 2.564,2.01 2.996,2.886c0.763,1.546 3.629,15.588 5.648,8.252c0.211,-0.766 0.335,-1.537 0.433,-2.323c0.172,-1.376 0.268,-2.75 0.305,-4.136c0.055,-2.059 0.018,-4.197 -0.294,-6.238" style="fill:none;stroke:#ff0078;stroke-width:3px;"/><path d="M224.27,78.849c-4.829,-2.412 -7.776,2.309 -8.628,5.318c-0.852,3.008 0.767,7.699 4.864,7.749c6.622,0.082 8.593,-10.655 3.764,-13.067Z" style="fill:none;stroke:#ff0078;stroke-width:3px;"/><path d="M232.25,91.632c-0.877,-3.926 0.32,-8.138 1.13,-10.388c0.219,-0.61 0.962,-2.946 2.042,-2.378c0.92,0.483 1.189,2.318 1.362,3.199c0.422,2.152 1.422,15.452 5.344,8.342c0.509,-0.925 0.943,-1.892 1.305,-2.883c0.493,-1.347 0.92,-2.722 1.267,-4.113c0.363,-1.449 0.642,-2.924 0.84,-4.408" style="fill:none;stroke:#ff0078;stroke-width:3px;"/></g><g id="narak"><path d="M33.244,129.331c1.233,3.697 -3.973,5.446 -5.903,3.707c-1.655,-1.491 -2.153,-5.226 0.988,-6.499c5.864,-2.377 8.512,13.754 13.77,13.657c6.818,-0.126 0.579,-11.538 3.27,-14.529c2.673,-2.971 7.081,0.388 6.5,3.432c-0.499,2.606 -4.057,3.093 -5.613,2.616c-5.067,-1.557 -9.986,-6.801 -12.682,-11.392" style="fill:none;stroke:#ff0078;stroke-width:3px;"/><path d="M28.661,113.591c0.743,0.93 1.404,1.936 2.103,2.901" style="fill:none;stroke:#ff0078;stroke-width:3px;"/><path d="M39.414,119.161c-0.456,-0.837 -0.661,-2.7 -0.589,-3.344c0.28,-2.49 1.549,-5.816 4.605,-5.549c7.154,0.626 9.53,6.447 14.642,10.951" style="fill:none;stroke:#ff0078;stroke-width:3px;"/><path d="M61.867,105.567c-2.586,2.45 -3.882,8.419 0.759,8.542c2.492,0.066 3.973,-2.698 4.176,-3.671c1.886,-9.064 -9.58,-4.198 -13.288,-2.744c-1.25,0.489 -2.24,0.438 -3.26,-0.384c-4.357,-3.508 -0.815,-12.444 5.145,-11.653" style="fill:none;stroke:#ff0078;stroke-width:3px;"/><path d="M45.949,96.866c1.155,-3.253 -3.806,-7.698 -6.825,-3.467c-1.461,2.047 -0.065,4.802 1.913,5.726c5.397,2.522 6.474,-6.544 5.414,-9.814" style="fill:none;stroke:#ff0078;stroke-width:3px;"/><path d="M73.286,103.692c0.091,0.097 -1.718,-0.754 -1.994,-0.926c-1.264,-0.792 -2.389,-1.771 -3.483,-2.762c-2.422,-2.196 -10.112,-9.159 -6.401,-13.421c5.191,-5.962 14.048,5.838 17.461,9.48" style="fill:none;stroke:#ff0078;stroke-width:3px;"/></g><g id="cuto"><path d="M266.587,31.145c0.035,-0.129 -0.144,1.674 -0.179,1.996c-0.143,1.338 -0.259,2.678 -0.386,4.017c-0.344,3.618 -0.122,7.877 -1.072,11.401" style="fill:none;stroke:#82b7d1;stroke-width:3px;"/><path d="M258.252,34.477c2.126,-0.332 11.95,1.568 15.57,2.543" style="fill:none;stroke:#82b7d1;stroke-width:3px;"/><path d="M256.835,40.499c-0.026,-0.007 14.146,0.509 17.849,1.962" style="fill:none;stroke:#82b7d1;stroke-width:3px;"/><path d="M281.263,41.668c0.015,-0.057 8.73,0.83 9.052,2.124c0.503,2.027 -3.404,10.211 -3.308,9.853" style="fill:none;stroke:#82b7d1;stroke-width:3px;"/><path d="M276.638,51.165c2.628,0.708 13.244,3.351 15.496,4.316" style="fill:none;stroke:#82b7d1;stroke-width:3px;"/><path d="M297.272,50.158c2.167,0.704 13.581,3.289 17.817,3.366" style="fill:none;stroke:#82b7d1;stroke-width:3px;"/><path d="M323.787,44.486c-1.385,5.06 -2.333,10.379 -3.495,15.51c-0.274,1.211 -0.523,2.426 -0.764,3.643c-0.011,0.054 -0.262,1.061 -0.183,1.082" style="fill:none;stroke:#82b7d1;stroke-width:3px;"/><path d="M322.199,51.908c0.109,-0.394 2.859,1.428 2.949,1.491c1.852,1.3 6.292,4.264 6.535,6.817" style="fill:none;stroke:#82b7d1;stroke-width:3px;"/></g><path d="M309.947,103.834c-10.649,0.505 -13.214,9.857 -14.103,13.475c-2.446,9.96 3.503,20.692 14.385,20.906c11.743,0.23 21.367,-12.214 17.047,-23.412c-2.718,-7.045 -6.681,-11.474 -17.329,-10.969Z" style="fill:#ff0078;"/><path d="M305.098,127.846c-2.293,-1.33 -5.786,2.663 -1.997,4.279c2.279,0.972 4.291,-2.948 1.997,-4.279Z" style="fill:#445;"/><path d="M324.74,124.5c-1.585,-2.661 -4.707,0.37 -4.023,2.305c1.211,3.428 5.919,0.878 4.023,-2.305Z" style="fill:#445;"/><path d="M311.533,128.831c1.845,3.1 4.8,1.279 4.385,-1.098" style="fill:none;stroke:#445;stroke-width:2px;"/></svg>