<?xml version="1.0" encoding="UTF-8" standalone="no"?><!DOCTYPE svg PUBLIC "-//W3C//DTD SVG 1.1//EN" "http://www.w3.org/Graphics/SVG/1.1/DTD/svg11.dtd"><svg width="100%" height="100%" viewBox="0 0 150 160" version="1.1" xmlns="http://www.w3.org/2000/svg" xmlns:xlink="http://www.w3.org/1999/xlink" xml:space="preserve" xmlns:serif="http://www.serif.com/" style="fill-rule:evenodd;clip-rule:evenodd;stroke-linecap:round;stroke-linejoin:round;stroke-miterlimit:1.5;"><rect id="baby-html" x="0" y="0" width="149.956" height="160" style="fill:none;"/><path d="M48.699,28.07c0.648,-0.1 1.332,-0.183 2.056,-0.249c14.105,-1.273 33.61,2.242 46.86,5.883c6.617,1.819 19.793,5.111 25.181,9.441c5.663,4.55 -1.285,32.29 -3.191,47.247c-1.444,11.337 -2.913,22.912 -5.197,34.149c-1.061,5.221 -1.872,11.058 -8.217,13.148c-8.324,2.743 -17.594,-0.077 -25.999,-0.982c-6.211,-0.669 -12.589,-0.878 -18.456,-2.989c0,0 -31.229,-97.723 -30.558,-98.171c3.224,-2.153 10.729,-6.935 16.887,-7.453c0.201,-0.017 0.412,-0.025 0.634,-0.024Z" style="fill:#bad7e6;"/><path d="M40.191,35.028c0.188,0.011 13.936,-3.17 15.946,-3.636c0.161,-0.037 0.328,-0.046 0.493,-0.026c2.071,0.249 16.673,2.048 29.031,4.605c10.381,2.148 21.951,6.174 26.568,7.852c1.216,0.45 1.976,1.663 1.851,2.954c-0.696,7.177 -2.958,30.296 -4.46,43.634c-1.562,13.872 -7.882,35.892 -9.489,41.353c-0.235,0.79 -0.833,1.419 -1.61,1.693c-3.613,1.275 -13.907,4.908 -13.907,4.908c0,0 -44.625,-103.35 -44.423,-103.337Z" style="fill:#ecf4f8;"/><path d="M44.294,34.069l11.475,-2.652c0,0 3.759,2.436 0.539,4.215c-3.985,2.2 -12.014,-1.563 -12.014,-1.563Z" style="fill:#82b7d1;"/><path d="M72.689,45.859c-1.179,-2.361 4.024,-17.015 4.909,-19.08c0.596,-1.39 1.249,-2.757 1.962,-4.091c3.297,-6.171 10.149,-15.991 18.629,-11.303c3.907,2.16 5.638,5.723 5.513,9.939c-0.139,4.641 -2.448,8.296 -7.426,7.83c-3.222,-0.301 -5.416,-2.053 -5.808,-5.378c-0.202,-1.706 0.406,-3.747 2.031,-4.851" style="fill:none;stroke:#82b7d1;stroke-width:4.5px;"/><path d="M29.361,41.041c-3.271,19.505 -7.576,38.934 -9.874,58.56c-0.802,6.851 -3.602,16.951 0.337,23.393c4.823,7.887 17.742,10.834 26.64,13.1c15.98,4.069 38.288,11.11 43.894,-0.264c1.44,-2.92 3.009,-11.286 3.825,-14.387c4.344,-16.515 11.115,-67.658 7.643,-73.429c-2.992,-4.971 -12.189,-5.848 -17.949,-7.378c-11.004,-2.924 -22.983,-4.68 -34.343,-6.12c-9.395,-1.191 -18.282,-3.643 -19.884,3.953l-0.289,2.572Z" style="fill:#bad7e6;"/><path d="M28.183,107.849c-1.344,1.093 -2.843,2.507 -3.118,5.137c-0.517,4.951 4.64,8.335 8.778,6.313c3.736,-1.824 5.912,-8.131 2.11,-11.038c-2.131,-1.63 -6.014,-1.84 -7.77,-0.412Z" style="fill:#445;"/><path d="M72.761,115.168c-2.698,1.366 -5.313,3.267 -4.964,6.381c0.498,4.433 7.077,9.071 11.8,6.217c4.502,-2.72 4.25,-9.959 -0.509,-12.413c-3.283,-1.694 -6.327,-0.185 -6.327,-0.185Z" style="fill:#445;"/><g id="html-sticker"><path d="M38.415,47.424c-0.755,3.164 -1.987,9.666 -3.034,14.502c-0.278,1.283 -1.331,4.223 -0.136,5.301c0.986,0.89 2.561,1.217 3.885,1.471c2.713,0.52 5.492,0.781 8.217,1.273c8.719,1.575 17.466,3.073 26.234,4.414c2.757,0.422 7.678,1.723 10.441,1.292c2.322,-0.363 2.17,-2.394 2.767,-4.137c1.354,-3.952 2.153,-14.562 1.981,-16.007c-0.259,-2.183 -2.453,-2.264 -4.645,-2.674c-2.149,-0.401 -35.563,-6.03 -37.913,-6.547c-3.986,-0.877 -7.042,-2.052 -7.797,1.112Z" style="fill:#ecf4f8;"/><path d="M42.426,52.887c-0.471,3.139 -1.064,6.485 -1.61,9.617" style="fill:none;stroke:#82b7d1;stroke-width:1.5px;"/><path d="M48.019,53.407c-0.876,3.526 -1.63,6.306 -2.239,9.878" style="fill:none;stroke:#82b7d1;stroke-width:1.5px;"/><path d="M42.362,57.958c1.264,0.079 2.496,0.371 3.751,0.517" style="fill:none;stroke:#82b7d1;stroke-width:1.5px;"/><path d="M51.54,54.543c3.156,0.2 5.304,0.531 8.309,1.499" style="fill:none;stroke:#82b7d1;stroke-width:1.5px;"/><path d="M55.295,55.447c-0.217,2.825 -0.972,6.655 -1.487,9.452" style="fill:none;stroke:#82b7d1;stroke-width:1.5px;"/><path d="M61.608,66.573c0.457,-2.242 0.688,-4.463 1.416,-6.658c0.085,-0.256 0.856,-2.926 1.177,-2.77c1.27,0.62 1.613,3.012 1.891,4.188c0.054,0.226 0.147,1.617 0.311,1.701c0.014,0.007 0.652,-1.438 0.717,-1.596c0.475,-1.146 1.279,-1.995 2.126,-2.971c0.103,-0.119 0.762,-0.908 0.936,-0.869c0.97,0.215 1.183,1.474 1.327,2.173c0.507,2.457 -0.335,5.926 -0.803,8.369" style="fill:none;stroke:#82b7d1;stroke-width:1.5px;"/><path d="M77.563,58.494c-1.139,2.894 -1.917,7.593 -1.89,10.534c0.002,0.214 1.532,0.267 1.731,0.284c1.799,0.15 3.601,-0.238 5.394,-0.146" style="fill:none;stroke:#82b7d1;stroke-width:1.5px;"/></g><g id="pacifier"><path d="M61.566,128.356c-1.336,3.105 -7.208,11.994 -17.342,8.9c-9.157,-2.795 -8.247,-13.272 -8.215,-13.646c0.218,-2.615 2.799,-4.55 5.155,-3.205c1.486,0.848 3.685,3.781 6.865,4.107c3.951,0.407 7.709,-2.643 11.643,-1.228c2.949,1.06 2.793,2.982 1.894,5.072Z" style="fill:#ffe5f2;"/><path d="M47.91,128.051c-0.868,-0.657 -3.699,-1.363 -5.502,-0.503c-0.627,0.299 -4.216,2.319 -2.925,5.652c1.291,3.332 4.994,2.951 5.537,2.905c1.123,-0.095 2.325,-0.264 3.302,-0.828c1.957,-1.13 2.268,-3.534 1.286,-5.375c-0.391,-0.733 -1.026,-1.342 -1.698,-1.851Z" style="fill:#ff0078;"/><path d="M40.534,132.02c-6.967,0.41 -10.515,7.712 -7.227,13.289c2.137,3.623 6.768,5.281 10.984,5.55c1.19,0.076 2.506,-0.018 3.642,-0.377c8.78,-2.773 6.685,-16.698 -1.973,-18.166l-5.426,-0.296Z" style="fill:none;stroke:#ff0078;stroke-width:3px;"/></g></svg>