<?xml version="1.0" encoding="UTF-8" standalone="no"?><!DOCTYPE svg PUBLIC "-//W3C//DTD SVG 1.1//EN" "http://www.w3.org/Graphics/SVG/1.1/DTD/svg11.dtd"><svg width="100%" height="100%" viewBox="0 0 400 500" version="1.1" xmlns="http://www.w3.org/2000/svg" xmlns:xlink="http://www.w3.org/1999/xlink" xml:space="preserve" xmlns:serif="http://www.serif.com/" style="fill-rule:evenodd;clip-rule:evenodd;stroke-linecap:round;stroke-linejoin:round;stroke-miterlimit:1.5;"><rect id="browser-guessing-files" x="0" y="0" width="400" height="500" style="fill:none;"/><path d="M261.759,202.065c-14.714,12.194 -17.948,26.825 -20.931,44.929c-1.651,10.019 -0.446,19.381 3.399,29.062c3.786,9.535 9.822,18.219 18.007,24.601c9.575,7.468 21.164,14.481 33.381,17.299c22.877,5.276 49.492,-1.537 66.651,-16.428c15.192,-13.184 29.88,-37.453 26.117,-57.416c-2.642,-14.017 -10.62,-25.228 -19.753,-36.235c-5.2,-6.267 -26.063,-27.065 -70.768,-23.222c-13.234,1.138 -21.39,5.217 -36.103,17.41Z" style="fill:#ffe5f2;"/><g id="browser"><path d="M30.582,53.968c13.642,-2.863 59.312,-3.351 88.042,-7.627c5.024,-0.748 10.086,-1.234 15.111,-1.976c6.055,-0.894 13.494,-2.299 19.255,0.574c3.998,1.994 6.425,6.111 8.317,9.869c4.155,8.248 17.077,45.284 20.313,55.113c1.382,4.198 5.514,14.445 3.918,18.84c-1.844,5.075 -8.249,5.413 -13.46,6.221c-4.209,0.652 -61.818,10.506 -86.746,13.4c-7.644,0.888 -15.238,1.652 -22.878,2.665c-17.198,2.28 -31.003,6.959 -34.286,-14.516c-1.638,-10.71 -11.249,-50.418 -13.208,-58.062c-1.007,-3.928 -2.306,-8.359 -1.332,-12.403c1.405,-5.841 3.312,-9.236 16.954,-12.098Z" style="fill:#bad7e6;"/><path d="M21.015,65.166c0.868,-2.551 5.037,-4.575 8.709,-2.624c3.756,1.997 3.799,4.682 2.336,7.21c-1.818,3.143 -6.429,3.83 -9.067,1.989c-2.639,-1.841 -2.846,-4.024 -1.978,-6.575Z" style="fill:#ecf4f8;"/><path d="M24.014,68.404c2.084,-0.899 4.144,-1.586 6.379,-2.065" style="fill:none;stroke:#82b7d1;stroke-width:2px;"/><path d="M24.648,65.491c0,0 -1.569,2.128 -1.101,3.025c0.467,0.897 2.846,1.57 2.846,1.57" style="fill:none;stroke:#82b7d1;stroke-width:2px;"/><path d="M36.942,63.135c0.314,2.89 0.429,5.763 2.796,6.757c3.831,1.61 11.043,0.111 15.743,-0.669c10.581,-1.757 21.125,-2.945 31.817,-4.017c12.405,-1.243 24.898,-2.397 37.294,-3.83c6.173,-0.713 12.253,-1.982 18.402,-2.846c2.317,-0.325 5.682,-0.389 6.908,-2.667c0.427,-0.793 0.582,-1.789 0.719,-2.66c1.461,-9.234 -13.106,-5.01 -18.397,-4.276c-13.461,1.868 -27.274,3.874 -40.789,5.333c-10.067,1.086 -19.873,1.638 -29.901,2.825c-5.807,0.687 -11.592,1.5 -17.386,2.242c-2.291,0.293 -7.65,-0.27 -7.206,3.808Z" style="fill:#ecf4f8;"/><path d="M21.611,82.969c0.679,4.841 1.963,8.828 3.531,15.089c2.693,10.746 4.258,21.157 6.929,31.912c1.356,5.458 2.228,15.511 8.453,17.777c3.02,1.099 6.423,0.038 9.489,-0.278c7.483,-0.769 14.546,-1.884 21.876,-3.635c9.855,-2.353 66.193,-9.13 76.834,-11.033c3.657,-0.654 10.716,-1.772 14.372,-2.458c8.285,-1.555 16.696,-1.312 16.726,-7.327c0.007,-1.467 -2.161,-9.267 -2.433,-10.701c-0.826,-4.366 -1.673,-7.527 -3.381,-11.589c-3.606,-8.576 -5.415,-16.144 -8.466,-24.92c-1.491,-4.288 -3.834,-12.321 -8.441,-14.465c-2.09,-0.973 -6.231,-0.211 -8.372,0.19c-5.187,0.974 -11.609,0.803 -16.834,1.831c-10.633,2.092 -19.765,3.437 -30.527,4.571c-7.464,0.785 -60.301,8.387 -67.178,8.764c-4.884,0.268 -13.258,1.432 -12.578,6.272Z" style="fill:#ecf4f8;"/><path d="M77.592,122.239c1.109,-2.287 6.629,-3.96 8.516,-1.266c1.887,2.694 2.076,4.974 0.377,6.632c-1.699,1.658 -5.286,2.694 -7.363,1.243c-2.077,-1.451 -2.64,-4.323 -1.53,-6.609Z" style="fill:#445;"/><path d="M128.278,114.199c2.233,-2.179 6.449,-2.011 7.69,0c1.242,2.011 1.747,4.284 -0.039,6.297c-1.916,2.161 -5.631,2.012 -7.379,0.336c-1.747,-1.677 -2.487,-4.472 -0.272,-6.633Z" style="fill:#445;"/><path d="M115.182,126.761c-0.208,-2.369 -3.545,-4.93 -6.84,-4.094c-3.295,0.836 -5.774,2.988 -5.139,6.163c0.635,3.175 3.877,4.378 7.325,4.096c3.447,-0.282 4.861,-3.796 4.654,-6.165Z" style="fill:none;stroke:#445;stroke-width:2px;"/></g><g id="browser1" serif:id="browser"><path d="M30.582,211.63c13.642,-2.863 59.312,-3.351 88.042,-7.627c5.024,-0.748 10.086,-1.234 15.111,-1.976c6.055,-0.894 13.494,-2.299 19.255,0.574c3.998,1.994 6.425,6.112 8.317,9.869c4.155,8.248 17.077,45.284 20.313,55.113c1.382,4.198 5.514,14.445 3.918,18.84c-1.844,5.075 -8.249,5.413 -13.46,6.221c-4.209,0.652 -61.818,10.506 -86.746,13.4c-7.644,0.888 -15.238,1.652 -22.878,2.665c-17.198,2.28 -31.003,6.959 -34.286,-14.516c-1.638,-10.71 -11.249,-50.418 -13.208,-58.062c-1.007,-3.928 -2.306,-8.359 -1.332,-12.403c1.405,-5.841 3.312,-9.236 16.954,-12.098Z" style="fill:#bad7e6;"/><path d="M21.015,222.828c0.868,-2.551 5.037,-4.575 8.709,-2.624c3.756,1.997 3.799,4.682 2.336,7.21c-1.818,3.143 -6.429,3.83 -9.067,1.989c-2.639,-1.841 -2.846,-4.024 -1.978,-6.575Z" style="fill:#ecf4f8;"/><path d="M24.014,226.066c2.084,-0.899 4.144,-1.586 6.379,-2.065" style="fill:none;stroke:#82b7d1;stroke-width:2px;"/><path d="M24.648,223.153c0,0 -1.569,2.128 -1.101,3.025c0.467,0.897 2.846,1.57 2.846,1.57" style="fill:none;stroke:#82b7d1;stroke-width:2px;"/><path d="M36.942,220.797c0.314,2.89 0.429,5.763 2.796,6.757c3.831,1.61 11.043,0.111 15.743,-0.669c10.581,-1.757 21.125,-2.945 31.817,-4.017c12.405,-1.243 24.898,-2.397 37.294,-3.83c6.173,-0.713 12.253,-1.982 18.402,-2.846c2.317,-0.325 5.682,-0.389 6.908,-2.667c0.427,-0.793 0.582,-1.789 0.719,-2.66c1.461,-9.234 -13.106,-5.01 -18.397,-4.276c-13.461,1.868 -27.274,3.874 -40.789,5.333c-10.067,1.086 -19.873,1.638 -29.901,2.825c-5.807,0.687 -11.592,1.5 -17.386,2.242c-2.291,0.293 -7.65,-0.27 -7.206,3.808Z" style="fill:#ecf4f8;"/><path d="M21.611,240.631c0.679,4.841 1.963,8.828 3.531,15.089c2.693,10.746 4.258,21.157 6.929,31.912c1.356,5.458 2.228,15.511 8.453,17.777c3.02,1.099 6.423,0.038 9.489,-0.278c7.483,-0.769 14.546,-1.884 21.876,-3.635c9.855,-2.353 66.193,-9.13 76.834,-11.033c3.657,-0.654 10.716,-1.772 14.372,-2.458c8.285,-1.555 16.696,-1.312 16.726,-7.327c0.007,-1.467 -2.161,-9.267 -2.433,-10.701c-0.826,-4.366 -1.673,-7.527 -3.381,-11.589c-3.606,-8.576 -5.415,-16.144 -8.466,-24.92c-1.491,-4.288 -3.834,-12.321 -8.441,-14.465c-2.09,-0.973 -6.231,-0.211 -8.372,0.19c-5.187,0.974 -11.609,0.803 -16.834,1.831c-10.633,2.092 -19.765,3.437 -30.527,4.571c-7.464,0.785 -60.301,8.387 -67.178,8.764c-4.884,0.268 -13.258,1.432 -12.578,6.272Z" style="fill:#ecf4f8;"/><g id="glasses"><path d="M83.249,264.009c-6.379,2.107 -9.516,6.473 -10.872,11.928c-1.653,6.655 3.013,14.008 9.799,16.032c4.02,1.2 8.791,0.556 12.678,-0.821c1.887,-0.669 3.604,-1.69 5.123,-2.947c1.357,-1.123 2.628,-2.427 3.431,-3.981c5.242,-10.143 -9.674,-23.674 -20.159,-20.211Z" style="fill:#fff;stroke:#82b7d1;stroke-width:4px;"/><path d="M133.448,254.991c-9.146,4.835 -10.375,19.102 -1.144,25.834c1.657,1.208 3.439,1.913 5.486,2.267c2.053,0.355 4.143,0.092 6.214,-0.104c10.01,-0.946 14.349,-8.892 14.064,-13.264c-0.941,-14.416 -15.473,-19.569 -24.62,-14.733Z" style="fill:#fff;stroke:#82b7d1;stroke-width:4px;"/><path d="M103.183,273.031c4.94,-5.902 14.134,-8.614 21.818,-5.086" style="fill:none;stroke:#82b7d1;stroke-width:4px;"/><path d="M72.994,273.322c-5.699,-0.341 -41.661,6.505 -45.356,7.347c-2.999,0.684 -6.262,1.276 -8.544,3.426c-2.975,2.802 -2.469,6.325 1.4,7.741" style="fill:none;stroke:#82b7d1;stroke-width:4px;"/><path d="M154.714,259.186c6.132,-2.865 26.916,-3.822 29.453,-3.555c0.21,0.022 -2.814,3.765 -4.198,4.576" style="fill:none;stroke:#82b7d1;stroke-width:4px;"/></g><path d="M126.674,282.837c-3.407,0.24 -14.053,2.885 -18.379,3.143" style="fill:none;stroke:#445;stroke-width:2px;"/><path d="M91.562,278.545c0.953,-2.066 5.692,-3.578 7.313,-1.144c1.621,2.435 1.783,4.494 0.324,5.992c-1.459,1.498 -4.54,2.435 -6.323,1.124c-1.783,-1.311 -2.267,-3.906 -1.314,-5.972Z" style="fill:#445;"/><path d="M143.076,269.56c2.234,-2.179 6.449,-2.011 7.691,0c1.241,2.012 1.746,4.285 -0.039,6.297c-1.917,2.161 -5.632,2.013 -7.379,0.336c-1.748,-1.677 -2.488,-4.471 -0.273,-6.633Z" style="fill:#445;"/></g><g id="question-mark"><path d="M200.146,37.729c0.174,-8.967 8.99,-14.211 17.407,-15.091c6.496,-0.68 13.114,1.537 13.328,8.761c0.533,17.962 -26.516,15.135 -28.625,32.139" style="fill:none;stroke:#82b7d1;stroke-width:6.5px;"/><path d="M200.471,72.479l-0.382,2.091" style="fill:none;stroke:#82b7d1;stroke-width:6.5px;"/><path d="M200.273,37.774c0.174,-8.967 8.99,-14.211 17.407,-15.091c6.496,-0.68 13.113,1.537 13.328,8.761c0.533,17.962 -26.516,15.135 -28.625,32.139" style="fill:none;stroke:#82b7d1;stroke-width:6.5px;"/><path d="M200.598,72.524l-0.382,2.091" style="fill:none;stroke:#82b7d1;stroke-width:6.5px;"/></g><g id="file-one"><path d="M238.427,124.711c-2.896,-1.1 -4.425,-4.024 -3.717,-6.131c3.272,-9.745 12.619,-32.108 14.214,-40.406c1.97,-10.251 -0.06,-22.196 6.765,-22.196c1.318,0 16.734,0.495 20.197,0.69c2.954,0.167 8.863,1.002 13.861,2.054c4.218,0.889 8.97,13.709 8.808,15.969c-0.427,5.927 -0.581,6.892 -1.84,12.692c-2.376,10.941 -12.206,45.449 -15.819,47.995c-3.907,2.752 -14.098,-0.694 -19.011,-2.117c-3.495,-1.013 -16.331,-5.843 -23.458,-8.55Z" style="fill:#bad7e6;"/><path d="M298.555,74.443c-4.243,-3.413 -9.648,-5.604 -10.822,-6.855c-1.174,-1.252 -0.512,-9.397 2.014,-8.866c4.218,0.889 9.045,13.468 8.808,15.721Z" style="fill:#ecf4f8;"/><path d="M248.388,110.51c-2.387,-0.002 -4.186,1.391 -4.466,3.724c-0.214,1.78 1.586,4.451 3.694,4.332c2.423,-0.137 4.483,-2.195 4.594,-4.529c0.08,-1.693 -1.435,-3.525 -3.822,-3.527Z" style="fill:#445;"/><path d="M273.867,117.448c-0.687,-0.989 -3.067,-2.355 -5.384,-0.845c-3.821,2.49 -0.746,7.534 3.097,6.509c2.356,-0.628 3.645,-3.71 2.287,-5.664Z" style="fill:#445;"/><path d="M253.99,120.587c0,0.72 0.088,1.41 0.333,2.097c1.546,4.35 6.253,2.23 7.834,-0.805" style="fill:none;stroke:#445;stroke-width:2px;"/></g><g id="file-one1" serif:id="file-one"><path d="M265.219,290.351c-4.711,-1.79 -7.199,-6.546 -6.048,-9.974c5.324,-15.853 20.529,-52.234 23.123,-65.733c3.206,-16.677 -0.097,-36.109 11.007,-36.109c2.143,0 27.223,0.806 32.856,1.123c4.806,0.272 14.419,1.63 22.55,3.342c6.862,1.445 14.593,22.301 14.328,25.977c-0.694,9.643 -0.945,11.213 -2.993,20.648c-3.864,17.799 -19.856,73.938 -25.735,78.079c-6.355,4.477 -22.934,-1.128 -30.928,-3.444c-5.684,-1.647 -26.567,-9.505 -38.16,-13.909Z" style="fill:#bad7e6;"/><path d="M363.036,208.575c-6.904,-5.553 -15.696,-9.117 -17.606,-11.153c-1.91,-2.036 -0.832,-15.287 3.277,-14.422c6.862,1.445 14.714,21.909 14.329,25.575Z" style="fill:#ecf4f8;"/><path d="M281.423,267.249c-3.883,-0.003 -6.809,2.263 -7.265,6.059c-0.348,2.894 2.58,7.24 6.01,7.047c3.942,-0.223 7.293,-3.571 7.472,-7.368c0.131,-2.755 -2.333,-5.736 -6.217,-5.738Z" style="fill:#445;"/><path d="M322.873,278.536c-1.118,-1.609 -4.99,-3.831 -8.759,-1.376c-6.216,4.051 -1.213,12.257 5.038,10.59c3.833,-1.021 5.93,-6.036 3.721,-9.214Z" style="fill:#445;"/><path d="M290.537,283.643c0,1.171 0.144,2.293 0.541,3.41c2.515,7.077 10.172,3.628 12.745,-1.309" style="fill:none;stroke:#445;stroke-width:2px;"/><g id="_.html" serif:id=".html"><path d="M340.524,307.675c-0.124,0 0.258,0.068 0.291,0.073c0.231,0.036 0.462,0.076 0.692,0.113" style="fill:none;stroke:#ff0078;stroke-width:2px;"/><path d="M347.966,301.136c-0.15,1.759 -1.662,7.765 -1.809,7.984" style="fill:none;stroke:#ff0078;stroke-width:2px;"/><path d="M352.721,301.787c-0.157,1.749 -1.767,7.783 -2.288,8.892" style="fill:none;stroke:#ff0078;stroke-width:2px;"/><path d="M347.443,305.084c0.004,-0.033 0.834,0.174 0.88,0.186c0.915,0.24 1.812,0.554 2.718,0.821" style="fill:none;stroke:#ff0078;stroke-width:2px;"/><path d="M355.292,302.738c0.664,0.052 5.289,1.268 6.874,1.78" style="fill:none;stroke:#ff0078;stroke-width:2px;"/><path d="M358.478,303.764c-0.139,1.55 -1.658,7.229 -2.185,8.35" style="fill:none;stroke:#ff0078;stroke-width:2px;"/><path d="M363.93,313.872c0.224,-1.574 0.545,-5.142 1.192,-6.626c0.2,-0.457 0.543,-1.502 1.219,-1.69c0.408,-0.114 0.723,0.355 0.876,0.583c0.347,0.514 0.55,1.086 0.759,1.64c0.076,0.199 0.117,0.592 0.299,0.763c0.006,0.006 1.48,-2.842 3.141,-2.297c0.762,0.251 0.697,1.739 0.704,2.326c0.02,1.614 -0.895,5.481 -1.767,6.632" style="fill:none;stroke:#ff0078;stroke-width:2px;"/><path d="M376.7,307.419c-0.091,1.064 -2.335,8.656 -2.199,8.843c0.057,0.078 0.379,0.07 0.476,0.08c0.501,0.051 4.863,0.913 5.184,1.118" style="fill:none;stroke:#ff0078;stroke-width:2px;"/></g><g id="doctype"><path d="M290.351,207.16c-0.506,0.136 -3.994,1.064 -4.054,1.179c-0.011,0.022 3.425,3.116 3.566,3.116" style="fill:none;stroke:#ff0078;stroke-width:1px;"/><path d="M292.437,206.389c-0.086,0.001 -0.795,3.89 -0.938,4.027" style="fill:none;stroke:#ff0078;stroke-width:1px;"/><path d="M291.149,212.024c0,0.217 -0.002,0.256 -0.051,0.469" style="fill:none;stroke:#ff0078;stroke-width:1px;"/><path d="M294.445,206.929c-0.181,0.907 -1.18,5.527 -1.044,5.787c0.034,0.066 0.626,0.086 0.704,0.099c0.792,0.134 1.677,0.167 2.425,-0.152c3.035,-1.294 1.554,-5.052 -2.085,-5.734Z" style="fill:none;stroke:#ff0078;stroke-width:1px;"/><path d="M302.794,208.546c-2.953,0 -3.761,4.825 -0.702,5.39c2.785,0.514 3.563,-4.384 1.22,-5.321l-0.518,-0.069Z" style="fill:none;stroke:#ff0078;stroke-width:1px;"/><path d="M311.546,211.627c0,-1.213 -1.85,-2.072 -2.918,-1.848c-0.626,0.131 -1.295,0.751 -1.57,1.293c-0.464,0.918 -0.489,2.287 0.07,3.18c0.652,1.042 2.208,1.344 3.247,0.632c0.357,-0.245 0.518,-0.55 0.75,-0.885" style="fill:none;stroke:#ff0078;stroke-width:1px;"/><path d="M312.671,210.549c1.223,0 4.189,0.603 4.689,0.679" style="fill:none;stroke:#ff0078;stroke-width:1px;"/><path d="M315.4,211.011c-0.193,0.001 -0.358,1.219 -0.377,1.326c-0.238,1.373 -0.553,2.858 -0.553,4.257" style="fill:none;stroke:#ff0078;stroke-width:1px;"/><path d="M318.834,211.589c0.147,0.409 1.146,2.46 1.332,2.494c0.559,0.105 1.739,-1.381 2.607,-1.797" style="fill:none;stroke:#ff0078;stroke-width:1px;"/><path d="M323.589,218.791c0.161,-2.154 0.993,-5.956 1.166,-6.088c0.219,-0.168 4.037,0.414 3.568,2.152c-0.416,1.545 -3.218,0.716 -3.549,0.569" style="fill:none;stroke:#ff0078;stroke-width:1px;"/><path d="M334.347,214.869c-7.664,-1.32 -5.798,5.905 -1.126,4.997" style="fill:none;stroke:#ff0078;stroke-width:1px;"/><path d="M329.61,216.942c0.393,0.189 2.637,0.666 3.434,0.819" style="fill:none;stroke:#ff0078;stroke-width:1px;"/><path d="M338.281,215.479c0,-0.132 -0.586,4.247 -0.606,5.025" style="fill:none;stroke:#ff0078;stroke-width:1px;"/><path d="M337.868,218.424c0.073,-1.562 1.524,-1.637 1.967,-1.212c0.926,0.888 0.38,2.711 -0.124,3.679" style="fill:none;stroke:#ff0078;stroke-width:1px;"/><path d="M342.928,215.896c0,1.173 -0.265,2.552 -0.577,3.675c-0.128,0.462 -0.31,1.404 -0.064,1.875c0.199,0.383 0.474,0.367 0.842,0.295" style="fill:none;stroke:#ff0078;stroke-width:1px;"/><path d="M341.807,217.866c0.604,0 1.284,0.014 1.821,0.271" style="fill:none;stroke:#ff0078;stroke-width:1px;"/><path d="M345.105,218.175c-0.168,1.054 -0.531,3.226 -0.545,4.111" style="fill:none;stroke:#ff0078;stroke-width:1px;"/><path d="M344.933,219.353c0.416,-1.124 2.101,-0.746 2.362,-0.228c0.603,1.198 0.07,2.53 -0.33,3.655" style="fill:none;stroke:#ff0078;stroke-width:1px;"/><path d="M347.582,220.209c-0.086,-0.166 1.118,-1.58 2.117,-1.119c1.355,0.626 0.192,3.273 -0.123,4.179" style="fill:none;stroke:#ff0078;stroke-width:1px;"/><path d="M352.652,218.098c0,1.454 -1.051,5.835 -1.193,5.835" style="fill:none;stroke:#ff0078;stroke-width:1px;"/><path d="M354.415,220.399c0.534,0.386 3.087,2.24 2.969,2.729c-0.052,0.22 -3.292,1.344 -3.793,1.309" style="fill:none;stroke:#ff0078;stroke-width:1px;"/><path d="M320.217,214.478c0,1.124 -0.301,2.267 -0.506,3.362" style="fill:none;stroke:#ff0078;stroke-width:1px;"/></g></g><g id="file-two"><path d="M336.681,121.702c-5.735,-3.895 -8.908,-9.214 -12.358,-19.066c-3.022,-8.629 -4.202,-15.192 -5.309,-22.688c-1.367,-9.259 -1.372,-20.104 5.131,-21.885c1.256,-0.343 13.148,-3.773 16.509,-4.509c2.867,-0.629 4.823,-0.951 9.918,-1.357c4.3,-0.342 10.788,7.102 11.348,9.072c1.47,5.168 4.389,18.5 5.542,23.711c6.163,27.852 17.724,29.946 15.087,33.061c-2.851,3.367 -40.133,7.556 -45.868,3.661Z" style="fill:#bad7e6;"/><path d="M362.163,61.773c-4.014,-4.75 -15.906,-3.13 -16.111,-5.624c-0.123,-1.504 0.37,-4.938 2.945,-5.144c4.3,-0.342 13.586,8.177 13.166,10.768Z" style="fill:#ecf4f8;"/><path d="M335.335,108.489c-0.909,1.27 0.132,4.492 1.555,4.777c0.925,0.185 2.013,0.146 2.854,-0.231c0.891,-0.398 1.593,-1.128 1.749,-2.07c0.116,-0.7 0.042,-1.459 -0.247,-2.113c-1.18,-2.673 -4.268,-2.656 -5.911,-0.363Z" style="fill:#445;"/><path d="M361.958,105.856c-0.95,-0.954 -2.678,-1.119 -3.699,-0.464c-0.717,0.459 -1.236,1.066 -1.579,1.898c-2.372,5.755 8.493,5.092 6.221,-0.027c-0.23,-0.518 -0.554,-1.016 -0.943,-1.407Z" style="fill:#445;"/><path d="M346.099,114.429c0.171,0.412 2.435,3.48 3.665,3.207c1.231,-0.273 2.701,-3.527 2.907,-3.983" style="fill:none;stroke:#445;stroke-width:2px;"/></g><g id="dashed-arrow"><path d="M252.927,257.554c0.025,-0.102 4.712,5.744 4.112,7.439c-0.902,2.548 -5.994,2.823 -8.194,2.727" style="fill:none;stroke:#445;stroke-width:2px;"/><path d="M187.363,265.371c17.987,-7.708 35.792,-10.415 62.818,-3.108" style="fill:none;stroke:#445;stroke-width:2px;stroke-dasharray:4,8,0,0;"/></g><g id="browser2" serif:id="browser"><path d="M45.459,374.201c13.643,-2.863 59.313,-3.35 88.042,-7.626c5.024,-0.748 10.086,-1.235 15.111,-1.976c6.056,-0.894 13.494,-2.3 19.256,0.573c3.998,1.994 6.424,6.112 8.317,9.87c4.154,8.248 17.077,45.283 20.313,55.112c1.382,4.199 5.514,14.446 3.917,18.84c-1.843,5.076 -8.249,5.414 -13.459,6.221c-4.209,0.652 -61.819,10.506 -86.746,13.401c-7.645,0.887 -15.239,1.652 -22.878,2.665c-17.198,2.28 -31.003,6.958 -34.287,-14.516c-1.638,-10.71 -11.248,-50.418 -13.207,-58.063c-1.007,-3.927 -2.306,-8.358 -1.333,-12.403c1.406,-5.841 3.312,-9.235 16.954,-12.098Z" style="fill:#bad7e6;"/><path d="M35.893,385.399c0.868,-2.551 5.037,-4.575 8.708,-2.623c3.757,1.997 3.8,4.682 2.337,7.21c-1.819,3.142 -6.429,3.829 -9.068,1.988c-2.638,-1.841 -2.845,-4.024 -1.977,-6.575Z" style="fill:#ecf4f8;"/><path d="M38.891,388.638c2.084,-0.899 4.145,-1.586 6.38,-2.066" style="fill:none;stroke:#82b7d1;stroke-width:2px;"/><path d="M39.525,385.725c0,0 -1.568,2.128 -1.101,3.025c0.468,0.897 2.847,1.569 2.847,1.569" style="fill:none;stroke:#82b7d1;stroke-width:2px;"/><path d="M51.819,383.369c0.315,2.89 0.43,5.762 2.796,6.757c3.831,1.61 11.044,0.11 15.744,-0.67c10.581,-1.757 21.124,-2.945 31.816,-4.016c12.406,-1.244 24.898,-2.397 37.294,-3.83c6.174,-0.714 12.253,-1.983 18.403,-2.846c2.317,-0.326 5.681,-0.39 6.907,-2.668c0.427,-0.792 0.582,-1.789 0.72,-2.659c1.46,-9.235 -13.107,-5.01 -18.397,-4.276c-13.461,1.868 -27.274,3.874 -40.789,5.332c-10.068,1.087 -19.874,1.638 -29.901,2.825c-5.807,0.688 -11.592,1.5 -17.387,2.243c-2.291,0.293 -7.649,-0.27 -7.206,3.808Z" style="fill:#ecf4f8;"/><path d="M36.488,403.203c0.68,4.841 1.963,8.828 3.532,15.088c2.692,10.746 4.258,21.158 6.929,31.913c1.355,5.458 2.227,15.511 8.453,17.776c3.019,1.099 6.423,0.038 9.489,-0.277c7.483,-0.77 14.546,-1.885 21.876,-3.635c9.855,-2.354 66.193,-9.131 76.834,-11.033c3.656,-0.654 10.716,-1.772 14.372,-2.458c8.285,-1.556 16.696,-1.313 16.726,-7.327c0.007,-1.467 -2.162,-9.267 -2.433,-10.702c-0.826,-4.366 -1.673,-7.527 -3.381,-11.588c-3.607,-8.577 -5.416,-16.145 -8.467,-24.92c-1.491,-4.288 -3.834,-12.321 -8.44,-14.466c-2.091,-0.973 -6.232,-0.211 -8.372,0.191c-5.188,0.973 -11.609,0.803 -16.834,1.83c-10.634,2.092 -19.765,3.438 -30.527,4.571c-7.465,0.786 -60.301,8.387 -67.178,8.765c-4.884,0.268 -13.258,1.431 -12.579,6.272Z" style="fill:#ecf4f8;"/><path d="M92.469,442.472c1.11,-2.286 6.629,-3.959 8.517,-1.265c1.887,2.694 2.076,4.973 0.377,6.631c-1.7,1.658 -5.287,2.694 -7.364,1.244c-2.076,-1.451 -2.639,-4.323 -1.53,-6.61Z" style="fill:#445;"/><path d="M143.155,434.432c2.234,-2.179 6.449,-2.011 7.691,0c1.242,2.012 1.746,4.285 -0.039,6.298c-1.917,2.16 -5.631,2.012 -7.379,0.335c-1.748,-1.677 -2.488,-4.471 -0.273,-6.633Z" style="fill:#445;"/><path d="M117.589,446.627c1.62,2.261 6.628,3.999 7.325,4.096c1.516,0.211 4.547,-4.98 4.654,-6.165" style="fill:none;stroke:#445;stroke-width:2px;"/></g><g id="html-file"><path d="M285.027,385.178c0.406,-0.068 0.834,-0.125 1.288,-0.17c8.833,-0.872 21.044,1.488 29.337,3.939c4.142,1.223 12.39,3.438 15.76,6.36c3.542,3.07 -0.834,21.824 -2.041,31.934c-0.915,7.663 -1.846,15.487 -3.286,23.083c-0.67,3.53 -1.183,7.475 -5.158,8.893c-5.215,1.86 -11.017,-0.038 -16.279,-0.643c-3.889,-0.447 -7.883,-0.583 -11.554,-2.006c0,0 -19.466,-66.019 -19.045,-66.323c2.021,-1.457 6.725,-4.696 10.581,-5.051c0.126,-0.011 0.258,-0.017 0.397,-0.016Z" style="fill:#bad7e6;"/><path d="M279.693,389.887c0.115,0.007 8.305,-2.047 9.881,-2.443c0.173,-0.042 0.352,-0.053 0.529,-0.03c1.642,0.213 10.521,1.399 18.062,3.074c6.019,1.337 12.676,3.762 15.921,5.011c1.184,0.463 1.92,1.653 1.804,2.919c-0.499,5.471 -1.858,20.198 -2.772,28.843c-0.958,9.063 -4.706,23.274 -5.869,27.549c-0.217,0.789 -0.797,1.428 -1.562,1.721c-2.56,0.978 -8.272,3.16 -8.272,3.16c0,0 -27.848,-69.813 -27.722,-69.804Z" style="fill:#ecf4f8;"/><path d="M282.263,389.236l7.188,-1.802c0,0 2.352,1.644 0.334,2.848c-2.498,1.491 -7.522,-1.046 -7.522,-1.046Z" style="fill:#82b7d1;"/><path d="M272.906,393.959c-2.067,13.185 -4.78,26.32 -6.237,39.585c-0.509,4.632 -2.271,11.46 0.19,15.81c3.012,5.327 11.099,7.308 16.669,8.832c10.003,2.738 23.966,7.478 27.487,-0.213c0.904,-1.975 1.894,-7.63 2.408,-9.726c2.735,-11.165 7.022,-45.735 4.853,-49.633c-1.868,-3.357 -7.627,-3.942 -11.232,-4.972c-6.888,-1.967 -14.388,-3.144 -21.5,-4.109c-5.882,-0.797 -11.445,-2.447 -12.455,2.688l-0.183,1.738Z" style="fill:#bad7e6;"/><path d="M274.769,441.397c-0.727,0.531 -1.537,1.22 -1.671,2.515c-0.252,2.438 2.587,4.134 4.835,3.16c2.029,-0.879 3.178,-3.976 1.083,-5.43c-1.174,-0.815 -3.296,-0.94 -4.247,-0.245Z" style="fill:#445;"/><path d="M296.682,445.016c-1.289,0.705 -2.54,1.687 -2.375,3.291c0.235,2.285 3.374,4.672 5.631,3.198c2.152,-1.405 2.037,-5.136 -0.234,-6.398c-1.567,-0.871 -3.022,-0.091 -3.022,-0.091Z" style="fill:#445;"/><path d="M281.68,450.391c1.729,2.701 4.717,4.434 7.481,1.809" style="fill:none;stroke:#445;stroke-width:2px;"/><path d="M278.57,398.266c-0.476,2.139 -1.254,6.534 -1.914,9.804c-0.175,0.867 -0.837,2.855 -0.09,3.583c0.617,0.6 1.603,0.82 2.431,0.99c1.699,0.35 3.439,0.524 5.145,0.855c5.458,1.057 10.934,2.062 16.423,2.962c1.726,0.283 4.806,1.158 6.537,0.864c1.455,-0.247 1.362,-1.619 1.737,-2.798c0.851,-2.672 1.361,-9.843 1.255,-10.82c-0.16,-1.475 -1.534,-1.528 -2.906,-1.803c-1.345,-0.269 -22.264,-4.047 -23.735,-4.395c-2.496,-0.589 -4.408,-1.381 -4.883,0.758Z" style="fill:#ecf4f8;"/><path d="M281.076,401.955c-0.298,2.122 -0.672,4.384 -1.017,6.501" style="fill:none;stroke:#82b7d1;stroke-width:1.5px;"/><path d="M284.578,402.302c-0.552,2.384 -1.027,4.263 -1.411,6.678" style="fill:none;stroke:#82b7d1;stroke-width:1.5px;"/><path d="M281.031,405.382c0.792,0.053 1.563,0.249 2.349,0.347" style="fill:none;stroke:#82b7d1;stroke-width:1.5px;"/><path d="M286.782,403.067c1.976,0.133 3.32,0.355 5.201,1.007" style="fill:none;stroke:#82b7d1;stroke-width:1.5px;"/><path d="M289.132,403.675c-0.138,1.909 -0.614,4.498 -0.94,6.389" style="fill:none;stroke:#82b7d1;stroke-width:1.5px;"/><path d="M293.075,411.19c0.288,-1.516 0.435,-3.018 0.893,-4.502c0.053,-0.173 0.539,-1.978 0.739,-1.872c0.795,0.417 1.007,2.034 1.181,2.829c0.033,0.152 0.09,1.092 0.193,1.149c0.009,0.004 0.409,-0.972 0.451,-1.079c0.298,-0.775 0.802,-1.35 1.333,-2.01c0.065,-0.08 0.478,-0.614 0.587,-0.588c0.607,0.145 0.74,0.995 0.829,1.467c0.315,1.66 -0.215,4.006 -0.51,5.657" style="fill:none;stroke:#82b7d1;stroke-width:1.5px;"/><path d="M303.073,405.716c-0.716,1.957 -1.207,5.134 -1.193,7.121c0.001,0.145 0.959,0.18 1.084,0.191c1.127,0.1 2.255,-0.164 3.378,-0.103" style="fill:none;stroke:#82b7d1;stroke-width:1.5px;"/></g><path d="M219.427,361.961c6.503,-6.078 14.422,-3.553 17.11,1.38c2.688,4.934 0.145,12.275 -6.358,18.353c-4.679,4.622 -13.714,7.855 -20.925,9.632c-4.668,-5.565 -9.888,-13.343 -10.752,-19.733c-1.416,-8.604 1.127,-15.945 6.358,-18.353c5.232,-2.408 13.151,0.117 14.567,8.721Z" style="fill:#ffe5f2;"/><path d="M305.398,345.307c0.316,10.11 0.717,20.227 0.486,30.345" style="fill:none;stroke:#ff0078;stroke-width:2px;"/><path d="M339.684,353.021c-4.545,8.179 -9.254,16.25 -13.908,24.366" style="fill:none;stroke:#ff0078;stroke-width:2px;"/><path d="M335.398,393.021c9.741,-5.217 19.025,-11.16 28.47,-16.874" style="fill:none;stroke:#ff0078;stroke-width:2px;"/><path d="M339.112,410.45c9.495,-0.307 18.871,-0.214 28.363,-0.845" style="fill:none;stroke:#ff0078;stroke-width:2px;"/><path d="M287.684,379.593c-5.991,-8.198 -11.875,-16.7 -16.387,-25.826" style="fill:none;stroke:#ff0078;stroke-width:2px;"/><path d="M297.397,376.163c-1.883,-4.055 -3.709,-8.112 -5.251,-12.31" style="fill:none;stroke:#ff0078;stroke-width:2px;"/><path d="M315.398,375.878c0.726,-3.11 1.394,-6.232 2.012,-9.366" style="fill:none;stroke:#ff0078;stroke-width:2px;"/><path d="M330.541,384.164c1.368,-1.249 2.667,-2.573 4.042,-3.815" style="fill:none;stroke:#ff0078;stroke-width:2px;"/><path d="M338.54,402.163c1.971,-0.525 3.957,-0.996 5.902,-1.615" style="fill:none;stroke:#ff0078;stroke-width:2px;"/><path d="M278.826,383.593c-0.769,-0.924 -1.546,-1.841 -2.287,-2.787" style="fill:none;stroke:#ff0078;stroke-width:2px;"/><path d="M247.682,377.306c6.587,3.527 13.645,6.053 20.237,9.571" style="fill:none;stroke:#ff0078;stroke-width:2px;"/><path d="M257.72,398.094c3.896,0.628 4.028,0.754 7.901,1.516" style="fill:none;stroke:#ff0078;stroke-width:2px;"/><path d="M239.399,411.021c8.828,-0.854 17.473,-0.944 26.343,-0.9" style="fill:none;stroke:#ff0078;stroke-width:2px;"/><path d="M333.684,426.45c8.537,4.742 17.232,9.205 25.751,13.981" style="fill:none;stroke:#ff0078;stroke-width:2px;"/><path d="M337.969,419.021c3.91,0.757 7.79,1.646 11.595,2.825" style="fill:none;stroke:#ff0078;stroke-width:2px;"/></svg>