<?xml version="1.0" encoding="UTF-8" standalone="no"?><!DOCTYPE svg PUBLIC "-//W3C//DTD SVG 1.1//EN" "http://www.w3.org/Graphics/SVG/1.1/DTD/svg11.dtd"><svg width="100%" height="100%" viewBox="0 0 360 150" version="1.1" xmlns="http://www.w3.org/2000/svg" xmlns:xlink="http://www.w3.org/1999/xlink" xml:space="preserve" xmlns:serif="http://www.serif.com/" style="fill-rule:evenodd;clip-rule:evenodd;stroke-linecap:round;stroke-linejoin:round;stroke-miterlimit:1.5;"><rect id="visual-studio-and-atom" x="0" y="0" width="360" height="150" style="fill:none;"/><path d="M64.608,19.559c-39.468,12.11 -54.025,43.103 -50.756,75.739c3.537,35.302 50.888,50.394 80.734,41.217c16.662,-5.123 32.032,-13.696 42.025,-28.276c31.003,-45.234 -32.536,-100.791 -72.003,-88.68Z" style="fill:#ecf4f8;"/><path d="M280.621,17.444c-33.413,0.484 -78.325,32.247 -66.659,73.935c2.582,9.227 8.578,16.504 14.946,23.411c5.409,5.866 11.626,11.493 18.718,15.261c11.25,5.977 24.719,7.682 37.268,7.836c41.835,0.511 77.142,-58.562 56.655,-95.025c-6.453,-11.484 -27.515,-25.902 -60.928,-25.418Z" style="fill:#ecf4f8;"/><path d="M101.939,68.259c0,1.144 1.327,2.53 2.04,3.295c2.853,3.064 8.363,4.782 12.306,2.841c4.836,-2.381 4.982,-7.782 5.766,-12.409" style="fill:none;stroke:#445;stroke-width:2px;"/><path d="M119.952,55.42c-0.832,3.989 1.025,5.892 2.754,5.892c3.205,0 3.941,-3.563 3.568,-5.806" style="fill:none;stroke:#445;stroke-width:2px;"/><path d="M64.18,90.229c0,0 2.441,4.936 2.388,9.974c-0.054,5.039 -3.82,11.129 -3.732,11.173c0.264,0.132 8.058,0.292 8.709,0.292c0.485,0 -0.43,-2.947 -2.497,-3.649c-2.417,-0.821 -5.007,0.709 -5.914,3.127" style="fill:none;stroke:#445;stroke-width:2px;"/><path d="M84.353,90.793c0,0 1.811,4.105 1.912,9.228c0.102,5.124 -2.447,8.83 -2.557,10.284c-0.027,0.356 7.687,-0.005 8.46,-0.064c0.494,-0.038 -0.403,-2.238 -1.904,-3.172c-1.848,-1.149 -5.434,-0.042 -6.369,2.547" style="fill:none;stroke:#445;stroke-width:2px;"/><g id="atom-logo"><path d="M79.725,38.612c-8.234,-1.448 -20.606,4.235 -27.166,11.717c-8.945,10.202 -8.186,27.026 2.953,35.685c6.371,4.952 15.476,5.926 23.226,5.06c3.055,-0.341 6.206,-0.852 8.998,-2.203c7.905,-3.823 12.241,-10.213 13.968,-18.764c0.658,-3.259 1.093,-6.7 0.305,-9.977c-2.376,-9.883 -12.389,-19.778 -22.284,-21.518Z" style="fill:#a9d3a3;stroke:#fff;stroke-width:2px;"/><g><path d="M79.655,55.847c5.183,5.301 7.643,11.02 5.507,12.956c-2.204,1.998 -8.446,-0.803 -13.962,-6.205c-5.528,-5.439 -8.207,-11.455 -5.964,-13.465c0.913,-0.84 2.612,-0.788 4.733,-0.055m-5.322,15.7c-2.179,-0.352 -3.622,-1.128 -3.9,-2.336c-0.697,-2.738 5.195,-6.535 13.103,-8.518c7.868,-1.971 14.829,-1.366 15.526,1.372c0.216,1.146 -0.698,2.553 -2.453,3.89m-11.664,10.425c-1.673,2.04 -3.376,3.119 -4.776,2.774c-2.821,-0.764 -3.171,-7.361 -0.769,-14.709c2.403,-7.348 6.612,-12.858 9.451,-12.181c1.41,0.382 2.15,1.976 2.346,4.34" style="fill:none;stroke:#fff;stroke-width:2px;stroke-linejoin:miter;stroke-miterlimit:4;"/><path d="M76.789,58.085c0.466,0.828 0.141,1.896 -0.753,2.367c-0.894,0.472 -1.972,0.192 -2.438,-0.637c-0.466,-0.829 -0.14,-1.896 0.754,-2.368c0.854,-0.459 1.971,-0.191 2.437,0.638" style="fill:#fff;fill-rule:nonzero;"/></g></g><g id="visual-studio-code-icon"><path d="M258.67,40.062c-2.957,0.146 -2.553,4.276 -2.723,6.841c-0.417,6.27 -0.896,12.704 -1.326,18.967c-0.288,4.204 -1.385,17.041 -1.692,23.732c-0.107,2.325 1.904,4.876 4.462,5.382c9.801,1.939 32.738,4.77 37.289,3.868c4.146,-0.822 4.138,-3.148 4.309,-6.44c0.049,-0.931 5.522,-43.939 2.399,-48.499c-2.256,-3.295 -30.744,-3.928 -34.835,-3.941c0,0 -4.927,-0.055 -7.883,0.09Z" style="fill:#445;"/><path d="M289.672,44.355l-3.19,30.928l-26.591,-6.796l26.067,11.878l9.389,-2.816l2.884,-27.962l0.003,-0.001l-0.002,-0.006l0.057,-0.551l-8.617,-4.674Zm-9.993,4.294l-9.115,7.324l-4.593,-4.264l-2.123,0.473l4.55,5.531l-5.583,4.486l1.981,0.897l5.367,-3.237l0,0l7.428,9.029l5.171,-1.594l1.653,-16.029l-4.736,-2.616Zm-0.602,5.834l-0.884,8.571l-5.249,-4.872l6.133,-3.699Z" style="fill:#82b7d1;"/></g><path d="M47.689,70.307c-0.039,4.929 0.645,22.182 0.117,28.662" style="fill:none;stroke:#445;stroke-width:2px;"/><path d="M45.223,104.398c-0.124,-1.272 -0.601,-4.781 2.709,-5.099c2.993,-0.287 2.767,3.31 2.318,5.336" style="fill:none;stroke:#445;stroke-width:2px;"/><path d="M71.814,83.479c1.756,2.536 5.134,2.758 6.512,-0.187" style="fill:none;stroke:#445;stroke-width:2px;"/><path d="M65.458,76.538c-1.978,-0.581 -3.866,1.144 -4.148,1.693c-1.292,2.509 1.484,5.334 4.075,4.708c3.909,-0.943 2.052,-5.819 0.073,-6.401Z" style="fill:#445;"/><path d="M86.161,75.799c-1.84,0.644 -2.259,1.925 -2.302,2.761c-0.04,0.785 0.2,1.534 0.653,2.167c0.35,0.491 0.803,0.869 1.363,1.099c0.482,0.198 1.023,0.234 1.533,0.157c1.957,-0.293 3.185,-2.233 2.647,-4.177c-0.43,-1.557 -2.054,-2.651 -3.894,-2.007Z" style="fill:#445;"/><path d="M266.365,95.403c-0.001,0.212 -4.517,3.515 -3.72,8.74c0.274,1.793 0.969,3.576 2.187,4.937c0.4,0.446 0.858,0.862 1.346,1.21c0.054,0.039 0.787,0.588 0.773,0.601c-0.346,0.344 -11.075,0.274 -11.257,0.001c-0.228,-0.342 8.203,-1.302 9.627,-0.827" style="fill:none;stroke:#445;stroke-width:2px;"/><path d="M288.268,97.396c0,0.093 -4.754,3.767 -4.35,7.603c0.404,3.835 3.377,7.158 2.914,7.156c-1.282,-0.005 -9.159,0.281 -10.76,-0.518c-0.27,-0.135 8.045,-1.231 9.409,-0.277" style="fill:none;stroke:#445;stroke-width:2px;"/><path d="M255.686,85.159c0,1.121 -0.998,2.423 -1.594,3.16c-2.493,3.083 -6.106,3.728 -9.468,2.322c-4.763,-1.991 -6.105,-8.197 -5,-13.306" style="fill:none;stroke:#445;stroke-width:2px;"/><path d="M296.316,82.231c4.653,7.007 6.358,15.884 4.44,23.272" style="fill:none;stroke:#445;stroke-width:2px;"/><path d="M297.534,110.699c-0.259,-7.533 6.763,-5.23 5.514,0.497" style="fill:none;stroke:#445;stroke-width:2px;"/><path d="M237.188,70.201c-0.983,2.013 -1.731,6.814 2.142,6.568c4.052,-0.257 4.19,-4.85 3.381,-7.53" style="fill:none;stroke:#445;stroke-width:2px;"/><path d="M265.033,87.942c2.069,-2.772 -1.04,-5.863 -4.019,-4.9c-0.967,0.312 -1.539,1.415 -1.775,2.339c-0.74,2.887 3.942,5.042 5.794,2.561Z" style="fill:#bad7e6;"/><path d="M286.751,84.744c-2.922,-0.532 -4.346,1.377 -4.583,2.485c-0.246,1.149 0.075,2.29 1.095,2.872c5.339,3.051 6.41,-4.825 3.488,-5.357Z" style="fill:#bad7e6;"/><path d="M269.942,90.523c0.097,4.609 5.934,4.326 7.03,0.452" style="fill:none;stroke:#bad7e6;stroke-width:2px;"/><g id="hello"><path d="M128.326,19.941c1.639,3.144 4.61,9.455 5.977,12.767" style="fill:none;stroke:#82b7d1;stroke-width:2px;"/><path d="M136.645,17.698c0.258,1.176 2.684,10.015 3.489,13.146" style="fill:none;stroke:#82b7d1;stroke-width:2px;"/><path d="M132.105,26.287c-0.717,-0.089 4.623,-1.271 5.993,-1.802" style="fill:none;stroke:#82b7d1;stroke-width:2px;"/><path d="M149.343,16.819c-2.703,-0.235 -4.61,0.936 -5.551,2.143c-3.848,4.936 0.889,12.515 7.124,9.217" style="fill:none;stroke:#82b7d1;stroke-width:2px;"/><path d="M142.627,24.156c0,-0.119 3.842,-1.195 5.153,-1.195" style="fill:none;stroke:#82b7d1;stroke-width:2px;"/><path d="M154.381,16.256c0,-0.024 -0.122,11.063 0.16,11.367c0.106,0.114 4.307,0.09 6.07,0.09" style="fill:none;stroke:#82b7d1;stroke-width:2px;"/><path d="M164.899,15.851c0,-0.173 -0.727,11.548 -0.629,11.647c0.125,0.124 3.844,-0.289 6.562,0.224" style="fill:none;stroke:#82b7d1;stroke-width:2px;"/><path d="M182.231,16.955c0,0 -4.522,-1.896 -6.909,1.686c-2.213,3.321 -0.933,7.587 2.565,8.742c2.507,0.828 5.798,-0.551 7.027,-3.143c1.236,-2.604 -0.066,-6.534 -2.683,-7.285Z" style="fill:none;stroke:#82b7d1;stroke-width:2px;"/></g><g id="there-" serif:id="there!"><path d="M144.563,41.011c2.261,-1.077 8.365,-3.514 10.842,-4.045" style="fill:none;stroke:#82b7d1;stroke-width:2px;"/><path d="M150.26,38.756c0,2.469 2.171,10.342 2.704,10.875" style="fill:none;stroke:#82b7d1;stroke-width:2px;"/><path d="M158.635,36.598c0.291,2.621 1.62,11.533 2.025,12.3" style="fill:none;stroke:#82b7d1;stroke-width:2px;"/><path d="M166.194,36.356c0,-0.145 0,0.359 0,0.397c0,0.352 -0.004,0.703 0.005,1.054c0.025,0.921 0.06,1.839 0.105,2.759c0.137,2.827 0.448,5.022 0.448,7.852" style="fill:none;stroke:#82b7d1;stroke-width:2px;"/><path d="M160.095,43.49c0.233,0.233 4.513,-0.519 5.912,-0.519" style="fill:none;stroke:#82b7d1;stroke-width:2px;"/><path d="M177.925,36.508c-4.586,0.209 -7.303,3.36 -7.587,5.633c-0.61,4.892 4.302,7.209 8.321,5.286" style="fill:none;stroke:#82b7d1;stroke-width:2px;"/><path d="M170.405,42.748c2.011,0 4.139,-0.337 6.146,-0.154" style="fill:none;stroke:#82b7d1;stroke-width:2px;"/><path d="M182.565,36.438c0.146,0 0.277,8.539 0.27,11.759" style="fill:none;stroke:#82b7d1;stroke-width:2px;"/><path d="M182.629,36.424c4.743,-0.275 7.007,1.547 7.068,3.281c0.13,3.631 -6.428,2.847 -6.452,3.042c-0.033,0.268 5.692,4.881 6.51,5.29" style="fill:none;stroke:#82b7d1;stroke-width:2px;"/><path d="M201.151,37.444c-3.219,-0.367 -7.24,0.863 -7.382,4.79c-0.185,5.095 3.558,7.243 7.233,5.462" style="fill:none;stroke:#82b7d1;stroke-width:2px;"/><path d="M194.42,42.756c0,0.23 3.404,0.203 5.084,0.624" style="fill:none;stroke:#82b7d1;stroke-width:2px;"/><path d="M209.28,37.785c-0.004,-0.02 -0.21,0.688 -0.25,0.828c-0.175,0.607 -0.333,1.216 -0.512,1.822c-0.523,1.775 -1.122,3.555 -1.497,5.339" style="fill:none;stroke:#82b7d1;stroke-width:2px;"/><path d="M206.382,48.913c0,0 -0.084,0.346 -0.104,0.413" style="fill:none;stroke:#82b7d1;stroke-width:2px;"/></g></svg>