<?xml version="1.0" encoding="UTF-8" standalone="no"?><!DOCTYPE svg PUBLIC "-//W3C//DTD SVG 1.1//EN" "http://www.w3.org/Graphics/SVG/1.1/DTD/svg11.dtd"><svg width="100%" height="100%" viewBox="0 0 430 180" version="1.1" xmlns="http://www.w3.org/2000/svg" xmlns:xlink="http://www.w3.org/1999/xlink" xml:space="preserve" xmlns:serif="http://www.serif.com/" style="fill-rule:evenodd;clip-rule:evenodd;stroke-linecap:round;stroke-linejoin:round;stroke-miterlimit:1.5;"><rect id="visual-studio-and-atom" x="0" y="0" width="430" height="180" style="fill:none;"/><path d="M77.318,20.295c-47.304,14.515 -64.751,51.661 -60.833,90.776c4.239,42.311 60.991,60.4 96.762,49.401c19.971,-6.141 38.392,-16.415 50.369,-33.89c37.158,-54.214 -38.995,-120.802 -86.298,-106.287Z" style="fill:#ecf4f8;"/><path d="M336.217,17.761c-40.046,0.58 -93.875,38.649 -79.893,88.614c3.095,11.058 10.282,19.78 17.914,28.059c6.482,7.031 13.934,13.774 22.434,18.29c13.483,7.164 29.627,9.208 44.667,9.392c50.141,0.613 92.457,-70.189 67.903,-113.891c-7.734,-13.764 -32.978,-31.045 -73.025,-30.464Z" style="fill:#ecf4f8;"/><path d="M122.061,78.664c0,1.372 1.59,3.032 2.444,3.949c3.42,3.673 10.024,5.732 14.749,3.406c5.797,-2.854 5.972,-9.327 6.911,-14.873" style="fill:none;stroke:#445;stroke-width:2px;"/><path d="M143.65,63.276c-0.998,4.781 1.228,7.062 3.3,7.062c3.841,0 4.724,-4.271 4.276,-6.958" style="fill:none;stroke:#445;stroke-width:2px;"/><path d="M76.804,104.996c0,0 2.926,5.916 2.862,11.955c-0.063,6.039 -4.578,13.338 -4.472,13.391c0.317,0.158 9.658,0.35 10.438,0.35c0.582,0 -0.515,-3.533 -2.993,-4.374c-2.897,-0.983 -6.001,0.85 -7.088,3.748" style="fill:none;stroke:#445;stroke-width:2px;"/><path d="M100.983,105.673c0,0 2.17,4.919 2.292,11.06c0.121,6.141 -2.934,10.582 -3.066,12.325c-0.032,0.427 9.214,-0.006 10.141,-0.077c0.591,-0.045 -0.484,-2.682 -2.283,-3.801c-2.215,-1.377 -6.512,-0.051 -7.634,3.052" style="fill:none;stroke:#445;stroke-width:2px;"/><g id="atom-logo"><path d="M95.436,43.131c-9.869,-1.735 -24.697,5.077 -32.559,14.044c-10.721,12.228 -9.812,32.391 3.539,42.769c7.635,5.935 18.549,7.102 27.837,6.065c3.662,-0.408 7.438,-1.021 10.784,-2.64c9.475,-4.583 14.671,-12.24 16.742,-22.49c0.789,-3.906 1.31,-8.03 0.365,-11.957c-2.847,-11.845 -14.849,-23.705 -26.708,-25.791Z" style="fill:#a9d3a3;stroke:#fff;stroke-width:2px;"/><g><path d="M95.352,63.788c6.212,6.353 9.16,13.208 6.601,15.529c-2.642,2.394 -10.123,-0.962 -16.735,-7.437c-6.625,-6.519 -9.836,-13.73 -7.147,-16.138c1.093,-1.008 3.13,-0.945 5.673,-0.067m-6.38,18.817c-2.611,-0.422 -4.341,-1.352 -4.674,-2.8c-0.835,-3.281 6.227,-7.832 15.704,-10.209c9.431,-2.362 17.774,-1.637 18.609,1.645c0.26,1.373 -0.836,3.059 -2.94,4.662m-13.98,12.495c-2.005,2.444 -4.046,3.738 -5.724,3.325c-3.381,-0.916 -3.801,-8.823 -0.921,-17.63c2.879,-8.807 7.924,-15.411 11.326,-14.599c1.691,0.458 2.578,2.369 2.812,5.202" style="fill:none;stroke:#fff;stroke-width:2px;stroke-linejoin:miter;stroke-miterlimit:4;"/><path d="M91.917,66.47c0.559,0.993 0.169,2.273 -0.903,2.838c-1.071,0.565 -2.363,0.229 -2.921,-0.764c-0.559,-0.993 -0.169,-2.272 0.903,-2.838c1.024,-0.551 2.363,-0.229 2.921,0.764" style="fill:#fff;fill-rule:nonzero;"/></g></g><g id="visual-studio-code-icon"><path d="M309.908,44.87c-3.543,0.174 -3.059,5.124 -3.264,8.198c-0.498,7.515 -1.073,15.227 -1.588,22.733c-0.346,5.039 -1.66,20.425 -2.028,28.444c-0.128,2.787 2.281,5.844 5.348,6.45c11.747,2.324 39.237,5.717 44.692,4.636c4.969,-0.985 4.959,-3.773 5.164,-7.718c0.059,-1.116 6.619,-52.663 2.876,-58.128c-2.704,-3.949 -36.849,-4.708 -41.752,-4.723c0,0 -5.905,-0.067 -9.448,0.108Z" style="fill:#445;"/><path d="M347.066,50.015l-3.823,37.068l-31.871,-8.146l31.242,14.237l11.253,-3.375l3.457,-33.514l0.004,-0.001l-0.003,-0.007l0.068,-0.66l-10.327,-5.602Zm-11.978,5.147l-10.924,8.777l-5.505,-5.111l-2.545,0.568l5.453,6.629l-6.691,5.376l2.375,1.075l6.432,-3.879l0,0l8.903,10.821l6.197,-1.91l1.982,-19.211l-5.677,-3.135Zm-0.722,6.992l-1.059,10.272l-6.291,-5.84l7.35,-4.432Z" style="fill:#82b7d1;"/></g><path d="M57.04,81.12c-0.047,5.907 0.773,26.585 0.139,34.351" style="fill:none;stroke:#445;stroke-width:2px;"/><path d="M54.084,121.979c-0.149,-1.525 -0.72,-5.731 3.246,-6.112c3.589,-0.344 3.318,3.967 2.779,6.396" style="fill:none;stroke:#445;stroke-width:2px;"/><path d="M85.954,96.906c2.105,3.04 6.154,3.305 7.805,-0.225" style="fill:none;stroke:#445;stroke-width:2px;"/><path d="M78.337,88.587c-2.372,-0.697 -4.634,1.372 -4.973,2.03c-1.548,3.007 1.779,6.392 4.885,5.642c4.685,-1.131 2.459,-6.975 0.088,-7.672Z" style="fill:#445;"/><path d="M103.15,87.702c-2.205,0.771 -2.707,2.307 -2.759,3.309c-0.049,0.94 0.24,1.838 0.782,2.597c0.42,0.588 0.963,1.042 1.635,1.317c0.577,0.237 1.225,0.28 1.837,0.188c2.345,-0.351 3.817,-2.676 3.172,-5.006c-0.516,-1.866 -2.461,-3.177 -4.667,-2.405Z" style="fill:#445;"/><path d="M319.131,111.198c-0.001,0.254 -5.414,4.213 -4.458,10.475c0.328,2.148 1.161,4.285 2.621,5.917c0.479,0.535 1.028,1.033 1.613,1.45c0.065,0.047 0.943,0.705 0.927,0.721c-0.416,0.412 -13.274,0.328 -13.493,0c-0.272,-0.409 9.832,-1.56 11.539,-0.991" style="fill:none;stroke:#445;stroke-width:2px;"/><path d="M345.383,113.586c0,0.112 -5.698,4.516 -5.214,9.112c0.484,4.597 4.047,8.58 3.492,8.578c-1.536,-0.006 -10.976,0.337 -12.896,-0.621c-0.324,-0.162 9.642,-1.476 11.277,-0.332" style="fill:none;stroke:#445;stroke-width:2px;"/><path d="M306.333,98.92c0,1.343 -1.197,2.904 -1.912,3.787c-2.988,3.696 -7.317,4.469 -11.348,2.783c-5.708,-2.387 -7.316,-9.824 -5.992,-15.948" style="fill:none;stroke:#445;stroke-width:2px;"/><path d="M355.028,95.411c5.577,8.398 7.621,19.036 5.323,27.892" style="fill:none;stroke:#445;stroke-width:2px;"/><path d="M356.489,129.53c-0.311,-9.028 8.105,-6.268 6.608,0.596" style="fill:none;stroke:#445;stroke-width:2px;"/><path d="M284.161,80.992c-1.177,2.413 -2.074,8.167 2.567,7.872c4.857,-0.308 5.023,-5.813 4.053,-9.025" style="fill:none;stroke:#445;stroke-width:2px;"/><path d="M317.535,102.256c2.48,-3.322 -1.247,-7.028 -4.817,-5.874c-1.159,0.375 -1.844,1.697 -2.128,2.803c-0.886,3.461 4.725,6.044 6.945,3.071Z" style="fill:#bad7e6;"/><path d="M343.564,98.422c-3.502,-0.637 -5.209,1.651 -5.493,2.979c-0.294,1.377 0.09,2.744 1.313,3.442c6.399,3.657 7.683,-5.783 4.18,-6.421Z" style="fill:#bad7e6;"/><path d="M323.418,105.349c0.117,5.523 7.113,5.184 8.426,0.542" style="fill:none;stroke:#bad7e6;stroke-width:2px;"/><g id="hello"><path d="M153.687,20.754c1.963,3.768 5.525,11.332 7.163,15.302" style="fill:none;stroke:#82b7d1;stroke-width:2px;"/><path d="M163.657,18.065c0.309,1.41 3.216,12.003 4.181,15.756" style="fill:none;stroke:#82b7d1;stroke-width:2px;"/><path d="M158.215,28.359c-0.858,-0.106 5.541,-1.523 7.184,-2.16" style="fill:none;stroke:#82b7d1;stroke-width:2px;"/><path d="M178.876,17.011c-3.24,-0.282 -5.525,1.123 -6.653,2.569c-4.612,5.916 1.065,15 8.538,11.047" style="fill:none;stroke:#82b7d1;stroke-width:2px;"/><path d="M170.826,25.805c0,-0.142 4.606,-1.432 6.177,-1.432" style="fill:none;stroke:#82b7d1;stroke-width:2px;"/><path d="M184.914,16.337c0,-0.028 -0.146,13.26 0.192,13.623c0.127,0.138 5.162,0.109 7.275,0.109" style="fill:none;stroke:#82b7d1;stroke-width:2px;"/><path d="M197.521,15.851c0,-0.206 -0.872,13.842 -0.754,13.959c0.149,0.149 4.607,-0.346 7.864,0.27" style="fill:none;stroke:#82b7d1;stroke-width:2px;"/><path d="M218.294,17.174c0,0 -5.421,-2.272 -8.282,2.022c-2.651,3.98 -1.118,9.092 3.075,10.477c3.004,0.992 6.948,-0.661 8.422,-3.767c1.481,-3.121 -0.079,-7.831 -3.215,-8.732Z" style="fill:none;stroke:#82b7d1;stroke-width:2px;"/></g><g id="there-" serif:id="there!"><path d="M173.147,46.007c2.709,-1.291 10.026,-4.212 12.995,-4.849" style="fill:none;stroke:#82b7d1;stroke-width:2px;"/><path d="M179.975,43.304c0,2.96 2.601,12.395 3.24,13.034" style="fill:none;stroke:#82b7d1;stroke-width:2px;"/><path d="M190.013,40.718c0.349,3.141 1.941,13.822 2.427,14.742" style="fill:none;stroke:#82b7d1;stroke-width:2px;"/><path d="M199.072,40.428c0,-0.175 0,0.43 0,0.476c0,0.421 -0.005,0.842 0.007,1.263c0.029,1.103 0.072,2.204 0.125,3.306c0.164,3.389 0.537,6.019 0.537,9.411" style="fill:none;stroke:#82b7d1;stroke-width:2px;"/><path d="M191.762,48.977c0.28,0.28 5.409,-0.621 7.086,-0.621" style="fill:none;stroke:#82b7d1;stroke-width:2px;"/><path d="M213.132,40.61c-5.496,0.25 -8.752,4.026 -9.092,6.751c-0.732,5.863 5.155,8.64 9.972,6.336" style="fill:none;stroke:#82b7d1;stroke-width:2px;"/><path d="M204.119,48.089c2.41,0 4.961,-0.404 7.367,-0.185" style="fill:none;stroke:#82b7d1;stroke-width:2px;"/><path d="M218.694,40.526c0.174,0 0.331,10.234 0.324,14.094" style="fill:none;stroke:#82b7d1;stroke-width:2px;"/><path d="M218.77,40.509c5.685,-0.33 8.398,1.854 8.472,3.932c0.155,4.352 -7.704,3.412 -7.733,3.646c-0.04,0.322 6.822,5.851 7.802,6.341" style="fill:none;stroke:#82b7d1;stroke-width:2px;"/><path d="M240.97,41.731c-3.859,-0.439 -8.678,1.034 -8.848,5.742c-0.222,6.106 4.264,8.681 8.669,6.545" style="fill:none;stroke:#82b7d1;stroke-width:2px;"/><path d="M232.903,48.098c0,0.275 4.079,0.244 6.093,0.747" style="fill:none;stroke:#82b7d1;stroke-width:2px;"/><path d="M250.712,42.14c-0.005,-0.023 -0.251,0.824 -0.299,0.993c-0.209,0.728 -0.399,1.457 -0.613,2.184c-0.628,2.127 -1.345,4.26 -1.795,6.398" style="fill:none;stroke:#82b7d1;stroke-width:2px;"/><path d="M247.24,55.477c0,0 -0.102,0.415 -0.126,0.496" style="fill:none;stroke:#82b7d1;stroke-width:2px;"/></g></svg>