<?xml version="1.0" encoding="UTF-8" standalone="no"?><!DOCTYPE svg PUBLIC "-//W3C//DTD SVG 1.1//EN" "http://www.w3.org/Graphics/SVG/1.1/DTD/svg11.dtd"><svg width="100%" height="100%" viewBox="0 0 460 160" version="1.1" xmlns="http://www.w3.org/2000/svg" xmlns:xlink="http://www.w3.org/1999/xlink" xml:space="preserve" xmlns:serif="http://www.serif.com/" style="fill-rule:evenodd;clip-rule:evenodd;stroke-linecap:round;stroke-linejoin:round;stroke-miterlimit:1.5;"><rect id="visual-studio-and-atom" x="0" y="0" width="459.956" height="160" style="fill:none;"/><g><path d="M43.932,118.968c-4.999,-1 -19.997,-30.338 -27.069,-48.112c-2.91,-7.313 -10.668,-25.961 -8.3,-34.092c2.369,-8.131 82.908,-26.653 93.661,-23.898c6.192,1.587 11.421,8.557 14.627,13.632c8.562,13.549 15.404,29.086 21.592,43.868c2.913,6.959 6.502,14.201 2.88,21.579c-5.564,11.334 -92.392,28.023 -97.391,27.023Z" style="fill:#bad7e6;"/><path d="M56.31,112.956c0,0 40.036,-11.203 60.138,-16.756c7.981,-2.205 16.149,-6.175 24.493,-6.913c11.749,-1.038 55.494,8.783 64.755,11.545c2.876,0.858 8.39,1.678 8.79,5.147c1.035,8.991 -88.163,40.951 -95.564,40.838c-11.953,-0.182 -59.621,-16.211 -70.371,-22.187c-9.143,-5.082 0.757,-8.921 7.759,-11.674Z" style="fill:#bad7e6;"/><path d="M47.754,116.897c2.333,-1.503 5.687,-2.813 8.556,-3.941c0,0 40.036,-11.203 60.138,-16.756c7.981,-2.205 16.149,-6.175 24.493,-6.913" style="fill:none;stroke:#82b7d1;stroke-width:1px;"/><path d="M15.412,51.163c-2.346,-7.53 6.18,-10.31 10.649,-12.491c8.024,-3.916 53.484,-16.22 66.9,-17.909c7.003,-0.882 12.228,-1.009 17.36,4.302c7.526,7.788 11.656,17.915 16.086,27.243c3.251,6.846 7.632,14.815 7.176,22.61c-0.616,10.512 -12.743,12.702 -20.621,15.335c-10.749,3.593 -59.901,20.314 -70.954,14.211c-5.33,-2.943 -10.334,-10.937 -12.934,-16.141c-5.965,-11.942 -11.317,-29.631 -13.662,-37.16Z" style="fill:#ecf4f8;"/><path d="M132.57,121.052c0,0 19.139,-6.72 25.666,-9.439c5.153,-2.147 7.773,-0.13 13.107,0.546c4.253,0.538 6.579,0.897 11.706,1.88c5.127,0.983 2.974,3.278 2.461,3.627c-2.133,1.453 -18.709,8.507 -30.306,11.314c-3.458,0.837 -5.156,0.056 -7.639,-0.505c-4.003,-0.906 -12.1,-2.808 -15.872,-4.362c-2.292,-0.945 -1.362,-2.515 0.877,-3.061Z" style="fill:#82b7d1;"/><path d="M61.242,115.776c0,0 38.535,-11.023 54.812,-16.311c9.362,-3.042 21.126,-7.84 31.131,-6.722c6.48,0.725 12.027,1.927 18.421,3.236c1.641,0.335 9.101,0.914 9.334,3.06c0.263,2.414 -3.162,3.038 -5.043,4.241c-4.196,2.681 -61.699,24.002 -69.303,25.957c-3.819,0.982 -7.424,1.914 -11.413,1.221c-7.616,-1.324 -25.033,-8.586 -27.032,-9.536c-2.645,-1.257 -2.865,-3.949 -0.907,-5.146Z" style="fill:#82b7d1;"/></g><g><path d="M414.464,118.968c4.999,-1 19.997,-30.338 27.069,-48.112c2.91,-7.313 10.668,-25.961 8.3,-34.092c-2.369,-8.131 -82.908,-26.653 -93.661,-23.898c-6.192,1.587 -11.421,8.557 -14.627,13.632c-8.562,13.549 -15.404,29.086 -21.592,43.868c-2.913,6.959 -6.502,14.201 -2.88,21.579c5.564,11.334 92.392,28.023 97.391,27.023Z" style="fill:#bad7e6;"/><path d="M402.086,112.956c0,0 -40.036,-11.203 -60.138,-16.756c-7.981,-2.205 -16.149,-6.175 -24.493,-6.913c-11.749,-1.038 -55.494,8.783 -64.755,11.545c-2.876,0.858 -8.39,1.678 -8.79,5.147c-1.035,8.991 88.163,40.951 95.564,40.838c11.953,-0.182 59.621,-16.211 70.371,-22.187c9.143,-5.082 -0.757,-8.921 -7.759,-11.674Z" style="fill:#bad7e6;"/><path d="M410.642,116.897c-2.333,-1.503 -5.687,-2.813 -8.556,-3.941c0,0 -40.036,-11.203 -60.138,-16.756c-7.981,-2.205 -16.149,-6.175 -24.493,-6.913" style="fill:none;stroke:#82b7d1;stroke-width:1px;"/><path d="M442.984,51.163c2.346,-7.53 -6.18,-10.31 -10.649,-12.491c-8.024,-3.916 -53.484,-16.22 -66.9,-17.909c-7.003,-0.882 -12.228,-1.009 -17.36,4.302c-7.526,7.788 -11.656,17.915 -16.086,27.243c-3.251,6.846 -7.632,14.815 -7.176,22.61c0.616,10.512 12.743,12.702 20.621,15.335c10.749,3.593 59.901,20.314 70.954,14.211c5.33,-2.943 10.334,-10.937 12.934,-16.141c5.965,-11.942 11.317,-29.631 13.662,-37.16Z" style="fill:#ecf4f8;"/><path d="M325.826,121.052c0,0 -19.139,-6.72 -25.666,-9.439c-5.153,-2.147 -7.773,-0.13 -13.107,0.546c-4.253,0.538 -6.579,0.897 -11.706,1.88c-5.127,0.983 -2.974,3.278 -2.461,3.627c2.133,1.453 18.709,8.507 30.306,11.314c3.458,0.837 5.156,0.056 7.639,-0.505c4.003,-0.906 12.1,-2.808 15.872,-4.362c2.292,-0.945 1.362,-2.515 -0.877,-3.061Z" style="fill:#82b7d1;"/><path d="M397.154,115.776c0,0 -38.535,-11.023 -54.812,-16.311c-9.362,-3.042 -21.126,-7.84 -31.131,-6.722c-6.48,0.725 -12.027,1.927 -18.421,3.236c-1.641,0.335 -9.101,0.914 -9.334,3.06c-0.263,2.414 3.162,3.038 5.043,4.241c4.196,2.681 61.699,24.002 69.303,25.957c3.819,0.982 7.424,1.914 11.413,1.221c7.616,-1.324 25.033,-8.586 27.032,-9.536c2.645,-1.257 2.865,-3.949 0.907,-5.146Z" style="fill:#82b7d1;"/></g><g id="atom-logo"><path d="M83.777,37.97c-7.557,-1.329 -18.91,3.887 -24.93,10.753c-8.209,9.363 -7.513,24.802 2.71,32.748c5.846,4.545 14.202,5.438 21.314,4.644c2.804,-0.313 5.696,-0.782 8.258,-2.021c7.254,-3.509 11.233,-9.373 12.818,-17.221c0.605,-2.991 1.003,-6.148 0.28,-9.155c-2.18,-9.07 -11.37,-18.151 -20.45,-19.748Z" style="fill:#a9d3a3;stroke:#fff;stroke-width:2px;"/><g><path d="M84.16,58.764c5.442,5.873 8.087,12.148 5.925,14.215c-2.23,2.132 -8.713,-1.04 -14.499,-7.03c-5.798,-6.03 -8.675,-12.633 -6.404,-14.777c0.922,-0.897 2.674,-0.807 4.872,0.033m-5.173,16.989c-2.25,-0.426 -3.752,-1.299 -4.062,-2.62c-0.771,-2.995 5.222,-7.013 13.326,-9.017c8.063,-1.991 15.244,-1.196 16.015,1.798c0.245,1.252 -0.669,2.766 -2.45,4.187m-11.806,11.122c-1.683,2.188 -3.416,3.33 -4.864,2.927c-2.92,-0.887 -3.41,-8.077 -1.08,-16.03c2.33,-7.953 6.556,-13.87 9.493,-13.077c1.46,0.444 2.253,2.194 2.5,4.771" style="fill:none;stroke:#fff;stroke-width:2px;stroke-linejoin:miter;stroke-miterlimit:4;"/><path d="M81.253,61.145c0.496,0.911 0.182,2.067 -0.729,2.563c-0.911,0.496 -2.027,0.169 -2.523,-0.742c-0.496,-0.911 -0.181,-2.067 0.73,-2.563c0.871,-0.484 2.026,-0.17 2.522,0.742" style="fill:#fff;fill-rule:nonzero;"/></g></g><g id="visual-studio-code-icon"><path d="M371.402,34.807c-2.651,-0.592 -3.301,3.161 -4.077,5.388c-1.897,5.446 -3.89,11.022 -5.797,16.458c-1.281,3.649 -5.381,14.739 -7.284,20.583c-0.662,2.032 0.495,4.778 2.635,5.85c8.199,4.105 27.801,12.202 32.047,12.514c3.869,0.284 4.429,-1.776 5.383,-4.647c0.27,-0.812 15.599,-37.527 13.948,-42.323c-1.193,-3.465 -26.243,-10.971 -29.859,-11.98c0,0 -4.345,-1.251 -6.996,-1.843Z" style="fill:#445;"/><path d="M402.461,50.431l-13.677,35.086l-28.862,-16.492l26.614,22.258l11.869,-0.267l12.366,-31.722l0.004,0l-0.001,-0.008l0.244,-0.625l-8.557,-8.23Zm-13.051,1.798l-12.999,5.618l-3.991,-6.457l-2.631,-0.13l3.532,7.922l-7.962,3.441l2.025,1.685l7.308,-2.052l0,0l5.768,12.932l6.551,-0.197l7.088,-18.183l-4.689,-4.579Zm-2.58,6.618l-3.79,9.723l-4.561,-7.378l8.351,-2.345Z" style="fill:#82b7d1;"/></g></svg>