<?xml version="1.0" encoding="UTF-8" standalone="no"?><!DOCTYPE svg PUBLIC "-//W3C//DTD SVG 1.1//EN" "http://www.w3.org/Graphics/SVG/1.1/DTD/svg11.dtd"><svg width="100%" height="100%" viewBox="0 0 500 180" version="1.1" xmlns="http://www.w3.org/2000/svg" xmlns:xlink="http://www.w3.org/1999/xlink" xml:space="preserve" xmlns:serif="http://www.serif.com/" style="fill-rule:evenodd;clip-rule:evenodd;stroke-linecap:round;stroke-linejoin:round;stroke-miterlimit:1.5;"><rect id="anchor" x="0" y="0" width="500" height="180" style="fill:none;"/><path d="M255.282,37.997c6.831,8.98 -6.64,11.996 -10.137,6.452c-4.198,-6.656 5.734,-9.934 5.734,-9.934" style="fill:none;stroke:#82b7d1;stroke-width:5px;"/><g id="browser-with-address"><path d="M465.879,48.716c-5.116,-1.119 -14.736,-1.89 -26.277,-2.651c-19.236,-1.269 -43.809,-2.512 -61.765,-5.298c-5.024,-0.779 -10.086,-1.286 -15.111,-2.06c-6.055,-0.931 -13.494,-2.396 -19.256,0.599c-3.997,2.078 -6.424,6.37 -8.317,10.286c-4.154,8.597 -17.077,47.2 -20.312,57.445c-1.382,4.376 -5.514,15.056 -3.918,19.637c1.844,5.29 8.249,5.642 13.46,6.484c4.208,0.68 61.818,10.95 86.746,13.967c7.644,0.925 15.238,1.722 22.877,2.778c17.198,2.377 31.003,7.253 34.287,-15.13c1.638,-11.163 11.248,-52.551 13.208,-60.519c1.006,-4.094 2.306,-8.712 1.332,-12.928c-1.406,-6.088 -3.312,-9.626 -16.954,-12.61Z" style="fill:#bad7e6;"/><g id="back-button"><path d="M348.329,43.809c1.982,-1.974 6.654,-1.957 8.999,1.525c2.399,3.562 1.165,6.073 -1.336,7.755c-3.109,2.09 -7.541,0.632 -9.019,-2.277c-1.477,-2.909 -0.627,-5.03 1.356,-7.003Z" style="fill:#ecf4f8;"/><path d="M349.464,48.179c2.283,0.113 4.443,0.412 6.661,0.983" style="fill:none;stroke:#82b7d1;stroke-width:2px;"/><path d="M351.41,45.763c0,0 -2.406,1.262 -2.415,2.307c-0.008,1.046 1.792,2.752 1.792,2.752" style="fill:none;stroke:#82b7d1;stroke-width:2px;"/></g><path d="M364.422,47.94c-0.43,2.998 -1.048,5.929 0.994,7.512c3.306,2.562 10.682,2.804 15.439,3.162c10.708,0.804 21.235,2.174 31.876,3.698c12.348,1.768 24.756,3.648 37.142,5.222c6.169,0.784 12.387,0.984 18.571,1.61c2.33,0.236 5.609,0.992 7.377,-1.012c0.615,-0.697 1.019,-1.667 1.374,-2.513c3.763,-8.979 -11.438,-8.26 -16.756,-8.808c-13.529,-1.394 -27.435,-2.735 -40.913,-4.556c-10.04,-1.356 -19.69,-3.19 -29.716,-4.435c-5.807,-0.721 -11.624,-1.31 -17.432,-1.973c-2.296,-0.262 -7.35,-2.138 -7.956,2.093Z" style="fill:#ecf4f8;"/><path d="M474.85,78.945c-0.679,5.046 -1.963,9.201 -3.532,15.727c-2.692,11.2 -4.258,22.053 -6.929,33.262c-1.355,5.689 -2.227,16.167 -8.452,18.529c-3.02,1.146 -6.423,0.04 -9.489,-0.289c-7.483,-0.803 -14.547,-1.965 -21.877,-3.789c-9.854,-2.453 -66.193,-9.517 -76.833,-11.5c-3.657,-0.681 -10.716,-1.847 -14.372,-2.562c-8.285,-1.621 -16.697,-1.368 -16.726,-7.637c-0.008,-1.529 2.161,-9.659 2.432,-11.154c0.826,-4.551 4.074,-14.245 5.782,-18.478c3.607,-8.939 5.614,-13.829 8.665,-22.976c1.491,-4.469 1.235,-9.442 5.842,-11.677c2.09,-1.014 6.231,-0.219 8.371,0.199c5.188,1.014 11.011,1.637 16.236,2.709c10.634,2.18 47.163,6.382 57.926,7.563c7.464,0.819 33.5,5.142 40.377,5.536c4.885,0.279 13.259,1.491 12.579,6.537Z" style="fill:#ecf4f8;"/><g id="clapou-address"><path d="M390.455,57.088c0,-0.879 0.096,-1.763 0.14,-2.642c0.044,-0.852 0.072,-1.706 0.151,-2.557c0.023,-0.241 0.022,-0.744 0.227,-0.938c0.27,-0.257 1.167,-0.411 2.599,0.305c1.432,0.715 1.683,2.742 -0.691,3.24c-0.443,0.092 -0.883,0.17 -1.341,0.15" style="fill:none;stroke:#445;stroke-width:2px;"/><path d="M400.322,52.663c0,0 -1.171,-0.414 -2.112,0.178c-0.703,0.442 -1.195,1.196 -1.326,2.016c-0.088,0.555 -0.03,1.132 0.163,1.66c0.144,0.395 0.372,0.759 0.657,1.067c2.51,2.706 6.591,-1.804 3.944,-4.226c-0.372,-0.34 -0.85,-0.546 -1.326,-0.695Z" style="fill:none;stroke:#445;stroke-width:2px;"/><path d="M406.882,53.626c0,-0.089 -0.124,0.121 -0.178,0.189c-0.126,0.159 -0.248,0.325 -0.354,0.501c-0.288,0.478 -0.525,1.002 -0.705,1.536c-0.535,1.582 -0.019,3.354 1.547,3.934c2.898,1.074 5.185,-3.339 3.4,-5.713" style="fill:none;stroke:#445;stroke-width:2px;"/><path d="M412.718,60.045c0.236,0.171 0.637,0.272 0.841,0.291" style="fill:none;stroke:#445;stroke-width:2px;"/><path d="M421.007,55.376c-0.412,-0.185 -0.866,-0.296 -1.315,-0.318c-1.257,-0.062 -2.496,0.716 -2.875,1.966c-0.862,2.838 2.169,4.912 4.578,3.974" style="fill:none;stroke:#445;stroke-width:2px;"/><path d="M426.523,61.992c1.685,0.449 4.819,-1.478 2.594,-4.639c-1.332,-1.893 -4.222,-0.647 -4.76,0.927c-0.538,1.574 0.487,3.264 2.166,3.712Z" style="fill:none;stroke:#445;stroke-width:2px;"/><path d="M433.882,63.019c-0.96,-0.96 -1.514,-4.167 -0.002,-5.103c0.789,-0.488 1.985,-0.289 2.684,1.719c0.465,-1.964 1.989,-2.04 2.813,-1.466c1.303,0.908 1.369,3.687 -1.008,5.406" style="fill:none;stroke:#445;stroke-width:2px;"/><path d="M383.841,54.287c0.242,-0.06 2.214,0.086 2.901,0.081" style="fill:none;stroke:#445;stroke-width:2px;"/><path d="M373.66,48.465c-0.628,-0.178 -1.527,-0.174 -1.831,-0.179c-2.745,-0.042 -5.807,3.572 -2.774,5.804c0.41,0.301 0.877,0.517 1.358,0.643c0.724,0.19 1.471,0.071 2.172,-0.159" style="fill:none;stroke:#445;stroke-width:2px;"/><path d="M377.305,48.741c0,0.727 -1.2,3.753 -1.374,4.288c-0.104,0.321 -0.203,0.649 -0.264,0.981c-0.431,2.353 3.07,1.489 4.206,1.868" style="fill:none;stroke:#445;stroke-width:2px;"/><path d="M382.778,56.559c0.306,-1.396 0.703,-6.428 3.019,-6.65c3.156,-0.303 1.306,7.122 1.306,6.939" style="fill:none;stroke:#445;stroke-width:2px;"/></g><path d="M369.454,100.924c-5.239,0.264 -5.727,2.378 -6.117,3.122c-2.192,4.188 2.58,9.201 6.897,8.001c7.332,-2.037 4.46,-11.387 -0.78,-11.123Z" style="fill:#445;"/><path d="M407.414,105.013c-3.38,-0.484 -4.996,0.603 -5.131,0.666c-1.715,0.794 -3.254,2.051 -3.588,4.027c-0.802,4.748 5.275,7.448 9.059,6.018c2.276,-0.859 3.348,-3.34 3.792,-5.563c0.26,-1.304 -0.751,-4.664 -4.132,-5.148Z" style="fill:#445;"/><path d="M380.205,109.818c-0.514,3.559 0.423,7.86 3.685,8.421c3.262,0.561 6.986,-2.56 6.822,-7.463" style="fill:none;stroke:#445;stroke-width:2px;"/></g><path d="M259.005,51.478c-0.572,0.058 -1.153,0.075 -1.736,0.052c-10.464,-0.41 -10.096,-11.613 -3.941,-17.243c1.295,-1.185 3.666,-3.312 7.957,-3.495c5.281,-0.225 8.703,8.824 6.193,14.759c-0.138,0.326 -0.29,0.638 -0.457,0.938c1.052,1.644 1.973,3.421 2.688,4.887c4.128,-2.086 8.284,-4.102 12.479,-5.974c3.581,-1.596 13.443,-5.858 11.477,2.212c-1.006,4.132 -4.697,7.356 -7.745,10.043c-2.901,2.557 -6.129,5.017 -9.544,7.285c2.783,5.271 6.083,10.437 8.867,14.269c10.082,13.875 18.415,-8.012 20.555,-14.441c1.957,-5.882 8.316,0.1 6.204,14.466c-0.291,1.976 -0.732,3.958 -1.347,5.852c-2.4,7.39 -7.117,15.004 -13.745,19.242c-10.453,6.684 -26.964,5.757 -37.285,-0.694c-4.109,-2.568 -12.108,-7.431 -13.244,-12.653c-1.225,-5.629 1.707,-7.162 6.294,-4.296c5.927,3.705 17.484,9.726 22.464,1.012c2.067,-3.619 -0.473,-7.874 -2.168,-11.263c-1.208,-2.414 -2.497,-4.788 -3.813,-7.147c-3.981,2.163 -8.076,4.012 -12.099,5.42c-5.077,1.777 -16.231,4.576 -18.804,-2.652c-1.388,-3.901 9.27,-9.15 11.85,-10.486c3.747,-1.941 7.5,-3.927 11.269,-5.898c-0.838,-1.35 -1.732,-2.847 -2.369,-4.195Zm0.792,-13.75c-4.221,-0.058 -5.584,3.088 -5.879,3.633c-1.275,2.361 -0.023,5.667 2.697,6.211c6.849,1.37 8.462,-9.771 3.182,-9.844Z" style="fill:#ff0078;"/><path d="M274.979,95.798c-1.755,0.906 -1.808,2.031 -1.758,3.477c0.094,2.706 3.192,4.163 5.154,2.274c2.727,-2.625 -1.151,-6.911 -3.396,-5.751Z" style="fill:#445;"/><path d="M295.081,88.201c-2.147,0.522 -2.462,2.656 -2.433,3.58c0.059,1.816 1.703,3.818 3.656,3.528c4.145,-0.614 3.563,-8.271 -1.223,-7.108Z" style="fill:#445;"/><path d="M283.868,97.245c0.67,2.032 2.356,3.484 3.888,2.772c1.532,-0.712 1.396,-2.994 1.145,-4.701" style="fill:none;stroke:#445;stroke-width:2px;"/><path d="M257.023,41.08c-6.284,-16.739 -27.385,-17.783 -40.975,-8.372c-11.095,7.682 -26.151,28.772 -12.896,41.165c4.309,4.029 11.553,7.134 17.544,6.27c8.426,-1.215 16.478,-11.083 14.398,-19.654c-3.611,-14.878 -23.748,-21.038 -36.284,-14.469c-7.328,3.84 -11.844,11.809 -13.642,19.656c-5.541,24.184 3.955,46.654 33.177,53.263c14.839,3.355 26.84,2.779 24.09,9.195c-6.339,14.787 -99.628,14.434 -99.023,2.326" style="fill:none;stroke:#82b7d1;stroke-width:5px;"/><g id="browser"><path d="M26.617,48.228c13.642,-2.984 59.312,-3.492 88.042,-7.949c5.024,-0.779 10.086,-1.287 15.111,-2.06c6.056,-0.931 13.494,-2.396 19.256,0.599c3.997,2.078 6.424,6.37 8.317,10.286c4.154,8.597 17.077,47.2 20.312,57.445c1.383,4.376 5.514,15.056 3.918,19.637c-1.843,5.29 -8.249,5.642 -13.459,6.484c-4.209,0.68 -61.819,10.95 -86.747,13.967c-7.644,0.925 -15.238,1.722 -22.877,2.778c-17.198,2.377 -31.003,7.253 -34.287,-15.13c-1.638,-11.163 -11.248,-52.551 -13.208,-60.519c-1.006,-4.094 -2.305,-8.712 -1.332,-12.928c1.406,-6.088 3.312,-9.626 16.954,-12.61Z" style="fill:#bad7e6;"/><path d="M17.051,59.9c0.868,-2.659 5.037,-4.768 8.708,-2.734c3.757,2.081 3.8,4.879 2.337,7.514c-1.819,3.276 -6.429,3.992 -9.068,2.073c-2.638,-1.918 -2.845,-4.194 -1.977,-6.853Z" style="fill:#ecf4f8;"/><path d="M20.049,63.276c2.084,-0.937 4.145,-1.653 6.38,-2.153" style="fill:none;stroke:#82b7d1;stroke-width:2px;"/><path d="M20.683,60.24c0,0 -1.569,2.218 -1.101,3.152c0.468,0.935 2.847,1.636 2.847,1.636" style="fill:none;stroke:#82b7d1;stroke-width:2px;"/><path d="M32.977,57.784c0.314,3.012 0.43,6.006 2.796,7.043c3.831,1.678 11.044,0.115 15.744,-0.698c10.581,-1.831 21.124,-3.07 31.816,-4.187c12.406,-1.296 24.898,-2.498 37.294,-3.992c6.173,-0.743 12.253,-2.066 18.403,-2.966c2.317,-0.339 5.681,-0.406 6.907,-2.78c0.427,-0.827 0.582,-1.865 0.72,-2.773c1.46,-9.625 -13.107,-5.221 -18.397,-4.456c-13.461,1.947 -27.274,4.037 -40.789,5.558c-10.068,1.132 -19.874,1.707 -29.901,2.944c-5.807,0.717 -11.592,1.564 -17.387,2.337c-2.291,0.306 -7.649,-0.281 -7.206,3.97Z" style="fill:#ecf4f8;"/><path d="M17.646,78.457c0.68,5.046 1.963,9.201 3.532,15.727c2.692,11.2 4.258,22.052 6.929,33.262c1.355,5.689 2.227,16.167 8.452,18.529c3.02,1.146 6.424,0.04 9.49,-0.289c7.482,-0.803 14.546,-1.965 21.876,-3.789c9.855,-2.453 66.193,-9.517 76.834,-11.5c3.656,-0.681 10.716,-1.847 14.372,-2.562c8.285,-1.621 16.696,-1.368 16.726,-7.637c0.007,-1.529 -2.162,-9.659 -2.433,-11.154c-0.826,-4.551 -1.673,-7.846 -3.381,-12.079c-3.607,-8.939 -5.416,-16.827 -8.467,-25.974c-1.491,-4.47 -3.834,-12.843 -8.44,-15.078c-2.091,-1.014 -6.232,-0.219 -8.372,0.199c-5.188,1.014 -11.609,0.837 -16.834,1.908c-10.634,2.18 -19.765,3.583 -30.528,4.764c-7.464,0.819 -60.3,8.742 -67.177,9.135c-4.884,0.28 -13.259,1.492 -12.579,6.538Z" style="fill:#ecf4f8;"/><path d="M73.627,119.388c1.11,-2.384 6.629,-4.127 8.517,-1.319c1.887,2.808 2.076,5.184 0.376,6.912c-1.699,1.728 -5.286,2.808 -7.363,1.296c-2.076,-1.512 -2.639,-4.506 -1.53,-6.889Z" style="fill:#445;"/><path d="M124.313,111.008c2.234,-2.272 6.449,-2.097 7.691,0c1.242,2.096 1.746,4.465 -0.039,6.563c-1.917,2.253 -5.631,2.098 -7.379,0.35c-1.748,-1.748 -2.488,-4.661 -0.273,-6.913Z" style="fill:#445;"/><path d="M98.747,123.718c1.62,2.357 6.628,4.168 7.325,4.269c1.515,0.22 4.547,-5.19 4.654,-6.425" style="fill:none;stroke:#445;stroke-width:2px;"/><g id="address"><path d="M38.723,57.061c0,2.193 0.094,4.388 0.317,6.57" style="fill:none;stroke:#445;stroke-width:2px;"/><path d="M38.477,56.979c0.846,-0.116 2.176,-0.507 2.989,-0.058c1.742,0.961 -0.48,2.694 -1.557,2.912" style="fill:none;stroke:#445;stroke-width:2px;"/><path d="M47.6,55.961c0,0 -1.83,-0.021 -2.785,1.446c-1.03,1.585 -0.88,4.815 1.538,4.95c1.78,0.099 3.47,-1.614 3.762,-3.283c0.272,-1.554 -0.942,-3.012 -2.515,-3.113Z" style="fill:none;stroke:#445;stroke-width:2px;"/><path d="M53.298,55.669c-0.202,0.423 -0.247,0.821 -0.323,1.172c-0.213,0.996 -0.337,2.146 0.02,3.122c0.602,1.641 2.959,1.656 3.868,0.282c1.05,-1.587 0.481,-3.487 -0.404,-4.966" style="fill:none;stroke:#445;stroke-width:2px;"/><path d="M60.135,54.507c0,-0.063 -0.002,0.124 0,0.186c0.003,0.141 0.009,0.283 0.016,0.424c0.02,0.378 0.049,0.755 0.074,1.132c0.076,1.157 0.168,2.311 0.316,3.461c0.039,0.297 0.071,0.596 0.116,0.892" style="fill:none;stroke:#445;stroke-width:2px;"/><path d="M66.57,53.909c-0.722,-0.327 -2.782,-0.268 -3.323,2.23c-0.09,0.418 -0.17,0.843 -0.144,1.273c0.192,3.058 3.229,2.775 4.879,1.276" style="fill:none;stroke:#445;stroke-width:2px;"/><path d="M70.456,58.356l0.601,-0.181" style="fill:none;stroke:#445;stroke-width:2px;"/><path d="M76.761,52.458c-1.898,-0.139 -2.623,1.108 -2.926,1.8c-0.748,1.701 0.165,3.871 2.198,3.895c0.885,0.011 1.685,-0.439 2.325,-1.011" style="fill:none;stroke:#445;stroke-width:2px;"/><path d="M82.633,51.78c0,0 -2.201,0.33 -2.225,2.808c-0.015,1.503 1.286,2.656 2.794,2.427c1.567,-0.238 2.505,-1.924 2.214,-3.421c-0.231,-1.188 -1.58,-2.146 -2.783,-1.814Z" style="fill:none;stroke:#445;stroke-width:2px;"/><path d="M89.112,56.138c-0.68,-1.088 -1.55,-3.917 -0.499,-5.045c0.752,-0.806 2.495,-0.54 2.921,1.144c-0.009,-2.376 5.477,-3.48 2.935,3.464" style="fill:none;stroke:#445;stroke-width:2px;"/></g></g></svg>