<?xml version="1.0" encoding="UTF-8" standalone="no"?><!DOCTYPE svg PUBLIC "-//W3C//DTD SVG 1.1//EN" "http://www.w3.org/Graphics/SVG/1.1/DTD/svg11.dtd"><svg width="100%" height="100%" viewBox="0 0 350 250" version="1.1" xmlns="http://www.w3.org/2000/svg" xmlns:xlink="http://www.w3.org/1999/xlink" xml:space="preserve" xmlns:serif="http://www.serif.com/" style="fill-rule:evenodd;clip-rule:evenodd;stroke-linecap:round;stroke-linejoin:round;stroke-miterlimit:1.5;"><rect id="author-home" x="0" y="0" width="350" height="250" style="fill:none;"/><path d="M290.452,146.562c-0.741,-4.196 -4.348,-14.363 -4.395,-15.444c-0.091,-2.098 0.819,-3.355 3.528,-3.794c-0.11,-1.41 2.245,-2.177 3.537,-2.397c0.711,-0.121 1.422,-0.193 2.142,-0.236c1.18,-0.071 2.356,-0.199 3.537,-0.255c4.821,-0.227 9.605,0.096 14.421,0.264c3.684,0.129 7.786,0.043 11.26,1.49c4.816,2.007 11.446,33.772 12.242,36.953c0.642,2.567 2.234,5.528 0.311,7.857c-0.765,0.925 -1.93,2.256 -3.018,2.801c-1.778,0.889 -3.774,0.438 -5.613,0.065c-3.73,-0.756 -32.065,-6.911 -33.463,-8.62c-1.549,-1.894 -1.954,-4.847 -2.405,-7.149c-0.751,-3.833 -1.405,-7.688 -2.084,-11.535Z" style="fill:#ff0078;"/><clipPath id="_clip1"><path d="M290.452,146.562c-0.741,-4.196 -4.348,-14.363 -4.395,-15.444c-0.091,-2.098 0.819,-3.355 3.528,-3.794c-0.11,-1.41 2.245,-2.177 3.537,-2.397c0.711,-0.121 1.422,-0.193 2.142,-0.236c1.18,-0.071 2.356,-0.199 3.537,-0.255c4.821,-0.227 9.605,0.096 14.421,0.264c3.684,0.129 7.786,0.043 11.26,1.49c4.816,2.007 11.446,33.772 12.242,36.953c0.642,2.567 2.234,5.528 0.311,7.857c-0.765,0.925 -1.93,2.256 -3.018,2.801c-1.778,0.889 -3.774,0.438 -5.613,0.065c-3.73,-0.756 -32.065,-6.911 -33.463,-8.62c-1.549,-1.894 -1.954,-4.847 -2.405,-7.149c-0.751,-3.833 -1.405,-7.688 -2.084,-11.535Z"/></clipPath><g clip-path="url(#_clip1)"><path d="M292.043,127.494c0.65,-0.02 3.037,0.307 4.718,0.443c5.926,0.48 11.901,1.006 17.847,1.137c1.467,0.032 3.132,0.248 4.28,-0.844c0.291,-0.276 0.742,-0.808 0.723,-1.245c-0.023,-0.535 -1.341,-0.361 -1.636,-0.35c-1.965,0.073 -3.908,0.026 -5.872,-0.077c-3.679,-0.194 -7.36,-0.249 -11.042,-0.028c-1.761,0.106 -7.134,-0.099 -7.789,0.015c-0.645,0.112 -1.292,0.951 -1.229,0.949Z" style="fill:#ecf4f8;"/></g><path d="M253.511,151.558c0,0 -8.919,4.108 -9.332,4.248c-4.447,1.51 -3.239,18.499 -2.13,19.608c0.809,0.809 2.11,1.243 3.149,1.638c3.535,1.342 35.923,7.557 40.488,7.613c3.013,0.037 16.671,-3.335 22.206,-8.629c2.813,-2.691 -0.677,-4.065 -0.966,-4.293c-0.483,-0.381 -1.72,-7.646 -1.783,-8.778c-0.08,-1.438 1.255,-1.271 2.034,-2.245c0.733,-0.916 0.09,-2.355 -0.371,-3.25c-0.235,-0.456 -34.889,-10.074 -43.424,-8.349c-3.697,0.747 -6.551,0.491 -9.871,2.437Z" style="fill:#82b7d1;"/><clipPath id="_clip2"><path d="M253.511,151.558c0,0 -8.919,4.108 -9.332,4.248c-4.447,1.51 -3.239,18.499 -2.13,19.608c0.809,0.809 2.11,1.243 3.149,1.638c3.535,1.342 35.923,7.557 40.488,7.613c3.013,0.037 16.671,-3.335 22.206,-8.629c2.813,-2.691 -0.677,-4.065 -0.966,-4.293c-0.483,-0.381 -1.72,-7.646 -1.783,-8.778c-0.08,-1.438 1.255,-1.271 2.034,-2.245c0.733,-0.916 0.09,-2.355 -0.371,-3.25c-0.235,-0.456 -34.889,-10.074 -43.424,-8.349c-3.697,0.747 -6.551,0.491 -9.871,2.437Z"/></clipPath><g clip-path="url(#_clip2)"><path d="M305.566,161.837c-1.282,1.281 -17.189,5.71 -19.171,7.252c-1.782,1.386 -1.086,3.225 -1.001,5.391c0.058,1.467 0.09,2.723 0.284,3.818c0.137,0.775 0.9,2.387 3.245,1.008c1.289,-0.758 18.266,-7.266 18.636,-7.462c1.022,-0.543 -1.993,-10.007 -1.993,-10.007Z" style="fill:#bad7e6;"/></g><path d="M205.472,115.754c-3.491,-0.211 -5.215,-2.194 -4.358,-6.767" style="fill:none;stroke:#ffe5f2;stroke-width:3px;"/><path d="M178.63,128.076c4.313,1.619 9.668,0.653 13.661,-1.044c7.857,-3.341 13.406,-9.134 13.406,-15.932" style="fill:none;stroke:#ffe5f2;stroke-width:3px;"/><path d="M184.772,132.385c9.775,0 19.398,0.507 29.304,0.049c4.322,-0.2 8.452,1.113 10.953,4.396c3.913,5.137 3.64,16.445 4.141,22.567c0.386,4.723 2.231,15.425 -3.905,19.092c-5.988,3.58 -18.187,5.107 -24.46,5.932c-14.895,1.96 -64.506,5.22 -65.641,4.937c-1.444,-0.36 6.383,-11.916 6.134,-13.107c-2.142,-10.254 -0.914,-26.221 5.43,-35.147c9.11,-12.818 38.044,-8.719 38.044,-8.719Z" style="fill:#82b7d1;"/><path d="M89.234,96.427c-6.987,-0.499 -19.563,0.208 -25.546,6.191c-6.335,6.334 -4.328,26.255 -4.931,34.397c-0.733,9.895 -1.43,28.418 2.775,38.025c1.966,4.492 45.114,14.716 56.676,13.529c5.206,-0.534 -6.269,-8.737 -1.538,-10.744c13.551,-5.748 47.375,-69.882 41.381,-75.651c-4.656,-4.479 -65.243,-5.492 -68.817,-5.747" style="fill:#82b7d1;"/><path d="M163.101,84.572c0,0 -51.857,22.586 -57.232,22.587c-5.374,0.001 -7.526,-4.122 -7.526,-4.122c0,0 -1.614,1.972 -7.169,2.15c-5.556,0.179 -6.324,-6.999 -6.324,-6.999c0,-3.563 -2.529,-17.573 -0.074,-28.583c2.454,-11.011 5.305,-13.819 9.474,-18.531c9.653,-10.908 36.347,-12.52 49.541,-10.271c9.833,1.676 12.118,6.347 18.465,14.565c3.611,4.675 8.974,11.671 7.124,17.192c-0.736,2.195 -1.435,11.168 -6.279,12.012Z" style="fill:#bad7e6;"/><path d="M105.918,92.727c-1.985,-3.978 0.358,-11.821 1.43,-15.666c4.455,-15.977 17.035,-29.209 34.782,-26.674c5.794,0.828 11.693,4.499 15.324,9.088c6.278,7.933 2.761,18.014 7.318,25.298c3.919,6.266 14.599,9.928 19.749,15.621c3.284,3.632 5.617,8.385 4.418,13.41c-2.242,9.397 -19.321,8.536 -26.189,8.348c-14.032,-0.385 -28.047,-3.37 -41.751,-6.239c-3.779,-0.791 -11.767,-1.725 -13.997,-5.548c-2.62,-4.492 -0.565,-12.111 0.296,-16.848" style="fill:#ffe5f2;"/><path d="M172.017,133.009c0.616,0 0.013,3.251 0.025,3.758c0.061,2.473 0.815,4.904 2.654,6.631c3.677,3.454 16.54,3.119 18.356,4.483c5.014,3.767 -1.606,16.421 -6.29,19.258c-5.501,3.333 -12.415,3.078 -18.571,2.505c-6.976,-0.649 -14.164,-1.395 -20.729,-4.003c-5.656,-2.247 -10.641,-5.871 -16.259,-8.179c-6.198,-2.546 -14.244,-2.476 -18.1,-8.743c-5.168,-8.398 -2.127,-19.991 1.353,-28.441l57.561,12.731Z" style="fill:#bad7e6;"/><path d="M110.589,78.731c0,-1.491 -5.836,-3.26 -6.734,-3.491c-6.365,-1.637 -12.696,1.114 -14.194,7.861c-2.721,12.263 18.87,29.82 25.89,15.77" style="fill:#ffe5f2;"/><path d="M114.311,115.59c0.005,-0.598 4.876,-0.701 5.36,-0.735c6.028,-0.418 12.091,-0.686 18.128,-0.958c3.441,-0.155 6.896,-0.073 10.34,-0.073c2.874,0 5.75,0.014 8.621,0.172c9.981,0.548 32.086,-0.035 29.591,15.743c-1.084,6.86 -9.537,9.074 -15.281,10.142c-15.932,2.964 -31.077,-1.203 -44.946,-9.161c-4.28,-2.456 -8.499,-5.906 -11.296,-10.02c-0.439,-0.646 -2.481,-3.191 -1.645,-4.027" style="fill:#ff0078;"/><path d="M109.648,66.592c-0.01,2.541 -1.904,5.482 -2.409,8.007c-0.237,1.188 -0.239,2.476 -0.196,3.684c0.411,11.481 12.629,-0.301 16.923,-1.744c0.525,-0.176 -0.606,0.929 -0.934,1.375c-0.58,0.786 -1.097,1.69 -1.499,2.579c-1.101,2.439 -1.473,5.99 2.139,6.239c6.738,0.465 14.922,-6.415 19.798,-10.315c1.592,-1.275 3.12,-2.643 4.616,-4.028c0.787,-0.729 2.16,-2.383 2.16,-2.383c0,0 -1.279,2.907 -1.744,4.421c-0.715,2.325 0.417,3.808 2.63,4.519c13.195,4.242 24.59,-6.166 20.685,-16.364c-5.203,-13.587 -11.38,-18.037 -23.829,-20.904c-14.663,-3.376 -34.925,-0.675 -40.332,14.057c-1.207,3.289 -0.81,6.623 -0.81,10.022" style="fill:#bad7e6;"/><path d="M100.948,135.16c5.713,0.609 11.41,1.331 17.12,1.965c6.72,0.747 17.755,-0.309 23.453,3.881c8.913,6.554 7.436,24.7 6.311,34.263c-0.339,2.878 3.071,13.339 -0.955,13.509c-5.153,0.216 -16.33,0.912 -20.962,0.785c-13.936,-0.382 -23.322,-2.059 -35.067,-9.629c-4.011,-2.584 -9.065,-5.022 -10.143,-10.118c-2.736,-12.941 19.996,-34.682 20.243,-34.656Z" style="fill:#82b7d1;"/><path d="M179.644,109.358c-0.146,-2.011 10.404,-0.738 15.55,-1.128c1.514,-0.115 6.697,0.423 7.507,-1.902c1.021,-2.931 -0.132,-8.254 1.771,-10.349c1.751,-1.927 12.847,-3.011 14.999,-0.277c1.944,2.47 1.237,11.018 0.783,14.225c-0.51,3.608 -2.788,3.966 -5.17,3.888c-5.255,-0.174 -19.567,-0.737 -24.856,-1.576c-2.804,-0.445 -10.438,-0.869 -10.584,-2.881Z" style="fill:#82b7d1;"/><path d="M126.904,96.916c4.311,1.393 13.229,0.339 15.768,-2.21" style="fill:none;stroke:#445;stroke-width:2px;"/><path d="M153.969,93.648c2.39,1.677 12.601,3.723 16.114,1.967" style="fill:none;stroke:#445;stroke-width:2px;"/><path d="M206.774,98.174c-0.005,0.112 0.515,0.238 0.552,0.249c0.705,0.196 1.431,0.279 2.154,0.339c2.513,0.207 5.405,0.065 7.66,-1.447" style="fill:none;stroke:#bad7e6;stroke-width:2px;"/><path d="M186.798,163.132c1.537,0 3.318,0.516 4.713,0.909c6.895,1.939 10.118,11.253 6.93,20.352" style="fill:none;stroke:#445;stroke-width:2px;"/><path d="M156.292,165.427c0.864,0 1.736,0.351 2.476,0.635c2.245,0.862 4.215,2.07 5.656,3.586c4.681,4.927 5.17,12.108 2.021,17.353" style="fill:none;stroke:#445;stroke-width:2px;"/><path d="M205.144,115.52c7.4,1.083 7.674,-4.527 7.186,-8.793" style="fill:none;stroke:#ffe5f2;stroke-width:3px;"/><path d="M111.524,116.129c0,0 -12.215,5.191 -16.348,7.096c-4.779,2.203 -10.297,4.727 -13.924,8.695c-5.227,5.717 -6.976,14.458 -9.151,21.648c-1.428,4.719 -5.162,12.083 -0.396,15.681c1.802,1.36 3.94,2.25 6.087,2.903c1.436,0.437 2.895,0.614 4.391,0.663c1.92,0.063 4.329,0.112 6.159,-0.604c3.979,-1.557 4.713,-8.235 5.659,-11.686c2.127,-7.765 3.823,-18.063 10.374,-23.741c3.983,-3.452 10.888,-4.826 15.637,-6.985c2.183,-0.993 4.922,-2.075 5.614,-4.613c2.653,-9.731 -8.466,-11.507 -14.102,-9.057Z" style="fill:#ff0078;"/><path d="M161.903,187.402c0.224,0.882 3.606,1.444 5.137,1.648c4.569,0.608 5.948,1.118 10.286,0.855c1.902,-0.115 5.576,0.178 5.515,-2.567c-0.032,-1.421 -1.338,-2.26 -2.593,-2.539c-2.314,-0.515 -4.922,-0.244 -7.072,0.748c-0.782,0.361 -2.049,1.418 -2.967,1.249c-2.522,-0.464 -3.222,-0.473 -5.006,-0.578c-1.862,-0.11 -3.523,0.303 -3.3,1.184Z" style="fill:#ff0078;"/><path d="M199.033,183.434c-2.232,-0.276 -3.351,-0.361 -4.744,0.966c-0.698,0.665 1.105,1.153 1.525,1.293c1.945,0.645 2.319,0.597 4.334,0.895c3.99,0.589 7.764,0.63 11.77,0.14c1.299,-0.159 3.282,-0.115 4.346,-1.002c0.732,-0.61 0.559,-1.769 0.201,-2.532c-0.794,-1.692 -2.359,-3.222 -4.306,-3.324c-2.465,-0.13 -5.106,0.912 -7.209,2.118c-0.755,0.434 -1.389,1.394 -2.205,1.669c-1.057,0.355 -2.655,-0.092 -3.712,-0.223Z" style="fill:#ff0078;"/><path d="M199.434,59.278c0.331,-6.108 5.642,-8.664 9.46,-7.528c3.818,1.137 6.143,5.967 5.812,12.075c-0.116,4.517 -3.153,10.44 -5.974,14.772c-5.146,-0.497 -11.67,-1.819 -15.272,-4.546c-4.981,-3.552 -7.305,-8.381 -5.812,-12.074c1.494,-3.694 6.805,-6.25 11.786,-2.699Z" style="fill:#ffe5f2;"/><path d="M229.587,36.722c2.881,-2.511 6.339,-1.243 7.492,0.962c1.153,2.206 0,5.35 -2.881,7.86c-2.074,1.915 -6.05,3.133 -9.22,3.754c-2.017,-2.522 -4.265,-6.021 -4.611,-8.822c-0.576,-3.778 0.576,-6.922 2.881,-7.861c2.305,-0.938 5.763,0.329 6.339,4.107Z" style="fill:#ffe5f2;"/><path d="M199.952,27.027c-0.554,-2.55 1.342,-4.202 3.041,-4.166c1.699,0.036 3.201,1.76 3.755,4.311c0.463,1.871 -0.117,4.651 -0.788,6.752c-2.173,0.377 -5.007,0.571 -6.797,-0.144c-2.45,-0.899 -3.952,-2.623 -3.755,-4.311c0.197,-1.688 2.093,-3.34 4.544,-2.442Z" style="fill:#ffe5f2;"/><path d="M23.278,211.802c-0.232,-5.746 -1.949,-11.886 5.656,-14.421c3.804,-1.268 11.191,-1.739 15.096,-2.458c14.73,-2.714 22.009,-1.721 32.827,0.308c5.554,1.041 14.763,1.82 15.33,5.76c0.475,3.302 -1.357,1.819 -1.308,3.134c0.094,2.476 0.635,7.196 1.052,9.975c0.132,0.885 1.706,0.7 2.532,2.231c0.826,1.53 -0.162,4.941 -1.081,6.593c-1.363,2.449 -7.112,4.412 -10.099,5.878c-13.618,6.683 -21.148,8.159 -42.25,2.93c-11.128,-2.758 -15.775,-0.528 -17.084,-10.511c0,0 -0.439,-3.673 -0.671,-9.419Z" style="fill:#82b7d1;"/><clipPath id="_clip3"><path d="M23.278,211.802c-0.232,-5.746 -1.949,-11.886 5.656,-14.421c3.804,-1.268 11.191,-1.739 15.096,-2.458c14.73,-2.714 22.009,-1.721 32.827,0.308c5.554,1.041 14.763,1.82 15.33,5.76c0.475,3.302 -1.357,1.819 -1.308,3.134c0.094,2.476 0.635,7.196 1.052,9.975c0.132,0.885 1.706,0.7 2.532,2.231c0.826,1.53 -0.162,4.941 -1.081,6.593c-1.363,2.449 -7.112,4.412 -10.099,5.878c-13.618,6.683 -21.148,8.159 -42.25,2.93c-11.128,-2.758 -15.775,-0.528 -17.084,-10.511c0,0 -0.439,-3.673 -0.671,-9.419Z"/></clipPath><g clip-path="url(#_clip3)"><path d="M27.591,214.276c-0.047,-3.902 -0.963,-8.02 0.976,-10.157c2.426,-2.673 10.714,0.442 13.459,1.343c11.637,3.819 16.989,8.242 24.082,6.173c1.854,-0.54 16.468,-4.388 18.01,-4.842c3.433,-1.01 10.398,-4.817 10.398,-4.817l-0.103,11.011c0,0 -19.714,13.078 -25.056,14.952c-5.778,2.026 -9.874,2.305 -15.778,1.59c-4.761,-0.577 -19.952,-2.237 -23.784,-5.666c-2.92,-2.612 -2.156,-5.684 -2.204,-9.587Z" style="fill:#ecf4f8;"/></g><path d="M248.326,141.734c-0.59,-0.983 -1.034,-3.561 0.336,-3.796c3.305,-0.569 6.653,-0.895 9.985,-1.25c7.824,-0.832 15.378,-3.597 23.219,-4.058c1.609,-0.095 3.257,0.378 4.849,0.54c3.481,0.353 6.957,0.723 10.426,1.179c2.948,0.388 6.054,0.651 8.915,1.51c1.297,0.389 2.845,0.303 2.998,1.849c0.347,3.496 0.042,6.72 -0.433,10.142c-0.383,2.761 -1.15,7.196 -3.345,9.39c-1.864,1.862 -18.64,8.629 -27.315,8.401c-6.108,-0.161 -19.608,-3.115 -25.514,-5.083c-1.297,-0.433 -2.901,-0.712 -3.977,-1.609c-2.658,-2.215 3.294,-3.328 4.008,-4.328c0.364,-0.51 0.446,-8.292 0.54,-10.18c0.17,-3.397 -3.283,-0.359 -4.692,-2.707Z" style="fill:#bad7e6;"/><clipPath id="_clip4"><path d="M248.326,141.734c-0.59,-0.983 -1.034,-3.561 0.336,-3.796c3.305,-0.569 6.653,-0.895 9.985,-1.25c7.824,-0.832 15.378,-3.597 23.219,-4.058c1.609,-0.095 3.257,0.378 4.849,0.54c3.481,0.353 6.957,0.723 10.426,1.179c2.948,0.388 6.054,0.651 8.915,1.51c1.297,0.389 2.845,0.303 2.998,1.849c0.347,3.496 0.042,6.72 -0.433,10.142c-0.383,2.761 -1.15,7.196 -3.345,9.39c-1.864,1.862 -18.64,8.629 -27.315,8.401c-6.108,-0.161 -19.608,-3.115 -25.514,-5.083c-1.297,-0.433 -2.901,-0.712 -3.977,-1.609c-2.658,-2.215 3.294,-3.328 4.008,-4.328c0.364,-0.51 0.446,-8.292 0.54,-10.18c0.17,-3.397 -3.283,-0.359 -4.692,-2.707Z"/></clipPath><g clip-path="url(#_clip4)"><path d="M252.123,142.949c1.553,0 3.127,0.465 4.679,0.578c2.372,0.173 10.281,1.678 11.975,1.832c2.348,0.214 10.088,2.134 12.907,1.807c2.819,-0.328 6.629,-1.88 8.081,-2.37c3.977,-1.341 7.459,-3.928 11.408,-5.409c1.551,-0.582 2.961,-1.414 4.662,-1.182c1.499,0.204 0.429,3.204 0.491,4.222c0.197,3.214 -0.32,5.249 -1.014,8.398c-0.261,1.183 -0.483,2.709 -1.51,3.48c-3.97,2.976 -10.496,4.046 -15.18,5.532c-5.123,1.626 -5.425,1.57 -10.845,1.142c-3.279,-0.26 -24.878,-5.29 -25.526,-6.551c-1.399,-2.72 -1.426,-6.649 -0.967,-9.494l0.839,-1.985Z" style="fill:#ecf4f8;"/></g><path d="M117.99,134.274c0,0.129 -1.698,1.363 -1.852,1.52c-1.241,1.267 -2.684,2.852 -2.887,4.693c-0.375,3.389 3.842,3.73 6.155,2.889c2.677,-0.974 4.546,-3.543 6.991,-4.94c3.2,-1.828 6.872,-0.151 9.03,2.487" style="fill:none;stroke:#ffe5f2;stroke-width:3px;"/></svg>