<?xml version="1.0" encoding="UTF-8" standalone="no"?><!DOCTYPE svg PUBLIC "-//W3C//DTD SVG 1.1//EN" "http://www.w3.org/Graphics/SVG/1.1/DTD/svg11.dtd"><svg width="100%" height="100%" viewBox="0 0 400 220" version="1.1" xmlns="http://www.w3.org/2000/svg" xmlns:xlink="http://www.w3.org/1999/xlink" xml:space="preserve" xmlns:serif="http://www.serif.com/" style="fill-rule:evenodd;clip-rule:evenodd;stroke-linecap:round;stroke-linejoin:round;stroke-miterlimit:1.5;"><rect id="browser-speaking-english" x="0" y="0" width="400" height="220" style="fill:none;"/><path id="bubble" d="M229.717,129.382c-6.756,-4.15 -11.932,-7.805 -11.932,-7.805c-9.62,-7.235 -17.903,-16.47 -23.016,-27.429c-9.876,-21.172 -6.327,-47.891 11.764,-63.207c4.074,-3.45 8.207,-6.626 13.196,-8.603c29.422,-11.654 65.275,0.555 93.349,10.422c14.24,5.005 28.165,10.338 38.995,21.33c17.509,17.77 27.221,48.63 9.448,69.967c-6.74,8.092 -15.824,12.675 -25.378,16.667c-28.394,11.862 -55.435,7.884 -84.209,-0.32c-2.777,-0.791 -5.997,-2.155 -9.328,-3.798c-4.245,3.134 -9.012,5.098 -14.171,5.409c-1.2,0.073 -6.518,0.532 -7.207,-0.85c-0.335,-0.671 1.111,-0.855 1.642,-1.323c0.858,-0.758 1.67,-1.562 2.432,-2.451c1.919,-2.24 3.328,-5.09 4.415,-8.009Z" style="fill:#ecf4f8;"/><g id="browser"><path d="M41.655,99.927c13.642,-2.984 59.312,-3.493 88.041,-7.95c5.024,-0.779 10.086,-1.286 15.111,-2.059c6.056,-0.932 13.495,-2.397 19.256,0.598c3.998,2.078 6.425,6.37 8.317,10.287c4.154,8.597 17.077,47.199 20.313,57.444c1.382,4.376 5.514,15.057 3.918,19.637c-1.844,5.291 -8.25,5.643 -13.46,6.484c-4.209,0.68 -61.819,10.951 -86.746,13.968c-7.644,0.925 -15.238,1.722 -22.878,2.777c-17.198,2.377 -31.003,7.253 -34.287,-15.13c-1.637,-11.163 -11.248,-52.55 -13.207,-60.519c-1.007,-4.093 -2.306,-8.712 -1.333,-12.927c1.406,-6.088 3.313,-9.626 16.955,-12.61Z" style="fill:#bad7e6;"/><path d="M32.088,111.599c0.868,-2.659 5.037,-4.769 8.709,-2.735c3.756,2.082 3.799,4.88 2.336,7.515c-1.818,3.276 -6.429,3.992 -9.068,2.073c-2.638,-1.919 -2.845,-4.194 -1.977,-6.853Z" style="fill:#ecf4f8;"/><path d="M35.087,114.974c2.084,-0.937 4.144,-1.653 6.379,-2.153" style="fill:none;stroke:#82b7d1;stroke-width:2px;"/><path d="M35.721,111.938c0,0 -1.569,2.218 -1.101,3.153c0.467,0.935 2.846,1.636 2.846,1.636" style="fill:none;stroke:#82b7d1;stroke-width:2px;"/><path d="M48.015,109.482c0.314,3.013 0.429,6.006 2.796,7.043c3.831,1.678 11.043,0.115 15.743,-0.698c10.581,-1.831 21.125,-3.069 31.816,-4.186c12.406,-1.296 24.899,-2.498 37.295,-3.992c6.173,-0.744 12.253,-2.067 18.402,-2.967c2.317,-0.339 5.682,-0.406 6.908,-2.78c0.427,-0.826 0.582,-1.865 0.719,-2.772c1.461,-9.625 -13.107,-5.222 -18.397,-4.457c-13.461,1.947 -27.274,4.038 -40.789,5.558c-10.068,1.133 -19.873,1.707 -29.901,2.945c-5.807,0.716 -11.592,1.563 -17.387,2.337c-2.29,0.306 -7.649,-0.281 -7.205,3.969Z" style="fill:#ecf4f8;"/><path d="M32.683,130.155c0.68,5.046 1.964,9.202 3.532,15.727c2.693,11.201 4.258,22.053 6.929,33.263c1.356,5.689 2.227,16.167 8.453,18.529c3.019,1.145 6.423,0.039 9.489,-0.29c7.483,-0.802 14.546,-1.964 21.876,-3.789c9.855,-2.453 66.193,-9.516 76.834,-11.499c3.656,-0.682 10.716,-1.847 14.372,-2.563c8.285,-1.621 16.696,-1.368 16.726,-7.636c0.007,-1.53 -2.161,-9.659 -2.433,-11.155c-0.826,-4.55 -1.673,-7.845 -3.381,-12.078c-3.606,-8.94 -5.415,-16.828 -8.467,-25.975c-1.491,-4.469 -3.833,-12.842 -8.44,-15.077c-2.09,-1.014 -6.231,-0.22 -8.372,0.199c-5.187,1.014 -11.609,0.836 -16.834,1.908c-10.633,2.18 -19.765,3.582 -30.527,4.763c-7.464,0.82 -60.301,8.742 -67.178,9.136c-4.884,0.28 -13.258,1.492 -12.579,6.537Z" style="fill:#ecf4f8;"/><path d="M88.665,171.086c1.109,-2.383 6.629,-4.127 8.516,-1.319c1.887,2.808 2.076,5.184 0.377,6.912c-1.699,1.728 -5.286,2.808 -7.363,1.296c-2.077,-1.512 -2.64,-4.505 -1.53,-6.889Z" style="fill:#445;"/><path d="M139.351,162.706c2.233,-2.271 6.449,-2.096 7.69,0c1.242,2.097 1.746,4.466 -0.039,6.564c-1.916,2.252 -5.631,2.097 -7.379,0.349c-1.747,-1.747 -2.487,-4.66 -0.272,-6.913Z" style="fill:#445;"/><path d="M116.976,168.005c0,0 -3.235,1.858 -2.697,5.08c0.564,3.38 4.258,6.101 7.448,4.224c5.701,-3.354 1.349,-12.153 -4.751,-9.304Z" style="fill:none;stroke:#445;stroke-width:2px;"/></g><path id="union-jack" d="M239.341,41.754c-1.356,-0.26 -7.558,-1.695 -9.763,6.242c-1.733,6.24 -4.294,14.699 -4.891,17.204c-0.707,2.966 -4.035,15.921 -5.36,24.49c-0.605,3.914 2.683,8.731 6.745,9.855c11.1,3.073 33.02,7.846 54.647,13.668c18.785,5.057 37.21,11.18 46.46,13.262c3.689,0.83 7.813,-1.721 8.803,-5.11c1.494,-5.112 3.508,-12.907 5.594,-20.768c2.224,-8.381 4.5,-16.856 5.724,-22.62c0.814,-3.834 -2.445,-8.837 -5.925,-9.923c-8.017,-2.5 -33.86,-11.068 -42.703,-14.371c-9.842,-3.675 -52.392,-10.597 -59.331,-11.929Z" style="fill:#82b7d1;"/><clipPath id="_clip1"><path d="M239.341,41.754c-1.356,-0.26 -7.558,-1.695 -9.763,6.242c-1.733,6.24 -4.294,14.699 -4.891,17.204c-0.707,2.966 -4.035,15.921 -5.36,24.49c-0.605,3.914 2.683,8.731 6.745,9.855c11.1,3.073 33.02,7.846 54.647,13.668c18.785,5.057 37.21,11.18 46.46,13.262c3.689,0.83 7.813,-1.721 8.803,-5.11c1.494,-5.112 3.508,-12.907 5.594,-20.768c2.224,-8.381 4.5,-16.856 5.724,-22.62c0.814,-3.834 -2.445,-8.837 -5.925,-9.923c-8.017,-2.5 -33.86,-11.068 -42.703,-14.371c-9.842,-3.675 -52.392,-10.597 -59.331,-11.929Z"/></clipPath><g clip-path="url(#_clip1)"><path d="M268.828,83.151c-1.837,-1.631 -3.677,-3.258 -5.475,-4.923c-11.129,-10.305 -24.778,-18.009 -34.359,-29.901l-2.927,-3.216c-0.257,-1.123 0.023,-2.41 0.252,-3.515c1.71,-8.243 10.253,-6.229 14.834,-1.802c5.975,5.774 10.76,12.744 16.852,18.432c8.398,7.84 17.895,14.254 27.03,21.145c7.398,-1.921 14.78,-3.915 22.278,-5.384c6.18,-1.212 12.454,-1.975 18.611,-3.277c5.566,-1.177 10.962,-2.994 16.588,-3.868c2.114,-0.329 4.796,-1.072 6.897,-0.312c4.123,1.49 2.556,10.258 0.209,13.058c-3.647,4.35 -30.578,6.81 -37.642,8.397c-4.401,0.988 -8.807,1.934 -13.211,2.87c5.093,4.799 10.01,9.806 15.525,14.081c1.998,1.55 3.855,3.267 5.829,4.845c2.544,2.033 5.259,3.893 8.132,5.431c2.712,1.451 5.661,2.631 7.666,5.079c1.654,2.019 3.076,5.435 1.407,7.825c-2.75,3.935 -7.26,2.833 -10.915,1.286c-6.973,-2.95 -11.941,-7.383 -18.153,-11.718c-9.795,-6.838 -18.865,-14.679 -27.341,-23.009c-9.605,2.116 -19.172,4.395 -28.645,7.18c-8.695,2.556 -17.654,4.009 -26.654,1.809c-3.192,-0.78 -7.648,-1.996 -8.648,-5.672l-0.266,-4.663c13.059,-3.393 26.654,-6.198 39.959,-8.397c4.048,-0.669 8.126,-1.095 12.167,-1.781Z" style="fill:#fff;"/><path d="M277.195,86.171c-2.099,-1.88 -4.163,-3.775 -6.189,-5.638c-8.639,-7.944 -17.413,-12.945 -27.01,-21.412c-3.981,-3.513 -9.113,-6.642 -12.835,-10.445c-1.021,-1.044 -3.091,-3.578 -2.019,-5.267l1.051,-1.623c6.017,5.794 31.358,25.602 53.459,42.669c2.689,-0.707 4.941,-1.284 6.447,-1.629c10.635,-2.432 45.582,-11.568 50.013,-13.396c1.416,-0.584 3.314,-1.894 4.884,-1.946c0.719,-0.025 4.028,1.769 4.036,2.217c0.062,3.181 -5.352,4.861 -8.048,6.314c-4.558,2.458 -26.159,7.124 -31.51,8.746c-6.427,1.949 -12.883,3.34 -19.35,4.686c14.86,11.447 27.034,20.736 28.788,22.125c3.425,2.709 8.495,4.991 11.776,7.759c1.812,1.529 5.778,3.075 6.438,5.518c0.082,0.305 -1.614,1.232 -1.792,1.337c-2.607,1.545 -4.416,-0.975 -7.029,-2.201c-9.882,-4.632 -16.26,-10.938 -25.077,-17.134c-3.881,-2.727 -8.848,-6.883 -12.684,-9.679c-2.645,-1.928 -5.253,-4.013 -7.816,-6.176c-4.122,0.884 -8.246,1.83 -12.369,2.971c-9.298,2.572 -31.931,8.157 -41.606,8.886c-8.296,0.625 -4.324,3.336 -11.11,-2.586l2.085,-1.073c10.055,-3.133 20.868,-5.195 31.258,-6.643c4.718,-0.657 16.467,-3.783 26.209,-6.38Z" style="fill:#ff0078;"/><path d="M277.672,69.899c1.702,-5.966 4.21,-14.232 5.409,-17.813c1.198,-3.582 3.394,-4.105 3.394,-4.105c5.696,-2.118 15.456,1.357 16.983,8.018c0.492,2.147 -3.423,15.364 -3.818,19.229c7.663,1.944 15.285,4.048 22.808,6.552c6.5,2.163 14.869,2.289 20.754,5.87c5.852,3.561 5.597,9.242 2.826,14.705c-0.866,1.706 -2.557,4.553 -4.658,4.942c-4.29,0.794 -9.414,-0.998 -13.543,-2.009c-8.223,-2.014 -16.345,-3.972 -24.649,-5.649c-2.369,-0.478 -4.735,-1.031 -7.097,-1.64c-0.32,1.381 -0.663,2.756 -1.031,4.121c-1.432,5.31 -2.766,11.709 -6.455,16c-3.966,4.613 -9.172,2.501 -14.148,1.063c-2.898,-0.838 -6.668,-2.028 -8.016,-5.045c-1.768,-3.953 1.448,-11.265 2.556,-14.929c0.878,-2.905 1.759,-5.808 2.635,-8.713c-0.879,-0.283 -1.756,-0.564 -2.632,-0.842c-6.478,-2.054 -12.951,-4.174 -19.536,-5.868c-10.144,-2.611 -20.117,-4.184 -29.877,-8.233l-2.08,-6.065c-0.211,-1.617 -0.035,-3.153 0.46,-4.703c3.232,-10.125 13.848,-6.555 21.409,-4.939c2.327,0.497 4.672,0.892 6.993,1.422c2.394,0.546 4.787,1.107 7.177,1.667c6.638,1.558 12.944,4.218 19.534,5.842c1.533,0.378 3.067,0.751 4.602,1.122Z" style="fill:#fff;"/><path d="M279.706,77.479l0.219,-0.787c1.44,-5.144 2.762,-10.315 4.255,-15.445c0.499,-1.715 0.944,-3.443 1.396,-5.17c0.148,-0.564 0.296,-1.128 0.444,-1.692c0.02,-0.077 0.727,-3.591 2.59,-4.56c1.864,-0.969 10.123,-1.027 10.923,2.926c0.399,1.971 -4.638,20.755 -6.495,27.854c10.945,2.384 21.853,4.472 32.826,7.487c5.538,1.522 15.232,2.668 19.024,7.251c1.318,1.594 0.091,6.292 -2.388,7.859c-0.912,0.577 -2.732,0.793 -3.61,0.527c-2.511,-0.762 -5.094,-1.228 -7.604,-1.98c-5.44,-1.632 -24.822,-6.659 -29.107,-7.658c-4.361,-1.017 -8.316,-1.84 -12.17,-2.662c-0.955,3.215 -1.843,6.427 -2.638,9.69c-0.273,1.118 -0.526,2.241 -0.783,3.363c-0.242,1.053 -0.482,2.106 -0.716,3.16c-0.188,0.849 -2.195,7.618 -2.397,8.465c-0.376,1.577 -13.736,-2.208 -13.65,-2.928c0.297,-2.483 1.29,-4.894 1.978,-7.286c1.681,-5.848 3.295,-11.708 4.907,-17.571c-2.334,-0.622 -4.752,-1.317 -7.313,-2.123c-3.283,-1.035 -44.222,-11.829 -49.556,-13.626l0.739,-7.253c1.822,-1.915 17.491,1.012 22.322,2.333c2.769,0.756 5.62,1.131 8.39,1.873c9.279,2.486 18.334,5.331 27.662,7.759c0.251,0.065 0.501,0.13 0.752,0.194Z" style="fill:#ff0078;"/></g></svg>