<?xml version="1.0" encoding="UTF-8" standalone="no"?>
<!DOCTYPE svg PUBLIC "-//W3C//DTD SVG 1.1//EN" "http://www.w3.org/Graphics/SVG/1.1/DTD/svg11.dtd">
<svg width="100%" height="100%" viewBox="0 0 350 300" version="1.1" xmlns="http://www.w3.org/2000/svg" xmlns:xlink="http://www.w3.org/1999/xlink" xml:space="preserve" xmlns:serif="http://www.serif.com/" style="fill-rule:evenodd;clip-rule:evenodd;stroke-linecap:round;stroke-linejoin:round;stroke-miterlimit:1.5;">
    <g transform="matrix(1,0,0,1,-400,0)">
        <g id="first-step" transform="matrix(0.146566,0,0,0.179856,400,0)">
            <rect x="0" y="0" width="2388" height="1668" style="fill:white;"/>
            <g id="shadow" transform="matrix(3.39672,0.257918,-0.251878,2.20285,340.063,113.545)">
                <path d="M286.354,514.585C378.69,500.387 401.899,504.118 472.472,523.525C482.74,526.349 536.076,535.979 533.65,551.745C532.27,560.718 515.349,566.165 508.297,568.72C479.143,579.283 446.82,585.72 416.364,591.208C313.208,609.794 3.511,636.578 1.367,591.416C-0.335,555.588 239.63,521.769 286.354,514.585" style="fill:rgb(234,244,249);"/>
            </g>
            <g id="arm-right">
                <g transform="matrix(3.41143,0,0,2.78,128.023,-85.4976)">
                    <path d="M501.432,276.248L588.71,156.738L607.032,169.307L508.168,300.638L501.432,276.248Z" style="fill:none;stroke:rgb(255,0,120);stroke-width:2px;"/>
                </g>
                <g transform="matrix(3.41143,0,0,2.78,128.023,-85.4976)">
                    <path d="M581.56,165.816C590.96,164.457 597.478,168.621 600.057,179.043C600.057,179.043 621.37,168.996 624.84,155.447C632.138,126.953 610.088,122.868 594.415,135.165C582.17,144.772 581.56,165.816 581.56,165.816Z" style="fill:none;stroke:rgb(255,0,120);stroke-width:2px;"/>
                </g>
            </g>
            <g id="body" transform="matrix(3.41143,0,0,2.78,128.023,-85.4976)">
                <path d="M340.765,81.151C316.06,84.069 283.599,92.352 267.438,114.73C226.698,171.139 239.64,257.157 233.399,322.862C228.25,377.075 206.959,443.393 219.95,491.491C238.21,559.093 326.643,573.089 393.332,568.113C565.1,555.297 549.887,461.439 541.356,410.254C534.314,367.998 515.235,307.2 499.618,267.556C493.182,251.218 475.793,183.809 468.951,169.636C455.483,141.738 443.665,115.219 415.671,97.223C393.871,83.209 365.471,78.233 340.765,81.151Z" style="fill:rgb(255,228,243);"/>
                <clipPath id="_clip1">
                    <path d="M340.765,81.151C316.06,84.069 283.599,92.352 267.438,114.73C226.698,171.139 239.64,257.157 233.399,322.862C228.25,377.075 206.959,443.393 219.95,491.491C238.21,559.093 326.643,573.089 393.332,568.113C565.1,555.297 549.887,461.439 541.356,410.254C534.314,367.998 515.235,307.2 499.618,267.556C493.182,251.218 475.793,183.809 468.951,169.636C455.483,141.738 443.665,115.219 415.671,97.223C393.871,83.209 365.471,78.233 340.765,81.151Z"/>
                </clipPath>
                <g clip-path="url(#_clip1)">
                    <path id="tongue" d="M429.059,251.389C432.955,248.642 436.377,245.248 439.204,241.143C445.371,246.127 453.395,255.595 448.963,260.931C442.105,269.191 429.059,251.389 429.059,251.389Z" style="fill:none;stroke:rgb(255,0,120);stroke-width:2px;"/>
                    <path id="mouth" d="M330.276,242.8C373.46,267.097 439,273.509 447.192,219.867" style="fill:none;stroke:rgb(255,0,120);stroke-width:2px;"/>
                    <g id="left-eye" transform="matrix(1.09841,0,0,1.07281,-32.9615,-12.1937)">
                        <path d="M324.32,158.364C320.438,158.37 316.261,160.993 316.311,165.963C316.358,170.68 320.366,174.473 323.442,175.054C337.444,177.696 337.441,158.347 324.32,158.364Z" style="fill:rgb(68,68,86);"/>
                    </g>
                    <g id="right-eye" transform="matrix(1,0,0,1,-2.25997,-1.95093)">
                        <path d="M423.906,153.372C422.333,154.149 420.532,155.528 420.252,158.184C419.77,162.765 426.436,171.44 431.783,168.32C437.877,164.765 435.219,156.833 431.448,153.894C429.273,152.2 425.388,152.639 423.906,153.372Z" style="fill:none;stroke:rgb(255,0,120);stroke-width:2px;"/>
                    </g>
                </g>
                <path d="M340.765,81.151C316.06,84.069 283.599,92.352 267.438,114.73C226.698,171.139 239.64,257.157 233.399,322.862C228.25,377.075 206.959,443.393 219.95,491.491C238.21,559.093 326.643,573.089 393.332,568.113C565.1,555.297 549.887,461.439 541.356,410.254C534.314,367.998 515.235,307.2 499.618,267.556C493.182,251.218 475.793,183.809 468.951,169.636C455.483,141.738 443.665,115.219 415.671,97.223C393.871,83.209 365.471,78.233 340.765,81.151Z" style="fill:none;stroke:rgb(255,0,120);stroke-width:2px;"/>
            </g>
            <g id="arm-left">
                <g transform="matrix(-3.02748,1.2813,1.57233,2.46712,1886.32,-620.728)">
                    <path d="M471.315,320.321L588.71,156.738L607.032,169.307L481.78,338.06C474.981,338.35 466.388,331.813 471.315,320.321Z" style="fill:rgb(234,244,249);stroke:rgb(114,185,212);stroke-width:2px;"/>
                </g>
                <g transform="matrix(-3.02748,1.2813,1.57233,2.46712,1886.32,-620.728)">
                    <path d="M581.56,165.816C590.96,164.457 597.478,168.621 600.057,179.043C600.057,179.043 621.37,168.996 624.84,155.447C632.138,126.953 610.088,122.868 594.415,135.165C582.17,144.772 581.56,165.816 581.56,165.816Z" style="fill:rgb(255,0,120);"/>
                </g>
            </g>
        </g>
    </g>
</svg>
