<?xml version="1.0" encoding="UTF-8" standalone="no"?><!DOCTYPE svg PUBLIC "-//W3C//DTD SVG 1.1//EN" "http://www.w3.org/Graphics/SVG/1.1/DTD/svg11.dtd"><svg width="100%" height="100%" viewBox="0 0 340 140" version="1.1" xmlns="http://www.w3.org/2000/svg" xmlns:xlink="http://www.w3.org/1999/xlink" xml:space="preserve" xmlns:serif="http://www.serif.com/" style="fill-rule:evenodd;clip-rule:evenodd;"><rect id="jsx-vue-template" x="0" y="0" width="340" height="140" style="fill:none;"/><path d="M320,76.861c0,-1.379 -1.12,-2.5 -2.5,-2.5l-295,0c-1.38,0 -2.5,1.121 -2.5,2.5l0,5c0,1.38 1.12,2.5 2.5,2.5l295,0c1.38,0 2.5,-1.12 2.5,-2.5l0,-5Z" style="fill:url(#_Linear1);"/><g transform="matrix(1,0,0,1,2.34402,-386.105)"><text x="17.011px" y="489.83px" style="font-family:'Monaco';font-size:12px;fill:#ff0078;">100%</text><text x="17.011px" y="505.83px" style="font-family:'Monaco';font-size:12px;fill:#ff0078;">JAVASCRIPT</text></g><text x="159.017px" y="29.363px" style="font-family:'Monaco';font-size:12px;fill:#445;">JSX</text><text x="287.465px" y="29.363px" style="font-family:'Monaco';font-size:12px;fill:#445;">VUE</text><g transform="matrix(1,0,0,1,230.983,-386.105)"><text x="60.218px" y="489.83px" style="font-family:'Monaco';font-size:12px;fill:#82b7d1;">100%</text><text x="60.218px" y="505.83px" style="font-family:'Monaco';font-size:12px;fill:#82b7d1;">HTML</text></g><g id="_-react" serif:id="©react"><circle cx="170" cy="54.794" r="2.688" style="fill:#61dafb;"/><ellipse cx="170" cy="54.794" rx="14.424" ry="5.507" style="fill:none;stroke:#61dafb;stroke-width:1.31px;"/><path d="M174.77,52.04c3.98,6.895 5.075,13.726 2.442,15.246c-2.632,1.519 -8.001,-2.844 -11.982,-9.738c-3.98,-6.895 -5.075,-13.726 -2.442,-15.246c2.632,-1.52 8.001,2.844 11.982,9.738Z" style="fill:none;stroke:#61dafb;stroke-width:1.31px;"/><path d="M174.77,57.548c-3.981,6.894 -9.35,11.257 -11.982,9.738c-2.633,-1.52 -1.538,-8.351 2.442,-15.246c3.981,-6.894 9.35,-11.258 11.982,-9.738c2.633,1.52 1.538,8.351 -2.442,15.246Z" style="fill:none;stroke:#61dafb;stroke-width:1.31px;"/></g><path d="M299.703,57.567l8.822,-15.292l5.882,0l-14.704,25.364l-14.703,-25.364l5.808,0l8.895,15.292Z" style="fill:#41b883;fill-rule:nonzero;"/><path d="M296.248,42.275l-5.44,0l8.895,15.292l8.822,-15.292l-5.44,0l-3.382,5.881l-3.455,-5.881Z" style="fill:#34495d;"/><defs><linearGradient id="_Linear1" x1="0" y1="0" x2="1" y2="0" gradientUnits="userSpaceOnUse" gradientTransform="matrix(300,0,0,300,20,78.3613)"><stop offset="0" style="stop-color:#ffe5f2;stop-opacity:1"/><stop offset="1" style="stop-color:#82b7d1;stop-opacity:1"/></linearGradient></defs></svg>