<?xml version="1.0" encoding="UTF-8" standalone="no"?><!DOCTYPE svg PUBLIC "-//W3C//DTD SVG 1.1//EN" "http://www.w3.org/Graphics/SVG/1.1/DTD/svg11.dtd"><svg width="100%" height="100%" viewBox="0 0 430 300" version="1.1" xmlns="http://www.w3.org/2000/svg" xmlns:xlink="http://www.w3.org/1999/xlink" xml:space="preserve" xmlns:serif="http://www.serif.com/" style="fill-rule:evenodd;clip-rule:evenodd;stroke-linecap:round;stroke-linejoin:round;stroke-miterlimit:1.5;"><rect id="browser-rendering-text" x="0" y="0" width="430" height="300" style="fill:none;"/><g id="html-file-detail"><path d="M117.503,129.687c4.711,-1.79 7.199,-6.546 6.048,-9.974c-5.324,-15.853 -20.529,-52.234 -23.123,-65.734c-3.206,-16.676 0.097,-36.108 -11.007,-36.108c-2.143,0 -27.223,0.806 -32.856,1.123c-4.806,0.272 -14.419,1.63 -22.55,3.342c-6.862,1.445 -14.593,22.301 -14.328,25.977c0.694,9.643 0.945,11.213 2.993,20.648c3.864,17.799 19.856,73.938 25.735,78.079c6.355,4.477 22.934,-1.128 30.928,-3.444c5.684,-1.647 26.567,-9.505 38.16,-13.909Z" style="fill:#bad7e6;"/><path d="M19.686,47.911c6.904,-5.553 15.696,-9.117 17.606,-11.153c1.91,-2.036 0.832,-15.287 -3.277,-14.422c-6.862,1.445 -14.714,21.909 -14.329,25.575Z" style="fill:#ecf4f8;"/><g id="_.html" serif:id=".html"><path d="M130.094,123.472c-0.103,0.069 0.253,-0.086 0.284,-0.1c0.212,-0.098 0.426,-0.192 0.639,-0.289" style="fill:none;stroke:#bad7e6;stroke-width:2px;"/><path d="M132.67,113.906c0.849,1.548 2.916,7.386 2.915,7.65" style="fill:none;stroke:#bad7e6;stroke-width:2px;"/><path d="M136.991,111.815c0.837,1.543 2.838,7.46 3.018,8.671" style="fill:none;stroke:#bad7e6;stroke-width:2px;"/><path d="M134.422,117.483c-0.016,-0.029 0.79,-0.317 0.835,-0.332c0.895,-0.307 1.816,-0.543 2.718,-0.822" style="fill:none;stroke:#bad7e6;stroke-width:2px;"/><path d="M139.658,111.183c0.582,-0.324 5.106,-1.872 6.709,-2.323" style="fill:none;stroke:#bad7e6;stroke-width:2px;"/><path d="M142.879,110.274c0.742,1.367 2.622,6.937 2.804,8.162" style="fill:none;stroke:#bad7e6;stroke-width:2px;"/><path d="M153.016,115.671c-0.686,-1.435 -2.394,-4.583 -2.676,-6.177c-0.088,-0.491 -0.38,-1.552 0.078,-2.082c0.277,-0.321 0.799,-0.105 1.053,0c0.573,0.236 1.059,0.6 1.54,0.945c0.174,0.124 0.426,0.428 0.671,0.47c0.008,0.002 -0.341,-3.186 1.344,-3.652c0.774,-0.213 1.544,1.062 1.874,1.547c0.91,1.333 2.29,5.059 2.201,6.501" style="fill:none;stroke:#bad7e6;stroke-width:2px;"/><path d="M160.076,103.227c0.514,0.936 2.849,8.501 3.066,8.581c0.09,0.033 0.354,-0.152 0.44,-0.198c0.446,-0.234 4.555,-1.932 4.936,-1.938" style="fill:none;stroke:#bad7e6;stroke-width:2px;"/></g><g id="doctype"><path d="M27.552,55.974c-0.418,0.316 -3.301,2.486 -3.314,2.615c-0.002,0.025 4.345,1.601 4.475,1.549" style="fill:none;stroke:#ecf4f8;stroke-width:1px;"/><path d="M29.197,54.476c-0.08,0.033 0.724,3.904 0.643,4.084" style="fill:none;stroke:#ecf4f8;stroke-width:1px;"/><path d="M30.119,60.182c0.082,0.201 0.094,0.238 0.129,0.454" style="fill:none;stroke:#ecf4f8;stroke-width:1px;"/><path d="M31.26,54.222c0.173,0.909 0.983,5.565 1.206,5.756c0.056,0.047 0.612,-0.156 0.689,-0.173c0.785,-0.174 1.617,-0.475 2.191,-1.052c2.326,-2.339 -0.457,-5.266 -4.086,-4.531Z" style="fill:none;stroke:#ecf4f8;stroke-width:1px;"/><path d="M39.605,52.584c-2.737,1.11 -1.673,5.885 1.373,5.259c2.775,-0.57 1.656,-5.401 -0.867,-5.389l-0.506,0.13Z" style="fill:none;stroke:#ecf4f8;stroke-width:1px;"/><path d="M48.874,52.153c-0.456,-1.125 -2.494,-1.226 -3.399,-0.617c-0.531,0.356 -0.918,1.182 -0.969,1.788c-0.086,1.025 0.405,2.303 1.258,2.921c0.997,0.721 2.552,0.416 3.248,-0.634c0.238,-0.361 0.273,-0.705 0.363,-1.102" style="fill:none;stroke:#ecf4f8;stroke-width:1px;"/><path d="M49.511,50.731c1.133,-0.459 4.109,-1.015 4.601,-1.132" style="fill:none;stroke:#ecf4f8;stroke-width:1px;"/><path d="M52.213,50.134c-0.178,0.073 0.127,1.264 0.149,1.37c0.295,1.363 0.561,2.857 1.087,4.154" style="fill:none;stroke:#ecf4f8;stroke-width:1px;"/><path d="M55.613,49.38c0.29,0.323 1.986,1.849 2.171,1.811c0.558,-0.113 1.094,-1.933 1.741,-2.645" style="fill:none;stroke:#ecf4f8;stroke-width:1px;"/><path d="M62.725,54.268c-0.659,-2.057 -1.316,-5.892 -1.206,-6.08c0.14,-0.238 3.897,-1.132 4.115,0.654c0.194,1.588 -2.713,1.872 -3.076,1.861" style="fill:none;stroke:#ecf4f8;stroke-width:1px;"/><path d="M71.223,46.593c-7.599,1.655 -3.157,7.65 0.833,5.053" style="fill:none;stroke:#ecf4f8;stroke-width:1px;"/><path d="M67.611,50.293c0.435,0.027 2.694,-0.373 3.49,-0.531" style="fill:none;stroke:#ecf4f8;stroke-width:1px;"/><path d="M75.097,45.68c-0.049,-0.122 1.052,4.156 1.326,4.885" style="fill:none;stroke:#ecf4f8;stroke-width:1px;"/><path d="M75.82,48.565c-0.518,-1.476 0.798,-2.09 1.369,-1.863c1.191,0.476 1.37,2.37 1.266,3.457" style="fill:none;stroke:#ecf4f8;stroke-width:1px;"/><path d="M79.561,44.321c0.44,1.087 0.713,2.465 0.846,3.622c0.054,0.477 0.24,1.418 0.644,1.763c0.329,0.28 0.577,0.162 0.892,-0.044" style="fill:none;stroke:#ecf4f8;stroke-width:1px;"/><path d="M79.262,46.568c0.56,-0.227 1.195,-0.47 1.789,-0.433" style="fill:none;stroke:#ecf4f8;stroke-width:1px;"/><path d="M82.434,45.615c0.24,1.04 0.72,3.189 1.039,4.015" style="fill:none;stroke:#ecf4f8;stroke-width:1px;"/><path d="M82.717,46.772c-0.036,-1.198 1.668,-1.481 2.104,-1.099c1.009,0.884 1.015,2.319 1.067,3.511" style="fill:none;stroke:#ecf4f8;stroke-width:1px;"/><path d="M85.494,46.57c-0.142,-0.122 0.442,-1.885 1.541,-1.832c1.491,0.071 1.408,2.96 1.457,3.919" style="fill:none;stroke:#ecf4f8;stroke-width:1px;"/><path d="M89.4,42.709c0.546,1.347 1.217,5.803 1.086,5.856" style="fill:none;stroke:#ecf4f8;stroke-width:1px;"/><path d="M91.898,44.179c0.64,0.158 3.702,0.916 3.777,1.414c0.034,0.224 -2.547,2.483 -3.024,2.639" style="fill:none;stroke:#ecf4f8;stroke-width:1px;"/><path d="M57.98,51.537c0.423,1.042 0.573,2.214 0.794,3.307" style="fill:none;stroke:#ecf4f8;stroke-width:1px;"/></g><path d="M40.553,83.231c4.43,-1.714 20.545,-6.63 35.825,-7.171" style="fill:none;stroke:#445;stroke-width:5px;"/><path d="M50.744,120.85c0.002,-0.255 33.97,-12.766 46.968,-11.683" style="fill:none;stroke:#82b7d1;stroke-width:5px;"/></g><g id="webpage"><clipPath id="_clip1"><path d="M33.526,166.53c0,0 3.36,67.099 5.339,91.452c0.582,7.162 -0.143,11.397 3.675,15.181c5.34,5.291 18.328,2.565 24.737,0.52c12.265,-3.913 22.072,-7.512 35.128,-3.084c9.304,3.155 18.42,6.824 28.628,6.541c11.578,-0.322 21.198,-8.14 32.891,-7.892c14.554,0.308 25.345,9.369 40.468,6.922c14.141,-2.288 23.075,-11.829 37.547,-12.146c13.012,-0.285 22.202,8.068 34.884,9.958c11.845,1.766 19.745,-8.522 31.535,-8.889c10.84,-0.336 33.351,9.698 44.181,10.888c14.076,1.547 35.863,-3.493 36.51,-21.206c0.541,-14.773 10.007,-84.9 10.007,-84.9l-365.53,-3.345Z"/></clipPath><g clip-path="url(#_clip1)"><path d="M55.467,176.048c-22.815,1.075 -18.737,8.621 -17.315,31.275c1.232,19.644 1.036,115.004 0.031,134.65c-0.847,16.548 -0.812,31.02 18.249,32.034c15.392,0.818 55.262,1.441 71.27,1.411c54.344,-0.103 108.623,-0.756 163,-0.961c26.354,-0.1 55.247,-1.19 81.828,-1.292c17.93,-0.068 17.717,-4.93 17.45,-19.29c-0.694,-37.352 -0.175,-116.231 -1.935,-153.199c-0.652,-13.708 4.46,-26.959 -21.581,-26.795c-19.97,0.126 -197.008,0.372 -230.581,-0.163c-17.169,-0.273 -80.416,2.33 -80.416,2.33Z" style="fill:#bad7e6;"/><path d="M363.67,365.152c21.394,-0.809 17.57,-6.484 16.237,-23.523c-1.156,-14.775 -0.972,-86.497 -0.03,-101.273c0.794,-12.446 0.762,-23.331 -17.112,-24.094c-14.433,-0.615 -51.819,-1.084 -66.829,-1.061c-50.958,0.077 -101.855,0.569 -152.844,0.723c-24.712,0.075 -51.805,0.895 -76.73,0.971c-16.813,0.052 -16.613,3.709 -16.363,14.509c0.65,28.093 0.163,87.42 1.814,115.225c0.612,10.309 -4.182,20.276 20.237,20.153c18.725,-0.095 184.734,-0.28 216.214,0.122c16.1,0.205 75.406,-1.752 75.406,-1.752Z" style="fill:#ecf4f8;"/><g id="back-button"><path d="M53.682,191.803c3.296,-3.926 11.828,-4.656 16.675,1.315c4.96,6.111 3.117,10.897 -1.174,14.374c-5.335,4.322 -13.662,2.382 -16.833,-2.686c-3.171,-5.069 -1.965,-9.078 1.332,-13.003Z" style="fill:#ecf4f8;"/><path d="M56.468,199.594c4.184,-0.166 8.176,0.028 12.317,0.708" style="fill:none;stroke:#82b7d1;stroke-width:2px;"/><path d="M59.624,194.867c0,0 -4.185,2.696 -4.031,4.605c0.155,1.91 3.719,4.73 3.719,4.73" style="fill:none;stroke:#82b7d1;stroke-width:2px;"/></g><g id="address-bar"><path d="M80.619,193.913c0.003,5.558 -1.937,13.22 4.234,13.416c10.278,0.325 16.56,0.553 28.882,0.252c27.74,-0.678 68.938,-0.068 96.692,0.578c32.202,0.75 64.592,1.692 96.844,2.081c16.062,0.193 43.438,-0.243 59.498,-0.339c6.052,-0.037 12.234,1.13 12.267,-6.208c0.008,-1.978 -0.166,-7.106 -0.002,-8.855c0.71,-7.554 -7.528,-6.98 -21.34,-6.914c-35.147,0.168 -97.248,1.176 -132.372,0.556c-26.164,-0.462 -51.447,-1.872 -77.549,-2.133c-15.116,-0.151 -39.779,0.607 -54.884,0.562c-5.972,-0.018 -12.275,-1.945 -12.27,7.004Z" style="fill:#ecf4f8;"/><g id="address"><path d="M95.688,193.044c0.874,1.778 1.868,6.329 0.274,8.035c-1.139,1.219 -3.597,0.661 -4.058,-2.04c-0.192,3.766 -8.096,5.089 -3.879,-5.717" style="fill:none;stroke:#445;stroke-width:2px;"/><path d="M106.985,192.484c-4.625,-0.319 -5.554,2.43 -5.878,3.15c-0.255,0.568 -0.477,1.142 -0.569,1.788c-0.686,4.835 4.874,4.94 7.316,3.857" style="fill:none;stroke:#445;stroke-width:2px;"/><path d="M101.174,197.515c-0.152,0.02 3.252,-0.487 4.369,-0.478" style="fill:none;stroke:#445;stroke-width:2px;"/><path d="M111.797,192.289c0.306,1.75 -0.428,9.747 -0.429,9.738" style="fill:none;stroke:#445;stroke-width:2px;"/><path d="M111.805,192.233c0,0 4.013,-0.585 4.585,2.017c0.572,2.602 -1.67,3.113 -1.67,3.113c0,0 3.978,1.546 2.853,3.711c-1.125,2.164 -6.127,0.901 -6.127,0.901" style="fill:none;stroke:#445;stroke-width:2px;"/><path d="M129.568,202.456c0.059,-1.406 1.644,-6.594 2.461,-8.528c0.235,-0.557 0.924,-2.284 1.744,-2.217c0.943,0.078 1.239,1.654 1.442,2.343c0.383,1.3 1.486,6.345 1.051,8.177" style="fill:none;stroke:#445;stroke-width:2px;"/><path d="M131.672,197.975c-0.002,-0.012 0.802,-0.031 0.851,-0.034c0.799,-0.045 1.789,-0.136 2.574,0.054" style="fill:none;stroke:#445;stroke-width:2px;"/><path d="M146.467,192.932c-1.821,-0.826 -3.254,-0.257 -3.821,0.126c-2.306,1.562 -3.333,5.772 -1.246,7.865c0.507,0.508 1.141,0.924 1.825,1.157c0.581,0.198 1.252,0.309 1.865,0.23c1.758,-0.226 2.957,-2.087 2.37,-3.778c-0.403,-1.16 -1.994,-2.064 -3.178,-1.511" style="fill:none;stroke:#445;stroke-width:2px;"/><path d="M155.606,193.064c-3.179,0.061 -4.585,2.376 -4.884,3.952c-0.616,3.24 2.418,5.479 5.185,4.743" style="fill:none;stroke:#445;stroke-width:2px;"/><path d="M151.342,197.793c-0.013,-0.103 3.07,-0.034 4.077,-0.059" style="fill:none;stroke:#445;stroke-width:2px;"/><path d="M159.392,201.468c-0.038,0.164 -0.094,0.554 -0.095,0.646" style="fill:none;stroke:#445;stroke-width:2px;"/><path d="M162.909,193.661c0.219,1.69 0.338,7.751 0.122,8.86" style="fill:none;stroke:#445;stroke-width:2px;"/><path d="M169.194,194.04c0.002,1.726 -1.167,6.799 -1.312,8.917" style="fill:none;stroke:#445;stroke-width:2px;"/><path d="M163.335,198.042c1.129,0.037 2.935,0.069 3.786,0.102" style="fill:none;stroke:#445;stroke-width:2px;"/><path d="M176.118,195.032c-0.022,-0.092 -0.02,0.187 -0.031,0.281c-0.023,0.204 -0.032,0.409 -0.053,0.614c-0.063,0.614 -0.145,1.226 -0.219,1.839c-0.208,1.705 -0.436,3.409 -0.665,5.111" style="fill:none;stroke:#445;stroke-width:2px;"/><path d="M172.621,194.543c2.352,-0.574 5.038,-0.165 7.415,-0.031" style="fill:none;stroke:#445;stroke-width:2px;"/><path d="M181.98,202.423c-0.321,-0.478 -0.382,-3.7 0.176,-5.088c0.559,-1.388 1.57,-3.366 2.965,-3.241c1.396,0.126 1.581,2.928 1.581,2.928c0,0 1.685,-2.736 2.918,-2.694c2.728,0.094 0.933,6.391 -0.756,7.964" style="fill:none;stroke:#445;stroke-width:2px;"/><path d="M196.308,194.23c-0.191,3.186 -2.999,8.046 -2.388,8.081c0.657,0.038 3.752,0.06 4.864,0.387" style="fill:none;stroke:#445;stroke-width:2px;"/><path d="M122.216,192.359c-0.399,3.1 -0.665,6.222 -0.746,9.348" style="fill:none;stroke:#445;stroke-width:2px;"/><path d="M122.281,192.221c0,0 4.431,-0.615 4.714,2.115c0.246,2.364 -2.626,2.743 -3.84,2.831" style="fill:none;stroke:#445;stroke-width:2px;"/></g></g><path d="M60.636,233.646c14.575,-1.217 67.552,-4.324 117.604,-3.153" style="fill:none;stroke:#445;stroke-width:5px;"/><path d="M194.296,230.006c0.206,-0.242 91.738,-1.512 122.122,3.579" style="fill:none;stroke:#82b7d1;stroke-width:5px;"/></g></g><g id="browser"><path d="M392.217,26.049c-5.115,-1.119 -14.735,-1.889 -26.276,-2.651c-19.236,-1.269 -43.809,-2.512 -61.765,-5.298c-5.024,-0.779 -10.086,-1.286 -15.111,-2.059c-6.056,-0.932 -13.494,-2.397 -19.256,0.598c-3.998,2.078 -6.425,6.37 -8.317,10.287c-4.154,8.597 -17.077,47.199 -20.313,57.444c-1.382,4.376 -5.514,15.056 -3.918,19.637c1.844,5.29 8.25,5.642 13.46,6.484c4.209,0.68 61.819,10.951 86.746,13.968c7.644,0.925 15.239,1.722 22.878,2.777c17.198,2.377 31.003,7.253 34.287,-15.13c1.637,-11.163 11.248,-52.551 13.207,-60.519c1.007,-4.093 2.306,-8.712 1.333,-12.927c-1.406,-6.088 -3.312,-9.627 -16.955,-12.611Z" style="fill:#bad7e6;"/><g id="back-button1" serif:id="back-button"><path d="M274.667,21.142c1.982,-1.973 6.655,-1.956 9,1.525c2.399,3.562 1.165,6.074 -1.336,7.755c-3.11,2.091 -7.542,0.632 -9.019,-2.277c-1.477,-2.909 -0.627,-5.029 1.355,-7.003Z" style="fill:#ecf4f8;"/><path d="M275.803,25.512c2.282,0.113 4.443,0.412 6.66,0.983" style="fill:none;stroke:#82b7d1;stroke-width:2px;"/><path d="M277.748,23.096c0,0 -2.406,1.262 -2.414,2.308c-0.009,1.045 1.791,2.751 1.791,2.751" style="fill:none;stroke:#82b7d1;stroke-width:2px;"/></g><path d="M290.76,25.273c-0.429,2.998 -1.048,5.93 0.995,7.512c3.306,2.562 10.682,2.805 15.438,3.162c10.708,0.804 21.236,2.174 31.877,3.698c12.347,1.768 24.756,3.648 37.142,5.222c6.168,0.784 12.387,0.984 18.57,1.61c2.33,0.236 5.609,0.992 7.377,-1.012c0.616,-0.697 1.019,-1.666 1.374,-2.513c3.763,-8.978 -11.438,-8.26 -16.755,-8.808c-13.529,-1.394 -27.435,-2.734 -40.913,-4.555c-10.04,-1.357 -19.69,-3.191 -29.717,-4.436c-5.806,-0.721 -11.623,-1.31 -17.431,-1.972c-2.297,-0.262 -7.35,-2.138 -7.957,2.092Z" style="fill:#ecf4f8;"/><g id="address1" serif:id="address"><path d="M301.001,26.277c0.448,1.315 0.729,4.571 -0.534,5.614c-0.902,0.745 -2.562,0.136 -2.639,-1.785c-0.474,2.602 -6.091,2.81 -2.183,-4.328" style="fill:none;stroke:#445;stroke-width:2px;"/><path d="M308.911,26.906c-3.189,-0.639 -4.083,1.19 -4.373,1.661c-0.229,0.372 -0.435,0.752 -0.557,1.193c-0.914,3.301 2.944,3.876 4.741,3.343" style="fill:none;stroke:#445;stroke-width:2px;"/><path d="M304.414,29.881c-0.107,0.001 2.307,-0.045 3.083,0.062" style="fill:none;stroke:#445;stroke-width:2px;"/><path d="M312.276,27.204c0.055,1.245 -1.177,6.743 -1.177,6.736" style="fill:none;stroke:#445;stroke-width:2px;"/><path d="M312.287,27.166c0,0 2.844,-0.045 3.007,1.817c0.164,1.862 -1.442,2.015 -1.442,2.015c0,0 2.628,1.435 1.65,2.839c-0.978,1.404 -4.344,0.074 -4.344,0.074" style="fill:none;stroke:#445;stroke-width:2px;"/><path d="M323.722,35.881c0.168,-0.973 1.739,-4.439 2.482,-5.711c0.214,-0.366 0.848,-1.506 1.413,-1.385c0.649,0.139 0.712,1.263 0.792,1.76c0.149,0.939 0.461,4.548 -0.007,5.783" style="fill:none;stroke:#445;stroke-width:2px;"/><path d="M325.59,32.954c0,-0.009 0.561,0.05 0.595,0.052c0.56,0.041 1.257,0.067 1.786,0.27" style="fill:none;stroke:#445;stroke-width:2px;"/><path d="M336.338,30.78c-1.192,-0.739 -2.241,-0.473 -2.67,-0.257c-1.745,0.878 -2.839,3.715 -1.576,5.359c0.306,0.399 0.71,0.745 1.165,0.969c0.386,0.191 0.843,0.328 1.277,0.329c1.243,0.001 2.245,-1.186 1.989,-2.415c-0.176,-0.843 -1.201,-1.616 -2.074,-1.338" style="fill:none;stroke:#445;stroke-width:2px;"/><path d="M342.684,31.696c-2.217,-0.244 -3.404,1.239 -3.755,2.309c-0.721,2.198 1.188,4.03 3.18,3.767" style="fill:none;stroke:#445;stroke-width:2px;"/><path d="M339.291,34.601c0,-0.073 2.138,0.254 2.841,0.327" style="fill:none;stroke:#445;stroke-width:2px;"/><path d="M344.559,37.885c-0.041,0.11 -0.115,0.376 -0.124,0.44" style="fill:none;stroke:#445;stroke-width:2px;"/><path d="M347.71,32.77c0,1.196 -0.464,5.423 -0.714,6.175" style="fill:none;stroke:#445;stroke-width:2px;"/><path d="M352.048,33.601c-0.154,1.201 -1.425,4.625 -1.717,6.085" style="fill:none;stroke:#445;stroke-width:2px;"/><path d="M347.612,35.857c0.781,0.127 2.035,0.312 2.624,0.412" style="fill:none;stroke:#445;stroke-width:2px;"/><path d="M356.776,34.916c-0.007,-0.066 -0.031,0.128 -0.047,0.193c-0.034,0.139 -0.06,0.282 -0.093,0.422c-0.099,0.422 -0.211,0.84 -0.318,1.26c-0.298,1.167 -0.61,2.332 -0.923,3.496" style="fill:none;stroke:#445;stroke-width:2px;"/><path d="M354.387,34.26c1.688,-0.187 3.52,0.34 5.162,0.648" style="fill:none;stroke:#445;stroke-width:2px;"/><path d="M360.187,40.587c-0.18,-0.362 0.068,-2.609 0.582,-3.524c0.514,-0.915 1.395,-2.2 2.355,-1.987c0.959,0.213 0.836,2.179 0.836,2.179c0,0 1.418,-1.751 2.273,-1.61c1.889,0.311 0.072,4.53 -1.245,5.472" style="fill:none;stroke:#445;stroke-width:2px;"/><path d="M370.894,36.18c-0.42,2.199 -2.812,5.326 -2.39,5.406c0.453,0.086 2.605,0.38 3.349,0.708" style="fill:none;stroke:#445;stroke-width:2px;"/><path d="M319.518,28.193c-0.557,2.121 -1.024,4.269 -1.362,6.436" style="fill:none;stroke:#445;stroke-width:2px;"/><path d="M319.576,28.103c0,0 3.138,-0.028 3.089,1.897c-0.042,1.666 -2.075,1.671 -2.927,1.623" style="fill:none;stroke:#445;stroke-width:2px;"/></g><path d="M401.189,56.278c-0.68,5.046 -1.964,9.202 -3.532,15.727c-2.692,11.201 -4.258,22.053 -6.929,33.263c-1.356,5.689 -2.227,16.167 -8.453,18.528c-3.019,1.146 -6.423,0.04 -9.489,-0.289c-7.483,-0.802 -14.546,-1.964 -21.876,-3.789c-9.855,-2.453 -66.193,-9.517 -76.834,-11.5c-3.656,-0.681 -10.716,-1.846 -14.372,-2.562c-8.285,-1.621 -16.696,-1.368 -16.726,-7.636c-0.007,-1.53 2.162,-9.66 2.433,-11.155c0.826,-4.551 1.673,-7.845 3.381,-12.078c3.606,-8.94 5.415,-16.828 8.467,-25.975c1.491,-4.469 3.833,-12.842 8.44,-15.077c2.09,-1.014 6.232,-0.22 8.372,0.198c5.187,1.015 11.609,0.837 16.834,1.908c10.634,2.181 19.765,3.583 30.527,4.764c7.465,0.819 60.301,8.742 67.178,9.136c4.884,0.279 13.258,1.492 12.579,6.537Z" style="fill:#ecf4f8;"/><path d="M277.991,88.906c4.81,0.875 13.673,2.536 18.457,3.535" style="fill:none;stroke:#445;stroke-width:2px;"/><path d="M330.992,98.107c6.261,1.956 12.857,2.543 19.256,3.877" style="fill:none;stroke:#445;stroke-width:2px;"/><path d="M371.413,60.195c-0.909,-0.082 -1.528,-0.777 -2.426,-1.379c-0.277,-0.185 -1.697,-1.213 -1.848,-1.494c-0.559,-1.037 1.467,-3.441 1.069,-4.791c-0.497,-1.684 -4.159,-2.076 -5.55,-2.215c-0.57,-0.057 -1.321,-0.164 -1.826,0.18c-1.749,1.192 -0.986,3.764 -1.778,5.36c-0.37,0.745 -1.714,1.252 -2.504,1.338c-2.629,0.285 -2.106,-3.022 -3.731,-4.157c-0.978,-0.682 -2.412,-0.434 -4.204,0.372c-1.614,0.726 -3.295,1.487 -3.42,2.837c-0.047,0.509 0.314,1.194 0.561,1.584c0.47,0.741 1.097,1.126 1.728,1.732c0.272,0.261 0.902,0.655 1.019,1.023c0.351,1.113 -0.904,2.866 -1.451,3.793c-0.496,0.842 -1.419,0.811 -2.296,0.683c-1.239,-0.18 -3.164,-0.742 -4.382,-0.437c-0.754,0.188 -1.037,1.05 -1.178,1.705c-0.34,1.575 -0.17,3.317 0.01,4.905c0.1,0.877 1.202,1.266 2.008,1.292c1.594,0.051 3.409,-0.515 3.965,1.413c0.225,0.779 0.691,2.354 0.199,3.086c-1.274,1.892 -5.093,1.313 -4.456,4.378c0.093,0.45 0.313,0.868 0.517,1.276c0.231,0.464 0.546,0.908 0.903,1.289c0.799,0.852 2.339,2.592 3.652,2.467c1.142,-0.109 2.217,-0.835 3.097,-1.508c0.444,-0.34 0.941,-0.937 1.51,-1.044c0.634,-0.119 1.267,0.215 1.814,0.475c0.503,0.239 1.395,0.569 1.623,1.085c0.944,2.138 -2.266,5.099 0.812,6.319c2,0.794 5.671,1.732 6.994,-0.413c0.828,-1.341 0.142,-4.18 1.977,-4.599c1.444,-0.329 2.911,-0.139 3.774,1.152c0.838,1.255 0.991,3.412 3.014,3.066c1.87,-0.32 3.453,-2.317 4.498,-3.696c0.513,-0.677 0.977,-1.395 0.777,-2.269c-0.366,-1.605 -2.703,-2.127 -2.134,-3.868c0.094,-0.285 0.247,-0.564 0.409,-0.818c0.341,-0.534 0.827,-1.686 1.48,-1.861c1.629,-0.437 4.431,1.868 5.613,-0.026c0.212,-0.339 0.348,-0.682 0.476,-1.057c0.539,-1.579 1.921,-4.493 0.239,-5.868c-0.959,-0.785 -2.477,-0.819 -3.666,-0.986c-0.581,-0.082 -1.154,-0.073 -1.554,-0.562c-0.382,-0.467 -0.632,-1.224 -0.705,-1.794c-0.129,-1.004 -0.443,-1.704 0.391,-2.439c1.231,-1.085 4.401,-1.349 3.995,-3.386c-0.305,-1.53 -2.649,-4.98 -4.23,-5.092c-1.581,-0.111 -3.875,3.031 -4.785,2.949Zm-8.371,5.701c2.256,1.282 4.613,5.655 3.061,8.571c-0.587,1.104 -1.858,1.846 -2.973,2.37c-0.938,0.441 -1.924,0.524 -2.94,0.337c-2.487,-0.457 -4.663,-1.838 -5.633,-4.162c-1.553,-3.722 2.052,-6.425 3.091,-6.811c1.039,-0.385 3.138,-1.587 5.394,-0.305Z" style="fill:#82b7d1;"/><path d="M304.992,101.106c0.001,-0.126 3.57,0.611 3.77,0.657c2.377,0.547 4.991,0.893 7.303,1.664" style="fill:none;stroke:#445;stroke-width:2px;"/></g><g id="rays"><path d="M224.332,114.218c-1.643,0.849 -3.328,1.619 -5.011,2.385" style="fill:none;stroke:#ff0078;stroke-width:6.5px;"/><path d="M231.66,127.548c-10.444,9.19 -12.588,10.753 -23.327,19.601" style="fill:none;stroke:#ff0078;stroke-width:6.5px;"/><path d="M268.329,142.884c-6.903,14.721 -8.615,19.077 -15.501,33.774" style="fill:none;stroke:#ff0078;stroke-width:6.5px;"/><path d="M247.663,136.884c-1.06,1.262 -2.043,2.594 -3.08,3.875" style="fill:none;stroke:#ff0078;stroke-width:6.5px;"/><path d="M313.665,148.884c-3.828,21.68 -4.731,29.195 -10.421,50.467" style="fill:none;stroke:#ff0078;stroke-width:6.5px;"/><path d="M290.329,149.551c-2.366,7.332 -2.849,8.785 -5.64,15.968" style="fill:none;stroke:#ff0078;stroke-width:6.5px;"/><path d="M355.663,151.551c6.298,17.742 7.46,21.734 15.171,38.953" style="fill:none;stroke:#ff0078;stroke-width:6.5px;"/><path d="M335.663,152.884c0.731,4.023 0.931,4.978 1.656,9.002" style="fill:none;stroke:#ff0078;stroke-width:6.5px;"/><path d="M384.327,147.548c1.714,2.436 3.472,4.846 5.233,7.248" style="fill:none;stroke:#ff0078;stroke-width:6.5px;"/></g></svg>