<?xml version="1.0" encoding="UTF-8" standalone="no"?><!DOCTYPE svg PUBLIC "-//W3C//DTD SVG 1.1//EN" "http://www.w3.org/Graphics/SVG/1.1/DTD/svg11.dtd"><svg width="100%" height="100%" viewBox="0 0 500 240" version="1.1" xmlns="http://www.w3.org/2000/svg" xmlns:xlink="http://www.w3.org/1999/xlink" xml:space="preserve" xmlns:serif="http://www.serif.com/" style="fill-rule:evenodd;clip-rule:evenodd;stroke-linecap:round;stroke-linejoin:round;stroke-miterlimit:1.5;"><rect id="backpacker" x="0" y="0" width="500" height="240" style="fill:none;"/><g id="backpacker1" serif:id="backpacker"><path d="M282.66,197.506c3.1,4.368 15.851,6.04 21.826,1.895" style="fill:none;stroke:#445;stroke-width:2.5px;"/><path d="M304.485,199.291c0.073,-0.159 -2.299,-1.88 -2.435,-2.011c-1.669,-1.618 -4.851,-6.108 -2.403,-8.419c1.267,-1.196 2.4,-0.108 2.935,1.234c0.945,2.366 1.903,9.196 1.903,9.196Z" style="fill:#445;stroke:#445;stroke-width:2.5px;"/><path d="M242.807,198.98c0.13,5.354 -4.431,9.393 -8.115,9.484" style="fill:none;stroke:#445;stroke-width:2.5px;"/><path d="M246.065,212.07c-2.439,-1.567 -12.666,-4.431 -12.201,-3.31c0.401,0.966 2.919,5.152 5.771,5.148c3.332,-0.006 9.724,0.277 6.43,-1.838Z" style="fill:#445;stroke:#445;stroke-width:2.5px;"/><path d="M294.936,175.348c1.59,-0.849 2.881,-2.874 2.181,-5.437" style="fill:none;stroke:#ffe5f2;stroke-width:3px;"/><path d="M276.824,167.823c0,0 21.08,0.347 21.1,11.453c0.019,11.106 -39.339,13.027 -39.339,13.027" style="fill:none;stroke:#82b7d1;stroke-width:5.5px;"/><path d="M208.597,135.022c-12.01,14.382 -23.909,37.513 -25.529,47.108c-5.288,31.332 28.069,29.076 37.476,27.216c5.64,-1.114 21.219,-9.727 26.161,-12.872c2.109,-1.342 13.47,-43.486 13.47,-43.486c0,0 -27.46,-22.733 -28.736,-22.812c0,0 -10.833,-9.536 -22.842,4.846Z" style="fill:#bad7e6;"/><clipPath id="_clip1"><path d="M208.597,135.022c-12.01,14.382 -23.909,37.513 -25.529,47.108c-5.288,31.332 28.069,29.076 37.476,27.216c5.64,-1.114 21.219,-9.727 26.161,-12.872c2.109,-1.342 13.47,-43.486 13.47,-43.486c0,0 -27.46,-22.733 -28.736,-22.812c0,0 -10.833,-9.536 -22.842,4.846Z"/></clipPath><g clip-path="url(#_clip1)"><path d="M179.987,182.584c2.049,3.305 7.738,4.753 9.209,5.011c4.683,0.821 10.792,0.397 14.392,-2.685c6.276,-5.371 9.817,-35.338 37.708,-29.57" style="fill:none;stroke:#82b7d1;stroke-width:3px;"/></g><path d="M281.28,175.704c0.355,0 0.009,6.251 5.521,6.234c2.98,-0.009 6.21,-2.618 6.21,-5.497c-2.088,-0.717 -2.905,-2.431 -1.996,-5.499" style="fill:none;stroke:#ffe5f2;stroke-width:3px;"/><path d="M229.11,124.588c-3.989,-1.786 -11.369,-2.723 -19.504,2.416c-9.075,5.733 -9.094,13.807 -20.865,19.591c-1.278,0.628 0.083,3.113 1.22,3.128c3.488,0.045 7.775,0.418 10.925,-0.804c13.015,-5.051 17.684,-0.703 19.897,1.524c4.167,4.197 17.97,6.346 19.535,5.254l-11.208,-31.109Z" style="fill:#82b7d1;"/><path d="M244.95,159.641c-3.604,4.089 -5.981,9.577 -8.048,14.8c-1.935,4.89 -3.625,10.021 -4.782,15.225c-0.45,2.021 -1.232,4.725 -0.596,6.81c1.102,3.61 6.144,3.941 8.856,4.314c8.93,1.228 17.669,0.778 26.61,-0.186c4.931,-0.531 9.852,-1.172 14.782,-1.712c1.871,-0.205 5.19,0.214 6.863,-1.142c1.557,-1.262 -0.585,-4.113 -1.1,-5.429c-1.662,-4.245 -2.133,-8.818 -1.789,-13.419c0.321,-4.285 1.15,-8.533 2.094,-12.69c0.321,-1.412 1.808,-4.096 1.403,-5.588c-0.847,-3.116 -5.761,-4.44 -8.05,-4.992c-8.789,-2.12 -18.046,-0.036 -26.175,3.982" style="fill:#ff0078;"/><path d="M237.431,152.118c-5.333,-15.031 6.283,-24.563 7.608,-26.447c5.572,-7.923 15.741,-14.701 25.79,-14.053c7.732,0.499 19.558,9.351 22.065,16.471c1.103,3.133 -0.58,7.328 -0.29,7.617c0.961,0.957 12.375,2.321 14.17,7.307c4.108,11.417 -7.562,22.513 -17.162,25.893c-16.448,5.79 -46.848,-1.757 -52.181,-16.788Z" style="fill:#ffe5f2;"/><path d="M266.682,128.94c-2.024,0 -3.22,2.701 -3.474,3.586c-0.63,2.19 -0.351,7.619 2.96,7.708c3.31,0.09 3.645,-6.444 3.356,-8.503c-0.18,-1.279 -0.818,-2.791 -2.842,-2.791Z" style="fill:#445;"/><path d="M287.808,131.299c-1.34,-0.379 -2.516,2.33 -3.045,3.578c-0.684,1.615 -1,3.669 -0.455,5.369c1.174,3.666 3.843,1.01 4.608,-1.286c0.325,-0.974 0.477,-2.005 0.503,-3.03c0.034,-1.398 -0.271,-4.253 -1.611,-4.631Z" style="fill:#445;"/><path d="M273.174,141.732c-0.023,5.847 9.081,6.234 9.742,0.269" style="fill:none;stroke:#445;stroke-width:2px;"/><path d="M182.679,155.927c-1.343,-0.151 -3.933,-1.774 -0.162,-5.98c1.289,-1.437 5.346,-3.836 6.71,-1.186c0.295,0.573 0.382,1.229 0.375,1.866c-0.033,2.82 -1.717,4.084 -4.23,4.878c-0.844,0.267 -1.798,0.523 -2.693,0.422Z" style="fill:#445;"/><path d="M243.563,130.566c0,-1.321 -2.052,-2.79 -2.897,-3.475c-3.363,-2.727 -8.557,-5.727 -12.684,-2.974c-12.116,8.079 -1.32,27.406 11.424,26.343" style="fill:#ffe5f2;"/><path d="M251.226,172.239c-0.005,1.211 -0.482,4.726 2.086,5.621" style="fill:none;stroke:#ffe5f2;stroke-width:3px;"/><path d="M229.784,166.063c0,0 26.52,0.507 26.54,11.613c0.02,11.107 -38.54,23.107 -38.54,23.107" style="fill:none;stroke:#82b7d1;stroke-width:5.5px;"/><path d="M241.84,172.62c-4.658,6.414 0.232,10.516 3.801,11.065c2.528,0.389 4.83,-0.587 6.058,-2.854c0.441,-0.814 0.734,-2.546 0.891,-3.46c4.145,2.241 7.499,-2.028 5.073,-6.145" style="fill:none;stroke:#ffe5f2;stroke-width:3px;"/></g><g id="browser"><path d="M31.956,48.228c13.642,-2.984 59.312,-3.492 88.042,-7.949c5.024,-0.779 10.086,-1.287 15.111,-2.06c6.055,-0.931 13.494,-2.396 19.255,0.599c3.998,2.078 6.425,6.37 8.317,10.286c4.155,8.597 17.077,47.2 20.313,57.445c1.382,4.376 5.514,15.056 3.918,19.637c-1.844,5.29 -8.249,5.642 -13.46,6.484c-4.209,0.68 -61.818,10.95 -86.746,13.967c-7.644,0.925 -15.238,1.722 -22.878,2.778c-17.198,2.377 -31.003,7.253 -34.286,-15.13c-1.638,-11.163 -11.249,-52.551 -13.208,-60.519c-1.007,-4.094 -2.306,-8.712 -1.332,-12.928c1.405,-6.088 3.312,-9.626 16.954,-12.61Z" style="fill:#bad7e6;"/><path d="M22.389,59.9c0.868,-2.659 5.038,-4.768 8.709,-2.734c3.756,2.081 3.799,4.879 2.336,7.514c-1.818,3.276 -6.429,3.992 -9.067,2.073c-2.639,-1.918 -2.846,-4.194 -1.978,-6.853Z" style="fill:#ecf4f8;"/><path d="M25.388,63.276c2.084,-0.937 4.144,-1.653 6.379,-2.153" style="fill:none;stroke:#82b7d1;stroke-width:2px;"/><path d="M26.022,60.24c0,0 -1.569,2.218 -1.101,3.152c0.467,0.935 2.846,1.636 2.846,1.636" style="fill:none;stroke:#82b7d1;stroke-width:2px;"/><path d="M38.316,57.784c0.314,3.012 0.429,6.006 2.796,7.043c3.831,1.678 11.044,0.115 15.743,-0.698c10.581,-1.831 21.125,-3.07 31.817,-4.187c12.405,-1.296 24.898,-2.498 37.294,-3.992c6.173,-0.743 12.253,-2.066 18.402,-2.966c2.317,-0.339 5.682,-0.406 6.908,-2.78c0.427,-0.827 0.582,-1.865 0.719,-2.773c1.461,-9.625 -13.106,-5.221 -18.397,-4.456c-13.461,1.947 -27.274,4.037 -40.789,5.558c-10.067,1.132 -19.873,1.707 -29.901,2.944c-5.807,0.717 -11.592,1.564 -17.386,2.337c-2.291,0.306 -7.65,-0.281 -7.206,3.97Z" style="fill:#ecf4f8;"/><path d="M22.985,78.457c0.679,5.046 1.963,9.201 3.531,15.727c2.693,11.2 4.258,22.052 6.929,33.262c1.356,5.689 2.228,16.167 8.453,18.529c3.02,1.146 6.423,0.04 9.489,-0.289c7.483,-0.803 14.547,-1.965 21.876,-3.789c9.855,-2.453 66.193,-9.517 76.834,-11.5c3.657,-0.681 10.716,-1.847 14.372,-2.562c8.285,-1.621 16.696,-1.368 16.726,-7.637c0.007,-1.529 -2.161,-9.659 -2.433,-11.154c-0.826,-4.551 -1.673,-7.846 -3.381,-12.079c-3.606,-8.939 -5.415,-16.827 -8.466,-25.974c-1.491,-4.47 -3.834,-12.843 -8.441,-15.078c-2.09,-1.014 -6.231,-0.219 -8.371,0.199c-5.188,1.014 -11.61,0.837 -16.835,1.908c-10.633,2.18 -19.764,3.583 -30.527,4.764c-7.464,0.819 -60.301,8.742 -67.178,9.135c-4.884,0.28 -13.258,1.492 -12.578,6.538Z" style="fill:#ecf4f8;"/><path d="M78.966,119.388c1.109,-2.384 6.629,-4.127 8.516,-1.319c1.887,2.808 2.076,5.184 0.377,6.912c-1.699,1.728 -5.286,2.808 -7.363,1.296c-2.077,-1.512 -2.64,-4.506 -1.53,-6.889Z" style="fill:#445;"/><path d="M129.652,111.008c2.233,-2.272 6.449,-2.097 7.69,0c1.242,2.096 1.747,4.465 -0.039,6.563c-1.916,2.253 -5.631,2.098 -7.379,0.35c-1.747,-1.748 -2.487,-4.661 -0.272,-6.913Z" style="fill:#445;"/><path d="M104.086,123.718c1.62,2.357 6.627,4.168 7.324,4.269c1.516,0.22 4.548,-5.19 4.654,-6.425" style="fill:none;stroke:#445;stroke-width:2px;"/><g id="address"><path d="M44.061,57.061c0,2.193 0.094,4.388 0.318,6.57" style="fill:none;stroke:#445;stroke-width:2px;"/><path d="M43.816,56.979c0.846,-0.116 2.176,-0.507 2.989,-0.058c1.741,0.961 -0.481,2.694 -1.557,2.912" style="fill:none;stroke:#445;stroke-width:2px;"/><path d="M52.939,55.961c0,0 -1.831,-0.021 -2.785,1.446c-1.03,1.585 -0.881,4.815 1.537,4.95c1.78,0.099 3.471,-1.614 3.762,-3.283c0.272,-1.554 -0.941,-3.012 -2.514,-3.113Z" style="fill:none;stroke:#445;stroke-width:2px;"/><path d="M58.636,55.669c-0.201,0.423 -0.247,0.821 -0.322,1.172c-0.213,0.996 -0.338,2.146 0.02,3.122c0.602,1.641 2.959,1.656 3.867,0.282c1.05,-1.587 0.481,-3.487 -0.404,-4.966" style="fill:none;stroke:#445;stroke-width:2px;"/><path d="M65.473,54.507c0,-0.063 -0.001,0.124 0,0.186c0.003,0.141 0.01,0.283 0.017,0.424c0.02,0.378 0.049,0.755 0.074,1.132c0.076,1.157 0.168,2.311 0.316,3.461c0.038,0.297 0.07,0.596 0.116,0.892" style="fill:none;stroke:#445;stroke-width:2px;"/><path d="M71.909,53.909c-0.722,-0.327 -2.782,-0.268 -3.323,2.23c-0.091,0.418 -0.171,0.843 -0.144,1.273c0.191,3.058 3.229,2.775 4.879,1.276" style="fill:none;stroke:#445;stroke-width:2px;"/><path d="M75.795,58.356l0.6,-0.181" style="fill:none;stroke:#445;stroke-width:2px;"/><path d="M82.099,52.458c-1.898,-0.139 -2.622,1.108 -2.926,1.8c-0.747,1.701 0.165,3.871 2.199,3.895c0.885,0.011 1.685,-0.439 2.324,-1.011" style="fill:none;stroke:#445;stroke-width:2px;"/><path d="M87.972,51.78c0,0 -2.202,0.33 -2.226,2.808c-0.014,1.503 1.287,2.656 2.795,2.427c1.566,-0.238 2.505,-1.924 2.214,-3.421c-0.231,-1.188 -1.58,-2.146 -2.783,-1.814Z" style="fill:none;stroke:#445;stroke-width:2px;"/><path d="M94.451,56.138c-0.681,-1.088 -1.55,-3.917 -0.499,-5.045c0.751,-0.806 2.494,-0.54 2.92,1.144c-0.009,-2.376 5.477,-3.48 2.936,3.464" style="fill:none;stroke:#445;stroke-width:2px;"/></g></g><g id="browser-with-address"><path d="M468.217,42.716c-5.115,-1.119 -14.735,-1.89 -26.276,-2.651c-19.236,-1.269 -43.809,-2.512 -61.765,-5.298c-5.024,-0.779 -10.086,-1.286 -15.111,-2.06c-6.056,-0.931 -13.494,-2.396 -19.256,0.599c-3.998,2.078 -6.425,6.37 -8.317,10.286c-4.154,8.597 -17.077,47.2 -20.313,57.445c-1.382,4.376 -5.514,15.056 -3.918,19.637c1.844,5.29 8.25,5.642 13.46,6.484c4.209,0.68 61.819,10.95 86.746,13.967c7.644,0.925 15.239,1.722 22.878,2.778c17.198,2.377 31.003,7.253 34.287,-15.13c1.637,-11.163 11.248,-52.551 13.207,-60.519c1.007,-4.094 2.306,-8.712 1.333,-12.928c-1.406,-6.088 -3.312,-9.626 -16.955,-12.61Z" style="fill:#bad7e6;"/><g id="back-button"><path d="M350.667,37.809c1.982,-1.974 6.655,-1.957 9,1.525c2.399,3.562 1.165,6.073 -1.336,7.755c-3.11,2.09 -7.542,0.632 -9.019,-2.277c-1.477,-2.909 -0.627,-5.03 1.355,-7.003Z" style="fill:#ecf4f8;"/><path d="M351.803,42.179c2.282,0.113 4.443,0.412 6.66,0.983" style="fill:none;stroke:#82b7d1;stroke-width:2px;"/><path d="M353.748,39.763c0,0 -2.406,1.262 -2.414,2.307c-0.009,1.046 1.791,2.752 1.791,2.752" style="fill:none;stroke:#82b7d1;stroke-width:2px;"/></g><path d="M366.76,41.94c-0.429,2.998 -1.048,5.929 0.995,7.512c3.306,2.562 10.682,2.804 15.438,3.162c10.708,0.804 21.236,2.174 31.877,3.698c12.347,1.768 24.756,3.648 37.142,5.222c6.168,0.784 12.387,0.984 18.57,1.61c2.33,0.236 5.609,0.992 7.377,-1.012c0.616,-0.697 1.019,-1.667 1.374,-2.513c3.763,-8.979 -11.438,-8.26 -16.755,-8.808c-13.529,-1.394 -27.435,-2.735 -40.913,-4.556c-10.04,-1.356 -19.69,-3.19 -29.717,-4.435c-5.806,-0.721 -11.623,-1.31 -17.431,-1.973c-2.297,-0.262 -7.35,-2.138 -7.957,2.093Z" style="fill:#ecf4f8;"/><path d="M477.189,72.945c-0.68,5.046 -1.964,9.201 -3.532,15.727c-2.692,11.2 -4.258,22.053 -6.929,33.262c-1.356,5.689 -2.227,16.167 -8.453,18.529c-3.019,1.146 -6.423,0.04 -9.489,-0.289c-7.483,-0.803 -14.546,-1.965 -21.876,-3.789c-9.855,-2.453 -66.193,-9.517 -76.834,-11.5c-3.656,-0.681 -10.716,-1.847 -14.372,-2.562c-8.285,-1.621 -16.696,-1.368 -16.726,-7.637c-0.007,-1.529 2.162,-9.659 2.433,-11.154c0.826,-4.551 4.074,-14.245 5.782,-18.478c3.606,-8.939 5.614,-13.829 8.665,-22.976c1.491,-4.469 1.234,-9.442 5.841,-11.677c2.09,-1.014 6.232,-0.219 8.372,0.199c5.187,1.014 11.011,1.637 16.236,2.709c10.633,2.18 47.163,6.382 57.925,7.563c7.465,0.819 33.501,5.142 40.378,5.536c4.884,0.279 13.258,1.491 12.579,6.537Z" style="fill:#ecf4f8;"/><g id="clapou-address"><path d="M392.794,51.088c0,-0.879 0.095,-1.763 0.14,-2.642c0.044,-0.852 0.071,-1.706 0.151,-2.557c0.023,-0.241 0.022,-0.744 0.226,-0.938c0.27,-0.257 1.167,-0.411 2.599,0.305c1.432,0.715 1.683,2.742 -0.69,3.24c-0.443,0.092 -0.883,0.17 -1.342,0.15" style="fill:none;stroke:#445;stroke-width:2px;"/><path d="M402.661,46.663c0,0 -1.171,-0.414 -2.113,0.178c-0.702,0.442 -1.194,1.196 -1.325,2.016c-0.089,0.555 -0.031,1.132 0.162,1.66c0.144,0.395 0.372,0.759 0.658,1.067c2.509,2.706 6.591,-1.804 3.944,-4.226c-0.372,-0.34 -0.851,-0.546 -1.326,-0.695Z" style="fill:none;stroke:#445;stroke-width:2px;"/><path d="M409.221,47.626c0,-0.089 -0.124,0.121 -0.178,0.189c-0.127,0.159 -0.249,0.325 -0.355,0.501c-0.288,0.478 -0.524,1.002 -0.704,1.536c-0.535,1.582 -0.02,3.354 1.546,3.934c2.899,1.074 5.185,-3.339 3.4,-5.713" style="fill:none;stroke:#445;stroke-width:2px;"/><path d="M415.057,54.045c0.236,0.171 0.637,0.272 0.841,0.291" style="fill:none;stroke:#445;stroke-width:2px;"/><path d="M423.346,49.376c-0.412,-0.185 -0.866,-0.296 -1.315,-0.318c-1.258,-0.062 -2.496,0.716 -2.876,1.966c-0.861,2.838 2.17,4.912 4.579,3.974" style="fill:none;stroke:#445;stroke-width:2px;"/><path d="M428.861,55.992c1.686,0.449 4.82,-1.478 2.595,-4.639c-1.333,-1.893 -4.223,-0.647 -4.761,0.927c-0.538,1.574 0.487,3.264 2.166,3.712Z" style="fill:none;stroke:#445;stroke-width:2px;"/><path d="M436.22,57.019c-0.96,-0.96 -1.514,-4.167 -0.001,-5.103c0.788,-0.488 1.985,-0.289 2.683,1.719c0.466,-1.964 1.99,-2.04 2.814,-1.466c1.302,0.908 1.369,3.687 -1.008,5.406" style="fill:none;stroke:#445;stroke-width:2px;"/><path d="M386.18,48.287c0.242,-0.06 2.213,0.086 2.9,0.081" style="fill:none;stroke:#445;stroke-width:2px;"/><path d="M375.999,42.465c-0.628,-0.178 -1.528,-0.174 -1.831,-0.179c-2.746,-0.042 -5.807,3.572 -2.774,5.804c0.409,0.301 0.877,0.517 1.358,0.643c0.724,0.19 1.47,0.071 2.171,-0.159" style="fill:none;stroke:#445;stroke-width:2px;"/><path d="M379.644,42.741c0,0.727 -1.201,3.753 -1.374,4.288c-0.104,0.321 -0.203,0.649 -0.264,0.981c-0.432,2.353 3.07,1.489 4.205,1.868" style="fill:none;stroke:#445;stroke-width:2px;"/><path d="M385.116,50.559c0.307,-1.396 0.704,-6.428 3.019,-6.65c3.157,-0.303 1.307,7.122 1.307,6.939" style="fill:none;stroke:#445;stroke-width:2px;"/></g><path d="M371.793,94.924c-5.239,0.264 -5.728,2.378 -6.117,3.122c-2.192,4.188 2.579,9.201 6.896,8.001c7.333,-2.037 4.46,-11.387 -0.779,-11.123Z" style="fill:#445;"/><path d="M409.753,99.013c-3.381,-0.484 -4.996,0.603 -5.132,0.666c-1.714,0.794 -3.253,2.051 -3.587,4.027c-0.803,4.748 5.275,7.448 9.059,6.018c2.276,-0.859 3.347,-3.34 3.791,-5.563c0.261,-1.304 -0.751,-4.664 -4.131,-5.148Z" style="fill:#445;"/><path d="M382.543,103.818c-0.513,3.559 0.423,7.86 3.685,8.421c3.263,0.561 6.986,-2.56 6.823,-7.463" style="fill:none;stroke:#445;stroke-width:2px;"/></g></svg>