<?xml version="1.0" encoding="UTF-8" standalone="no"?><!DOCTYPE svg PUBLIC "-//W3C//DTD SVG 1.1//EN" "http://www.w3.org/Graphics/SVG/1.1/DTD/svg11.dtd"><svg width="100%" height="100%" viewBox="0 0 320 200" version="1.1" xmlns="http://www.w3.org/2000/svg" xmlns:xlink="http://www.w3.org/1999/xlink" xml:space="preserve" xmlns:serif="http://www.serif.com/" style="fill-rule:evenodd;clip-rule:evenodd;stroke-linecap:round;stroke-linejoin:round;stroke-miterlimit:1.5;"><rect id="laser-dino" x="0" y="0" width="320" height="200" style="fill:none;"/><g id="dino"><path d="M203.254,129.451c0,-0.055 1.149,0.735 1.233,0.804c0.743,0.612 1.468,1.247 2.215,1.854c2.369,1.925 4.993,4.752 7.887,5.91" style="fill:none;stroke:#82b7d1;stroke-width:3px;"/><path d="M197.794,130.114c0.547,0.28 1.143,0.461 1.808,0.487c4.299,0.165 5.469,-10.432 -3.183,-8.479" style="fill:none;stroke:#82b7d1;stroke-width:3px;"/><path d="M180.184,59.445c0,-1.972 -1.226,-4.436 -1.226,-6.662c0,-1.31 0.028,-2.696 0.435,-3.954c2.074,-6.405 8.433,-3.948 11.823,-0.396c0.667,0.699 4.113,4.677 4.567,2.432c0.811,-4.016 -2.207,-13.461 3.144,-15.164c3.108,-0.988 7.308,0.13 9.627,2.313c0.612,0.577 0.99,5.484 2.06,4.414c3.979,-3.981 -1.028,-15.293 5.216,-17.58c5.59,-2.049 10.429,8.444 10.429,8.444c0,0 0.731,-2.142 1.017,-3.146c0.991,-3.468 2.778,-8.606 6.999,-9.272c3.618,-0.571 5.107,5.188 5.694,7.769c0.193,0.851 0.349,3.297 1.601,3.401c1.556,0.13 1.285,-2.404 1.913,-3.471c1.408,-2.394 3.146,-6.868 7.818,-6.908c4.672,-0.04 4.553,7.254 4.31,9.564c-0.056,0.528 -1.099,2.548 -0.281,2.752c0.958,0.24 2.572,-1.254 3.283,-1.72c2.581,-1.691 6.881,-5.095 9.963,-2.589c3.426,2.784 0.383,8.757 -1.325,11.604c-0.278,0.462 -2.889,3.59 -2.372,3.935c0.63,0.42 2.425,-0.815 2.947,-1.068c2.107,-1.019 9.166,-4.332 10.358,-0.553c1.435,4.545 0.237,8.637 -2.591,12.296c-0.959,1.241 -1.964,2.463 -3.044,3.598c-0.098,0.102 -1.838,1.76 -1.759,1.839c0.535,0.533 3.89,-0.253 4.548,-0.276c3.612,-0.129 7.488,2.117 7.314,6.267c-0.153,3.629 -3.299,6.811 -5.813,9.073c-0.8,0.72 -3.68,2.773 -3.677,3.975c0.001,0.147 2.064,0.228 2.255,0.257c1.393,0.214 5.874,-0.787 7.109,2.474c1.235,3.26 -2.6,5.989 -4.58,8.063c-0.186,0.194 -3.334,2.743 -3.321,2.768c0.241,0.479 3.166,-0.132 3.599,-0.178c2.431,-0.256 4.168,0.548 5.1,2.946c2,5.145 -1.366,9.638 -5.023,12.889c-1.109,0.987 -2.225,1.93 -3.439,2.788c-0.607,0.428 -1.903,1.91 -1.897,1.167c0.001,-0.156 1.816,0.807 1.977,1.048c0.856,1.285 1.102,2.673 0.81,4.191c-0.83,4.313 -4.106,6.221 -6.92,9.035l-27.421,-82.263l-61.227,13.898Z" style="fill:#82b7d1;"/><path d="M214.827,33.79c-10.918,6.357 -31.055,19.074 -40.27,27.264c-4.183,3.718 -5.071,9.151 -5.466,14.486c-0.786,10.615 6.241,20.744 11.993,30.331c3.159,5.265 7.743,6.145 13.216,6.121c7.197,-0.03 10.572,-3.755 15.193,-8.704c3.455,-3.701 14.369,-19.552 17.123,-15.592c1.911,2.746 14.481,14.132 12.095,17.576c-3.812,5.503 -28.537,6.956 -30.846,11.787c-3.933,8.23 17.183,-3.712 20.929,0.539c1.939,2.2 -13.229,7.982 -18.763,14.105c-5.533,6.123 -11.063,16.972 -3.251,23.343c11.038,9 38.751,8.945 45.555,8.049c8.218,-1.081 24.568,-4.971 32.991,-12.567c7.729,-6.969 7.912,-17.682 7.717,-18.847c-0.307,-1.836 -2.98,-4.917 -6.884,-1.746c-4.536,3.683 -12.127,12.079 -14.323,2.63c-1.65,-7.094 4.81,-19.267 5.09,-42.367c0.281,-23.1 -14.089,-54.387 -19.936,-57.676c-7.89,-4.439 -31.246,-5.089 -42.163,1.268Z" style="fill:#bad7e6;"/><path d="M257.482,104.605c-0.94,2.016 -2.498,5.294 -4.014,8.119" style="fill:none;stroke:#82b7d1;stroke-width:3px;"/><path d="M255.352,100.244c0.113,0.587 0.3,1.148 0.565,1.651c2.702,5.11 7.526,1.258 9.619,-2.735" style="fill:none;stroke:#82b7d1;stroke-width:3px;"/><path d="M211.066,153.336c-0.706,0.249 -1.528,0.806 -1.675,0.898c-1.256,0.789 -2.43,1.794 -3.072,3.156c-0.923,1.958 -0.975,4.388 0.444,6.007c0.769,0.877 1.923,1.76 1.923,1.785c-0.004,0.551 -11.31,0.184 -11.379,0.045c-0.426,-0.854 2.208,-1.878 3.421,-1.944c1.212,-0.066 4.143,-0.757 5.647,0.75" style="fill:none;stroke:#82b7d1;stroke-width:3px;"/><path d="M263.456,154.469c3.11,-0.278 5.24,1.425 6.164,2.741c0.629,0.896 0.765,1.963 0.788,3.031c0.015,0.711 -0.08,1.425 -0.152,2.131c-0.05,0.483 -0.134,0.965 -0.236,1.44c-0.419,1.957 1.653,1.466 3.628,1.367c0.789,-0.039 1.577,-0.083 2.367,-0.083c0.488,0 3.463,0.579 3.86,0.18c0.551,-0.554 -3.751,-3.578 -8.787,-1.887" style="fill:none;stroke:#82b7d1;stroke-width:3px;"/><path d="M179.556,64.593c0,0 0.775,2.094 1.493,4.034c0.759,2.051 2.376,3.668 4.428,4.427c1.939,0.718 4.033,1.493 4.033,1.493c0,0 -2.094,0.775 -4.033,1.493c-2.052,0.759 -3.669,2.376 -4.428,4.428c-0.718,1.939 -1.493,4.033 -1.493,4.033c0,0 -0.775,-2.094 -1.492,-4.033c-0.759,-2.052 -2.377,-3.669 -4.428,-4.428c-1.94,-0.718 -4.034,-1.493 -4.034,-1.493c0,0 2.094,-0.775 4.034,-1.493c2.051,-0.759 3.669,-2.376 4.428,-4.427c0.717,-1.94 1.492,-4.034 1.492,-4.034Z" style="fill:#ff0078;stroke:#ff0078;stroke-opacity:0.301961;stroke-width:5px;"/><path d="M212.424,43.229c0,0 0.775,2.094 1.493,4.034c0.759,2.051 2.376,3.668 4.427,4.427c1.94,0.718 4.034,1.493 4.034,1.493c0,0 -2.094,0.775 -4.034,1.493c-2.051,0.759 -3.668,2.376 -4.427,4.428c-0.718,1.939 -1.493,4.033 -1.493,4.033c0,0 -0.775,-2.094 -1.493,-4.033c-0.759,-2.052 -2.376,-3.669 -4.428,-4.428c-1.939,-0.718 -4.033,-1.493 -4.033,-1.493c0,0 2.094,-0.775 4.033,-1.493c2.052,-0.759 3.669,-2.376 4.428,-4.427c0.718,-1.94 1.493,-4.034 1.493,-4.034Z" style="fill:#ff0078;stroke:#ff0078;stroke-opacity:0.301961;stroke-width:5px;"/></g><g id="first-pew"><path d="M20.652,50.034c-1.034,-0.831 -6.736,-11.009 -6.522,-14.574c0.331,-5.532 8.535,-6.958 12.552,-4.525c3.343,2.024 1.529,5.654 -1.151,7.154c-1.189,0.666 -2.538,1.162 -3.847,1.536c-1.831,0.523 -3.838,0.682 -5.659,0.679" style="fill:none;stroke:#ff0078;stroke-width:3px;"/><path d="M43.412,25.205c-1.197,0.329 -2.336,0.818 -3.405,1.453c-3.498,2.076 -6.511,5.587 -5.686,9.923c1.388,7.3 11.804,7.048 15.735,2.132" style="fill:none;stroke:#ff0078;stroke-width:3px;"/><path d="M36.412,37.218c2.905,-1.152 5.875,-2.395 8.87,-3.294" style="fill:none;stroke:#ff0078;stroke-width:3px;"/><path d="M55.288,22.701c-1.209,0.938 -1.597,1.621 -1.69,1.77c-0.925,1.48 -1.388,3.184 -1.55,4.914c-0.367,3.926 3.203,8.185 7.392,7.501c2.102,-0.343 3.839,-1.917 4.441,-3.944c0.104,-0.35 0.235,-1.938 0.235,-1.938c0,0 1.403,1.531 2.298,1.993c2.578,1.33 6.016,0.712 7.861,-1.578c4.334,-5.381 -2.296,-13.897 -8.595,-12.843" style="fill:none;stroke:#ff0078;stroke-width:3px;"/><path d="M78.87,13.088c0.616,4.405 1.714,8.276 3.168,12.25" style="fill:none;stroke:#ff0078;stroke-width:3px;"/><path d="M83.7,29.685c0.182,0.616 0.669,1.725 0.739,1.923" style="fill:none;stroke:#ff0078;stroke-width:3px;"/></g><g id="second-pew"><path d="M69.022,67.401c-1.351,-0.353 -3.055,-1.892 -3.737,-2.38c-3.777,-2.709 -10.597,-11.556 -3.872,-14.973c1.146,-0.582 2.596,-0.708 3.861,-0.581c0.905,0.09 1.761,0.398 2.588,0.761c6.258,2.745 1.539,7.057 -2.508,8.966c-0.678,0.32 -3.047,1.819 -3.887,1.399" style="fill:none;stroke:#ff0078;stroke-width:3px;"/><path d="M84.231,43.516c-1.103,-0.165 -3.116,0.689 -3.266,0.788c-2.062,1.345 -3.561,3.507 -3.916,5.965c-0.686,4.76 3.643,9.096 8.402,8.719c3.166,-0.251 6.077,-2.613 7.915,-5.065" style="fill:none;stroke:#ff0078;stroke-width:3px;"/><path d="M98.736,38.215c-0.798,1.384 -1.36,2.894 -1.62,3.999c-0.838,3.564 -0.108,8.276 3.448,10.117c2.346,1.215 5.302,0.159 6.586,-2.089c0.515,-0.903 0.751,-2.047 0.539,-3.073c-0.114,-0.548 -0.54,-1.591 -0.54,-1.591c0,0 0.815,0.707 1.26,1.01c0.856,0.582 1.884,1.107 2.907,1.301c2.451,0.464 4.418,-1.065 5.424,-3.197c2.546,-5.393 -5.009,-11.306 -9.978,-8.816" style="fill:none;stroke:#ff0078;stroke-width:3px;"/><path d="M121.41,25.358c0,-0.481 1.384,8.471 1.753,11.056" style="fill:none;stroke:#ff0078;stroke-width:3px;"/><path d="M123.455,41.134c0.112,0.727 0.096,1.901 0.134,2.261" style="fill:none;stroke:#ff0078;stroke-width:3px;"/><path d="M79.486,54.268c1.726,-0.974 4.138,-2.572 5.94,-3.405" style="fill:none;stroke:#ff0078;stroke-width:3px;"/></g><g id="laser-beams"><path d="M165.043,91.753l-84.141,84.14" style="fill:none;stroke:#ff0078;stroke-width:3.5px;"/><path d="M207.489,74.098l-73.251,105.927" style="fill:none;stroke:#ff0078;stroke-width:3.5px;"/><path d="M165.043,91.753l-84.141,84.14" style="fill:none;stroke:#ff0078;stroke-opacity:0.294118;stroke-width:8px;"/><path d="M207.489,74.098l-73.251,105.927" style="fill:none;stroke:#ff0078;stroke-opacity:0.294118;stroke-width:8px;"/></g><path d="M48.178,177.023c3.824,1.12 9.284,0.225 10.279,-0.454c4.846,-3.305 2.771,-10.916 0.11,-14.917c-0.184,-0.278 0.471,0.474 0.72,0.697c0.576,0.515 1.225,0.931 1.888,1.325c2.106,1.252 4.893,2.555 7.368,1.618c2.544,-0.963 3.374,-3.861 4.133,-6.2c0.112,-0.347 0.603,-3.115 0.965,-3.235c1.183,-0.394 1.524,1.982 2.158,3.055c1.751,2.964 5.289,3.774 8.401,3.774" style="fill:none;stroke:#ff0078;stroke-width:2px;"/><path d="M102.306,162.708c1.202,1.945 9.735,7.712 16.074,0.796c2.474,-2.698 3.536,-5.187 3.536,-5.187c0,0 0.946,7.47 5.371,9.154c4.425,1.684 8.311,-1.77 8.311,-4.583" style="fill:none;stroke:#ff0078;stroke-width:2px;"/><path d="M152.246,166.55c-0.077,1.716 -0.56,4.533 2.403,6.137c2.963,1.603 8.509,-0.93 8.805,-0.633c0.127,0.126 -3.023,2.827 -1.701,5.591c1.323,2.765 5.301,3.889 8.33,3.889" style="fill:none;stroke:#ff0078;stroke-width:2px;"/></svg>