<?xml version="1.0" encoding="UTF-8" standalone="no"?><!DOCTYPE svg PUBLIC "-//W3C//DTD SVG 1.1//EN" "http://www.w3.org/Graphics/SVG/1.1/DTD/svg11.dtd"><svg width="100%" height="100%" viewBox="0 0 500 200" version="1.1" xmlns="http://www.w3.org/2000/svg" xmlns:xlink="http://www.w3.org/1999/xlink" xml:space="preserve" xmlns:serif="http://www.serif.com/" style="fill-rule:evenodd;clip-rule:evenodd;stroke-linecap:round;stroke-linejoin:round;stroke-miterlimit:1.5;"><rect id="merging-white-space" x="0" y="0" width="500" height="200" style="fill:none;"/><g id="browser"><path d="M42.759,19.071c18.059,-1.099 83.142,0.161 120.814,0.649c6.588,0.085 23.856,-0.651 30.444,-0.556c7.939,0.115 21.086,0.096 27.879,6.158c4.714,4.207 5.007,13.781 5.299,20.397c0.624,14.156 0.61,63.492 1.745,81.696c0.445,7.134 3.112,37 0.17,43.618c-3.398,7.644 -11.672,6.551 -18.511,6.514c-5.524,-0.03 -81.328,1.036 -113.848,-0.691c-9.973,-0.529 -37.217,0.007 -47.209,-0.321c-22.494,-0.739 -26.775,1.139 -26.595,-34.027c0.09,-17.538 -1.713,-82.586 -2.055,-95.354c-0.487,-18.201 3.809,-26.983 21.867,-28.083Z" style="fill:#bad7e6;"/><path d="M33.042,32.745c2.055,-3.848 9.246,-5.988 14.599,-1.908c5.477,4.174 4.842,8.474 1.843,12.129c-3.729,4.544 -11.274,4.433 -15.007,0.801c-3.732,-3.633 -3.491,-7.174 -1.435,-11.022Z" style="fill:#ecf4f8;"/><path d="M36.983,38.704c3.565,-0.89 7.036,-1.447 10.732,-1.628" style="fill:none;stroke:#82b7d1;stroke-width:2px;"/><path d="M38.759,34.217c0,0 -3.063,2.988 -2.551,4.544c0.512,1.555 4.135,3.253 4.135,3.253" style="fill:none;stroke:#82b7d1;stroke-width:2px;"/><path d="M59.992,33.959c-0.024,4.706 -0.313,9.347 2.709,11.384c4.892,3.298 14.801,2.22 21.228,1.835c14.468,-0.869 28.799,-0.83 43.311,-0.576c16.837,0.294 33.778,0.75 50.632,0.738c8.393,-0.006 16.747,-0.923 25.131,-1.175c3.159,-0.095 7.683,0.425 9.68,-3.012c0.695,-1.196 1.057,-2.77 1.376,-4.144c3.384,-14.581 -16.814,-10.481 -24.025,-10.278c-18.35,0.514 -37.194,1.186 -55.554,1.032c-13.676,-0.114 -26.918,-1.041 -40.557,-0.986c-7.897,0.032 -15.785,0.269 -23.675,0.391c-3.119,0.048 -10.222,-1.849 -10.256,4.791Z" style="fill:#ecf4f8;"/><path d="M29.911,68.363c0.253,7.907 0.347,47.444 1.475,65.325c0.573,9.074 -1.043,27.863 6.241,33.114c3.534,2.547 7.986,1.744 11.866,2.043c9.47,0.732 116.425,0.189 130.056,-0.061c4.684,-0.086 13.697,-0.022 18.387,-0.16c10.628,-0.313 21.046,2.279 22.311,-7.32c0.309,-2.342 -2.384,-48.342 -2.684,-55.464c-0.791,-18.814 0.738,-46.046 -4.557,-50.679c-2.403,-2.102 -7.712,-1.97 -10.457,-1.89c-6.655,0.195 -55.063,0.488 -68.689,-0.523c-9.449,-0.701 -84.869,2.892 -94.618,3.12c-6.168,0.145 -9.744,-0.414 -9.331,12.495Z" style="fill:#445;"/></g><g id="browser1" serif:id="browser"><path d="M287.764,19.071c18.059,-1.099 83.141,0.161 120.814,0.649c6.588,0.085 23.856,-0.651 30.444,-0.556c7.939,0.115 21.086,0.096 27.879,6.158c4.713,4.207 5.007,13.781 5.299,20.397c0.624,14.156 0.609,63.492 1.745,81.696c0.445,7.134 3.112,37 0.17,43.618c-3.398,7.644 -11.672,6.551 -18.511,6.514c-5.524,-0.03 -81.328,1.036 -113.849,-0.691c-9.972,-0.529 -37.216,0.007 -47.208,-0.321c-22.494,-0.739 -26.775,1.139 -26.596,-34.027c0.09,-17.538 -1.713,-82.586 -2.054,-95.354c-0.488,-18.201 3.808,-26.983 21.867,-28.083Z" style="fill:#bad7e6;"/><path d="M278.046,32.745c2.056,-3.848 9.246,-5.988 14.599,-1.908c5.478,4.174 4.843,8.474 1.843,12.129c-3.729,4.544 -11.274,4.433 -15.006,0.801c-3.732,-3.633 -3.491,-7.174 -1.436,-11.022Z" style="fill:#ecf4f8;"/><path d="M281.988,38.704c3.565,-0.89 7.036,-1.447 10.731,-1.628" style="fill:none;stroke:#82b7d1;stroke-width:2px;"/><path d="M283.764,34.217c0,0 -3.064,2.988 -2.552,4.544c0.512,1.555 4.136,3.253 4.136,3.253" style="fill:none;stroke:#82b7d1;stroke-width:2px;"/><path d="M304.997,33.959c-0.025,4.706 -0.313,9.347 2.709,11.384c4.892,3.298 14.801,2.22 21.228,1.835c14.468,-0.869 28.799,-0.83 43.31,-0.576c16.838,0.294 33.778,0.75 50.632,0.738c8.393,-0.006 16.747,-0.923 25.131,-1.175c3.16,-0.095 7.684,0.425 9.681,-3.012c0.695,-1.196 1.056,-2.77 1.375,-4.144c3.385,-14.581 -16.813,-10.481 -24.025,-10.278c-18.35,0.514 -37.194,1.186 -55.553,1.032c-13.676,-0.114 -26.919,-1.041 -40.557,-0.986c-7.898,0.032 -15.786,0.269 -23.675,0.391c-3.119,0.048 -10.222,-1.849 -10.256,4.791Z" style="fill:#ecf4f8;"/><path d="M274.916,68.363c0.252,7.907 0.347,47.444 1.475,65.325c0.572,9.074 -1.044,27.863 6.241,33.114c3.533,2.547 7.986,1.744 11.866,2.043c9.469,0.732 116.425,0.189 130.055,-0.061c4.684,-0.086 13.698,-0.022 18.388,-0.16c10.628,-0.313 21.046,2.279 22.311,-7.32c0.309,-2.342 -2.384,-48.342 -2.684,-55.464c-0.792,-18.814 0.738,-46.046 -4.558,-50.679c-2.402,-2.102 -7.711,-1.97 -10.457,-1.89c-6.654,0.195 -55.063,0.488 -68.688,-0.523c-9.45,-0.701 -84.869,2.892 -94.619,3.12c-6.167,0.145 -9.743,-0.414 -9.33,12.495Z" style="fill:#445;"/></g><g id="white-right"><path d="M150.159,143.515c0.12,0 -0.844,0.423 -0.998,0.512c-0.691,0.4 -1.293,1.072 -1.552,1.835c-0.337,0.992 0.175,2.071 0.918,2.731c0.078,0.07 1.414,0.915 1.407,0.922c-0.545,0.679 -3.39,-0.395 -6.65,0.064" style="fill:none;stroke:#fff;stroke-width:2px;"/><path d="M167.783,141.089c0,0.742 3.084,7.121 11.861,6.92" style="fill:none;stroke:#fff;stroke-width:2px;"/><path d="M161.431,114.165c-6.445,-2.409 -20.018,-0.649 -23.724,6.529c-2.003,3.879 -3.68,9.007 -2.086,13.369c4.36,11.935 26.165,16.21 34.178,6.007c6.69,-8.517 1.107,-22.364 -8.368,-25.905Z" style="fill:#fff;"/><path d="M140.285,136.393c0.161,1.52 -1.001,4.617 -3.664,5.244c-2.662,0.627 -7.699,-1.66 -7.699,-5.128" style="fill:none;stroke:#fff;stroke-width:2px;"/><path d="M127.831,110.644c4.247,-1.56 7.143,-1.592 9.593,-0.829c5.797,1.806 7.539,7.656 8.946,12.816" style="fill:none;stroke:#fff;stroke-width:2px;"/><path d="M145.056,134.356c3.307,-2.798 -0.969,-7.501 -3.898,-5.858c-0.792,0.445 -1.278,1.25 -1.485,2.136c-0.687,2.93 2.864,5.854 5.383,3.722Z" style="fill:#82b7d1;"/><path d="M154.674,120.315c-2.955,-0.996 -5.224,1.804 -5.118,3.005c0.171,1.925 1.812,3.241 3.645,3.234c3.883,-0.014 4.428,-5.242 1.473,-6.239Z" style="fill:#82b7d1;"/><path d="M156.169,134.415c0.854,-4.709 -4.638,-4.447 -6.139,-2.347c-1.584,2.218 -1.063,6.236 2.737,5.977c1.891,-0.59 3.113,-1.728 3.402,-3.63Z" style="fill:none;stroke:#82b7d1;stroke-width:2px;"/></g><g id="white-left"><path d="M105.31,113.802c-5.642,-2.231 -15.524,-0.096 -20.154,4.627c-4.068,4.151 -6.389,10.476 -5.414,16.317c2.374,14.225 24.459,16.395 33.642,7.917c9.16,-8.458 2.432,-24.708 -8.074,-28.861Z" style="fill:#fff;"/><path d="M114.08,134.643c0,2.268 -0.389,4.002 1.198,6.013c3.869,4.906 9.337,1.003 10.275,-3.71" style="fill:none;stroke:#fff;stroke-width:2px;"/><path d="M106.829,119.142c-0.489,-0.98 2.607,-3.864 3.12,-4.367c3.321,-3.256 8.296,-5.945 13.026,-4.369" style="fill:none;stroke:#fff;stroke-width:2px;"/><path d="M104.662,145.656c4.391,1.433 2.282,4.694 0.277,5.263c-0.258,0.073 8.457,-0.507 8.514,-0.45" style="fill:none;stroke:#fff;stroke-width:2px;"/><path d="M83.928,141.116c-0.003,1.842 -5.094,8.541 -13.552,8.912" style="fill:none;stroke:#fff;stroke-width:2px;"/><path d="M104.74,120.485c-1.253,-0.308 -1.917,0.044 -2.01,0.095c-0.94,0.515 -1.651,1.225 -1.924,2.288c-0.535,2.079 1.195,4.163 3.289,4.291c4.321,0.263 3.322,-6.015 0.645,-6.674Z" style="fill:#82b7d1;"/><path d="M112.862,131.63c-0.447,-0.527 -1.404,-0.907 -2.506,-0.859c-0.967,0.041 -1.849,0.425 -2.375,1.285c-2.843,4.649 5.818,7.632 5.583,1.849c-0.033,-0.821 -0.255,-1.748 -0.702,-2.275Z" style="fill:#82b7d1;"/><path d="M96.326,131.641c-0.311,-0.623 0.95,-1.011 1.331,-1.078c1.281,-0.226 2.833,0.194 3.802,1.053c3.728,3.302 0.348,8.516 -4.001,5.526" style="fill:none;stroke:#82b7d1;stroke-width:2px;"/></g><path d="M104.168,84.597c0,-3.612 1.431,-6.545 3.194,-6.545c1.763,0 3.194,2.933 3.194,6.545c3.613,0 6.546,1.432 6.546,3.195c0,1.763 -2.933,3.194 -6.546,3.194c0,3.613 -1.431,6.545 -3.194,6.545c-1.763,0 -3.194,-2.932 -3.194,-6.545c-3.613,0 -6.546,-1.431 -6.546,-3.194c0,-1.763 2.933,-3.195 6.546,-3.195Z" style="fill:#ff0078;"/><path d="M295.891,67.181c0,-4.407 1.747,-7.985 3.897,-7.985c2.151,0 3.898,3.578 3.898,7.985c4.407,0 7.985,1.747 7.985,3.897c0,2.151 -3.578,3.898 -7.985,3.898c0,4.407 -1.747,7.985 -3.898,7.985c-2.15,0 -3.897,-3.578 -3.897,-7.985c-4.407,0 -7.985,-1.747 -7.985,-3.898c0,-2.15 3.578,-3.897 7.985,-3.897Z" style="fill:#ffe5f2;"/><path d="M316.856,140.861c0,-1.943 0.77,-3.521 1.718,-3.521c0.949,0 1.719,1.578 1.719,3.521c1.943,0 3.521,0.77 3.521,1.719c0,0.948 -1.578,1.718 -3.521,1.718c0,1.944 -0.77,3.521 -1.719,3.521c-0.948,0 -1.718,-1.577 -1.718,-3.521c-1.944,0 -3.522,-0.77 -3.522,-1.718c0,-0.949 1.578,-1.719 3.522,-1.719Z" style="fill:#bad7e6;"/><path d="M431.436,139.157c0,-2.738 1.085,-4.961 2.421,-4.961c1.337,0 2.422,2.223 2.422,4.961c2.738,0 4.961,1.085 4.961,2.421c0,1.336 -2.223,2.421 -4.961,2.421c0,2.739 -1.085,4.962 -2.422,4.962c-1.336,0 -2.421,-2.223 -2.421,-4.962c-2.738,0 -4.961,-1.085 -4.961,-2.421c0,-1.336 2.223,-2.421 4.961,-2.421Z" style="fill:#ff0078;"/><path d="M144.798,70.54c0,-3.961 1.569,-7.176 3.502,-7.176c1.932,0 3.501,3.215 3.501,7.176c3.961,0 7.176,1.569 7.176,3.502c0,1.932 -3.215,3.501 -7.176,3.501c0,3.961 -1.569,7.176 -3.501,7.176c-1.933,0 -3.502,-3.215 -3.502,-7.176c-3.961,0 -7.176,-1.569 -7.176,-3.501c0,-1.933 3.215,-3.502 7.176,-3.502Z" style="fill:#ff0078;"/><path d="M446.906,67.938c0,-1.815 0.719,-3.288 1.604,-3.288c0.886,0 1.604,1.473 1.604,3.288c1.815,0 3.288,0.718 3.288,1.604c0,0.885 -1.473,1.604 -3.288,1.604c0,1.814 -0.718,3.287 -1.604,3.287c-0.885,0 -1.604,-1.473 -1.604,-3.287c-1.814,0 -3.287,-0.719 -3.287,-1.604c0,-0.886 1.473,-1.604 3.287,-1.604Z" style="fill:#ff0078;"/><path d="M155.086,84.892c0,-2.395 0.949,-4.34 2.119,-4.34c1.169,0 2.118,1.945 2.118,4.34c2.395,0 4.34,0.949 4.34,2.118c0,1.169 -1.945,2.119 -4.34,2.119c0,2.395 -0.949,4.34 -2.118,4.34c-1.17,0 -2.119,-1.945 -2.119,-4.34c-2.395,0 -4.34,-0.95 -4.34,-2.119c0,-1.169 1.945,-2.118 4.34,-2.118Z" style="fill:#ffe5f2;"/><path d="M435.081,103.178c0,-2.396 0.949,-4.341 2.118,-4.341c1.169,0 2.118,1.945 2.118,4.341c2.396,0 4.341,0.949 4.341,2.118c0,1.169 -1.945,2.118 -4.341,2.118c0,2.396 -0.949,4.341 -2.118,4.341c-1.169,0 -2.118,-1.945 -2.118,-4.341c-2.396,0 -4.341,-0.949 -4.341,-2.118c0,-1.169 1.945,-2.118 4.341,-2.118Z" style="fill:#ffe5f2;"/><path d="M136.144,89.7c0,-3.323 1.317,-6.021 2.939,-6.021c1.621,0 2.938,2.698 2.938,6.021c3.323,0 6.021,1.317 6.021,2.938c0,1.622 -2.698,2.939 -6.021,2.939c0,3.323 -1.317,6.021 -2.938,6.021c-1.622,0 -2.939,-2.698 -2.939,-6.021c-3.323,0 -6.021,-1.317 -6.021,-2.939c0,-1.621 2.698,-2.938 6.021,-2.938Z" style="fill:#82b7d1;"/><path d="M291.855,110.272c0,-3.324 1.317,-6.021 2.939,-6.021c1.621,0 2.938,2.697 2.938,6.021c3.323,0 6.021,1.316 6.021,2.938c0,1.622 -2.698,2.938 -6.021,2.938c0,3.323 -1.317,6.021 -2.938,6.021c-1.622,0 -2.939,-2.698 -2.939,-6.021c-3.323,0 -6.021,-1.316 -6.021,-2.938c0,-1.622 2.698,-2.938 6.021,-2.938Z" style="fill:#82b7d1;"/><path d="M128.105,75.411c0,-2.164 0.857,-3.921 1.913,-3.921c1.056,0 1.913,1.757 1.913,3.921c2.164,0 3.921,0.857 3.921,1.913c0,1.056 -1.757,1.913 -3.921,1.913c0,2.164 -0.857,3.921 -1.913,3.921c-1.056,0 -1.913,-1.757 -1.913,-3.921c-2.164,0 -3.92,-0.857 -3.92,-1.913c0,-1.056 1.756,-1.913 3.92,-1.913Z" style="fill:#ffe5f2;"/><path d="M399.076,80.67c0,-3.567 1.413,-6.464 3.154,-6.464c1.742,0 3.155,2.897 3.155,6.464c3.568,0 6.465,1.414 6.465,3.155c0,1.741 -2.897,3.155 -6.465,3.155c0,3.568 -1.413,6.465 -3.155,6.465c-1.741,0 -3.154,-2.897 -3.154,-6.465c-3.568,0 -6.465,-1.414 -6.465,-3.155c0,-1.741 2.897,-3.155 6.465,-3.155Z" style="fill:#82b7d1;"/><path d="M422.959,75.125c0,-2.005 0.794,-3.632 1.773,-3.632c0.978,0 1.772,1.627 1.772,3.632c2.005,0 3.633,0.794 3.633,1.773c0,0.978 -1.628,1.772 -3.633,1.772c0,2.005 -0.794,3.633 -1.772,3.633c-0.979,0 -1.773,-1.628 -1.773,-3.633c-2.005,0 -3.633,-0.794 -3.633,-1.772c0,-0.979 1.628,-1.773 3.633,-1.773Z" style="fill:#bad7e6;"/><path d="M353.64,72.663c0,-2.932 1.162,-5.312 2.593,-5.312c1.431,0 2.592,2.38 2.592,5.312c2.932,0 5.313,1.162 5.313,2.593c0,1.431 -2.381,2.593 -5.313,2.593c0,2.932 -1.161,5.312 -2.592,5.312c-1.431,0 -2.593,-2.38 -2.593,-5.312c-2.932,0 -5.312,-1.162 -5.312,-2.593c0,-1.431 2.38,-2.593 5.312,-2.593Z" style="fill:#bad7e6;"/><g id="fusioned-white-space"><path d="M378.665,115.177c-3.339,-0.815 -14.977,-1.969 -20.131,3.158c-4.292,4.271 -6.544,10.525 -5.182,16.488c2.343,10.261 19.12,15.822 28.053,11.355c7.439,-3.72 13.882,-14.627 9.682,-22.777c-1.725,-3.348 -5.458,-5.55 -8.817,-7c-1.167,-0.504 -2.369,-0.922 -3.605,-1.224Z" style="fill:#fff;"/><path d="M388.777,124.198c0.915,-0.023 1.814,-0.191 2.67,-0.515c0.768,-0.291 1.498,-0.683 2.146,-1.191c3.027,-2.371 3.461,-6.492 2.64,-10.024" style="fill:none;stroke:#fff;stroke-width:2px;"/><path d="M355.17,126.557c-1.014,-0.137 -1.951,-0.555 -2.877,-0.966c-1.442,-0.64 -2.962,-1.468 -4.075,-2.611c-1.705,-1.751 -2.656,-4.283 -3.168,-6.63c-0.368,-1.688 -0.542,-4.078 0.263,-5.707" style="fill:none;stroke:#fff;stroke-width:2px;"/><path d="M363.034,144.016c-1.827,-0.507 -3.793,0.553 -3.743,2.611c0.009,0.372 0.148,0.751 0.344,1.064c0.033,0.052 0.337,0.43 0.332,0.439c-0.137,0.218 -0.96,0.214 -1.171,0.218c-1.142,0.024 -3.284,-0.003 -4.411,-0.112" style="fill:none;stroke:#fff;stroke-width:2px;"/><path d="M382.537,143.754c0.506,-0.326 1.114,-0.597 1.723,-0.622c1.443,-0.059 1.942,1.553 1.815,2.717c-0.043,0.393 -0.149,0.758 -0.338,1.106c-0.064,0.118 -0.135,0.229 -0.213,0.338c-0.018,0.024 -0.135,0.158 -0.13,0.165c0.039,0.052 0.282,0.052 0.35,0.061c0.426,0.059 0.863,0.082 1.293,0.065c1.653,-0.064 3.388,-0.314 5.037,-0.193" style="fill:none;stroke:#fff;stroke-width:2px;"/><path d="M365.218,122.347c-2.849,-0.953 -4.584,-6.783 -0.118,-6.313c2.618,0.275 5.921,3.21 2.278,5.797c0,0 -0.863,0.439 -1.238,0.519c-0.375,0.08 -0.922,-0.003 -0.922,-0.003Z" style="fill:#82b7d1;"/><path d="M376.829,121.91c-0.593,-0.276 -2.958,-2.441 -0.836,-4.006c1.391,-1.025 4.96,-2.503 5.618,0.154c0.678,2.736 -1.736,5.27 -4.782,3.852Z" style="fill:#82b7d1;"/><path d="M374.795,124.979c-2.301,-2.744 -5.557,-1.224 -6.408,-0.598c-2.027,1.491 -1.494,4.336 0.22,5.811c3.637,3.129 8.49,-2.47 6.188,-5.213Z" style="fill:none;stroke:#82b7d1;stroke-width:2px;"/></g><path d="M371.52,64.371c-0.273,10.368 -0.229,20.732 0.172,31.094" style="fill:none;stroke:#ff0078;stroke-width:2px;"/><path d="M385.805,100.656c1.458,-1.574 2.897,-3.166 4.364,-4.733" style="fill:none;stroke:#ff0078;stroke-width:2px;"/><path d="M406.377,108.943c11.63,-7.306 23.148,-14.823 35.042,-21.687" style="fill:none;stroke:#ff0078;stroke-width:2px;"/><path d="M302.376,87.799c11.082,6.042 21.638,12.95 32.512,19.335" style="fill:none;stroke:#ff0078;stroke-width:2px;"/><path d="M359.521,89.228c0.813,2.393 2.215,4.274 2.962,5.609" style="fill:none;stroke:#ff0078;stroke-width:2px;"/><path d="M408.376,130.942c13.869,-1.924 28.029,-2.665 41.987,-3.926" style="fill:none;stroke:#ff0078;stroke-width:2px;"/><path d="M288.094,127.514c15.914,1.224 31.761,3.193 47.684,4.377" style="fill:none;stroke:#ff0078;stroke-width:2px;"/><path d="M338.663,82.371c3.277,6.015 8.599,13.982 12.136,17.519" style="fill:none;stroke:#ff0078;stroke-width:2px;"/><path d="M307.807,112.943c-0.002,0.503 5.09,1.326 5.49,1.413c5.767,1.254 11.454,2.604 17.157,4.106" style="fill:none;stroke:#ff0078;stroke-width:2px;"/></svg>