<?xml version="1.0" encoding="UTF-8" standalone="no"?><!DOCTYPE svg PUBLIC "-//W3C//DTD SVG 1.1//EN" "http://www.w3.org/Graphics/SVG/1.1/DTD/svg11.dtd"><svg width="100%" height="100%" viewBox="0 0 420 220" version="1.1" xmlns="http://www.w3.org/2000/svg" xmlns:xlink="http://www.w3.org/1999/xlink" xml:space="preserve" xmlns:serif="http://www.serif.com/" style="fill-rule:evenodd;clip-rule:evenodd;stroke-linecap:round;stroke-linejoin:round;stroke-miterlimit:1.5;"><rect id="remember-the-milk" x="0" y="0" width="420" height="220" style="fill:none;"/><path d="M249.514,127.904c-0.39,0.011 -0.739,-0.244 -0.847,-0.62c-0.109,-0.376 0.05,-0.777 0.387,-0.976c1.236,-0.657 2.624,-1.173 3.608,-1.3c6.196,-0.799 14.36,-3.721 16.716,-11.475c0.135,-0.447 -2.65,-5.27 -2.829,-5.739c-2.438,-6.37 -3.742,-13.668 -4.4,-20.509c-1.879,-19.543 4.003,-37.565 17.158,-50.874c15.704,-15.887 37.638,-24.98 58.984,-21.421c14.345,2.392 28.382,13.084 34.822,28.454c18.002,42.968 -7.486,110.019 -91.418,76.455c-2.369,-0.947 -3.819,2.563 -10.5,5.518c-4.534,2.007 -16.389,2.409 -21.681,2.487Z" style="fill:#ecf4f8;"/><path d="M63.678,161.065c-2.147,2.142 -3.524,5.375 -4.868,8.033c-1.293,2.555 -2.423,5.279 -3.099,8.068c-4.078,16.821 19.51,16.154 30.344,16.567c6.934,0.265 17.556,1.186 24.027,-2.266c3.152,-1.682 4.11,-5.804 4.765,-9c2.537,-12.371 -3.286,-18.873 -15.378,-21.969c-6.919,-1.771 -20.802,-22.694 -27.901,-22.3l-7.89,22.867Z" style="fill:#82b7d1;"/><path d="M72.266,125.806c0,13.537 1.584,27.485 9.32,39.085c8.875,13.307 25.774,20.069 40.987,22.605c8.919,1.486 21.372,2.62 29.261,-3.224c2.065,-1.531 3.19,-4.289 4.263,-6.52c2.105,-4.378 11.601,-18.288 5.047,-22.929c-5.33,-3.775 -15.285,-3.418 -21.5,-5.124c-15.279,-4.195 -37.011,-9.334 -32.205,-26.136l-35.173,2.243Z" style="fill:#445;"/><path d="M76.878,133.579c0,-0.274 -5.487,-1.936 -5.86,-2.107c-3.396,-1.561 -6.556,-3.526 -9.452,-6.009c-9.228,-7.912 -14.036,-20.038 -14.128,-32.716c-0.213,-29.238 24.898,-47.771 53.837,-37.803c14.85,5.115 15.765,28.233 18.33,29.34c3.54,1.528 12.003,4.607 15.337,10.787c10.164,18.841 -6.829,34.562 -22.907,37.056c-7.973,1.237 -13.957,1.118 -21.745,-0.608l-13.412,2.06Z" style="fill:#ffe5f2;"/><path d="M130.386,174.914c-0.256,-0.599 -0.758,2.016 -0.838,2.34c-0.465,1.901 -0.841,3.838 -1.226,5.762c-0.732,3.651 -4.237,17.038 1.17,18.089c11.539,2.243 16.754,-17.823 13.078,-27.83l-12.184,1.639Z" style="fill:#82b7d1;"/><path d="M202.123,177.587c0.958,6.513 0.106,12.822 2.983,19.049c3.678,7.959 13.615,5.683 16.157,-1.677c2.644,-7.652 -0.761,-20.296 -4.91,-27.224l-14.23,9.852Z" style="fill:#82b7d1;"/><path d="M110.179,51.567c0,15.387 -7.476,34.138 -18.337,44.998c-3.972,3.972 -8.899,6.089 -12.132,7.136c-0.555,0.164 -0.954,0.65 -1.007,1.227c-0.053,0.577 0.251,1.127 0.767,1.39c6.617,3.284 22.264,9.171 34.083,-0.746c0.379,-0.323 0.91,-0.4 1.365,-0.197c0.455,0.202 0.754,0.648 0.768,1.146c-0.783,14.994 -13.564,45.691 -30.187,58.373c-17.808,13.586 -43.204,11.341 -50.424,12.204c-0.61,0.073 -5.897,0.904 -6.362,-0.031c-0.159,-0.319 3.432,-2.236 3.668,-2.367c2.437,-1.354 4.605,-2.415 6.839,-4.076c11.715,-8.713 14.273,-24.593 14.817,-30.108c0.02,-0.295 -0.143,-0.571 -0.409,-0.697c-0.267,-0.127 -0.584,-0.077 -0.799,0.125c-0.491,0.471 -1.017,0.965 -1.418,1.288c-2.121,1.707 -4.433,3.222 -7.002,4.166c-6.705,2.464 -15.526,-0.327 -19.54,-1.888c-0.414,-0.165 -0.696,-0.553 -0.723,-0.998c-0.028,-0.444 0.203,-0.865 0.593,-1.08c1.261,-0.9 3.001,-2.474 4.942,-5.132c4.341,-5.943 8.401,-11.891 10.266,-19.067c0.107,-0.411 0.575,-2.962 0.903,-4.769c0.065,-0.343 -0.068,-0.694 -0.345,-0.907c-0.277,-0.213 -0.651,-0.252 -0.965,-0.1c-1.694,0.802 -4.483,1.967 -7.296,2.49c-4.438,0.825 -8.94,0.021 -8.665,-1.547c0.144,-0.819 1.898,-0.637 3.702,-2.833c9.708,-11.821 7.493,-41.689 19.17,-54.467c11.648,-12.747 27.536,-13.824 43.565,-11.733c7.678,1.001 12.876,3.659 18.37,5.277c1.837,0.541 1.793,2.923 1.793,2.923Z" style="fill:#ff0078;"/><path d="M279.679,38.313c0,-0.222 0.188,4.133 0.164,4.354c-0.072,0.665 -0.173,1.329 -0.255,1.994c-0.202,1.651 -0.343,3.299 -0.445,4.954c-0.329,5.354 -0.488,10.75 -0.254,16.106c0.532,12.159 4.037,24.259 8.688,35.986c1.663,4.195 2.558,10.239 6.68,13.811c0.924,0.801 18.492,-1.568 24.986,-2.145c19.731,-1.751 36.612,-6.852 55.104,-11.366c5.782,-1.411 11.919,-2.773 17.273,-4.847c1.191,-0.461 3.628,-0.986 4.515,-1.737c0.202,-0.171 -1.549,-0.57 -1.752,-0.644c-1.005,-0.365 -1.899,-0.818 -2.801,-1.287c-2.967,-1.541 -5.532,-3.327 -7.796,-5.34c-7.55,-6.71 -12.527,-14.146 -15.398,-22.346c-2.437,-6.961 -3.995,-14.435 -2.606,-21.573c0.473,-2.433 1.372,-4.822 2.45,-7.163c0.105,-0.227 1.793,-3.539 1.462,-3.539c-4.138,-0.003 -77.035,6 -83.874,5.382c-2.284,-0.207 -6.141,-0.6 -6.141,-0.6Z" style="fill:#ffe5f2;"/><path d="M150.339,182.126c15.405,4.542 33.418,5.668 43.076,2.15c-1.683,-3.748 -0.95,-8.15 -0.038,-7.984c0.641,0.117 0.609,1.907 0.628,2.324c0.063,1.359 1.17,4.633 -0.507,5.471" style="fill:none;stroke:#ffe5f2;stroke-width:3px;"/><path d="M146.808,138.005c-5.592,2.121 -40.095,23.967 -36.645,30.454c4.855,9.129 26.289,9.809 35.412,10.053c22.685,0.606 44.873,1.367 67.456,-1.316c6.425,-0.763 16.362,0.15 21.956,-3.519c3.96,-2.597 5.405,-8.333 6.699,-12.333c0.894,-2.767 1.675,-5.564 2.148,-8.419c1.592,-9.61 0.081,-13.09 -10.179,-15.098c-2.216,-0.433 -4.418,-0.83 -6.665,-1.118c-4.042,-0.517 -8.096,-0.954 -12.145,-1.414c-9.97,-1.133 -25.56,1.406 -35.586,0.803c-9.994,-0.602 -22.909,-1.712 -32.451,1.907Z" style="fill:#bad7e6;"/><path d="M163.064,132.277c-4.466,0.201 -14.971,6.474 -16.433,7.421c-5.411,3.505 -8.166,6.228 -13.189,10.309c-1.986,1.614 -5.852,5.383 -5.335,8.348c1.072,6.147 18.869,5.484 22.864,5.553c14.871,0.259 29.867,-0.532 44.743,-0.859c9.639,-0.212 18.794,0.022 24.715,-8.562c8.684,-12.592 14.305,-27.834 19.989,-41.95c2.604,-6.467 6.489,-14.933 5.765,-22.14c-0.499,-4.978 -6.206,-6.417 -10.32,-7.275c-7.95,-1.656 -25.946,-3.296 -32.957,2.545c-8.893,7.407 -22.437,43.456 -27.045,46.53c-1.97,1.315 -10.281,-0.033 -12.797,0.08Z" style="fill:#82b7d1;"/><path d="M107.114,84.535c0.007,-1.067 0.161,-2.316 1.253,-2.449c4.61,-0.558 7.305,7.626 7.408,11.048c0.114,3.783 -3.721,3.167 -5.182,1.713c-1.799,-1.788 -3.103,-4.2 -3.402,-7.668c-0.905,-0.586 -1.75,-1.31 -2.57,-1.989c-0.348,-0.29 -0.871,-0.751 -0.83,-1.262c0.085,-1.071 2.091,0.19 2.468,0.327c0.192,0.071 0.384,0.135 0.579,0.197c0.018,0.006 0.132,0.043 0.276,0.083Z" style="fill:#445;"/><path d="M121.121,107.896c0,1.5 0.756,3.066 1.834,4.216c0.728,0.776 1.822,1.347 2.987,0.994c3.125,-0.948 3.954,-5.172 2.911,-7.585" style="fill:none;stroke:#445;stroke-width:3px;"/><path d="M102.161,154.111c4.067,-8.345 30.228,-15.557 39.161,-8.275c3.583,-4.428 7.398,-4.907 11.526,-0.023" style="fill:none;stroke:#ffe5f2;stroke-width:3px;"/><clipPath id="_clip1"><path d="M190.263,120.918l4.055,33.722l-33.174,0.183c0,0 -15.285,-3.418 -21.5,-5.124c-15.279,-4.195 -37.011,-9.334 -32.205,-26.136l82.824,-2.645Z"/></clipPath><g clip-path="url(#_clip1)"><path d="M114.32,140.422c10.717,-5.738 28.121,-13.106 39.371,-3.901c1.879,-4.037 6.113,-4.467 9.397,-0.129" style="fill:none;stroke:#ffe5f2;stroke-width:3px;"/></g><path d="M179.78,134.89c0.807,-2.471 3.978,-8.301 4.491,-9.481c1.535,-3.53 3.042,-7.071 4.593,-10.593c2.731,-6.202 5.821,-12.316 9.422,-18.059c1.503,-2.398 2.937,-5.464 5.63,-6.711c4.933,-2.286 11.455,-2.224 16.729,-2.359c4.969,-0.127 10.604,0.316 15.165,2.454c0.965,0.452 2.599,1.36 3.409,2.097c2.652,2.415 1.593,5.504 1.202,6.775c-1.837,5.967 -4.805,11.483 -7.29,17.186c-4.28,9.825 -11.03,21.764 -15.765,31.402c-1.737,3.537 -1.841,6.153 -6.194,7.007c-2.486,0.487 -5.282,-0.414 -7.437,-1.615c-2.151,-1.198 -24.761,-15.632 -23.955,-18.103Z" style="fill:#ecf4f8;"/><g id="remember"><path d="M287.115,62.434c-1.457,-2.659 -1.734,-9.571 1.884,-9.403c2.532,0.118 3.917,2.765 1.928,4.811c-1.455,1.498 -4.23,0.814 -4.23,0.814c0,0 0.175,0.051 0.258,0.089c0.224,0.103 2.169,2.071 4.817,2.921" style="fill:none;stroke:#445;stroke-width:2px;"/><path d="M299.672,53.134c-0.972,-0.022 -1.663,-0.106 -2.593,0.375c-1.998,1.032 -2.935,3.415 -2.033,5.279c0.958,1.978 3.953,3.276 6.159,1.991" style="fill:none;stroke:#445;stroke-width:2px;"/><path d="M294.981,57.901c0.002,-0.108 1.411,-0.164 1.512,-0.172c0.916,-0.065 2.2,-0.417 3.27,-0.437" style="fill:none;stroke:#445;stroke-width:2px;"/><path d="M304.798,60.52c-0.789,-2.177 -2.021,-4.769 -1.441,-7.138c0.364,-1.489 1.681,-1.659 2.713,-0.641c0.899,0.886 1.421,3.35 1.421,3.35c0,0 0.061,-1.906 0.142,-2.443c0.207,-1.355 0.975,-2.587 2.65,-1.862c1.661,0.72 2.344,4.504 0.668,8.147" style="fill:none;stroke:#445;stroke-width:2px;"/><path d="M319.183,50.711c-1.047,0.092 -2.341,0.482 -3.18,1.236c-1.333,1.198 -1.822,2.903 -1.219,4.635c1.192,3.418 4.611,3.193 6.745,0.839" style="fill:none;stroke:#445;stroke-width:2px;"/><path d="M314.829,56.025c-0.005,-0.119 1.257,-0.302 1.343,-0.318c1.028,-0.2 2.085,-0.237 3.117,-0.356" style="fill:none;stroke:#445;stroke-width:2px;"/><path d="M325.333,58.151c-0.73,-0.823 -1.174,-1.816 -1.53,-2.856c-0.278,-0.81 -0.492,-1.655 -0.587,-2.507c-0.05,-0.455 -0.069,-0.916 -0.058,-1.373c0.035,-1.397 0.995,-1.952 2.135,-1.162c1.06,0.735 2.311,4.253 2.311,4.253c0,0 -0.015,-0.389 -0.016,-0.584c-0.002,-0.379 0.014,-0.761 0.042,-1.139c0.079,-1.069 0.569,-4.386 2.431,-3.559c0.825,0.366 1.222,1.457 1.4,2.264c0.469,2.131 -0.027,4.533 -1.349,6.286" style="fill:none;stroke:#445;stroke-width:2px;"/><path d="M335.415,57.52c-0.263,-0.519 -0.627,-2.801 -0.707,-3.361c-0.197,-1.38 -0.882,-3.62 -0.103,-4.923c1.144,-1.916 4.771,-1.485 5.611,0.481c0.501,1.172 -0.325,2.177 -1.406,2.537c-0.218,0.072 -1.312,0.143 -1.312,0.143c0,0 0.81,-0.03 0.862,-0.024c0.6,0.066 1.184,0.179 1.759,0.364c1.075,0.346 2.57,1.428 1.955,3.19c-0.828,2.37 -6.659,1.593 -6.659,1.593Z" style="fill:none;stroke:#445;stroke-width:2px;"/><path d="M349.055,47.56c-1.243,0.007 -2.243,0.633 -2.801,1.086c-1.508,1.224 -1.993,3.473 -1.629,5.314c0.715,3.614 4.873,3.04 6.726,0.701" style="fill:none;stroke:#445;stroke-width:2px;"/><path d="M344.637,52.907c-0.36,0.017 0.92,-0.08 0.999,-0.086c0.947,-0.078 1.952,-0.155 2.869,-0.418" style="fill:none;stroke:#445;stroke-width:2px;"/><path d="M354.762,55.232c-0.386,-0.653 -0.809,-1.923 -0.978,-2.652c-0.557,-2.408 -0.387,-5.642 2.836,-5.6c2.312,0.03 2.879,2.784 1.201,4.162c-1.284,1.054 -3.86,0.377 -3.86,0.377c0,0 0.398,0.165 0.596,0.25c0.512,0.22 2.311,1.949 4.587,2.965" style="fill:none;stroke:#445;stroke-width:2px;"/></g><g id="the"><path d="M315.947,71.856c0.663,-0.035 1.326,-0.074 1.988,-0.124c1.785,-0.134 3.544,-0.463 5.32,-0.675" style="fill:none;stroke:#445;stroke-width:2px;"/><path d="M319.469,71.873c0.189,2.189 0.562,4.819 1.44,6.851" style="fill:none;stroke:#445;stroke-width:2px;"/><path d="M326.447,70.768c0.144,1.666 0.459,3.358 0.692,5.017c0.055,0.394 0.181,1.319 0.43,2.149" style="fill:none;stroke:#445;stroke-width:2px;"/><path d="M331.472,69.976c0.203,2.465 1.201,4.893 1.411,7.357" style="fill:none;stroke:#445;stroke-width:2px;"/><path d="M327.611,75.161c0.256,-0.299 1.043,-0.454 1.39,-0.58c0.935,-0.337 2.088,-0.779 3.186,-0.91" style="fill:none;stroke:#445;stroke-width:2px;"/><path d="M340.763,69.336c-0.661,-0.583 -2.392,-0.085 -3.017,0.229c-2.978,1.499 -3.404,6.325 0.473,6.763c0.852,0.096 1.75,-0.009 2.564,-0.282c0.55,-0.184 1.043,-0.478 1.519,-0.802" style="fill:none;stroke:#445;stroke-width:2px;"/><path d="M335.779,74.061c-0.14,-0.239 1.102,-0.614 1.197,-0.646c1.297,-0.427 2.607,-0.652 3.968,-0.674" style="fill:none;stroke:#445;stroke-width:2px;"/></g><g id="milk"><path d="M320.444,99.596c-1.843,-1.811 -3.458,-4.143 -3.934,-6.645c-0.165,-0.868 -0.361,-2.387 0.442,-3.09c0.627,-0.548 1.477,-0.628 2.084,-0.487c2.971,0.691 4.476,5.817 4.476,5.817c0,0 -0.902,-5.659 0.838,-6.914c2.097,-1.513 4.224,-0.25 4.689,1.884c0.484,2.224 -0.093,4.645 -0.793,6.794c-0.148,0.454 -0.265,0.973 -0.422,1.471" style="fill:none;stroke:#445;stroke-width:2px;"/><path d="M331.447,86.542c0.134,0.6 0.415,1.813 0.548,2.413c0.433,1.953 2.181,8.528 2.132,8.277" style="fill:none;stroke:#445;stroke-width:2px;"/><path d="M335.207,85.531c0.306,1.546 0.802,3.064 1.207,4.586c0.212,0.797 0.417,1.596 0.634,2.391c0.155,0.568 0.307,1.138 0.442,1.711c0.061,0.258 0.116,0.518 0.176,0.777c0.27,1.151 0.353,1.386 1.52,1.231c0.135,-0.018 2.77,-0.621 4.764,-1.116" style="fill:none;stroke:#445;stroke-width:2px;"/><path d="M344.223,83.297c-0.026,-0.133 0.122,0.245 0.167,0.373c0.076,0.219 0.186,0.554 0.254,0.762c0.222,0.679 0.429,1.36 0.636,2.043c0.577,1.914 1.673,6.529 2.404,7.791" style="fill:none;stroke:#445;stroke-width:2px;"/><path d="M352.322,81.053c-0.176,1.7 -3.327,7.393 -5.264,8.588c-0.114,0.07 0.265,0.033 0.396,0.063c0.251,0.056 0.498,0.131 0.747,0.199c0.614,0.169 3.151,1.941 6.879,2.689" style="fill:none;stroke:#445;stroke-width:2px;"/></g></svg>