<?xml version="1.0" encoding="UTF-8" standalone="no"?><!DOCTYPE svg PUBLIC "-//W3C//DTD SVG 1.1//EN" "http://www.w3.org/Graphics/SVG/1.1/DTD/svg11.dtd"><svg width="100%" height="100%" viewBox="0 0 400 500" version="1.1" xmlns="http://www.w3.org/2000/svg" xmlns:xlink="http://www.w3.org/1999/xlink" xml:space="preserve" xmlns:serif="http://www.serif.com/" style="fill-rule:evenodd;clip-rule:evenodd;stroke-linecap:round;stroke-linejoin:round;stroke-miterlimit:1.5;"><rect id="browser-guessing-files" x="0" y="0" width="400" height="500" style="fill:none;"/><path d="M261.759,205.185c-14.714,11.871 -17.948,26.113 -20.931,43.738c-1.651,9.753 -0.446,18.866 3.399,28.291c3.786,9.282 9.822,17.736 18.007,23.949c9.575,7.269 21.164,14.097 33.381,16.84c22.877,5.136 49.492,-1.496 66.651,-15.993c15.192,-12.834 29.88,-36.459 26.117,-55.893c-2.642,-13.645 -10.62,-24.559 -19.753,-35.274c-5.2,-6.101 -26.063,-26.348 -70.768,-22.607c-13.234,1.108 -21.39,5.079 -36.103,16.949Z" style="fill:#ffe5f2;"/><g id="browser"><path d="M30.582,53.968c13.642,-2.863 59.312,-3.351 88.042,-7.627c5.024,-0.748 10.086,-1.234 15.111,-1.976c6.055,-0.894 13.494,-2.299 19.255,0.574c3.998,1.994 6.425,6.111 8.317,9.869c4.155,8.248 17.077,45.284 20.313,55.113c1.382,4.198 5.514,14.445 3.918,18.84c-1.844,5.075 -8.249,5.413 -13.46,6.221c-4.209,0.652 -61.818,10.506 -86.746,13.4c-7.644,0.888 -15.238,1.652 -22.878,2.665c-17.198,2.28 -31.003,6.959 -34.286,-14.516c-1.638,-10.71 -11.249,-50.418 -13.208,-58.062c-1.007,-3.928 -2.306,-8.359 -1.332,-12.403c1.405,-5.841 3.312,-9.236 16.954,-12.098Z" style="fill:#bad7e6;"/><path d="M21.015,65.166c0.868,-2.551 5.037,-4.575 8.709,-2.624c3.756,1.997 3.799,4.682 2.336,7.21c-1.818,3.143 -6.429,3.83 -9.067,1.989c-2.639,-1.841 -2.846,-4.024 -1.978,-6.575Z" style="fill:#ecf4f8;"/><path d="M24.014,68.404c2.084,-0.899 4.144,-1.586 6.379,-2.065" style="fill:none;stroke:#82b7d1;stroke-width:2px;"/><path d="M24.648,65.491c0,0 -1.569,2.128 -1.101,3.025c0.467,0.897 2.846,1.57 2.846,1.57" style="fill:none;stroke:#82b7d1;stroke-width:2px;"/><path d="M36.942,63.135c0.314,2.89 0.429,5.763 2.796,6.757c3.831,1.61 11.043,0.111 15.743,-0.669c10.581,-1.757 21.125,-2.945 31.817,-4.017c12.405,-1.243 24.898,-2.397 37.294,-3.83c6.173,-0.713 12.253,-1.982 18.402,-2.846c2.317,-0.325 5.682,-0.389 6.908,-2.667c0.427,-0.793 0.582,-1.789 0.719,-2.66c1.461,-9.234 -13.106,-5.01 -18.397,-4.276c-13.461,1.868 -27.274,3.874 -40.789,5.333c-10.067,1.086 -19.873,1.638 -29.901,2.825c-5.807,0.687 -11.592,1.5 -17.386,2.242c-2.291,0.293 -7.65,-0.27 -7.206,3.808Z" style="fill:#ecf4f8;"/><path d="M21.611,82.969c0.679,4.841 1.963,8.828 3.531,15.089c2.693,10.746 4.258,21.157 6.929,31.912c1.356,5.458 2.228,15.511 8.453,17.777c3.02,1.099 6.423,0.038 9.489,-0.278c7.483,-0.769 14.546,-1.884 21.876,-3.635c9.855,-2.353 66.193,-9.13 76.834,-11.033c3.657,-0.654 10.716,-1.772 14.372,-2.458c8.285,-1.555 16.696,-1.312 16.726,-7.327c0.007,-1.467 -2.161,-9.267 -2.433,-10.701c-0.826,-4.366 -1.673,-7.527 -3.381,-11.589c-3.606,-8.576 -5.415,-16.144 -8.466,-24.92c-1.491,-4.288 -3.834,-12.321 -8.441,-14.465c-2.09,-0.973 -6.231,-0.211 -8.372,0.19c-5.187,0.974 -11.609,0.803 -16.834,1.831c-10.633,2.092 -19.765,3.437 -30.527,4.571c-7.464,0.785 -60.301,8.387 -67.178,8.764c-4.884,0.268 -13.258,1.432 -12.578,6.272Z" style="fill:#ecf4f8;"/><path d="M77.592,122.239c1.109,-2.287 6.629,-3.96 8.516,-1.266c1.887,2.694 2.076,4.974 0.377,6.632c-1.699,1.658 -5.286,2.694 -7.363,1.243c-2.077,-1.451 -2.64,-4.323 -1.53,-6.609Z" style="fill:#445;"/><path d="M128.278,114.199c2.233,-2.179 6.449,-2.011 7.69,0c1.242,2.011 1.747,4.284 -0.039,6.297c-1.916,2.161 -5.631,2.012 -7.379,0.336c-1.747,-1.677 -2.487,-4.472 -0.272,-6.633Z" style="fill:#445;"/><path d="M115.182,126.761c-0.208,-2.369 -3.545,-4.93 -6.84,-4.094c-3.295,0.836 -5.774,2.988 -5.139,6.163c0.635,3.175 3.877,4.378 7.325,4.096c3.447,-0.282 4.861,-3.796 4.654,-6.165Z" style="fill:none;stroke:#445;stroke-width:2px;"/></g><g id="browser1" serif:id="browser"><path d="M30.582,211.63c13.642,-2.863 59.312,-3.351 88.042,-7.627c5.024,-0.748 10.086,-1.234 15.111,-1.976c6.055,-0.894 13.494,-2.299 19.255,0.574c3.998,1.994 6.425,6.112 8.317,9.869c4.155,8.248 17.077,45.284 20.313,55.113c1.382,4.198 5.514,14.445 3.918,18.84c-1.844,5.075 -8.249,5.413 -13.46,6.221c-4.209,0.652 -61.818,10.506 -86.746,13.4c-7.644,0.888 -15.238,1.652 -22.878,2.665c-17.198,2.28 -31.003,6.959 -34.286,-14.516c-1.638,-10.71 -11.249,-50.418 -13.208,-58.062c-1.007,-3.928 -2.306,-8.359 -1.332,-12.403c1.405,-5.841 3.312,-9.236 16.954,-12.098Z" style="fill:#bad7e6;"/><path d="M21.015,222.828c0.868,-2.551 5.037,-4.575 8.709,-2.624c3.756,1.997 3.799,4.682 2.336,7.21c-1.818,3.143 -6.429,3.83 -9.067,1.989c-2.639,-1.841 -2.846,-4.024 -1.978,-6.575Z" style="fill:#ecf4f8;"/><path d="M24.014,226.066c2.084,-0.899 4.144,-1.586 6.379,-2.065" style="fill:none;stroke:#82b7d1;stroke-width:2px;"/><path d="M24.648,223.153c0,0 -1.569,2.128 -1.101,3.025c0.467,0.897 2.846,1.57 2.846,1.57" style="fill:none;stroke:#82b7d1;stroke-width:2px;"/><path d="M36.942,220.797c0.314,2.89 0.429,5.763 2.796,6.757c3.831,1.61 11.043,0.111 15.743,-0.669c10.581,-1.757 21.125,-2.945 31.817,-4.017c12.405,-1.243 24.898,-2.397 37.294,-3.83c6.173,-0.713 12.253,-1.982 18.402,-2.846c2.317,-0.325 5.682,-0.389 6.908,-2.667c0.427,-0.793 0.582,-1.789 0.719,-2.66c1.461,-9.234 -13.106,-5.01 -18.397,-4.276c-13.461,1.868 -27.274,3.874 -40.789,5.333c-10.067,1.086 -19.873,1.638 -29.901,2.825c-5.807,0.687 -11.592,1.5 -17.386,2.242c-2.291,0.293 -7.65,-0.27 -7.206,3.808Z" style="fill:#ecf4f8;"/><path d="M21.611,240.631c0.679,4.841 1.963,8.828 3.531,15.089c2.693,10.746 4.258,21.157 6.929,31.912c1.356,5.458 2.228,15.511 8.453,17.777c3.02,1.099 6.423,0.038 9.489,-0.278c7.483,-0.769 14.546,-1.884 21.876,-3.635c9.855,-2.353 66.193,-9.13 76.834,-11.033c3.657,-0.654 10.716,-1.772 14.372,-2.458c8.285,-1.555 16.696,-1.312 16.726,-7.327c0.007,-1.467 -2.161,-9.267 -2.433,-10.701c-0.826,-4.366 -1.673,-7.527 -3.381,-11.589c-3.606,-8.576 -5.415,-16.144 -8.466,-24.92c-1.491,-4.288 -3.834,-12.321 -8.441,-14.465c-2.09,-0.973 -6.231,-0.211 -8.372,0.19c-5.187,0.974 -11.609,0.803 -16.834,1.831c-10.633,2.092 -19.765,3.437 -30.527,4.571c-7.464,0.785 -60.301,8.387 -67.178,8.764c-4.884,0.268 -13.258,1.432 -12.578,6.272Z" style="fill:#ecf4f8;"/><g id="glasses"><path d="M83.249,264.009c-6.379,2.107 -9.516,6.473 -10.872,11.928c-1.653,6.655 3.013,14.008 9.799,16.032c4.02,1.2 8.791,0.556 12.678,-0.821c1.887,-0.669 3.604,-1.69 5.123,-2.947c1.357,-1.123 2.628,-2.427 3.431,-3.981c5.242,-10.143 -9.674,-23.674 -20.159,-20.211Z" style="fill:#fff;stroke:#82b7d1;stroke-width:4px;"/><path d="M133.448,254.991c-9.146,4.835 -10.375,19.102 -1.144,25.834c1.657,1.208 3.439,1.913 5.486,2.267c2.053,0.355 4.143,0.092 6.214,-0.104c10.01,-0.946 14.349,-8.892 14.064,-13.264c-0.941,-14.416 -15.473,-19.569 -24.62,-14.733Z" style="fill:#fff;stroke:#82b7d1;stroke-width:4px;"/><path d="M103.183,273.031c4.94,-5.902 14.134,-8.614 21.818,-5.086" style="fill:none;stroke:#82b7d1;stroke-width:4px;"/><path d="M72.994,273.322c-5.699,-0.341 -41.661,6.505 -45.356,7.347c-2.999,0.684 -6.262,1.276 -8.544,3.426c-2.975,2.802 -2.469,6.325 1.4,7.741" style="fill:none;stroke:#82b7d1;stroke-width:4px;"/><path d="M154.714,259.186c6.132,-2.865 26.916,-3.822 29.453,-3.555c0.21,0.022 -2.814,3.765 -4.198,4.576" style="fill:none;stroke:#82b7d1;stroke-width:4px;"/></g><path d="M126.674,282.837c-3.407,0.24 -14.053,2.885 -18.379,3.143" style="fill:none;stroke:#445;stroke-width:2px;"/><path d="M91.562,278.545c0.953,-2.066 5.692,-3.578 7.313,-1.144c1.621,2.435 1.783,4.494 0.324,5.992c-1.459,1.498 -4.54,2.435 -6.323,1.124c-1.783,-1.311 -2.267,-3.906 -1.314,-5.972Z" style="fill:#445;"/><path d="M143.076,269.56c2.234,-2.179 6.449,-2.011 7.691,0c1.241,2.012 1.746,4.285 -0.039,6.297c-1.917,2.161 -5.632,2.013 -7.379,0.336c-1.748,-1.677 -2.488,-4.471 -0.273,-6.633Z" style="fill:#445;"/></g><g id="question-mark"><path d="M200.146,37.729c0.174,-8.967 8.99,-14.211 17.407,-15.091c6.496,-0.68 13.114,1.537 13.328,8.761c0.533,17.962 -26.516,15.135 -28.625,32.139" style="fill:none;stroke:#82b7d1;stroke-width:6.5px;"/><path d="M200.471,72.479l-0.382,2.091" style="fill:none;stroke:#82b7d1;stroke-width:6.5px;"/><path d="M200.273,37.774c0.174,-8.967 8.99,-14.211 17.407,-15.091c6.496,-0.68 13.113,1.537 13.328,8.761c0.533,17.962 -26.516,15.135 -28.625,32.139" style="fill:none;stroke:#82b7d1;stroke-width:6.5px;"/><path d="M200.598,72.524l-0.382,2.091" style="fill:none;stroke:#82b7d1;stroke-width:6.5px;"/></g><g id="file-one"><path d="M238.427,124.711c-2.896,-1.1 -4.425,-4.024 -3.717,-6.131c3.272,-9.745 12.619,-32.108 14.214,-40.406c1.97,-10.251 -0.06,-22.196 6.765,-22.196c1.318,0 16.734,0.495 20.197,0.69c2.954,0.167 8.863,1.002 13.861,2.054c4.218,0.889 8.97,13.709 8.808,15.969c-0.427,5.927 -0.581,6.892 -1.84,12.692c-2.376,10.941 -12.206,45.449 -15.819,47.995c-3.907,2.752 -14.098,-0.694 -19.011,-2.117c-3.495,-1.013 -16.331,-5.843 -23.458,-8.55Z" style="fill:#bad7e6;"/><path d="M298.555,74.443c-4.243,-3.413 -9.648,-5.604 -10.822,-6.855c-1.174,-1.252 -0.512,-9.397 2.014,-8.866c4.218,0.889 9.045,13.468 8.808,15.721Z" style="fill:#ecf4f8;"/><path d="M248.388,110.51c-2.387,-0.002 -4.186,1.391 -4.466,3.724c-0.214,1.78 1.586,4.451 3.694,4.332c2.423,-0.137 4.483,-2.195 4.594,-4.529c0.08,-1.693 -1.435,-3.525 -3.822,-3.527Z" style="fill:#445;"/><path d="M273.867,117.448c-0.687,-0.989 -3.067,-2.355 -5.384,-0.845c-3.821,2.49 -0.746,7.534 3.097,6.509c2.356,-0.628 3.645,-3.71 2.287,-5.664Z" style="fill:#445;"/><path d="M253.99,120.587c0,0.72 0.088,1.41 0.333,2.097c1.546,4.35 6.253,2.23 7.834,-0.805" style="fill:none;stroke:#445;stroke-width:2px;"/></g><g id="browser2" serif:id="browser"><path d="M45.459,374.201c13.643,-2.863 59.313,-3.35 88.042,-7.626c5.024,-0.748 10.086,-1.235 15.111,-1.976c6.056,-0.894 13.494,-2.3 19.256,0.573c3.998,1.994 6.424,6.112 8.317,9.87c4.154,8.248 17.077,45.283 20.313,55.112c1.382,4.199 5.514,14.446 3.917,18.84c-1.843,5.076 -8.249,5.414 -13.459,6.221c-4.209,0.652 -61.819,10.506 -86.746,13.401c-7.645,0.887 -15.239,1.652 -22.878,2.665c-17.198,2.28 -31.003,6.958 -34.287,-14.516c-1.638,-10.71 -11.248,-50.418 -13.207,-58.063c-1.007,-3.927 -2.306,-8.358 -1.333,-12.403c1.406,-5.841 3.312,-9.235 16.954,-12.098Z" style="fill:#bad7e6;"/><path d="M35.893,385.399c0.868,-2.551 5.037,-4.575 8.708,-2.623c3.757,1.997 3.8,4.682 2.337,7.21c-1.819,3.142 -6.429,3.829 -9.068,1.988c-2.638,-1.841 -2.845,-4.024 -1.977,-6.575Z" style="fill:#ecf4f8;"/><path d="M38.891,388.638c2.084,-0.899 4.145,-1.586 6.38,-2.066" style="fill:none;stroke:#82b7d1;stroke-width:2px;"/><path d="M39.525,385.725c0,0 -1.568,2.128 -1.101,3.025c0.468,0.897 2.847,1.569 2.847,1.569" style="fill:none;stroke:#82b7d1;stroke-width:2px;"/><path d="M51.819,383.369c0.315,2.89 0.43,5.762 2.796,6.757c3.831,1.61 11.044,0.11 15.744,-0.67c10.581,-1.757 21.124,-2.945 31.816,-4.016c12.406,-1.244 24.898,-2.397 37.294,-3.83c6.174,-0.714 12.253,-1.983 18.403,-2.846c2.317,-0.326 5.681,-0.39 6.907,-2.668c0.427,-0.792 0.582,-1.789 0.72,-2.659c1.46,-9.235 -13.107,-5.01 -18.397,-4.276c-13.461,1.868 -27.274,3.874 -40.789,5.332c-10.068,1.087 -19.874,1.638 -29.901,2.825c-5.807,0.688 -11.592,1.5 -17.387,2.243c-2.291,0.293 -7.649,-0.27 -7.206,3.808Z" style="fill:#ecf4f8;"/><path d="M36.488,403.203c0.68,4.841 1.963,8.828 3.532,15.088c2.692,10.746 4.258,21.158 6.929,31.913c1.355,5.458 2.227,15.511 8.453,17.776c3.019,1.099 6.423,0.038 9.489,-0.277c7.483,-0.77 14.546,-1.885 21.876,-3.635c9.855,-2.354 66.193,-9.131 76.834,-11.033c3.656,-0.654 10.716,-1.772 14.372,-2.458c8.285,-1.556 16.696,-1.313 16.726,-7.327c0.007,-1.467 -2.162,-9.267 -2.433,-10.702c-0.826,-4.366 -1.673,-7.527 -3.381,-11.588c-3.607,-8.577 -5.416,-16.145 -8.467,-24.92c-1.491,-4.288 -3.834,-12.321 -8.44,-14.466c-2.091,-0.973 -6.232,-0.211 -8.372,0.191c-5.188,0.973 -11.609,0.803 -16.834,1.83c-10.634,2.092 -19.765,3.438 -30.527,4.571c-7.465,0.786 -60.301,8.387 -67.178,8.765c-4.884,0.268 -13.258,1.431 -12.579,6.272Z" style="fill:#ecf4f8;"/><path d="M92.469,442.472c1.11,-2.286 6.629,-3.959 8.517,-1.265c1.887,2.694 2.076,4.973 0.377,6.631c-1.7,1.658 -5.287,2.694 -7.364,1.244c-2.076,-1.451 -2.639,-4.323 -1.53,-6.61Z" style="fill:#445;"/><path d="M143.155,434.432c2.234,-2.179 6.449,-2.011 7.691,0c1.242,2.012 1.746,4.285 -0.039,6.298c-1.917,2.16 -5.631,2.012 -7.379,0.335c-1.748,-1.677 -2.488,-4.471 -0.273,-6.633Z" style="fill:#445;"/><path d="M117.589,446.627c1.62,2.261 6.628,3.999 7.325,4.096c1.516,0.211 4.547,-4.98 4.654,-6.165" style="fill:none;stroke:#445;stroke-width:2px;"/></g><g id="html-file"><path d="M285.027,385.178c0.406,-0.068 0.834,-0.125 1.288,-0.17c8.833,-0.872 21.044,1.488 29.337,3.939c4.142,1.223 12.39,3.438 15.76,6.36c3.542,3.07 -0.834,21.824 -2.041,31.934c-0.915,7.663 -1.846,15.487 -3.286,23.083c-0.67,3.53 -1.183,7.475 -5.158,8.893c-5.215,1.86 -11.017,-0.038 -16.279,-0.643c-3.889,-0.447 -7.883,-0.583 -11.554,-2.006c0,0 -19.466,-66.019 -19.045,-66.323c2.021,-1.457 6.725,-4.696 10.581,-5.051c0.126,-0.011 0.258,-0.017 0.397,-0.016Z" style="fill:#bad7e6;"/><path d="M279.693,389.887c0.115,0.007 8.305,-2.047 9.881,-2.443c0.173,-0.042 0.352,-0.053 0.529,-0.03c1.642,0.213 10.521,1.399 18.062,3.074c6.019,1.337 12.676,3.762 15.921,5.011c1.184,0.463 1.92,1.653 1.804,2.919c-0.499,5.471 -1.858,20.198 -2.772,28.843c-0.958,9.063 -4.706,23.274 -5.869,27.549c-0.217,0.789 -0.797,1.428 -1.562,1.721c-2.56,0.978 -8.272,3.16 -8.272,3.16c0,0 -27.848,-69.813 -27.722,-69.804Z" style="fill:#ecf4f8;"/><path d="M282.263,389.236l7.188,-1.802c0,0 2.352,1.644 0.334,2.848c-2.498,1.491 -7.522,-1.046 -7.522,-1.046Z" style="fill:#82b7d1;"/><path d="M272.906,393.959c-2.067,13.185 -4.78,26.32 -6.237,39.585c-0.509,4.632 -2.271,11.46 0.19,15.81c3.012,5.327 11.099,7.308 16.669,8.832c10.003,2.738 23.966,7.478 27.487,-0.213c0.904,-1.975 1.894,-7.63 2.408,-9.726c2.735,-11.165 7.022,-45.735 4.853,-49.633c-1.868,-3.357 -7.627,-3.942 -11.232,-4.972c-6.888,-1.967 -14.388,-3.144 -21.5,-4.109c-5.882,-0.797 -11.445,-2.447 -12.455,2.688l-0.183,1.738Z" style="fill:#bad7e6;"/><path d="M274.769,441.397c-0.727,0.531 -1.537,1.22 -1.671,2.515c-0.252,2.438 2.587,4.134 4.835,3.16c2.029,-0.879 3.178,-3.976 1.083,-5.43c-1.174,-0.815 -3.296,-0.94 -4.247,-0.245Z" style="fill:#445;"/><path d="M296.682,445.016c-1.289,0.705 -2.54,1.687 -2.375,3.291c0.235,2.285 3.374,4.672 5.631,3.198c2.152,-1.405 2.037,-5.136 -0.234,-6.398c-1.567,-0.871 -3.022,-0.091 -3.022,-0.091Z" style="fill:#445;"/><path d="M281.68,450.391c1.729,2.701 4.717,4.434 7.481,1.809" style="fill:none;stroke:#445;stroke-width:2px;"/><path d="M278.57,398.266c-0.476,2.139 -1.254,6.534 -1.914,9.804c-0.175,0.867 -0.837,2.855 -0.09,3.583c0.617,0.6 1.603,0.82 2.431,0.99c1.699,0.35 3.439,0.524 5.145,0.855c5.458,1.057 10.934,2.062 16.423,2.962c1.726,0.283 4.806,1.158 6.537,0.864c1.455,-0.247 1.362,-1.619 1.737,-2.798c0.851,-2.672 1.361,-9.843 1.255,-10.82c-0.16,-1.475 -1.534,-1.528 -2.906,-1.803c-1.345,-0.269 -22.264,-4.047 -23.735,-4.395c-2.496,-0.589 -4.408,-1.381 -4.883,0.758Z" style="fill:#ecf4f8;"/><path d="M281.076,401.955c-0.298,2.122 -0.672,4.384 -1.017,6.501" style="fill:none;stroke:#82b7d1;stroke-width:1.5px;"/><path d="M284.578,402.302c-0.552,2.384 -1.027,4.263 -1.411,6.678" style="fill:none;stroke:#82b7d1;stroke-width:1.5px;"/><path d="M281.031,405.382c0.792,0.053 1.563,0.249 2.349,0.347" style="fill:none;stroke:#82b7d1;stroke-width:1.5px;"/><path d="M286.782,403.067c1.976,0.133 3.32,0.355 5.201,1.007" style="fill:none;stroke:#82b7d1;stroke-width:1.5px;"/><path d="M289.132,403.675c-0.138,1.909 -0.614,4.498 -0.94,6.389" style="fill:none;stroke:#82b7d1;stroke-width:1.5px;"/><path d="M293.075,411.19c0.288,-1.516 0.435,-3.018 0.893,-4.502c0.053,-0.173 0.539,-1.978 0.739,-1.872c0.795,0.417 1.007,2.034 1.181,2.829c0.033,0.152 0.09,1.092 0.193,1.149c0.009,0.004 0.409,-0.972 0.451,-1.079c0.298,-0.775 0.802,-1.35 1.333,-2.01c0.065,-0.08 0.478,-0.614 0.587,-0.588c0.607,0.145 0.74,0.995 0.829,1.467c0.315,1.66 -0.215,4.006 -0.51,5.657" style="fill:none;stroke:#82b7d1;stroke-width:1.5px;"/><path d="M303.073,405.716c-0.716,1.957 -1.207,5.134 -1.193,7.121c0.001,0.145 0.959,0.18 1.084,0.191c1.127,0.1 2.255,-0.164 3.378,-0.103" style="fill:none;stroke:#82b7d1;stroke-width:1.5px;"/></g><path d="M219.427,361.961c6.503,-6.078 14.422,-3.553 17.11,1.38c2.688,4.934 0.145,12.275 -6.358,18.353c-4.679,4.622 -13.714,7.855 -20.925,9.632c-4.668,-5.565 -9.888,-13.343 -10.752,-19.733c-1.416,-8.604 1.127,-15.945 6.358,-18.353c5.232,-2.408 13.151,0.117 14.567,8.721Z" style="fill:#ffe5f2;"/><g id="shine-lines"><path d="M305.398,345.307c0.316,10.11 0.717,20.227 0.486,30.345" style="fill:none;stroke:#ff0078;stroke-width:2px;"/><path d="M339.684,353.021c-4.545,8.179 -9.254,16.25 -13.908,24.366" style="fill:none;stroke:#ff0078;stroke-width:2px;"/><path d="M335.398,393.021c9.741,-5.217 19.025,-11.16 28.47,-16.874" style="fill:none;stroke:#ff0078;stroke-width:2px;"/><path d="M339.112,410.45c9.495,-0.307 18.871,-0.214 28.363,-0.845" style="fill:none;stroke:#ff0078;stroke-width:2px;"/><path d="M287.684,379.593c-5.991,-8.198 -11.875,-16.7 -16.387,-25.826" style="fill:none;stroke:#ff0078;stroke-width:2px;"/><path d="M297.397,376.163c-1.883,-4.055 -3.709,-8.112 -5.251,-12.31" style="fill:none;stroke:#ff0078;stroke-width:2px;"/><path d="M315.398,375.878c0.726,-3.11 1.394,-6.232 2.012,-9.366" style="fill:none;stroke:#ff0078;stroke-width:2px;"/><path d="M330.541,384.164c1.368,-1.249 2.667,-2.573 4.042,-3.815" style="fill:none;stroke:#ff0078;stroke-width:2px;"/><path d="M338.54,402.163c1.971,-0.525 3.957,-0.996 5.902,-1.615" style="fill:none;stroke:#ff0078;stroke-width:2px;"/><path d="M278.826,383.593c-0.769,-0.924 -1.546,-1.841 -2.287,-2.787" style="fill:none;stroke:#ff0078;stroke-width:2px;"/><path d="M247.682,377.306c6.587,3.527 13.645,6.053 20.237,9.571" style="fill:none;stroke:#ff0078;stroke-width:2px;"/><path d="M257.72,398.094c3.896,0.628 4.028,0.754 7.901,1.516" style="fill:none;stroke:#ff0078;stroke-width:2px;"/><path d="M239.399,411.021c8.828,-0.854 17.473,-0.944 26.343,-0.9" style="fill:none;stroke:#ff0078;stroke-width:2px;"/><path d="M333.684,426.45c8.537,4.742 17.232,9.205 25.751,13.981" style="fill:none;stroke:#ff0078;stroke-width:2px;"/><path d="M337.969,419.021c3.91,0.757 7.79,1.646 11.595,2.825" style="fill:none;stroke:#ff0078;stroke-width:2px;"/></g><g id="html-file-detail"><path d="M269.368,284.323c-4.711,-1.79 -7.199,-6.547 -6.048,-9.974c5.324,-15.853 20.529,-52.234 23.124,-65.734c3.205,-16.676 -0.098,-36.108 11.006,-36.108c2.143,0 27.223,0.805 32.856,1.123c4.806,0.272 14.419,1.63 22.55,3.342c6.862,1.445 14.593,22.301 14.328,25.977c-0.693,9.643 -0.945,11.213 -2.993,20.648c-3.864,17.799 -19.856,73.938 -25.735,78.079c-6.355,4.477 -22.933,-1.129 -30.927,-3.444c-5.685,-1.647 -26.568,-9.506 -38.161,-13.909Z" style="fill:#bad7e6;"/><path d="M367.185,202.547c-6.904,-5.553 -15.696,-9.118 -17.606,-11.153c-1.91,-2.036 -0.832,-15.287 3.277,-14.422c6.862,1.445 14.714,21.909 14.329,25.575Z" style="fill:#ecf4f8;"/><g id="_.html" serif:id=".html"><path d="M345.769,298.368c-0.121,-0.026 0.238,0.122 0.269,0.134c0.219,0.083 0.435,0.172 0.653,0.257" style="fill:none;stroke:#ff0078;stroke-width:2px;"/><path d="M354.427,293.554c-0.519,1.686 -3.268,7.236 -3.458,7.419" style="fill:none;stroke:#ff0078;stroke-width:2px;"/><path d="M358.937,295.196c-0.524,1.677 -3.376,7.233 -4.12,8.206" style="fill:none;stroke:#ff0078;stroke-width:2px;"/><path d="M353.081,297.301c0.01,-0.031 0.777,0.347 0.82,0.368c0.843,0.429 1.654,0.925 2.483,1.379" style="fill:none;stroke:#ff0078;stroke-width:2px;"/><path d="M361.248,296.67c0.638,0.192 4.9,2.36 6.341,3.196" style="fill:none;stroke:#ff0078;stroke-width:2px;"/><path d="M364.144,298.348c-0.464,1.485 -3.151,6.714 -3.903,7.698" style="fill:none;stroke:#ff0078;stroke-width:2px;"/><path d="M367.332,309.381c0.552,-1.492 1.622,-4.91 2.569,-6.223c0.291,-0.405 0.848,-1.354 1.548,-1.394c0.423,-0.025 0.632,0.5 0.733,0.755c0.23,0.576 0.308,1.178 0.395,1.764c0.032,0.211 -0.011,0.603 0.13,0.809c0.005,0.006 2.048,-2.464 3.557,-1.58c0.692,0.406 0.313,1.848 0.196,2.422c-0.323,1.582 -2.036,5.167 -3.132,6.108" style="fill:none;stroke:#ff0078;stroke-width:2px;"/><path d="M381.179,305.778c-0.314,1.021 -4.115,7.966 -4.021,8.177c0.039,0.088 0.355,0.148 0.448,0.179c0.479,0.156 4.559,1.922 4.829,2.191" style="fill:none;stroke:#ff0078;stroke-width:2px;"/></g><g id="doctype"><path d="M293.174,200.626c-0.501,0.155 -3.949,1.219 -4.004,1.337c-0.011,0.023 3.544,2.979 3.685,2.974" style="fill:none;stroke:#ff0078;stroke-width:1px;"/><path d="M295.229,199.774c-0.087,0.004 -0.643,3.918 -0.78,4.061" style="fill:none;stroke:#ff0078;stroke-width:1px;"/><path d="M294.162,205.455c0.009,0.217 0.008,0.256 -0.033,0.471" style="fill:none;stroke:#ff0078;stroke-width:1px;"/><path d="M297.256,200.234c-0.145,0.914 -0.962,5.57 -0.816,5.825c0.036,0.063 0.628,0.06 0.706,0.07c0.797,0.103 1.683,0.102 2.418,-0.246c2.982,-1.412 1.355,-5.109 -2.308,-5.649Z" style="fill:none;stroke:#ff0078;stroke-width:1px;"/><path d="M305.662,201.523c-2.951,0.116 -3.569,4.969 -0.491,5.413c2.804,0.405 3.389,-4.52 1.011,-5.364l-0.52,-0.049Z" style="fill:none;stroke:#ff0078;stroke-width:1px;"/><path d="M314.528,204.259c-0.048,-1.212 -1.93,-1.998 -2.988,-1.733c-0.62,0.156 -1.265,0.802 -1.518,1.355c-0.428,0.935 -0.399,2.303 0.194,3.174c0.692,1.016 2.259,1.257 3.27,0.504c0.346,-0.258 0.495,-0.57 0.715,-0.913" style="fill:none;stroke:#ff0078;stroke-width:1px;"/><path d="M315.609,203.138c1.222,-0.048 4.21,0.438 4.713,0.495" style="fill:none;stroke:#ff0078;stroke-width:1px;"/><path d="M318.354,203.492c-0.192,0.009 -0.309,1.232 -0.324,1.34c-0.184,1.382 -0.441,2.878 -0.386,4.276" style="fill:none;stroke:#ff0078;stroke-width:1px;"/><path d="M321.808,203.936c0.164,0.402 1.242,2.412 1.429,2.44c0.563,0.082 1.684,-1.448 2.535,-1.898" style="fill:none;stroke:#ff0078;stroke-width:1px;"/><path d="M326.842,210.945c0.077,-2.158 0.759,-5.989 0.927,-6.128c0.212,-0.177 4.05,0.256 3.65,2.01c-0.356,1.56 -3.188,0.841 -3.525,0.708" style="fill:none;stroke:#ff0078;stroke-width:1px;"/><path d="M337.439,206.606c-7.71,-1.019 -5.563,6.126 -0.93,5.036" style="fill:none;stroke:#ff0078;stroke-width:1px;"/><path d="M332.786,208.862c0.4,0.173 2.661,0.563 3.463,0.684" style="fill:none;stroke:#ff0078;stroke-width:1px;"/><path d="M341.393,207.06c-0.005,-0.131 -0.419,4.267 -0.409,5.045" style="fill:none;stroke:#ff0078;stroke-width:1px;"/><path d="M341.095,210.019c0.013,-1.564 1.459,-1.695 1.919,-1.288c0.96,0.851 0.486,2.694 0.02,3.681" style="fill:none;stroke:#ff0078;stroke-width:1px;"/><path d="M346.053,207.295c0.046,1.172 -0.164,2.561 -0.432,3.695c-0.11,0.466 -0.255,1.415 0.009,1.876c0.214,0.375 0.488,0.348 0.853,0.261" style="fill:none;stroke:#ff0078;stroke-width:1px;"/><path d="M345.01,209.308c0.603,-0.024 1.284,-0.037 1.83,0.199" style="fill:none;stroke:#ff0078;stroke-width:1px;"/><path d="M348.318,209.487c-0.127,1.06 -0.405,3.244 -0.384,4.129" style="fill:none;stroke:#ff0078;stroke-width:1px;"/><path d="M348.192,210.671c0.371,-1.139 2.07,-0.828 2.351,-0.32c0.649,1.173 0.169,2.525 -0.186,3.664" style="fill:none;stroke:#ff0078;stroke-width:1px;"/><path d="M350.873,211.423c-0.093,-0.163 1.054,-1.624 2.07,-1.202c1.379,0.572 0.321,3.263 0.042,4.181" style="fill:none;stroke:#ff0078;stroke-width:1px;"/><path d="M355.856,209.114c0.057,1.453 -0.822,5.872 -0.964,5.878" style="fill:none;stroke:#ff0078;stroke-width:1px;"/><path d="M357.707,211.344c0.549,0.365 3.173,2.117 3.075,2.611c-0.045,0.222 -3.238,1.472 -3.74,1.457" style="fill:none;stroke:#ff0078;stroke-width:1px;"/><path d="M323.304,206.768c0.044,1.123 -0.212,2.277 -0.375,3.379" style="fill:none;stroke:#ff0078;stroke-width:1px;"/></g><path d="M288.736,264.124c-3.485,-0.339 -6.308,1.442 -7.046,4.81c-0.563,2.568 1.689,6.723 4.784,6.846c3.558,0.142 6.856,-2.574 7.346,-5.966c0.356,-2.462 -1.598,-5.351 -5.084,-5.69Z" style="fill:#445;"/><path d="M324.966,277.846c-0.864,-1.541 -4.148,-3.872 -7.743,-1.994c-5.931,3.098 -2.151,10.897 3.605,9.943c3.529,-0.585 5.845,-4.905 4.138,-7.949Z" style="fill:#445;"/><path d="M295.498,279.629c-0.102,1.052 -0.07,2.071 0.189,3.108c1.645,6.571 8.817,4.138 11.555,-0.071" style="fill:none;stroke:#445;stroke-width:2px;"/></g><g id="dashed-arrow"><path d="M252.927,257.554c0.025,-0.102 4.712,5.744 4.112,7.439c-0.902,2.548 -5.994,2.823 -8.194,2.727" style="fill:none;stroke:#445;stroke-width:2px;"/><path d="M187.363,265.371c17.987,-7.708 35.792,-10.415 62.818,-3.108" style="fill:none;stroke:#445;stroke-width:2px;stroke-dasharray:4,8,0,0;"/></g><g id="file-2"><path d="M320.449,59.155c-1.41,2.316 -4.758,14.455 -6.895,28.666c-2.369,15.743 0.855,30.262 2.657,36.654c0.244,0.772 0.845,1.378 1.615,1.627c0.769,0.25 1.612,0.112 2.262,-0.37c4.792,-3.576 14.828,-10.398 22.879,-11.499c8.218,-1.123 16.329,0.324 21.417,1.628c0.974,0.268 2.015,-0.034 2.696,-0.781c0.68,-0.746 0.883,-1.812 0.527,-2.756c-2.702,-7.289 -7.157,-20.981 -7.166,-32.497c-0.007,-9.029 1.474,-16.482 2.427,-21.645c-3.136,-5.256 -10.764,-8.316 -11.935,-8.354c-15.168,-0.489 -29.508,7.723 -30.484,9.327Z" style="fill:#bad7e6;"/><path d="M320.375,104.141c-0.709,1.362 0.488,4.445 1.786,4.57c0.842,0.081 1.813,-0.08 2.535,-0.548c0.764,-0.495 1.332,-1.298 1.394,-2.25c0.046,-0.709 -0.083,-1.454 -0.396,-2.071c-1.276,-2.523 -4.039,-2.161 -5.319,0.299Z" style="fill:#445;"/><path d="M345.778,97.459c-1.053,-0.851 -2.809,-0.836 -3.77,-0.079c-0.674,0.531 -1.134,1.189 -1.394,2.051c-1.798,5.971 9.066,4.187 6.256,-0.669c-0.284,-0.493 -0.661,-0.954 -1.092,-1.303Z" style="fill:#445;"/><path d="M330.604,107.803c0.257,0.365 3.133,2.868 4.275,2.334c1.142,-0.534 1.87,-4.03 1.972,-4.52" style="fill:none;stroke:#445;stroke-width:2px;"/><path d="M362.905,58.25c-4.014,-4.75 -15.907,-3.13 -16.111,-5.623c-0.123,-1.504 0.37,-4.939 2.945,-5.144c4.3,-0.343 13.586,8.177 13.166,10.767Z" style="fill:#ecf4f8;"/></g></svg>