<?xml version="1.0" encoding="UTF-8" standalone="no"?><!DOCTYPE svg PUBLIC "-//W3C//DTD SVG 1.1//EN" "http://www.w3.org/Graphics/SVG/1.1/DTD/svg11.dtd"><svg width="100%" height="100%" viewBox="0 0 500 280" version="1.1" xmlns="http://www.w3.org/2000/svg" xmlns:xlink="http://www.w3.org/1999/xlink" xml:space="preserve" xmlns:serif="http://www.serif.com/" style="fill-rule:evenodd;clip-rule:evenodd;stroke-linecap:round;stroke-linejoin:round;stroke-miterlimit:1.5;"><rect id="html-element-anatomy" x="0" y="0" width="500" height="280" style="fill:none;"/><path d="M96.329,210.907c-22.463,-11.82 -82.14,-32.208 -85.727,-47.271c-3.588,-15.063 40.122,-92.773 54.397,-108.86c25.797,-29.07 31.819,-33.904 77.262,-8.762c25.538,14.13 90.251,61.856 91.161,75.233c0.726,10.661 -11.353,28.347 -18.307,36.621c-14.288,17 -56.94,56.388 -81.431,65.654c-6.272,2.373 -14.891,-0.795 -37.355,-12.615Z" style="fill:#bad7e6;"/><path d="M298.998,161.557c0.27,-16.343 48.069,-95.146 66.757,-112.587c6.638,-6.194 14.426,-15.015 24.126,-15.518c18.652,-0.968 33.22,12.191 43.555,26.372c20.011,27.457 45.487,107.491 36.892,128.339c-9.932,24.092 -75.015,55.376 -105.134,44.705c-33.81,-11.979 -66.466,-54.969 -66.196,-71.311Z" style="fill:#bad7e6;"/><g id="h1-face"><path d="M94.974,81.122c0.036,0.198 -1.059,1.589 -1.178,1.874c-0.782,1.869 -1.193,4.138 0.131,5.814c3.015,3.818 9.547,1.131 8.721,-3.326c-0.072,-0.386 0.183,0.766 0.324,1.135c0.289,0.751 0.847,1.452 1.582,1.907c1.925,1.195 4.459,0.379 5.941,-1.154c3.145,-3.255 0.781,-8.035 -3.336,-9.282" style="fill:none;stroke:#445;stroke-width:2px;"/><path d="M73.577,90.577c-3.269,0.186 -7.221,-0.892 -9.228,-1.833c-3.232,-1.517 -7.414,-3.431 -8.758,-6.464c-3.122,-7.045 4.706,-17.031 13.45,-18.249c12.197,-1.7 16.741,7.207 15.007,15.704c-0.63,3.088 -3.32,10.435 -10.471,10.842Z" style="fill:#ecf4f8;"/><path d="M138.099,76.893c-5.513,4.898 -14.673,6.782 -19.036,0.65c-1.834,-2.578 -2.548,-5.393 -2.422,-8.543c0.332,-8.293 4.9,-20.387 15.458,-18.793c17.18,2.593 11.857,21.483 6,26.686Z" style="fill:#ecf4f8;"/><path d="M77.676,76.042c0,0 -3.932,-0.994 -5.85,0.549c-4.91,3.951 -5.579,11.415 1.51,13.348c7.552,2.06 12.285,-11.453 4.34,-13.897Z" style="fill:#445;"/><path d="M125.785,66.694c-2.137,0.228 -4.524,2.047 -5.537,3.49c-3.384,4.821 0.025,11.278 5.711,10.953c4.872,-0.278 7.675,-6.586 6.117,-10.792c-0.821,-2.215 -4.153,-3.879 -6.291,-3.651Z" style="fill:#445;"/></g><path d="M98.768,102.711c-6.38,2.803 -16.845,8.335 -11.237,17.543c4.205,6.906 13.027,8.412 22.977,7.879c4.789,-0.256 11.101,-0.916 15.36,-2.73c12.262,-5.225 10.012,-17.348 0.874,-23.128c-5.739,-3.63 -16.535,-4.59 -27.974,0.436Z" style="fill:#ffe5f2;"/><path d="M402.905,87.066c-2.692,-1.403 -5.276,-2.557 -9.894,-2.793c-3.641,-0.187 -7.533,0.229 -10.942,1.149c-13.662,3.689 -16.177,17.655 -2.293,22.38c8.642,2.941 22.249,0.764 28.619,-4.068c7.25,-5.501 2.794,-12.352 -5.49,-16.668Z" style="fill:#ffe5f2;"/><path d="M397.266,189.644c0,0 -17.861,-0.33 -24.467,4.933c-12.719,10.133 -5.133,21.455 12.527,20.913c10.69,-0.328 20.394,-4.471 25.332,-11.183c5.451,-7.409 -1.759,-14.859 -13.392,-14.663Z" style="fill:#ffe5f2;"/><path d="M125.914,175.809c0,0 -9.342,1.077 -14.883,3.331c-9.098,3.7 -15.06,12.927 -8.747,19.41c8.223,8.445 25.042,9.357 38.521,7.582c7.897,-1.04 15.813,-6.139 17.166,-11.542c0.988,-3.943 -1.056,-8.354 -4.2,-11.67c-5.419,-5.716 -18.238,-8.748 -27.857,-7.111Z" style="fill:#ffe5f2;"/><path d="M48.984,156.926c-1.417,-5.178 8.213,-6.994 13.477,-8.336c16.614,-4.237 112.58,-25.158 121.856,-26.582c5.061,-0.778 15.807,-2.902 20.903,-1.818c5.453,1.159 9.088,18.202 6.402,24.526c-1.367,3.22 -4.99,4.653 -8.142,5.65c-17.863,5.654 -129.706,26.586 -141.217,28.487c-3.136,0.518 -8.817,0.663 -9.837,-3.856c-1.019,-4.52 -3.442,-18.071 -3.442,-18.071Z" style="fill:#82b7d1;"/><path d="M342.691,117.386c-4.013,-0.327 -13.075,0.76 -13.176,10.88c-0.102,10.12 -3.742,50.714 -0.177,54.242c2.711,2.683 6.61,2.923 9.978,2.931c6.957,0.017 72.009,-3.151 93.689,-4.874c10.581,-0.841 14.172,0.747 16.437,-8.89c1.474,-6.271 -1.628,-50.79 -3.296,-53.109c-5.337,-7.418 -15.203,-6.264 -22.474,-5.504c-17.176,1.796 -70.964,5.14 -80.981,4.324Z" style="fill:#82b7d1;"/><g id="tag-h1-opening"><path d="M102.276,111.165c0,-0.063 0.542,2.466 0.636,3.028c0.347,2.079 0.541,4.229 0.998,6.285" style="fill:none;stroke:#445;stroke-width:2px;"/><path d="M107.652,109.885c-0.027,0 0.295,2.087 0.314,2.19c0.414,2.241 1.35,4.868 1.35,7.154" style="fill:none;stroke:#445;stroke-width:2px;"/><path d="M103.94,115.773c1.445,0 3.782,-0.846 5.081,-1.496" style="fill:none;stroke:#445;stroke-width:2px;"/><path d="M111.861,112.08c0.16,0.011 2.851,-4.058 2.877,-4.048c0.219,0.091 0.815,4.189 1.111,5.578c0.162,0.762 0.357,1.517 0.527,2.278c0.057,0.254 0.086,0.517 0.136,0.773c0.024,0.124 0.195,0.383 0.068,0.374" style="fill:none;stroke:#445;stroke-width:2px;"/><path d="M114.156,118.109c-0.041,-0.081 4.77,-1.331 5.164,-1.332" style="fill:none;stroke:#445;stroke-width:2px;"/><path d="M97.569,112.797c0,0.372 -4.557,5.596 -4.954,5.876c-0.405,0.286 0.448,0.46 0.543,0.481c0.718,0.159 6.364,1.836 7.394,2.007" style="fill:none;stroke:#445;stroke-width:2px;"/><path d="M119.56,107.253c0,0.068 4.609,1.166 6.058,1.51c2.388,0.567 1.362,1.999 1.064,2.273c-1.427,1.31 -3.042,3.357 -4.408,4.723" style="fill:none;stroke:#445;stroke-width:2px;"/></g><g id="tag-h1-closing"><path d="M112.297,188.516c-1.377,1.296 -4.393,5.076 -4.753,5.45c-0.6,0.625 0.375,1.293 0.468,1.339c0.204,0.101 5.155,2.654 6.92,3.023" style="fill:none;stroke:#445;stroke-width:2px;"/><path d="M120.089,187.221c0,0.636 -2.044,10.434 -2.077,10.417" style="fill:none;stroke:#ff0078;stroke-width:2px;"/><path d="M123.241,186.457c0,0.597 2.145,8.909 2.145,9.279" style="fill:none;stroke:#445;stroke-width:2px;"/><path d="M128.389,184.958c-0.012,0 2.032,9.003 2.032,9.542" style="fill:none;stroke:#445;stroke-width:2px;"/><path d="M124.457,190.922c0,0.001 4.621,-1.316 4.731,-1.206" style="fill:none;stroke:#445;stroke-width:2px;"/><path d="M131.931,187.939c0.179,0 2.584,-3.726 2.759,-4.035c0.081,-0.142 0.521,-0.391 0.524,0.337c0.002,0.551 0.801,8.572 0.644,8.885" style="fill:none;stroke:#445;stroke-width:2px;"/><path d="M133.697,193.937c0.633,-0.447 3.704,-1.391 5.28,-1.263" style="fill:none;stroke:#445;stroke-width:2px;"/><path d="M139.333,183.32c-0.043,0 5.68,1.468 7.136,1.883c1.67,0.476 1.291,1.689 0.546,2.63c-0.92,1.162 -3.492,3.7 -4.798,4.42" style="fill:none;stroke:#445;stroke-width:2px;"/></g><path d="M388.883,61.598c-2.589,1.97 -3.664,5.903 -2.57,8.065c0.835,1.65 2.692,2.694 4.52,2.735c3.004,0.067 5.565,-3.407 5.565,-3.407c0,0 3.115,6.645 7.697,2.207c2.908,-2.816 2.432,-6.328 -0.506,-9.201" style="fill:none;stroke:#445;stroke-width:2px;"/><path d="M379.901,51.177c0,0 -4.858,-3.058 -8.574,-0.53c-4.738,3.222 -7.461,10.954 -2.041,14.678c8.291,5.696 19.852,-7.862 10.615,-14.148Z" style="fill:#445;"/><path d="M420.131,54.111c0,0 -5.253,-2.275 -8.622,1.963c-4.141,5.21 -1.958,13.238 4.71,14.89c11.182,2.77 11.986,-12.51 3.912,-16.853Z" style="fill:#445;"/><g id="h1-content-text"><path d="M83.734,153.728c-3.701,0.077 -6.028,3.543 -6.394,4.627c-2.915,8.642 4.894,8.664 9.28,5.809" style="fill:none;stroke:#445;stroke-width:2px;"/><path d="M99.136,151.934c-0.976,-0.621 -4.985,-1.78 -7.069,-0.333c-1.44,1 -2.092,2.962 -2.39,4.644c-0.189,1.062 -0.218,2.181 0.057,3.23c2.706,10.319 16.665,-2.919 9.402,-7.541Z" style="fill:none;stroke:#445;stroke-width:2px;"/><path d="M107.988,159.831c0,0.182 -1.035,-2.557 -1.162,-3c-0.404,-1.414 -2.447,-6.928 -0.517,-8c0.859,-0.476 2.25,1.346 2.633,1.828c1.519,1.916 2.956,3.871 4.54,5.736c0.413,0.485 1.293,1.821 2.069,1.724c0.905,-0.113 0.728,-2.356 0.712,-2.874c-0.064,-2.096 -0.324,-7.657 -1.931,-9.264" style="fill:none;stroke:#445;stroke-width:2px;"/><path d="M119.901,146.276c1.414,-0.999 8.193,-2.843 11.025,-3.241" style="fill:none;stroke:#445;stroke-width:2px;"/><path d="M125.657,144.421c-0.291,0.001 2.747,12.051 2.744,11.117" style="fill:none;stroke:#445;stroke-width:2px;"/><path d="M142.955,140.665c-3.342,0.123 -9.575,1.372 -8.002,8.846c1.147,5.45 7.042,3.751 10.926,1.554" style="fill:none;stroke:#445;stroke-width:2px;"/><path d="M135.227,149.331c0.247,-1.584 6.316,-2.258 7.579,-2.441" style="fill:none;stroke:#445;stroke-width:2px;"/><path d="M150.97,150.598c0,0.087 -2.185,-10.608 0.151,-11.374c2.337,-0.765 4.138,10.566 6.873,9.866c2.734,-0.699 0.85,-12.413 0.851,-11.972" style="fill:none;stroke:#445;stroke-width:2px;"/><path d="M163.282,136.384c2.206,-0.921 9.17,-2.713 11.366,-2.697" style="fill:none;stroke:#445;stroke-width:2px;"/><path d="M168.647,135.956c1.086,3.596 1.873,7.364 1.64,10.916" style="fill:none;stroke:#445;stroke-width:2px;"/></g><g id="tag-p-opening"><path d="M383.673,92.222c-1.101,0.589 -4.972,3.593 -5.324,3.9c-1.69,1.47 -1.22,1.569 0.853,2.616c0.819,0.413 4.121,1.89 5.365,2.251" style="fill:none;stroke:#445;stroke-width:2px;"/><path d="M388.903,101.386c0.276,-2.438 -0.942,-9.51 -0.784,-9.752c0.133,-0.204 5.019,0.198 6.12,1.473c1.814,2.101 -0.668,3.828 -2.32,4.063c-1.009,0.144 -1.951,0.121 -2.955,0.007" style="fill:none;stroke:#445;stroke-width:2px;"/><path d="M397.848,91.33c0,-0.051 5.361,2.951 5.959,3.292c0.867,0.496 1.371,1.753 -0.161,2.715c-1.66,1.042 -3.433,2.049 -4.95,3.305" style="fill:none;stroke:#445;stroke-width:2px;"/></g><g id="tag-p-closing"><path d="M380.537,198.563c-2.503,1.162 -4.538,2.96 -5.757,3.973c-1.487,1.235 0.254,2.009 0.78,2.396c1.535,1.128 3.638,2.3 5.737,2.813" style="fill:none;stroke:#445;stroke-width:2px;"/><path d="M387.113,198.039c-1.049,2.341 -2.54,7.271 -2.933,9.52" style="fill:none;stroke:#ff0078;stroke-width:2px;"/><path d="M390.886,207.564c-0.069,0.283 -0.078,-9.675 0.389,-9.896c3.025,-1.439 8.287,3.201 3.241,4.977c-0.767,0.271 -2.39,0.289 -3.175,0.167" style="fill:none;stroke:#445;stroke-width:2px;"/><path d="M399.159,197.865c0.736,0.274 3.361,1.971 4.784,3.008c1.552,1.131 0.777,2.273 0.032,2.844c-1.577,1.209 -2.874,1.995 -4.825,2.743" style="fill:none;stroke:#445;stroke-width:2px;"/></g><g id="content-text"><path d="M355.698,143.879c-3.455,-0.362 -7.579,0.927 -8.645,5.057c-1.066,4.129 3.39,8.359 9.657,4.979" style="fill:none;stroke:#445;stroke-width:2px;"/><path d="M369.422,146.129c-0.841,-1.889 -4.018,-4.072 -6.82,-2.167c-1.363,0.927 -2.59,2.636 -2.992,4.358c-2.267,9.728 13.605,6.324 9.812,-2.191Z" style="fill:none;stroke:#445;stroke-width:2px;"/><path d="M374.091,153.277c0.102,-2.147 -0.235,-5.959 -0.011,-8.099c0.045,-0.43 -0.013,-1.781 0.529,-2.011c0.756,-0.319 1.877,1.881 2.127,2.268c0.837,1.299 6.084,12.214 6.084,6.001c0,-0.636 0.001,-1.27 -0.023,-1.905c-0.042,-1.09 -0.367,-5.565 -0.367,-7.185" style="fill:none;stroke:#445;stroke-width:2px;"/><path d="M385.85,142.321c2.203,-0.367 7.395,-0.748 9.971,-0.984" style="fill:none;stroke:#445;stroke-width:2px;"/><path d="M390.696,142.715c-0.031,0.419 0.668,7.698 0.668,10.236" style="fill:none;stroke:#445;stroke-width:2px;"/><path d="M404.319,140.912c-2.546,-0.286 -4.152,0.812 -5.094,2.286c-2.11,3.303 -0.973,7.959 3.198,8.496c1.559,0.201 2.838,-0.141 4.1,-0.893" style="fill:none;stroke:#445;stroke-width:2px;"/><path d="M398.711,147.192c2.027,0 3.304,-0.205 5.328,-0.379" style="fill:none;stroke:#445;stroke-width:2px;"/><path d="M411.583,151.602c-1.214,-1.572 -2.606,-10.66 -1.93,-10.887c0.339,-0.115 0.85,0.208 1.453,0.707c2.108,1.745 4.039,6.143 4.771,7.556c0.97,1.868 1.902,2.92 2.11,-0.454c0.035,-0.57 -0.408,-7.122 -0.408,-8.739" style="fill:none;stroke:#445;stroke-width:2px;"/><path d="M420.975,139.873c3.523,0.01 8.651,-1.501 11.364,-0.977" style="fill:none;stroke:#445;stroke-width:2px;"/><path d="M426.346,139.828c-0.1,0.001 -0.392,8.29 0.3,10.939" style="fill:none;stroke:#445;stroke-width:2px;"/></g><g id="opening-tag"><path d="M202.588,26.638c-7.209,0.302 -7.746,11.043 -0.479,11.974c6.804,0.873 7.688,-12.276 0.479,-11.974Z" style="fill:none;stroke:#ff0078;stroke-width:2px;"/><path d="M213.297,36.439c0,-3.391 -3.987,-8.45 -2.662,-11.764c0.304,-0.759 7.144,-1.327 7.741,2.11c0.596,3.438 -4.319,4.013 -6.208,4.391" style="fill:none;stroke:#ff0078;stroke-width:2px;"/><path d="M228.978,21.199c-3.721,-0.303 -5.778,2.624 -6.311,4.157c-2.494,7.187 4.456,8.335 9.146,6.575" style="fill:none;stroke:#ff0078;stroke-width:2px;"/><path d="M222.958,28.108c1.533,-0.341 4.993,-1.254 5.587,-1.34" style="fill:none;stroke:#ff0078;stroke-width:2px;"/><path d="M235.597,31.039c0,0.018 -2.762,-10.665 -0.318,-10.83c2.89,-0.195 3.908,5.955 5.167,7.796c0.283,0.413 1.807,2.867 2.541,2.03c1.608,-1.833 0.055,-8.41 -0.248,-10.51" style="fill:none;stroke:#ff0078;stroke-width:2px;"/><path d="M248.773,19.016c0,2.718 0.966,9.067 1.536,10.384" style="fill:none;stroke:#ff0078;stroke-width:2px;"/><path d="M256.522,29.145c-1.118,-2.241 -1.501,-10.924 -0.646,-10.763c2.685,0.503 4.074,6.304 5.008,8.38c0.988,2.196 2.61,2.336 2.727,-0.011c0.038,-0.769 -0.024,-7.911 -0.118,-9.336" style="fill:none;stroke:#ff0078;stroke-width:2px;"/><path d="M275.649,16.448c-1.981,-0.544 -6.791,0.348 -7.066,4.946c-0.275,4.599 4.153,5.867 5.098,5.982c0.761,0.092 1.555,0.038 2.311,-0.068c5.514,-0.775 2.567,-7.166 -1.873,-5.584" style="fill:none;stroke:#ff0078;stroke-width:2px;"/><path d="M291.563,14.693c-0.792,0.035 7.725,-0.255 10.951,-0.964" style="fill:none;stroke:#ff0078;stroke-width:2px;"/><path d="M297.045,14.656c-0.201,0.953 0.774,5.759 0.911,10.463" style="fill:none;stroke:#ff0078;stroke-width:2px;"/><path d="M303.734,24.722c0.069,-1.787 1.251,-7.196 1.63,-8.351c0.552,-1.683 2.834,-4.676 4.611,-1.677c1.257,2.121 2.209,8.687 1.973,9.686" style="fill:none;stroke:#ff0078;stroke-width:2px;"/><path d="M304.682,20.151c1.813,0.074 4.35,-0.138 6.174,-0.063" style="fill:none;stroke:#ff0078;stroke-width:2px;"/><path d="M322.322,13.793c0.001,0.043 -2.915,-0.596 -4.734,0.736c-2.799,2.051 -3.595,7.485 -0.334,9.21c5.966,3.157 9.306,-5.101 3.305,-5.035" style="fill:none;stroke:#ff0078;stroke-width:2px;"/></g><g id="closing-tag"><path d="M195.969,249.637c-7.313,-0.774 -8.409,5.08 -7.963,8.151c0.813,5.599 8.374,4.369 10.262,1.256" style="fill:none;stroke:#ff0078;stroke-width:2px;"/><path d="M200.712,249.063c0,2.602 0.401,6.01 0.747,8.583c0.098,0.73 0.146,2.221 0.721,2.749c0.649,0.596 4.108,0.469 6.078,-0.244" style="fill:none;stroke:#ff0078;stroke-width:2px;"/><path d="M214.898,247.768c-4.06,-0.387 -5.72,3.674 -5.326,6.402c0.466,3.233 3.282,5.691 6.011,5.283c7.113,-1.063 3.527,-11.284 -0.685,-11.685Z" style="fill:none;stroke:#ff0078;stroke-width:2px;"/><path d="M230.114,248.47c-0.631,-1.415 -2.914,-1.516 -3.562,-1.472c-1.945,0.134 -3.884,2.424 -3.001,4.483c0.895,2.09 3.464,1.549 5.107,1.719c1.384,0.144 2.379,1.256 2.785,2.433c0.224,0.652 0.281,1.343 0.024,1.996c-1.079,2.744 -4.77,2.34 -6.919,1.266c-0.266,-0.133 -1.035,-0.507 -1.623,-0.942" style="fill:none;stroke:#ff0078;stroke-width:2px;"/><path d="M236.299,246.99c-0.204,1.884 -0.013,9.815 0.757,12.126" style="fill:none;stroke:#ff0078;stroke-width:2px;"/><path d="M242.783,258.761c-0.287,-2.393 -0.776,-6.896 -0.963,-9.3c-0.039,-0.497 -0.108,-2.756 0.458,-2.756c1.121,0 1.755,1.719 2.122,2.499c1.163,2.47 2.218,4.99 3.439,7.431c0.119,0.239 1.112,1.59 1.514,1.456c0.707,-0.236 0.635,-6.205 0.6,-7.344c-0.055,-1.785 -0.133,-2.938 -0.316,-4.802" style="fill:none;stroke:#ff0078;stroke-width:2px;"/><path d="M263.031,245.811c-2.077,-0.792 -4.397,-0.182 -5.725,0.528c-2.755,1.475 -3.896,5.69 -2.112,8.254c0.646,0.928 1.571,1.619 2.583,2.105c0.931,0.446 1.93,0.637 2.961,0.637c5.2,0 4.642,-6.564 -0.605,-5.25" style="fill:none;stroke:#ff0078;stroke-width:2px;"/><path d="M273.875,245.553c0.906,0 7.659,-0.283 10.707,0.394" style="fill:none;stroke:#ff0078;stroke-width:2px;"/><path d="M279.207,245.668c0,2.675 -0.666,5.496 -0.839,8.186c-0.059,0.914 -0.134,4.596 -0.134,4.134" style="fill:none;stroke:#ff0078;stroke-width:2px;"/><path d="M285.505,258.687c0.112,-3.301 1.136,-6.703 2.504,-9.762c0.314,-0.7 1.16,-2.902 2.458,-2.686c1.261,0.209 1.83,2.221 2.094,3.082c0.923,3.017 1.075,6.411 0.969,9.53" style="fill:none;stroke:#ff0078;stroke-width:2px;"/><path d="M286.835,254.18c0.006,-0.149 1.18,-0.125 1.281,-0.128c1.378,-0.034 2.735,0.037 4.106,0.178" style="fill:none;stroke:#ff0078;stroke-width:2px;"/><path d="M305.985,247.81c-0.959,-0.317 -3.905,-0.494 -5.492,0.29c-5.13,2.534 -3.96,10.1 1.885,10.948c4.644,0.674 6.563,-6.455 0.701,-5.852" style="fill:none;stroke:#ff0078;stroke-width:2px;"/></g><g id="opening-arrows"><path d="M212.598,47.18c33.222,-12.326 68.39,-15.909 103.557,-13.42" style="fill:none;stroke:#ff0078;stroke-width:2px;"/><path d="M143.004,113.582c27.217,-7.964 54.065,-20.772 75.113,-40.062c10.943,-10.029 19.518,-21.953 27.678,-34.277" style="fill:none;stroke:#ff0078;stroke-width:2px;"/><path d="M296.565,32.486c16.19,26.151 38.957,49.942 68.186,60.957" style="fill:none;stroke:#ff0078;stroke-width:2px;"/><path d="M145.8,107.626c-2.666,3.946 -6.445,5.502 -1.199,8.124c0.688,0.344 1.392,0.666 2.096,0.979c1.007,0.447 1.959,1.115 2.965,1.517" style="fill:none;stroke:#ff0078;stroke-width:2px;"/><path d="M363.777,88.621c0.826,0.823 3.544,4.661 2.49,5.831c-0.677,0.752 -4.247,2.132 -5.164,2.284" style="fill:none;stroke:#ff0078;stroke-width:2px;"/></g><path d="M152.976,207.342c16.289,15.075 31.925,25.154 51.91,32.933" style="fill:none;stroke:#ff0078;stroke-width:2px;"/><path d="M362.808,201.807c-29.725,3.022 -58.738,12.403 -83.703,28.969" style="fill:none;stroke:#ff0078;stroke-width:2px;"/><path d="M183.354,244.977c39.99,-20.765 83.112,-28.891 124.958,-4.379" style="fill:none;stroke:#ff0078;stroke-width:2px;"/><path d="M152.67,213.795c0,-1.583 -0.187,-3.167 -0.187,-4.753c0,-0.552 -0.094,-1.499 0.237,-1.985c0.452,-0.665 1.466,-0.58 2.158,-0.536c2.069,0.131 4.263,0.744 6.32,1.087" style="fill:none;stroke:#ff0078;stroke-width:2px;"/><path d="M358.904,198.23c1.33,0.82 3.808,2.786 4.054,3.665c0.165,0.593 -0.412,1.276 -0.799,1.632c-1.094,1.006 -2.372,1.811 -3.665,2.538" style="fill:none;stroke:#ff0078;stroke-width:2px;"/></svg>