<?xml version="1.0" encoding="UTF-8" standalone="no"?><!DOCTYPE svg PUBLIC "-//W3C//DTD SVG 1.1//EN" "http://www.w3.org/Graphics/SVG/1.1/DTD/svg11.dtd"><svg width="100%" height="100%" viewBox="0 0 650 285" version="1.1" xmlns="http://www.w3.org/2000/svg" xmlns:xlink="http://www.w3.org/1999/xlink" xml:space="preserve" xmlns:serif="http://www.serif.com/" style="fill-rule:evenodd;clip-rule:evenodd;stroke-linecap:round;stroke-linejoin:round;stroke-miterlimit:1.5;"><rect id="evolution" x="0" y="0" width="650" height="285" style="fill:none;"/><path d="M79.257,211.864c6.535,6.51 12.482,14.644 20.806,19.027" style="fill:none;stroke:#ffe5f2;stroke-width:3px;"/><path d="M62.619,226.816c2.198,-1.419 4.778,-2.72 6.521,-3.464c1.508,-0.643 3.993,-1.486 5.362,-0.763c1.47,0.776 1.011,2.418 0.42,3.591c-1.568,3.113 -5.14,6.079 -8.242,8.901c-0.318,0.289 -3.93,2.914 -3.76,3.266" style="fill:none;stroke:#445;stroke-width:3px;"/><path d="M267.265,124.756c-0.001,0.366 -3.336,2.217 -3.609,2.399c-3.87,2.579 -7.602,5.648 -11.683,7.875" style="fill:none;stroke:#445;stroke-width:5.5px;"/><path d="M104.497,150.84c-0.131,-1.772 7.551,5.109 8.301,5.781c4.668,4.182 11.507,11.484 18.088,12.98" style="fill:none;stroke:#445;stroke-width:5.5px;"/><g id="nuxt"><path d="M494.362,13.946c0.462,0.127 0.904,0.251 1.293,0.378c3.781,1.234 7.482,2.531 11.295,3.739c11.586,3.668 23.158,7.2 35.034,10.585c4.146,1.181 8.15,2.357 12.645,3.183c1.087,0.2 2.031,0.456 3.03,0.736c0.111,0.031 0.908,0.154 0.908,0.229c0,0.115 -11.168,3.114 -14.715,4.053c-13.338,3.532 -18.67,6.575 -33.863,9.639c-2.762,0.557 -12.768,3.881 -15.368,4.62c-0.152,0.043 -0.736,0.299 -1.318,0.528c0.217,-7.519 0.742,-17.289 1.08,-20.565c0.588,-5.705 0.154,-11.416 -0.021,-17.125Z" style="fill:#41b883;"/><path d="M494.641,27.158c0.722,0.231 1.445,0.461 2.159,0.698c3.149,1.045 6.453,1.961 9.658,2.96c9.281,2.89 18.724,5.63 28.004,8.515c3.039,0.945 6.211,1.761 9.3,2.661c1.154,0.337 2.332,0.639 3.504,0.955c0.073,0.019 1.039,0.224 0.982,0.282c-0.239,0.242 -2.514,0.563 -2.977,0.688c-2.608,0.707 -16.911,4.159 -23.281,6.111c-6.699,2.053 -24.896,6.508 -27.755,7.471c-0.195,0.066 -0.587,0.212 -1.029,0.348c-0.04,-6.856 0.731,-22.458 1.177,-26.776c0.134,-1.304 0.215,-2.609 0.258,-3.913Z" style="fill:#3b8070;"/><path d="M494.641,27.158c0.722,0.231 1.445,0.461 2.159,0.698c3.149,1.045 6.453,1.961 9.658,2.96c9.281,2.89 18.724,5.63 28.004,8.515c0.147,0.046 0.294,0.091 0.442,0.136c-7.756,2.469 -13.601,4.739 -24.915,7.021c-2.762,0.557 -12.768,3.881 -15.368,4.62c-0.152,0.043 -0.736,0.299 -1.318,0.528c0.217,-7.519 0.742,-17.289 1.08,-20.565c0.134,-1.304 0.215,-2.609 0.258,-3.913Z" style="fill:#35495e;"/></g><path d="M63.998,161.521c-0.003,0.855 -2.989,2.663 -3.486,3.092c-3.654,3.155 -7.167,6.497 -10.622,9.867c-2.958,2.886 -5.78,5.921 -8.531,9.004c-2.426,2.719 -4.759,5.486 -6.996,8.363c-6.785,8.725 -13.907,19.05 -13.906,30.581c0,4.105 0.261,8.764 3.876,11.402c6.006,4.381 15.682,2.918 22.442,1.644c17.862,-3.365 44.282,-18.366 46.632,-38.356c0.57,-4.844 3.461,-17.474 -0.948,-21.883" style="fill:#82b7d1;"/><path d="M242.502,192.264c-5.67,5.67 -9.069,12.673 -10.937,20.522c-1.505,6.325 -1.854,13.369 -0.144,19.688c5.79,21.391 10.403,15.624 33.079,15.026c7.508,-0.198 15.172,-9.989 16.728,-16.604c0.409,-1.738 2.463,-4.515 1.333,-6.396c-3.194,-5.32 -6.518,-3.688 -11.891,-4.609c-2.582,-0.443 -4.548,-2.192 -6.437,-4.271c-6.114,-6.726 6.396,-23.722 -4.586,-25.835" style="fill:#82b7d1;"/><path d="M232.691,183.211c-8.373,-8.965 -14.056,-22.078 -13.632,-34.489c0.442,-12.917 9.846,-24.258 23.394,-23.795c7.406,0.254 14.929,3.921 20.508,8.729c1.571,1.354 5.337,7.836 7.276,8.118c2.45,0.356 6.788,-1.942 9.197,-2.448c4.89,-1.028 17.222,4.589 21.882,14.459c3.854,8.163 0.926,20.459 -2.119,23.415c-14.065,13.658 -31.586,20.114 -50.945,18.593c-6.946,-0.546 -14.827,-1.204 -20.261,-6.097" style="fill:#ffe5f2;"/><path d="M247.966,165.272c3.491,3.768 19.966,7.285 25.415,-3.919c5.165,-10.621 -13.581,-20.649 -12.528,-20.193c1.988,0.863 17.202,9.003 19.923,2.006c3.121,-8.027 -4.198,-16.949 -12.266,-19.778" style="fill:#fff;stroke:#445;stroke-width:3px;"/><path d="M227.167,178.289c-1.302,-1.395 -5.552,0.152 -6.753,0.736c-4.366,2.123 -12.044,9.44 -9.365,14.964c4.413,9.098 21.012,5.878 27.279,1.187c1.872,-1.402 6.653,-4.833 6.162,-7.815" style="fill:#ffe5f2;"/><path d="M221.918,179.53c2.533,2.733 16.813,2.985 17.336,-2.841c0.695,-7.743 -14.037,-16.625 -10.943,-24.947c0.298,-0.801 8.775,-2.342 9.859,-2.8c8.294,-3.505 25.799,-19.465 10.817,-26.314c-22.939,-10.488 -40.987,20.055 -37.479,40.038c1.011,5.76 4.42,10.45 8.317,14.623c0.285,0.304 3.622,4.169 3.91,3.9" style="fill:#bad7e6;"/><path d="M91.37,240.493c0,2.808 -0.186,7.861 1.433,10.29c0.86,1.29 4.931,1.852 6.309,2.517c8.757,4.228 14.864,2.148 23.845,-1.306c2.28,-0.877 5.062,-0.614 7.088,-2.134c1.925,-1.445 0.689,-7.063 0.414,-8.984c-0.039,-0.275 -0.248,-2.447 -0.478,-2.676c-2.19,-2.19 -8.174,-3.132 -11.054,-4.572c-2.135,-1.067 -7.81,1.623 -10.451,2.165c-5.056,1.037 -10.687,0.24 -15.179,2.486" style="fill:#bad7e6;"/><path d="M91.37,227.113c0,2.807 -0.186,7.861 1.433,10.29c0.86,1.29 4.931,1.852 6.309,2.517c8.757,4.228 14.864,2.148 23.845,-1.306c2.28,-0.877 5.062,-0.614 7.088,-2.135c1.925,-1.445 0.689,-7.062 0.414,-8.984c-0.039,-0.274 -0.248,-2.446 -0.478,-2.676c-2.19,-2.189 -8.174,-3.131 -11.054,-4.571c-2.135,-1.068 -7.81,1.623 -10.451,2.165c-5.056,1.037 -10.687,0.24 -15.179,2.486" style="fill:#ff0078;"/><path d="M34.305,231.481c3.143,-2.049 6.83,-3.927 9.32,-5.001c2.154,-0.928 5.701,-2.144 7.648,-1.101c2.092,1.12 1.427,3.491 0.577,5.183c-2.257,4.494 -7.368,8.776 -11.809,12.849c-0.455,0.418 -5.621,4.206 -5.382,4.715" style="fill:none;stroke:#445;stroke-width:3px;"/><path d="M34.659,248.126c0.512,1.02 6.417,1.578 7.345,1.752c1.834,0.344 3.697,0.613 5.559,0.733c1.215,0.078 6.418,0.704 7.389,-0.43c1.063,-1.241 -2.712,-4.643 -3.378,-5.146c-3.544,-2.678 -9.317,-2.097 -12.009,-1.198c-1.844,0.616 -4.906,4.289 -4.906,4.289Z" style="fill:#445;stroke:#445;stroke-width:3px;"/><path d="M65.103,238.838c0.337,0.671 4.222,1.038 4.832,1.152c1.207,0.227 2.433,0.403 3.658,0.482c0.799,0.052 4.222,0.463 4.861,-0.283c0.699,-0.816 -1.785,-3.054 -2.223,-3.385c-2.331,-1.761 -6.129,-1.379 -7.9,-0.788c-1.213,0.405 -3.228,2.822 -3.228,2.822Z" style="fill:#445;stroke:#445;stroke-width:3px;"/><path d="M267.289,241.564c7.371,3.762 19.894,10.015 27.945,11.829c2.363,0.533 6.192,2.186 8.665,1.459" style="fill:none;stroke:#445;stroke-width:3px;"/><path d="M303.899,254.852c1.769,-0.521 1.16,-4.756 1.207,-6.063c0.147,-4.05 3.107,-18.239 -4.856,-11.501c-0.884,0.748 -1.672,1.597 -2.374,2.521c-1.109,1.457 -1.898,3.172 -2.437,4.917c-0.721,2.334 -1.09,5.047 -0.604,7.48" style="fill:#445;stroke:#445;stroke-width:3px;"/><path d="M277.5,231.203c2.446,0 20.813,-0.504 27.356,-1.146c3.128,-0.306 7.579,0.359 10.54,-0.958" style="fill:none;stroke:#445;stroke-width:3px;"/><path d="M315.396,229.099c2.981,-1.326 3.853,-14.655 0.749,-15.897c-2.214,-0.886 -4.204,1.327 -5.229,2.959c-2.502,3.98 -3.416,8.11 -3.416,12.73" style="fill:#445;stroke:#445;stroke-width:3px;"/><path d="M441.978,217.342c-6.38,0 -13.268,-1.602 -19.944,-1.25c-0.91,0.048 -6.13,-0.146 -6.609,1.058c-1.024,2.573 6.252,5.082 7.447,5.472c8.935,2.917 18.405,4.759 27.862,4.583c2.09,-0.038 4.202,-0.1 6.249,-0.555c16.504,-3.668 -1.111,-12.337 -9.782,-11.613" style="fill:none;stroke:#82b7d1;stroke-width:3px;"/><path d="M571.317,222.011c-0.004,-1.059 -4.963,-0.929 -5.422,-0.919c-5.909,0.137 -11.623,0.79 -17.416,1.917c-0.425,0.083 -5.849,1.057 -5.748,1.557c0.658,3.27 8.835,5.73 11.225,6.501c8.337,2.689 19.129,4.922 27.916,3.666c13.876,-1.982 5.717,-10.71 -3.061,-13.586c-3.391,-1.11 -6.899,-1.924 -10.444,-2.333" style="fill:none;stroke:#82b7d1;stroke-width:3px;"/><path d="M414.597,221.031c1.101,-0.567 0.17,-3.136 0.133,-3.799c-0.201,-3.583 -0.133,-7.167 -0.133,-10.751c0,-4.917 0.4,-9.831 0.4,-14.747c0,-2.553 0.145,-16.066 0.25,-16.608c0.403,-2.083 0.713,-2.296 4.818,-2.662c1.115,-0.099 29.128,-1.583 34.633,-1.447c7.003,0.172 6.299,2.781 6.299,5.806c0,2.282 0.189,4.545 0.467,6.822c1.197,9.799 0.333,19.568 0.333,29.375c0,2.343 0.209,4.716 0.683,7.046c0.268,1.312 1.108,2.926 0.117,4.203" style="fill:#82b7d1;"/><path d="M548.397,231.332c0,-9.445 -1.519,-18.907 -1.783,-28.356c-0.201,-7.178 -2.843,-14.701 -1.283,-21.857c0.337,-1.549 0.69,-3.108 0.916,-4.663c0.03,-0.207 -0.101,-1.338 0.3,-1.465c1.48,-0.471 5.631,-0.074 7.302,-0.168c7.698,-0.433 14.848,-0.393 22.551,-0.142c5.846,0.192 11.798,-0.131 17.615,0.221c1.431,0.087 4.746,0.077 5.549,0.874c1.902,1.89 -0.044,6.093 -0.351,8.081c-0.977,6.345 -1.788,12.743 -2.433,19.101c-0.633,6.25 -0.783,12.473 -0.783,18.731c0,4.23 2.768,12.946 -8.468,13.766c-2.346,0.172 -4.986,0.025 -7.334,-0.071c-3.099,-0.126 -6.306,-0.328 -9.301,-0.777c-5.121,-0.766 -10.086,-2.113 -14.632,-3.558" style="fill:#82b7d1;"/><path d="M542.496,175.5c0.002,-0.198 1.662,0.287 1.786,0.317c1.22,0.297 2.464,0.472 3.701,0.684c4.024,0.69 8.034,1.569 12.051,2.317c13.113,2.439 25.866,2.47 39.215,1.966c2.688,-0.101 11.106,1.866 12.432,-2.133c0.392,-1.183 -2.317,-4.691 -2.851,-5.501c-3.719,-5.635 -9.075,-9.499 -14.118,-13.834c-3.25,-2.794 -6.157,-5.789 -8.832,-9.132c-1.509,-1.887 -3.086,-4.694 -5.499,-5.6c-2.035,-0.764 -7.412,3.445 -8.919,4.349c-6.67,4.001 -13.465,7.616 -19.566,12.434c-1.883,1.487 -5.07,2.867 -6.299,5.017" style="fill:#ff0078;"/><path d="M407,175.016c8.449,0 16.851,0.935 25.303,1.01c5.854,0.051 11.746,-0.613 17.582,-0.269c4.07,0.24 8.134,0.36 12.199,0.575c0.783,0.042 3.274,0.868 3.983,0.461c0.433,-0.25 -0.627,-1.583 -0.767,-1.816c-1.162,-1.918 -2.113,-3.905 -3.218,-5.842c-3.789,-6.642 -9.11,-12.999 -13.916,-19.249c-0.768,-0.999 -3.192,-5.704 -5.016,-5.88c-1.145,-0.11 -2.206,1.27 -2.784,1.802c-2.075,1.909 -4.102,3.844 -6.334,5.649c-8.732,7.061 -20.88,13.496 -26.632,22.319" style="fill:#ff0078;"/><path d="M377.163,244.862c-4.084,0 -1.135,-6.476 -1.113,-7.098c0.268,-7.404 1.117,-14.813 1.117,-22.217c0,-3.84 0.434,-7.68 0.839,-11.517c0.437,-4.15 0.004,-8.789 2.188,-12.716c0.527,-0.948 -2.912,-3.862 -0.233,-4.5c7.113,-1.695 25.739,-0.502 33.854,-0.717c8.241,-0.218 16.469,-0.409 24.722,-0.55c13.89,-0.237 27.672,-0.401 41.577,-0.517c18.642,-0.155 37.876,-1.462 56.476,-0.883c5.108,0.159 13.192,-0.183 17.831,0.767c3.702,0.757 2.188,3.663 2.188,4.9c0,4.742 0.465,9.499 0.465,14.25c0,0.47 1.265,5.163 0.838,5.316" style="fill:#82b7d1;"/><path d="M401.06,249.025c-0.003,0.645 -0.299,-1.261 -0.361,-1.903c-0.122,-1.248 -0.197,-2.498 -0.264,-3.75c-0.206,-3.852 -0.453,-7.701 -0.598,-11.556c-0.405,-10.858 -0.219,-21.732 -0.75,-32.583c-0.131,-2.681 -0.558,-4.721 0.028,-7.361c0.084,-0.378 0.204,-2.054 0.709,-2.181c1.093,-0.273 2.546,0.222 3.681,0.153c3.012,-0.182 6.006,-0.653 9.028,-0.653c0.835,0 3.504,-0.314 4.18,0.361c1.638,1.64 0.052,9.222 3.375,9.417c2.457,0.145 9.521,0.508 10.264,-2.097c0.48,-1.683 -1.418,-8.321 1.352,-8.489c3.303,-0.2 13.436,0.097 15.253,1.248c1.795,1.137 1.253,9.835 4.478,9.144c3.162,-0.678 13.435,1.254 13.435,-1.254c0,-0.638 -1.304,-9.285 -0.335,-9.354c4.728,-0.338 6.051,-0.169 10.816,-0.169c1.884,0 4.909,-0.549 6.61,0.514c3.389,2.119 1.342,7.454 3.486,9.903c1.433,1.637 10.002,0.958 10.766,0.901c6.155,-0.456 -0.537,-7.347 1.722,-10.25c0.5,-0.642 3.091,-0.144 3.765,-0.18c4.169,-0.224 6.592,-0.43 10.809,-0.375c2.429,0.032 4.17,0.847 5.094,3.414c1.068,2.966 -0.947,8.765 3.196,8.765c1.143,0 13.497,1.159 14.162,0.049c1.577,-2.631 15.188,22.389 14.501,36.286c-0.262,5.307 -0.277,12.414 -4.444,16.361c-3.463,3.279 -10.318,3.322 -14.709,3.402c-7.999,0.145 -16.986,-1.58 -24.992,-1.425c-16.721,0.325 -32.315,-1.331 -50.34,-0.964c-8.071,0.165 -44.054,-1.187 -51.047,-3.518" style="fill:#bad7e6;"/><path d="M356.128,249.224l-3.131,-0.342c0,0.416 -0.217,-1.815 -0.25,-2.059c-0.214,-1.553 -0.449,-3.105 -0.684,-4.657c-0.321,-2.121 -1.119,-17.186 -1.063,-32.166c0.06,-16.041 0.998,-32.026 1.331,-33.233c0.21,-0.765 -0.22,-2.049 1.366,-2.136c6.751,-0.371 13.774,0.272 20.568,0.143c7.558,-0.142 15.234,-1.08 22.766,-0.682c1.626,0.086 5.526,-0.271 6.733,0.726c0.899,0.742 0.457,2.784 0.583,3.634c0.418,2.815 1.4,5.606 2.051,8.4c0.711,3.056 1.095,6.137 1.249,9.226c0.272,5.444 0.257,10.88 0.85,16.317c0.342,3.133 0.935,6.255 1.4,9.381c0.368,2.468 0.733,4.937 1.034,7.409c0.228,1.883 0.334,3.773 0.499,5.659c0.124,1.406 0.205,2.812 0.317,4.217c0.313,3.924 0.84,14.069 -7.367,15.425l-2.107,-0.23c-2.892,0.726 -6.014,0.979 -7.505,1.136c-10.377,1.092 -22.02,0.867 -31.916,-2.667c-1.798,-0.642 -4.568,-1.849 -6.724,-3.501Z" style="fill:#bad7e6;"/><path d="M342.07,176.426c-0.702,-1.405 4.109,0.215 4.986,0.385c3.69,0.714 7.464,1.065 11.218,1.166c14.145,0.383 28.747,3.49 42.831,2.484c2.559,-0.183 5.557,-0.464 8.117,-0.25c0.397,0.033 3.525,0.997 3.649,0.5c0.436,-1.752 -1.347,-4.789 -2.001,-6.268c-2.311,-5.231 -4.674,-10.406 -7.984,-15.1c-2.898,-4.111 -6.59,-7.562 -9.549,-11.616c-1.451,-1.989 -3.099,-5.369 -5.533,-6.383c-4.096,-1.708 -11.209,3.3 -14.535,5.049c-12.557,6.6 -22.041,15.784 -30.548,26.418" style="fill:#ff0078;"/><path d="M532.562,259.27l-1.565,-0.006c0,-12.971 1.246,-26.298 2.784,-39.261c1.082,-9.119 1.649,-18.208 1.433,-27.355c-0.118,-4.967 -0.504,-9.996 0.166,-14.944c0.135,-0.993 -0.663,-3.296 0.2,-4.145c0.793,-0.779 3.266,-0.799 4.401,-0.898c4.284,-0.372 8.195,-0.802 12.635,-0.627c3.884,0.153 7.812,0.055 11.667,0.467c4.854,0.52 9.771,1 14.582,1.71c1.258,0.186 3.967,0.004 4.682,0.972c2.94,3.98 0.546,11.306 0.217,15.522c-0.973,12.445 -3.666,24.899 -2.85,37.391c0.158,2.424 0.428,4.858 0.8,7.269c0.265,1.717 0.597,3.432 0.933,5.142c1.016,5.154 3.879,15.322 -3.881,18.609c-0.235,0.246 -0.505,0.497 -0.812,0.756c-8.203,6.909 -26.083,4.946 -35.359,2.917c-2.571,-0.563 -7.588,-1.353 -10.033,-3.519Z" style="fill:#bad7e6;"/><path d="M447.797,239.12c0,-17.574 1.28,-35.84 3.2,-53.519c1.68,-15.464 1.403,-30.992 3.434,-46.434c0.433,-3.297 -0.519,-19.128 0.584,-19.79c2.565,-1.538 10.756,4.47 13.717,4.325c6.658,-0.326 53.109,-9.33 56.982,-1.153c1.864,3.936 1.116,14.764 1.116,18.886c0,6.559 -0.245,13.123 -0.366,19.681c-0.374,20.196 -0.023,40.104 0.816,60.271c0.078,1.851 0.07,3.699 0.117,5.551c0.036,1.4 0.15,2.803 0.233,4.203c0.065,1.093 0.167,2.187 0.167,3.282c0,2.718 1.465,12.762 -4.684,12.382" style="fill:#bad7e6;"/><path d="M492.197,63.603c0,0.846 -2.284,2.575 -2.785,3.099c-3.057,3.195 -6.224,6.289 -9.351,9.416c-11.361,11.36 -22.007,23.304 -32.416,35.534c-2.423,2.846 -4.677,5.78 -7.015,8.667c-0.586,0.724 -2.435,1.67 -2.316,2.734c0.592,5.289 12.07,3.77 14.969,3.7c1.484,-0.036 2.967,-0.071 4.45,-0.133c20.559,-0.866 40.798,-0.217 61.316,-0.217c5.866,0 19.678,0.832 22.105,-1.676c2.427,-2.509 -5.389,-10.432 -7.542,-13.375c-6.629,-9.064 -37.266,-45.572 -39.898,-46.449" style="fill:#ff0078;"/><path d="M493.53,16.674c0,-0.205 0,3.785 0,4.624c0,3.204 0.008,6.428 0.019,9.627c0.027,8.732 -0.059,25.524 0.071,34.062" style="fill:none;stroke:#82b7d1;stroke-width:3px;"/><path d="M525.002,180.002c-2.099,4.46 9.56,2.893 14.437,3.2c10.987,0.693 22.047,-0.927 33.016,-1.45c5.311,-0.253 12.835,0.878 17.815,-1.466c3.466,-1.632 -2.791,-7.946 -3.986,-9.585c-5.351,-7.345 -10.344,-15.323 -17.132,-21.433c-1.12,-1.008 -2.786,-4.901 -4.2,-5.216c-2.793,-0.621 -7.694,4.081 -9.635,5.416c-8.469,5.821 -27.669,24.911 -30.315,30.534Z" style="fill:#ff0078;"/><path d="M399.824,189.691c1.093,-0.273 2.546,0.222 3.681,0.153c3.012,-0.182 6.006,-0.653 9.028,-0.653c0.835,0 3.504,-0.314 4.18,0.361c1.638,1.64 0.052,9.222 3.375,9.417c2.457,0.145 9.521,0.508 10.264,-2.097c0.48,-1.683 -1.418,-8.321 1.352,-8.489c3.303,-0.2 13.436,0.097 15.253,1.248c1.795,1.137 1.253,9.835 4.478,9.144c3.162,-0.678 13.435,1.254 13.435,-1.254c0,-0.638 -1.304,-9.285 -0.335,-9.354c4.728,-0.338 6.051,-0.169 10.816,-0.169c1.884,0 4.909,-0.549 6.61,0.514c3.389,2.119 1.342,7.454 3.486,9.903c1.433,1.637 10.002,0.958 10.766,0.901c6.155,-0.456 -0.537,-7.347 1.722,-10.25c0.5,-0.642 3.091,-0.144 3.765,-0.18c4.169,-0.224 6.592,-0.43 10.809,-0.375c2.429,0.032 4.17,0.847 5.094,3.414c1.068,2.966 -0.947,8.765 3.196,8.765c1.143,0 11.212,0.587 11.878,-0.522" style="fill:none;stroke:#82b7d1;stroke-width:2px;"/><path d="M358.804,181.813c-0.006,1.686 0,3.371 0,5.056c0,1.05 -0.473,3.768 0.325,4.646c0.227,0.249 0.745,0.209 1.046,0.256c0.605,0.093 3.065,0.776 3.317,-0.315c0.614,-2.663 0.46,-6.383 -0.411,-8.992c-0.579,-1.735 -3.058,-1.337 -3.781,0.107" style="fill:#82b7d1;"/><path d="M371.476,190.773c0,0.283 0,-0.565 0,-0.848c0,-0.661 0,-1.322 0,-1.984c0,-1.764 -0.371,-3.978 0.112,-5.701c0.152,-0.544 0.769,-0.521 1.232,-0.496c1.149,0.062 3.216,-0.048 4.251,0.443c0.813,0.385 0.35,2.526 0.33,3.2c-0.054,1.852 0.913,8.11 -2.539,6.959c-0.344,-0.114 -0.647,-0.278 -0.944,-0.485c-0.449,-0.314 -0.902,-0.693 -1.216,-1.147" style="fill:#82b7d1;"/><path d="M382.484,182.837c-0.006,1.613 -0.265,3.224 -0.299,4.838c-0.024,1.147 -0.273,3.086 0.587,4.037c1.014,1.121 2.594,0.097 3.739,-0.235c0.631,-0.182 1.434,-0.24 1.802,-0.869c0.523,-0.892 0.288,-2.228 0.134,-3.184c-0.42,-2.602 -1.673,-5.963 -5.057,-5.072" style="fill:#82b7d1;"/><path d="M541.048,184.63c-0.001,-0.162 -0.037,0.656 -0.041,0.733c-0.026,0.516 -0.035,1.032 -0.06,1.547c-0.065,1.371 -0.585,3.448 -0.08,4.773c0.24,0.629 1.01,0.627 1.581,0.627c1.343,0 3.445,0.16 4.639,-0.58c1.002,-0.62 0.624,-2.823 0.58,-3.773c-0.086,-1.842 -0.138,-4.905 -2.647,-5.014c-0.886,-0.039 -1.897,0.258 -2.753,0.453" style="fill:#82b7d1;"/><path d="M555.127,183.67c0,-0.293 -0.05,0.583 -0.087,0.873c-0.07,0.559 -0.151,1.116 -0.226,1.673c-0.216,1.594 -0.772,3.635 -0.333,5.227c0.642,2.335 5.126,1.401 6.58,0.46c0.754,-0.488 0.466,-2.247 0.466,-2.986c0,-3.121 0.097,-4.863 -3.394,-5.101c-0.657,-0.045 -1.316,-0.066 -1.973,-0.106" style="fill:#82b7d1;"/><path d="M570.166,185.269c-0.593,0 -0.803,2.045 -0.886,2.454c-0.47,2.319 -1.335,5.886 1.914,5.807c3.53,-0.086 4.811,-2.279 5.02,-5.52c0.056,-0.864 0.144,-2.342 -0.507,-3.047c-0.838,-0.908 -3.284,-0.633 -4.374,-0.714" style="fill:#82b7d1;"/><path d="M463.289,136.069c0.053,-0.106 0.229,-1.248 0.24,-1.24c0.163,0.122 0.03,0.915 0.026,1.073c-0.025,1.07 -0.096,2.138 -0.14,3.207c-0.156,3.851 -0.913,8.713 0.367,12.46c0.835,2.445 5.662,0.7 7.174,-0.073c2.165,-1.107 1.727,-4.006 1.559,-6.034c-0.224,-2.714 -0.496,-5.507 -1.2,-8.147c-0.296,-1.112 -0.741,-2.46 -1.76,-3.126c-0.705,-0.461 -1.889,-0.328 -2.713,-0.434c-1.529,-0.196 -2.421,-0.16 -3.56,0.98" style="fill:#82b7d1;"/><path d="M484.265,133.215c-0.01,2.8 0.041,5.606 -0.031,8.414c-0.055,2.103 -0.639,5.718 0.666,7.549c0.581,0.815 1.591,0.837 2.456,0.866c1.955,0.064 5.163,-0.287 6.132,-2.47c0.447,-1.008 0.573,-2.212 0.656,-3.314c0.215,-2.874 0.678,-8.016 -1.43,-10.257c-1.153,-1.227 -2.812,-1.392 -4.327,-1.521c-0.84,-0.072 -2.664,-0.663 -3.416,-0.066" style="fill:#82b7d1;"/><path d="M505.533,133.844c0,-0.372 -0.132,1.771 -0.15,2.044c-0.097,1.44 -0.191,2.878 -0.263,4.32c-0.08,1.624 -0.774,5.633 0.778,6.854c0.856,0.674 2.301,0.697 3.328,0.754c0.807,0.045 1.611,-0.039 2.361,-0.357c3.653,-1.549 3.222,-7.376 2.468,-10.525c-0.242,-1.01 -0.582,-2.654 -1.395,-3.392c-1.415,-1.285 -4.782,-0.689 -6.442,-0.635" style="fill:#82b7d1;"/><path d="M216.224,178.666c1.936,-0.62 11.596,-3.928 12.52,-4.329c5.749,-2.494 15.24,-5.659 19.347,-11.013c4.803,-6.261 16.086,-33.271 19.848,-38.903" style="fill:none;stroke:#445;stroke-width:5.5px;"/><path d="M66.183,162.08c4.649,-11.352 14.189,-21.991 25.644,-26.79c11.921,-4.993 26.152,-1.185 31.39,11.318c2.863,6.835 2.673,15.203 0.634,22.279c-0.574,1.993 -4.891,8.122 -4.337,10.002c0.7,2.375 4.6,5.356 6.066,7.334c2.976,4.014 3.023,17.564 -3.999,25.921c-5.807,6.911 -16.95,4.388 -22.159,3.355c-19.231,-3.813 -31.468,-15.799 -38.172,-34.025c-2.405,-6.539 -5.098,-13.974 -2.923,-20.955" style="fill:#ffe5f2;"/><path d="M88.862,168.467c-1.965,4.746 -4.485,19.023 7.879,20.556c14.42,1.788 16.417,-20.569 16.417,-20.569c0,0 -2.785,18.676 9.819,20.669c8.507,1.345 14.292,-11.79 9.775,-18.815" style="fill:#fff;stroke:#445;stroke-width:3px;"/><path d="M68.348,155.006c0.723,-1.765 -2.456,-4.981 -3.489,-5.829c-3.752,-3.08 -13.608,-7 -17.508,-2.259c-6.424,7.809 3.435,21.546 10.315,25.281c2.056,1.116 7.17,4.027 9.674,2.335" style="fill:#ffe5f2;"/><path d="M65.029,150.755c-1.426,3.443 4.308,16.523 9.821,14.565c7.325,-2.603 9.243,-19.697 18.097,-20.362c0.852,-0.064 5.793,6.995 6.662,7.788c6.649,6.073 28.46,15.311 28.427,-1.161c-0.052,-25.223 -35.341,-28.865 -52.033,-17.332c-4.811,3.324 -7.649,8.381 -9.812,13.665c-0.158,0.385 -2.276,5.032 -1.911,5.181" style="fill:#bad7e6;"/><path d="M64.296,149.006c-0.132,-1.771 7.551,5.11 8.301,5.782c4.667,4.182 11.507,11.484 18.088,12.98c7.694,1.749 16.958,-0.524 24.908,0.229c2.95,0.28 17.034,2.13 15.72,1.592" style="fill:none;stroke:#445;stroke-width:5.5px;"/><path d="M98.838,175.307c-2.024,0 -3.22,2.701 -3.474,3.586c-0.63,2.189 -0.351,7.619 2.96,7.708c3.311,0.09 3.646,-6.444 3.356,-8.503c-0.18,-1.279 -0.817,-2.791 -2.842,-2.791Z" style="fill:#445;"/><path d="M258.587,152.238c-0.514,1.958 1.796,3.8 2.587,4.27c1.958,1.164 7.281,2.272 8.207,-0.908c0.926,-3.179 -5.309,-5.161 -7.374,-5.403c-1.282,-0.15 -2.907,0.083 -3.42,2.041Z" style="fill:#445;"/><path d="M121.63,175.665c-1.34,-0.379 -2.517,2.33 -3.045,3.579c-0.684,1.614 -1,3.669 -0.455,5.369c1.174,3.666 3.843,1.01 4.608,-1.287c0.324,-0.973 0.477,-2.005 0.502,-3.029c0.035,-1.399 -0.271,-4.253 -1.61,-4.632Z" style="fill:#445;"/><path d="M267.603,132.283c-0.706,1.2 1.616,3.025 2.69,3.853c1.388,1.071 3.295,1.897 5.077,1.802c3.845,-0.206 1.952,-3.461 -0.075,-4.784c-0.86,-0.561 -1.819,-0.97 -2.803,-1.254c-1.344,-0.389 -4.183,-0.817 -4.889,0.383Z" style="fill:#445;"/><path d="M104.969,192.661c-0.023,5.848 9.081,6.235 9.741,0.269" style="fill:none;stroke:#445;stroke-width:2px;"/><path d="M281.92,155.088c5.587,1.728 8.613,-6.867 3.1,-9.239" style="fill:none;stroke:#445;stroke-width:2px;"/><path d="M70.667,213.822c0,1.93 2.967,5.103 4.002,6.49c4.465,5.987 10.506,11.13 17.538,13.815c1.998,0.763 3.999,1.263 6.119,1.528c0.356,0.045 2.243,-0.071 2.517,0.204" style="fill:none;stroke:#ffe5f2;stroke-width:3px;"/><path d="M104.667,231.376c-2.993,0 -4.515,4.404 -3.786,6.853c1.074,3.611 5.955,4.454 8.954,2.954" style="fill:none;stroke:#ffe5f2;stroke-width:3px;"/><path d="M238.759,216.834c-1.352,-1.351 -4.929,1.997 -5.735,2.766c-4.372,4.166 -7.558,9.773 -9.416,15.484" style="fill:none;stroke:#ffe5f2;stroke-width:3px;"/><path d="M216.759,242.034c-0.002,0.997 0.121,-2.05 0.584,-2.933c1.062,-2.027 3.185,-4.029 5.651,-3.733c4.941,0.593 6.643,8.869 5.715,12.766" style="fill:none;stroke:#ffe5f2;stroke-width:3px;"/><path d="M344.757,224.53c0,0.668 -0.229,-1.787 -0.229,-1.979c0,-1.633 0.03,-3.263 0.063,-4.896c0.103,-5.209 0.254,-10.416 0.354,-15.625" style="fill:none;stroke:#ecf4f8;stroke-width:3px;"/><path d="M323.757,213.53c0,-2.159 0.18,-4.287 0.375,-6.437" style="fill:none;stroke:#ecf4f8;stroke-width:3px;"/><path d="M605.253,225.03c0,-7.609 -0.42,-15.025 0.334,-22.687" style="fill:none;stroke:#ecf4f8;stroke-width:3px;"/><path d="M615.253,217.03c0,-2.778 0,-5.555 0,-8.333" style="fill:none;stroke:#ecf4f8;stroke-width:3px;"/><path d="M582.753,125.53c0,3.388 4.177,8.099 5.9,10.625c6.479,9.5 13.98,18.317 21.959,26.583" style="fill:none;stroke:#ecf4f8;stroke-width:3px;"/><path d="M596.751,131.028c1.79,0.895 4.08,5.731 5.359,7.273c5.15,6.205 10.718,11.992 16.334,17.771" style="fill:none;stroke:#ecf4f8;stroke-width:3px;"/><path d="M453.255,67.03c-0.006,1.505 -3.157,3.827 -4.046,4.728c-4.125,4.183 -8.64,7.961 -13.419,11.374" style="fill:none;stroke:#ecf4f8;stroke-width:3px;"/><path d="M513.751,75.028c-0.02,0 0.833,1.349 0.898,1.439c0.745,1.03 1.556,2.009 2.376,2.979c2.359,2.791 4.94,5.387 7.69,7.793" style="fill:none;stroke:#ecf4f8;stroke-width:3px;"/><path d="M465.755,63.53c0,3.239 -4.507,7.449 -6.337,9.624c-7.067,8.398 -15.561,15.905 -24.668,22.02" style="fill:none;stroke:#ecf4f8;stroke-width:3px;"/></svg>