<?xml version="1.0" encoding="UTF-8" standalone="no"?><!DOCTYPE svg PUBLIC "-//W3C//DTD SVG 1.1//EN" "http://www.w3.org/Graphics/SVG/1.1/DTD/svg11.dtd"><svg width="100%" height="100%" viewBox="0 0 300 240" version="1.1" xmlns="http://www.w3.org/2000/svg" xmlns:xlink="http://www.w3.org/1999/xlink" xml:space="preserve" xmlns:serif="http://www.serif.com/" style="fill-rule:evenodd;clip-rule:evenodd;stroke-linejoin:round;stroke-miterlimit:1.41421;"><rect id="node-error" x="0" y="0" width="300" height="240" style="fill:none;"/><path d="M212.897,62.305l-63.798,11.683c-2.389,0.437 -4.357,2.113 -5.17,4.394l-21.785,61.125c-0.813,2.282 -0.349,4.824 1.226,6.673l42.024,49.424c1.572,1.845 4.011,2.714 6.392,2.279l63.802,-11.709c2.379,-0.44 4.349,-2.116 5.162,-4.396l21.785,-61.125c0.813,-2.281 0.346,-4.825 -1.231,-6.675l-42.016,-49.395c-0.789,-0.922 -1.793,-1.601 -2.898,-1.995c-1.105,-0.394 -2.312,-0.503 -3.507,-0.288" style="fill:#689f63;fill-opacity:0.196078;stroke:#689f63;stroke-width:7.5px;"/><path d="M148.127,131.436c1.339,1.395 2.01,4.317 2.78,6.034c2.302,5.136 4.655,10.249 6.956,15.385" style="fill:none;stroke:#689f63;stroke-width:3px;stroke-linecap:round;stroke-miterlimit:1.5;"/><path d="M141.463,147.906c0.33,0.117 1.518,-0.764 1.764,-0.898c1.637,-0.89 3.248,-1.821 4.842,-2.786c5.676,-3.432 11.633,-7.657 18.047,-9.591" style="fill:none;stroke:#689f63;stroke-width:3px;stroke-linecap:round;stroke-miterlimit:1.5;"/><path d="M212.403,154.415c-0.044,-0.366 0.28,0.811 0.295,0.852c0.232,0.639 0.479,1.273 0.733,1.904c0.768,1.908 1.616,3.782 2.505,5.637c2.548,5.317 5.358,10.523 8.355,15.601" style="fill:none;stroke:#689f63;stroke-width:3px;stroke-linecap:round;stroke-miterlimit:1.5;"/><path d="M227.861,160.19c-5.848,2.775 -11.3,7.176 -16.637,10.791" style="fill:none;stroke:#689f63;stroke-width:3px;stroke-linecap:round;stroke-miterlimit:1.5;"/><path d="M176.953,160.023c-1.71,-0.102 -4.693,0.777 -6.188,1.626c-6.312,3.588 -6.948,13.84 -0.165,17.376c11.602,6.049 17.474,-7.118 14.923,-12.318c-2.552,-5.2 -6.86,-6.583 -8.57,-6.684Z" style="fill:#689f63;"/><g><clipPath id="_clip1"><path d="M230.214,5.339l-213.5,0l48.373,88.783l36.794,48.158c0,0 81.04,-25.921 88.092,-29.033c12.963,-5.719 48.009,-18.859 48.009,-18.859l-7.768,-89.049Z"/></clipPath><g clip-path="url(#_clip1)"><path d="M46.005,64.482c0,0 14.523,-10.447 48.742,-4.432c35.668,6.269 78.605,43.929 78.605,43.929c0,0 -5.923,3.535 -12.752,4.8c-8.113,1.503 -17.339,0.79 -17.122,0.975c3.563,3.051 54.211,11.227 54.211,11.227c0,0 5.649,-47.125 4.48,-47.71c-0.365,-0.183 -2.051,6.177 -4.992,11.261c-2.817,4.87 -6.902,8.47 -6.933,8.439c-0.618,-0.618 -44.193,-54.293 -88.389,-65.483c-45.009,-11.397 -70.499,10.327 -70.499,10.327l14.649,26.667Z" style="fill:#ecf4f8;stroke:#82b7d1;stroke-width:3px;stroke-linecap:round;stroke-miterlimit:1.5;"/><path d="M210.721,107.372l-45.502,16.226c0,0 -0.86,-1.277 -0.935,-2.748c-0.148,-2.91 2.675,-5.521 5.152,-6.624c4.53,-2.017 9.538,-0.233 9.99,-0.459c0.224,-0.112 -0.646,-7.344 2.449,-9.029c6.339,-3.449 10.023,1.936 11.425,3.343c0.537,0.54 -0.271,-3.601 3.226,-6.6c3.258,-2.793 8.333,-4.785 11.45,-1.125c1.033,1.213 1.808,2.775 2.249,4.3c0.284,0.98 0.496,2.716 0.496,2.716Z" style="fill:#ff0078;"/></g></g><path d="M235.386,197.551c4.935,0.786 13.506,2.894 18.025,5.092" style="fill:none;stroke:#689f63;stroke-width:3px;stroke-linecap:round;"/><path d="M245.341,200.311c-0.719,3.175 -2.176,12.602 -5.346,13.585c-3.219,0.998 -7.318,-2.997 -9.543,-4.892" style="fill:none;stroke:#689f63;stroke-width:3px;stroke-linecap:round;"/><path d="M268.446,209.02c-1.144,-1.713 -2.616,-2.859 -3.517,-3.222c-2.399,-0.966 -6.189,-1.744 -7.492,1.255c-2.018,4.646 4.058,6.029 6.334,8.729c1.467,1.741 1.805,4.569 -0.217,6.056c-3.814,2.804 -10.23,0.173 -10.971,-3.777c-0.158,-0.837 -0.376,-2.552 -0.016,-3.662" style="fill:none;stroke:#689f63;stroke-width:3px;stroke-linecap:round;"/><path d="M218.456,201.888c-1.44,0.629 -1.737,3.288 -0.069,4.184c2.3,1.237 5.285,-1.964 2.938,-3.731c0,0 -1.429,-1.081 -2.869,-0.453Z" style="fill:#689f63;"/><path d="M58.763,35.877c-2.235,3.126 -5.592,8.587 -2.29,12.145c1.916,2.064 4.481,1.208 6.006,-0.798c0.673,-0.886 1.128,-1.971 1.491,-3.017c0.174,-0.5 0.519,-1.499 0.519,-1.499c0,0 0.062,1.324 0.188,1.973c0.258,1.326 0.743,2.649 1.683,3.647c1.793,1.903 4.332,1.172 6.121,-0.337c2.742,-2.312 2.922,-6.768 1.59,-9.886c-0.304,-0.709 -1.277,-2.246 -2.635,-2.811" style="fill:none;stroke:#ff0078;stroke-width:2.5px;stroke-linecap:round;"/><path d="M81.798,35.406c-0.271,4.931 -1.291,9.815 -1.562,14.749" style="fill:none;stroke:#ff0078;stroke-width:2.5px;stroke-linecap:round;"/><path d="M88.159,50.3c0.131,-1.956 0.265,-3.907 0.516,-5.853c0.165,-1.276 0.364,-2.552 0.631,-3.811c0.434,-2.05 2.096,-7.29 3.459,-2.791c0.149,0.49 0.28,0.986 0.402,1.483c0.192,0.776 0.363,1.557 0.533,2.338c0.168,0.764 0.33,1.53 0.521,2.289c0.542,2.156 2.153,11.887 4.233,5.325c0.229,-0.722 0.409,-1.465 0.601,-2.199c0.362,-1.391 0.682,-2.793 1.015,-4.192c0.437,-1.829 1.386,-4.105 1.511,-5.975" style="fill:none;stroke:#ff0078;stroke-width:2.5px;stroke-linecap:round;"/><path d="M104.335,54.644c-0.428,-1.388 4.42,-12.65 4.801,-13.12c1.145,-1.407 2.667,-0.973 4.121,-0.207c4.227,2.23 5.945,8.267 4.024,12.557c-1.79,3.996 -6.358,4.042 -10.013,2.188c-0.348,-0.177 -2.815,-1.037 -2.933,-1.418Z" style="fill:none;stroke:#ff0078;stroke-width:2.5px;stroke-linecap:round;"/><path d="M130.422,51.084c-3.857,-0.995 -6.539,2.255 -6.917,2.816c-3.308,4.911 0.903,12.184 6.971,11.562c7.625,-0.783 6.074,-12.796 -0.054,-14.378Z" style="fill:none;stroke:#ff0078;stroke-width:2.5px;stroke-linecap:round;"/><path d="M146.845,62.001c-5.379,-1.212 -11.322,5.804 -8.647,9.357c1.575,2.092 4.769,1.328 6.616,0.124c0.271,-0.177 1.498,-1.46 1.757,-1.436c0.444,0.04 -0.349,0.829 -0.499,1.252c-0.342,0.964 -0.58,1.936 -0.536,2.965c0.095,2.213 1.79,3.843 4.026,3.559c3.446,-0.439 4.957,-4.957 4.705,-8.001c-0.052,-0.631 0.142,-1.829 -0.684,-2.882" style="fill:none;stroke:#ff0078;stroke-width:2.5px;stroke-linecap:round;"/><path d="M212.033,83.63c-1.122,0.492 -2.308,1.895 -2.583,3.195c-0.549,2.591 0.667,5.467 3.581,5.672c5.445,0.384 9.433,-8.676 2.714,-9.766c0,0 -2.59,0.406 -3.712,0.899Z" style="fill:#ff0078;"/><path d="M212.934,76.027c-0.609,0.003 -0.109,1.721 0.017,1.923c1.051,1.68 4.362,2.427 5.125,0.063c0.806,-2.499 -2.28,-3.58 -4.215,-2.611c-0.681,0.342 -0.927,0.625 -0.927,0.625Z" style="fill:#ff0078;"/><path d="M215.332,69.882c-0.863,0.254 -1.043,0.951 -0.662,1.49c0.593,0.84 2.196,0.329 1.999,-0.75c0,0 -0.474,-0.993 -1.337,-0.74Z" style="fill:#ff0078;"/><path d="M143.183,118.949c-0.823,-0.624 -3.45,-0.446 -3.952,-0.125c-1.191,0.763 -2.439,2.022 -2.671,3.47c-1.035,6.434 11.132,4.918 7.937,-1.688c-0.316,-0.653 -0.734,-1.216 -1.314,-1.657Z" style="fill:#ff0078;"/><path d="M170.967,107.848c-1.479,1.718 2.126,5.961 4.062,2.383c1.317,-2.434 -2.329,-3.546 -3.986,-2.625l-0.076,0.242Z" style="fill:#ff0078;"/><path d="M186.705,99.959c-1.278,0 -1.76,0.225 -2.77,1.393c-1.859,2.151 0.657,5.801 3.267,5.958c5.111,0.306 3.43,-4.999 2.283,-6.424c-0.93,-1.155 -2.78,-0.927 -2.78,-0.927Z" style="fill:#ff0078;"/><path d="M116.736,121.341c0.112,0.023 0.226,-0.034 0.274,-0.138c0.048,-0.104 0.018,-0.227 -0.072,-0.298c-0.902,-0.654 -2.183,-1.386 -2.838,-1.472c-3.803,-0.504 -8.13,0.68 -11.728,2.188c-2.896,1.214 -5.07,3.6 -2.372,6.298c5.076,5.074 8.574,-1.208 11.563,-4.469c0.768,-0.838 3.752,-3.055 5.171,-2.109c0,0 0.001,0 0.002,0Z" style="fill:#ff0078;"/><path d="M126.248,96.871c0,0 -0.241,-0.156 -0.593,-0.281c-0.599,-0.211 -1.212,-0.398 -1.829,-0.547c-1.928,-0.465 -3.857,-0.987 -5.86,-0.828c-3.739,0.297 -5.496,4.198 -4.013,7.548c0.342,0.772 0.894,1.529 1.563,2.047c0.566,0.437 1.247,0.77 1.922,1c4.661,1.582 6.362,-4.02 9.867,-5.295c0.97,-0.352 2.111,-0.209 2.984,0.329c0.368,0.226 0.615,2.149 1.117,1.731c2.729,-2.274 -3.701,-5.471 -5.158,-5.704Z" style="fill:#ff0078;"/></svg>