<?xml version="1.0" encoding="UTF-8" standalone="no"?><!DOCTYPE svg PUBLIC "-//W3C//DTD SVG 1.1//EN" "http://www.w3.org/Graphics/SVG/1.1/DTD/svg11.dtd"><svg width="100%" height="100%" viewBox="0 0 600 285" version="1.1" xmlns="http://www.w3.org/2000/svg" xmlns:xlink="http://www.w3.org/1999/xlink" xml:space="preserve" xmlns:serif="http://www.serif.com/" style="fill-rule:evenodd;clip-rule:evenodd;stroke-linecap:round;stroke-linejoin:round;stroke-miterlimit:1.5;"><rect id="structure" x="0" y="0" width="600" height="285" style="fill:none;"/><g id="vue"><path d="M13.837,23.352c0,-0.104 1.108,1.544 1.128,1.586c0.261,0.546 0.555,1.076 0.831,1.614c0.77,1.501 1.617,2.96 2.436,4.434c2.455,4.419 5.471,8.496 7.874,12.958c6.793,12.617 15.052,24.376 21.975,36.938c1.663,3.018 2.795,6.307 4.567,9.26c0.139,0.232 1.272,2.515 1.613,2.515c0.025,0 0.118,-0.352 0.126,-0.376c0.385,-1.157 20.34,-31.665 26.778,-43.605c2.976,-5.52 6.956,-10.839 9.447,-16.585c0.855,-1.972 4.686,-8.767 4.327,-8.768c-5.53,-0.022 -10.537,-0.021 -16.513,-0.182c-2.745,-0.074 -6.818,-0.365 -9.554,-0.365c-1.076,0 -4.702,-0.034 -5.225,0.141c-0.11,0.037 -0.123,0.42 -0.133,0.501c-0.196,1.469 -7.011,13.044 -9.221,15.089c-0.027,0.025 -0.15,-0.434 -0.165,-0.478c-0.156,-0.469 -3.459,-5.223 -3.628,-5.689c-0.439,-1.207 -3.409,-5.255 -5.756,-9.061c-1.497,-0.087 -14.774,-0.413 -18.847,-0.508c-2.924,-0.068 -12.06,0.581 -12.06,0.581Z" style="fill:#41b883;"/><path d="M28.912,22.843c5.504,0.134 14.607,0.365 15.832,0.436c2.347,3.806 5.317,7.854 5.756,9.061c0.169,0.466 3.472,5.22 3.628,5.689c0.015,0.044 0.138,0.503 0.165,0.478c2.21,-2.045 9.025,-13.62 9.221,-15.089c0.01,-0.081 0.023,-0.464 0.133,-0.501c0.523,-0.175 4.149,-0.141 5.225,-0.141c2.736,0 6.809,0.291 9.554,0.365c0.81,0.022 1.603,0.04 2.381,0.057c-6.787,12.363 -26.042,41.811 -26.42,42.947c-0.008,0.025 -0.101,0.376 -0.126,0.376c-0.341,0 -1.474,-2.282 -1.613,-2.514c-1.772,-2.954 -2.904,-6.242 -4.567,-9.26c-5.995,-10.877 -12.99,-21.153 -19.169,-31.904Z" style="fill:#35495e;"/></g><g id="nuxt"><path d="M451.645,92.423c0.251,-0.462 0.498,-0.904 0.749,-1.293c2.442,-3.781 5.01,-7.482 7.4,-11.295c7.261,-11.586 14.252,-23.158 20.952,-35.034c2.339,-4.146 4.667,-8.15 6.302,-12.645c0.395,-1.087 0.902,-2.031 1.456,-3.03c0.062,-0.111 0.305,-0.907 0.454,-0.907c0.228,0 6.164,11.167 8.023,14.714c6.991,13.339 13.015,18.67 19.08,33.863c1.103,2.763 7.682,12.768 9.145,15.368c0.086,0.152 0.593,0.736 1.045,1.318c-14.884,-0.217 -34.223,-0.742 -40.708,-1.08c-11.293,-0.588 -22.597,-0.154 -33.898,0.021Z" style="fill:#41b883;"/><path d="M477.798,92.144c0.457,-0.722 0.912,-1.445 1.381,-2.159c2.068,-3.149 3.883,-6.453 5.859,-9.658c5.722,-9.281 11.146,-18.723 16.857,-28.004c1.869,-3.039 3.485,-6.211 5.266,-9.3c0.666,-1.154 1.264,-2.332 1.89,-3.504c0.039,-0.073 0.445,-1.039 0.559,-0.982c0.478,0.239 1.114,2.514 1.362,2.977c1.399,2.608 8.232,16.911 12.096,23.281c4.064,6.699 12.883,24.896 14.789,27.755c0.13,0.195 0.42,0.588 0.689,1.029c-13.572,0.04 -44.455,-0.731 -53.003,-1.177c-2.582,-0.134 -5.163,-0.215 -7.745,-0.258Z" style="fill:#3b8070;"/><path d="M477.798,92.144c0.457,-0.722 0.912,-1.445 1.381,-2.159c2.068,-3.149 3.883,-6.453 5.859,-9.658c5.722,-9.281 11.146,-18.723 16.857,-28.004c0.09,-0.147 0.18,-0.294 0.269,-0.442c4.887,7.756 9.38,13.601 13.897,24.915c1.103,2.763 7.682,12.768 9.145,15.368c0.086,0.152 0.593,0.736 1.045,1.318c-14.884,-0.217 -34.223,-0.742 -40.708,-1.08c-2.582,-0.134 -5.163,-0.215 -7.745,-0.258Z" style="fill:#35495e;"/></g><path d="M261.443,121.675c0.431,5.792 0.889,11.591 0.889,17.397c0,13.936 -0.598,24.892 -0.598,38.804c0,1.834 1.595,11.25 0,12.65c-1.224,1.073 -18.203,4.565 -20.017,5.064c-14.935,4.111 -16.234,2.35 -32.696,-3.45c-7.144,-2.516 -14.618,-4.241 -21.666,-6.973c-4.319,-1.674 -16.208,-5.917 -18.915,-9.493c-1.918,-2.534 -1.364,-8.073 -1.5,-10.839c-0.401,-8.121 -0.889,-16.183 -0.889,-24.32c0,-6.547 -0.667,-13.074 -0.667,-19.622c0,-5.717 -2.374,-17.432 0.667,-22.779c1.313,-2.309 19.7,-6.493 22.045,-6.607c10.133,-0.494 10.661,-2.53 20.224,2.445c0.94,0.489 12.616,3.509 23.246,6.853c11.965,3.764 22.452,6.06 27.432,9.538c3.42,2.389 2.308,9.497 2.445,11.332Z" style="fill:#bad7e6;"/><path d="M261.443,121.675c0.431,5.792 0.889,11.591 0.889,17.397c0,13.936 -0.598,24.892 -0.598,38.804c0,1.834 1.595,11.25 0,12.65c-1.224,1.073 -18.203,4.565 -20.017,5.064c-14.935,4.111 -16.234,2.35 -32.696,-3.45c-7.144,-2.516 -14.618,-4.241 -21.666,-6.973c-4.319,-1.674 -16.208,-5.917 -18.915,-9.493c-1.918,-2.534 -1.364,-8.073 -1.5,-10.839c-0.401,-8.121 -0.889,-16.183 -0.889,-24.32c0,-6.547 -0.667,-13.074 -0.667,-19.622c0,-5.717 -2.374,-17.432 0.667,-22.779c1.313,-2.309 19.7,-6.493 22.045,-6.607c10.133,-0.494 10.661,-2.53 20.224,2.445c0.94,0.489 12.616,3.509 23.246,6.853c11.965,3.764 22.452,6.06 27.432,9.538c3.42,2.389 2.308,9.497 2.445,11.332Z" style="fill:#bad7e6;"/><path d="M284.537,117.242c-0.431,5.791 -0.888,11.59 -0.888,17.396c0,13.936 0.597,24.892 0.597,38.804c0,1.835 -1.595,11.251 0,12.65c1.224,1.074 18.204,4.565 20.017,5.065c14.935,4.11 16.234,2.349 32.696,-3.45c7.144,-2.517 14.618,-4.242 21.666,-6.973c4.319,-1.674 16.209,-5.917 18.915,-9.494c1.919,-2.534 1.364,-8.073 1.5,-10.838c0.401,-8.121 0.889,-16.184 0.889,-24.321c0,-6.547 0.667,-13.074 0.667,-19.622c0,-5.717 2.374,-17.432 -0.667,-22.779c-1.313,-2.309 -19.7,-6.493 -22.045,-6.607c-10.133,-0.494 -10.661,-2.53 -20.224,2.446c-0.94,0.489 -12.615,3.508 -23.246,6.852c-11.965,3.764 -22.452,6.06 -27.431,9.538c-3.421,2.39 -2.309,9.497 -2.446,11.333Z" style="fill:#bad7e6;"/><path d="M254.097,175.593c0.291,4.8 -3.962,10.872 -9.417,9.333c-5.497,-1.55 -7.247,-8.841 -4.475,-13.393c2.139,-3.513 5.982,-4.082 8.298,-3.406c2.315,0.677 5.32,2.932 5.594,7.466Z" style="fill:#445;stroke:#ecf4f8;stroke-width:3px;"/><path d="M291.883,171.159c-0.291,4.8 3.963,10.872 9.417,9.333c5.497,-1.55 7.247,-8.84 4.475,-13.393c-2.138,-3.513 -5.982,-4.082 -8.298,-3.405c-2.315,0.676 -5.32,2.931 -5.594,7.465Z" style="fill:#445;stroke:#ecf4f8;stroke-width:3px;"/><path d="M256.664,119.522c0.44,0.696 0.347,3.114 0.36,3.663c0.037,1.499 0.146,2.995 0.241,4.491c0.282,4.405 0.521,8.808 0.611,13.222c0.041,2.007 -0.135,8.759 -0.135,10.13c0,1.429 0.559,4.241 -0.213,5.527c-0.526,0.877 -2.344,1.057 -3.223,1.139c-2.986,0.278 -7.961,1.037 -10.906,1.691c-2.189,0.487 -5.207,1.465 -7.419,1.868c-0.619,0.112 -1.607,0.571 -2.241,0.333c-0.863,-0.324 -1.027,-2.649 -1.167,-3.333c-0.729,-3.588 -0.93,-13.857 -0.834,-17.516c0.152,-5.798 -0.533,-12.711 0.821,-18.277c0.282,-1.162 12.077,-1.708 15.975,-2.341c1.961,-0.318 3.903,-0.756 5.852,-1.11c0.597,-0.109 1.907,-0.074 2.278,0.513Z" style="fill:#ecf4f8;"/><path d="M289.316,115.131c-0.44,0.748 -0.347,3.347 -0.36,3.937c-0.037,1.611 -0.145,3.219 -0.241,4.827c-0.282,4.736 -0.521,9.469 -0.611,14.213c-0.041,2.158 0.135,9.416 0.135,10.889c0,1.537 -0.559,4.559 0.213,5.942c0.526,0.942 2.345,1.137 3.223,1.225c2.986,0.298 7.961,1.114 10.906,1.818c2.19,0.523 5.207,1.575 7.419,2.007c0.619,0.121 1.608,0.614 2.241,0.358c0.863,-0.348 1.027,-2.847 1.167,-3.583c0.73,-3.856 0.93,-14.895 0.834,-18.828c-0.152,-6.233 0.533,-13.665 -0.821,-19.648c-0.282,-1.248 -12.077,-1.836 -15.975,-2.515c-1.961,-0.342 -3.903,-0.814 -5.852,-1.194c-0.597,-0.117 -1.907,-0.079 -2.278,0.552Z" style="fill:#ecf4f8;"/><path d="M165.194,100.23c-1.661,5.888 0.19,15.614 0.19,20.663c0,6.548 0.667,13.075 0.667,19.622c0,8.137 0.488,16.199 0.889,24.32c0.136,2.766 -0.418,8.305 1.5,10.839c2.707,3.576 14.596,7.819 18.915,9.493c7.048,2.732 14.522,4.457 21.666,6.973c8.918,3.142 13.386,5.099 17.983,5.579c0.552,-2.197 0.426,-4.72 0.551,-6.721c0.61,-9.759 0.358,-19.431 -0.599,-29.167c-0.97,-9.859 0.305,-19.795 -0.95,-29.683c-0.397,-3.126 -0.488,-8.157 -2.25,-10.9c-1.637,-2.548 -7.638,-3.265 -10.233,-4.284c-9.755,-3.833 -18.713,-7.789 -28.981,-10.501c-5.918,-1.563 -12.982,-5.241 -19.348,-6.233Z" style="fill:#82b7d1;"/><path d="M380.786,95.796c1.662,5.888 -0.19,15.614 -0.19,20.663c0,6.548 -0.667,13.075 -0.667,19.622c0,8.137 -0.488,16.2 -0.889,24.321c-0.136,2.765 0.419,8.304 -1.5,10.838c-2.706,3.577 -14.596,7.82 -18.915,9.494c-7.048,2.731 -14.522,4.456 -21.666,6.973c-8.918,3.141 -13.386,5.098 -17.983,5.578c-0.552,-2.197 -0.426,-4.72 -0.551,-6.721c-0.61,-9.758 -0.358,-19.43 0.599,-29.167c0.97,-9.859 -0.305,-19.795 0.95,-29.683c0.397,-3.126 0.488,-8.156 2.25,-10.9c1.637,-2.548 7.638,-3.265 10.233,-4.284c9.755,-3.832 18.714,-7.788 28.981,-10.501c5.918,-1.563 12.982,-5.241 19.348,-6.233Z" style="fill:#82b7d1;"/><g><path d="M301.911,148.49c-0.154,-0.032 -0.277,0.023 -0.371,0.165c-0.093,0.141 -0.189,0.427 -0.29,0.858c-0.1,0.43 -0.231,0.775 -0.394,1.035c-0.163,0.259 -0.361,0.442 -0.594,0.547c-0.233,0.106 -0.499,0.127 -0.8,0.064c-0.534,-0.111 -0.973,-0.423 -1.319,-0.935c-0.345,-0.513 -0.518,-1.125 -0.518,-1.838c0,-0.766 0.174,-1.346 0.521,-1.739c0.347,-0.393 0.804,-0.53 1.37,-0.413l0,1.816c-0.466,-0.097 -0.699,0.1 -0.699,0.59c0,0.19 0.053,0.36 0.159,0.511c0.105,0.151 0.237,0.243 0.395,0.276c0.161,0.034 0.291,-0.018 0.392,-0.155c0.1,-0.136 0.182,-0.371 0.247,-0.703c0.064,-0.332 0.141,-0.619 0.231,-0.862c0.3,-0.811 0.839,-1.136 1.616,-0.974c0.53,0.111 0.962,0.436 1.295,0.977c0.333,0.54 0.499,1.184 0.499,1.933c0,0.497 -0.089,0.923 -0.268,1.276c-0.179,0.353 -0.423,0.606 -0.731,0.76c-0.308,0.155 -0.632,0.196 -0.972,0.125l0,-1.691c0.269,0.048 0.465,0 0.588,-0.146c0.124,-0.147 0.186,-0.354 0.186,-0.622c0,-0.247 -0.051,-0.443 -0.151,-0.588c-0.1,-0.144 -0.231,-0.233 -0.392,-0.267Z" style="fill:#445;fill-rule:nonzero;"/><path d="M296.288,142.618l1.444,0.301l0,-0.956l1.257,0.262l0,0.956l2.659,0.555c0.218,0.045 0.37,0.038 0.456,-0.023c0.086,-0.061 0.129,-0.208 0.129,-0.441c0,-0.179 -0.01,-0.331 -0.032,-0.458l1.295,0.27c0.103,0.348 0.155,0.699 0.155,1.053c0,0.623 -0.147,1.053 -0.44,1.289c-0.294,0.236 -0.74,0.291 -1.338,0.167l-2.884,-0.602l0,0.742l-1.257,-0.262l0,-0.742l-1.444,-0.301l0,-1.81Z" style="fill:#445;fill-rule:nonzero;"/><path d="M303.544,139.19c-0.118,0.039 -0.292,0.061 -0.521,0.063c0.419,0.42 0.628,0.929 0.628,1.527c0,0.548 -0.165,0.979 -0.497,1.293c-0.331,0.314 -0.747,0.419 -1.248,0.315c-0.631,-0.132 -1.107,-0.464 -1.429,-0.997c-0.322,-0.532 -0.483,-1.243 -0.483,-2.131l0,-0.558l-0.307,-0.064c-0.533,-0.111 -0.8,0.064 -0.8,0.526c0,0.43 0.211,0.689 0.634,0.777l0,1.81c-0.562,-0.117 -1.019,-0.452 -1.37,-1.003c-0.351,-0.551 -0.526,-1.197 -0.526,-1.938c0,-0.742 0.181,-1.289 0.542,-1.644c0.362,-0.354 0.858,-0.471 1.488,-0.35l2.573,0.536c0.533,0.104 0.942,0.107 1.225,0.009l0.091,0.019l0,1.81Zm-1.182,0.887c0,-0.226 -0.048,-0.423 -0.145,-0.592c-0.096,-0.169 -0.206,-0.298 -0.327,-0.388l-0.93,-0.194l0,0.527c0,0.63 0.283,1.004 0.849,1.122c0.165,0.034 0.298,0.007 0.4,-0.083c0.102,-0.09 0.153,-0.221 0.153,-0.392Z" style="fill:#445;fill-rule:nonzero;"/><path d="M296.288,133.004l1.444,0.301l0,-0.956l1.257,0.262l0,0.956l2.659,0.554c0.218,0.046 0.37,0.038 0.456,-0.023c0.086,-0.06 0.129,-0.207 0.129,-0.44c0,-0.179 -0.01,-0.332 -0.032,-0.458l1.295,0.27c0.103,0.348 0.155,0.699 0.155,1.053c0,0.623 -0.147,1.053 -0.44,1.289c-0.294,0.236 -0.74,0.291 -1.338,0.167l-2.884,-0.602l0,0.741l-1.257,-0.262l0,-0.741l-1.444,-0.301l0,-1.81Z" style="fill:#445;fill-rule:nonzero;"/><path d="M303.544,130.94l0,1.815l-5.812,-1.212l0,-1.815l5.812,1.212Zm-7.31,0.398c-0.258,-0.053 -0.469,-0.191 -0.634,-0.411c-0.165,-0.221 -0.247,-0.479 -0.247,-0.777c0,-0.297 0.082,-0.521 0.247,-0.673c0.165,-0.152 0.376,-0.201 0.634,-0.147c0.258,0.053 0.469,0.19 0.634,0.411c0.164,0.221 0.247,0.479 0.247,0.777c0,0.297 -0.083,0.521 -0.247,0.673c-0.165,0.152 -0.376,0.201 -0.634,0.147Z" style="fill:#445;fill-rule:nonzero;"/><path d="M302.255,127.099c0,-0.254 -0.069,-0.465 -0.207,-0.634c-0.138,-0.168 -0.33,-0.276 -0.577,-0.324l0,-1.698c0.637,0.133 1.16,0.471 1.568,1.012c0.408,0.542 0.612,1.173 0.612,1.892c0,0.845 -0.265,1.456 -0.795,1.833c-0.53,0.376 -1.264,0.466 -2.202,0.271l-0.075,-0.016c-0.587,-0.122 -1.106,-0.339 -1.555,-0.649c-0.449,-0.31 -0.795,-0.695 -1.037,-1.153c-0.241,-0.459 -0.362,-0.967 -0.362,-1.526c0,-0.756 0.209,-1.312 0.628,-1.668c0.419,-0.357 0.987,-0.461 1.703,-0.311l0,1.697c-0.301,-0.063 -0.532,-0.038 -0.693,0.076c-0.161,0.113 -0.242,0.293 -0.242,0.54c0,0.469 0.299,0.805 0.897,1.009c0.19,0.064 0.452,0.131 0.785,0.201c0.583,0.122 0.988,0.136 1.213,0.044c0.226,-0.093 0.339,-0.292 0.339,-0.596Z" style="fill:#445;fill-rule:nonzero;"/></g><path d="M325.337,128.443c-0.431,5.792 -0.888,11.591 -0.888,17.397c0,13.936 0.597,24.892 0.597,38.804c0,1.834 -1.595,11.25 0,12.649c1.224,1.074 18.204,4.566 20.017,5.065c14.935,4.111 16.234,2.349 32.696,-3.45c7.144,-2.517 14.618,-4.241 21.666,-6.973c4.319,-1.674 16.209,-5.917 18.915,-9.493c1.919,-2.534 1.364,-8.073 1.5,-10.839c0.401,-8.121 0.889,-16.184 0.889,-24.32c0,-6.547 0.667,-13.074 0.667,-19.623c0,-5.717 2.374,-17.431 -0.667,-22.778c-1.313,-2.309 -19.7,-6.493 -22.045,-6.607c-10.133,-0.494 -10.661,-2.53 -20.224,2.445c-0.94,0.489 -12.615,3.509 -23.246,6.853c-11.965,3.764 -22.452,6.059 -27.431,9.538c-3.421,2.389 -2.309,9.497 -2.446,11.332Z" style="fill:#bad7e6;"/><path d="M332.683,182.36c-0.291,4.801 3.963,10.873 9.417,9.334c5.497,-1.551 7.247,-8.841 4.475,-13.394c-2.138,-3.512 -5.982,-4.082 -8.298,-3.405c-2.315,0.677 -5.32,2.932 -5.594,7.465Z" style="fill:#445;stroke:#ecf4f8;stroke-width:3px;"/><path d="M330.116,126.341c-0.44,0.758 -0.347,3.394 -0.36,3.992c-0.037,1.633 -0.145,3.264 -0.241,4.894c-0.282,4.802 -0.521,9.601 -0.611,14.412c-0.041,2.187 0.135,9.547 0.135,11.041c0,1.558 -0.559,4.622 0.213,6.025c0.526,0.955 2.345,1.152 3.223,1.241c2.986,0.303 7.961,1.13 10.906,1.843c2.19,0.53 5.207,1.597 7.419,2.036c0.619,0.122 1.608,0.622 2.241,0.363c0.863,-0.353 1.027,-2.887 1.167,-3.633c0.73,-3.91 0.93,-15.103 0.834,-19.091c-0.152,-6.319 0.533,-13.855 -0.821,-19.922c-0.282,-1.266 -12.077,-1.861 -15.975,-2.55c-1.961,-0.347 -3.903,-0.825 -5.852,-1.211c-0.597,-0.118 -1.907,-0.08 -2.278,0.56Z" style="fill:#ecf4f8;"/><path d="M421.586,106.998c1.662,5.888 -0.19,15.614 -0.19,20.662c0,6.549 -0.667,13.076 -0.667,19.623c0,8.136 -0.488,16.199 -0.889,24.32c-0.136,2.766 0.419,8.305 -1.5,10.839c-2.706,3.576 -14.596,7.819 -18.915,9.493c-7.048,2.732 -14.522,4.456 -21.666,6.973c-8.918,3.142 -13.386,5.099 -17.983,5.578c-0.552,-2.196 -0.426,-4.719 -0.551,-6.72c-0.61,-9.759 -0.358,-19.431 0.599,-29.167c0.97,-9.859 -0.305,-19.795 0.95,-29.683c0.397,-3.126 0.488,-8.157 2.25,-10.9c1.637,-2.548 7.638,-3.265 10.233,-4.284c9.755,-3.833 18.714,-7.789 28.981,-10.501c5.918,-1.563 12.982,-5.241 19.348,-6.233Z" style="fill:#82b7d1;"/><g><path d="M340.457,158.359c0.902,0.169 1.623,0.507 2.161,1.014c0.539,0.508 0.809,1.107 0.809,1.798c0,0.534 -0.195,0.936 -0.586,1.206l2.713,0.508l0,1.81l-8.046,-1.506l0,-1.692l0.537,0.047c-0.43,-0.428 -0.645,-0.924 -0.645,-1.49c0,-0.716 0.265,-1.224 0.793,-1.522c0.528,-0.299 1.254,-0.362 2.178,-0.189l0.086,0.016Zm-0.113,1.789c-1.031,-0.193 -1.547,0.011 -1.547,0.613c0,0.43 0.154,0.745 0.462,0.946l2.288,0.428c0.322,-0.097 0.483,-0.357 0.483,-0.78c0,-0.576 -0.497,-0.966 -1.493,-1.171l-0.193,-0.036Z" style="fill:#445;fill-rule:nonzero;"/><path d="M343.319,154.824c-0.118,0.042 -0.291,0.067 -0.521,0.074c0.419,0.412 0.629,0.916 0.629,1.514c0,0.548 -0.166,0.983 -0.497,1.304c-0.331,0.321 -0.748,0.435 -1.249,0.341c-0.63,-0.118 -1.106,-0.44 -1.429,-0.966c-0.322,-0.526 -0.483,-1.233 -0.483,-2.121l0,-0.558l-0.306,-0.058c-0.534,-0.099 -0.8,0.082 -0.8,0.544c0,0.429 0.211,0.684 0.633,0.763l0,1.81c-0.562,-0.105 -1.018,-0.43 -1.369,-0.974c-0.351,-0.543 -0.527,-1.186 -0.527,-1.927c0,-0.741 0.181,-1.293 0.543,-1.655c0.362,-0.362 0.858,-0.489 1.488,-0.382l2.572,0.481c0.534,0.093 0.942,0.087 1.225,-0.017l0.091,0.017l0,1.81Zm-1.181,0.912c0,-0.226 -0.049,-0.422 -0.145,-0.589c-0.097,-0.166 -0.206,-0.293 -0.328,-0.38l-0.929,-0.174l0,0.526c0,0.63 0.283,0.998 0.849,1.104c0.164,0.031 0.298,0 0.4,-0.091c0.102,-0.092 0.153,-0.224 0.153,-0.396Z" style="fill:#445;fill-rule:nonzero;"/><path d="M340.371,151.919c-0.588,-0.11 -1.107,-0.303 -1.558,-0.581c-0.451,-0.278 -0.799,-0.621 -1.045,-1.028c-0.245,-0.408 -0.368,-0.852 -0.368,-1.331c0,-0.605 0.205,-1.04 0.613,-1.304l-0.505,-0.159l0,-1.643l5.591,1.046c0.512,0.096 0.957,0.298 1.335,0.607c0.378,0.309 0.668,0.708 0.87,1.197c0.202,0.489 0.303,1.031 0.303,1.625c0,0.426 -0.08,0.824 -0.241,1.193c-0.161,0.369 -0.371,0.635 -0.629,0.798l-1.063,-0.956c0.397,-0.262 0.596,-0.669 0.596,-1.221c0,-0.802 -0.412,-1.28 -1.235,-1.434l-0.183,-0.034c0.383,0.419 0.575,0.893 0.575,1.423c0,0.709 -0.271,1.231 -0.814,1.567c-0.542,0.335 -1.268,0.418 -2.178,0.247l-0.064,-0.012Zm0.112,-1.794c0.477,0.089 0.854,0.07 1.131,-0.057c0.278,-0.127 0.416,-0.352 0.416,-0.674c0,-0.39 -0.13,-0.699 -0.392,-0.927l-2.444,-0.458c-0.265,0.126 -0.397,0.382 -0.397,0.769c0,0.322 0.144,0.602 0.432,0.838c0.289,0.237 0.707,0.406 1.254,0.509Z" style="fill:#445;fill-rule:nonzero;"/><path d="M343.427,143.14c0,0.892 -0.266,1.564 -0.798,2.016c-0.532,0.451 -1.224,0.598 -2.076,0.438l-0.15,-0.028c-0.595,-0.111 -1.119,-0.32 -1.574,-0.625c-0.455,-0.305 -0.806,-0.692 -1.055,-1.162c-0.249,-0.469 -0.374,-0.993 -0.374,-1.573c0,-0.817 0.254,-1.414 0.76,-1.792c0.507,-0.377 1.213,-0.482 2.119,-0.312l0.704,0.132l0,3.598c0.326,-0.003 0.582,-0.097 0.768,-0.28c0.186,-0.184 0.279,-0.449 0.279,-0.797c0,-0.573 -0.2,-1.058 -0.601,-1.455l0.977,-0.644c0.312,0.284 0.56,0.65 0.744,1.098c0.185,0.448 0.277,0.91 0.277,1.386Zm-4.63,-0.662c0,0.53 0.351,0.911 1.053,1.142l0,-1.826l-0.14,-0.026c-0.29,-0.062 -0.515,-0.03 -0.674,0.094c-0.159,0.124 -0.239,0.329 -0.239,0.616Z" style="fill:#445;fill-rule:nonzero;"/><path d="M341.687,136.595c-0.154,-0.029 -0.278,0.028 -0.371,0.172c-0.093,0.144 -0.19,0.432 -0.29,0.864c-0.1,0.433 -0.232,0.781 -0.395,1.044c-0.163,0.263 -0.361,0.45 -0.593,0.56c-0.233,0.11 -0.5,0.137 -0.801,0.081c-0.533,-0.1 -0.973,-0.402 -1.318,-0.907c-0.346,-0.505 -0.519,-1.114 -0.519,-1.827c0,-0.766 0.174,-1.349 0.521,-1.75c0.348,-0.4 0.804,-0.548 1.37,-0.442l0,1.816c-0.465,-0.088 -0.698,0.114 -0.698,0.605c0,0.19 0.053,0.359 0.158,0.507c0.106,0.149 0.237,0.238 0.395,0.268c0.161,0.03 0.292,-0.025 0.392,-0.163c0.1,-0.139 0.183,-0.375 0.247,-0.709c0.065,-0.333 0.142,-0.622 0.231,-0.867c0.301,-0.817 0.84,-1.153 1.617,-1.008c0.53,0.099 0.961,0.416 1.294,0.949c0.333,0.533 0.5,1.174 0.5,1.922c0,0.498 -0.09,0.925 -0.269,1.282c-0.179,0.357 -0.422,0.615 -0.73,0.776c-0.308,0.161 -0.632,0.21 -0.972,0.146l0,-1.692c0.268,0.043 0.464,-0.01 0.588,-0.158c0.123,-0.149 0.185,-0.358 0.185,-0.626c0,-0.248 -0.05,-0.442 -0.15,-0.584c-0.101,-0.143 -0.231,-0.229 -0.392,-0.259Z" style="fill:#445;fill-rule:nonzero;"/></g><path d="M366.539,140.845c-0.431,5.791 -0.889,11.59 -0.889,17.396c0,13.936 0.598,24.892 0.598,38.804c0,1.835 -1.595,11.251 0,12.65c1.223,1.074 18.203,4.565 20.017,5.065c14.935,4.111 16.234,2.349 32.695,-3.45c7.145,-2.517 14.619,-4.242 21.666,-6.973c4.32,-1.674 16.209,-5.917 18.916,-9.493c1.918,-2.535 1.363,-8.074 1.5,-10.839c0.401,-8.121 0.889,-16.184 0.889,-24.321c0,-6.547 0.666,-13.073 0.666,-19.622c0,-5.717 2.375,-17.432 -0.666,-22.779c-1.314,-2.309 -19.7,-6.493 -22.046,-6.607c-10.133,-0.494 -10.661,-2.53 -20.223,2.446c-0.94,0.489 -12.616,3.509 -23.246,6.853c-11.965,3.763 -22.452,6.059 -27.432,9.537c-3.42,2.39 -2.309,9.497 -2.445,11.333Z" style="fill:#bad7e6;"/><path d="M373.884,194.762c-0.29,4.8 3.963,10.872 9.418,9.334c5.497,-1.551 7.246,-8.841 4.475,-13.394c-2.139,-3.513 -5.983,-4.082 -8.298,-3.405c-2.315,0.676 -5.32,2.932 -5.595,7.465Z" style="fill:#445;stroke:#ecf4f8;stroke-width:3px;"/><path d="M371.318,138.752c-0.44,0.772 -0.347,3.451 -0.361,4.058c-0.036,1.661 -0.145,3.318 -0.241,4.976c-0.282,4.881 -0.521,9.759 -0.611,14.649c-0.041,2.224 0.136,9.704 0.136,11.223c0,1.584 -0.559,4.699 0.213,6.124c0.526,0.971 2.344,1.172 3.223,1.262c2.985,0.308 7.961,1.149 10.906,1.874c2.189,0.539 5.206,1.623 7.419,2.069c0.619,0.125 1.607,0.632 2.24,0.369c0.864,-0.358 1.028,-2.934 1.167,-3.693c0.73,-3.974 0.931,-15.352 0.835,-19.406c-0.152,-6.423 0.532,-14.084 -0.821,-20.25c-0.282,-1.287 -12.078,-1.893 -15.976,-2.593c-1.96,-0.352 -3.902,-0.838 -5.851,-1.231c-0.598,-0.12 -1.907,-0.081 -2.278,0.569Z" style="fill:#ecf4f8;"/><path d="M462.787,119.4c1.662,5.887 -0.19,15.613 -0.19,20.662c0,6.549 -0.666,13.075 -0.666,19.622c0,8.137 -0.488,16.2 -0.889,24.321c-0.137,2.765 0.418,8.304 -1.5,10.839c-2.707,3.576 -14.596,7.819 -18.916,9.493c-7.047,2.731 -14.521,4.456 -21.666,6.973c-8.918,3.142 -13.386,5.098 -17.983,5.578c-0.551,-2.197 -0.426,-4.72 -0.551,-6.721c-0.61,-9.758 -0.358,-19.43 0.6,-29.167c0.97,-9.859 -0.305,-19.795 0.95,-29.683c0.397,-3.126 0.487,-8.156 2.25,-10.9c1.637,-2.548 7.637,-3.264 10.233,-4.284c9.755,-3.832 18.713,-7.788 28.98,-10.501c5.919,-1.563 12.982,-5.24 19.348,-6.232Z" style="fill:#82b7d1;"/><g><path d="M385.699,178.155l0,1.815l-8.25,-1.395l0,-1.815l8.25,1.395Z" style="fill:#445;fill-rule:nonzero;"/><path d="M385.699,173.767c-0.118,0.044 -0.292,0.072 -0.521,0.083c0.419,0.404 0.628,0.905 0.628,1.503c0,0.548 -0.165,0.985 -0.497,1.313c-0.331,0.327 -0.747,0.448 -1.248,0.363c-0.631,-0.107 -1.107,-0.42 -1.429,-0.94c-0.322,-0.52 -0.484,-1.224 -0.484,-2.112l0,-0.558l-0.306,-0.052c-0.533,-0.09 -0.8,0.095 -0.8,0.557c0,0.43 0.211,0.681 0.634,0.752l0,1.81c-0.562,-0.095 -1.019,-0.411 -1.37,-0.949c-0.351,-0.537 -0.526,-1.176 -0.526,-1.917c0,-0.742 0.181,-1.296 0.542,-1.665c0.362,-0.369 0.858,-0.505 1.488,-0.409l2.573,0.435c0.533,0.083 0.942,0.07 1.224,-0.04l0.092,0.015l0,1.811Zm-1.182,0.933c0,-0.226 -0.048,-0.421 -0.145,-0.586c-0.097,-0.165 -0.206,-0.29 -0.328,-0.375l-0.929,-0.157l0,0.526c0,0.631 0.283,0.994 0.849,1.089c0.165,0.028 0.298,-0.005 0.4,-0.099c0.102,-0.093 0.153,-0.226 0.153,-0.398Z" style="fill:#445;fill-rule:nonzero;"/><path d="M383.164,168.531l-3.277,-1.521l0,-1.939l6.784,3.516l0.247,0.144c0.752,0.463 1.128,1.121 1.128,1.973c0,0.237 -0.036,0.48 -0.108,0.729l-1.294,-0.219l0,-0.236c0,-0.255 -0.037,-0.455 -0.11,-0.602c-0.073,-0.146 -0.205,-0.268 -0.395,-0.365l-0.387,-0.21l-5.865,1.028l0,-1.934l3.277,-0.364Z" style="fill:#445;fill-rule:nonzero;"/><path d="M382.739,165.392c-0.58,-0.098 -1.096,-0.298 -1.549,-0.6c-0.453,-0.303 -0.801,-0.685 -1.045,-1.149c-0.243,-0.464 -0.365,-0.98 -0.365,-1.55c0,-0.87 0.269,-1.51 0.808,-1.92c0.539,-0.41 1.272,-0.537 2.2,-0.38l0.064,0.011c0.906,0.153 1.625,0.526 2.157,1.119c0.531,0.593 0.797,1.319 0.797,2.179c0,0.827 -0.248,1.449 -0.744,1.866c-0.496,0.418 -1.168,0.575 -2.017,0.47l-0.306,-0.046Zm0.113,-1.791c0.537,0.091 0.931,0.073 1.182,-0.053c0.25,-0.125 0.376,-0.353 0.376,-0.683c0,-0.644 -0.496,-1.057 -1.488,-1.239l-0.183,-0.031c-1.042,-0.177 -1.563,0.068 -1.563,0.734c0,0.606 0.45,1.009 1.348,1.211l0.328,0.061Z" style="fill:#445;fill-rule:nonzero;"/><path d="M385.07,155.92c0.491,0.466 0.736,1.025 0.736,1.676c0,0.638 -0.185,1.089 -0.556,1.354c-0.37,0.265 -0.903,0.338 -1.598,0.221l-3.765,-0.637l0,-1.81l3.776,0.639c0.498,0.084 0.747,-0.116 0.747,-0.599c0,-0.416 -0.149,-0.736 -0.446,-0.962l-4.077,-0.689l0,-1.821l5.812,0.983l0,1.697l-0.629,-0.052Z" style="fill:#445;fill-rule:nonzero;"/><path d="M378.442,149.949l1.445,0.244l0,-0.956l1.257,0.212l0,0.956l2.659,0.45c0.218,0.037 0.37,0.023 0.456,-0.041c0.086,-0.064 0.129,-0.213 0.129,-0.445c0,-0.179 -0.011,-0.332 -0.032,-0.457l1.294,0.219c0.104,0.343 0.156,0.692 0.156,1.047c0,0.623 -0.147,1.058 -0.44,1.306c-0.294,0.247 -0.74,0.32 -1.338,0.219l-2.884,-0.487l0,0.741l-1.257,-0.213l0,-0.741l-1.445,-0.244l0,-1.81Z" style="fill:#445;fill-rule:nonzero;"/><path d="M384.066,146.189c-0.154,-0.026 -0.278,0.034 -0.371,0.179c-0.093,0.146 -0.189,0.435 -0.29,0.87c-0.1,0.434 -0.232,0.784 -0.394,1.05c-0.163,0.266 -0.361,0.456 -0.594,0.571c-0.233,0.115 -0.5,0.147 -0.8,0.096c-0.534,-0.091 -0.973,-0.385 -1.319,-0.884c-0.345,-0.499 -0.518,-1.105 -0.518,-1.817c0,-0.766 0.173,-1.353 0.521,-1.76c0.347,-0.406 0.804,-0.562 1.369,-0.466l0,1.815c-0.465,-0.079 -0.698,0.127 -0.698,0.618c0,0.19 0.053,0.358 0.159,0.505c0.105,0.146 0.237,0.233 0.394,0.26c0.162,0.027 0.292,-0.03 0.392,-0.17c0.101,-0.141 0.183,-0.378 0.248,-0.713c0.064,-0.335 0.141,-0.625 0.231,-0.871c0.3,-0.823 0.839,-1.169 1.616,-1.038c0.53,0.09 0.962,0.398 1.295,0.926c0.333,0.527 0.499,1.165 0.499,1.913c0,0.498 -0.089,0.927 -0.268,1.287c-0.179,0.36 -0.423,0.623 -0.731,0.789c-0.308,0.166 -0.632,0.221 -0.972,0.163l0,-1.692c0.269,0.039 0.465,-0.018 0.588,-0.169c0.124,-0.151 0.185,-0.36 0.185,-0.629c0,-0.247 -0.05,-0.441 -0.15,-0.581c-0.1,-0.141 -0.231,-0.225 -0.392,-0.252Z" style="fill:#445;fill-rule:nonzero;"/></g><g><path d="M406.674,152.248c-0.431,5.791 -0.889,11.59 -0.889,17.396c0,13.936 0.597,24.892 0.597,38.804c0,1.835 -1.594,11.251 0,12.65c1.224,1.074 18.204,4.565 20.018,5.065c14.935,4.11 16.234,2.349 32.695,-3.45c7.144,-2.517 14.619,-4.242 21.666,-6.973c4.32,-1.674 16.209,-5.917 18.916,-9.494c1.918,-2.534 1.363,-8.073 1.5,-10.838c0.401,-8.121 0.889,-16.184 0.889,-24.321c0,-6.547 0.666,-13.074 0.666,-19.622c0,-5.717 2.375,-17.432 -0.667,-22.779c-1.313,-2.309 -19.699,-6.493 -22.045,-6.607c-10.133,-0.494 -10.661,-2.53 -20.223,2.446c-0.94,0.489 -12.616,3.508 -23.246,6.852c-11.966,3.764 -22.452,6.06 -27.432,9.538c-3.42,2.39 -2.309,9.497 -2.445,11.333Z" style="fill:#bad7e6;"/><path d="M414.019,206.165c-0.29,4.8 3.963,10.872 9.418,9.333c5.497,-1.55 7.246,-8.84 4.475,-13.393c-2.139,-3.513 -5.983,-4.082 -8.298,-3.405c-2.316,0.676 -5.32,2.931 -5.595,7.465Z" style="fill:#445;stroke:#ecf4f8;stroke-width:3px;"/><path d="M411.452,150.145c-0.439,0.759 -0.346,3.394 -0.36,3.992c-0.036,1.634 -0.145,3.264 -0.241,4.895c-0.282,4.801 -0.521,9.601 -0.611,14.411c-0.041,2.188 0.136,9.547 0.136,11.041c0,1.559 -0.559,4.623 0.213,6.025c0.526,0.955 2.344,1.152 3.223,1.241c2.985,0.303 7.961,1.13 10.905,1.844c2.19,0.53 5.207,1.596 7.42,2.035c0.618,0.123 1.607,0.622 2.24,0.363c0.864,-0.353 1.028,-2.887 1.167,-3.633c0.73,-3.91 0.931,-15.103 0.835,-19.091c-0.153,-6.319 0.532,-13.855 -0.821,-19.921c-0.283,-1.266 -12.078,-1.862 -15.976,-2.551c-1.961,-0.347 -3.902,-0.825 -5.851,-1.211c-0.598,-0.118 -1.908,-0.08 -2.279,0.56Z" style="fill:#ecf4f8;"/><path d="M502.922,130.802c1.662,5.888 -0.19,15.614 -0.19,20.663c0,6.548 -0.666,13.075 -0.666,19.622c0,8.137 -0.488,16.2 -0.889,24.321c-0.137,2.765 0.418,8.304 -1.5,10.838c-2.707,3.577 -14.596,7.82 -18.916,9.494c-7.047,2.731 -14.522,4.456 -21.666,6.973c-8.918,3.141 -13.386,5.098 -17.983,5.578c-0.551,-2.197 -0.426,-4.72 -0.551,-6.721c-0.61,-9.758 -0.358,-19.43 0.6,-29.167c0.97,-9.859 -0.305,-19.795 0.95,-29.683c0.397,-3.126 0.487,-8.156 2.25,-10.9c1.637,-2.548 7.637,-3.265 10.233,-4.284c9.755,-3.832 18.713,-7.788 28.98,-10.501c5.919,-1.563 12.982,-5.241 19.348,-6.233Z" style="fill:#82b7d1;"/></g><g><path d="M448.004,164.578c-0.431,5.792 -0.888,11.591 -0.888,17.397c0,13.936 0.597,24.892 0.597,38.804c0,1.834 -1.594,11.25 0,12.65c1.224,1.073 18.204,4.565 20.018,5.064c14.935,4.111 16.233,2.35 32.695,-3.45c7.144,-2.516 14.618,-4.241 21.666,-6.973c4.32,-1.674 16.209,-5.917 18.916,-9.493c1.918,-2.534 1.363,-8.073 1.5,-10.839c0.4,-8.121 0.888,-16.183 0.888,-24.32c0,-6.547 0.667,-13.074 0.667,-19.622c0,-5.717 2.374,-17.432 -0.667,-22.779c-1.313,-2.309 -19.699,-6.493 -22.045,-6.607c-10.133,-0.494 -10.661,-2.53 -20.224,2.445c-0.94,0.489 -12.615,3.509 -23.246,6.853c-11.965,3.764 -22.452,6.06 -27.431,9.538c-3.421,2.389 -2.309,9.497 -2.446,11.332Z" style="fill:#bad7e6;"/><path d="M455.35,218.496c-0.291,4.8 3.963,10.872 9.418,9.333c5.497,-1.55 7.246,-8.841 4.474,-13.393c-2.138,-3.513 -5.982,-4.082 -8.297,-3.406c-2.316,0.677 -5.32,2.932 -5.595,7.466Z" style="fill:#445;stroke:#ecf4f8;stroke-width:3px;"/><path d="M452.783,162.476c-0.44,0.759 -0.347,3.394 -0.36,3.992c-0.037,1.633 -0.145,3.264 -0.241,4.894c-0.282,4.802 -0.521,9.601 -0.611,14.412c-0.041,2.188 0.135,9.547 0.135,11.041c0,1.558 -0.559,4.622 0.214,6.025c0.526,0.955 2.344,1.152 3.222,1.241c2.986,0.303 7.962,1.13 10.906,1.843c2.19,0.531 5.207,1.597 7.42,2.036c0.618,0.122 1.607,0.622 2.24,0.363c0.863,-0.353 1.028,-2.887 1.167,-3.633c0.73,-3.91 0.93,-15.103 0.834,-19.091c-0.152,-6.319 0.533,-13.855 -0.82,-19.922c-0.283,-1.265 -12.078,-1.861 -15.976,-2.55c-1.961,-0.347 -3.903,-0.825 -5.852,-1.211c-0.597,-0.118 -1.907,-0.08 -2.278,0.56Z" style="fill:#ecf4f8;"/><path d="M544.253,143.133c1.662,5.888 -0.19,15.614 -0.19,20.663c0,6.548 -0.667,13.075 -0.667,19.622c0,8.137 -0.488,16.199 -0.888,24.32c-0.137,2.766 0.418,8.305 -1.5,10.839c-2.707,3.576 -14.596,7.819 -18.916,9.493c-7.048,2.732 -14.522,4.457 -21.666,6.973c-8.918,3.142 -13.386,5.099 -17.983,5.579c-0.552,-2.197 -0.426,-4.72 -0.551,-6.721c-0.61,-9.759 -0.358,-19.431 0.6,-29.167c0.969,-9.859 -0.305,-19.795 0.95,-29.683c0.396,-3.126 0.487,-8.157 2.25,-10.9c1.636,-2.548 7.637,-3.265 10.232,-4.284c9.756,-3.833 18.714,-7.789 28.981,-10.501c5.918,-1.563 12.982,-5.241 19.348,-6.233Z" style="fill:#82b7d1;"/></g><g><path d="M463.79,194.939c-0.154,-0.034 -0.277,0.018 -0.37,0.158c-0.093,0.14 -0.19,0.425 -0.29,0.853c-0.101,0.429 -0.232,0.771 -0.395,1.028c-0.163,0.257 -0.361,0.436 -0.594,0.538c-0.232,0.101 -0.499,0.118 -0.8,0.05c-0.534,-0.121 -0.973,-0.44 -1.319,-0.959c-0.345,-0.518 -0.518,-1.134 -0.518,-1.846c0,-0.767 0.174,-1.343 0.521,-1.73c0.347,-0.387 0.804,-0.517 1.37,-0.389l0,1.815c-0.466,-0.105 -0.699,0.088 -0.699,0.578c0,0.19 0.053,0.361 0.159,0.514c0.106,0.153 0.237,0.247 0.395,0.283c0.161,0.036 0.292,-0.013 0.392,-0.148c0.1,-0.135 0.182,-0.368 0.247,-0.699c0.064,-0.331 0.141,-0.617 0.231,-0.858c0.301,-0.806 0.839,-1.121 1.617,-0.945c0.529,0.119 0.961,0.452 1.294,0.998c0.333,0.546 0.499,1.194 0.499,1.942c0,0.498 -0.089,0.922 -0.268,1.271c-0.179,0.35 -0.423,0.6 -0.731,0.748c-0.308,0.149 -0.632,0.185 -0.972,0.108l0,-1.691c0.269,0.053 0.465,0.008 0.588,-0.136c0.124,-0.144 0.186,-0.35 0.186,-0.619c0,-0.247 -0.05,-0.444 -0.151,-0.59c-0.1,-0.146 -0.231,-0.237 -0.392,-0.274Z" style="fill:#445;fill-rule:nonzero;"/><path d="M458.167,188.969l1.445,0.327l0,-0.956l1.256,0.283l0,0.957l2.659,0.6c0.218,0.05 0.371,0.044 0.457,-0.015c0.086,-0.059 0.128,-0.205 0.128,-0.438c0,-0.179 -0.01,-0.332 -0.032,-0.458l1.295,0.292c0.104,0.349 0.155,0.701 0.155,1.056c0,0.623 -0.146,1.05 -0.44,1.281c-0.294,0.23 -0.739,0.278 -1.337,0.143l-2.885,-0.651l0,0.741l-1.256,-0.284l0,-0.741l-1.445,-0.327l0,-1.81Z" style="fill:#445;fill-rule:nonzero;"/><path d="M462.464,188.662c-0.581,-0.131 -1.097,-0.361 -1.55,-0.689c-0.453,-0.328 -0.801,-0.73 -1.045,-1.208c-0.243,-0.478 -0.365,-1.001 -0.365,-1.57c0,-0.87 0.27,-1.495 0.808,-1.875c0.539,-0.379 1.272,-0.464 2.2,-0.255l0.064,0.015c0.906,0.204 1.625,0.618 2.157,1.241c0.532,0.624 0.797,1.365 0.797,2.224c0,0.827 -0.248,1.436 -0.743,1.825c-0.496,0.389 -1.169,0.508 -2.017,0.355l-0.306,-0.063Zm0.112,-1.785c0.537,0.121 0.931,0.126 1.182,0.015c0.251,-0.112 0.376,-0.333 0.376,-0.662c0,-0.645 -0.496,-1.086 -1.488,-1.325l-0.182,-0.041c-1.042,-0.235 -1.563,-0.02 -1.563,0.646c0,0.605 0.449,1.034 1.348,1.288l0.327,0.079Z" style="fill:#445;fill-rule:nonzero;"/><path d="M461.25,178.467l-0.043,0.586c0,0.57 0.179,0.975 0.537,1.217l3.679,0.832l0,1.81l-5.811,-1.313l0,-1.697l0.746,0.109c-0.569,-0.433 -0.854,-0.921 -0.854,-1.466c0,-0.193 0.022,-0.357 0.065,-0.49l1.681,0.412Z" style="fill:#445;fill-rule:nonzero;"/><path d="M465.53,176.072c0,0.891 -0.265,1.553 -0.797,1.984c-0.532,0.431 -1.224,0.551 -2.076,0.358l-0.15,-0.034c-0.595,-0.134 -1.119,-0.363 -1.574,-0.686c-0.455,-0.322 -0.807,-0.723 -1.056,-1.202c-0.248,-0.479 -0.373,-1.008 -0.373,-1.588c0,-0.817 0.253,-1.404 0.76,-1.762c0.507,-0.358 1.213,-0.435 2.119,-0.231l0.704,0.159l0,3.599c0.325,0.009 0.581,-0.074 0.768,-0.251c0.186,-0.176 0.279,-0.438 0.279,-0.785c0,-0.573 -0.201,-1.066 -0.602,-1.479l0.978,-0.606c0.311,0.296 0.559,0.671 0.744,1.126c0.184,0.456 0.276,0.921 0.276,1.398Zm-4.629,-0.842c0,0.53 0.35,0.924 1.052,1.183l0,-1.826l-0.139,-0.032c-0.29,-0.072 -0.515,-0.05 -0.674,0.068c-0.16,0.118 -0.239,0.32 -0.239,0.607Z" style="fill:#445;fill-rule:nonzero;"/></g><g><path d="M247.457,149.056c-0.154,0.03 -0.277,0.134 -0.37,0.313c-0.093,0.179 -0.19,0.504 -0.29,0.974c-0.101,0.47 -0.232,0.868 -0.395,1.193c-0.163,0.324 -0.361,0.586 -0.594,0.785c-0.232,0.198 -0.499,0.326 -0.8,0.384c-0.533,0.102 -0.973,-0.034 -1.318,-0.409c-0.346,-0.374 -0.519,-0.918 -0.519,-1.63c0,-0.766 0.174,-1.416 0.521,-1.947c0.348,-0.532 0.804,-0.852 1.37,-0.961l0,1.816c-0.466,0.089 -0.698,0.379 -0.698,0.869c0,0.19 0.052,0.339 0.158,0.448c0.106,0.109 0.237,0.148 0.395,0.118c0.161,-0.031 0.292,-0.135 0.392,-0.312c0.1,-0.176 0.183,-0.444 0.247,-0.802c0.064,-0.357 0.141,-0.676 0.231,-0.954c0.301,-0.931 0.84,-1.471 1.617,-1.62c0.53,-0.101 0.961,0.052 1.294,0.459c0.333,0.407 0.5,0.985 0.5,1.733c0,0.498 -0.09,0.959 -0.269,1.384c-0.179,0.424 -0.423,0.775 -0.73,1.052c-0.308,0.278 -0.632,0.449 -0.973,0.514l0,-1.692c0.269,-0.059 0.465,-0.186 0.589,-0.381c0.123,-0.196 0.185,-0.428 0.185,-0.696c0,-0.247 -0.05,-0.423 -0.151,-0.527c-0.1,-0.105 -0.231,-0.141 -0.392,-0.111Z" style="fill:#445;fill-rule:nonzero;"/><path d="M241.834,145.432l1.445,-0.276l0,-0.956l1.256,-0.24l0,0.956l2.659,-0.509c0.219,-0.042 0.371,-0.11 0.457,-0.205c0.086,-0.096 0.129,-0.26 0.129,-0.492c0,-0.179 -0.011,-0.328 -0.033,-0.445l1.295,-0.248c0.104,0.306 0.156,0.636 0.156,0.991c0,0.623 -0.147,1.111 -0.441,1.464c-0.293,0.354 -0.739,0.588 -1.337,0.702l-2.885,0.552l0,0.741l-1.256,0.24l0,-0.741l-1.445,0.276l0,-1.81Z" style="fill:#445;fill-rule:nonzero;"/><path d="M246.131,143.332c-0.58,0.111 -1.097,0.097 -1.55,-0.042c-0.453,-0.139 -0.801,-0.396 -1.045,-0.772c-0.243,-0.376 -0.365,-0.849 -0.365,-1.418c0,-0.87 0.27,-1.607 0.809,-2.212c0.538,-0.604 1.272,-0.995 2.199,-1.172l0.064,-0.013c0.906,-0.173 1.625,-0.059 2.157,0.342c0.532,0.402 0.798,1.032 0.798,1.891c0,0.828 -0.248,1.539 -0.744,2.135c-0.496,0.597 -1.169,0.996 -2.017,1.197l-0.306,0.064Zm0.112,-1.831c0.538,-0.103 0.931,-0.263 1.182,-0.479c0.251,-0.216 0.376,-0.489 0.376,-0.818c0,-0.645 -0.496,-0.88 -1.488,-0.704l-0.182,0.035c-1.042,0.199 -1.563,0.632 -1.563,1.298c0,0.605 0.449,0.847 1.348,0.725l0.327,-0.057Z" style="fill:#445;fill-rule:nonzero;"/><path d="M244.917,133.644l-0.043,0.604c0,0.57 0.179,0.901 0.537,0.993l3.679,-0.703l0,1.81l-5.811,1.111l0,-1.697l0.746,-0.202c-0.569,-0.195 -0.854,-0.565 -0.854,-1.11c0,-0.193 0.022,-0.365 0.065,-0.517l1.681,-0.289Z" style="fill:#445;fill-rule:nonzero;"/><path d="M249.198,129.463c0,0.891 -0.266,1.664 -0.798,2.317c-0.532,0.653 -1.224,1.061 -2.076,1.224l-0.15,0.029c-0.595,0.114 -1.119,0.104 -1.574,-0.029c-0.455,-0.134 -0.807,-0.388 -1.056,-0.763c-0.248,-0.375 -0.373,-0.852 -0.373,-1.432c0,-0.817 0.254,-1.51 0.76,-2.079c0.507,-0.57 1.213,-0.941 2.119,-1.114l0.704,-0.135l0,3.599c0.326,-0.127 0.582,-0.317 0.768,-0.572c0.186,-0.254 0.279,-0.554 0.279,-0.902c0,-0.573 -0.2,-0.982 -0.601,-1.227l0.977,-1.014c0.312,0.166 0.56,0.438 0.744,0.816c0.184,0.378 0.277,0.806 0.277,1.282Zm-4.63,1.09c0,0.529 0.351,0.777 1.052,0.743l0,-1.826l-0.139,0.027c-0.29,0.048 -0.515,0.165 -0.674,0.349c-0.16,0.185 -0.239,0.42 -0.239,0.707Z" style="fill:#445;fill-rule:nonzero;"/></g><g><path d="M489.275,178.115c-0.431,5.791 -0.888,11.59 -0.888,17.396c0,13.936 0.597,24.892 0.597,38.804c0,1.835 -1.595,11.251 0,12.65c1.224,1.074 18.204,4.565 20.017,5.064c14.935,4.111 16.234,2.35 32.696,-3.449c7.144,-2.517 14.618,-4.242 21.666,-6.973c4.32,-1.675 16.209,-5.917 18.915,-9.494c1.919,-2.534 1.364,-8.073 1.5,-10.839c0.401,-8.12 0.889,-16.183 0.889,-24.32c0,-6.547 0.667,-13.074 0.667,-19.622c0,-5.717 2.374,-17.432 -0.667,-22.779c-1.313,-2.309 -19.7,-6.493 -22.045,-6.607c-10.133,-0.494 -10.661,-2.53 -20.224,2.445c-0.94,0.49 -12.615,3.509 -23.246,6.853c-11.965,3.764 -22.452,6.06 -27.431,9.538c-3.421,2.389 -2.309,9.497 -2.446,11.333Z" style="fill:#bad7e6;"/><path d="M496.621,232.032c-0.291,4.8 3.963,10.872 9.417,9.333c5.497,-1.55 7.247,-8.84 4.475,-13.393c-2.138,-3.513 -5.982,-4.082 -8.298,-3.405c-2.315,0.676 -5.32,2.931 -5.594,7.465Z" style="fill:#445;stroke:#ecf4f8;stroke-width:3px;"/><path d="M494.054,176.017c-0.44,0.765 -0.347,3.422 -0.36,4.025c-0.037,1.647 -0.145,3.291 -0.241,4.935c-0.282,4.841 -0.521,9.68 -0.611,14.531c-0.041,2.205 0.135,9.625 0.135,11.131c0,1.572 -0.559,4.661 0.213,6.075c0.526,0.963 2.345,1.162 3.223,1.252c2.986,0.305 7.962,1.139 10.906,1.858c2.19,0.535 5.207,1.61 7.419,2.052c0.619,0.124 1.608,0.628 2.241,0.367c0.863,-0.356 1.027,-2.911 1.167,-3.663c0.73,-3.943 0.93,-15.228 0.834,-19.249c-0.152,-6.371 0.533,-13.969 -0.821,-20.086c-0.282,-1.276 -12.077,-1.877 -15.975,-2.572c-1.961,-0.349 -3.903,-0.831 -5.852,-1.22c-0.597,-0.12 -1.907,-0.081 -2.278,0.564Z" style="fill:#ecf4f8;"/><path d="M585.524,156.669c1.662,5.888 -0.19,15.614 -0.19,20.663c0,6.548 -0.667,13.075 -0.667,19.622c0,8.137 -0.488,16.2 -0.889,24.32c-0.136,2.766 0.419,8.305 -1.5,10.839c-2.706,3.577 -14.595,7.819 -18.915,9.494c-7.048,2.731 -14.522,4.456 -21.666,6.973c-8.918,3.141 -13.386,5.098 -17.983,5.578c-0.552,-2.197 -0.426,-4.72 -0.551,-6.721c-0.61,-9.758 -0.358,-19.43 0.599,-29.167c0.97,-9.859 -0.305,-19.795 0.95,-29.683c0.397,-3.126 0.488,-8.156 2.25,-10.9c1.637,-2.548 7.638,-3.265 10.233,-4.284c9.755,-3.833 18.714,-7.789 28.981,-10.501c5.918,-1.563 12.982,-5.241 19.348,-6.233Z" style="fill:#82b7d1;"/></g><g><path d="M504.969,210.524c0.902,0.198 1.623,0.558 2.162,1.083c0.539,0.524 0.808,1.132 0.808,1.823c0,0.533 -0.195,0.929 -0.585,1.188l2.712,0.592l0,1.81l-8.046,-1.758l0,-1.692l0.537,0.064c-0.429,-0.442 -0.644,-0.945 -0.644,-1.511c0,-0.716 0.264,-1.215 0.792,-1.497c0.528,-0.282 1.254,-0.322 2.178,-0.12l0.086,0.018Zm-0.113,1.786c-1.031,-0.226 -1.547,-0.037 -1.547,0.564c0,0.43 0.154,0.75 0.462,0.96l2.288,0.501c0.323,-0.088 0.484,-0.342 0.484,-0.765c0,-0.576 -0.498,-0.982 -1.494,-1.218l-0.193,-0.042Z" style="fill:#445;fill-rule:nonzero;"/><path d="M507.832,208.443l0,1.816l-8.25,-1.804l0,-1.815l8.25,1.803Z" style="fill:#445;fill-rule:nonzero;"/><path d="M507.203,203.73c0.491,0.49 0.736,1.061 0.736,1.713c0,0.637 -0.185,1.079 -0.556,1.326c-0.37,0.246 -0.903,0.294 -1.598,0.142l-3.765,-0.823l0,-1.81l3.776,0.825c0.498,0.109 0.747,-0.078 0.747,-0.562c0,-0.415 -0.149,-0.743 -0.446,-0.983l-4.077,-0.891l0,-1.821l5.812,1.27l0,1.697l-0.629,-0.083Z" style="fill:#445;fill-rule:nonzero;"/><path d="M504.883,200.693c-0.587,-0.129 -1.106,-0.339 -1.558,-0.631c-0.451,-0.292 -0.799,-0.645 -1.044,-1.061c-0.246,-0.415 -0.368,-0.862 -0.368,-1.342c0,-0.605 0.204,-1.033 0.612,-1.284l-0.505,-0.175l0,-1.644l5.592,1.222c0.512,0.112 0.956,0.329 1.334,0.649c0.378,0.321 0.668,0.729 0.87,1.224c0.203,0.496 0.304,1.041 0.304,1.635c0,0.426 -0.081,0.821 -0.242,1.185c-0.161,0.364 -0.37,0.624 -0.628,0.779l-1.064,-0.99c0.398,-0.25 0.596,-0.65 0.596,-1.202c0,-0.802 -0.411,-1.293 -1.235,-1.473l-0.183,-0.04c0.384,0.431 0.575,0.912 0.575,1.442c0,0.709 -0.271,1.222 -0.814,1.541c-0.542,0.318 -1.268,0.378 -2.178,0.179l-0.064,-0.014Zm0.113,-1.791c0.476,0.104 0.853,0.097 1.13,-0.021c0.278,-0.119 0.417,-0.339 0.417,-0.661c0,-0.391 -0.131,-0.704 -0.392,-0.94l-2.444,-0.534c-0.265,0.117 -0.398,0.369 -0.398,0.756c0,0.322 0.144,0.606 0.433,0.852c0.288,0.245 0.706,0.428 1.254,0.548Z" style="fill:#445;fill-rule:nonzero;"/><path d="M507.832,192.889l0,1.815l-5.812,-1.27l0,-1.816l5.812,1.271Zm-7.31,0.324c-0.258,-0.056 -0.469,-0.195 -0.634,-0.417c-0.165,-0.223 -0.247,-0.482 -0.247,-0.779c0,-0.298 0.082,-0.521 0.247,-0.672c0.165,-0.15 0.376,-0.197 0.634,-0.14c0.257,0.056 0.469,0.195 0.633,0.418c0.165,0.222 0.248,0.481 0.248,0.779c0,0.297 -0.083,0.521 -0.248,0.671c-0.164,0.15 -0.376,0.197 -0.633,0.14Z" style="fill:#445;fill-rule:nonzero;"/><path d="M502.02,188.841l0.682,0.09c-0.526,-0.516 -0.789,-1.126 -0.789,-1.832c0,-0.605 0.181,-1.018 0.542,-1.238c0.362,-0.219 0.906,-0.255 1.633,-0.107l3.744,0.818l0,1.816l-3.669,-0.802c-0.293,-0.065 -0.509,-0.053 -0.647,0.035c-0.138,0.088 -0.207,0.288 -0.207,0.6c0,0.354 0.14,0.648 0.419,0.881l4.104,0.897l0,1.81l-5.812,-1.27l0,-1.698Z" style="fill:#445;fill-rule:nonzero;"/><path d="M506.199,182.171c-0.154,-0.034 -0.278,0.02 -0.371,0.16c-0.093,0.141 -0.189,0.426 -0.29,0.856c-0.1,0.429 -0.232,0.772 -0.395,1.03c-0.162,0.258 -0.36,0.439 -0.593,0.542c-0.233,0.103 -0.5,0.122 -0.8,0.056c-0.534,-0.117 -0.973,-0.433 -1.319,-0.949c-0.345,-0.516 -0.518,-1.13 -0.518,-1.843c0,-0.766 0.173,-1.344 0.521,-1.733c0.347,-0.39 0.804,-0.523 1.369,-0.399l0,1.815c-0.465,-0.102 -0.698,0.093 -0.698,0.583c0,0.19 0.053,0.361 0.159,0.513c0.105,0.152 0.237,0.245 0.394,0.28c0.162,0.035 0.292,-0.015 0.392,-0.151c0.101,-0.135 0.183,-0.369 0.248,-0.7c0.064,-0.332 0.141,-0.619 0.23,-0.86c0.301,-0.808 0.84,-1.127 1.617,-0.958c0.53,0.116 0.962,0.446 1.295,0.99c0.333,0.543 0.499,1.189 0.499,1.938c0,0.497 -0.089,0.922 -0.268,1.273c-0.179,0.351 -0.423,0.602 -0.731,0.753c-0.308,0.152 -0.632,0.19 -0.972,0.116l0,-1.692c0.269,0.051 0.465,0.005 0.588,-0.14c0.124,-0.145 0.185,-0.352 0.185,-0.62c0,-0.247 -0.05,-0.444 -0.15,-0.589c-0.1,-0.146 -0.231,-0.236 -0.392,-0.271Z" style="fill:#445;fill-rule:nonzero;"/></g><path d="M216.941,135.175c0.431,5.792 0.889,11.591 0.889,17.397c0,13.936 -0.598,24.892 -0.598,38.804c0,1.834 1.595,11.25 0,12.65c-1.224,1.073 -18.203,4.565 -20.017,5.064c-14.935,4.111 -16.234,2.35 -32.696,-3.45c-7.144,-2.516 -14.618,-4.241 -21.666,-6.973c-4.319,-1.674 -16.208,-5.917 -18.915,-9.493c-1.918,-2.534 -1.364,-8.073 -1.5,-10.839c-0.401,-8.121 -0.889,-16.183 -0.889,-24.32c0,-6.547 -0.667,-13.074 -0.667,-19.622c0,-5.717 -2.374,-17.432 0.667,-22.779c1.313,-2.309 19.7,-6.493 22.045,-6.607c10.134,-0.494 10.661,-2.53 20.224,2.445c0.94,0.489 12.616,3.509 23.246,6.853c11.965,3.764 22.452,6.06 27.432,9.538c3.42,2.389 2.308,9.497 2.445,11.332Z" style="fill:#bad7e6;"/><path d="M216.941,135.175c0.431,5.792 0.889,11.591 0.889,17.397c0,13.936 -0.598,24.892 -0.598,38.804c0,1.834 1.595,11.25 0,12.65c-1.224,1.073 -18.203,4.565 -20.017,5.064c-14.935,4.111 -16.234,2.35 -32.696,-3.45c-7.144,-2.516 -14.618,-4.241 -21.666,-6.973c-4.319,-1.674 -16.208,-5.917 -18.915,-9.493c-1.918,-2.534 -1.364,-8.073 -1.5,-10.839c-0.401,-8.121 -0.889,-16.183 -0.889,-24.32c0,-6.547 -0.667,-13.074 -0.667,-19.622c0,-5.717 -2.374,-17.432 0.667,-22.779c1.313,-2.309 19.7,-6.493 22.045,-6.607c10.134,-0.494 10.661,-2.53 20.224,2.445c0.94,0.489 12.616,3.509 23.246,6.853c11.965,3.764 22.452,6.06 27.432,9.538c3.42,2.389 2.308,9.497 2.445,11.332Z" style="fill:#bad7e6;"/><path d="M209.595,189.093c0.291,4.8 -3.962,10.872 -9.417,9.333c-5.497,-1.55 -7.247,-8.841 -4.475,-13.393c2.139,-3.513 5.982,-4.082 8.298,-3.406c2.315,0.677 5.32,2.932 5.594,7.466Z" style="fill:#445;stroke:#ecf4f8;stroke-width:3px;"/><path d="M212.162,133.022c0.44,0.696 0.347,3.114 0.36,3.663c0.037,1.499 0.146,2.995 0.241,4.491c0.282,4.405 0.521,8.808 0.611,13.222c0.041,2.007 -0.135,8.759 -0.135,10.13c0,1.429 0.559,4.241 -0.213,5.527c-0.526,0.877 -2.344,1.057 -3.223,1.139c-2.986,0.278 -7.961,1.037 -10.906,1.691c-2.189,0.487 -5.206,1.465 -7.419,1.868c-0.619,0.112 -1.607,0.571 -2.241,0.333c-0.863,-0.324 -1.027,-2.649 -1.166,-3.333c-0.73,-3.588 -0.931,-13.857 -0.835,-17.516c0.152,-5.798 -0.533,-12.711 0.821,-18.277c0.282,-1.162 12.077,-1.708 15.975,-2.341c1.961,-0.318 3.903,-0.756 5.852,-1.11c0.597,-0.109 1.907,-0.074 2.278,0.513Z" style="fill:#ecf4f8;"/><path d="M120.692,113.73c-1.661,5.888 0.19,15.614 0.19,20.663c0,6.548 0.667,13.075 0.667,19.622c0,8.137 0.488,16.199 0.889,24.32c0.136,2.766 -0.418,8.305 1.5,10.839c2.707,3.576 14.596,7.819 18.915,9.493c7.048,2.732 14.522,4.457 21.666,6.973c8.918,3.142 13.386,5.099 17.983,5.579c0.552,-2.197 0.426,-4.72 0.551,-6.721c0.61,-9.759 0.358,-19.431 -0.599,-29.167c-0.97,-9.859 0.305,-19.795 -0.95,-29.683c-0.397,-3.126 -0.488,-8.157 -2.25,-10.9c-1.637,-2.548 -7.638,-3.265 -10.233,-4.284c-9.755,-3.833 -18.713,-7.789 -28.981,-10.501c-5.918,-1.563 -12.982,-5.241 -19.348,-6.233Z" style="fill:#82b7d1;"/><g><path d="M174.437,148.672c0.431,5.791 0.889,11.59 0.889,17.396c0,13.936 -0.598,24.892 -0.598,38.804c0,1.834 1.595,11.251 0,12.65c-1.224,1.073 -18.203,4.565 -20.017,5.064c-14.935,4.111 -16.234,2.35 -32.695,-3.449c-7.145,-2.517 -14.619,-4.242 -21.667,-6.974c-4.319,-1.674 -16.208,-5.916 -18.915,-9.493c-1.918,-2.534 -1.364,-8.073 -1.5,-10.839c-0.401,-8.121 -0.889,-16.183 -0.889,-24.32c0,-6.547 -0.667,-13.074 -0.667,-19.622c0,-5.717 -2.374,-17.432 0.667,-22.779c1.313,-2.309 19.7,-6.493 22.045,-6.607c10.134,-0.494 10.661,-2.53 20.224,2.445c0.94,0.49 12.616,3.509 23.246,6.853c11.965,3.764 22.452,6.06 27.432,9.538c3.42,2.389 2.308,9.497 2.445,11.333Z" style="fill:#bad7e6;"/><path d="M174.437,148.672c0.431,5.791 0.889,11.59 0.889,17.396c0,13.936 -0.598,24.892 -0.598,38.804c0,1.834 1.595,11.251 0,12.65c-1.224,1.073 -18.203,4.565 -20.017,5.064c-14.935,4.111 -16.234,2.35 -32.695,-3.449c-7.145,-2.517 -14.619,-4.242 -21.667,-6.974c-4.319,-1.674 -16.208,-5.916 -18.915,-9.493c-1.918,-2.534 -1.364,-8.073 -1.5,-10.839c-0.401,-8.121 -0.889,-16.183 -0.889,-24.32c0,-6.547 -0.667,-13.074 -0.667,-19.622c0,-5.717 -2.374,-17.432 0.667,-22.779c1.313,-2.309 19.7,-6.493 22.045,-6.607c10.134,-0.494 10.661,-2.53 20.224,2.445c0.94,0.49 12.616,3.509 23.246,6.853c11.965,3.764 22.452,6.06 27.432,9.538c3.42,2.389 2.308,9.497 2.445,11.333Z" style="fill:#bad7e6;"/><path d="M167.091,202.589c0.291,4.8 -3.962,10.872 -9.417,9.333c-5.497,-1.55 -7.247,-8.841 -4.475,-13.393c2.139,-3.513 5.983,-4.082 8.298,-3.406c2.315,0.677 5.32,2.932 5.594,7.466Z" style="fill:#445;stroke:#ecf4f8;stroke-width:3px;"/><path d="M169.658,146.518c0.44,0.697 0.347,3.114 0.361,3.663c0.036,1.499 0.145,2.995 0.24,4.491c0.282,4.405 0.521,8.808 0.611,13.222c0.041,2.007 -0.135,8.759 -0.135,10.13c0,1.43 0.559,4.241 -0.213,5.527c-0.526,0.877 -2.344,1.058 -3.223,1.139c-2.985,0.278 -7.961,1.037 -10.906,1.691c-2.189,0.487 -5.206,1.466 -7.419,1.868c-0.619,0.112 -1.607,0.571 -2.241,0.333c-0.863,-0.324 -1.027,-2.649 -1.166,-3.333c-0.73,-3.588 -0.931,-13.857 -0.835,-17.516c0.152,-5.797 -0.532,-12.711 0.821,-18.277c0.282,-1.162 12.077,-1.708 15.976,-2.34c1.96,-0.318 3.902,-0.757 5.851,-1.111c0.597,-0.109 1.907,-0.074 2.278,0.513Z" style="fill:#ecf4f8;"/><path d="M78.188,127.226c-1.661,5.888 0.19,15.614 0.19,20.663c0,6.548 0.667,13.075 0.667,19.622c0,8.137 0.488,16.199 0.889,24.32c0.136,2.766 -0.418,8.305 1.5,10.839c2.707,3.577 14.596,7.819 18.915,9.493c7.048,2.732 14.522,4.457 21.667,6.974c8.918,3.141 13.385,5.098 17.982,5.578c0.552,-2.197 0.427,-4.72 0.552,-6.721c0.609,-9.758 0.358,-19.431 -0.6,-29.167c-0.97,-9.859 0.305,-19.795 -0.95,-29.683c-0.397,-3.126 -0.487,-8.156 -2.25,-10.9c-1.637,-2.548 -7.638,-3.265 -10.233,-4.284c-9.755,-3.833 -18.713,-7.789 -28.981,-10.501c-5.918,-1.563 -12.981,-5.241 -19.348,-6.233Z" style="fill:#82b7d1;"/></g><path d="M132.939,163.174c0.431,5.791 0.889,11.59 0.889,17.396c0,13.936 -0.598,24.892 -0.598,38.804c0,1.834 1.595,11.25 0,12.65c-1.224,1.073 -18.203,4.565 -20.017,5.064c-14.935,4.111 -16.234,2.35 -32.696,-3.45c-7.144,-2.516 -14.618,-4.241 -21.666,-6.973c-4.319,-1.674 -16.208,-5.917 -18.915,-9.493c-1.918,-2.534 -1.364,-8.073 -1.5,-10.839c-0.401,-8.121 -0.889,-16.183 -0.889,-24.32c0,-6.547 -0.667,-13.074 -0.667,-19.622c0,-5.717 -2.374,-17.432 0.667,-22.779c1.313,-2.309 19.7,-6.493 22.045,-6.607c10.134,-0.494 10.661,-2.53 20.224,2.445c0.94,0.49 12.616,3.509 23.246,6.853c11.965,3.764 22.452,6.06 27.432,9.538c3.42,2.389 2.308,9.497 2.445,11.333Z" style="fill:#bad7e6;"/><path d="M132.939,163.174c0.431,5.791 0.889,11.59 0.889,17.396c0,13.936 -0.598,24.892 -0.598,38.804c0,1.834 1.595,11.25 0,12.65c-1.224,1.073 -18.203,4.565 -20.017,5.064c-14.935,4.111 -16.234,2.35 -32.696,-3.45c-7.144,-2.516 -14.618,-4.241 -21.666,-6.973c-4.319,-1.674 -16.208,-5.917 -18.915,-9.493c-1.918,-2.534 -1.364,-8.073 -1.5,-10.839c-0.401,-8.121 -0.889,-16.183 -0.889,-24.32c0,-6.547 -0.667,-13.074 -0.667,-19.622c0,-5.717 -2.374,-17.432 0.667,-22.779c1.313,-2.309 19.7,-6.493 22.045,-6.607c10.134,-0.494 10.661,-2.53 20.224,2.445c0.94,0.49 12.616,3.509 23.246,6.853c11.965,3.764 22.452,6.06 27.432,9.538c3.42,2.389 2.308,9.497 2.445,11.333Z" style="fill:#bad7e6;"/><path d="M125.593,217.091c0.291,4.8 -3.962,10.872 -9.417,9.333c-5.497,-1.55 -7.247,-8.841 -4.475,-13.393c2.139,-3.513 5.983,-4.082 8.298,-3.406c2.315,0.677 5.32,2.932 5.594,7.466Z" style="fill:#445;stroke:#ecf4f8;stroke-width:3px;"/><path d="M128.16,161.02c0.44,0.696 0.347,3.114 0.361,3.663c0.036,1.499 0.145,2.995 0.24,4.491c0.282,4.405 0.521,8.808 0.611,13.222c0.041,2.007 -0.135,8.759 -0.135,10.13c0,1.43 0.559,4.241 -0.213,5.527c-0.526,0.877 -2.344,1.058 -3.223,1.139c-2.985,0.278 -7.961,1.037 -10.906,1.691c-2.189,0.487 -5.206,1.465 -7.419,1.868c-0.619,0.112 -1.607,0.571 -2.241,0.333c-0.863,-0.324 -1.027,-2.649 -1.166,-3.333c-0.73,-3.588 -0.931,-13.857 -0.835,-17.516c0.152,-5.798 -0.533,-12.711 0.821,-18.277c0.282,-1.162 12.077,-1.708 15.975,-2.341c1.961,-0.317 3.903,-0.756 5.852,-1.11c0.597,-0.109 1.907,-0.074 2.278,0.513Z" style="fill:#ecf4f8;"/><path d="M36.69,141.728c-1.661,5.888 0.19,15.614 0.19,20.663c0,6.548 0.667,13.075 0.667,19.622c0,8.137 0.488,16.199 0.889,24.32c0.136,2.766 -0.418,8.305 1.5,10.839c2.707,3.576 14.596,7.819 18.915,9.493c7.048,2.732 14.522,4.457 21.666,6.973c8.919,3.142 13.386,5.099 17.983,5.579c0.552,-2.197 0.426,-4.72 0.552,-6.721c0.609,-9.759 0.357,-19.431 -0.6,-29.167c-0.97,-9.859 0.305,-19.795 -0.95,-29.683c-0.397,-3.126 -0.488,-8.156 -2.25,-10.9c-1.637,-2.548 -7.638,-3.265 -10.233,-4.284c-9.755,-3.833 -18.713,-7.789 -28.981,-10.501c-5.918,-1.563 -12.982,-5.241 -19.348,-6.233Z" style="fill:#82b7d1;"/><g><path d="M120.402,193.407c-0.118,0.084 -0.292,0.17 -0.521,0.258c0.419,0.263 0.629,0.694 0.629,1.292c0,0.548 -0.166,1.041 -0.497,1.479c-0.331,0.439 -0.748,0.7 -1.249,0.783c-0.63,0.106 -1.106,-0.048 -1.429,-0.459c-0.322,-0.412 -0.483,-1.062 -0.483,-1.95l0,-0.559l-0.306,0.052c-0.534,0.089 -0.8,0.364 -0.8,0.826c0,0.43 0.211,0.609 0.633,0.539l0,1.81c-0.562,0.094 -1.018,-0.069 -1.369,-0.489c-0.351,-0.419 -0.527,-1 -0.527,-1.741c0,-0.741 0.181,-1.357 0.543,-1.847c0.361,-0.49 0.857,-0.793 1.488,-0.909l2.572,-0.429c0.534,-0.096 0.942,-0.247 1.225,-0.451l0.091,-0.015l0,1.81Zm-1.181,1.33c0,-0.226 -0.049,-0.405 -0.145,-0.537c-0.097,-0.133 -0.206,-0.221 -0.328,-0.265l-0.929,0.155l0,0.526c0,0.631 0.283,0.899 0.848,0.804c0.165,-0.027 0.298,-0.105 0.401,-0.233c0.102,-0.128 0.153,-0.278 0.153,-0.45Z" style="fill:#445;fill-rule:nonzero;"/><path d="M118.769,188.072c-0.154,0.025 -0.277,0.126 -0.37,0.303c-0.093,0.177 -0.19,0.499 -0.29,0.967c-0.1,0.468 -0.232,0.862 -0.395,1.183c-0.163,0.321 -0.361,0.578 -0.593,0.77c-0.233,0.193 -0.5,0.315 -0.801,0.365c-0.533,0.089 -0.973,-0.058 -1.318,-0.441c-0.346,-0.382 -0.519,-0.93 -0.519,-1.643c0,-0.766 0.174,-1.411 0.521,-1.934c0.348,-0.524 0.804,-0.833 1.37,-0.927l0,1.815c-0.466,0.078 -0.698,0.362 -0.698,0.853c0,0.19 0.053,0.34 0.158,0.451c0.106,0.112 0.237,0.154 0.395,0.128c0.161,-0.027 0.292,-0.128 0.392,-0.302c0.1,-0.174 0.183,-0.439 0.247,-0.796c0.065,-0.356 0.142,-0.672 0.231,-0.949c0.301,-0.924 0.84,-1.45 1.617,-1.58c0.53,-0.088 0.961,0.075 1.294,0.49c0.333,0.416 0.5,0.997 0.5,1.746c0,0.497 -0.09,0.956 -0.269,1.377c-0.179,0.42 -0.422,0.765 -0.73,1.035c-0.308,0.269 -0.632,0.433 -0.973,0.489l0,-1.691c0.269,-0.052 0.465,-0.175 0.589,-0.367c0.123,-0.193 0.185,-0.423 0.185,-0.692c0,-0.247 -0.05,-0.424 -0.15,-0.531c-0.101,-0.106 -0.231,-0.146 -0.393,-0.119Z" style="fill:#445;fill-rule:nonzero;"/><path d="M118.769,182.437c-0.154,0.026 -0.277,0.127 -0.37,0.304c-0.093,0.177 -0.19,0.499 -0.29,0.967c-0.1,0.468 -0.232,0.862 -0.395,1.183c-0.163,0.321 -0.361,0.577 -0.593,0.77c-0.233,0.193 -0.5,0.315 -0.801,0.365c-0.533,0.089 -0.973,-0.058 -1.318,-0.441c-0.346,-0.383 -0.519,-0.93 -0.519,-1.643c0,-0.766 0.174,-1.411 0.521,-1.934c0.348,-0.524 0.804,-0.833 1.37,-0.927l0,1.815c-0.466,0.078 -0.698,0.362 -0.698,0.853c0,0.189 0.053,0.34 0.158,0.451c0.106,0.111 0.237,0.154 0.395,0.128c0.161,-0.027 0.292,-0.128 0.392,-0.302c0.1,-0.174 0.183,-0.44 0.247,-0.796c0.065,-0.356 0.142,-0.673 0.231,-0.949c0.301,-0.924 0.84,-1.451 1.617,-1.58c0.53,-0.089 0.961,0.075 1.294,0.49c0.333,0.415 0.5,0.997 0.5,1.745c0,0.498 -0.09,0.957 -0.269,1.377c-0.179,0.421 -0.422,0.766 -0.73,1.035c-0.308,0.27 -0.632,0.433 -0.973,0.49l0,-1.692c0.269,-0.052 0.465,-0.174 0.589,-0.366c0.123,-0.193 0.185,-0.423 0.185,-0.692c0,-0.247 -0.05,-0.424 -0.15,-0.531c-0.101,-0.107 -0.231,-0.147 -0.393,-0.12Z" style="fill:#445;fill-rule:nonzero;"/><path d="M120.51,176.744c0,0.891 -0.266,1.657 -0.798,2.297c-0.532,0.64 -1.224,1.032 -2.076,1.174l-0.15,0.025c-0.595,0.099 -1.119,0.077 -1.574,-0.068c-0.455,-0.144 -0.807,-0.407 -1.055,-0.788c-0.249,-0.381 -0.374,-0.861 -0.374,-1.441c0,-0.817 0.254,-1.504 0.76,-2.061c0.507,-0.557 1.213,-0.911 2.119,-1.062l0.704,-0.118l0,3.599c0.326,-0.119 0.582,-0.303 0.768,-0.553c0.186,-0.249 0.279,-0.548 0.279,-0.895c0,-0.573 -0.2,-0.987 -0.601,-1.242l0.977,-0.991c0.312,0.174 0.56,0.452 0.744,0.835c0.184,0.383 0.277,0.812 0.277,1.289Zm-4.63,0.976c0,0.53 0.351,0.787 1.053,0.77l0,-1.826l-0.14,0.023c-0.29,0.041 -0.515,0.152 -0.674,0.333c-0.16,0.18 -0.239,0.414 -0.239,0.7Z" style="fill:#445;fill-rule:nonzero;"/><path d="M113.146,172.687l1.445,-0.241l0,-0.956l1.257,-0.21l0,0.956l2.658,-0.443c0.219,-0.037 0.371,-0.101 0.457,-0.195c0.086,-0.093 0.129,-0.256 0.129,-0.488c0,-0.179 -0.011,-0.328 -0.033,-0.446l1.295,-0.216c0.104,0.308 0.156,0.64 0.156,0.994c0,0.623 -0.147,1.108 -0.441,1.454c-0.293,0.346 -0.739,0.569 -1.337,0.669l-2.884,0.481l0,0.742l-1.257,0.209l0,-0.741l-1.445,0.241l0,-1.81Z" style="fill:#445;fill-rule:nonzero;"/><path d="M118.769,167.038c-0.154,0.026 -0.277,0.127 -0.37,0.304c-0.093,0.177 -0.19,0.499 -0.29,0.967c-0.1,0.468 -0.232,0.862 -0.395,1.183c-0.163,0.321 -0.361,0.577 -0.593,0.77c-0.233,0.193 -0.5,0.315 -0.801,0.365c-0.533,0.089 -0.973,-0.058 -1.318,-0.441c-0.346,-0.383 -0.519,-0.93 -0.519,-1.643c0,-0.766 0.174,-1.411 0.521,-1.934c0.348,-0.524 0.804,-0.833 1.37,-0.927l0,1.815c-0.466,0.078 -0.698,0.362 -0.698,0.853c0,0.189 0.053,0.34 0.158,0.451c0.106,0.111 0.237,0.154 0.395,0.128c0.161,-0.027 0.292,-0.128 0.392,-0.302c0.1,-0.174 0.183,-0.44 0.247,-0.796c0.065,-0.356 0.142,-0.673 0.231,-0.949c0.301,-0.924 0.84,-1.451 1.617,-1.58c0.53,-0.089 0.961,0.075 1.294,0.49c0.333,0.415 0.5,0.997 0.5,1.746c0,0.497 -0.09,0.956 -0.269,1.376c-0.179,0.421 -0.422,0.766 -0.73,1.035c-0.308,0.27 -0.632,0.433 -0.973,0.49l0,-1.692c0.269,-0.052 0.465,-0.174 0.589,-0.366c0.123,-0.193 0.185,-0.423 0.185,-0.692c0,-0.247 -0.05,-0.424 -0.15,-0.531c-0.101,-0.107 -0.231,-0.146 -0.393,-0.12Z" style="fill:#445;fill-rule:nonzero;"/></g><g><path d="M159.583,178.947l-3.658,-0.331l0,-1.907l5.812,0.964l0,1.847l-5.812,2.829l0,-1.912l3.658,-1.49Z" style="fill:#445;fill-rule:nonzero;"/><path d="M161.737,173.327l0,1.816l-5.812,0.932l0,-1.815l5.812,-0.933Zm-7.31,3.096c-0.258,0.042 -0.469,-0.018 -0.634,-0.177c-0.165,-0.16 -0.247,-0.389 -0.247,-0.686c0,-0.297 0.082,-0.552 0.247,-0.765c0.165,-0.212 0.376,-0.339 0.634,-0.381c0.258,-0.041 0.469,0.018 0.634,0.178c0.164,0.16 0.247,0.388 0.247,0.686c0,0.297 -0.083,0.552 -0.247,0.764c-0.165,0.213 -0.376,0.34 -0.634,0.381Z" style="fill:#445;fill-rule:nonzero;"/><path d="M161.844,169.384c0,0.892 -0.266,1.656 -0.797,2.292c-0.532,0.637 -1.224,1.024 -2.076,1.161l-0.151,0.024c-0.594,0.095 -1.119,0.069 -1.573,-0.078c-0.455,-0.147 -0.807,-0.412 -1.056,-0.795c-0.249,-0.382 -0.373,-0.864 -0.373,-1.444c0,-0.816 0.253,-1.501 0.76,-2.055c0.507,-0.554 1.213,-0.904 2.119,-1.049l0.703,-0.113l0,3.598c0.326,-0.116 0.582,-0.299 0.769,-0.547c0.186,-0.248 0.279,-0.546 0.279,-0.894c0,-0.572 -0.201,-0.988 -0.602,-1.246l0.978,-0.984c0.311,0.176 0.559,0.456 0.744,0.84c0.184,0.384 0.276,0.814 0.276,1.29Zm-4.63,0.947c0,0.53 0.351,0.789 1.053,0.776l0,-1.826l-0.139,0.023c-0.291,0.039 -0.515,0.148 -0.675,0.328c-0.159,0.179 -0.239,0.412 -0.239,0.699Z" style="fill:#445;fill-rule:nonzero;"/><path d="M159.352,161.588l-3.427,-0.036l0,-1.735l5.812,0.437l0,1.531l-3.448,1.515l3.448,0.413l0,1.531l-5.812,2.302l0,-1.735l3.508,-1.137l-3.508,-0.361l0,-1.262l3.427,-1.463Z" style="fill:#445;fill-rule:nonzero;"/><path d="M160.104,155.457c-0.154,0.024 -0.277,0.125 -0.371,0.301c-0.093,0.176 -0.189,0.498 -0.29,0.965c-0.1,0.467 -0.231,0.861 -0.394,1.18c-0.163,0.32 -0.361,0.576 -0.594,0.767c-0.233,0.191 -0.499,0.311 -0.8,0.359c-0.534,0.086 -0.973,-0.064 -1.319,-0.449c-0.345,-0.385 -0.518,-0.933 -0.518,-1.646c0,-0.766 0.174,-1.41 0.521,-1.931c0.347,-0.522 0.804,-0.828 1.37,-0.918l0,1.815c-0.466,0.075 -0.699,0.357 -0.699,0.848c0,0.19 0.053,0.341 0.159,0.453c0.105,0.112 0.237,0.155 0.395,0.13c0.161,-0.026 0.291,-0.126 0.392,-0.3c0.1,-0.173 0.182,-0.438 0.247,-0.794c0.064,-0.356 0.141,-0.672 0.231,-0.947c0.3,-0.922 0.839,-1.446 1.616,-1.57c0.53,-0.085 0.962,0.081 1.295,0.498c0.333,0.418 0.499,1.001 0.499,1.749c0,0.498 -0.089,0.956 -0.268,1.375c-0.179,0.419 -0.423,0.763 -0.731,1.03c-0.308,0.268 -0.632,0.429 -0.972,0.484l0,-1.692c0.269,-0.05 0.465,-0.171 0.588,-0.363c0.124,-0.192 0.186,-0.422 0.186,-0.69c0,-0.247 -0.051,-0.425 -0.151,-0.532c-0.1,-0.107 -0.231,-0.148 -0.392,-0.122Z" style="fill:#445;fill-rule:nonzero;"/></g><g><path d="M201.366,169.656c0,-0.138 -0.038,-0.241 -0.113,-0.308c-0.075,-0.067 -0.18,-0.091 -0.315,-0.072l0,-0.926c0.348,-0.043 0.633,0.046 0.856,0.268c0.222,0.221 0.334,0.528 0.334,0.921c0,0.461 -0.145,0.842 -0.434,1.143c-0.289,0.302 -0.69,0.484 -1.201,0.547l-0.041,0.005c-0.321,0.04 -0.603,0.016 -0.848,-0.072c-0.246,-0.088 -0.434,-0.235 -0.566,-0.441c-0.132,-0.207 -0.198,-0.462 -0.198,-0.767c0,-0.412 0.115,-0.753 0.343,-1.024c0.229,-0.27 0.538,-0.429 0.929,-0.478l0,0.926c-0.164,0.02 -0.29,0.076 -0.378,0.167c-0.088,0.091 -0.132,0.204 -0.132,0.338c0,0.256 0.163,0.386 0.489,0.388c0.104,0.001 0.246,-0.01 0.428,-0.032c0.318,-0.04 0.539,-0.105 0.662,-0.196c0.123,-0.092 0.185,-0.221 0.185,-0.387Z" style="fill:#445;fill-rule:nonzero;"/><path d="M200.455,168.117c-0.317,0.039 -0.598,0.012 -0.846,-0.08c-0.247,-0.093 -0.437,-0.246 -0.569,-0.46c-0.133,-0.214 -0.2,-0.476 -0.2,-0.787c0,-0.474 0.147,-0.867 0.441,-1.176c0.294,-0.31 0.694,-0.496 1.2,-0.559l0.035,-0.004c0.494,-0.062 0.886,0.027 1.176,0.266c0.29,0.238 0.436,0.592 0.436,1.061c0,0.451 -0.136,0.83 -0.406,1.137c-0.271,0.307 -0.637,0.499 -1.1,0.578l-0.167,0.024Zm0.061,-0.995c0.293,-0.036 0.508,-0.109 0.645,-0.218c0.136,-0.108 0.205,-0.252 0.205,-0.432c0,-0.352 -0.271,-0.498 -0.812,-0.439l-0.099,0.013c-0.569,0.07 -0.853,0.287 -0.853,0.65c0,0.33 0.245,0.478 0.735,0.445l0.179,-0.019Z" style="fill:#445;fill-rule:nonzero;"/><path d="M198.899,163.883l0.372,-0.079c-0.287,-0.189 -0.431,-0.473 -0.431,-0.852c0,-0.4 0.16,-0.69 0.478,-0.87c-0.318,-0.176 -0.478,-0.467 -0.478,-0.873c0,-0.642 0.389,-1.021 1.166,-1.134l2.063,-0.256l0,0.991l-2.001,0.247c-0.162,0.02 -0.28,0.062 -0.355,0.126c-0.074,0.064 -0.111,0.168 -0.111,0.313c0,0.195 0.087,0.33 0.261,0.404l0.041,-0.008l2.165,-0.268l0,0.99l-1.995,0.247c-0.166,0.021 -0.286,0.062 -0.361,0.124c-0.074,0.062 -0.111,0.167 -0.111,0.315c0,0.19 0.087,0.324 0.261,0.402l2.206,-0.273l0,0.987l-3.17,0.392l0,-0.925Z" style="fill:#445;fill-rule:nonzero;"/><path d="M200.507,156.506c0.493,-0.061 0.886,0.001 1.18,0.186c0.294,0.186 0.441,0.467 0.441,0.844c0,0.291 -0.107,0.543 -0.32,0.757l1.48,-0.183l0,0.987l-4.389,0.543l0,-0.922l0.293,-0.066c-0.234,-0.16 -0.352,-0.395 -0.352,-0.704c0,-0.39 0.144,-0.712 0.433,-0.964c0.288,-0.253 0.684,-0.41 1.188,-0.472l0.046,-0.006Zm-0.061,0.995c-0.563,0.069 -0.844,0.268 -0.844,0.596c0,0.235 0.084,0.381 0.252,0.438l1.248,-0.155c0.176,-0.107 0.264,-0.276 0.264,-0.507c0,-0.314 -0.272,-0.443 -0.815,-0.385l-0.105,0.013Z" style="fill:#445;fill-rule:nonzero;"/><path d="M200.455,156.202c-0.317,0.039 -0.598,0.012 -0.846,-0.08c-0.247,-0.093 -0.437,-0.246 -0.569,-0.46c-0.133,-0.214 -0.2,-0.476 -0.2,-0.787c0,-0.474 0.147,-0.867 0.441,-1.176c0.294,-0.31 0.694,-0.496 1.2,-0.559l0.035,-0.004c0.494,-0.062 0.886,0.027 1.176,0.266c0.29,0.238 0.436,0.592 0.436,1.061c0,0.451 -0.136,0.83 -0.406,1.137c-0.271,0.307 -0.637,0.499 -1.1,0.578l-0.167,0.024Zm0.061,-0.995c0.293,-0.036 0.508,-0.109 0.645,-0.218c0.136,-0.108 0.205,-0.253 0.205,-0.432c0,-0.352 -0.271,-0.498 -0.812,-0.439l-0.099,0.012c-0.569,0.071 -0.853,0.288 -0.853,0.651c0,0.33 0.245,0.478 0.735,0.445l0.179,-0.019Z" style="fill:#445;fill-rule:nonzero;"/><path d="M198.899,151.994l0.372,-0.078c-0.287,-0.184 -0.431,-0.468 -0.431,-0.852c0,-0.33 0.099,-0.589 0.296,-0.777c0.198,-0.187 0.494,-0.308 0.891,-0.363l2.042,-0.253l0,0.99l-2.001,0.248c-0.16,0.02 -0.278,0.066 -0.353,0.14c-0.075,0.074 -0.113,0.196 -0.113,0.366c0,0.193 0.076,0.327 0.229,0.402l2.238,-0.277l0,0.987l-3.17,0.393l0,-0.926Z" style="fill:#445;fill-rule:nonzero;"/><path d="M202.128,147.584c0,0.486 -0.146,0.897 -0.436,1.234c-0.29,0.337 -0.667,0.534 -1.132,0.591l-0.082,0.011c-0.324,0.04 -0.61,0.015 -0.858,-0.074c-0.248,-0.09 -0.44,-0.241 -0.576,-0.455c-0.136,-0.214 -0.204,-0.479 -0.204,-0.795c0,-0.445 0.139,-0.814 0.415,-1.106c0.276,-0.292 0.662,-0.469 1.156,-0.53l0.384,-0.047l0,1.963c0.177,-0.058 0.317,-0.152 0.418,-0.284c0.102,-0.131 0.153,-0.292 0.153,-0.481c0,-0.313 -0.11,-0.544 -0.328,-0.692l0.533,-0.517c0.17,0.102 0.305,0.259 0.406,0.472c0.1,0.213 0.151,0.45 0.151,0.71Zm-2.526,0.423c0,0.29 0.192,0.438 0.574,0.445l0,-0.996l-0.076,0.009c-0.158,0.016 -0.281,0.071 -0.368,0.166c-0.086,0.095 -0.13,0.22 -0.13,0.376Z" style="fill:#445;fill-rule:nonzero;"/><path d="M198.899,145.344l0.372,-0.079c-0.287,-0.183 -0.431,-0.467 -0.431,-0.852c0,-0.33 0.099,-0.589 0.296,-0.776c0.198,-0.188 0.494,-0.309 0.891,-0.364l2.042,-0.252l0,0.99l-2.001,0.247c-0.16,0.02 -0.278,0.067 -0.353,0.141c-0.075,0.074 -0.113,0.195 -0.113,0.365c0,0.194 0.076,0.328 0.229,0.403l2.238,-0.277l0,0.987l-3.17,0.392l0,-0.925Z" style="fill:#445;fill-rule:nonzero;"/><path d="M198.111,141.814l0.788,-0.097l0,-0.522l0.686,-0.085l0,0.522l1.45,-0.18c0.119,-0.014 0.202,-0.046 0.249,-0.095c0.047,-0.049 0.07,-0.137 0.07,-0.264c0,-0.097 -0.006,-0.179 -0.017,-0.244l0.706,-0.087c0.056,0.171 0.085,0.353 0.085,0.546c0,0.34 -0.081,0.601 -0.241,0.783c-0.16,0.182 -0.403,0.293 -0.729,0.333l-1.573,0.195l0,0.404l-0.686,0.085l0,-0.404l-0.788,0.097l0,-0.987Z" style="fill:#445;fill-rule:nonzero;"/><path d="M201.178,138.865c-0.084,0.011 -0.151,0.063 -0.202,0.157c-0.051,0.094 -0.103,0.268 -0.158,0.521c-0.055,0.252 -0.127,0.464 -0.215,0.636c-0.089,0.171 -0.197,0.306 -0.324,0.406c-0.127,0.1 -0.273,0.16 -0.437,0.18c-0.291,0.036 -0.53,-0.055 -0.719,-0.271c-0.188,-0.217 -0.283,-0.52 -0.283,-0.909c0,-0.418 0.095,-0.765 0.285,-1.043c0.189,-0.277 0.438,-0.435 0.747,-0.473l0,0.99c-0.254,0.032 -0.381,0.181 -0.381,0.449c0,0.103 0.029,0.186 0.086,0.25c0.058,0.063 0.13,0.089 0.216,0.078c0.087,-0.01 0.159,-0.062 0.213,-0.155c0.055,-0.093 0.1,-0.235 0.135,-0.428c0.035,-0.193 0.077,-0.364 0.126,-0.512c0.164,-0.497 0.458,-0.772 0.882,-0.824c0.289,-0.036 0.524,0.063 0.706,0.298c0.182,0.234 0.273,0.555 0.273,0.963c0,0.272 -0.049,0.52 -0.147,0.745c-0.098,0.225 -0.23,0.407 -0.398,0.547c-0.168,0.14 -0.345,0.222 -0.531,0.245l0,-0.923c0.147,-0.022 0.254,-0.084 0.321,-0.186c0.068,-0.102 0.101,-0.227 0.101,-0.373c0,-0.135 -0.027,-0.233 -0.082,-0.293c-0.055,-0.061 -0.126,-0.086 -0.214,-0.075Z" style="fill:#445;fill-rule:nonzero;"/></g><g><path d="M422.502,188.155c0,-0.139 -0.038,-0.246 -0.113,-0.322c-0.075,-0.077 -0.18,-0.114 -0.315,-0.112l0,-0.926c0.348,0 0.633,0.125 0.856,0.374c0.222,0.249 0.334,0.57 0.334,0.962c0,0.461 -0.145,0.825 -0.434,1.09c-0.289,0.266 -0.689,0.399 -1.201,0.399l-0.041,0c-0.32,0 -0.603,-0.059 -0.848,-0.178c-0.245,-0.118 -0.434,-0.288 -0.566,-0.511c-0.131,-0.223 -0.197,-0.486 -0.197,-0.791c0,-0.412 0.114,-0.739 0.342,-0.981c0.229,-0.243 0.538,-0.364 0.929,-0.364l0,0.926c-0.164,0 -0.29,0.04 -0.378,0.12c-0.088,0.08 -0.132,0.188 -0.132,0.323c0,0.255 0.163,0.405 0.49,0.448c0.103,0.013 0.246,0.02 0.427,0.02c0.319,0 0.539,-0.038 0.662,-0.114c0.123,-0.076 0.185,-0.197 0.185,-0.363Z" style="fill:#445;fill-rule:nonzero;"/><path d="M421.591,186.502c-0.317,0 -0.598,-0.061 -0.845,-0.184c-0.247,-0.123 -0.437,-0.3 -0.57,-0.53c-0.133,-0.231 -0.199,-0.501 -0.199,-0.812c0,-0.475 0.147,-0.849 0.441,-1.122c0.293,-0.273 0.693,-0.41 1.199,-0.41l0.035,0c0.495,0 0.887,0.137 1.177,0.411c0.29,0.275 0.435,0.646 0.435,1.115c0,0.451 -0.136,0.814 -0.406,1.087c-0.271,0.274 -0.637,0.421 -1.1,0.443l-0.167,0.002Zm0.061,-0.987c0.293,0 0.508,-0.046 0.645,-0.138c0.137,-0.091 0.205,-0.227 0.205,-0.407c0,-0.351 -0.271,-0.531 -0.812,-0.539l-0.099,0c-0.568,0 -0.853,0.182 -0.853,0.545c0,0.33 0.245,0.509 0.736,0.536l0.178,0.003Z" style="fill:#445;fill-rule:nonzero;"/><path d="M420.035,182.076l0.372,-0.033c-0.287,-0.224 -0.43,-0.526 -0.43,-0.905c0,-0.4 0.159,-0.671 0.477,-0.811c-0.318,-0.215 -0.477,-0.526 -0.477,-0.932c0,-0.643 0.388,-0.973 1.166,-0.99l2.062,0l0,0.99l-2.001,0c-0.162,0 -0.28,0.027 -0.354,0.082c-0.075,0.055 -0.112,0.154 -0.112,0.299c0,0.195 0.087,0.341 0.261,0.436l0.041,-0.003l2.165,0l0,0.991l-1.995,0c-0.166,0 -0.286,0.026 -0.36,0.079c-0.075,0.053 -0.112,0.153 -0.112,0.302c0,0.189 0.087,0.334 0.261,0.433l2.206,0l0,0.987l-3.17,0l0,-0.925Z" style="fill:#445;fill-rule:nonzero;"/><path d="M421.644,174.898c0.492,0 0.885,0.111 1.179,0.332c0.294,0.222 0.441,0.521 0.441,0.898c0,0.291 -0.107,0.531 -0.32,0.718l1.48,0l0,0.987l-4.389,0l0,-0.922l0.293,-0.03c-0.234,-0.189 -0.351,-0.438 -0.351,-0.747c0,-0.39 0.144,-0.694 0.432,-0.911c0.288,-0.217 0.684,-0.325 1.188,-0.325l0.047,0Zm-0.062,0.987c-0.562,0 -0.844,0.164 -0.844,0.492c0,0.235 0.084,0.391 0.252,0.469l1.248,0c0.176,-0.086 0.264,-0.244 0.264,-0.474c0,-0.315 -0.271,-0.477 -0.814,-0.487l-0.106,0Z" style="fill:#445;fill-rule:nonzero;"/><path d="M421.591,174.587c-0.317,0 -0.598,-0.061 -0.845,-0.184c-0.247,-0.123 -0.437,-0.3 -0.57,-0.53c-0.133,-0.231 -0.199,-0.501 -0.199,-0.812c0,-0.475 0.147,-0.849 0.441,-1.122c0.293,-0.273 0.693,-0.41 1.199,-0.41l0.035,0c0.495,0 0.887,0.137 1.177,0.411c0.29,0.275 0.435,0.646 0.435,1.115c0,0.451 -0.136,0.814 -0.406,1.087c-0.271,0.274 -0.637,0.421 -1.1,0.442l-0.167,0.003Zm0.061,-0.987c0.293,0 0.508,-0.046 0.645,-0.138c0.137,-0.091 0.205,-0.227 0.205,-0.407c0,-0.351 -0.271,-0.531 -0.812,-0.539l-0.099,0c-0.568,0 -0.853,0.182 -0.853,0.545c0,0.33 0.245,0.509 0.736,0.536l0.178,0.003Z" style="fill:#445;fill-rule:nonzero;"/><path d="M420.035,170.187l0.372,-0.032c-0.287,-0.219 -0.43,-0.521 -0.43,-0.905c0,-0.331 0.098,-0.577 0.296,-0.74c0.197,-0.163 0.494,-0.248 0.89,-0.254l2.042,0l0,0.991l-2.001,0c-0.16,0 -0.278,0.032 -0.353,0.096c-0.075,0.065 -0.113,0.182 -0.113,0.352c0,0.193 0.076,0.337 0.229,0.43l2.238,0l0,0.988l-3.17,0l0,-0.926Z" style="fill:#445;fill-rule:nonzero;"/><path d="M423.264,166.176c0,0.487 -0.145,0.88 -0.435,1.181c-0.29,0.301 -0.668,0.451 -1.133,0.451l-0.082,0c-0.324,0 -0.61,-0.06 -0.858,-0.18c-0.248,-0.12 -0.44,-0.295 -0.576,-0.526c-0.136,-0.23 -0.203,-0.504 -0.203,-0.82c0,-0.446 0.138,-0.797 0.414,-1.055c0.277,-0.258 0.662,-0.387 1.156,-0.387l0.384,0l0,1.963c0.177,-0.035 0.317,-0.112 0.419,-0.231c0.101,-0.119 0.152,-0.274 0.152,-0.463c0,-0.313 -0.109,-0.557 -0.328,-0.733l0.533,-0.451c0.17,0.123 0.305,0.298 0.406,0.523c0.1,0.226 0.151,0.468 0.151,0.728Zm-2.526,0.112c0,0.289 0.192,0.461 0.575,0.515l0,-0.996l-0.077,0c-0.158,-0.004 -0.28,0.036 -0.367,0.12c-0.087,0.084 -0.131,0.204 -0.131,0.361Z" style="fill:#445;fill-rule:nonzero;"/><path d="M420.035,163.537l0.372,-0.033c-0.287,-0.218 -0.43,-0.52 -0.43,-0.905c0,-0.33 0.098,-0.577 0.296,-0.74c0.197,-0.163 0.494,-0.247 0.89,-0.253l2.042,0l0,0.99l-2.001,0c-0.16,0 -0.278,0.032 -0.353,0.097c-0.075,0.064 -0.113,0.182 -0.113,0.351c0,0.194 0.076,0.337 0.229,0.431l2.238,0l0,0.987l-3.17,0l0,-0.925Z" style="fill:#445;fill-rule:nonzero;"/><path d="M419.247,159.91l0.788,0l0,-0.522l0.686,0l0,0.522l1.45,0c0.119,0 0.202,-0.022 0.249,-0.065c0.047,-0.043 0.07,-0.128 0.07,-0.255c0,-0.097 -0.006,-0.179 -0.017,-0.246l0.706,0c0.056,0.178 0.085,0.364 0.085,0.557c0,0.34 -0.08,0.591 -0.241,0.753c-0.16,0.162 -0.403,0.243 -0.729,0.243l-1.573,0l0,0.404l-0.686,0l0,-0.404l-0.788,0l0,-0.987Z" style="fill:#445;fill-rule:nonzero;"/><path d="M422.314,157.34c-0.083,0 -0.151,0.044 -0.202,0.132c-0.05,0.088 -0.103,0.255 -0.158,0.501c-0.055,0.246 -0.126,0.449 -0.215,0.61c-0.089,0.16 -0.197,0.282 -0.324,0.366c-0.127,0.084 -0.272,0.126 -0.436,0.126c-0.291,0 -0.531,-0.12 -0.72,-0.361c-0.188,-0.24 -0.282,-0.554 -0.282,-0.943c0,-0.418 0.094,-0.754 0.284,-1.008c0.189,-0.254 0.438,-0.381 0.747,-0.381l0,0.991c-0.254,0 -0.381,0.133 -0.381,0.401c0,0.103 0.029,0.19 0.086,0.261c0.058,0.07 0.13,0.105 0.216,0.105c0.088,0 0.159,-0.043 0.214,-0.129c0.054,-0.086 0.099,-0.223 0.134,-0.411c0.036,-0.189 0.078,-0.354 0.126,-0.497c0.164,-0.477 0.458,-0.715 0.882,-0.715c0.289,0 0.525,0.129 0.706,0.385c0.182,0.257 0.273,0.59 0.273,0.998c0,0.271 -0.049,0.514 -0.147,0.727c-0.097,0.212 -0.23,0.378 -0.398,0.498c-0.168,0.119 -0.345,0.178 -0.53,0.178l0,-0.923c0.146,-0.003 0.253,-0.052 0.32,-0.146c0.068,-0.094 0.101,-0.214 0.101,-0.36c0,-0.135 -0.027,-0.236 -0.082,-0.304c-0.054,-0.067 -0.126,-0.101 -0.214,-0.101Z" style="fill:#445;fill-rule:nonzero;"/></g><path d="M46.563,188.559c0,12.257 -2.366,29.112 -12.051,37.666c-4.309,3.805 -9.532,6.299 -15.1,7.599c-2.406,0.562 -7.049,-1.279 -7.216,2.218c-0.177,3.718 4.619,5.866 7.385,6.917c8.868,3.369 18.74,3.887 28.117,4.333c6.291,0.3 12.604,0.52 18.899,0.733c1.948,0.066 5.522,0.824 7.2,-0.55c1.003,-0.82 6.099,-2.927 8.466,-8.454c4.655,-10.873 7.354,-29.247 7.835,-36.928c0.179,-2.866 1.019,-9.598 -1.518,-11.75c-2.46,-2.088 -6.879,-2.052 -9.884,-2.218c-8.444,-0.465 -24.238,-0.732 -32.584,0.833" style="fill:#ecf4f8;stroke:#bad7e6;stroke-width:3px;"/><path d="M221.072,206.064c1.268,0.345 2.583,0.516 3.876,0.739c3.357,0.582 6.717,1.15 10.106,1.521c7.794,0.855 15.776,1.386 23.623,1.386c1.735,0 3.547,-0.056 5.239,-0.49c0.247,-0.063 1.555,-0.69 1.77,-0.448c0.42,0.473 -1.027,2.616 -1.22,2.989c-1.53,2.973 -3.308,5.839 -5.199,8.594c-5.546,8.08 -17.22,31.195 -20.513,32.705c-0.837,0.384 -13.585,-3.767 -16.904,-4.747c-10.495,-3.099 -20.959,-6.232 -31.323,-9.75c-2.813,-0.955 -5.633,-1.892 -8.446,-2.843c-0.482,-0.163 -2.228,-0.314 -2.562,-0.781c-1.206,-1.689 -3.94,-4.937 -3.885,-5.073c0.255,-0.634 12.378,-3.259 15.492,-4.687c11.053,-5.071 18.758,-11.56 29.175,-17.886" style="fill:#ecf4f8;stroke:#bad7e6;stroke-width:3px;"/><path d="M98.467,245.658c-0.001,0.33 5.503,-0.557 6.47,-0.75c7.167,-1.434 14.285,-3.113 21.448,-4.563c4.203,-0.85 8.37,-1.732 12.51,-2.854c1.138,-0.308 3.511,-1.772 4.645,-1.677c0.994,0.083 2.24,1.188 3.167,1.542c2.367,0.903 13.93,8.837 32.29,8.277c18.36,-0.559 21.479,-3.156 30.627,-5.663c0.726,-0.198 6.961,-1.334 7.03,-0.01c0.097,1.844 -1.204,4.206 -1.979,5.801c-2.143,4.407 -4.785,8.599 -7.761,12.49c-2.895,3.786 -6.197,7.208 -9.625,10.51c-1.419,1.367 -2.981,3.308 -4.781,4.209c-1.448,0.725 -3.668,0.389 -5.199,0.468c-3.648,0.188 -16.542,-1.567 -25.938,-2.854c-19.342,-2.649 -54.271,-18.119 -61.873,-23.187" style="fill:#ecf4f8;stroke:#bad7e6;stroke-width:3px;"/><g><path d="M55.869,197.532l0.059,0.682c0.412,-0.527 0.965,-0.79 1.659,-0.79c0.734,0 1.23,0.292 1.488,0.876c0.394,-0.584 0.963,-0.876 1.708,-0.876c1.178,0 1.783,0.713 1.816,2.138l0,3.781l-1.816,0l0,-3.668c0,-0.298 -0.05,-0.514 -0.15,-0.65c-0.1,-0.136 -0.283,-0.204 -0.548,-0.204c-0.358,0 -0.625,0.159 -0.8,0.478l0.005,0.075l0,3.969l-1.815,0l0,-3.658c0,-0.304 -0.049,-0.524 -0.145,-0.66c-0.097,-0.136 -0.281,-0.204 -0.554,-0.204c-0.347,0 -0.612,0.159 -0.795,0.478l0,4.044l-1.81,0l0,-5.811l1.698,0Z" style="fill:#445;fill-rule:nonzero;"/><path d="M66.906,203.343c-0.064,-0.118 -0.121,-0.292 -0.172,-0.521c-0.333,0.419 -0.798,0.629 -1.396,0.629c-0.548,0 -1.013,-0.166 -1.397,-0.497c-0.383,-0.331 -0.574,-0.748 -0.574,-1.249c0,-0.63 0.232,-1.106 0.698,-1.429c0.465,-0.322 1.142,-0.483 2.03,-0.483l0.559,0l0,-0.306c0,-0.534 -0.231,-0.801 -0.693,-0.801c-0.43,0 -0.645,0.212 -0.645,0.634l-1.81,0c0,-0.562 0.239,-1.019 0.717,-1.369c0.478,-0.351 1.088,-0.527 1.829,-0.527c0.741,0 1.327,0.181 1.757,0.543c0.429,0.361 0.65,0.857 0.66,1.487l0,2.573c0.007,0.534 0.09,0.942 0.247,1.225l0,0.091l-1.81,0Zm-1.133,-1.182c0.226,0 0.413,-0.048 0.561,-0.145c0.149,-0.096 0.255,-0.205 0.32,-0.327l0,-0.929l-0.527,0c-0.63,0 -0.945,0.283 -0.945,0.848c0,0.165 0.056,0.298 0.167,0.4c0.111,0.102 0.252,0.153 0.424,0.153Z" style="fill:#445;fill-rule:nonzero;"/><path d="M71.38,203.343l-1.815,0l0,-5.811l1.815,0l0,5.811Zm-1.922,-7.31c0,-0.258 0.093,-0.469 0.279,-0.634c0.186,-0.164 0.428,-0.247 0.725,-0.247c0.297,0 0.539,0.083 0.725,0.247c0.186,0.165 0.279,0.376 0.279,0.634c0,0.258 -0.093,0.469 -0.279,0.634c-0.186,0.165 -0.428,0.247 -0.725,0.247c-0.297,0 -0.539,-0.082 -0.725,-0.247c-0.186,-0.165 -0.279,-0.376 -0.279,-0.634Z" style="fill:#445;fill-rule:nonzero;"/><path d="M74.157,197.532l0.059,0.682c0.401,-0.527 0.955,-0.79 1.66,-0.79c0.605,0 1.057,0.181 1.356,0.543c0.299,0.361 0.454,0.906 0.465,1.632l0,3.744l-1.816,0l0,-3.668c0,-0.294 -0.059,-0.51 -0.177,-0.648c-0.118,-0.137 -0.333,-0.206 -0.644,-0.206c-0.355,0 -0.618,0.139 -0.79,0.419l0,4.103l-1.81,0l0,-5.811l1.697,0Z" style="fill:#445;fill-rule:nonzero;"/></g><g><path d="M122.125,249.825l-0.61,0.136c-0.548,0.155 -0.747,0.364 -0.597,0.625l3.131,2.237l-1.741,0.493l-4.946,-3.533l1.633,-0.462l0.692,0.437c-0.192,-0.429 -0.026,-0.717 0.498,-0.866c0.186,-0.052 0.366,-0.085 0.541,-0.098l1.399,1.031Z" style="fill:#445;fill-rule:nonzero;"/><path d="M123.381,250.5c-0.494,-0.353 -0.825,-0.697 -0.993,-1.034c-0.169,-0.337 -0.153,-0.637 0.046,-0.9c0.199,-0.263 0.573,-0.473 1.121,-0.628c0.837,-0.237 1.726,-0.26 2.667,-0.069c0.941,0.192 1.806,0.569 2.595,1.133l0.055,0.039c0.771,0.551 1.141,1.056 1.109,1.517c-0.031,0.46 -0.46,0.807 -1.287,1.041c-0.796,0.226 -1.646,0.256 -2.551,0.091c-0.904,-0.165 -1.736,-0.5 -2.497,-1.005l-0.265,-0.185Zm1.837,-0.424c0.457,0.326 0.874,0.543 1.249,0.649c0.375,0.107 0.721,0.115 1.038,0.025c0.62,-0.175 0.515,-0.566 -0.315,-1.173l-0.156,-0.111c-0.886,-0.634 -1.65,-0.86 -2.291,-0.679c-0.582,0.165 -0.515,0.528 0.202,1.088l0.273,0.201Z" style="fill:#445;fill-rule:nonzero;"/><path d="M134.858,249.23c0.049,0.402 -0.24,0.692 -0.867,0.87c-0.613,0.173 -1.235,0.192 -1.866,0.056c-0.631,-0.136 -1.242,-0.415 -1.833,-0.838l-3.204,-2.289l1.741,-0.493l3.214,2.296c0.424,0.303 0.868,0.388 1.333,0.256c0.4,-0.113 0.557,-0.284 0.473,-0.512l-3.469,-2.479l1.752,-0.496l4.946,3.534l-1.633,0.462l-0.587,-0.367Z" style="fill:#445;fill-rule:nonzero;"/><path d="M133.884,243.879l1.23,0.878l0.92,-0.26l1.069,0.764l-0.92,0.26l2.263,1.617c0.186,0.132 0.353,0.214 0.502,0.245c0.149,0.031 0.336,0.015 0.56,-0.049c0.172,-0.049 0.307,-0.096 0.406,-0.142l1.102,0.787c-0.225,0.152 -0.508,0.276 -0.849,0.372c-0.6,0.17 -1.168,0.206 -1.703,0.109c-0.536,-0.098 -1.059,-0.329 -1.568,-0.692l-2.454,-1.754l-0.713,0.202l-1.07,-0.764l0.713,-0.202l-1.23,-0.878l1.742,-0.493Z" style="fill:#445;fill-rule:nonzero;"/><path d="M144.461,247.135c-0.858,0.243 -1.778,0.278 -2.761,0.105c-0.983,-0.173 -1.838,-0.519 -2.563,-1.037l-0.128,-0.091c-0.506,-0.362 -0.846,-0.71 -1.021,-1.047c-0.176,-0.336 -0.166,-0.638 0.029,-0.904c0.195,-0.267 0.571,-0.479 1.129,-0.637c0.786,-0.222 1.622,-0.244 2.508,-0.065c0.886,0.18 1.714,0.545 2.485,1.096l0.599,0.427l-3.463,0.981c0.34,0.18 0.694,0.297 1.062,0.351c0.369,0.054 0.72,0.033 1.055,-0.061c0.551,-0.156 0.811,-0.4 0.78,-0.732l1.627,0.369c0.048,0.251 -0.048,0.489 -0.289,0.714c-0.241,0.224 -0.591,0.402 -1.049,0.531Zm-4.137,-2.759c-0.509,0.144 -0.514,0.444 -0.013,0.898l1.757,-0.498l-0.119,-0.085c-0.24,-0.178 -0.502,-0.295 -0.785,-0.35c-0.284,-0.055 -0.564,-0.043 -0.84,0.035Z" style="fill:#445;fill-rule:nonzero;"/><path d="M147.257,242.71l-0.61,0.136c-0.548,0.155 -0.747,0.363 -0.597,0.625l3.131,2.237l-1.741,0.493l-4.947,-3.533l1.634,-0.463l0.692,0.438c-0.192,-0.429 -0.026,-0.718 0.498,-0.866c0.186,-0.053 0.366,-0.085 0.54,-0.098l1.4,1.031Z" style="fill:#445;fill-rule:nonzero;"/></g><g><path d="M227.92,215.514c0.007,-0.082 0.055,-0.196 0.143,-0.343c-0.579,0.196 -1.164,0.244 -1.753,0.142c-0.54,-0.092 -0.899,-0.271 -1.079,-0.535c-0.179,-0.265 -0.118,-0.548 0.182,-0.85c0.378,-0.38 0.893,-0.627 1.544,-0.742c0.652,-0.116 1.416,-0.098 2.291,0.052l0.551,0.095l0.183,-0.185c0.32,-0.321 0.252,-0.521 -0.203,-0.599c-0.424,-0.073 -0.762,0.018 -1.015,0.273l-1.784,-0.307c0.337,-0.339 0.846,-0.573 1.527,-0.704c0.681,-0.13 1.387,-0.133 2.118,-0.007c0.73,0.125 1.199,0.334 1.406,0.624c0.207,0.291 0.127,0.627 -0.24,1.008l-1.542,1.55c-0.313,0.323 -0.476,0.583 -0.49,0.78l-0.055,0.055l-1.784,-0.307Zm-0.409,-0.903c0.223,0.038 0.436,0.04 0.64,0.007c0.205,-0.033 0.375,-0.081 0.512,-0.143l0.556,-0.56l-0.518,-0.089c-0.622,-0.107 -1.102,0.01 -1.441,0.351c-0.098,0.099 -0.123,0.189 -0.075,0.269c0.048,0.081 0.157,0.135 0.326,0.165Z" style="fill:#445;fill-rule:nonzero;"/><path d="M237.48,215.138c-0.54,0.544 -1.172,0.943 -1.896,1.199c-0.723,0.256 -1.425,0.325 -2.107,0.208c-0.525,-0.09 -0.841,-0.282 -0.946,-0.575l-1.625,1.634l-1.784,-0.307l4.821,-4.847l1.668,0.287l-0.269,0.332c0.599,-0.2 1.178,-0.252 1.736,-0.156c0.705,0.121 1.096,0.375 1.171,0.76c0.076,0.386 -0.164,0.857 -0.717,1.413l-0.052,0.052Zm-1.716,-0.375c0.618,-0.621 0.63,-0.982 0.038,-1.084c-0.424,-0.073 -0.798,-0.029 -1.124,0.132l-1.371,1.379c-0.038,0.221 0.151,0.367 0.568,0.438c0.568,0.098 1.159,-0.151 1.773,-0.748l0.116,-0.117Z" style="fill:#445;fill-rule:nonzero;"/><path d="M243.584,216.187c-0.541,0.544 -1.173,0.943 -1.896,1.199c-0.724,0.256 -1.426,0.325 -2.107,0.208c-0.526,-0.09 -0.841,-0.282 -0.946,-0.575l-1.625,1.634l-1.784,-0.307l4.82,-4.847l1.668,0.286l-0.269,0.333c0.6,-0.2 1.178,-0.252 1.736,-0.156c0.706,0.121 1.096,0.375 1.172,0.76c0.075,0.386 -0.164,0.857 -0.718,1.413l-0.051,0.052Zm-1.717,-0.375c0.618,-0.621 0.631,-0.982 0.038,-1.084c-0.423,-0.073 -0.798,-0.029 -1.124,0.132l-1.371,1.379c-0.037,0.221 0.152,0.367 0.568,0.438c0.568,0.098 1.16,-0.151 1.774,-0.748l0.115,-0.117Z" style="fill:#445;fill-rule:nonzero;"/></g></svg>