<?xml version="1.0" encoding="UTF-8" standalone="no"?><!DOCTYPE svg PUBLIC "-//W3C//DTD SVG 1.1//EN" "http://www.w3.org/Graphics/SVG/1.1/DTD/svg11.dtd"><svg width="100%" height="100%" viewBox="0 0 200 130" version="1.1" xmlns="http://www.w3.org/2000/svg" xmlns:xlink="http://www.w3.org/1999/xlink" xml:space="preserve" xmlns:serif="http://www.serif.com/" style="fill-rule:evenodd;clip-rule:evenodd;stroke-linecap:round;stroke-linejoin:round;stroke-miterlimit:1.5;"><rect id="browser" x="0" y="0" width="200" height="130" style="fill:none;"/><g id="browser1" serif:id="browser"><path d="M30.582,18.845c13.642,-2.984 59.312,-3.492 88.042,-7.949c5.024,-0.78 10.086,-1.287 15.111,-2.06c6.055,-0.931 13.494,-2.397 19.255,0.598c3.998,2.079 6.425,6.37 8.317,10.287c4.155,8.597 17.077,47.199 20.313,57.444c1.382,4.377 5.514,15.057 3.918,19.637c-1.844,5.291 -8.249,5.643 -13.46,6.485c-4.209,0.679 -61.818,10.95 -86.746,13.967c-7.644,0.925 -15.238,1.722 -22.878,2.778c-17.198,2.376 -31.003,7.253 -34.286,-15.13c-1.638,-11.163 -11.249,-52.551 -13.208,-60.519c-1.007,-4.094 -2.306,-8.712 -1.332,-12.928c1.405,-6.088 3.312,-9.626 16.954,-12.61Z" style="fill:#bad7e6;"/><path d="M21.015,30.517c0.868,-2.659 5.037,-4.769 8.709,-2.734c3.756,2.081 3.799,4.879 2.336,7.514c-1.818,3.276 -6.429,3.992 -9.067,2.073c-2.639,-1.919 -2.846,-4.194 -1.978,-6.853Z" style="fill:#ecf4f8;"/><path d="M24.014,33.892c2.084,-0.937 4.144,-1.653 6.379,-2.153" style="fill:none;stroke:#82b7d1;stroke-width:2px;"/><path d="M24.648,30.856c0,0 -1.569,2.218 -1.101,3.153c0.467,0.935 2.846,1.636 2.846,1.636" style="fill:none;stroke:#82b7d1;stroke-width:2px;"/><path d="M36.942,28.401c0.314,3.012 0.429,6.006 2.796,7.042c3.831,1.679 11.043,0.116 15.743,-0.698c10.581,-1.83 21.125,-3.069 31.817,-4.186c12.405,-1.296 24.898,-2.498 37.294,-3.992c6.173,-0.744 12.253,-2.066 18.402,-2.966c2.317,-0.34 5.682,-0.406 6.908,-2.781c0.427,-0.826 0.582,-1.865 0.719,-2.772c1.461,-9.625 -13.106,-5.222 -18.397,-4.456c-13.461,1.947 -27.274,4.037 -40.789,5.558c-10.067,1.132 -19.873,1.707 -29.901,2.944c-5.807,0.717 -11.592,1.564 -17.386,2.337c-2.291,0.306 -7.65,-0.281 -7.206,3.97Z" style="fill:#ecf4f8;"/><path d="M21.611,49.074c0.679,5.045 1.963,9.201 3.531,15.726c2.693,11.201 4.258,22.053 6.929,33.263c1.356,5.689 2.228,16.167 8.453,18.529c3.02,1.145 6.423,0.039 9.489,-0.289c7.483,-0.803 14.546,-1.965 21.876,-3.789c9.855,-2.453 66.193,-9.517 76.834,-11.5c3.657,-0.682 10.716,-1.847 14.372,-2.562c8.285,-1.621 16.696,-1.368 16.726,-7.637c0.007,-1.529 -2.161,-9.659 -2.433,-11.154c-0.826,-4.551 -1.673,-7.846 -3.381,-12.079c-3.606,-8.939 -5.415,-16.828 -8.466,-25.974c-1.491,-4.47 -3.834,-12.843 -8.441,-15.078c-2.09,-1.014 -6.231,-0.22 -8.372,0.199c-5.187,1.014 -11.609,0.837 -16.834,1.908c-10.633,2.18 -19.765,3.583 -30.527,4.764c-7.464,0.819 -60.301,8.742 -67.178,9.135c-4.884,0.28 -13.258,1.492 -12.578,6.538Z" style="fill:#ecf4f8;"/><path d="M81.091,90.616c1.11,-2.383 6.629,-4.127 8.517,-1.319c1.887,2.808 2.076,5.184 0.376,6.912c-1.699,1.728 -5.286,2.808 -7.363,1.296c-2.076,-1.512 -2.639,-4.506 -1.53,-6.889Z" style="fill:#445;"/><path d="M131.777,82.236c2.234,-2.271 6.449,-2.096 7.691,0c1.241,2.097 1.746,4.466 -0.039,6.564c-1.917,2.252 -5.632,2.097 -7.379,0.349c-1.748,-1.747 -2.488,-4.66 -0.273,-6.913Z" style="fill:#445;"/><path d="M107.071,94.623c0,0 5.436,6.018 6.796,5.242c1.36,-0.776 2.524,-6.603 2.524,-6.603" style="fill:none;stroke:#445;stroke-width:2px;"/></g></svg>