<?xml version="1.0" encoding="UTF-8" standalone="no"?><!DOCTYPE svg PUBLIC "-//W3C//DTD SVG 1.1//EN" "http://www.w3.org/Graphics/SVG/1.1/DTD/svg11.dtd"><svg width="100%" height="100%" viewBox="0 0 480 400" version="1.1" xmlns="http://www.w3.org/2000/svg" xmlns:xlink="http://www.w3.org/1999/xlink" xml:space="preserve" xmlns:serif="http://www.serif.com/" style="fill-rule:evenodd;clip-rule:evenodd;stroke-linecap:round;stroke-linejoin:round;stroke-miterlimit:1.5;"><rect id="webbrowser-rendering" x="0" y="0" width="480" height="400" style="fill:none;"/><g id="webpage"><path d="M58.126,181.374c-44.151,4.405 -32.402,43.288 -30.314,75.943c1.256,19.642 1.37,39.338 0.366,58.984c-0.847,16.548 -5.83,46.478 8.249,59.367c10.725,9.819 64.595,5.775 80.603,5.745c54.344,-0.103 108.623,-0.756 163,-0.961c26.354,-0.1 56.947,4.767 82.628,-2.092c16.731,-4.468 18.117,-24.531 17.85,-38.89c-0.694,-37.352 -5.374,-74.631 -4.735,-111.999c0.235,-13.721 1.712,-34.109 -11.278,-43.096c-23.437,-16.215 -52.261,-6.263 -78.303,-6.099c-19.97,0.126 -127.408,1.971 -160.981,1.437c-17.169,-0.273 -67.085,1.661 -67.085,1.661Z" style="fill:#bad7e6;"/><clipPath id="_clip1"><path d="M58.126,181.374c-44.151,4.405 -32.402,43.288 -30.314,75.943c1.256,19.642 1.37,39.338 0.366,58.984c-0.847,16.548 -5.83,46.478 8.249,59.367c10.725,9.819 64.595,5.775 80.603,5.745c54.344,-0.103 108.623,-0.756 163,-0.961c26.354,-0.1 56.947,4.767 82.628,-2.092c16.731,-4.468 18.117,-24.531 17.85,-38.89c-0.694,-37.352 -5.374,-74.631 -4.735,-111.999c0.235,-13.721 1.712,-34.109 -11.278,-43.096c-23.437,-16.215 -52.261,-6.263 -78.303,-6.099c-19.97,0.126 -127.408,1.971 -160.981,1.437c-17.169,-0.273 -67.085,1.661 -67.085,1.661Z"/></clipPath><g clip-path="url(#_clip1)"><path d="M20.117,206.037c0,0 162.011,-5.996 200.008,-5.996c37.996,0 154.996,1 158.996,-3c4,-4 -21.004,-41.004 -21.004,-41.004l-338.996,19.004l0.996,30.996Z" style="fill:#82b7d1;"/></g><g id="left-sidebar"><path d="M53.763,214.475c-7.943,4.384 -3.856,18.937 6.214,15.02c12.945,-5.035 1.73,-19.404 -6.214,-15.02Z" style="fill:#82b7d1;"/><path d="M54.297,240.477c0,0 -1.344,1.973 -1.558,2.555c-1.003,2.724 2.66,6.884 5.531,5.447c5.764,-2.883 0.44,-11.784 -3.973,-8.002Z" style="fill:#82b7d1;"/><path d="M56.024,259.933c0,0 -1.736,2.264 -1.844,3.057c-0.463,3.405 3.413,5.861 6.093,3.742c1.51,-1.193 2.807,-3.773 1.906,-5.688c-0.935,-1.988 -4.679,-2.591 -6.155,-1.111Z" style="fill:#82b7d1;"/><path d="M57.701,279.107c-5.29,2.195 -3.178,8.986 1.357,8.306c4.497,-0.675 3.932,-10.5 -1.357,-8.306Z" style="fill:#82b7d1;"/><path d="M59.528,299.686c-6.207,0.703 -5.857,8.341 0.594,8.001c6.028,-0.317 5.613,-8.705 -0.594,-8.001Z" style="fill:#82b7d1;"/><path d="M57.56,319.51c-1.417,1.339 -1.943,2.194 -2.275,2.831c-1.457,2.793 0.851,7.052 4.292,6.02c2.859,-0.858 6.498,-5.437 3.879,-8.243c-0.974,-1.044 -4.479,-1.948 -5.896,-0.608Z" style="fill:#82b7d1;"/><path d="M59.31,339.605c-6.424,2.003 -3.816,10.841 2.129,9.489c6.551,-1.489 4.294,-11.491 -2.129,-9.489Z" style="fill:#82b7d1;"/><path d="M73.295,221.602c12.543,0.809 25.19,0.232 37.715,-0.693" style="fill:none;stroke:#82b7d1;stroke-width:2px;"/><path d="M73.697,242.802c8.248,-0.799 16.583,-1.74 24.891,-1.361" style="fill:none;stroke:#82b7d1;stroke-width:2px;"/><path d="M73.295,261.602c11.769,-0.736 23.939,-2.068 35.727,-1.055" style="fill:none;stroke:#82b7d1;stroke-width:2px;"/><path d="M73.297,282.002c8.97,-0.29 17.893,-1.16 26.881,-1.008" style="fill:none;stroke:#82b7d1;stroke-width:2px;"/><path d="M74.495,304.002c12.557,-1.177 25.861,-3.706 38.49,-3.247" style="fill:none;stroke:#82b7d1;stroke-width:2px;"/><path d="M73.695,323.202c10.036,-0.324 20.06,-0.74 30.091,-1.126" style="fill:none;stroke:#82b7d1;stroke-width:2px;"/><path d="M76.093,343.2c5.362,0.001 10.724,0.133 16.084,0.093" style="fill:none;stroke:#82b7d1;stroke-width:2px;"/></g><path d="M50.382,189.363c0.263,-1.497 2.819,-2.358 5.619,-2.358c2.8,0 60.403,-2 70.402,-1.6c9.998,0.4 24.847,-0.724 33.282,-0.879c8.718,-0.16 20.316,0.479 25.116,0.079c4.8,-0.4 7.52,0.08 7.92,3.28c0.4,3.2 0.311,6.756 -1.118,8.32c-1.429,1.563 -15.205,-0.403 -25.603,0.398c-10.399,0.802 -58.802,1.599 -75.2,2c-16.399,0.402 -27.644,1.654 -34.442,1.655c-6.799,0.002 -5.724,-2.079 -6.124,-4.079c-0.4,-2 -0.115,-5.319 0.148,-6.816Z" style="fill:#ecf4f8;"/><path d="M143.185,211.707c11,0 67,0 80.5,-0.512c13.5,-0.513 57.006,-4.613 63.002,-1.026c5.996,3.587 7.998,22.046 7.998,43.58c0,21.533 2.002,57.425 2.5,70.753c0.498,13.328 1.5,23.584 1,32.3c-0.5,8.716 0,8.716 -0.5,12.305c-0.5,3.589 -67.504,-3.08 -87.002,-3.078c-19.498,0.002 -50.502,-0.002 -59.5,0c-8.998,0.002 -10.998,-2.049 -11.998,-10.765c-1,-8.716 -3,-122.536 -4,-132.277c-1,-9.742 -3,-11.28 8,-11.28Z" style="fill:#ecf4f8;"/><g id="hello-there"><path d="M268.509,254.521c-0.001,0.721 0.016,1.318 0.016,1.318" style="fill:none;stroke:#445;stroke-width:2px;"/><path d="M274.249,236.648c0,3.767 -1.313,10.867 -2.025,14.551" style="fill:none;stroke:#445;stroke-width:2px;"/><path d="M272.029,254.805c-0.104,0.858 -0.123,0.52 -0.189,1.381" style="fill:none;stroke:#445;stroke-width:2px;"/><path d="M146.917,242.872c0,4.95 0.444,9.901 0.444,14.844" style="fill:none;stroke:#445;stroke-width:2px;"/><path d="M147.138,250.648c0.002,-0.209 1.098,-0.387 1.246,-0.425c1.384,-0.357 2.847,-0.569 4.275,-0.569" style="fill:none;stroke:#445;stroke-width:2px;"/><path d="M153.583,242.649c0,4.492 -0.131,10.574 -0.131,15.049" style="fill:none;stroke:#445;stroke-width:2px;"/><path d="M163.094,249.606c-1.713,-0.637 -3.347,0.373 -4.089,1.256c-3.161,3.765 1.222,8.537 5.423,6.961" style="fill:none;stroke:#445;stroke-width:2px;"/><path d="M158.25,253.983c0,0.228 2.232,0.179 3.524,0.071" style="fill:none;stroke:#445;stroke-width:2px;"/><path d="M168.028,249.538l0,6.622c0,1.936 0.816,1.405 2.708,1.48c0.83,0.034 1.741,-0.04 2.563,-0.04" style="fill:none;stroke:#445;stroke-width:2px;"/><path d="M176.694,249.316c0,1.051 -0.133,5.348 -0.17,6.007c-0.113,2.038 0.308,2.264 1.42,2.257c1.112,-0.007 4.519,0.074 4.519,0.074" style="fill:none;stroke:#445;stroke-width:2px;"/><path d="M190.455,249.688c-4.297,-0.554 -6.351,2.515 -5.248,5.002c0.815,1.838 2.774,2.989 4.675,3.069c4.279,0.179 4.869,-7.517 0.573,-8.071Z" style="fill:none;stroke:#445;stroke-width:2px;"/><path d="M211.582,243.315c0,4.566 1.076,9.341 1.076,13.938" style="fill:none;stroke:#445;stroke-width:2px;"/><path d="M204.471,242.87c0,0 3.82,0.001 5.139,0.001c3.473,0 6.752,0.054 10.133,-0.791" style="fill:none;stroke:#445;stroke-width:2px;"/><path d="M218.471,246.648c0,-0.135 0.902,8.276 0.902,10.513" style="fill:none;stroke:#445;stroke-width:2px;"/><path d="M224.916,246.648c-0.012,3.055 -0.643,7.212 -0.118,10.361" style="fill:none;stroke:#445;stroke-width:2px;"/><path d="M219.137,252.425c1.83,0.915 3.392,-0.42 5.327,0.063" style="fill:none;stroke:#445;stroke-width:2px;"/><path d="M236.249,247.315c-1.102,-0.62 -2.56,-0.5 -3.263,-0.329c-1.921,0.465 -3.637,2.104 -3.581,4.222c0.125,4.744 4.905,5.766 8.282,4.064" style="fill:none;stroke:#445;stroke-width:2px;"/><path d="M229.569,251.669c-0.192,0 0.535,0.014 0.588,0.018c0.478,0.042 0.954,0.095 1.431,0.143c1.405,0.14 2.803,0.177 4.213,0.177" style="fill:none;stroke:#445;stroke-width:2px;"/><path d="M242.249,247.143c0,3.028 0.451,6.077 0.445,9.08" style="fill:none;stroke:#445;stroke-width:2px;"/><path d="M242.237,247.073c1.73,-0.293 6.542,0.625 6.958,2.083c0.708,2.481 -5.02,1.96 -6.48,1.96c-0.343,0 1.024,-0.073 0.996,0.226c-0.064,0.679 3.8,3.855 6.032,4.689" style="fill:none;stroke:#445;stroke-width:2px;"/><path d="M261.089,247.246c0,0 -7.095,-1.049 -7.263,3.982c-0.126,3.765 3.793,5.471 7.325,4.636" style="fill:none;stroke:#445;stroke-width:2px;"/><path d="M254.812,251.595c1.41,-0.221 3.09,-0.467 4.515,-0.276" style="fill:none;stroke:#445;stroke-width:2px;"/><path d="M269.137,236.203c-0.003,0 -0.137,3.086 -0.141,3.192c-0.158,3.713 -0.382,7.423 -0.498,11.138" style="fill:none;stroke:#445;stroke-width:2px;"/></g><path d="M149.794,220.526c-8.089,0 -7.344,13.782 0.243,13.782c4.374,0 11.956,-5.764 8.458,-10.66c-1.846,-2.585 -6.957,-3.141 -9.78,-3.141" style="fill:#ff0078;"/><path d="M164.804,227.528c10.7,0.002 21.407,-0.367 32.105,-0.215" style="fill:none;stroke:#82b7d1;stroke-width:2px;"/><g id="right-sidebar"><path d="M306.761,212.846c-5.589,0.545 -3.131,3.659 -3.482,6.679c-0.351,3.02 -1.259,24.638 1.168,30.611c1.668,4.105 10.031,2.428 13.398,2.59c11.688,0.563 44.527,1.72 45.586,-0.751c1.527,-3.566 1.899,-33.041 -1.064,-37.731c-1.509,-2.39 -28.501,-2.288 -38.269,-1.651c-6.461,0.422 -10.89,-0.374 -17.337,0.253Z" style="fill:#ecf4f8;"/><path d="M305.477,264.092c0,5.973 -0.772,11.911 -0.405,17.908c0.14,2.294 0.246,5.835 2.389,7.345c3.335,2.35 34.539,2.918 46.153,1.77c3.929,-0.388 9.748,0.18 10.882,-4.57c0.607,-2.541 0.852,-8.214 0.728,-10.804c-0.164,-3.431 0.063,-10.301 -2.375,-13.115c-2.434,-2.808 -7.487,-1.888 -10.918,-2.233c-9.225,-0.928 -16.593,-0.357 -25.851,-0.027c-5.974,0.213 -12.018,-0.06 -17.973,0.394c-1.683,0.129 -2.63,3.332 -2.63,3.332Z" style="fill:#ecf4f8;"/><path d="M308.259,344.143c0,-10.58 -1.296,-21.48 -0.723,-32.045c0.134,-2.466 -1.644,-8.822 0.556,-10.537c3.031,-2.363 32.6,-2.616 42.63,-2.616c3.223,0 10.532,0.29 13.378,2.32c2.343,1.671 1.856,7.271 1.881,9.751c0.13,13.413 1.212,51.116 -1.503,53.444c-3.814,3.269 -53.06,2.416 -55.178,-0.045c-1.985,-2.306 -1.041,-20.272 -1.041,-20.272Z" style="fill:#ecf4f8;"/></g><g id="image"><path d="M146.229,285.501c-0.639,6.702 0.12,31.89 0.952,48.537c0.198,3.972 0.113,8.157 1.038,12.064c0.311,1.317 0.818,3.324 2.225,4.074c2.235,1.191 5.822,0.75 8.304,0.938c5.09,0.386 68.121,3.687 94.684,2.834c2.368,-0.076 4.737,-0.115 7.105,-0.173c4.623,-0.114 9.242,-0.235 13.861,-0.438c5.285,-0.232 10.205,0.068 10.63,-5.902c0.543,-7.635 -0.918,-45.676 -0.099,-56.904c0.337,-4.627 1.886,-15.9 -3.666,-18.943c-2.831,-1.553 -6.838,-1.273 -10.005,-1.391c-5.884,-0.221 -11.754,-0.667 -17.634,-0.967c-24.921,-1.274 -48.194,-0.022 -73.125,-0.182c-6.384,-0.041 -17.437,0.742 -23.81,0.759c-15.424,0.043 -9.82,8.993 -10.46,15.694Z" style="fill:#fff;"/><path d="M169.172,309.7c1.097,-2.288 10.635,-12.949 14.062,-13.635c1.612,-0.323 11.528,11.468 12.655,14.202" style="fill:none;stroke:#ff0078;stroke-width:2px;"/><path d="M235.19,309.619c1.346,-1.802 13.302,-14.996 16.14,-14.899c2.838,0.097 9.501,10.98 12.951,17.345" style="fill:none;stroke:#ff0078;stroke-width:2px;"/><path d="M206.59,322.707c1.559,2.7 4.53,5.026 6.428,5.484c4.178,1.009 8.219,-3.125 10.033,-6.425" style="fill:none;stroke:#ff0078;stroke-width:2px;"/><path d="M188.515,317.745c-2.628,-1.283 -11.127,-1.247 -15.33,1.941c-5.164,3.918 0.898,8.838 5.677,9.015c3.714,0.138 8.543,-0.896 11.576,-3.143c2.971,-2.201 0.706,-6.53 -1.923,-7.813Z" style="fill:#ffe5f2;"/><path d="M263.117,323.401c2.595,-3.029 -5.168,-6.579 -5.855,-6.69c-1.378,-0.224 -6.093,-0.402 -7.486,-0.425c-2.741,-0.044 -13.058,0.639 -11.427,5.824c2.262,7.192 13.045,4.953 18.296,3.872c2.076,-0.427 5.004,-0.867 6.472,-2.581Z" style="fill:#ffe5f2;"/></g></g><g id="js"><path d="M43.331,104.678l-2.946,1.375c0.659,1.235 -1.958,7.343 -0.811,8.227c2.396,1.847 12.298,1.272 13.092,-2.308c0.398,-1.792 -9.335,-7.294 -9.335,-7.294Z" style="fill:#82b7d1;"/><path d="M22.733,116.767c-0.869,-0.131 -1.483,-0.919 -1.398,-1.794c0.338,-4.132 -0.094,-8.33 1.339,-12.57c0.757,-2.24 1.482,-3.498 2.669,-5.598c4.13,-7.305 19.808,-19.748 24.232,-21.771c3.336,-1.526 15.19,-3.73 18.954,-3.49c3.525,0.224 11.964,-0.017 14.035,5.193c3.4,8.55 6.32,16.012 7.218,24.334c0.385,3.564 1.07,9.457 -0.086,12.28c-0.819,1.999 -11.732,1.681 -12.824,-0.204c-1.092,-1.885 1.105,-3.186 -0.505,-4.329c-1.913,-1.358 -9.76,0.49 -11.972,0.79c-1.96,0.266 -0.899,6.035 -1.858,7.345c-1.845,2.522 -9.95,1.746 -12.845,1.183c-2.622,-0.51 0.692,-3.262 -0.664,-5.197c-1.513,-2.162 -4.233,-2.614 -6.499,-3.688c-1.82,-0.862 -3.207,-2.389 -4.875,-0.979c-2.076,1.755 -2.315,5.558 -3.618,7.724c-1.206,2.003 -8.147,1.235 -11.303,0.771Z" style="fill:#bad7e6;"/><path d="M77.941,75.339c-1.794,-6.728 -2.926,-13.66 -5.001,-20.311c-0.705,-2.258 -1.399,-5.639 -3.102,-7.397c-2.702,-2.789 -7.813,-2.611 -11.31,-1.819c-2.152,0.488 -4.107,2.024 -4.113,4.465c-0.006,2.754 2.588,5.291 4.08,7.393c3.399,4.788 6.997,9.347 8.82,15.034l10.626,2.635Z" style="fill:#bad7e6;"/><clipPath id="_clip2"><path d="M77.941,75.339c-1.794,-6.728 -2.926,-13.66 -5.001,-20.311c-0.705,-2.258 -1.399,-5.639 -3.102,-7.397c-2.702,-2.789 -7.813,-2.611 -11.31,-1.819c-2.152,0.488 -4.107,2.024 -4.113,4.465c-0.006,2.754 2.588,5.291 4.08,7.393c3.399,4.788 6.997,9.347 8.82,15.034l10.626,2.635Z"/></clipPath><g clip-path="url(#_clip2)"><path d="M75.368,57.471c0,0 -5.15,-6.109 -11.388,-5.445c-4.73,0.504 -10.272,3.066 -10.272,3.066l-0.69,-12.531l21.28,-0.543l1.07,15.453Z" style="fill:#82b7d1;"/></g><path d="M53.493,75.833c-2.722,-6.015 -7.001,-11.93 -11.27,-16.938c-1.559,-1.831 -3.268,-4.484 -5.369,-5.702c-3.623,-2.1 -13.434,0.731 -12.416,6.062c0.627,3.283 4.755,5.229 7.165,6.982c5.693,4.143 11.352,7.733 15.225,13.758l6.665,-4.162Z" style="fill:#bad7e6;"/><clipPath id="_clip3"><path d="M53.493,75.833c-2.722,-6.015 -7.001,-11.93 -11.27,-16.938c-1.559,-1.831 -3.268,-4.484 -5.369,-5.702c-3.623,-2.1 -13.434,0.731 -12.416,6.062c0.627,3.283 4.755,5.229 7.165,6.982c5.693,4.143 11.352,7.733 15.225,13.758l6.665,-4.162Z"/></clipPath><g clip-path="url(#_clip3)"><path d="M44.24,60.016c-2.485,-4.656 -19.146,-1 -16.867,5.56c0.636,1.83 -7.719,-9.1 -7.719,-9.1l13.546,-11.314l11.04,14.854Z" style="fill:#82b7d1;"/></g><g id="j"><path d="M34.314,63.285c1.989,-1.443 4.465,-2.287 6.992,-2.135" style="fill:none;stroke:#82b7d1;stroke-width:1.5px;"/><path d="M37.899,62.047c0.71,0.561 1.466,1.074 2.243,1.537c0.65,0.388 1.48,0.806 1.801,1.545c0.305,0.706 -0.356,1.265 -0.924,1.518c-1.054,0.471 -2.262,0.214 -3.214,-0.367" style="fill:none;stroke:#82b7d1;stroke-width:1.5px;"/></g><path d="M83.722,89.17c1.708,0.848 3.294,4.631 -0.343,5.455c-0.564,0.128 -1.154,0.125 -1.72,0.005c-1.934,-0.413 -3.462,-2.566 -2.618,-4.482c0.703,-1.593 2.974,-1.825 4.681,-0.978Z" style="fill:#445;"/><path d="M63.587,90.643c2.646,-0.232 4.674,2.935 3.114,5.149c-0.656,0.93 -1.746,1.286 -2.81,1.345c-4.126,0.229 -4.031,-6.168 -0.304,-6.494Z" style="fill:#445;"/><path d="M78.896,95.799c0.072,0.842 0.244,2.242 -0.87,3.083c-1.114,0.84 -3.22,0.244 -3.971,-1.18c-0.016,-0.029 -0.593,1.926 -1.985,1.839c-1.26,-0.079 -2.792,-2.017 -2.444,-3.625" style="fill:none;stroke:#445;stroke-width:1.5px;"/><path id="s" d="M69.14,55.755c-0.906,-0.588 -2.172,-1.023 -3.266,-0.824c-1.421,0.259 -2.354,1.704 -1.846,3.069c0.425,1.144 1.584,1.532 2.719,1.433c1.668,-0.145 3.588,-1.182 4.658,0.75c0.681,1.232 -0.148,2.372 -1.275,2.907c-1.477,0.702 -3.181,0.617 -4.34,-0.61" style="fill:none;stroke:#82b7d1;stroke-width:1.5px;"/></g><g id="browser-with-address"><path d="M447.551,32.716c-5.116,-1.119 -14.736,-1.89 -26.277,-2.651c-19.236,-1.269 -43.809,-2.512 -61.765,-5.298c-5.024,-0.779 -10.086,-1.287 -15.111,-2.06c-6.056,-0.931 -13.494,-2.396 -19.256,0.599c-3.997,2.078 -6.424,6.37 -8.317,10.286c-4.154,8.597 -17.077,47.2 -20.312,57.445c-1.382,4.376 -5.514,15.056 -3.918,19.637c1.843,5.29 8.249,5.642 13.46,6.484c4.208,0.68 61.818,10.95 86.746,13.967c7.644,0.925 15.238,1.722 22.877,2.778c17.198,2.377 31.003,7.253 34.287,-15.13c1.638,-11.163 11.248,-52.551 13.208,-60.519c1.006,-4.094 2.306,-8.712 1.332,-12.928c-1.406,-6.088 -3.312,-9.626 -16.954,-12.61Z" style="fill:#bad7e6;"/><g id="back-button"><path d="M330,27.809c1.983,-1.974 6.655,-1.957 9,1.525c2.399,3.562 1.165,6.073 -1.336,7.755c-3.109,2.09 -7.541,0.632 -9.019,-2.277c-1.477,-2.909 -0.627,-5.03 1.355,-7.003Z" style="fill:#ecf4f8;"/><path d="M331.136,32.179c2.282,0.113 4.443,0.412 6.661,0.983" style="fill:none;stroke:#82b7d1;stroke-width:2px;"/><path d="M333.082,29.763c0,0 -2.406,1.262 -2.415,2.307c-0.009,1.046 1.791,2.752 1.791,2.752" style="fill:none;stroke:#82b7d1;stroke-width:2px;"/></g><path d="M346.094,31.94c-0.43,2.998 -1.048,5.929 0.994,7.512c3.306,2.561 10.682,2.804 15.439,3.162c10.708,0.804 21.235,2.174 31.876,3.697c12.348,1.769 24.756,3.649 37.142,5.223c6.168,0.784 12.387,0.984 18.571,1.61c2.329,0.236 5.608,0.992 7.377,-1.012c0.615,-0.697 1.019,-1.667 1.373,-2.513c3.764,-8.979 -11.438,-8.26 -16.755,-8.808c-13.529,-1.394 -27.435,-2.735 -40.913,-4.556c-10.04,-1.356 -19.69,-3.19 -29.716,-4.435c-5.807,-0.721 -11.624,-1.31 -17.432,-1.973c-2.296,-0.262 -7.35,-2.138 -7.956,2.093Z" style="fill:#ecf4f8;"/><g id="address"><path d="M350.278,31.795c-0.075,2.297 0.119,4.579 0.105,6.873" style="fill:none;stroke:#445;stroke-width:2px;"/><path d="M354.093,31.78c0.053,2.401 0.012,4.809 0.055,7.212" style="fill:none;stroke:#445;stroke-width:2px;"/><path d="M350.843,35.771c0.723,0.002 1.441,-0.002 2.163,0.024" style="fill:none;stroke:#445;stroke-width:2px;"/><path d="M356.529,32.504c1.757,0.203 3.476,0.641 5.239,0.811" style="fill:none;stroke:#445;stroke-width:2px;"/><path d="M359.127,32.932c0.159,2.23 0.346,4.495 0.279,6.736" style="fill:none;stroke:#445;stroke-width:2px;"/><path d="M364.16,34.084c1.7,0.224 3.391,0.452 5.139,0.339" style="fill:none;stroke:#445;stroke-width:2px;"/><path d="M366.695,34.749c-0.085,1.908 -0.317,3.807 -0.376,5.715" style="fill:none;stroke:#445;stroke-width:2px;"/><path d="M371.248,41.281c0.046,-1.363 0.147,-2.724 0.16,-4.088c0.004,-0.414 -0.127,-1.266 0.109,-1.612c0.335,-0.494 1.13,-0.521 1.658,-0.573c1.052,-0.105 2.282,0.032 3.055,0.841c0.585,0.613 0.818,1.943 -0.062,2.428c-0.511,0.282 -1.123,0.277 -1.688,0.232c-0.713,-0.058 -1.395,-0.225 -2.096,-0.332" style="fill:none;stroke:#445;stroke-width:2px;"/><path d="M378.903,39.225c0.551,-0.044 1.106,-0.028 1.655,-0.074" style="fill:none;stroke:#445;stroke-width:2px;"/><path d="M378.292,42.198c0.372,0.026 0.744,0.038 1.115,0.072" style="fill:none;stroke:#445;stroke-width:2px;"/><path d="M386.57,36.156c-1.094,1.994 -2.272,3.965 -3.519,5.868" style="fill:none;stroke:#445;stroke-width:2px;"/><path d="M389.622,36.788c-1.271,1.947 -2.659,3.841 -3.844,5.843" style="fill:none;stroke:#445;stroke-width:2px;"/><path d="M393.214,37.922c-0.556,2.121 -1.023,4.269 -1.361,6.436" style="fill:none;stroke:#445;stroke-width:2px;"/><path d="M392.998,37.78c0.847,0.104 2.233,0.062 2.906,0.703c1.44,1.373 -1.15,2.484 -2.246,2.422" style="fill:none;stroke:#445;stroke-width:2px;"/><path d="M402.08,39.113c0,0 -1.765,-0.486 -3.061,0.691c-1.399,1.271 -2.074,4.434 0.23,5.178c1.697,0.548 3.767,-0.679 4.473,-2.22c0.657,-1.434 -0.146,-3.152 -1.642,-3.649Z" style="fill:none;stroke:#445;stroke-width:2px;"/><path d="M407.665,40.277c-0.302,0.358 -0.447,0.731 -0.61,1.052c-0.459,0.909 -0.871,1.99 -0.773,3.024c0.166,1.741 2.442,2.353 3.669,1.256c1.419,-1.269 1.351,-3.251 0.87,-4.906" style="fill:none;stroke:#445;stroke-width:2px;"/><path d="M414.573,40.889c0.016,-0.06 -0.033,0.12 -0.048,0.18c-0.032,0.138 -0.062,0.276 -0.091,0.414c-0.077,0.371 -0.145,0.743 -0.216,1.115c-0.22,1.137 -0.425,2.277 -0.573,3.427c-0.038,0.297 -0.084,0.594 -0.115,0.893" style="fill:none;stroke:#445;stroke-width:2px;"/><path d="M420.949,41.946c-0.615,-0.501 -2.623,-0.966 -3.78,1.312c-0.194,0.382 -0.379,0.773 -0.462,1.195c-0.592,3.006 2.418,3.504 4.394,2.474" style="fill:none;stroke:#445;stroke-width:2px;"/><path d="M423.578,47.234l0.627,-0.023" style="fill:none;stroke:#445;stroke-width:2px;"/><path d="M431.174,43.13c-1.8,-0.617 -2.818,0.406 -3.287,0.997c-1.155,1.456 -0.824,3.786 1.137,4.327c0.853,0.235 1.742,0.003 2.505,-0.388" style="fill:none;stroke:#445;stroke-width:2px;"/><path d="M437.026,43.966c0,0 -2.213,-0.241 -2.865,2.15c-0.396,1.45 0.57,2.896 2.086,3.057c1.576,0.167 2.912,-1.225 3.01,-2.747c0.078,-1.207 -0.983,-2.476 -2.231,-2.46Z" style="fill:none;stroke:#445;stroke-width:2px;"/><path d="M442.186,49.826c-0.381,-1.226 -0.504,-4.183 0.799,-5.007c0.931,-0.589 2.55,0.111 2.534,1.848c0.595,-2.3 6.181,-1.974 1.96,4.097" style="fill:none;stroke:#445;stroke-width:2px;"/></g><path d="M456.522,62.945c-0.68,5.046 -1.963,9.201 -3.532,15.727c-2.692,11.2 -4.258,22.053 -6.929,33.262c-1.355,5.689 -2.227,16.167 -8.452,18.529c-3.02,1.146 -6.423,0.04 -9.49,-0.289c-7.482,-0.803 -14.546,-1.965 -21.876,-3.789c-9.854,-2.453 -66.193,-9.517 -76.834,-11.5c-3.656,-0.681 -10.716,-1.847 -14.371,-2.562c-8.285,-1.621 -16.697,-1.368 -16.727,-7.637c-0.007,-1.529 2.162,-9.659 2.433,-11.154c0.826,-4.551 1.674,-7.846 3.381,-12.079c3.607,-8.939 5.416,-16.827 8.467,-25.974c1.491,-4.47 3.834,-12.843 8.44,-15.078c2.091,-1.014 6.232,-0.219 8.372,0.199c5.188,1.014 11.61,0.837 16.834,1.908c10.634,2.18 19.765,3.583 30.528,4.764c7.464,0.819 60.3,8.742 67.177,9.135c4.884,0.28 13.259,1.492 12.579,6.538Z" style="fill:#ecf4f8;"/><path d="M333.324,95.573c4.81,0.875 13.673,2.536 18.457,3.534" style="fill:none;stroke:#445;stroke-width:2px;"/><path d="M386.326,104.774c6.26,1.955 12.856,2.542 19.255,3.876" style="fill:none;stroke:#445;stroke-width:2px;"/><path d="M426.746,66.862c-0.909,-0.082 -1.528,-0.778 -2.426,-1.379c-0.276,-0.186 -1.697,-1.213 -1.848,-1.494c-0.558,-1.038 1.468,-3.441 1.069,-4.792c-0.496,-1.683 -4.158,-2.076 -5.55,-2.215c-0.569,-0.057 -1.321,-0.164 -1.826,0.18c-1.749,1.193 -0.986,3.765 -1.777,5.36c-0.37,0.745 -1.715,1.253 -2.504,1.339c-2.63,0.284 -2.106,-3.022 -3.732,-4.157c-0.978,-0.682 -2.412,-0.435 -4.203,0.371c-1.615,0.727 -3.296,1.488 -3.421,2.837c-0.047,0.51 0.314,1.195 0.562,1.585c0.47,0.741 1.096,1.125 1.728,1.732c0.271,0.261 0.902,0.654 1.018,1.022c0.351,1.114 -0.903,2.867 -1.45,3.794c-0.497,0.841 -1.42,0.811 -2.297,0.683c-1.238,-0.181 -3.163,-0.742 -4.382,-0.438c-0.754,0.189 -1.036,1.051 -1.178,1.705c-0.34,1.576 -0.17,3.317 0.011,4.906c0.099,0.877 1.201,1.265 2.007,1.291c1.594,0.051 3.409,-0.515 3.965,1.414c0.225,0.779 0.692,2.353 0.199,3.085c-1.274,1.893 -5.093,1.314 -4.456,4.379c0.093,0.449 0.313,0.867 0.517,1.276c0.232,0.464 0.546,0.908 0.903,1.288c0.799,0.852 2.339,2.592 3.652,2.467c1.143,-0.108 2.217,-0.834 3.097,-1.507c0.444,-0.34 0.942,-0.937 1.51,-1.044c0.634,-0.12 1.267,0.214 1.814,0.475c0.503,0.239 1.395,0.569 1.623,1.085c0.945,2.138 -2.266,5.098 0.812,6.319c2,0.793 5.671,1.731 6.995,-0.413c0.827,-1.341 0.141,-4.18 1.976,-4.599c1.444,-0.33 2.911,-0.139 3.774,1.152c0.839,1.255 0.991,3.412 3.014,3.066c1.87,-0.321 3.453,-2.318 4.498,-3.696c0.514,-0.677 0.977,-1.396 0.778,-2.269c-0.367,-1.606 -2.703,-2.127 -2.134,-3.868c0.093,-0.285 0.246,-0.564 0.409,-0.818c0.341,-0.534 0.826,-1.686 1.479,-1.862c1.629,-0.437 4.431,1.868 5.614,-0.025c0.211,-0.339 0.347,-0.683 0.475,-1.057c0.539,-1.579 1.922,-4.493 0.24,-5.869c-0.96,-0.784 -2.477,-0.818 -3.667,-0.986c-0.581,-0.081 -1.154,-0.073 -1.553,-0.561c-0.383,-0.467 -0.633,-1.224 -0.706,-1.794c-0.128,-1.004 -0.442,-1.704 0.391,-2.439c1.231,-1.086 4.402,-1.349 3.995,-3.386c-0.305,-1.53 -2.648,-4.981 -4.229,-5.092c-1.582,-0.111 -3.876,3.031 -4.786,2.949Zm-8.371,5.701c2.256,1.282 4.614,5.654 3.061,8.571c-0.587,1.104 -1.858,1.846 -2.972,2.37c-0.938,0.44 -1.925,0.523 -2.941,0.337c-2.487,-0.457 -4.663,-1.839 -5.633,-4.163c-1.552,-3.722 2.053,-6.424 3.091,-6.81c1.039,-0.386 3.139,-1.587 5.394,-0.305Z" style="fill:#82b7d1;"/></g><g id="css"><path d="M151.685,70.661c0.714,10.686 1.44,14.055 1.888,24.748c0.226,5.38 1.101,11.429 -2.7,15.829c-4.039,4.677 -10.71,5.405 -16.449,6.428c-10.767,1.919 -26.626,0.188 -29.461,-9.304c-0.838,-2.808 -1.448,-5.818 -1.701,-8.735c-0.865,-10.008 -0.806,-12.765 -0.52,-22.785c0.139,-4.871 0.534,-10.897 4.396,-14.439c2.711,-2.487 6.463,-3.79 10.054,-4.319c2.329,-0.344 4.606,-0.639 6.963,-0.698c9.858,-0.245 23.06,-2.069 27.127,10.389l0.403,2.886Z" style="fill:#bad7e6;"/><clipPath id="_clip4"><path d="M151.685,70.661c0.714,10.686 1.44,14.055 1.888,24.748c0.226,5.38 1.101,11.429 -2.7,15.829c-4.039,4.677 -10.71,5.405 -16.449,6.428c-10.767,1.919 -26.626,0.188 -29.461,-9.304c-0.838,-2.808 -1.448,-5.818 -1.701,-8.735c-0.865,-10.008 -0.806,-12.765 -0.52,-22.785c0.139,-4.871 0.534,-10.897 4.396,-14.439c2.711,-2.487 6.463,-3.79 10.054,-4.319c2.329,-0.344 4.606,-0.639 6.963,-0.698c9.858,-0.245 23.06,-2.069 27.127,10.389l0.403,2.886Z"/></clipPath><g clip-path="url(#_clip4)"><g id="css-sticker"><path d="M101.312,79.975c0,0 0.473,-9.549 1.138,-8.608c0.849,1.201 8.033,2.91 12.521,3.669c4.148,0.701 7.993,0.367 8.865,0.883c0.872,0.516 1.283,1.007 1.365,2.203c0.115,1.668 0.61,5.626 -0.248,7.559c-0.434,0.978 -2.772,1.11 -3.775,1.186c-1.984,0.15 -10.177,-0.595 -12.23,-1.069c-2.751,-0.635 -9.196,-2.041 -7.636,-5.823Z" style="fill:#82b7d1;"/><path d="M109.298,77.527c-0.467,-0.352 -1.075,-0.625 -1.663,-0.678c-0.56,-0.051 -1.101,0.087 -1.608,0.32c-0.891,0.409 -1.783,1.272 -1.887,2.291c-0.229,2.243 2.451,4.025 4.335,2.78" style="fill:none;stroke:#ecf4f8;stroke-width:1.5px;"/><path d="M115.9,78.421c-1.166,-1.035 -3.425,-1.789 -3.822,0.481c-0.129,0.738 0.564,1.129 1.126,1.339c1.05,0.391 2.133,0.444 2.326,1.824c0.128,0.913 -0.768,1.759 -1.612,1.802c-1.065,0.054 -2.155,-0.554 -2.777,-1.414" style="fill:none;stroke:#ecf4f8;stroke-width:1.5px;"/><path d="M121.676,78.891c-0.83,-0.94 -3.325,-1.254 -3.275,0.545c0.032,1.165 1.457,1.169 2.281,1.373c0.855,0.212 1.256,1.034 1.203,1.86c-0.141,2.182 -3.426,2.682 -3.891,0.44" style="fill:none;stroke:#ecf4f8;stroke-width:1.5px;"/></g></g><path d="M146.401,65.716c-0.363,3.439 -14.176,6.72 -21.907,6.21c-7.731,-0.51 -15.368,-1.539 -16.731,-2.731c-1.362,-1.192 0.408,-5.415 3.644,-6.914c3.235,-1.499 20.929,-3.58 26.914,-2.312c4.597,0.975 8.395,2.776 8.08,5.747Z" style="fill:#82b7d1;"/><clipPath id="_clip5"><path d="M146.401,65.716c-0.363,3.439 -14.176,6.72 -21.907,6.21c-7.731,-0.51 -15.368,-1.539 -16.731,-2.731c-1.362,-1.192 0.408,-5.415 3.644,-6.914c3.235,-1.499 20.929,-3.58 26.914,-2.312c4.597,0.975 8.395,2.776 8.08,5.747Z"/></clipPath><g clip-path="url(#_clip5)"><path d="M143.473,68.693c0,0 -8.931,-3.128 -15.955,-2.66c-7.025,0.467 -17.177,2.168 -18.317,4.297c-1.141,2.128 -0.068,4.749 -0.068,4.749l33.52,-1.58l0.82,-4.806Z" style="fill:#ff0078;"/></g><path d="M146.801,102.383c0.489,0.626 0.787,1.571 0.643,2.802c-0.212,1.817 -2.532,2.814 -4.03,1.883c-3.223,-2.004 -1.446,-7.093 2.11,-5.638c0,0 0.789,0.327 1.277,0.953Z" style="fill:#445;"/><path d="M128.441,103.187c4.294,1.8 1.77,7.777 -2.555,5.919c-3.928,-1.688 -1.812,-6.676 2.01,-6.032l0.545,0.113Z" style="fill:#445;"/><path d="M139.696,109.829c-1.071,2.471 -3.341,2.579 -5.379,1.048" style="fill:none;stroke:#445;stroke-width:2px;"/><path d="M122.891,69.113c0,0 -6.38,-22.537 -10.876,-24.546c-4.495,-2.009 -7.27,-1.312 -7.347,1.388c-0.077,2.7 8.465,19.192 9.896,21.405c1.43,2.214 2.419,2.438 2.614,2.647c0.868,0.93 6.633,0.353 5.713,-0.894Zm-11.788,-22.628c-1.082,-1.082 -2.506,-0.161 -1.961,1.116c0.545,1.277 1.901,4.864 2.808,3.687c0.906,-1.176 0.139,-3.818 -0.847,-4.803Z" style="fill:#445;"/></g><g id="html-file"><path d="M221.043,43.423c-1.445,-1.798 -3.247,-2.018 -3.697,-2.096c-8.749,-1.519 -21.1,0.088 -29.551,2.061c-4.221,0.984 -12.609,2.715 -16.182,5.519c-3.755,2.948 -0.745,22.751 -0.272,33.347c0.359,8.031 0.721,16.232 1.609,24.23c0.413,3.717 0.639,7.854 4.502,9.604c5.068,2.296 10.994,0.725 16.287,0.461c3.911,-0.195 28.311,-55.909 27.913,-56.253c-1.91,-1.656 2.529,-12.965 -0.609,-16.873Z" style="fill:#bad7e6;"/><path d="M223.599,46.859c-0.11,0 -7.591,-2.52 -9.497,-3.163c-0.293,-0.097 -0.601,-0.136 -0.908,-0.117c-2.079,0.138 -10.665,0.755 -18.042,1.931c-8.461,1.349 -21.983,5.71 -21.983,5.71c0,0 4.051,20.212 4.408,31.489c0.302,9.531 3.035,24.654 3.874,29.109c0.153,0.801 0.676,1.482 1.411,1.835c2.477,1.192 8.035,3.866 8.035,3.866c0,0 32.829,-70.66 32.702,-70.66Z" style="fill:#ecf4f8;"/><path d="M173.6,51.157l7.041,2.372c0,0 2.465,-1.546 0.538,-2.938c-2.383,-1.723 -7.579,0.566 -7.579,0.566Z" style="fill:#82b7d1;"/><path d="M187.859,50.7c2.572,-1.029 5.818,-1.304 8.184,-1.833c7.014,-1.568 14.581,-2.271 21.745,-2.781c5.926,-0.421 11.594,-1.751 12.231,3.659l0.057,1.82c1.108,13.853 2.866,27.698 3.36,41.593c0.173,4.851 1.437,12.073 -1.332,16.426c-3.391,5.329 -11.985,4.909 -17.652,6.108c-7.032,1.487 -18.963,3.139 -26.358,3.709c-5.346,0.413 -7.059,0.046 -11.572,-3.744c-4.229,-3.55 -4.997,-52.572 -4.997,-52.572l0.256,-14.208c0,0 1.611,4.719 16.078,1.823Z" style="fill:#bad7e6;"/><g id="sticker-couv"><path d="M224.114,55.65c0.32,2.258 0.778,6.881 1.201,10.326c0.112,0.914 0.628,3.028 -0.17,3.732c-0.658,0.582 -1.658,0.742 -2.497,0.862c-1.719,0.245 -3.468,0.306 -5.193,0.531c-5.522,0.721 -11.058,1.386 -16.598,1.941c-1.743,0.175 -4.879,0.871 -6.584,0.446c-1.434,-0.358 -1.241,-1.779 -1.531,-3.03c-0.655,-2.838 -0.646,-10.33 -0.469,-11.338c0.266,-1.523 1.64,-1.483 3.029,-1.673c1.362,-0.187 22.503,-2.664 23.996,-2.923c2.532,-0.44 4.497,-1.131 4.816,1.126Z" style="fill:#ecf4f8;"/><g id="html"><g id="h"><path d="M199.29,62.084c0.144,2.227 0.353,4.605 0.544,6.83" style="fill:none;stroke:#82b7d1;stroke-width:1.5px;"/><path d="M195.771,62.202c0.379,2.516 0.716,4.503 0.925,7.041" style="fill:none;stroke:#82b7d1;stroke-width:1.5px;"/><path d="M199.086,65.65c-0.793,0 -1.576,0.15 -2.367,0.198" style="fill:none;stroke:#82b7d1;stroke-width:1.5px;"/></g><g id="t"><path d="M206.793,61.121c-1.981,0.001 -3.338,0.139 -5.262,0.686" style="fill:none;stroke:#82b7d1;stroke-width:1.5px;"/><path d="M204.404,61.59c0,1.995 0.288,4.72 0.476,6.708" style="fill:none;stroke:#82b7d1;stroke-width:1.5px;"/></g><path id="m" d="M215.198,67.033c-0.178,-1.596 -0.216,-3.167 -0.565,-4.742c-0.041,-0.184 -0.395,-2.094 -0.603,-1.998c-0.823,0.379 -1.151,2.045 -1.382,2.859c-0.044,0.157 -0.169,1.13 -0.276,1.182c-0.009,0.004 -0.338,-1.039 -0.371,-1.154c-0.241,-0.826 -0.703,-1.459 -1.185,-2.182c-0.059,-0.088 -0.433,-0.672 -0.543,-0.652c-0.616,0.108 -0.81,0.984 -0.934,1.468c-0.434,1.705 -0.074,4.18 0.101,5.917" style="fill:none;stroke:#82b7d1;stroke-width:1.5px;"/><path id="l" d="M218.194,59.282c-0.255,2.147 -0.013,5.485 0.452,7.504c0.034,0.147 0.976,-0.026 1.101,-0.042c1.122,-0.143 2.163,-0.657 3.273,-0.84" style="fill:none;stroke:#82b7d1;stroke-width:1.5px;"/></g></g><g id="face"><path d="M223.605,97.323c0.687,0.603 1.445,1.376 1.485,2.732c0.075,2.552 -2.879,4.119 -5.051,2.95c-1.961,-1.055 -2.884,-4.355 -0.689,-5.722c1.231,-0.766 3.357,-0.748 4.255,0.04Z" style="fill:#445;"/><path d="M201.483,99.566c1.236,0.823 2.412,1.931 2.132,3.588c-0.399,2.359 -3.703,4.623 -5.849,2.934c-2.046,-1.61 -1.661,-5.482 0.696,-6.637c1.627,-0.797 3.021,0.115 3.021,0.115Z" style="fill:#445;"/><path d="M215.979,106.368c0.012,0.569 -0.11,1.183 -0.402,1.827c-0.898,1.981 -4.335,2.607 -6.07,0.908c-0.539,-0.527 -0.9,-1.136 -1.071,-1.78" style="fill:none;stroke:#445;stroke-width:2px;"/></g><path d="M172.694,79.957c1.865,1.357 3.606,1.338 5.981,0.538" style="fill:none;stroke:#82b7d1;stroke-width:1.5px;"/><path d="M171.753,62.22c0.307,-0.028 1.447,0.333 2.598,0.425c1.016,0.081 2.049,-0.111 2.393,-0.037c0.734,0.157 1.206,0.157 1.259,1.049c0.052,0.891 0.524,9.909 0.524,10.486c0,0.576 -0.315,0.524 -1.468,0.734c-1.153,0.209 -3.828,-0.693 -4.719,-0.892c-0.891,-0.199 -0.996,-1.101 -0.943,-1.835c0.052,-0.734 -0.42,-8.325 -0.42,-8.85c0,-0.524 0.2,-1.027 0.776,-1.08Z" style="fill:#ecf4f8;"/><path d="M170.954,56.014c1.732,1.51 4.009,1.62 6.4,1.44" style="fill:none;stroke:#82b7d1;stroke-width:1.5px;"/></g><g id="rays"><path d="M279.665,120.884c-1.642,0.849 -3.328,1.62 -5.011,2.386" style="fill:none;stroke:#ff0078;stroke-width:6.5px;"/><path d="M286.993,134.215c-10.444,9.19 -20.587,18.753 -31.326,27.601" style="fill:none;stroke:#ff0078;stroke-width:6.5px;"/><path d="M323.663,149.551c-6.903,14.721 -14.616,29.077 -21.502,43.774" style="fill:none;stroke:#ff0078;stroke-width:6.5px;"/><path d="M302.996,143.551c-1.059,1.261 -2.043,2.593 -3.08,3.874" style="fill:none;stroke:#ff0078;stroke-width:6.5px;"/><path d="M368.999,155.551c-3.829,21.68 -8.732,43.195 -14.422,64.467" style="fill:none;stroke:#ff0078;stroke-width:6.5px;"/><path d="M345.663,156.218c-2.367,7.332 -4.721,14.681 -7.512,21.864" style="fill:none;stroke:#ff0078;stroke-width:6.5px;"/><path d="M410.996,158.218c6.298,17.742 11.46,35.734 19.172,52.953" style="fill:none;stroke:#ff0078;stroke-width:6.5px;"/><path d="M390.996,159.551c0.732,4.023 1.443,8.049 2.168,12.073" style="fill:none;stroke:#ff0078;stroke-width:6.5px;"/><path d="M439.66,154.215c1.715,2.436 3.472,4.846 5.233,7.248" style="fill:none;stroke:#ff0078;stroke-width:6.5px;"/></g><path d="M360.325,107.773c0.001,-0.126 3.57,0.611 3.77,0.657c2.378,0.547 4.991,0.893 7.303,1.664" style="fill:none;stroke:#445;stroke-width:2px;"/></svg>