<?xml version="1.0" encoding="UTF-8" standalone="no"?><!DOCTYPE svg PUBLIC "-//W3C//DTD SVG 1.1//EN" "http://www.w3.org/Graphics/SVG/1.1/DTD/svg11.dtd"><svg width="100%" height="100%" viewBox="0 0 300 140" version="1.1" xmlns="http://www.w3.org/2000/svg" xmlns:xlink="http://www.w3.org/1999/xlink" xml:space="preserve" xmlns:serif="http://www.serif.com/" style="fill-rule:evenodd;clip-rule:evenodd;stroke-linecap:round;stroke-linejoin:round;stroke-miterlimit:1.5;"><rect id="browser-needing-a-picture" x="0" y="0" width="300" height="140" style="fill:none;"/><g id="browser"><path d="M33.457,23.784c13.642,-2.863 59.312,-3.35 88.042,-7.626c5.024,-0.748 10.086,-1.234 15.111,-1.976c6.055,-0.894 13.494,-2.3 19.255,0.574c3.998,1.994 6.425,6.111 8.317,9.869c4.155,8.248 17.077,45.283 20.313,55.113c1.382,4.198 5.514,14.445 3.918,18.84c-1.844,5.075 -8.249,5.413 -13.46,6.221c-4.209,0.652 -61.818,10.506 -86.746,13.4c-7.644,0.888 -15.238,1.652 -22.878,2.665c-17.198,2.28 -31.003,6.958 -34.286,-14.516c-1.638,-10.71 -11.249,-50.418 -13.208,-58.062c-1.007,-3.928 -2.306,-8.359 -1.332,-12.403c1.405,-5.841 3.312,-9.236 16.954,-12.099Z" style="fill:#bad7e6;"/><path d="M23.89,34.983c0.868,-2.551 5.038,-4.575 8.709,-2.624c3.756,1.997 3.799,4.682 2.336,7.21c-1.818,3.143 -6.429,3.83 -9.067,1.989c-2.639,-1.841 -2.846,-4.024 -1.978,-6.575Z" style="fill:#ecf4f8;"/><path d="M26.889,38.221c2.084,-0.899 4.144,-1.586 6.379,-2.066" style="fill:none;stroke:#82b7d1;stroke-width:2px;"/><path d="M27.523,35.308c0,0 -1.569,2.128 -1.101,3.025c0.467,0.897 2.846,1.57 2.846,1.57" style="fill:none;stroke:#82b7d1;stroke-width:2px;"/><path d="M39.817,32.952c0.314,2.89 0.429,5.763 2.796,6.757c3.831,1.61 11.043,0.111 15.743,-0.67c10.581,-1.756 21.125,-2.944 31.817,-4.016c12.405,-1.243 24.898,-2.397 37.294,-3.83c6.173,-0.713 12.253,-1.982 18.402,-2.846c2.317,-0.325 5.682,-0.389 6.908,-2.667c0.427,-0.793 0.582,-1.79 0.719,-2.66c1.461,-9.234 -13.106,-5.01 -18.397,-4.276c-13.461,1.868 -27.274,3.874 -40.789,5.333c-10.067,1.086 -19.873,1.637 -29.901,2.825c-5.807,0.687 -11.592,1.5 -17.386,2.242c-2.291,0.293 -7.65,-0.27 -7.206,3.808Z" style="fill:#ecf4f8;"/><path d="M24.486,52.786c0.679,4.841 1.963,8.828 3.531,15.088c2.693,10.747 4.258,21.158 6.929,31.913c1.356,5.458 2.228,15.511 8.453,17.777c3.02,1.099 6.423,0.038 9.489,-0.278c7.483,-0.77 14.546,-1.885 21.876,-3.635c9.855,-2.353 66.193,-9.13 76.834,-11.033c3.657,-0.654 10.716,-1.772 14.372,-2.458c8.285,-1.555 16.696,-1.313 16.726,-7.327c0.007,-1.467 -2.161,-9.267 -2.433,-10.702c-0.826,-4.365 -1.673,-7.526 -3.381,-11.588c-3.606,-8.576 -5.415,-16.144 -8.466,-24.92c-1.491,-4.288 -3.834,-12.321 -8.441,-14.465c-2.09,-0.973 -6.231,-0.211 -8.372,0.19c-5.187,0.973 -11.609,0.803 -16.834,1.831c-10.633,2.092 -19.765,3.437 -30.527,4.57c-7.464,0.786 -60.301,8.388 -67.178,8.765c-4.884,0.268 -13.258,1.431 -12.578,6.272Z" style="fill:#ecf4f8;"/><path d="M80.467,92.056c1.109,-2.287 6.629,-3.96 8.516,-1.266c1.887,2.694 2.076,4.974 0.377,6.632c-1.699,1.657 -5.286,2.694 -7.363,1.243c-2.077,-1.451 -2.64,-4.323 -1.53,-6.609Z" style="fill:#445;"/><path d="M131.153,84.016c2.233,-2.179 6.449,-2.011 7.69,0c1.242,2.011 1.747,4.284 -0.039,6.297c-1.916,2.161 -5.631,2.012 -7.379,0.335c-1.747,-1.676 -2.487,-4.471 -0.272,-6.632Z" style="fill:#445;"/><path d="M105.587,96.211c1.619,2.26 6.627,3.998 7.324,4.095c1.516,0.211 4.548,-4.979 4.654,-6.165" style="fill:none;stroke:#445;stroke-width:2px;"/></g><path d="M202.648,17.766c3.301,-4.415 8.372,-3.609 10.525,-0.797c2.153,2.811 1.387,7.629 -1.914,12.043c-2.349,3.331 -7.487,6.219 -11.673,8.023c-3.42,-3.013 -7.41,-7.351 -8.611,-11.246c-1.77,-5.221 -1.004,-10.038 1.914,-12.044c2.918,-2.006 7.989,-1.2 9.759,4.021Z" style="fill:#ff0078;"/><g id="polaroid"><path d="M222.067,100.868c0,0 11.894,-43.974 14.608,-45.107c0.658,-0.274 6.567,1.868 14.303,1.376c12.444,-0.792 29.129,-4.199 32.63,-3.921c1.551,0.124 4.444,0.001 5.431,1.537c1.145,1.781 0.217,4.664 -0.285,6.482c-1.488,5.385 -5.54,25.756 -7.079,31.385c-1.584,5.795 -1.17,12.185 -3.294,16.491c-0.759,1.539 -23.67,1.776 -27.371,1.584c-3.013,-0.155 -6,-0.565 -8.954,-1.184c-5.239,-1.099 -8.704,-2.521 -12.37,-3.079c-2.633,-0.401 -7.77,-0.542 -8.188,-1.178c-0.573,-0.873 0.422,-3.416 0.569,-4.386Z" style="fill:#ecf4f8;"/><clipPath id="_clip1"><path d="M222.067,100.868c0,0 11.894,-43.974 14.608,-45.107c0.658,-0.274 6.567,1.868 14.303,1.376c12.444,-0.792 29.129,-4.199 32.63,-3.921c1.551,0.124 4.444,0.001 5.431,1.537c1.145,1.781 0.217,4.664 -0.285,6.482c-1.488,5.385 -5.54,25.756 -7.079,31.385c-1.584,5.795 -1.17,12.185 -3.294,16.491c-0.759,1.539 -23.67,1.776 -27.371,1.584c-3.013,-0.155 -6,-0.565 -8.954,-1.184c-5.239,-1.099 -8.704,-2.521 -12.37,-3.079c-2.633,-0.401 -7.77,-0.542 -8.188,-1.178c-0.573,-0.873 0.422,-3.416 0.569,-4.386Z"/></clipPath><g clip-path="url(#_clip1)"><path d="M236.323,56.39c0,0 -3.905,10.707 -4.869,14.493c-0.965,3.785 -4.731,16.609 -5.151,18.217c-0.121,0.466 -0.524,1.316 -0.206,1.764c0.327,0.461 1.114,0.534 1.648,0.631c0.655,0.118 14.24,4.057 25.091,4.917c11.197,0.888 22.972,-1.22 26.202,-0.958c1.962,0.159 2.114,-2.7 2.678,-5.079c1.622,-6.845 7.938,-34.913 7.938,-34.913c0,0 -3.266,-2.565 -4.484,-2.407c-6.448,0.837 -23.033,3.534 -23.033,3.534l-25.814,-0.199Z" style="fill:#82b7d1;"/></g><path d="M222.067,100.868c0,0 11.894,-43.974 14.608,-45.107c0.658,-0.274 6.567,1.868 14.303,1.376c12.444,-0.792 29.129,-4.199 32.63,-3.921c1.551,0.124 4.444,0.001 5.431,1.537c1.145,1.781 0.217,4.664 -0.285,6.482c-1.488,5.385 -5.54,25.756 -7.079,31.385c-1.584,5.795 -1.17,12.185 -3.294,16.491c-0.759,1.539 -23.67,1.776 -27.371,1.584c-3.013,-0.155 -6,-0.565 -8.954,-1.184c-5.239,-1.099 -8.704,-2.521 -12.37,-3.079c-2.633,-0.401 -7.77,-0.542 -8.188,-1.178c-0.573,-0.873 0.422,-3.416 0.569,-4.386Z" style="fill:none;stroke:#bad7e6;stroke-width:2px;"/><path d="M242.175,79.168c-1.152,0.001 -2.25,-0.029 -3.608,1.121c-1.359,1.151 -1.009,3.864 1.495,5.09c3.76,1.842 6.715,-3.491 3.791,-5.632c0,0 -0.527,-0.579 -1.678,-0.579Z" style="fill:#445;"/><path d="M267.002,81.593c-1.057,-0.274 -2.061,0.025 -2.684,0.22c-2.283,0.713 -3.019,3.012 -1.529,4.803c2.906,3.494 8.368,-0.261 5.865,-4.06c0,0 -0.594,-0.688 -1.652,-0.963Z" style="fill:#445;"/><path d="M249.235,86.32c0.962,2.167 1.969,3.066 2.699,3.587c0.683,0.488 1.565,0.077 2.154,-0.268c1.396,-0.817 2.646,-1.93 3.507,-2.997" style="fill:none;stroke:#445;stroke-width:2px;"/></g></svg>