<?xml version="1.0" encoding="UTF-8" standalone="no"?><!DOCTYPE svg PUBLIC "-//W3C//DTD SVG 1.1//EN" "http://www.w3.org/Graphics/SVG/1.1/DTD/svg11.dtd"><svg width="100%" height="100%" viewBox="0 0 380 280" version="1.1" xmlns="http://www.w3.org/2000/svg" xmlns:xlink="http://www.w3.org/1999/xlink" xml:space="preserve" xmlns:serif="http://www.serif.com/" style="fill-rule:evenodd;clip-rule:evenodd;stroke-linecap:round;stroke-linejoin:round;stroke-miterlimit:1.5;"><rect id="head-and-body" x="0" y="0" width="380" height="280" style="fill:none;"/><g id="html-file"><path d="M134.506,191.67c-6.744,-1.185 -11.303,-6.938 -10.667,-11.846c2.943,-22.701 13.676,-75.572 13.599,-94.401c-0.095,-23.259 -9.581,-48.537 5.211,-51.416c2.855,-0.556 36.476,-5.975 44.064,-7.007c6.472,-0.882 19.634,-1.547 30.914,-1.353c9.519,0.165 25.277,26.211 25.887,31.223c1.6,13.149 1.676,15.325 1.417,28.545c-0.489,24.94 -7.099,104.588 -13.846,111.682c-7.295,7.669 -30.847,4.428 -42.102,3.386c-8.004,-0.741 -37.88,-5.896 -54.477,-8.813Z" style="fill:#bad7e6;"/><path d="M170.446,49.771c-13.143,-1.18 -14.92,14.804 -3.574,16.29c-1.607,2.604 -1.562,4.03 -1.659,4.681c-0.66,4.387 4.89,7.27 8.382,6.768c3.403,-0.489 8.457,-3.574 8.282,-5.662c4.02,6.351 12.417,5.46 16.993,3.675c2.747,-1.072 5.008,-3.591 5.352,-6.577c0.114,-0.993 -0.043,-2.248 -0.301,-3.512c1.437,0.645 3.446,0.442 3.938,0.325c2.612,-0.622 4.5,-3.152 5.123,-5.661c1.155,-4.651 -1.351,-11.377 -5.739,-13.368c-2.589,-1.175 -7.41,-0.859 -9.54,1.672c0.67,-3.81 -3.168,-7.86 -6.195,-8.191c-4.129,-0.452 -9.36,1.597 -10.232,5.248c-0.029,-0.789 -1.24,-4.323 -3.719,-4.799c-5.259,-1.01 -11.124,3.55 -7.111,9.111Z" style="fill:#ffe5f2;"/><path d="M149.322,89.304c2.63,-0.512 9.148,-1.074 11.828,-1.095c5.49,-0.044 7.892,0.271 13.38,0.748" style="fill:none;stroke:#445;stroke-width:2px;"/><path d="M193.213,87.128c16.255,-3.136 19.151,-2.207 28.774,-1.609" style="fill:none;stroke:#445;stroke-width:2px;"/><path d="M178.73,94.328c-0.099,1.834 -0.595,4.83 1.082,6.429c1.86,1.772 5.885,0.987 7.357,-0.991c1.027,-1.381 1.509,-4.155 0.839,-6.595" style="fill:none;stroke:#445;stroke-width:2px;"/><path d="M243.41,56.329c-10.651,-5.679 -23.296,-8.193 -26.373,-10.436c-3.078,-2.242 -5.11,-20.344 0.59,-20.246c9.519,0.165 25.336,25.652 25.783,30.682Z" style="fill:#ecf4f8;"/></g><g id="book"><path d="M17.095,251.993c2.737,-6.361 9.796,-23.814 13.008,-31.984c7.294,-18.551 27.701,-59.487 37.355,-76.956c6.153,-11.134 58.823,-12.396 69.186,-12.833c23.383,-0.984 22.159,3.943 26.006,3.914c3.846,-0.03 37.304,-8.265 64.578,-6.494c7.472,0.485 45.647,-1.242 51.46,4.573c6.789,6.792 0.948,21.798 -1.383,29.298c-3.881,12.486 -28.604,88.623 -30.78,94.804c-2.918,8.287 -7.065,9.381 -17.9,7.411c-20.806,-3.783 -54.979,-11.022 -76.176,-12.536c-2.659,-0.19 -3.521,-0.243 -5.715,0.98c-4.822,2.69 -11.045,5.678 -16.72,5.395c-5.425,-0.271 -10.737,-7.213 -15.415,-6.825c-6.604,0.548 -78.169,7.032 -87.209,7.03c-3.9,-0.001 -13.033,0.584 -10.295,-5.777Z" style="fill:#82b7d1;"/><path d="M32.927,250.187l-2.279,0.015c-4.118,0.464 -3.533,-3.14 -1.876,-6.782c4.902,-10.773 11.776,-25.487 17.121,-36.022c6.764,-13.334 13.616,-26.617 20.299,-39.996c3.915,-7.837 7.671,-17.635 14.509,-23.281c3.081,-2.545 31.292,-13.412 38.02,-15.867c7.484,-2.731 15.94,-5.953 23.981,-5.527c9.614,0.51 14.792,9.536 15.606,9.535c0.613,-0.001 3.141,-4.832 7.309,-7.586c4.167,-2.754 12.437,-4.534 16.536,-5.05c20.625,-2.596 34.479,4.923 53.819,8.265c6.56,1.133 20.54,4.563 26.813,6.923c2.37,0.892 5.425,1.587 7.285,3.486c2.412,2.462 -0.437,12.139 -1.216,14.876c-3.845,13.499 -21.389,70.97 -22.801,76.658c-1.16,4.675 -5.171,29.119 -17.96,25.655c-79.558,-21.545 -87.666,-11.048 -95.176,-11.02c-7.51,0.028 -5.55,-7.82 -99.99,5.718Z" style="fill:#ecf4f8;"/><clipPath id="_clip1"><path d="M32.927,250.187l-2.279,0.015c-4.118,0.464 -3.533,-3.14 -1.876,-6.782c4.902,-10.773 11.776,-25.487 17.121,-36.022c6.764,-13.334 13.616,-26.617 20.299,-39.996c3.915,-7.837 7.671,-17.635 14.509,-23.281c3.081,-2.545 31.292,-13.412 38.02,-15.867c7.484,-2.731 15.94,-5.953 23.981,-5.527c9.614,0.51 14.792,9.536 15.606,9.535c0.613,-0.001 3.141,-4.832 7.309,-7.586c4.167,-2.754 12.437,-4.534 16.536,-5.05c20.625,-2.596 34.479,4.923 53.819,8.265c6.56,1.133 20.54,4.563 26.813,6.923c2.37,0.892 5.425,1.587 7.285,3.486c2.412,2.462 -0.437,12.139 -1.216,14.876c-3.845,13.499 -21.389,70.97 -22.801,76.658c-1.16,4.675 -5.171,29.119 -17.96,25.655c-79.558,-21.545 -87.666,-11.048 -95.176,-11.02c-7.51,0.028 -5.55,-7.82 -99.99,5.718Z"/></clipPath><g clip-path="url(#_clip1)"><path d="M34.27,251.182c-3.595,-1.116 -0.895,-2.566 1.497,-3.966c7.954,-4.652 32.692,-14.775 40.434,-17.431c9.35,-3.209 28.628,-5.824 38.471,-5.261c12.072,0.691 16.565,6.902 19.033,7.197c2.487,0.296 9.413,-6.953 20.895,-6.868c23.584,0.175 86.729,23.529 79.549,31.41c-0.195,0.213 -0.086,13.051 -0.086,13.051l-199.793,-18.132Z" style="fill:#bad7e6;"/></g><g id="wolf-story"><path d="M165.308,150.398c-2.205,1.353 -3.785,7.457 0.268,7.457c2.168,0 1.902,-2.117 2.145,-2.978c0.559,0.578 1.622,3.096 3.859,2.282c3.318,-1.207 1.706,-5.199 -0.907,-7.428" style="fill:none;stroke:#445;stroke-width:2px;"/><path d="M244.559,167.161c-0.219,0.427 -0.207,1.004 -0.175,1.465c0.126,1.825 1.39,3.227 3.286,3.245c1.362,0.013 3.043,-1.038 2.938,-2.584" style="fill:none;stroke:#445;stroke-width:2px;"/><path d="M246.46,171.808c-0.571,1.115 -0.703,2.507 -1.137,3.691" style="fill:none;stroke:#445;stroke-width:2px;"/><path d="M183.158,151.125c-0.701,-1.265 -3.526,-2.687 -5.495,-0.666c-2.154,2.209 -0.867,6.769 2.864,6.846c3.344,0.068 3.882,-3.925 2.631,-6.18Z" style="fill:none;stroke:#445;stroke-width:2px;"/><path d="M188.861,151.034c-0.306,1.128 -1.996,6.607 -1.593,7.095c0.336,0.406 3.129,1.018 3.607,1.178" style="fill:none;stroke:#445;stroke-width:2px;"/><path d="M194.543,159.893c-0.169,-2.515 0.004,-5.445 1.636,-6.764c1.633,-1.319 4.039,-0.524 4.659,1.348" style="fill:none;stroke:#445;stroke-width:2px;"/><path d="M195.527,156.552c0.023,-0.045 1.454,0.536 1.949,0.738" style="fill:none;stroke:#445;stroke-width:2px;"/><path d="M214.587,157.733c-0.002,0.005 -0.566,-0.373 -0.594,-0.392c-0.412,-0.271 -0.853,-0.508 -1.314,-0.683c-1.092,-0.414 -3.049,-0.443 -3.33,1.108c-0.134,0.743 0.382,1.438 0.929,1.849c1.071,0.803 2.461,1.017 3.537,1.805c0.817,0.599 1.209,1.9 0.476,2.767c-0.469,0.554 -1.265,0.592 -1.907,0.439c-1.225,-0.291 -2.416,-0.961 -3.3,-1.865c-0.34,-0.348 -0.74,-0.765 -0.923,-1.232" style="fill:none;stroke:#445;stroke-width:2px;"/><path d="M217.106,159.247c0.007,-0.015 1.509,0.445 2.023,0.615c1.731,0.573 3.437,1.161 5.181,1.658" style="fill:none;stroke:#445;stroke-width:2px;"/><path d="M220.281,160.788c-0.246,0.43 -1.234,5.044 -1.93,6.565" style="fill:none;stroke:#445;stroke-width:2px;"/><path d="M229.632,163.063c-1.859,-0.395 -2.773,0.314 -3.317,0.74c-1.759,1.378 -2.841,4.063 -0.712,5.662c0.311,0.234 0.663,0.412 1.032,0.536c1.525,0.514 3.873,0.264 4.766,-1.268c1.102,-1.893 0.24,-5.244 -1.769,-5.67Z" style="fill:none;stroke:#445;stroke-width:2px;"/><path d="M234.417,172.021c0.322,-0.706 0.981,-7.344 3.274,-6.806c0.928,0.218 3.68,0.615 2.816,3.023c-0.864,2.408 -4.407,0.684 -4.408,0.773c-0.002,0.163 2.422,4.144 2.796,4.555" style="fill:none;stroke:#445;stroke-width:2px;"/></g><path d="M211.121,194.813c0.816,-0.043 2.921,0.333 3.702,1.444c0.499,0.71 0.712,1.613 0.504,2.453c-0.151,0.613 -0.49,1.149 -0.949,1.582c-3.401,3.205 -9.118,-3 -4.715,-5.115c0.451,-0.216 0.959,-0.337 1.458,-0.364Z" style="fill:#82b7d1;"/><path d="M214.813,217.854c-0.304,0.469 -0.606,0.939 -0.923,1.4c-0.894,1.302 -1.841,2.619 -2.897,3.797c-0.248,0.277 -0.901,1.052 -1.364,0.759c-0.406,-0.257 -0.42,-1.044 -0.463,-1.453c-0.159,-1.493 -0.068,-3.027 -0.057,-4.525c0.001,-0.08 0.028,-0.347 0.046,-0.655" style="fill:none;stroke:#82b7d1;stroke-width:2px;"/><path d="M208.157,217.092c-0.177,0.326 -0.319,0.609 -0.352,0.664c-0.914,1.491 -1.971,2.962 -3.126,4.277c-0.21,0.239 -0.87,1.111 -1.29,0.869c-0.529,-0.305 -0.386,-1.622 -0.384,-2.096c0.004,-0.689 0.03,-1.376 0.063,-2.064c0.049,-1.011 0.006,-1.634 0.07,-2.644" style="fill:none;stroke:#82b7d1;stroke-width:2px;"/><path d="M160.294,210.368c2.417,0.701 27.195,3.659 37.314,4.85c6.204,0.731 12.358,1.956 18.573,2.569c1.542,0.152 5.336,0.816 5.905,-1.438c0.487,-1.93 -3.348,-4.954 -4.481,-5.979c-5.78,-5.232 -13.122,-9.318 -19.755,-13.379c-2.073,-1.268 -4.107,-2.61 -6.125,-3.962c-0.027,-0.019 -0.552,-0.338 -1.435,-0.861c0.975,-3.022 2.122,-6.005 2.948,-9.085c0.204,-0.761 1.303,-3.476 0.4,-4.158c-0.927,-0.7 -3.158,1.713 -3.659,2.185c-2.331,2.194 -4.346,4.729 -6.275,7.277c-0.676,-0.376 -1.373,-0.759 -2.081,-1.143c0.004,-1.169 -0.005,-2.339 -0.026,-3.506c-0.047,-2.598 -0.192,-5.246 -0.644,-7.811c-0.123,-0.695 -0.234,-2.295 -0.992,-2.677c-0.973,-0.49 -2.648,2.595 -3.001,3.126c-1.403,2.115 -2.783,4.29 -3.984,6.541c-1.795,-0.789 -3.384,-1.383 -4.57,-1.644" style="fill:none;stroke:#82b7d1;stroke-width:2px;"/><path d="M196.46,201.247c0,0 3.187,0.056 3.869,2.58c0.619,2.287 -1.166,4.96 -3.697,4.655c-3.856,-0.466 -4.275,-6.761 -0.172,-7.235Z" style="fill:#82b7d1;"/></g><path d="M76.783,59.496c15.075,-7.608 33.6,-14.46 50.09,-7.983" style="fill:none;stroke:#ff0078;stroke-width:2px;"/><path d="M216.113,65.161c17.612,4.404 35.424,2.965 51.614,-3.207" style="fill:none;stroke:#ff0078;stroke-width:2px;"/><g id="body-arrow"><path d="M241.119,192.83c24.795,0 50.258,-8.515 67.203,-27.379" style="fill:none;stroke:#ff0078;stroke-width:2px;"/><path d="M247.173,188.444c-1.986,0.806 -5.336,2.013 -6.168,2.937c-1.797,1.995 4.222,5.567 5.405,6.921" style="fill:none;stroke:#ff0078;stroke-width:2px;"/></g><path d="M125.131,46.397c3.063,2.573 6.569,6.251 -3.48,8.905" style="fill:none;stroke:#ff0078;stroke-width:2px;"/><path d="M220.568,61.599c-1.844,0.881 -4.512,2.309 -4.92,2.854c-1.272,1.698 2.839,5.005 3.834,6.111" style="fill:none;stroke:#ff0078;stroke-width:2px;"/><g id="html"><path d="M31.829,61.598c0.278,1.595 0.672,4.3 0.949,5.896c0.156,0.898 0.401,2.911 0.793,4.101" style="fill:none;stroke:#ff0078;stroke-width:2px;"/><path d="M38.28,60.948c0,2.29 0.637,8.763 1.039,9.793" style="fill:none;stroke:#ff0078;stroke-width:2px;"/><path d="M32.774,66.712c1.774,-0.366 3.6,-0.981 5.463,-0.641" style="fill:none;stroke:#ff0078;stroke-width:2px;"/><path d="M41.37,60.975c2.096,0.142 2.904,-0.121 3.795,-0.171c1.65,-0.092 3.361,-0.415 5.05,-0.498" style="fill:none;stroke:#ff0078;stroke-width:2px;"/><path d="M45.579,60.834c0.208,1.779 0.423,4.474 0.605,6.256c0.064,0.623 0.141,2.275 0.234,3.267" style="fill:none;stroke:#ff0078;stroke-width:2px;"/><path d="M54.266,69.97c-0.964,-1.923 -1.485,-4.688 -1.318,-6.807c0.072,-0.92 0.323,-2.019 1.099,-2.611c1.329,-1.017 2.619,0.251 3.223,1.405c0.071,0.135 0.215,0.991 0.324,1.045c0.025,0.013 0.173,-0.44 0.182,-0.462c0.119,-0.284 0.269,-0.561 0.441,-0.816c0.521,-0.771 1.467,-1.718 2.442,-1.837c1.362,-0.167 1.816,1.305 2.028,2.371c0.321,1.61 0.208,3.425 -0.258,4.998c-0.197,0.665 -0.364,1.34 -0.83,1.947" style="fill:none;stroke:#ff0078;stroke-width:2px;"/><path d="M66.537,60.01c-0.201,1.542 -0.014,9.004 0.331,9.358c0.314,0.322 3.942,-0.287 5.868,0.16" style="fill:none;stroke:#ff0078;stroke-width:2px;"/></g><g id="head"><path d="M274.524,50.656c-0.081,0.68 0.334,5.256 0.452,7.014c0.055,0.821 0.097,1.645 0.108,2.467c0.004,0.28 0.016,0.559 0.026,0.838c0.005,0.149 0.019,0.595 0.036,0.447" style="fill:none;stroke:#ff0078;stroke-width:2px;"/><path d="M282.646,50.482c-0.314,2.663 -0.001,9.664 -0.12,10.667" style="fill:none;stroke:#ff0078;stroke-width:2px;"/><path d="M275.253,56.371c0.002,-0.269 6.513,-0.47 6.801,-0.378" style="fill:none;stroke:#ff0078;stroke-width:2px;"/><path d="M293.118,50.725c-1.525,-0.12 -3.052,0.433 -3.689,0.789c-1.996,1.118 -3.133,3.004 -3.236,5.164c-0.203,4.305 5.021,5.009 8.374,3.473" style="fill:none;stroke:#ff0078;stroke-width:2px;"/><path d="M286.468,56.263c1.795,0.125 3.572,-0.221 5.342,-0.097" style="fill:none;stroke:#ff0078;stroke-width:2px;"/><path d="M297.759,60.198c-0.078,-0.619 0.005,-1.393 0.005,-1.75c0,-2.225 0.195,-5.293 2.078,-6.9c1.592,-1.359 3.885,-0.464 4.46,1.383c0.279,0.897 0.982,6.144 0.977,7.504" style="fill:none;stroke:#ff0078;stroke-width:2px;"/><path d="M298.057,56.498c-0.009,-0.089 4.682,-0.628 6.154,-0.437" style="fill:none;stroke:#ff0078;stroke-width:2px;"/><path d="M308.926,60.137c0.216,-2.091 -0.345,-8.516 0.053,-9.082c0.34,-0.483 1.275,-0.493 1.785,-0.408c4.339,0.731 7.261,4.179 5.621,7.868c-1.113,2.502 -7.459,1.622 -7.459,1.622Z" style="fill:none;stroke:#ff0078;stroke-width:2px;"/></g><g id="body"><path d="M317.258,162.284c-1.461,0.231 -5.772,0.038 -5.791,-0.087c-0.058,-0.374 -0.207,-2.022 -0.271,-2.395c-0.185,-1.076 -0.354,-2.174 -0.358,-3.258c-0.005,-1.259 0.12,-2.7 0.88,-3.796c1.118,-1.613 3.9,-2.185 5.879,-1.37c1.398,0.576 1.723,2.308 0.856,3.294c-0.517,0.587 -1.332,0.942 -2.111,1.223c-0.48,0.173 -0.975,0.292 -1.479,0.409c-0.029,0.007 -0.421,0.068 -0.434,0.038c-0.005,-0.011 0.356,-0.043 0.372,-0.045c0.433,-0.032 0.862,-0.069 1.3,-0.058c1.26,0.032 2.43,0.31 3.221,1.218c0.852,0.978 1.333,2.692 0.437,3.734c-0.568,0.662 -1.583,0.948 -2.501,1.093Z" style="fill:none;stroke:#ff0078;stroke-width:2px;"/><path d="M327.976,151.19c-1.646,0.081 -3.626,1.806 -4.351,3.257c-1.643,3.288 0.757,7.297 5.124,7.407c2.51,0.063 4.327,-1.704 4.96,-3.647c1.032,-3.164 -0.766,-7.263 -5.733,-7.017Z" style="fill:none;stroke:#ff0078;stroke-width:2px;"/><path d="M337.541,151.068c0,-0.274 0.051,0.914 0.057,1.023c0.04,0.791 0.077,1.582 0.102,2.374c0.055,1.721 0.03,3.445 0.103,5.164c0.025,0.598 -0.092,1.513 0.122,2.074c0.161,0.421 5.828,0.724 7.274,-0.444c1.636,-1.322 2.185,-6.829 -1.271,-9.163c-1.716,-1.158 -6.387,-1.028 -6.387,-1.028Z" style="fill:none;stroke:#ff0078;stroke-width:2px;"/><path d="M349.866,151.318c0,1.373 0.122,3.045 1.023,4.116c1.758,2.091 5.429,1.776 6.838,-0.55c0.624,-1.03 0.658,-2.626 0.345,-3.879" style="fill:none;stroke:#ff0078;stroke-width:2px;"/><path d="M354.276,156.904c-0.006,1.427 -0.018,2.227 0.175,3.664c0.047,0.353 0.1,0.704 0.142,1.058c0.002,0.016 0.015,0.268 0.04,0.268" style="fill:none;stroke:#ff0078;stroke-width:2px;"/></g></svg>