<?xml version="1.0" encoding="UTF-8" standalone="no"?><!DOCTYPE svg PUBLIC "-//W3C//DTD SVG 1.1//EN" "http://www.w3.org/Graphics/SVG/1.1/DTD/svg11.dtd"><svg width="100%" height="100%" viewBox="0 0 270 180" version="1.1" xmlns="http://www.w3.org/2000/svg" xmlns:xlink="http://www.w3.org/1999/xlink" xml:space="preserve" xmlns:serif="http://www.serif.com/" style="fill-rule:evenodd;clip-rule:evenodd;stroke-linecap:round;stroke-linejoin:round;stroke-miterlimit:1.5;"><rect id="intertwined-apple" x="0" y="0" width="270" height="180" style="fill:none;"/><path id="basket-back" d="M127.665,72.062c-48.002,-1.42 -91.097,12.156 -91.848,12.45c-4.976,1.943 -14.763,5.955 -13.63,12.981c0.883,5.472 8.533,7.623 10.589,12.457c0.497,1.169 29.918,14.775 66.741,18.919c50.733,5.71 125.814,-16.516 130.203,-23.354c9.506,-14.809 -2.885,-22.343 -15.144,-24.982c0,0 -38.908,-7.051 -86.911,-8.471Z" style="fill:#82b7d1;"/><path d="M209.925,137.752c0,0 7.494,-0.138 16.627,-4.836c9.133,-4.699 21.268,-21.109 18.916,-36.875c-0.843,-5.657 -3.493,-10.79 -8.767,-13.471c-8.472,-4.306 -17.254,-1.027 -25.958,-3.214c-4.791,-1.204 -8.068,-6.021 -11.861,-8.883c-6.312,-4.763 -17.661,-5.304 -24.649,-2.055c-12.7,5.906 -15.524,23.236 -13.191,35.361c3.294,17.123 16.973,26.611 32.829,31.377c4.677,1.406 11.066,3.396 16.054,2.596Z" style="fill:#ff0078;"/><g id="basket-front"><path d="M227.204,85.628c7.878,4.694 13.502,11.598 9.184,17.888c-4.599,6.699 -6.061,3.52 -10.878,10.186c-7.769,10.753 -6.756,23.374 -18.55,30.489c-9.998,6.032 -35.636,12.551 -46.967,14.362c-26.51,4.237 -54.461,2.414 -80.613,-3.435c-12.641,-2.827 -25.086,-6.421 -34.498,-15.825c-5.533,-5.529 -8.696,-12.62 -10.45,-20.157c-0.68,-2.924 -0.474,-6.407 -1.656,-9.186c-2.056,-4.834 -9.706,-6.985 -10.589,-12.457c-0.934,-5.79 5.548,-9.533 10.668,-11.726c0.39,0.031 0.78,0.115 1.164,0.253c2.181,0.782 -1.997,1.798 -4.063,5.992c-2.067,4.193 10.629,11.021 12.048,11.83c10.637,6.061 23.063,8.752 34.917,11.335c38.796,8.457 79.068,6.253 117.145,-4.229c8.997,-2.477 37.291,-11.401 35.036,-16.742c-2.255,-5.341 -10.513,-6.107 -6.664,-8.318c0.955,-0.548 2.696,-0.558 4.766,-0.26Z" style="fill:#bad7e6;"/><path d="M124.009,154.178c0.282,-10.976 8.674,-9.907 9.088,-0.28" style="fill:none;stroke:#445;stroke-width:2px;"/><path d="M100.586,138.727c0,0 2.74,1.933 3.375,2.387c2.789,1.992 6.065,5.047 9.379,6.153" style="fill:none;stroke:#445;stroke-width:2px;"/><path d="M110.387,138.527c0,0 -0.785,1.327 -1.021,1.7c-1.079,1.706 -2.236,3.369 -3.407,5.013c-0.49,0.688 -0.994,1.367 -1.486,2.053c-0.268,0.373 -0.86,1.074 -0.86,1.074" style="fill:none;stroke:#445;stroke-width:2px;"/><path d="M145.586,136.327c0,0 2.443,2.294 2.895,2.673c2.046,1.722 4.19,3.311 6.413,4.794c0.911,0.607 3.026,1.813 3.026,1.813" style="fill:none;stroke:#445;stroke-width:2px;"/><path d="M156.386,135.926c-2.619,2.619 -10.32,11.181 -10.32,11.181" style="fill:none;stroke:#445;stroke-width:2px;"/></g><g id="right-apple"><path d="M164.432,113.553c-1.557,-2.941 -2.701,-6.19 -3.39,-9.774c-2.333,-12.125 0.491,-29.455 13.191,-35.361c6.988,-3.249 18.337,-2.708 24.649,2.055c3.793,2.862 7.07,7.679 11.861,8.883c8.704,2.187 17.486,-1.092 25.958,3.214c5.274,2.681 7.924,7.814 8.767,13.471c2.352,15.766 -9.783,32.176 -18.916,36.875c-9.133,4.698 -16.627,4.836 -16.627,4.836c-4.199,0.673 -9.391,-0.63 -13.703,-1.905c10.403,-8.789 6.841,-16.109 14.796,-20.215c9.482,-4.895 5.849,-9.099 -0.127,-9.252c-5.435,-0.139 -35.891,9.12 -35.891,9.12l-10.568,-1.947Z" style="fill:#ff0078;"/><path d="M211.71,79.847c1.637,-3.11 4.721,-5.988 7.112,-8.498c1.709,-1.793 3.561,-3.456 5.598,-4.869c2.133,-1.481 5.389,-3.462 8.078,-2.32c1.125,0.477 3.356,1.87 2.672,3.366c-2.05,4.475 -10.191,7.493 -14.284,9.524c-0.32,0.159 -8.293,4.338 -9.18,4.17c-0.887,-0.168 0.004,-1.373 0.004,-1.373Z" style="fill:#445;"/><path d="M201.661,88.388c0,0 1.404,1.954 1.738,2.41c1.551,2.122 3.104,4.221 4.959,6.076" style="fill:none;stroke:#445;stroke-width:2px;"/><path d="M200.534,95.761c0.147,0 0.555,-0.388 0.673,-0.464c0.692,-0.448 1.359,-0.931 2.032,-1.406c2.368,-1.673 4.702,-3.399 7.085,-5.049" style="fill:none;stroke:#445;stroke-width:2px;"/><path d="M227.159,93.815c2.384,2.384 4.718,4.977 7.512,6.899" style="fill:none;stroke:#445;stroke-width:2px;"/><path d="M234.224,94.532c-1.774,1.773 -6.537,6.3 -7.527,7.455" style="fill:none;stroke:#445;stroke-width:2px;"/><path d="M211.417,100.353c0,0 1.153,-1.044 1.279,-1.164c0.605,-0.578 1.963,-1.846 2.87,-1.14c0.71,0.552 0.59,2.079 0.656,2.871c0.024,0.296 0.032,1.092 0.456,1.142c0.355,0.042 2.29,-1.497 2.998,-2.135c0.308,-0.278 0.919,-0.832 1.362,-0.494c0.389,0.297 0.405,1.023 0.423,1.459c0.055,1.38 -0.147,2.297 -0.409,3.65" style="fill:none;stroke:#445;stroke-width:2px;"/></g><path d="M98.476,28.584c-6.067,-2.694 -9.815,1.105 -10.647,2.53c-2.585,4.426 -2.786,10.739 3.386,12.119c9.773,2.184 13.329,-11.954 7.261,-14.649Z" style="fill:none;stroke:#ff0078;stroke-width:2px;"/><path d="M105.933,27.86c0,4.694 1.953,10.092 3.041,14.664" style="fill:none;stroke:#ff0078;stroke-width:2px;"/><path d="M115.89,27.532c-0.017,-0.017 -0.023,1.482 -0.013,1.627c0.082,1.166 0.186,2.332 0.32,3.493c0.385,3.346 0.976,6.634 1.56,9.947" style="fill:none;stroke:#ff0078;stroke-width:2px;"/><path d="M107.725,35.921c0,-0.109 1.991,-0.12 2.135,-0.132c2.185,-0.182 4.375,-0.276 6.561,-0.426" style="fill:none;stroke:#ff0078;stroke-width:2px;"/><path d="M132.203,41.902c-0.159,-2.849 -0.485,-8.329 -0.551,-11.181c-0.01,-0.456 -0.249,-3.551 0.667,-3.48c1.122,0.086 2.236,2.603 2.708,3.386c1.623,2.696 8.904,18.515 9.799,8.667c0.087,-0.963 0.178,-10.339 0.522,-12.746" style="fill:none;stroke:#ff0078;stroke-width:2px;"/><path d="M155.179,41.776c2.451,0.593 10.586,-0.287 6.724,-9.91c-0.485,-1.21 -1.261,-2.34 -2.256,-3.188c-8.265,-7.048 -14.985,10.554 -4.468,13.098Z" style="fill:none;stroke:#ff0078;stroke-width:2px;"/><path d="M170.351,26.894c0,3.574 -1.2,7.47 -1.787,10.987" style="fill:none;stroke:#ff0078;stroke-width:2px;"/><path d="M167.985,41.282l-0.154,0.673" style="fill:none;stroke:#ff0078;stroke-width:2px;"/></svg>