<?xml version="1.0" encoding="UTF-8" standalone="no"?><!DOCTYPE svg PUBLIC "-//W3C//DTD SVG 1.1//EN" "http://www.w3.org/Graphics/SVG/1.1/DTD/svg11.dtd"><svg width="100%" height="100%" viewBox="0 0 500 170" version="1.1" xmlns="http://www.w3.org/2000/svg" xmlns:xlink="http://www.w3.org/1999/xlink" xml:space="preserve" xmlns:serif="http://www.serif.com/" style="fill-rule:evenodd;clip-rule:evenodd;stroke-linecap:round;stroke-linejoin:round;stroke-miterlimit:1.5;"><rect id="toys" x="0" y="0" width="500" height="170" style="fill:none;"/><path d="M54.024,150.12c0,0 -0.772,1.203 -0.927,1.841c-0.296,1.223 -0.183,2.05 0.01,2.245c0.537,0.542 9.051,0.626 11.427,-0.203c2.299,-0.801 0.15,-1.497 -1.501,-2.013c-0.636,-0.199 -7.473,-2.453 -9.009,-1.87Z" style="fill:#445;"/><path d="M70.183,151.755c-0.346,1.21 0.145,2.169 0.454,2.331c0.812,0.424 16.38,0.142 9.799,-2.401c-0.882,-0.34 -7.391,-2.256 -8.843,-1.927c0,0 -0.901,0.22 -1.41,1.997Z" style="fill:#445;"/><path d="M96.199,121.457c0.079,0 0.14,0.369 0.15,0.415c0.099,0.495 0.101,0.966 -0.063,1.449c-0.318,0.941 -1.43,1.292 -2.348,1.293c0,0 -2.59,-0.395 -2.777,-3.133" style="fill:none;stroke:#ffe5f2;stroke-width:2px;"/><path d="M56.974,140.266c0.088,4.255 -0.659,7.895 -1.262,10.403" style="fill:none;stroke:#ffe5f2;stroke-width:2px;"/><path d="M72.489,140.843c0.842,3.607 0.735,6.94 0.506,9.376" style="fill:none;stroke:#ffe5f2;stroke-width:2px;"/><path d="M78.86,120.52c-0.438,0 0.257,1.86 0.317,2.018c0.642,1.702 1.745,3.077 3.296,4.036c3.31,2.046 7.093,-0.034 9.282,-2.718" style="fill:none;stroke:#ffe5f2;stroke-width:2px;"/><path d="M54.116,103.172c0.24,0 -0.006,2.074 -0.019,2.217c-0.202,2.284 -0.461,4.563 -0.763,6.837c-0.928,6.976 -2.2,13.918 -3.477,20.844c-0.529,2.874 -1.667,6.668 2.433,7.287c6.8,1.027 14.222,0.72 21.073,0.317c1.657,-0.097 5.854,0.042 6.756,-1.751c1.181,-2.345 0.509,-6.247 0.426,-8.721c-0.256,-7.591 -1.325,-15.124 -3.016,-22.545c-0.16,-0.702 -0.329,-1.404 -0.515,-2.101c-0.144,-0.545 -0.284,-1.098 -0.461,-1.634c-0.068,-0.206 -1.88,-5.52 -2.394,-5.52" style="fill:#ff0078;"/><path d="M56.638,123.408c0,0 -1.803,4.39 -1.12,7.81" style="fill:none;stroke:#ffe5f2;stroke-width:2px;"/><path d="M52.003,135.392c0,0 0.275,-2.315 1.811,-3.33c3.144,-2.078 4.514,1.751 4.513,3.9" style="fill:none;stroke:#ffe5f2;stroke-width:2px;"/><g id="dinosaur"><path d="M426.712,145.183c-0.001,-0.067 -1.117,0.868 -1.188,0.952c-0.697,0.825 -1.204,1.807 -1.388,2.875c-0.205,1.19 0.054,2.505 0.619,3.569c0.185,0.35 0.415,0.659 0.656,0.971c0.004,0.006 0.412,0.41 0.379,0.444c-0.28,0.277 -1.955,-0.036 -2.303,-0.05c-0.506,-0.02 -1.013,-0.03 -1.517,-0.072c-0.341,-0.028 -1.777,0.15 -2.063,-0.079c-0.116,-0.093 0.268,-0.411 0.312,-0.444c0.435,-0.327 0.978,-0.585 1.502,-0.728c1.33,-0.363 2.327,0.155 3.31,0.974" style="fill:none;stroke:#82b7d1;stroke-width:2px;"/><path d="M452.606,144.993c-1.366,1.556 -1.891,4.45 -1.327,6.537c0.166,0.613 0.503,1.237 0.98,1.666c0.173,0.156 0.363,0.283 0.56,0.407c0.026,0.016 0.327,0.167 0.303,0.2c-0.278,0.364 -1.857,0.182 -2.237,0.191c-0.514,0.012 -1.031,0.004 -1.545,0.007c-0.262,0.001 -0.523,0.007 -0.784,0.006c-0.048,0 -1.153,0.016 -1.158,-0.019c-0.033,-0.262 1.312,-0.658 1.452,-0.698c0.899,-0.252 1.815,-0.141 2.556,0.424" style="fill:none;stroke:#82b7d1;stroke-width:2px;"/><path d="M417.21,121.859c0,0 -0.714,-1.853 -2.993,-2.384c-2.278,-0.531 -5.588,1.363 -6.934,3.567" style="fill:none;stroke:#82b7d1;stroke-width:2px;"/><path d="M401.19,125.835c0,0 2.557,-4.874 5.648,-2.905c2.162,1.377 1.543,5.029 -0.262,6.091" style="fill:none;stroke:#82b7d1;stroke-width:2px;"/><path d="M398.247,57.52c-0.636,-0.637 -0.555,-2.417 -0.564,-3.2c-0.037,-3.204 1.144,-7.459 5.063,-7.413c2.783,0.033 5.107,1.973 6.392,4.31c0.469,0.852 0.8,1.776 1.124,2.69c0.151,0.426 0.053,1.623 0.372,1.303c0.4,-0.399 0.428,-2.416 0.594,-2.979c0.828,-2.815 2.827,-7.497 6.49,-7.097c2.742,0.3 4.789,3.474 5.731,5.794c0.098,0.242 0.772,3.385 0.875,3.4c0.338,0.048 1.739,-3.355 1.904,-3.656c1.646,-2.994 5.46,-8.002 9.38,-5.062c2.087,1.566 1.851,4.834 1.054,7.014c-0.188,0.515 -1.077,1.559 -1.069,2.069c0.003,0.159 0.239,-0.211 0.352,-0.324c0.276,-0.275 0.522,-0.583 0.787,-0.869c0.671,-0.727 1.382,-1.416 2.124,-2.069c2.287,-2.012 4.931,-3.355 8.048,-3.076c3.862,0.346 4.26,3.536 2.923,6.655c-0.315,0.737 -0.726,1.417 -1.2,2.062c-0.224,0.305 -1.001,0.755 -0.661,0.924c0.128,0.065 0.742,-0.523 0.828,-0.593c0.826,-0.668 1.735,-1.253 2.669,-1.758c2.634,-1.425 6.485,-2.299 9.027,-0.179c2.62,2.183 2.079,7.236 -0.173,9.489c-1.077,1.077 -2.983,2.295 -2.64,2.104c0.638,-0.358 1.329,-0.664 2.007,-0.938c2.07,-0.839 5.812,-1.918 6.882,0.972c1.336,3.611 -1.445,8.449 -4.091,10.717c-0.883,0.756 -1.875,1.396 -2.876,1.986c-0.159,0.094 -0.95,0.397 -0.985,0.614c-0.005,0.028 0.865,0.093 0.931,0.104c0.58,0.099 1.137,0.272 1.697,0.448c1.778,0.56 2.848,1.474 2.937,3.407c0.095,2.036 -1.832,5.829 -4.289,5.848c-0.312,0.003 0.625,0.019 0.931,0.076c0.656,0.123 1.306,0.276 1.932,0.51c1.96,0.735 4.44,2.137 4.654,4.462c0.206,2.235 -1.576,4.636 -3.352,5.821c-0.388,0.258 -2.166,0.924 -2.331,1.338c-0.018,0.046 2.104,0.421 2.27,0.469c1.509,0.436 2.634,1.225 3.054,2.793c0.913,3.403 -2.613,7.242 -5.779,7.242l-63.022,-55.408Z" style="fill:#82b7d1;"/><path d="M386.202,61.881c-0.208,6.229 -1.272,17.066 -0.482,25.621c0.35,3.796 0.803,8.151 4.759,9.896c7.554,3.332 19.234,-2.746 26.794,-4.121c1.201,-0.218 8.193,-2.741 8.878,-0.344c2.308,8.08 -10.881,2.042 -10.466,6.793c0.352,4.036 9.93,2.104 13.054,0.932c0.635,-0.238 3.757,-2.497 3.654,-0.965c-0.572,8.546 -17.284,19.614 -21.243,26.773c-2.026,3.664 -4.446,8.075 -1.671,11.984c3.159,4.451 15.353,8.891 28.382,8.539c13.029,-0.351 20.985,-3.122 31.464,-7.706c3.75,-1.641 7.164,-7.987 8.36,-12.264c0.734,-2.624 0.185,-3.986 -1.978,-4.563c-4.141,-1.105 -10.282,7.231 -11.54,2.378c-1.179,-4.552 -1.35,-19.587 -1.465,-24.298c-0.18,-7.363 -4.237,-35.778 -8.242,-41.415c-10.161,-14.299 -35.14,-8.2 -49.234,-6.409c-8.373,1.064 -18.816,2.94 -19.024,9.169Z" style="fill:#bad7e6;"/><path d="M389.404,64.31c-1.309,1.374 0.198,5.469 2.336,7.448c1.443,1.337 5.313,1.981 6.002,-1.309c0.247,-1.177 -0.656,-2.313 -1.356,-3.104c-1.644,-1.859 -5.674,-4.408 -6.982,-3.035Z" style="fill:#445;"/><path d="M421.764,63.485c0.456,-0.583 1.014,-1.208 1.469,-1.695c1.123,-1.201 4.903,-5.622 6.542,-3.05c0.618,0.97 0.595,2.449 0.498,3.564c-0.304,3.496 -2.42,7.043 -6.202,6.215c-2.018,-0.442 -3.235,-3.849 -2.307,-5.034Z" style="fill:#445;"/><path d="M447.744,120.822c0,-0.172 -1.234,-0.401 -1.32,-0.403c-0.76,-0.015 -1.56,0.248 -2.227,0.595c-1.97,1.026 -3.324,3.185 -3.905,5.28" style="fill:none;stroke:#82b7d1;stroke-width:2px;"/><path d="M436.006,129.931c0,0 1.541,-3.982 4.437,-2.895c1.759,0.66 1.705,2.368 1.589,2.857c-0.192,0.816 -0.528,1.606 -0.902,2.355" style="fill:none;stroke:#82b7d1;stroke-width:2px;"/><g id="groar"><path d="M386.908,31.098c-5.889,0 -9.737,9.716 -3.235,12.072c1.567,0.568 3.405,0.468 4.545,-0.87c1.75,-2.055 0.611,-5.063 -2.163,-4.967" style="fill:none;stroke:#bad7e6;stroke-width:2px;"/><path d="M393.872,41.441c0,-2.425 -1.244,-5.008 -1.724,-7.373c-0.132,-0.653 -0.604,-1.977 -0.347,-2.634c0.212,-0.541 1.474,-0.556 1.935,-0.626c1.579,-0.24 4.822,-0.332 5.199,1.838c0.35,2.012 -2.005,3.047 -3.545,3.413c-0.47,0.111 -0.947,0.194 -1.422,0.284c-0.231,0.044 -0.701,-0.138 -0.699,0.097c0.001,0.06 1.58,0.621 1.679,0.671c0.44,0.223 0.872,0.461 1.303,0.7c0.637,0.354 1.277,0.708 1.9,1.087c0.921,0.559 1.865,1.072 2.81,1.587" style="fill:none;stroke:#bad7e6;stroke-width:2px;"/><path d="M408.588,28.168c-3.531,-0.137 -4.622,2.008 -5.153,2.936c-2.197,3.833 3.064,7.566 6.555,6.445c5.017,-1.61 2.256,-9.239 -1.402,-9.381Z" style="fill:none;stroke:#bad7e6;stroke-width:2px;"/><path d="M417.521,36.355c0,0 -2.294,-5.5 -0.87,-8.307c1.068,-2.105 3.42,-3.421 5.268,-1.314c1.457,1.662 1.798,4.305 2.201,6.4c0.13,0.674 0.353,1.802 0.353,1.802" style="fill:none;stroke:#bad7e6;stroke-width:2px;"/><path d="M416.394,32.463c-0.058,-0.128 0.446,-0.238 0.487,-0.251c0.693,-0.208 1.378,-0.413 2.081,-0.58c1.12,-0.265 2.235,-0.631 3.372,-0.796c0.134,-0.02 0.938,-0.21 1.06,-0.074" style="fill:none;stroke:#bad7e6;stroke-width:2px;"/><path d="M429.2,34.989c0,0.118 -0.67,-2.443 -0.854,-3.146c-0.444,-1.698 -0.885,-3.403 -1.405,-5.08c-0.243,-0.784 -0.84,-1.718 0.183,-2.099c1.821,-0.678 6.457,0.139 6.485,2.685c0.032,2.876 -4.949,2.549 -4.949,2.549c0,0 0.558,0.263 0.586,0.273c0.715,0.26 1.446,0.475 2.162,0.734c1.634,0.59 3.722,1.331 5.165,2.361" style="fill:none;stroke:#bad7e6;stroke-width:2px;"/></g></g><g id="sheep"><path d="M152.343,115.193c0,5.311 0.483,27.089 0.686,32.412c0.059,1.536 -0.307,4.351 1.314,5.249c0.437,0.242 0.997,0.288 1.478,0.175c0.383,-0.09 0.748,-0.286 1.008,-0.585c1.256,-1.438 0.469,-3.415 -1.156,-3.528c-0.809,-0.056 -2.522,0.083 -2.522,1.014" style="fill:none;stroke:#bad7e6;stroke-width:2px;"/><path d="M164.001,130.032c0,5.525 -0.312,11.129 -0.237,16.664c0.018,1.377 0.011,3.072 0.246,4.432c0.107,0.617 0.153,1.885 2.268,1.861c2.012,-0.022 1.99,-2.191 1.545,-3.184c-0.669,-1.493 -2.845,-1.886 -3.738,-0.379" style="fill:none;stroke:#bad7e6;stroke-width:2px;"/><path d="M185.14,130.892c0,5.254 -0.111,18.496 -0.014,19.958c0.045,0.669 0.093,1.509 0.506,2.073c0.575,0.786 1.665,0.303 2.252,-0.2c0.733,-0.63 1.237,-1.574 1.237,-2.551c-0.001,-1.333 -2.27,-1.84 -3.543,-1.444" style="fill:none;stroke:#bad7e6;stroke-width:2px;"/><path d="M194.439,130.912c0.191,3.432 0.051,14.31 0.001,17.794c-0.017,1.146 0.277,2.754 1.138,3.627c0.864,0.875 2.298,0.352 2.958,-0.503c0.946,-1.225 0.35,-3.405 -1.142,-3.87c-0.405,-0.127 -0.832,-0.145 -1.246,-0.054c-0.554,0.122 -1.005,0.385 -1.432,0.752" style="fill:none;stroke:#bad7e6;stroke-width:2px;"/><path d="M162.409,83.367c-4.834,-1.588 -14.908,5.417 -11.275,12.195c-1.283,0.36 -3.556,2.39 -4.977,3.859c-3.71,3.838 -6.4,9.001 -6.033,14.46c0.369,5.476 4.435,11.225 10.371,10.895c0.85,-0.048 4.187,-0.497 5.95,-2.014c-0.114,1.727 0.075,4.013 0.153,4.796c0.31,3.108 1.858,5.297 4.713,6.615c4.839,2.235 11.118,1.179 14.913,-2.545c0.682,-0.67 3.391,-3.518 3.887,-5.09c0.772,9.053 13.089,6.633 16.462,3.803c3.766,-3.159 6.326,-7.915 4.736,-12.866c-0.543,-1.693 -1.748,-4.173 -3.004,-5.409c1.412,0.538 3.394,0.842 3.801,0.865c4.191,0.233 8.447,-2.438 9.309,-6.699c1.184,-5.851 -4.683,-11.958 -10.037,-13.174c-2.04,-0.464 -4.581,-0.211 -6.285,1.119c-0.597,0.467 -1.048,1.091 -1.477,1.707c-0.22,0.315 -0.588,1.377 -0.585,0.993c0.059,-7.576 -1.569,-17.529 -12.03,-16.293c-5.344,0.631 -10.224,5.761 -10.675,11.468c-1.156,-3.587 -4.154,-7.45 -7.917,-8.685Z" style="fill:#82b7d1;"/><path d="M168.852,110.031c-0.681,0.305 -1.723,1.6 -1.835,1.862c-1.248,2.93 0.949,5.623 4.029,5.26c3.984,-0.468 4.068,-7.029 -0.038,-7.333c0,0 -1.475,-0.093 -2.156,0.211Z" style="fill:#445;"/><path d="M191.058,108.949c-0.772,-0.181 -1.795,0.272 -2.399,0.795c-0.819,0.709 -1.642,1.694 -1.749,2.924c-0.399,4.568 8.366,3.97 6.842,-1.251c-0.176,-0.602 -0.455,-1.099 -0.838,-1.557c-0.501,-0.6 -1.085,-0.73 -1.856,-0.911Z" style="fill:#445;"/><path d="M181.578,116.783c0,0 -2.43,-0.725 -3.569,1.059c-1.228,1.923 -0.539,4.563 2.292,4.762c4.424,0.311 4.863,-4.48 1.277,-5.821Z" style="fill:none;stroke:#445;stroke-width:2px;"/><g id="baaa"><path d="M194.512,78.262c0.283,0.739 0.725,1.9 0.968,2.574c0.511,1.417 0.964,2.865 1.629,4.22c0.236,0.482 0.568,1.253 1.135,1.427c0.787,0.242 2.696,-0.536 3.277,-0.99c1.127,-0.881 1.682,-3.623 -0.454,-4.388c-0.653,-0.233 -1.822,0.126 -1.822,0.126c0,0 1.747,-0.737 0.642,-2.589c-0.925,-1.55 -2.484,-1.686 -5.375,-0.38Z" style="fill:none;stroke:#bad7e6;stroke-width:2px;"/><path d="M206.579,83.326c0.021,0.084 -0.113,-0.132 -0.152,-0.209c-0.097,-0.191 -0.189,-0.385 -0.272,-0.583c-0.225,-0.536 -0.425,-1.086 -0.61,-1.637c-0.438,-1.3 -1.756,-4.477 -0.384,-5.63c0.628,-0.528 1.743,-0.11 2.337,0.261c1.62,1.012 2.887,3.636 3.782,5.256" style="fill:none;stroke:#bad7e6;stroke-width:2px;"/><path d="M205.41,80.172c-0.149,0.038 0.267,-0.155 0.408,-0.216c0.311,-0.135 0.623,-0.266 0.933,-0.402c0.844,-0.368 1.771,-0.842 2.683,-1.011" style="fill:none;stroke:#bad7e6;stroke-width:2px;"/><path d="M214.263,79.89c0,0 -0.625,-1.62 -0.825,-2.267c-0.596,-1.927 -1.256,-4.096 -1.168,-6.134c0.017,-0.385 0.068,-0.769 0.172,-1.141c0.637,-2.272 2.424,-1.295 3.709,-0.047c0.567,0.551 1.089,1.141 1.557,1.779c0.8,1.091 2.081,4.136 2.674,5.343" style="fill:none;stroke:#bad7e6;stroke-width:2px;"/><path d="M213.325,75.506c-0.016,-0.065 0.902,-0.401 0.964,-0.427c1.141,-0.476 2.308,-0.903 3.503,-1.238" style="fill:none;stroke:#bad7e6;stroke-width:2px;"/><path d="M222.856,76.434c0,0 -0.599,-1.994 -0.67,-2.215c-0.437,-1.362 -0.801,-2.835 -0.807,-4.272c-0.003,-0.615 0.107,-1.387 0.702,-1.724c0.783,-0.444 1.893,0.149 2.496,0.644c1.533,1.257 2.733,3.071 3.895,4.666" style="fill:none;stroke:#bad7e6;stroke-width:2px;"/><path d="M222.406,73.777c1.23,-1.025 2.673,-1.975 4.015,-2.859" style="fill:none;stroke:#bad7e6;stroke-width:2px;"/></g></g><g id="wolf"><path d="M294.688,127.666c0,0 -1.908,5.56 -2.045,10.736c-0.137,5.176 2.37,8.455 2.268,10.919c-0.075,1.797 -7.031,0.771 -6.956,0.256c0.075,-0.515 5.032,-1.491 6.706,-0.822" style="fill:none;stroke:#82b7d1;stroke-width:2px;"/><path d="M304.402,128.782c0,0 -3.106,3.298 -3.12,11.501c-0.014,8.203 3.94,8.702 3.402,10.545c-0.321,1.098 -9.775,0.388 -5.217,-0.826c0.819,-0.218 3.835,-0.583 4.803,-0.819" style="fill:none;stroke:#82b7d1;stroke-width:2px;"/><path d="M329.578,133.519c0.317,3.907 3.693,7.525 5.819,12.009c1.449,3.055 1.104,3.985 0.529,5.074c-0.418,0.791 -6.289,1.318 -6.733,-0.232c-0.072,-0.252 5.104,-0.759 6.452,-1.101" style="fill:none;stroke:#82b7d1;stroke-width:2px;"/><path d="M322.265,131.945c0,0 -0.445,5.412 2.254,9.928c2.698,4.516 1.561,7.221 0.603,8.827c-0.664,1.113 -6.804,0.751 -6.417,-0.318c0.154,-0.425 4.556,-1.098 6.483,-1.32" style="fill:none;stroke:#82b7d1;stroke-width:2px;"/><path d="M281.599,104.646c-0.835,-0.291 -3.137,-0.532 -4.281,0.398c-0.731,0.594 -1.222,1.478 -1.258,2.422c-0.026,0.69 0.166,1.355 0.514,1.948c2.577,4.392 10.377,-0.395 6.432,-3.946c-0.404,-0.363 -0.896,-0.643 -1.407,-0.822Z" style="fill:#445;"/><path d="M269.738,125.265c-0.188,-0.376 0.197,0.714 0.221,0.795c0.176,0.585 0.35,1.169 0.541,1.749c0.541,1.636 1.131,3.306 1.876,4.861c0.176,0.366 0.622,1.376 1.192,1.208c0.498,-0.146 0.748,-0.968 0.916,-1.385c0.611,-1.519 0.975,-3.157 1.412,-4.734c0.062,-0.222 0.33,-1.901 0.656,-1.942c0.314,-0.039 0.674,2.076 0.723,2.257c0.504,1.841 1.163,3.704 1.97,5.434c0.147,0.315 0.572,1.43 1.081,1.303c0.642,-0.161 0.887,-1.588 1.027,-2.086c0.202,-0.723 0.38,-1.453 0.551,-2.185c0.252,-1.076 0.498,-2.153 0.734,-3.233c0.351,-1.607 0.601,-3.25 0.998,-4.844" style="fill:none;stroke:#445;stroke-width:2px;"/><path d="M349.915,90.914c0.344,0.344 0.929,0.569 1.322,0.864c1.071,0.806 2.099,1.69 3.017,2.667c3.405,3.622 4.378,8.245 2.697,12.867" style="fill:none;stroke:#ecf4f8;stroke-width:2px;"/><path d="M339.756,97.713c-0.011,0 0.052,0.328 0.054,0.342c0.042,0.26 0.066,0.525 0.082,0.788c0.045,0.743 0.035,1.489 -0.057,2.229c-0.271,2.193 -0.874,4.441 -1.749,6.469" style="fill:none;stroke:#ecf4f8;stroke-width:2px;"/><path d="M335.824,99.597c0.332,0.662 -0.126,1.893 -0.305,2.534" style="fill:none;stroke:#ecf4f8;stroke-width:2px;"/><path d="M361.381,102.405c-0.091,0.166 0.122,0.985 0.116,1.219c-0.026,0.994 -0.174,1.988 -0.318,2.971" style="fill:none;stroke:#ecf4f8;stroke-width:2px;"/><path d="M313.624,103.951c0.345,-1.229 0.704,-2.454 1.075,-3.673c0.826,-2.713 1.77,-5.449 3.007,-8.005c0.335,-0.693 0.929,-2.339 1.831,-2.511c1.159,-0.22 1.978,3.524 2.185,4.188c0.827,2.644 1.61,5.344 2.186,8.07c2.102,-0.286 3.932,-0.429 5.243,-0.345c2.696,0.172 4.141,13.164 4.567,16.375c0.498,3.751 0.888,7.581 0.751,11.371c-0.039,1.06 0.1,3.355 -0.871,4.095c-2.805,2.137 -9.186,0.726 -12.291,0.319c-10.935,-1.433 -21.795,-3.54 -32.671,-5.345c-6.67,-1.107 -13.434,-1.68 -20.079,-2.914c-1.649,-0.306 -5.792,-0.754 -5.709,-3.293c0.071,-2.173 4.963,-4.189 6.447,-4.923c7.574,-3.746 16.431,-5.818 24.542,-8.078c2.534,-0.706 5.05,-1.5 7.553,-2.31c0.034,-0.011 0.675,-0.187 1.749,-0.47c-0.11,-3.467 -0.409,-6.945 -0.347,-10.428c0.016,-0.86 -0.314,-4.043 0.828,-4.486c1.173,-0.454 2.771,2.753 3.151,3.399c1.767,3.008 3.103,6.277 4.347,9.535c0.815,-0.19 1.654,-0.382 2.506,-0.571Z" style="fill:#bad7e6;"/><clipPath id="_clip1"><path d="M313.624,103.951c0.345,-1.229 0.704,-2.454 1.075,-3.673c0.826,-2.713 1.77,-5.449 3.007,-8.005c0.335,-0.693 0.929,-2.339 1.831,-2.511c1.159,-0.22 1.978,3.524 2.185,4.188c0.827,2.644 1.61,5.344 2.186,8.07c2.102,-0.286 3.932,-0.429 5.243,-0.345c2.696,0.172 4.141,13.164 4.567,16.375c0.498,3.751 0.888,7.581 0.751,11.371c-0.039,1.06 0.1,3.355 -0.871,4.095c-2.805,2.137 -9.186,0.726 -12.291,0.319c-10.935,-1.433 -21.795,-3.54 -32.671,-5.345c-6.67,-1.107 -13.434,-1.68 -20.079,-2.914c-1.649,-0.306 -5.792,-0.754 -5.709,-3.293c0.071,-2.173 4.963,-4.189 6.447,-4.923c7.574,-3.746 16.431,-5.818 24.542,-8.078c2.534,-0.706 5.05,-1.5 7.553,-2.31c0.034,-0.011 0.675,-0.187 1.749,-0.47c-0.11,-3.467 -0.409,-6.945 -0.347,-10.428c0.016,-0.86 -0.314,-4.043 0.828,-4.486c1.173,-0.454 2.771,2.753 3.151,3.399c1.767,3.008 3.103,6.277 4.347,9.535c0.815,-0.19 1.654,-0.382 2.506,-0.571Z"/></clipPath><g clip-path="url(#_clip1)"><path d="M300.778,96.945c2.354,1.177 5.591,2.275 8.15,0.861c1.062,-0.586 1.795,-1.912 2.113,-3.051c0.15,-0.538 0.297,-1.649 0.297,-1.649c0,0 0.578,0.68 0.906,0.982c0.61,0.562 1.234,1.11 1.887,1.622c2.083,1.634 4.586,2.463 7.206,1.71c5.027,-1.445 0.946,-10.439 0.946,-10.439l-19.928,-0.193l-1.577,10.157Z" style="fill:#82b7d1;"/></g><path d="M293.095,114.951c0,0 -3.33,-0.904 -4.794,1.539c-1.327,2.215 -0.271,5.559 2.451,6.003c4.148,0.677 6.467,-5.806 2.343,-7.542Z" style="fill:#445;"/><path d="M330.887,116.906c0.526,0.526 2.479,-0.364 2.92,-0.574c2.943,-1.402 5.568,-3.548 7.31,-6.322c2.031,-3.234 2.486,-7.055 1.953,-10.782c-0.265,-1.856 -1.531,-4.903 -0.751,-6.736c1.079,-2.531 5.55,0.501 6.668,1.479c6.06,5.304 6.608,11.77 3.413,17.113c-1.039,1.738 -15.681,15.375 -24.594,6.412l3.081,-0.59Z" style="fill:#bad7e6;"/><path d="M267.277,73.259c0,0 -2.84,1.063 -2.834,4.597c0.005,2.504 2.364,3.742 4.515,3.584c3.124,-0.23 2.346,-3.583 2.346,-3.583c0,0 3.019,4.058 5.383,0.928c1.651,-2.186 -0.821,-8.781 -4.647,-6.387" style="fill:none;stroke:#bad7e6;stroke-width:2px;"/><path d="M280.654,71.218c0,-0.09 0.084,0.773 0.084,0.93c0,0.603 0.022,1.203 0.041,1.806c0.055,1.764 0.045,3.609 0.264,5.361" style="fill:none;stroke:#bad7e6;stroke-width:2px;"/><path d="M286.526,78.758c-0.89,-1.783 -2.934,-6.062 -2.235,-7.999c0.637,-1.766 5.309,-2.317 6.208,-0.513" style="fill:none;stroke:#bad7e6;stroke-width:2px;"/><path d="M285.237,75.591c-0.541,-1.085 3.38,-1.1 3.89,-0.93" style="fill:none;stroke:#bad7e6;stroke-width:2px;"/><path d="M295.488,78.681c0,0 -2.829,-4.558 -1.987,-7.764c0.648,-2.464 4.928,-2.183 5.773,-0.015" style="fill:none;stroke:#bad7e6;stroke-width:2px;"/><path d="M294.322,74.782c1.017,-0.564 3.55,-0.347 4.05,-0.147" style="fill:none;stroke:#bad7e6;stroke-width:2px;"/><path d="M278.777,84.759c0,0 -0.962,0.88 -1.32,1.416c-1.055,1.582 -2.037,4.061 -0.805,5.82c1.109,1.583 3.271,1.612 4.639,0.389c0.602,-0.537 1.097,-1.374 1.319,-2.152c0.104,-0.366 -0.083,-1.139 -0.083,-1.139c0,0 0.28,0.67 0.458,0.986c0.398,0.704 0.878,1.505 1.612,1.903c1.327,0.719 2.61,-0.208 3.375,-1.334c1.231,-1.811 -0.005,-7.507 -3.27,-6.913" style="fill:none;stroke:#bad7e6;stroke-width:2px;"/><path d="M291.527,83.132c0,2.562 0.683,5.67 1.305,8.131" style="fill:none;stroke:#bad7e6;stroke-width:2px;"/><path d="M297.703,91.05c-1.925,-1.985 -2.375,-6.953 0.432,-8.185c0.797,-0.349 3.377,-0.844 4.466,0.862" style="fill:none;stroke:#bad7e6;stroke-width:2px;"/><path d="M296.482,87.51c0.629,-0.903 2.831,-0.661 3.616,-0.661" style="fill:none;stroke:#bad7e6;stroke-width:2px;"/><path d="M307.586,90.898c0,0.045 -0.469,-0.458 -0.499,-0.499c-0.327,-0.45 -0.588,-0.924 -0.806,-1.416c-0.585,-1.322 -1.123,-2.827 -0.885,-4.246c0.351,-2.086 4.15,-2.771 5.894,-1.35" style="fill:none;stroke:#bad7e6;stroke-width:2px;"/><path d="M306.089,88.055c0.927,-1.301 3.307,-1.266 4.007,-0.998" style="fill:none;stroke:#bad7e6;stroke-width:2px;"/></g><path d="M43.237,89.693c0,-1.875 0.263,-3.814 0.812,-5.77c1.907,-6.797 6.484,-12.004 12.293,-14.232c1.862,-0.715 5.092,-2.072 5.092,-2.072c8.219,-1.689 18.222,0.634 24.624,7.106c2.643,2.672 4.643,5.882 5.562,9.324c1.869,-0.935 4.191,-1.346 5.87,0.116c5.773,5.027 -0.417,13.586 -6.83,10.68c-0.22,0.466 -0.466,0.931 -0.739,1.394c-1.19,2.025 -2.688,3.86 -4.324,5.403c-8.358,7.88 -22.647,8.062 -32.41,3.911c-2.328,-0.99 -4.308,-2.47 -5.873,-4.305c-2.72,1.621 -5.974,2.283 -9.103,1.526c-4.614,-1.116 -8.231,-5.963 -6.275,-10.689c1.309,-3.164 4.427,-4.88 7.719,-3.803c0.537,0.176 2.376,0.718 3.582,1.411Z" style="fill:#ffe5f2;"/><clipPath id="_clip2"><path d="M43.237,89.693c0,-1.875 0.263,-3.814 0.812,-5.77c1.907,-6.797 6.484,-12.004 12.293,-14.232c1.862,-0.715 5.092,-2.072 5.092,-2.072c8.219,-1.689 18.222,0.634 24.624,7.106c2.643,2.672 4.643,5.882 5.562,9.324c1.869,-0.935 4.191,-1.346 5.87,0.116c5.773,5.027 -0.417,13.586 -6.83,10.68c-0.22,0.466 -0.466,0.931 -0.739,1.394c-1.19,2.025 -2.688,3.86 -4.324,5.403c-8.358,7.88 -22.647,8.062 -32.41,3.911c-2.328,-0.99 -4.308,-2.47 -5.873,-4.305c-2.72,1.621 -5.974,2.283 -9.103,1.526c-4.614,-1.116 -8.231,-5.963 -6.275,-10.689c1.309,-3.164 4.427,-4.88 7.719,-3.803c0.537,0.176 2.376,0.718 3.582,1.411Z"/></clipPath><g clip-path="url(#_clip2)"><path d="M43.886,70.869c0,0 -0.063,12.001 -0.036,12.267c0.129,1.288 1.423,1.774 2.561,1.831c2.769,0.138 5.264,-0.94 7.618,-2.285c0.402,-0.23 2.305,-1.528 2.826,-1.155c0.416,0.298 -0.046,1.409 -0.161,1.733c-0.495,1.401 -2.378,4.497 0.241,4.747c3.982,0.379 7.128,-1.527 9.956,-4.098c0.998,-0.908 3.832,-3.952 5.484,-3.511c0.786,0.21 0.309,1.792 0.213,2.266c-0.281,1.377 -2.326,5.506 -0.106,6.116c1.854,0.51 4.108,-0.676 5.681,-1.52c4.312,-2.314 7.661,-5.756 8.754,-10.622c0.319,-1.419 0.429,-2.854 0.595,-4.294c0.024,-0.204 0.32,-1.316 0.16,-1.475l-43.786,0Z" style="fill:#bad7e6;"/></g><path d="M54.364,68.981c-2.16,-5.94 1.415,-10.886 3.088,-12.609c0.997,-1.029 2.194,-1.89 3.476,-2.585c7.389,-4.007 15.946,2.716 16.645,8.71c0.074,0.636 0.351,2.094 0.473,3.554c3.032,0.271 6.009,1.259 7.834,2.906c1.816,1.638 2.497,3.609 -0.207,4.952c-5.522,2.741 -15.315,2.753 -21.757,2.898c-2.549,0.058 -5.089,0.008 -7.63,-0.141c-3.111,-0.181 -15.852,-0.854 -9.436,-4.612c0.736,-0.43 1.514,-0.832 2.323,-1.197c1.235,-0.557 2.546,-1.045 3.883,-1.478c0.435,-0.141 0.871,-0.273 1.308,-0.398Z" style="fill:#82b7d1;"/><path d="M58.386,93.664c0,0 -3.401,-0.227 -4.538,2.262c-1.656,3.625 2.74,6.987 5.856,6.314c4.766,-1.031 3.377,-8.576 -1.318,-8.576Z" style="fill:#445;"/><path d="M82.911,93.317c-2.767,-1.424 -5.664,1.918 -6.039,3.361c-0.751,2.894 2.158,5.843 5.082,4.763c3.768,-1.393 3.725,-6.7 0.957,-8.124Z" style="fill:#445;"/><path d="M67.072,101.492c0,0 1.094,2.735 3.35,2.744c2.257,0.009 2.95,-2.835 2.95,-2.835" style="fill:none;stroke:#445;stroke-width:2px;"/><path d="M109.859,58.913c0,0 3.307,3.588 0.62,6.375c-2.847,2.953 -7.401,1.861 -9.793,-1.03c-1.373,-1.658 -1.447,-7.086 1.598,-10.822c2.667,-3.273 5.667,-5.54 11.31,-5.523c5.644,0.018 8.231,7.53 8.451,10.746c0.583,8.529 -9.712,14.66 -13.081,19.88c-11.288,17.487 -21.355,72.725 -22.745,73.864" style="fill:none;stroke:#82b7d1;stroke-width:3.5px;"/><path d="M94.495,118.901c0,0 0.758,0.219 1.396,0.984c0.638,0.764 0.689,1.887 0.497,3.097" style="fill:none;stroke:#ffe5f2;stroke-width:2px;"/><g id="_.html" serif:id=".html"><path d="M33.013,46.153c1.031,1.432 3.794,6.974 3.825,7.237" style="fill:none;stroke:#bad7e6;stroke-width:2px;"/><path d="M37.045,43.55c1.02,1.43 3.727,7.058 4.053,8.239" style="fill:none;stroke:#bad7e6;stroke-width:2px;"/><path d="M35.187,49.489c-0.019,-0.027 0.745,-0.411 0.789,-0.432c0.85,-0.413 1.736,-0.76 2.597,-1.146" style="fill:none;stroke:#bad7e6;stroke-width:2px;"/><path d="M41.371,41.712c0.903,1.266 3.449,6.565 3.779,7.759" style="fill:none;stroke:#bad7e6;stroke-width:2px;"/><path d="M45.995,39.88c0.82,1.66 1.562,3.368 2.481,4.977" style="fill:#82b7d1;stroke:#bad7e6;stroke-width:2px;"/><path d="M49.744,47.23c0,0.117 0.169,0.326 0.228,0.426" style="fill:#82b7d1;stroke:#bad7e6;stroke-width:2px;"/></g></svg>