<?xml version="1.0" encoding="UTF-8" standalone="no"?><!DOCTYPE svg PUBLIC "-//W3C//DTD SVG 1.1//EN" "http://www.w3.org/Graphics/SVG/1.1/DTD/svg11.dtd"><svg width="100%" height="100%" viewBox="0 0 460 180" version="1.1" xmlns="http://www.w3.org/2000/svg" xmlns:xlink="http://www.w3.org/1999/xlink" xml:space="preserve" xmlns:serif="http://www.serif.com/" style="fill-rule:evenodd;clip-rule:evenodd;stroke-linecap:round;stroke-linejoin:round;stroke-miterlimit:1.5;"><rect id="wolf-vs-wolf" x="0" y="0" width="460" height="180" style="fill:none;"/><g id="polaroid"><path d="M193.113,133.411c0,0 -30.756,-107.457 -37.773,-110.224c-1.703,-0.671 -16.981,4.563 -36.985,3.36c-32.179,-1.935 -75.323,-10.26 -84.377,-9.579c-4.009,0.301 -11.49,0 -14.044,3.755c-2.961,4.352 -0.561,11.398 0.738,15.839c3.848,13.158 15.949,62.657 18.303,76.693c2.425,14.454 3.026,29.775 8.519,40.298c1.963,3.761 36.235,8.578 69.229,5.224c15.522,-1.578 31.664,-6.114 46.394,-9.002c16.579,-3.25 30.895,-4.824 31.466,-5.647c1.484,-2.135 -1.09,-8.348 -1.47,-10.717Z" style="fill:#ecf4f8;"/><clipPath id="_clip1"><path d="M193.113,133.411c0,0 -30.756,-107.457 -37.773,-110.224c-1.703,-0.671 -16.981,4.563 -36.985,3.36c-32.179,-1.935 -75.323,-10.26 -84.377,-9.579c-4.009,0.301 -11.49,0 -14.044,3.755c-2.961,4.352 -0.561,11.398 0.738,15.839c3.848,13.158 15.949,62.657 18.303,76.693c2.425,14.454 3.026,29.775 8.519,40.298c1.963,3.761 36.235,8.578 69.229,5.224c15.522,-1.578 31.664,-6.114 46.394,-9.002c16.579,-3.25 30.895,-4.824 31.466,-5.647c1.484,-2.135 -1.09,-8.348 -1.47,-10.717Z"/></clipPath><g clip-path="url(#_clip1)"><path d="M182.814,2.662c0,0 1.729,102.328 1.7,103.696c-0.071,3.322 -3.889,3.324 -5.27,3.56c-1.694,0.289 -56.001,9.258 -84.063,11.361c-28.952,2.17 -38.924,-0.952 -48.162,-1.856c-5.06,-0.496 -5.992,-0.644 -7.45,-6.458c-4.195,-16.726 -32.239,-108.143 -32.239,-108.143l175.484,-2.16Z" style="fill:#82b7d1;"/></g><path d="M193.113,133.411c0,0 -30.756,-107.457 -37.773,-110.224c-1.703,-0.671 -16.981,4.563 -36.985,3.36c-32.179,-1.935 -75.323,-10.26 -84.377,-9.579c-4.009,0.301 -11.49,0 -14.044,3.755c-2.961,4.352 -0.561,11.398 0.738,15.839c3.848,13.158 15.949,62.657 18.303,76.693c2.425,14.454 3.026,29.775 8.519,40.298c1.963,3.761 36.235,8.578 69.229,5.224c15.522,-1.578 31.664,-6.114 46.394,-9.002c16.579,-3.25 30.895,-4.824 31.466,-5.647c1.484,-2.135 -1.09,-8.348 -1.47,-10.717Z" style="fill:none;stroke:#bad7e6;stroke-width:2px;"/></g><g id="polaroid1" serif:id="polaroid"><path d="M263.608,135.654c0,0 30.793,-107.364 37.772,-110.224c8.205,-3.362 31.105,-7.544 51.11,-8.747c32.178,-1.934 61.198,1.848 70.252,2.528c4.01,0.301 11.49,0.001 14.045,3.755c2.96,4.352 0.56,11.398 -0.738,15.839c-3.849,13.159 -15.95,62.657 -18.304,76.693c-2.425,14.454 -3.026,29.775 -8.519,40.298c-1.963,3.761 -56.331,-5.799 -84.347,-8.822c-28.015,-3.023 -62.171,0.22 -62.742,-0.603c-1.484,-2.135 1.09,-8.348 1.471,-10.717Z" style="fill:#ecf4f8;"/><clipPath id="_clip2"><path d="M263.608,135.654c0,0 30.793,-107.364 37.772,-110.224c8.205,-3.362 31.105,-7.544 51.11,-8.747c32.178,-1.934 61.198,1.848 70.252,2.528c4.01,0.301 11.49,0.001 14.045,3.755c2.96,4.352 0.56,11.398 -0.738,15.839c-3.849,13.159 -15.95,62.657 -18.304,76.693c-2.425,14.454 -3.026,29.775 -8.519,40.298c-1.963,3.761 -56.331,-5.799 -84.347,-8.822c-28.015,-3.023 -62.171,0.22 -62.742,-0.603c-1.484,-2.135 1.09,-8.348 1.471,-10.717Z"/></clipPath><g clip-path="url(#_clip2)"><path d="M279.165,5.387c0,0 -6.773,101.858 -6.958,103.214c-0.567,4.153 3.888,3.325 5.269,3.56c1.694,0.289 22.708,-1.84 50.769,0.263c28.952,2.17 72.218,10.146 81.456,9.242c5.06,-0.496 8.009,-8.715 9.468,-14.529c4.195,-16.726 44.346,-101.296 44.346,-101.296l-184.35,-0.454Z" style="fill:#82b7d1;"/></g><path d="M263.608,135.654c0,0 30.793,-107.364 37.772,-110.224c8.205,-3.362 31.105,-7.544 51.11,-8.747c32.178,-1.934 61.198,1.848 70.252,2.528c4.01,0.301 11.49,0.001 14.045,3.755c2.96,4.352 0.56,11.398 -0.738,15.839c-3.849,13.159 -15.95,62.657 -18.304,76.693c-2.425,14.454 -3.026,29.775 -8.519,40.298c-1.963,3.761 -56.331,-5.799 -84.347,-8.822c-28.015,-3.023 -62.171,0.22 -62.742,-0.603c-1.484,-2.135 1.09,-8.348 1.471,-10.717Z" style="fill:none;stroke:#bad7e6;stroke-width:2px;"/></g><path d="M205.496,84.063c16.944,0 27.686,-2.036 44.647,-2.039" style="fill:none;stroke:#ff0078;stroke-width:4px;"/><path d="M205.878,97.485c0.005,-0.66 10.089,-0.864 10.692,-0.906c10.523,-0.742 21.821,-2.058 32.36,-1.182" style="fill:none;stroke:#ff0078;stroke-width:4px;"/><path d="M216.993,108.501c4.672,-10.274 11.015,-19.974 16.928,-29.404c1.899,-3.028 4.272,-5.843 5.913,-9.052" style="fill:none;stroke:#ff0078;stroke-width:4px;"/><g id="wolf"><path d="M112.949,84.408c0,0 1.756,5.067 1.882,9.784c0.126,4.718 -2.181,7.707 -2.087,9.952c0.069,1.638 6.47,0.703 6.401,0.233c-0.069,-0.469 -4.631,-1.359 -6.171,-0.749" style="fill:none;stroke:#445;stroke-width:2px;"/><path d="M104.01,85.425c0,0 2.858,3.006 2.871,10.482c0.013,7.476 -3.626,7.931 -3.131,9.61c0.295,1.001 8.996,0.354 4.801,-0.752c-0.753,-0.199 -3.529,-0.531 -4.42,-0.747" style="fill:none;stroke:#445;stroke-width:2px;"/><path d="M80.841,89.742c-0.291,3.561 -3.398,6.858 -5.354,10.945c-1.333,2.785 -1.016,3.632 -0.487,4.625c0.385,0.72 5.788,1.201 6.196,-0.212c0.067,-0.23 -4.697,-0.691 -5.937,-1.003" style="fill:none;stroke:#445;stroke-width:2px;"/><path d="M87.572,88.308c0,0 0.409,4.932 -2.074,9.048c-2.483,4.116 -1.437,6.581 -0.556,8.045c0.611,1.014 6.262,0.685 5.906,-0.29c-0.142,-0.387 -4.193,-1 -5.967,-1.203" style="fill:none;stroke:#445;stroke-width:2px;"/><path d="M124.994,63.428c0.769,-0.266 2.886,-0.486 3.94,0.362c0.673,0.541 1.124,1.347 1.157,2.208c0.024,0.629 -0.153,1.235 -0.473,1.775c-2.372,4.003 -9.549,-0.36 -5.919,-3.596c0.372,-0.331 0.825,-0.586 1.295,-0.749Z" style="fill:#ecf4f8;"/><path d="M135.909,82.22c0.173,-0.343 -0.181,0.651 -0.203,0.724c-0.162,0.533 -0.322,1.066 -0.498,1.594c-0.498,1.491 -1.041,3.013 -1.727,4.43c-0.161,0.334 -0.572,1.254 -1.096,1.102c-0.459,-0.134 -0.689,-0.883 -0.843,-1.263c-0.563,-1.385 -0.898,-2.877 -1.3,-4.314c-0.056,-0.203 -0.304,-1.733 -0.604,-1.77c-0.288,-0.036 -0.619,1.892 -0.665,2.057c-0.464,1.678 -1.07,3.376 -1.813,4.953c-0.135,0.286 -0.526,1.302 -0.995,1.186c-0.59,-0.146 -0.816,-1.446 -0.944,-1.9c-0.186,-0.66 -0.35,-1.325 -0.508,-1.992c-0.232,-0.98 -0.458,-1.962 -0.675,-2.946c-0.323,-1.465 -0.553,-2.962 -0.919,-4.415" style="fill:none;stroke:#ecf4f8;stroke-width:2px;"/><path d="M95.523,62.794c-0.317,-1.12 -0.647,-2.236 -0.989,-3.347c-0.761,-2.473 -1.628,-4.967 -2.767,-7.296c-0.308,-0.631 -0.855,-2.132 -1.686,-2.288c-1.066,-0.201 -1.819,3.211 -2.01,3.816c-0.761,2.41 -1.482,4.871 -2.012,7.355c-1.934,-0.26 -3.618,-0.391 -4.824,-0.314c-2.481,0.156 -3.811,11.998 -4.203,14.924c-0.459,3.419 -0.817,6.909 -0.691,10.363c0.036,0.966 -0.092,3.058 0.801,3.732c2.581,1.949 8.454,0.662 11.311,0.291c10.063,-1.306 20.056,-3.226 30.065,-4.871c6.138,-1.009 12.363,-1.531 18.478,-2.656c1.518,-0.279 5.33,-0.687 5.254,-3.001c-0.066,-1.98 -4.567,-3.818 -5.933,-4.487c-6.97,-3.414 -15.121,-5.303 -22.585,-7.362c-2.332,-0.643 -4.647,-1.367 -6.951,-2.105c-0.031,-0.01 -0.621,-0.171 -1.609,-0.429c0.101,-3.16 0.377,-6.329 0.319,-9.504c-0.014,-0.784 0.29,-3.684 -0.762,-4.088c-1.079,-0.414 -2.55,2.509 -2.899,3.098c-1.627,2.741 -2.856,5.72 -4,8.689c-0.751,-0.173 -1.523,-0.348 -2.307,-0.52Z" style="fill:#445;"/><clipPath id="_clip3"><path d="M95.523,62.794c-0.317,-1.12 -0.647,-2.236 -0.989,-3.347c-0.761,-2.473 -1.628,-4.967 -2.767,-7.296c-0.308,-0.631 -0.855,-2.132 -1.686,-2.288c-1.066,-0.201 -1.819,3.211 -2.01,3.816c-0.761,2.41 -1.482,4.871 -2.012,7.355c-1.934,-0.26 -3.618,-0.391 -4.824,-0.314c-2.481,0.156 -3.811,11.998 -4.203,14.924c-0.459,3.419 -0.817,6.909 -0.691,10.363c0.036,0.966 -0.092,3.058 0.801,3.732c2.581,1.949 8.454,0.662 11.311,0.291c10.063,-1.306 20.056,-3.226 30.065,-4.871c6.138,-1.009 12.363,-1.531 18.478,-2.656c1.518,-0.279 5.33,-0.687 5.254,-3.001c-0.066,-1.98 -4.567,-3.818 -5.933,-4.487c-6.97,-3.414 -15.121,-5.303 -22.585,-7.362c-2.332,-0.643 -4.647,-1.367 -6.951,-2.105c-0.031,-0.01 -0.621,-0.171 -1.609,-0.429c0.101,-3.16 0.377,-6.329 0.319,-9.504c-0.014,-0.784 0.29,-3.684 -0.762,-4.088c-1.079,-0.414 -2.55,2.509 -2.899,3.098c-1.627,2.741 -2.856,5.72 -4,8.689c-0.751,-0.173 -1.523,-0.348 -2.307,-0.52Z"/></clipPath><g clip-path="url(#_clip3)"><path d="M107.345,56.409c-2.167,1.073 -5.145,2.074 -7.5,0.785c-0.978,-0.535 -1.652,-1.743 -1.944,-2.781c-0.139,-0.49 -0.274,-1.503 -0.274,-1.503c0,0 -0.532,0.62 -0.833,0.895c-0.562,0.512 -1.136,1.012 -1.737,1.478c-1.917,1.49 -4.22,2.245 -6.631,1.559c-4.627,-1.317 -0.871,-9.514 -0.871,-9.514l18.338,-0.176l1.452,9.257Z" style="fill:#ecf4f8;"/></g><path d="M114.415,72.819c0,0 3.064,-0.824 4.412,1.403c1.221,2.019 0.249,5.067 -2.256,5.472c-3.817,0.616 -5.951,-5.292 -2.156,-6.875Z" style="fill:#ecf4f8;"/><path d="M79.637,74.602c-0.484,0.479 -2.281,-0.333 -2.687,-0.524c-2.708,-1.277 -5.124,-3.233 -6.727,-5.762c-1.869,-2.947 -2.287,-6.429 -1.797,-9.826c0.244,-1.692 1.409,-4.469 0.69,-6.139c-0.992,-2.307 -5.106,0.456 -6.135,1.348c-5.577,4.833 -6.081,10.727 -3.141,15.596c0.956,1.584 14.43,14.013 22.633,5.844l-2.836,-0.537Z" style="fill:#445;"/></g><g id="wolf1" serif:id="wolf"><path d="M349.945,82.568c2.23,0.584 -1.614,18.195 -4.975,19.783c-1.703,0.804 -7.457,0.763 -7.378,0.253c0.079,-0.51 5.337,-1.476 7.113,-0.813" style="fill:none;stroke:#ecf4f8;stroke-width:2px;"/><path d="M353.023,83.273c0.836,10.955 11.526,17.64 10.955,19.454c-0.34,1.081 -11.507,0.667 -6.672,-0.527c0.868,-0.215 4.353,-0.384 5.38,-0.617" style="fill:none;stroke:#ecf4f8;stroke-width:2px;"/><path d="M387.731,86.602c-0.231,7.401 5.298,6.302 7.553,10.741c1.536,3.025 1.171,3.946 0.561,5.024c-0.443,0.783 -6.671,1.305 -7.142,-0.23c-0.076,-0.25 5.413,-0.751 6.843,-1.09" style="fill:none;stroke:#ecf4f8;stroke-width:2px;"/><path d="M383.501,85.491c0,0 1.117,3.976 -3.423,7.003c-6.706,4.471 0.446,8.505 -0.571,10.095c-0.704,1.102 -9.154,0.857 -8.743,-0.201c0.163,-0.421 5.802,-0.861 7.845,-1.081" style="fill:none;stroke:#ecf4f8;stroke-width:2px;"/><path d="M308.089,75.41c-0.658,-0.623 -2.533,-0.157 -3.747,0.764c-0.775,0.588 -1.296,1.463 -1.334,2.398c-0.027,0.684 -1.224,2.466 4.662,4.197c9.54,2.806 3.292,-4.635 0.419,-7.359Z" style="fill:#445;"/><path d="M317.736,95.345c-0.199,-0.373 0.209,0.707 0.235,0.787c0.186,0.578 0.37,1.157 0.573,1.731c0.574,1.62 1.2,3.273 1.99,4.812c0.186,0.363 0.66,1.362 1.264,1.197c0.529,-0.146 0.794,-0.959 0.972,-1.371c0.648,-1.505 1.034,-3.126 1.497,-4.687c0.066,-0.22 0.351,-1.882 0.697,-1.923c0.332,-0.038 0.714,2.055 0.766,2.234c0.535,1.823 1.234,3.668 2.09,5.381c0.155,0.311 0.607,1.415 1.147,1.289c0.68,-0.159 0.94,-1.572 1.088,-2.065c0.215,-0.716 0.404,-1.439 0.585,-2.163c0.267,-1.065 0.529,-2.132 0.779,-3.201c0.372,-1.59 0.637,-3.217 1.058,-4.796" style="fill:none;stroke:#ff0078;stroke-width:2px;"/><path d="M333.366,53.001c3.914,-3.164 12.55,-11.231 33.598,-11.076c15.476,1.131 21.353,29.824 21.806,33.002c0.528,3.714 0.941,7.506 0.795,11.257c-0.04,1.05 0.107,3.322 -0.923,4.055c-2.975,2.116 -9.743,0.718 -13.037,0.315c-11.598,-1.418 -14.337,-2.141 -26.963,-1.215c-7.149,0.524 -22.748,10.079 -29.797,8.858c-1.748,-0.303 -6.143,-0.747 -6.055,-3.261c0.076,-2.151 3.541,-28.169 20.576,-41.935Z" style="fill:#ecf4f8;"/><path d="M331.861,81.566c0,0 -1.659,-0.137 -4.292,1.246c-2.498,1.313 -8.422,5.55 1.807,6.221c4.447,0.292 6.859,-5.748 2.485,-7.467Z" style="fill:#445;"/><path d="M379.712,61.374c0.385,0.832 4.199,0.63 4.879,0.56c4.746,-0.488 9.126,-3.936 13.271,-5.962c2.133,-1.042 4.254,-1.821 6.674,-2.029c4.641,-0.399 8.386,0.962 11.867,-2.964c0.635,-0.716 1.147,-1.504 1.574,-2.342c0.59,-1.16 0.895,-2.437 1.077,-3.703c0.216,-1.504 0.447,-3.229 -0.099,-4.701c-0.473,-1.277 -1.851,-1.383 -3.037,-0.905c-2.431,0.978 -3.707,3.164 -6.43,3.82c-3.628,0.874 -7.484,0.254 -11.1,1.162c-4.576,1.149 -8.884,5.012 -12.151,8.045c-1.834,1.703 -3.09,3.544 -3.801,5.863c-0.09,0.294 -0.742,1.645 -0.614,1.922l-2.11,1.234Z" style="fill:#ecf4f8;"/><path d="M321.689,69.082c-1.706,-1.589 -2.935,-4.237 -3.973,-6.209c-0.727,-1.382 -1.398,-2.792 -1.914,-4.255c-0.292,-0.83 -0.518,-1.677 -0.685,-2.535c-0.128,-0.663 -0.204,-1.33 -0.204,-2.003c0,-2.624 1.669,-2.655 3.803,-1.671c3.097,1.428 5.841,3.782 8.104,6.184c0.942,1 1.79,2.07 2.635,3.142c0.069,0.087 0.579,0.914 0.712,0.914c0.245,0 -0.104,-0.448 -0.152,-0.673c-0.089,-0.418 -0.184,-0.836 -0.267,-1.255c-0.227,-1.138 -0.427,-2.276 -0.57,-3.425c-0.54,-4.331 -0.718,-8.816 0.259,-13.107c0.163,-0.719 0.814,-4.167 2.315,-3.799c1.585,0.39 2.426,2.955 2.957,4.131c1.566,3.471 2.592,7.12 3.205,10.839c0.171,1.039 0.163,4.283 1.086,5.145l-17.311,8.577Z" style="fill:#ecf4f8;"/><clipPath id="_clip4"><path d="M321.689,69.082c-1.706,-1.589 -2.935,-4.237 -3.973,-6.209c-0.727,-1.382 -1.398,-2.792 -1.914,-4.255c-0.292,-0.83 -0.518,-1.677 -0.685,-2.535c-0.128,-0.663 -0.204,-1.33 -0.204,-2.003c0,-2.624 1.669,-2.655 3.803,-1.671c3.097,1.428 5.841,3.782 8.104,6.184c0.942,1 1.79,2.07 2.635,3.142c0.069,0.087 0.579,0.914 0.712,0.914c0.245,0 -0.104,-0.448 -0.152,-0.673c-0.089,-0.418 -0.184,-0.836 -0.267,-1.255c-0.227,-1.138 -0.427,-2.276 -0.57,-3.425c-0.54,-4.331 -0.718,-8.816 0.259,-13.107c0.163,-0.719 0.814,-4.167 2.315,-3.799c1.585,0.39 2.426,2.955 2.957,4.131c1.566,3.471 2.592,7.12 3.205,10.839c0.171,1.039 0.163,4.283 1.086,5.145l-17.311,8.577Z"/></clipPath><g clip-path="url(#_clip4)"><path d="M314.098,59.093c3.039,-0.286 6.94,-1.127 8.818,-3.75c0.779,-1.088 0.83,-2.63 0.553,-3.782c-0.13,-0.545 -0.567,-1.58 -0.567,-1.58c0,0 0.953,0.266 1.448,0.344c0.924,0.146 1.854,0.273 2.794,0.353c3.002,0.255 6.008,-0.413 8.298,-2.502c4.394,-4.009 -4.55,-9.48 -4.55,-9.48l-20.547,10.812l3.753,9.585Z" style="fill:#bad7e6;"/></g></g><g transform="matrix(0.985306,-0.170796,0.170796,0.985306,481.206,-217.71)"><text x="-436.609px" y="297.891px" style="font-family:'Courier-Bold', 'Courier';font-size:20px;fill:#445;">w<tspan x="-426.342px -416.076px -405.809px -395.543px -385.276px -375.01px -364.743px " y="297.891px 297.891px 297.891px 297.891px 297.891px 297.891px 297.891px ">olf.jpg</tspan></text></g><g transform="matrix(1.62892,0.133983,-0.156632,1.90428,2.61256,-3100.83)"><text x="359.821px" y="1676.58px" style="font-family:'Courier-Bold', 'Courier';font-size:10.467px;fill:#445;">WOLF.</text><text x="391.228px" y="1676.58px" style="font-family:'Courier-Bold', 'Courier';font-size:10.467px;fill:#445;">jpg</text></g></svg>