<?xml version="1.0" encoding="UTF-8" standalone="no"?><!DOCTYPE svg PUBLIC "-//W3C//DTD SVG 1.1//EN" "http://www.w3.org/Graphics/SVG/1.1/DTD/svg11.dtd"><svg width="100%" height="100%" viewBox="0 0 1020 520" version="1.1" xmlns="http://www.w3.org/2000/svg" xmlns:xlink="http://www.w3.org/1999/xlink" xml:space="preserve" xmlns:serif="http://www.serif.com/" style="fill-rule:evenodd;clip-rule:evenodd;"><rect id="server-rendering" x="0" y="0" width="1020" height="520" style="fill:none;"/><g id="react-component" serif:id="react component"><g opacity="0.25"><path d="M602.948,121.052c3.892,-3.892 3.892,-10.212 0,-14.104l-32.896,-32.896c-3.892,-3.892 -10.212,-3.892 -14.104,0l-32.896,32.896c-3.892,3.892 -3.892,10.212 0,14.104l32.896,32.896c3.892,3.892 10.212,3.892 14.104,0l32.896,-32.896Z" style="fill:#ffe5f2;"/><g id="_-react" serif:id="©react"><circle cx="563" cy="114" r="4.746" style="fill:#61dafb;"/><ellipse cx="563" cy="114" rx="25.468" ry="9.724" style="fill:none;stroke:#61dafb;stroke-width:2.32px;"/><path d="M571.421,109.138c7.028,12.173 8.961,24.234 4.313,26.918c-4.648,2.683 -14.127,-5.021 -21.155,-17.194c-7.028,-12.173 -8.961,-24.234 -4.313,-26.918c4.648,-2.683 14.127,5.021 21.155,17.194Z" style="fill:none;stroke:#61dafb;stroke-width:2.32px;"/><path d="M571.421,118.862c-7.028,12.173 -16.507,19.877 -21.155,17.194c-4.648,-2.684 -2.715,-14.745 4.313,-26.918c7.028,-12.173 16.507,-19.877 21.155,-17.194c4.648,2.684 2.715,14.745 -4.313,26.918Z" style="fill:none;stroke:#61dafb;stroke-width:2.32px;"/></g></g></g><text x="327.1px" y="41.864px" style="font-family:'ArialMT', 'Arial', sans-serif;font-size:20px;fill:#ff0078;">routes.js</text><text x="150.029px" y="41.864px" style="font-family:'ArialMT', 'Arial', sans-serif;font-size:20px;fill:#ff0078;">react router</text><g id="reduz--store" serif:id="reduz -store"><path d="M62.448,374.873c1.453,-5.95 7.308,-10.575 14.17,-10.575c6.863,0 12.717,4.625 14.171,10.575c5.557,-2.573 12.824,-0.88 17.102,4.486c4.279,5.365 4.313,12.826 0.568,17.672c5.477,2.741 8.683,9.478 7.156,16.168c-1.527,6.691 -7.339,11.369 -13.462,11.462c1.271,5.991 -1.996,12.698 -8.179,15.676c-6.183,2.978 -13.465,1.351 -17.356,-3.379c-3.891,4.73 -11.172,6.357 -17.355,3.379c-6.183,-2.978 -9.451,-9.685 -8.179,-15.676c-6.124,-0.093 -11.936,-4.771 -13.463,-11.462c-1.527,-6.69 1.68,-13.427 7.156,-16.168c-3.745,-4.846 -3.711,-12.307 0.568,-17.672c4.279,-5.366 11.545,-7.059 17.103,-4.486Z" style="fill:#ededef;"/><g id="_-redux" serif:id="©redux"><path d="M85.491,411.731c1.698,-0.176 2.986,-1.639 2.927,-3.395c-0.058,-1.756 -1.522,-3.161 -3.278,-3.161l-0.117,0c-1.815,0.058 -3.22,1.58 -3.161,3.395c0.059,0.878 0.41,1.639 0.937,2.166c-1.991,3.922 -5.035,6.79 -9.6,9.19c-3.103,1.639 -6.322,2.224 -9.542,1.815c-2.634,-0.352 -4.683,-1.522 -5.971,-3.454c-1.873,-2.868 -2.049,-5.971 -0.468,-9.073c1.112,-2.225 2.868,-3.864 3.98,-4.683c-0.234,-0.761 -0.585,-2.049 -0.761,-2.986c-8.487,6.147 -7.609,14.459 -5.034,18.381c1.932,2.927 5.854,4.741 10.186,4.741c1.17,0 2.341,-0.117 3.512,-0.409c7.493,-1.464 13.171,-5.913 16.39,-12.527Z" style="fill:#764abc;fill-rule:nonzero;"/><path d="M95.794,404.472c-4.449,-5.21 -11.005,-8.078 -18.498,-8.078l-0.936,0c-0.527,-1.054 -1.639,-1.756 -2.869,-1.756l-0.117,0c-1.814,0.059 -3.219,1.58 -3.161,3.395c0.059,1.756 1.522,3.161 3.278,3.161l0.117,0c1.288,-0.058 2.4,-0.878 2.869,-1.99l1.053,0c4.449,0 8.664,1.288 12.469,3.805c2.926,1.932 5.034,4.449 6.205,7.493c0.995,2.458 0.936,4.858 -0.118,6.907c-1.639,3.102 -4.39,4.8 -8.019,4.8c-2.342,0 -4.566,-0.703 -5.737,-1.229c-0.644,0.585 -1.814,1.522 -2.634,2.107c2.517,1.171 5.093,1.815 7.551,1.815c5.62,0 9.776,-3.103 11.357,-6.205c1.697,-3.395 1.58,-9.249 -2.81,-14.225Z" style="fill:#764abc;fill-rule:nonzero;"/><path d="M66.057,412.726c0.059,1.756 1.522,3.161 3.278,3.161l0.117,0c1.815,-0.059 3.22,-1.581 3.161,-3.395c-0.058,-1.756 -1.522,-3.161 -3.278,-3.161l-0.117,0c-0.117,0 -0.293,0 -0.41,0.058c-2.4,-3.98 -3.395,-8.312 -3.044,-12.995c0.235,-3.512 1.405,-6.556 3.454,-9.073c1.698,-2.166 4.976,-3.22 7.2,-3.278c6.205,-0.117 8.839,7.61 9.015,10.712c0.761,0.176 2.049,0.585 2.927,0.878c-0.703,-9.483 -6.557,-14.4 -12.176,-14.4c-5.268,0 -10.127,3.805 -12.059,9.424c-2.692,7.493 -0.936,14.693 2.342,20.371c-0.293,0.41 -0.468,1.054 -0.41,1.698Z" style="fill:#764abc;fill-rule:nonzero;"/></g></g><g id="react-component1" serif:id="react component"><path d="M566.941,121.052c3.892,-3.892 3.892,-10.212 0,-14.104l-32.896,-32.896c-3.892,-3.892 -10.212,-3.892 -14.104,0l-32.896,32.896c-3.892,3.892 -3.892,10.212 0,14.104l32.896,32.896c3.892,3.892 10.212,3.892 14.104,0l32.896,-32.896Z" style="fill:#ffe5f2;"/><g id="_-react1" serif:id="©react"><circle cx="526.993" cy="114" r="4.746" style="fill:#61dafb;"/><ellipse cx="526.993" cy="114" rx="25.468" ry="9.724" style="fill:none;stroke:#61dafb;stroke-width:2.32px;"/><path d="M535.414,109.138c7.028,12.173 8.961,24.234 4.313,26.918c-4.648,2.683 -14.127,-5.021 -21.155,-17.194c-7.028,-12.173 -8.961,-24.234 -4.313,-26.918c4.648,-2.683 14.127,5.021 21.155,17.194Z" style="fill:none;stroke:#61dafb;stroke-width:2.32px;"/><path d="M535.414,118.862c-7.028,12.173 -16.507,19.877 -21.155,17.194c-4.648,-2.684 -2.715,-14.745 4.313,-26.918c7.028,-12.173 16.507,-19.877 21.155,-17.194c4.648,2.684 2.715,14.745 -4.313,26.918Z" style="fill:none;stroke:#61dafb;stroke-width:2.32px;"/></g></g><g transform="matrix(1,0,0,1,-1229.77,-57.349)"><text x="1279.26px" y="525.426px" style="font-family:'ArialMT', 'Arial', sans-serif;font-size:20px;fill:#445;">empty</text><text x="1256.47px" y="549.426px" style="font-family:'ArialMT', 'Arial', sans-serif;font-size:20px;fill:#445;">redux store</text></g><text x="141.424px" y="263.514px" style="font-family:'ArialMT', 'Arial', sans-serif;font-size:20px;fill:#ff7d00;">cookie</text><text x="483.478px" y="39.994px" style="font-family:'ArialMT', 'Arial', sans-serif;font-size:20px;fill:#ff0078;">components</text><path d="M31.141,135.119l0,-43.983l67.06,0l0,-13.009l35,35l-35,35l0,-13.008l-67.06,0Z" style="fill:#ddebf3;"/><g><path d="M867.92,280.653l0,-43.983l96.865,0l0,-13.009l35,35l-35,35l0,-13.008l-96.865,0Z" style="fill:#dcebf2;"/><text x="882.41px" y="265.52px" style="font-family:'ArialMT', 'Arial', sans-serif;font-size:16px;">T<tspan x="891.894px 904.339px " y="265.52px 265.52px ">O </tspan>CLIENT</text></g><text x="48.419px" y="119.986px" style="font-family:'ArialMT', 'Arial', sans-serif;font-size:16px;">ROUTE</text><g><circle cx="201.426" cy="113.127" r="51.03" style="fill:#ffe5f2;"/><g id="_-react-router" serif:id="©react-router"><path d="M200.038,95.408c-0.763,0.182 -1.926,0.909 -2.616,1.599c-1.127,1.163 -1.345,1.672 -1.817,4.034c-0.218,1.162 1.126,3.924 2.326,4.76c1.235,0.872 2.979,1.38 5.668,1.671c3.924,0.436 5.051,1.744 5.051,6.032c0,3.779 -1.054,4.796 -5.378,5.233c-4.687,0.472 -7.086,2.289 -7.594,5.813c-0.291,2.144 1.126,4.833 3.088,5.742c4.47,2.107 8.648,-0.545 9.521,-6.032c0.581,-3.525 1.707,-4.506 5.486,-4.797c4.361,-0.363 6.614,-1.853 7.449,-4.905c0.763,-2.798 -0.835,-5.923 -3.561,-7.013c-0.726,-0.291 -2.398,-0.654 -3.706,-0.8c-4.106,-0.436 -5.16,-1.162 -5.596,-3.815c-0.618,-3.67 -0.872,-4.288 -2.18,-5.741c-1.526,-1.708 -3.852,-2.398 -6.141,-1.781Z" style="fill:#ba514f;"/><path d="M173.04,119.282c-5.923,1.308 -6.141,9.956 -0.291,11.482c1.454,0.4 1.599,0.4 3.053,0.036c3.27,-0.872 5.123,-3.997 4.251,-7.158c-0.872,-3.198 -3.852,-5.051 -7.013,-4.36Zm53.451,0.327c-3.815,1.308 -5.123,5.741 -2.689,9.156c1.526,2.181 5.378,2.907 7.74,1.418c3.888,-2.399 3.743,-8.394 -0.254,-10.284c-1.854,-0.908 -2.871,-0.944 -4.797,-0.29Zm-39.243,-12.319c-4.034,0.873 -5.96,5.633 -3.707,9.048c3.234,4.869 10.829,2.617 10.901,-3.234c0.037,-3.742 -3.524,-6.613 -7.194,-5.814Z" style="fill:#252525;"/></g></g><path d="M311.114,114.255l-18,15l0,-30l18,15Z" style="fill:#ffbfdd;"/><path d="M470.216,114.255l-18,15l0,-30l18,15Z" style="fill:#ffbfdd;"/><path d="M493.259,403.067l-18,15l0,-30l18,15Z" style="fill:#a0c9dc;"/><path d="M94.96,301l-18,15l0,-30l18,15Z" style="fill:#ddebf3;"/><path d="M94.96,256.753l-18,15l0,-30l18,15Z" style="fill:#ddebf3;"/><path d="M260.098,114.285l40,0" style="fill:none;stroke:#ffbfdd;stroke-width:7px;stroke-linecap:round;stroke-linejoin:round;stroke-miterlimit:1.5;"/><path d="M419.2,114.285l40,0" style="fill:none;stroke:#ffbfdd;stroke-width:7px;stroke-linecap:round;stroke-linejoin:round;stroke-miterlimit:1.5;"/><path d="M130.319,403.097l353.94,0" style="fill:none;stroke:#a0c9dc;stroke-width:7px;stroke-linecap:round;stroke-linejoin:round;stroke-miterlimit:1.5;"/><g transform="matrix(1,0,0,1,-1380,-962.679)"><text x="1795.9px" y="1143.03px" style="font-family:'ArialMT', 'Arial', sans-serif;font-size:20px;">expose</text><text x="1865.95px" y="1143.03px" style="font-family:'Menlo-Bold', 'Menlo', monospace;font-weight:700;font-size:20px;">redux actions</text><text x="2028.04px" y="1143.03px" style="font-family:'ArialMT', 'Arial', sans-serif;font-size:20px;">in</text><text x="1791.27px" y="1167.03px" style="font-family:'Menlo-Bold', 'Menlo', monospace;font-weight:700;font-size:20px;">fetchData()</text><text x="1929.28px" y="1167.03px" style="font-family:'ArialMT', 'Arial', sans-serif;font-size:20px;">static method</text></g><g transform="matrix(1,0,0,1,-1380,-674.627)"><text x="1883.6px" y="1143.03px" style="font-family:'ArialMT', 'Arial', sans-serif;font-size:20px;">updated</text><text x="1869.73px" y="1167.03px" style="font-family:'ArialMT', 'Arial', sans-serif;font-size:20px;">redux store</text></g><text x="701.081px" y="341.403px" style="font-family:'Menlo-Bold', 'Menlo', monospace;font-weight:700;font-size:20px;">renderToString()</text><path d="M537.96,355.226l15,-18l-30,0l15,18Z" style="fill:#a0c9dc;"/><path d="M726,258.928l-18,-15l0,30l18,-15Z" style="fill:#a0c9dc;"/><path d="M537.99,213.641l0,132.585" style="fill:none;stroke:#a0c9dc;stroke-width:7px;stroke-linecap:round;stroke-linejoin:round;stroke-miterlimit:1.5;"/><g id="_-react2" serif:id="©react"><circle cx="796.96" cy="258.661" r="9.124" style="fill:#61dafb;"/><ellipse cx="796.96" cy="258.661" rx="48.96" ry="18.694" style="fill:none;stroke:#61dafb;stroke-width:4.45px;"/><path d="M813.149,249.314c13.511,23.402 17.226,46.589 8.291,51.748c-8.935,5.159 -27.158,-9.652 -40.669,-33.054c-13.511,-23.401 -17.226,-46.589 -8.291,-51.747c8.935,-5.159 27.158,9.652 40.669,33.053Z" style="fill:none;stroke:#61dafb;stroke-width:4.45px;"/><path d="M813.149,268.008c-13.511,23.402 -31.734,38.213 -40.669,33.054c-8.935,-5.159 -5.22,-28.346 8.291,-51.748c13.511,-23.401 31.734,-38.212 40.669,-33.053c8.935,5.158 5.22,28.346 -8.291,51.747Z" style="fill:none;stroke:#61dafb;stroke-width:4.45px;"/></g><g id="route-params"><circle cx="115.228" cy="301" r="16" style="fill:#82b7d1;"/><text x="104.486px" y="306.919px" style="font-family:'ArialMT', 'Arial', sans-serif;font-size:20px;fill:#ecf4f8;">:id</text></g><g id="route-params1" serif:id="route-params"><circle cx="537.99" cy="301" r="16" style="fill:#82b7d1;"/><text x="527.248px" y="306.919px" style="font-family:'ArialMT', 'Arial', sans-serif;font-size:20px;fill:#ecf4f8;">:id</text></g><path d="M518.7,258.928l-9,-7.5l0,15l9,-7.5Z" style="fill:#528cff;"/><path d="M518.7,299.516l-9,-7.5l0,15l9,-7.5Z" style="fill:#a0c9dc;"/><path d="M211,258.928l299.984,0" style="fill:none;stroke:url(#_Linear1);stroke-width:3px;stroke-linecap:round;stroke-linejoin:round;stroke-miterlimit:1.5;"/><path d="M260.098,299.516l249.602,0" style="fill:none;stroke:#a0c9dc;stroke-width:3px;stroke-linecap:round;stroke-linejoin:round;stroke-miterlimit:1.5;"/><path d="M47.141,132.428l0,168.572l38.715,0" style="fill:none;stroke:#ddebf3;stroke-width:7px;stroke-linejoin:round;stroke-miterlimit:1.41421;"/><text x="135.508px" y="306.01px" style="font-family:'ArialMT', 'Arial', sans-serif;font-size:20px;fill:#5498b9;">route params</text><path d="M48,256.473l34.171,0" style="fill:none;stroke:#ddebf3;stroke-width:7px;stroke-linejoin:round;stroke-miterlimit:1.41421;"/><text x="253.682px" y="284.791px" style="font-family:'ArialMT', 'Arial', sans-serif;font-size:20px;">needed by actions with fetch</text><path d="M621,114.285l61,0l0,144.376l35,0" style="fill:none;stroke:#a0c9dc;stroke-width:7px;stroke-linecap:round;stroke-linejoin:round;stroke-miterlimit:1.5;"/><path d="M588.941,403.037l93.059,0l0,-144.376l35,0" style="fill:none;stroke:#a0c9dc;stroke-width:7px;stroke-linecap:round;stroke-linejoin:round;stroke-miterlimit:1.5;"/><g id="redux--store" serif:id="redux -store"><path d="M523.82,378.682c1.453,-5.949 7.308,-10.574 14.17,-10.574c6.863,0 12.717,4.625 14.171,10.574c5.557,-2.573 12.824,-0.879 17.103,4.486c4.278,5.365 4.312,12.826 0.567,17.672c5.477,2.741 8.683,9.478 7.156,16.168c-1.527,6.691 -7.339,11.369 -13.462,11.463c1.271,5.99 -1.996,12.698 -8.179,15.675c-6.183,2.978 -13.465,1.351 -17.356,-3.379c-3.891,4.73 -11.172,6.357 -17.355,3.379c-6.183,-2.977 -9.451,-9.685 -8.179,-15.675c-6.124,-0.094 -11.936,-4.772 -13.463,-11.463c-1.527,-6.69 1.68,-13.427 7.156,-16.168c-3.745,-4.846 -3.711,-12.307 0.568,-17.672c4.279,-5.365 11.545,-7.059 17.103,-4.486Z" style="fill:#cee3ed;"/><path d="M538.192,364.109l0.202,0.003l0.203,0.005l0.202,0.007l0.201,0.01l0.201,0.012l0.199,0.013l0.199,0.016l0.199,0.018l0.199,0.019l0.198,0.022l0.196,0.024l0.197,0.026l0.196,0.028l0.195,0.029l0.196,0.032l0.194,0.034l0.193,0.036l0.192,0.037l0.193,0.04l0.192,0.042l0.189,0.042l0.189,0.046l0.19,0.047l0.19,0.049l0.187,0.051l0.185,0.052l0.187,0.055l0.186,0.056l0.184,0.058l0.182,0.059l0.184,0.062l0.182,0.064l0.18,0.064l0.181,0.067l0.179,0.069l0.178,0.07l0.177,0.072l0.177,0.074l0.175,0.075l0.176,0.077l0.173,0.079l0.17,0.079l0.174,0.083l0.171,0.084l0.169,0.085l0.168,0.086l0.167,0.088l0.168,0.091l0.165,0.092l0.164,0.092l0.164,0.095l0.162,0.096l0.161,0.098l0.16,0.099l0.159,0.101l0.159,0.103l0.155,0.102l0.156,0.106l0.154,0.106l0.155,0.109l0.151,0.109l0.15,0.111l0.151,0.113l0.149,0.114l0.146,0.115l0.145,0.116l0.145,0.118l0.145,0.12l0.142,0.121l0.14,0.122l0.14,0.123l0.139,0.125l0.137,0.127l0.136,0.127l0.133,0.129l0.133,0.129l0.132,0.132l0.132,0.134l0.129,0.134l0.126,0.134l0.126,0.137l0.126,0.139l0.122,0.138l0.122,0.141l0.121,0.141l0.119,0.143l0.118,0.145l0.115,0.145l0.114,0.145l0.114,0.149l0.111,0.149l0.11,0.149l0.108,0.151l0.107,0.154l0.106,0.153l0.103,0.154l0.101,0.155l0.101,0.158l0.099,0.158l0.097,0.159l0.095,0.16l0.094,0.162l0.092,0.161l0.089,0.163l0.04,0.073l0.081,-0.015l0.184,-0.031l0.183,-0.029l0.183,-0.027l0.186,-0.026l0.185,-0.023l0.186,-0.022l0.186,-0.019l0.184,-0.018l0.185,-0.015l0.186,-0.013l0.185,-0.012l0.185,-0.01l0.188,-0.007l0.186,-0.006l0.183,-0.004l0.187,-0.001l0.187,0l0.186,0.002l0.185,0.004l0.186,0.006l0.185,0.007l0.187,0.01l0.185,0.012l0.186,0.013l0.185,0.015l0.185,0.018l0.185,0.019l0.185,0.021l0.185,0.023l0.184,0.024l0.185,0.027l0.183,0.028l0.185,0.031l0.184,0.032l0.182,0.034l0.184,0.036l0.183,0.038l0.182,0.039l0.182,0.041l0.183,0.044l0.18,0.045l0.182,0.047l0.182,0.049l0.179,0.05l0.179,0.052l0.181,0.054l0.18,0.057l0.179,0.058l0.178,0.059l0.178,0.062l0.176,0.063l0.176,0.065l0.178,0.067l0.175,0.068l0.177,0.071l0.174,0.073l0.172,0.073l0.176,0.076l0.173,0.079l0.173,0.079l0.17,0.081l0.17,0.083l0.173,0.085l0.169,0.087l0.168,0.087l0.168,0.091l0.168,0.092l0.166,0.093l0.169,0.097l0.164,0.097l0.163,0.098l0.165,0.102l0.164,0.103l0.161,0.104l0.16,0.106l0.161,0.108l0.16,0.11l0.159,0.112l0.158,0.113l0.156,0.115l0.154,0.116l0.155,0.118l0.154,0.121l0.153,0.122l0.151,0.124l0.151,0.125l0.15,0.128l0.149,0.129l0.147,0.13l0.146,0.133l0.145,0.134l0.143,0.135l0.144,0.138l0.142,0.14l0.139,0.14l0.14,0.143l0.139,0.146l0.135,0.145l0.136,0.148l0.134,0.149l0.132,0.151l0.132,0.153l0.13,0.155l0.128,0.156l0.128,0.158l0.126,0.159l0.124,0.161l0.121,0.161l0.12,0.162l0.117,0.162l0.116,0.164l0.115,0.166l0.112,0.166l0.109,0.165l0.109,0.168l0.106,0.169l0.104,0.168l0.103,0.17l0.1,0.171l0.098,0.17l0.097,0.172l0.096,0.175l0.092,0.173l0.09,0.173l0.089,0.176l0.087,0.175l0.085,0.176l0.083,0.177l0.081,0.176l0.079,0.177l0.077,0.179l0.076,0.18l0.073,0.179l0.072,0.178l0.07,0.183l0.067,0.18l0.066,0.18l0.064,0.183l0.062,0.182l0.06,0.183l0.058,0.181l0.056,0.184l0.055,0.184l0.052,0.183l0.05,0.184l0.049,0.184l0.047,0.186l0.045,0.185l0.042,0.185l0.042,0.185l0.039,0.187l0.037,0.184l0.035,0.186l0.034,0.189l0.032,0.186l0.029,0.185l0.028,0.186l0.026,0.188l0.024,0.187l0.022,0.187l0.021,0.187l0.018,0.187l0.017,0.187l0.015,0.187l0.012,0.188l0.011,0.187l0.009,0.187l0.008,0.186l0.005,0.189l0.004,0.187l0.001,0.185l0,0.188l-0.002,0.187l-0.004,0.187l-0.005,0.187l-0.008,0.185l-0.01,0.186l-0.011,0.187l-0.013,0.185l-0.015,0.186l-0.017,0.186l-0.019,0.184l-0.021,0.186l-0.022,0.185l-0.025,0.184l-0.026,0.183l-0.028,0.185l-0.03,0.184l-0.032,0.183l-0.034,0.181l-0.035,0.182l-0.038,0.183l-0.039,0.183l-0.042,0.181l-0.043,0.18l-0.045,0.181l-0.047,0.18l-0.048,0.179l-0.051,0.178l-0.052,0.179l-0.055,0.179l-0.056,0.177l-0.059,0.177l-0.06,0.176l-0.061,0.175l-0.065,0.177l-0.066,0.174l-0.067,0.172l-0.069,0.173l-0.072,0.174l-0.032,0.074l0.061,0.054l0.139,0.124l0.138,0.126l0.137,0.128l0.135,0.128l0.134,0.13l0.132,0.132l0.13,0.132l0.129,0.134l0.127,0.135l0.126,0.136l0.126,0.139l0.124,0.14l0.12,0.139l0.121,0.142l0.119,0.143l0.118,0.145l0.115,0.145l0.114,0.146l0.114,0.149l0.111,0.149l0.109,0.149l0.108,0.152l0.107,0.152l0.105,0.153l0.103,0.154l0.102,0.156l0.101,0.157l0.099,0.158l0.098,0.159l0.095,0.159l0.094,0.161l0.093,0.161l0.091,0.163l0.089,0.163l0.088,0.165l0.087,0.167l0.084,0.166l0.082,0.166l0.082,0.169l0.079,0.168l0.078,0.172l0.076,0.17l0.075,0.172l0.074,0.174l0.071,0.173l0.068,0.172l0.069,0.176l0.066,0.176l0.064,0.176l0.064,0.179l0.061,0.179l0.059,0.177l0.057,0.179l0.057,0.181l0.054,0.181l0.052,0.181l0.051,0.184l0.049,0.183l0.047,0.183l0.045,0.183l0.044,0.186l0.041,0.187l0.04,0.184l0.038,0.186l0.036,0.188l0.035,0.188l0.032,0.189l0.031,0.189l0.029,0.19l0.027,0.189l0.025,0.19l0.023,0.191l0.021,0.192l0.02,0.193l0.017,0.191l0.016,0.191l0.013,0.195l0.012,0.193l0.01,0.192l0.007,0.196l0.006,0.195l0.004,0.194l0.002,0.196l0,0.196l-0.003,0.194l-0.004,0.196l-0.006,0.197l-0.008,0.196l-0.011,0.196l-0.012,0.198l-0.014,0.198l-0.017,0.196l-0.018,0.198l-0.021,0.198l-0.023,0.197l-0.025,0.198l-0.027,0.198l-0.029,0.197l-0.031,0.197l-0.033,0.199l-0.036,0.199l-0.037,0.198l-0.04,0.198l-0.042,0.198l-0.044,0.197l-0.046,0.198l-0.048,0.196l-0.05,0.196l-0.052,0.194l-0.054,0.195l-0.056,0.193l-0.058,0.192l-0.06,0.191l-0.061,0.188l-0.063,0.189l-0.066,0.189l-0.067,0.186l-0.069,0.188l-0.071,0.185l-0.072,0.182l-0.075,0.184l-0.076,0.182l-0.078,0.18l-0.079,0.18l-0.081,0.178l-0.083,0.176l-0.085,0.177l-0.087,0.176l-0.087,0.172l-0.089,0.173l-0.092,0.173l-0.093,0.17l-0.094,0.169l-0.097,0.169l-0.097,0.166l-0.099,0.165l-0.1,0.165l-0.103,0.164l-0.104,0.161l-0.105,0.161l-0.106,0.159l-0.109,0.158l-0.109,0.157l-0.112,0.156l-0.112,0.154l-0.114,0.153l-0.115,0.152l-0.116,0.15l-0.119,0.149l-0.119,0.148l-0.122,0.147l-0.121,0.145l-0.123,0.143l-0.125,0.142l-0.126,0.141l-0.128,0.14l-0.129,0.139l-0.129,0.136l-0.131,0.135l-0.133,0.134l-0.132,0.132l-0.136,0.132l-0.136,0.13l-0.136,0.127l-0.139,0.128l-0.141,0.126l-0.139,0.122l-0.142,0.123l-0.144,0.122l-0.143,0.119l-0.144,0.117l-0.147,0.117l-0.149,0.115l-0.147,0.113l-0.149,0.112l-0.151,0.11l-0.152,0.109l-0.153,0.107l-0.152,0.105l-0.155,0.104l-0.157,0.103l-0.155,0.1l-0.157,0.099l-0.159,0.098l-0.159,0.096l-0.161,0.094l-0.161,0.093l-0.162,0.09l-0.165,0.091l-0.163,0.087l-0.163,0.085l-0.167,0.085l-0.167,0.083l-0.167,0.08l-0.169,0.079l-0.169,0.078l-0.169,0.074l-0.171,0.075l-0.172,0.072l-0.172,0.07l-0.173,0.068l-0.173,0.066l-0.174,0.065l-0.176,0.063l-0.176,0.061l-0.177,0.059l-0.178,0.058l-0.178,0.055l-0.178,0.054l-0.179,0.051l-0.079,0.022l-0.004,0.082l-0.01,0.185l-0.013,0.186l-0.014,0.188l-0.017,0.186l-0.018,0.183l-0.02,0.186l-0.023,0.185l-0.024,0.185l-0.026,0.185l-0.028,0.183l-0.03,0.183l-0.032,0.184l-0.034,0.183l-0.036,0.181l-0.038,0.182l-0.039,0.183l-0.042,0.181l-0.043,0.181l-0.046,0.18l-0.047,0.18l-0.048,0.178l-0.051,0.18l-0.053,0.179l-0.054,0.177l-0.056,0.176l-0.058,0.178l-0.06,0.176l-0.061,0.175l-0.064,0.177l-0.065,0.173l-0.067,0.173l-0.069,0.175l-0.071,0.173l-0.072,0.171l-0.073,0.17l-0.076,0.171l-0.078,0.171l-0.079,0.168l-0.081,0.17l-0.083,0.167l-0.084,0.166l-0.086,0.167l-0.088,0.165l-0.09,0.166l-0.09,0.163l-0.093,0.163l-0.095,0.162l-0.095,0.161l-0.099,0.161l-0.1,0.161l-0.101,0.158l-0.102,0.158l-0.105,0.157l-0.106,0.156l-0.108,0.156l-0.109,0.153l-0.11,0.153l-0.113,0.153l-0.115,0.152l-0.116,0.149l-0.117,0.15l-0.119,0.149l-0.121,0.147l-0.122,0.146l-0.124,0.145l-0.125,0.143l-0.127,0.143l-0.129,0.143l-0.131,0.141l-0.13,0.138l-0.133,0.138l-0.136,0.139l-0.137,0.136l-0.137,0.134l-0.139,0.133l-0.141,0.132l-0.143,0.131l-0.144,0.131l-0.145,0.127l-0.146,0.127l-0.15,0.127l-0.15,0.124l-0.15,0.123l-0.153,0.121l-0.155,0.121l-0.157,0.12l-0.157,0.117l-0.158,0.115l-0.16,0.115l-0.162,0.113l-0.163,0.112l-0.165,0.11l-0.166,0.109l-0.167,0.107l-0.169,0.105l-0.169,0.104l-0.172,0.102l-0.174,0.101l-0.173,0.099l-0.175,0.097l-0.178,0.096l-0.178,0.094l-0.18,0.093l-0.181,0.09l-0.181,0.089l-0.184,0.087l-0.183,0.085l-0.185,0.083l-0.185,0.081l-0.185,0.078l-0.186,0.077l-0.184,0.074l-0.188,0.073l-0.188,0.07l-0.186,0.068l-0.188,0.066l-0.187,0.064l-0.189,0.062l-0.19,0.061l-0.187,0.057l-0.189,0.056l-0.191,0.054l-0.19,0.052l-0.189,0.049l-0.19,0.048l-0.189,0.046l-0.193,0.044l-0.19,0.041l-0.19,0.04l-0.192,0.038l-0.191,0.035l-0.19,0.034l-0.192,0.032l-0.193,0.029l-0.188,0.028l-0.191,0.026l-0.193,0.024l-0.193,0.021l-0.189,0.02l-0.192,0.018l-0.192,0.016l-0.19,0.014l-0.19,0.012l-0.191,0.01l-0.191,0.009l-0.192,0.006l-0.191,0.005l-0.19,0.002l-0.189,0.001l-0.19,-0.002l-0.189,-0.003l-0.191,-0.005l-0.189,-0.007l-0.188,-0.008l-0.19,-0.011l-0.189,-0.013l-0.187,-0.014l-0.188,-0.016l-0.188,-0.018l-0.188,-0.02l-0.186,-0.022l-0.186,-0.024l-0.187,-0.025l-0.185,-0.027l-0.185,-0.029l-0.186,-0.032l-0.185,-0.032l-0.184,-0.035l-0.184,-0.036l-0.181,-0.038l-0.183,-0.04l-0.184,-0.042l-0.181,-0.044l-0.18,-0.045l-0.181,-0.047l-0.181,-0.049l-0.179,-0.051l-0.178,-0.052l-0.18,-0.055l-0.177,-0.056l-0.177,-0.057l-0.176,-0.06l-0.175,-0.061l-0.176,-0.063l-0.173,-0.065l-0.174,-0.066l-0.174,-0.069l-0.172,-0.07l-0.171,-0.072l-0.171,-0.073l-0.17,-0.076l-0.169,-0.077l-0.17,-0.079l-0.165,-0.08l-0.167,-0.082l-0.166,-0.084l-0.166,-0.087l-0.165,-0.087l-0.161,-0.089l-0.162,-0.091l-0.163,-0.093l-0.161,-0.094l-0.158,-0.096l-0.157,-0.097l-0.158,-0.1l-0.159,-0.102l-0.154,-0.103l-0.154,-0.104l-0.153,-0.107l-0.152,-0.107l-0.067,-0.049l-0.066,0.049l-0.153,0.108l-0.152,0.106l-0.154,0.104l-0.156,0.103l-0.156,0.102l-0.159,0.1l-0.158,0.097l-0.158,0.096l-0.161,0.094l-0.161,0.093l-0.163,0.091l-0.163,0.089l-0.163,0.087l-0.167,0.087l-0.165,0.084l-0.167,0.082l-0.165,0.08l-0.17,0.079l-0.17,0.078l-0.169,0.075l-0.172,0.073l-0.171,0.072l-0.171,0.07l-0.175,0.069l-0.173,0.066l-0.174,0.065l-0.175,0.063l-0.175,0.061l-0.177,0.06l-0.177,0.058l-0.177,0.055l-0.179,0.055l-0.179,0.052l-0.179,0.051l-0.18,0.049l-0.181,0.047l-0.181,0.045l-0.18,0.044l-0.184,0.042l-0.183,0.04l-0.182,0.038l-0.184,0.036l-0.184,0.035l-0.184,0.032l-0.186,0.032l-0.185,0.029l-0.185,0.027l-0.188,0.025l-0.185,0.024l-0.186,0.022l-0.188,0.02l-0.189,0.018l-0.188,0.016l-0.187,0.014l-0.189,0.013l-0.19,0.011l-0.187,0.008l-0.189,0.007l-0.191,0.005l-0.19,0.003l-0.189,0.002l-0.19,-0.001l-0.189,-0.002l-0.192,-0.005l-0.191,-0.006l-0.191,-0.009l-0.192,-0.01l-0.19,-0.012l-0.189,-0.014l-0.193,-0.016l-0.191,-0.018l-0.19,-0.02l-0.193,-0.021l-0.192,-0.024l-0.191,-0.026l-0.189,-0.028l-0.192,-0.029l-0.192,-0.032l-0.19,-0.034l-0.192,-0.035l-0.191,-0.038l-0.19,-0.04l-0.191,-0.041l-0.192,-0.044l-0.189,-0.046l-0.19,-0.047l-0.19,-0.05l-0.19,-0.052l-0.19,-0.054l-0.189,-0.056l-0.188,-0.058l-0.189,-0.06l-0.189,-0.062l-0.188,-0.064l-0.188,-0.066l-0.186,-0.068l-0.187,-0.07l-0.188,-0.073l-0.185,-0.074l-0.186,-0.077l-0.185,-0.078l-0.184,-0.081l-0.185,-0.083l-0.184,-0.085l-0.182,-0.087l-0.182,-0.089l-0.182,-0.09l-0.179,-0.093l-0.178,-0.094l-0.178,-0.096l-0.175,-0.097l-0.174,-0.099l-0.173,-0.101l-0.172,-0.102l-0.17,-0.104l-0.169,-0.105l-0.166,-0.107l-0.167,-0.109l-0.165,-0.11l-0.163,-0.112l-0.161,-0.113l-0.16,-0.114l-0.159,-0.117l-0.157,-0.116l-0.156,-0.12l-0.155,-0.121l-0.153,-0.121l-0.151,-0.123l-0.15,-0.124l-0.149,-0.127l-0.147,-0.127l-0.145,-0.128l-0.144,-0.13l-0.142,-0.13l-0.141,-0.133l-0.14,-0.133l-0.137,-0.135l-0.137,-0.136l-0.135,-0.137l-0.133,-0.139l-0.131,-0.138l-0.131,-0.142l-0.129,-0.142l-0.126,-0.142l-0.126,-0.144l-0.123,-0.145l-0.122,-0.146l-0.122,-0.148l-0.119,-0.149l-0.117,-0.149l-0.115,-0.148l-0.114,-0.152l-0.114,-0.154l-0.111,-0.153l-0.109,-0.154l-0.107,-0.155l-0.107,-0.156l-0.104,-0.157l-0.103,-0.158l-0.101,-0.16l-0.099,-0.158l-0.098,-0.161l-0.097,-0.163l-0.094,-0.161l-0.093,-0.162l-0.092,-0.165l-0.089,-0.165l-0.087,-0.164l-0.087,-0.168l-0.084,-0.167l-0.082,-0.166l-0.081,-0.169l-0.08,-0.171l-0.077,-0.169l-0.075,-0.169l-0.075,-0.172l-0.072,-0.173l-0.071,-0.172l-0.068,-0.172l-0.067,-0.174l-0.066,-0.176l-0.063,-0.175l-0.061,-0.175l-0.06,-0.176l-0.058,-0.176l-0.056,-0.178l-0.055,-0.178l-0.052,-0.178l-0.051,-0.178l-0.049,-0.181l-0.047,-0.18l-0.045,-0.179l-0.044,-0.181l-0.041,-0.181l-0.04,-0.181l-0.037,-0.182l-0.036,-0.184l-0.034,-0.182l-0.032,-0.183l-0.03,-0.184l-0.029,-0.185l-0.025,-0.183l-0.025,-0.183l-0.022,-0.187l-0.021,-0.186l-0.018,-0.183l-0.016,-0.186l-0.015,-0.188l-0.012,-0.186l-0.01,-0.185l-0.004,-0.082l-0.079,-0.022l-0.18,-0.052l-0.178,-0.053l-0.177,-0.055l-0.179,-0.058l-0.176,-0.059l-0.177,-0.061l-0.176,-0.063l-0.172,-0.064l-0.174,-0.067l-0.174,-0.069l-0.171,-0.069l-0.172,-0.072l-0.172,-0.075l-0.169,-0.075l-0.169,-0.077l-0.168,-0.079l-0.168,-0.081l-0.166,-0.082l-0.167,-0.085l-0.163,-0.085l-0.164,-0.088l-0.165,-0.09l-0.161,-0.09l-0.162,-0.093l-0.16,-0.094l-0.159,-0.096l-0.159,-0.098l-0.157,-0.099l-0.156,-0.1l-0.157,-0.103l-0.154,-0.104l-0.152,-0.104l-0.154,-0.108l-0.152,-0.11l-0.151,-0.11l-0.148,-0.11l-0.148,-0.114l-0.148,-0.115l-0.146,-0.117l-0.145,-0.117l-0.145,-0.12l-0.142,-0.121l-0.142,-0.122l-0.141,-0.124l-0.14,-0.126l-0.138,-0.126l-0.136,-0.128l-0.137,-0.13l-0.134,-0.131l-0.134,-0.133l-0.132,-0.134l-0.131,-0.134l-0.13,-0.138l-0.13,-0.139l-0.126,-0.138l-0.126,-0.141l-0.125,-0.143l-0.123,-0.143l-0.123,-0.146l-0.121,-0.147l-0.119,-0.147l-0.117,-0.148l-0.117,-0.151l-0.116,-0.152l-0.114,-0.153l-0.112,-0.154l-0.111,-0.155l-0.111,-0.159l-0.107,-0.157l-0.106,-0.158l-0.106,-0.162l-0.104,-0.162l-0.102,-0.163l-0.1,-0.164l-0.1,-0.166l-0.098,-0.168l-0.095,-0.167l-0.095,-0.169l-0.093,-0.171l-0.09,-0.171l-0.09,-0.172l-0.088,-0.175l-0.087,-0.175l-0.084,-0.175l-0.083,-0.178l-0.081,-0.178l-0.081,-0.181l-0.077,-0.181l-0.075,-0.179l-0.075,-0.183l-0.073,-0.186l-0.071,-0.185l-0.068,-0.184l-0.068,-0.188l-0.065,-0.189l-0.063,-0.187l-0.062,-0.19l-0.059,-0.191l-0.059,-0.193l-0.055,-0.192l-0.054,-0.195l-0.052,-0.194l-0.05,-0.194l-0.048,-0.198l-0.047,-0.198l-0.044,-0.197l-0.042,-0.199l-0.04,-0.199l-0.037,-0.196l-0.035,-0.197l-0.034,-0.199l-0.031,-0.199l-0.029,-0.197l-0.027,-0.198l-0.025,-0.198l-0.023,-0.199l-0.02,-0.196l-0.019,-0.196l-0.016,-0.2l-0.014,-0.196l-0.013,-0.196l-0.01,-0.198l-0.008,-0.196l-0.007,-0.197l-0.004,-0.196l-0.002,-0.196l0,-0.194l0.001,-0.196l0.004,-0.195l0.006,-0.194l0.008,-0.194l0.01,-0.194l0.011,-0.193l0.014,-0.193l0.015,-0.193l0.018,-0.193l0.019,-0.191l0.021,-0.19l0.024,-0.193l0.025,-0.19l0.027,-0.191l0.029,-0.189l0.03,-0.188l0.033,-0.189l0.034,-0.186l0.036,-0.188l0.039,-0.188l0.039,-0.186l0.042,-0.185l0.043,-0.185l0.046,-0.184l0.047,-0.184l0.049,-0.183l0.05,-0.182l0.053,-0.182l0.054,-0.181l0.056,-0.179l0.058,-0.181l0.059,-0.179l0.061,-0.178l0.063,-0.177l0.064,-0.177l0.067,-0.176l0.068,-0.175l0.069,-0.174l0.072,-0.174l0.072,-0.171l0.075,-0.173l0.076,-0.17l0.078,-0.17l0.08,-0.171l0.081,-0.168l0.083,-0.166l0.085,-0.167l0.086,-0.166l0.088,-0.165l0.089,-0.163l0.09,-0.161l0.093,-0.162l0.095,-0.164l0.096,-0.159l0.096,-0.157l0.099,-0.157l0.1,-0.157l0.103,-0.157l0.104,-0.154l0.104,-0.153l0.107,-0.152l0.108,-0.152l0.11,-0.149l0.112,-0.15l0.112,-0.148l0.114,-0.146l0.116,-0.145l0.118,-0.145l0.119,-0.143l0.12,-0.141l0.121,-0.14l0.123,-0.14l0.126,-0.139l0.126,-0.136l0.128,-0.136l0.128,-0.133l0.131,-0.132l0.132,-0.132l0.133,-0.129l0.136,-0.13l0.136,-0.127l0.138,-0.126l0.139,-0.124l0.062,-0.054l-0.033,-0.076l-0.07,-0.17l-0.07,-0.174l-0.068,-0.175l-0.066,-0.174l-0.063,-0.174l-0.063,-0.176l-0.06,-0.176l-0.058,-0.177l-0.057,-0.179l-0.054,-0.176l-0.052,-0.178l-0.051,-0.18l-0.049,-0.18l-0.047,-0.18l-0.044,-0.178l-0.044,-0.182l-0.041,-0.182l-0.04,-0.182l-0.037,-0.181l-0.036,-0.182l-0.033,-0.183l-0.032,-0.184l-0.03,-0.183l-0.028,-0.183l-0.027,-0.185l-0.024,-0.185l-0.023,-0.184l-0.02,-0.184l-0.019,-0.188l-0.017,-0.184l-0.015,-0.185l-0.014,-0.188l-0.011,-0.185l-0.009,-0.185l-0.008,-0.188l-0.006,-0.187l-0.004,-0.185l-0.002,-0.186l0,-0.187l0.002,-0.189l0.003,-0.185l0.006,-0.188l0.007,-0.189l0.009,-0.185l0.011,-0.187l0.013,-0.188l0.015,-0.187l0.016,-0.187l0.019,-0.187l0.02,-0.187l0.022,-0.187l0.025,-0.187l0.025,-0.186l0.029,-0.188l0.029,-0.187l0.032,-0.186l0.033,-0.186l0.036,-0.185l0.037,-0.187l0.039,-0.186l0.041,-0.185l0.043,-0.186l0.045,-0.184l0.047,-0.185l0.048,-0.184l0.051,-0.185l0.052,-0.184l0.055,-0.183l0.055,-0.183l0.059,-0.183l0.06,-0.183l0.062,-0.181l0.063,-0.181l0.066,-0.182l0.068,-0.182l0.07,-0.179l0.071,-0.18l0.074,-0.18l0.075,-0.178l0.077,-0.179l0.079,-0.178l0.081,-0.176l0.083,-0.177l0.086,-0.178l0.086,-0.173l0.089,-0.175l0.091,-0.175l0.093,-0.173l0.094,-0.173l0.097,-0.172l0.099,-0.172l0.101,-0.171l0.101,-0.168l0.104,-0.169l0.107,-0.169l0.108,-0.167l0.11,-0.167l0.112,-0.166l0.114,-0.164l0.116,-0.165l0.118,-0.162l0.12,-0.162l0.121,-0.162l0.123,-0.159l0.127,-0.16l0.127,-0.158l0.129,-0.156l0.129,-0.155l0.132,-0.152l0.133,-0.152l0.134,-0.15l0.135,-0.147l0.136,-0.145l0.139,-0.146l0.14,-0.143l0.14,-0.141l0.14,-0.138l0.143,-0.138l0.145,-0.137l0.144,-0.133l0.146,-0.132l0.149,-0.132l0.147,-0.128l0.149,-0.127l0.152,-0.126l0.151,-0.124l0.154,-0.123l0.154,-0.12l0.153,-0.117l0.156,-0.117l0.156,-0.115l0.159,-0.114l0.158,-0.111l0.159,-0.11l0.161,-0.108l0.161,-0.106l0.161,-0.104l0.163,-0.102l0.165,-0.102l0.164,-0.099l0.165,-0.097l0.166,-0.096l0.167,-0.094l0.168,-0.092l0.169,-0.091l0.168,-0.087l0.169,-0.087l0.171,-0.085l0.172,-0.083l0.17,-0.081l0.172,-0.079l0.175,-0.079l0.174,-0.076l0.172,-0.073l0.175,-0.073l0.176,-0.07l0.176,-0.069l0.177,-0.067l0.176,-0.065l0.177,-0.063l0.178,-0.062l0.177,-0.059l0.18,-0.058l0.18,-0.057l0.18,-0.054l0.179,-0.052l0.18,-0.05l0.182,-0.049l0.181,-0.047l0.181,-0.045l0.182,-0.044l0.183,-0.041l0.181,-0.039l0.184,-0.038l0.183,-0.036l0.182,-0.034l0.184,-0.032l0.186,-0.031l0.183,-0.028l0.184,-0.027l0.185,-0.024l0.185,-0.023l0.184,-0.021l0.186,-0.019l0.185,-0.018l0.185,-0.015l0.185,-0.013l0.185,-0.012l0.188,-0.01l0.185,-0.007l0.186,-0.006l0.185,-0.004l0.185,-0.002l0.187,0l0.187,0.001l0.184,0.004l0.185,0.006l0.189,0.007l0.185,0.01l0.185,0.012l0.186,0.013l0.184,0.015l0.185,0.018l0.186,0.019l0.185,0.022l0.186,0.023l0.185,0.026l0.183,0.027l0.184,0.029l0.184,0.031l0.081,0.015l0.039,-0.072l0.09,-0.164l0.091,-0.161l0.094,-0.162l0.096,-0.161l0.097,-0.159l0.099,-0.157l0.1,-0.157l0.101,-0.155l0.104,-0.155l0.106,-0.155l0.106,-0.152l0.109,-0.151l0.11,-0.15l0.11,-0.147l0.114,-0.149l0.115,-0.147l0.115,-0.144l0.118,-0.145l0.12,-0.144l0.119,-0.14l0.121,-0.14l0.123,-0.138l0.126,-0.14l0.127,-0.137l0.126,-0.134l0.13,-0.135l0.13,-0.133l0.132,-0.131l0.133,-0.13l0.135,-0.129l0.135,-0.127l0.136,-0.126l0.139,-0.126l0.141,-0.124l0.14,-0.122l0.141,-0.119l0.144,-0.12l0.146,-0.119l0.146,-0.117l0.146,-0.114l0.149,-0.114l0.151,-0.113l0.149,-0.11l0.153,-0.11l0.154,-0.109l0.153,-0.106l0.156,-0.105l0.156,-0.104l0.159,-0.102l0.158,-0.101l0.16,-0.099l0.162,-0.098l0.162,-0.096l0.164,-0.095l0.163,-0.092l0.165,-0.092l0.168,-0.09l0.168,-0.089l0.167,-0.086l0.17,-0.085l0.171,-0.084l0.172,-0.082l0.172,-0.08l0.173,-0.079l0.175,-0.077l0.176,-0.075l0.177,-0.074l0.177,-0.072l0.177,-0.07l0.179,-0.068l0.181,-0.068l0.18,-0.064l0.183,-0.064l0.184,-0.062l0.182,-0.059l0.184,-0.058l0.185,-0.056l0.187,-0.055l0.186,-0.052l0.187,-0.051l0.19,-0.049l0.189,-0.047l0.189,-0.045l0.189,-0.043l0.193,-0.042l0.193,-0.04l0.191,-0.037l0.194,-0.036l0.194,-0.034l0.196,-0.032l0.195,-0.029l0.195,-0.028l0.197,-0.026l0.196,-0.024l0.198,-0.021l0.2,-0.02l0.199,-0.018l0.198,-0.016l0.199,-0.013l0.201,-0.012l0.202,-0.01l0.201,-0.007l0.203,-0.005l0.202,-0.003l0.202,-0.002l0.202,0.002Zm-0.362,3.999l-0.161,0.003l-0.16,0.004l-0.159,0.006l-0.159,0.007l-0.159,0.01l-0.158,0.01l-0.158,0.013l-0.157,0.014l-0.157,0.016l-0.157,0.017l-0.155,0.019l-0.156,0.02l-0.155,0.022l-0.154,0.024l-0.154,0.025l-0.154,0.027l-0.153,0.028l-0.152,0.029l-0.152,0.032l-0.151,0.032l-0.151,0.035l-0.15,0.035l-0.149,0.038l-0.149,0.038l-0.148,0.04l-0.148,0.042l-0.147,0.043l-0.146,0.044l-0.146,0.046l-0.145,0.048l-0.145,0.048l-0.143,0.05l-0.143,0.052l-0.143,0.052l-0.141,0.055l-0.141,0.055l-0.14,0.057l-0.14,0.058l-0.139,0.06l-0.137,0.061l-0.138,0.062l-0.136,0.063l-0.136,0.065l-0.134,0.066l-0.134,0.067l-0.134,0.069l-0.132,0.07l-0.131,0.071l-0.131,0.072l-0.13,0.074l-0.129,0.074l-0.128,0.076l-0.127,0.077l-0.126,0.079l-0.126,0.079l-0.124,0.081l-0.124,0.081l-0.123,0.083l-0.121,0.084l-0.121,0.086l-0.12,0.086l-0.119,0.087l-0.117,0.089l-0.117,0.089l-0.116,0.091l-0.115,0.092l-0.114,0.093l-0.112,0.094l-0.112,0.094l-0.111,0.096l-0.11,0.097l-0.108,0.098l-0.108,0.099l-0.106,0.1l-0.105,0.101l-0.105,0.102l-0.103,0.103l-0.102,0.104l-0.1,0.105l-0.1,0.105l-0.099,0.107l-0.097,0.108l-0.096,0.108l-0.095,0.11l-0.094,0.11l-0.092,0.111l-0.092,0.112l-0.09,0.113l-0.089,0.114l-0.088,0.115l-0.086,0.115l-0.085,0.116l-0.084,0.117l-0.083,0.118l-0.081,0.119l-0.08,0.119l-0.079,0.121l-0.077,0.121l-0.076,0.121l-0.075,0.123l-0.073,0.123l-0.072,0.124l-0.071,0.125l-0.069,0.125l-0.068,0.127l-0.067,0.126l-0.065,0.128l-0.063,0.128l-0.062,0.129l-0.061,0.129l-0.06,0.131l-0.057,0.13l-0.057,0.132l-0.055,0.132l-0.053,0.132l-0.052,0.134l-0.051,0.133l-0.049,0.135l-0.047,0.135l-0.046,0.135l-0.044,0.136l-0.043,0.137l-0.041,0.137l-0.04,0.138l-0.038,0.138l-0.036,0.139l-0.035,0.139l-0.131,-0.06l-0.131,-0.057l-0.132,-0.057l-0.132,-0.055l-0.133,-0.053l-0.134,-0.052l-0.134,-0.05l-0.134,-0.049l-0.135,-0.047l-0.136,-0.045l-0.136,-0.044l-0.137,-0.043l-0.137,-0.041l-0.137,-0.039l-0.138,-0.038l-0.138,-0.036l-0.139,-0.035l-0.139,-0.033l-0.14,-0.032l-0.14,-0.03l-0.14,-0.028l-0.141,-0.028l-0.14,-0.025l-0.142,-0.024l-0.141,-0.023l-0.142,-0.021l-0.142,-0.019l-0.143,-0.018l-0.142,-0.017l-0.143,-0.015l-0.143,-0.013l-0.144,-0.012l-0.143,-0.01l-0.144,-0.009l-0.144,-0.008l-0.144,-0.006l-0.144,-0.004l-0.144,-0.003l-0.144,-0.001l-0.145,0l-0.144,0.001l-0.145,0.003l-0.145,0.005l-0.145,0.006l-0.144,0.008l-0.145,0.009l-0.145,0.01l-0.145,0.012l-0.145,0.014l-0.144,0.014l-0.145,0.017l-0.145,0.018l-0.144,0.019l-0.145,0.021l-0.144,0.022l-0.145,0.024l-0.144,0.025l-0.144,0.027l-0.144,0.028l-0.143,0.03l-0.144,0.031l-0.143,0.033l-0.143,0.034l-0.143,0.035l-0.143,0.037l-0.142,0.038l-0.142,0.04l-0.142,0.042l-0.142,0.042l-0.141,0.044l-0.141,0.046l-0.141,0.047l-0.14,0.049l-0.14,0.05l-0.14,0.051l-0.139,0.053l-0.139,0.054l-0.138,0.056l-0.138,0.057l-0.138,0.058l-0.137,0.06l-0.136,0.062l-0.137,0.062l-0.135,0.065l-0.135,0.065l-0.135,0.067l-0.134,0.069l-0.134,0.07l-0.133,0.071l-0.132,0.073l-0.132,0.074l-0.131,0.075l-0.131,0.077l-0.13,0.079l-0.129,0.08l-0.129,0.081l-0.128,0.082l-0.128,0.084l-0.126,0.086l-0.126,0.086l-0.126,0.088l-0.124,0.09l-0.124,0.091l-0.123,0.092l-0.122,0.094l-0.122,0.095l-0.121,0.096l-0.119,0.098l-0.119,0.099l-0.119,0.101l-0.117,0.102l-0.117,0.103l-0.115,0.105l-0.115,0.106l-0.114,0.107l-0.113,0.109l-0.112,0.11l-0.111,0.112l-0.11,0.113l-0.109,0.114l-0.108,0.116l-0.107,0.117l-0.106,0.118l-0.105,0.12l-0.104,0.121l-0.103,0.122l-0.102,0.124l-0.101,0.125l-0.1,0.126l-0.097,0.127l-0.097,0.128l-0.095,0.128l-0.093,0.129l-0.092,0.13l-0.09,0.13l-0.089,0.131l-0.087,0.132l-0.085,0.133l-0.084,0.133l-0.083,0.133l-0.081,0.135l-0.079,0.134l-0.078,0.136l-0.076,0.136l-0.075,0.137l-0.074,0.137l-0.071,0.137l-0.071,0.138l-0.068,0.139l-0.067,0.139l-0.066,0.14l-0.064,0.14l-0.063,0.14l-0.061,0.141l-0.059,0.142l-0.058,0.141l-0.057,0.143l-0.055,0.142l-0.053,0.143l-0.052,0.143l-0.051,0.144l-0.049,0.144l-0.047,0.144l-0.046,0.144l-0.045,0.145l-0.043,0.145l-0.041,0.146l-0.04,0.145l-0.038,0.146l-0.037,0.146l-0.036,0.146l-0.034,0.147l-0.032,0.146l-0.031,0.147l-0.029,0.147l-0.028,0.147l-0.027,0.147l-0.025,0.147l-0.023,0.147l-0.022,0.148l-0.021,0.147l-0.019,0.148l-0.017,0.147l-0.016,0.148l-0.015,0.147l-0.013,0.148l-0.012,0.148l-0.01,0.147l-0.009,0.148l-0.007,0.147l-0.006,0.148l-0.004,0.147l-0.003,0.147l-0.001,0.147l0,0.147l0.002,0.147l0.003,0.147l0.004,0.146l0.006,0.147l0.008,0.146l0.009,0.146l0.01,0.145l0.012,0.146l0.013,0.145l0.015,0.145l0.016,0.145l0.018,0.145l0.019,0.144l0.02,0.144l0.022,0.143l0.024,0.143l0.025,0.143l0.026,0.143l0.028,0.142l0.029,0.141l0.031,0.142l0.032,0.141l0.033,0.14l0.035,0.14l0.037,0.14l0.037,0.139l0.04,0.138l0.04,0.138l0.042,0.138l0.044,0.137l0.045,0.137l0.046,0.135l0.048,0.136l0.049,0.135l0.051,0.134l0.052,0.134l0.053,0.133l0.055,0.132l0.056,0.132l0.058,0.131l0.059,0.13l0.061,0.13l0.062,0.129l0.063,0.128l0.065,0.127l0.066,0.127l0.068,0.126l0.069,0.126l0.07,0.124l0.072,0.124l0.073,0.123l0.074,0.122l0.076,0.121l0.078,0.12l0.079,0.12l0.08,0.118l0.081,0.118l0.083,0.117l0.084,0.116l0.086,0.115l0.087,0.114l-0.128,0.065l-0.127,0.066l-0.126,0.068l-0.125,0.07l-0.125,0.07l-0.124,0.072l-0.122,0.074l-0.122,0.075l-0.121,0.076l-0.121,0.078l-0.119,0.079l-0.118,0.08l-0.118,0.082l-0.116,0.083l-0.116,0.084l-0.114,0.085l-0.114,0.087l-0.113,0.088l-0.111,0.09l-0.111,0.09l-0.11,0.092l-0.109,0.093l-0.108,0.094l-0.107,0.096l-0.106,0.096l-0.104,0.098l-0.104,0.099l-0.103,0.1l-0.102,0.101l-0.101,0.103l-0.099,0.103l-0.099,0.105l-0.098,0.106l-0.096,0.106l-0.096,0.108l-0.094,0.109l-0.093,0.11l-0.093,0.111l-0.091,0.112l-0.09,0.113l-0.089,0.114l-0.088,0.115l-0.086,0.116l-0.086,0.117l-0.084,0.118l-0.083,0.119l-0.082,0.12l-0.081,0.12l-0.08,0.122l-0.079,0.122l-0.077,0.124l-0.076,0.124l-0.075,0.125l-0.074,0.126l-0.073,0.127l-0.071,0.128l-0.07,0.128l-0.069,0.129l-0.068,0.13l-0.066,0.131l-0.065,0.132l-0.064,0.132l-0.063,0.133l-0.061,0.134l-0.06,0.135l-0.059,0.135l-0.058,0.136l-0.056,0.137l-0.055,0.137l-0.053,0.138l-0.052,0.139l-0.051,0.139l-0.05,0.14l-0.048,0.14l-0.047,0.142l-0.045,0.141l-0.045,0.143l-0.042,0.143l-0.042,0.143l-0.04,0.144l-0.038,0.145l-0.038,0.145l-0.035,0.145l-0.035,0.147l-0.033,0.146l-0.031,0.147l-0.03,0.148l-0.029,0.148l-0.027,0.148l-0.026,0.149l-0.024,0.149l-0.023,0.15l-0.021,0.15l-0.02,0.151l-0.018,0.151l-0.017,0.151l-0.015,0.152l-0.014,0.151l-0.013,0.153l-0.01,0.152l-0.009,0.153l-0.008,0.153l-0.006,0.154l-0.005,0.154l-0.003,0.154l-0.001,0.154l0,0.154l0.002,0.155l0.003,0.155l0.005,0.155l0.006,0.156l0.009,0.155l0.009,0.156l0.012,0.156l0.013,0.156l0.014,0.156l0.017,0.156l0.018,0.156l0.019,0.157l0.022,0.156l0.023,0.157l0.024,0.157l0.027,0.156l0.028,0.157l0.03,0.157l0.031,0.157l0.033,0.157l0.035,0.156l0.037,0.157l0.038,0.155l0.04,0.155l0.041,0.155l0.042,0.153l0.045,0.153l0.045,0.152l0.048,0.151l0.048,0.15l0.051,0.149l0.051,0.149l0.053,0.148l0.055,0.147l0.056,0.146l0.057,0.145l0.059,0.145l0.06,0.144l0.062,0.142l0.062,0.142l0.065,0.141l0.065,0.141l0.067,0.139l0.068,0.138l0.07,0.138l0.071,0.136l0.072,0.136l0.073,0.134l0.075,0.134l0.076,0.133l0.077,0.132l0.078,0.131l0.08,0.13l0.081,0.129l0.082,0.128l0.083,0.127l0.084,0.126l0.086,0.125l0.086,0.124l0.088,0.123l0.089,0.122l0.09,0.121l0.091,0.12l0.092,0.118l0.094,0.118l0.094,0.117l0.095,0.116l0.097,0.114l0.097,0.114l0.099,0.112l0.099,0.111l0.101,0.111l0.101,0.109l0.103,0.108l0.103,0.107l0.105,0.105l0.105,0.105l0.106,0.103l0.108,0.103l0.108,0.101l0.109,0.1l0.11,0.098l0.111,0.098l0.111,0.096l0.113,0.095l0.113,0.094l0.114,0.093l0.115,0.092l0.116,0.09l0.117,0.089l0.117,0.088l0.118,0.086l0.119,0.086l0.12,0.084l0.12,0.083l0.121,0.081l0.122,0.08l0.123,0.079l0.123,0.078l0.124,0.076l0.125,0.075l0.125,0.074l0.126,0.072l0.126,0.071l0.128,0.07l0.127,0.068l0.129,0.067l0.129,0.065l0.129,0.064l0.131,0.063l0.13,0.062l0.132,0.059l0.131,0.059l0.133,0.057l0.132,0.056l0.134,0.054l0.134,0.053l0.134,0.052l0.135,0.05l0.135,0.048l0.135,0.047l0.137,0.046l0.136,0.044l0.137,0.042l0.137,0.041l0.138,0.04l0.138,0.038l0.139,0.037l0.138,0.035l0.139,0.033l0.14,0.032l0.14,0.031l0.14,0.029l0.14,0.027l0.141,0.026l0.141,0.024l0.141,0.023l0.141,0.021l0.142,0.019l0.142,0.018l0.142,0.016l0.143,0.015l0.142,0.013l0.143,0.011l0.143,0.01l0.143,0.008l0.143,0.006l0.143,0.005l0.144,0.003l-0.029,0.14l-0.028,0.141l-0.025,0.141l-0.024,0.141l-0.023,0.142l-0.02,0.141l-0.019,0.142l-0.018,0.142l-0.016,0.142l-0.014,0.143l-0.013,0.142l-0.011,0.143l-0.009,0.142l-0.008,0.143l-0.006,0.143l-0.005,0.143l-0.003,0.143l-0.001,0.143l0,0.143l0.002,0.143l0.003,0.143l0.005,0.144l0.007,0.143l0.008,0.143l0.009,0.143l0.011,0.143l0.013,0.143l0.014,0.142l0.016,0.143l0.017,0.143l0.019,0.142l0.02,0.143l0.022,0.142l0.023,0.142l0.025,0.142l0.026,0.141l0.028,0.142l0.029,0.141l0.031,0.141l0.032,0.141l0.034,0.141l0.035,0.14l0.036,0.14l0.039,0.14l0.039,0.139l0.041,0.14l0.043,0.139l0.044,0.138l0.045,0.138l0.047,0.138l0.048,0.137l0.05,0.138l0.051,0.136l0.052,0.136l0.054,0.136l0.055,0.136l0.057,0.135l0.058,0.134l0.06,0.134l0.061,0.134l0.062,0.133l0.063,0.132l0.065,0.132l0.067,0.131l0.068,0.131l0.069,0.131l0.07,0.129l0.072,0.129l0.073,0.129l0.075,0.128l0.076,0.127l0.077,0.127l0.078,0.126l0.08,0.125l0.081,0.125l0.083,0.124l0.083,0.123l0.085,0.123l0.087,0.121l0.088,0.121l0.088,0.121l0.091,0.119l0.091,0.119l0.093,0.118l0.094,0.117l0.096,0.117l0.096,0.115l0.098,0.115l0.099,0.114l0.1,0.113l0.102,0.112l0.103,0.111l0.104,0.11l0.105,0.109l0.107,0.109l0.108,0.107l0.109,0.107l0.11,0.105l0.111,0.105l0.113,0.103l0.114,0.103l0.115,0.101l0.116,0.101l0.117,0.099l0.119,0.099l0.119,0.097l0.121,0.096l0.122,0.095l0.124,0.094l0.124,0.093l0.125,0.092l0.127,0.091l0.128,0.089l0.129,0.088l0.13,0.087l0.131,0.086l0.132,0.085l0.134,0.083l0.134,0.082l0.136,0.081l0.137,0.08l0.138,0.078l0.139,0.078l0.14,0.075l0.141,0.075l0.142,0.073l0.144,0.072l0.144,0.07l0.145,0.069l0.146,0.067l0.145,0.066l0.147,0.064l0.146,0.062l0.147,0.061l0.147,0.059l0.148,0.057l0.148,0.056l0.148,0.054l0.148,0.052l0.149,0.051l0.149,0.049l0.149,0.047l0.15,0.046l0.149,0.044l0.15,0.043l0.15,0.04l0.15,0.04l0.151,0.037l0.15,0.037l0.151,0.034l0.15,0.033l0.151,0.031l0.151,0.03l0.151,0.028l0.151,0.027l0.151,0.025l0.151,0.023l0.152,0.022l0.151,0.021l0.151,0.019l0.151,0.017l0.151,0.016l0.152,0.014l0.151,0.012l0.151,0.011l0.151,0.01l0.15,0.008l0.151,0.007l0.151,0.005l0.151,0.003l0.15,0.002l0.15,0.001l0.15,-0.001l0.15,-0.003l0.15,-0.004l0.149,-0.005l0.15,-0.007l0.149,-0.009l0.149,-0.01l0.148,-0.011l0.149,-0.013l0.148,-0.014l0.147,-0.016l0.148,-0.017l0.147,-0.019l0.147,-0.02l0.146,-0.021l0.146,-0.023l0.146,-0.024l0.146,-0.026l0.145,-0.027l0.144,-0.029l0.144,-0.03l0.144,-0.032l0.143,-0.032l0.143,-0.035l0.142,-0.035l0.142,-0.037l0.142,-0.039l0.14,-0.04l0.141,-0.041l0.14,-0.042l0.139,-0.044l0.138,-0.045l0.139,-0.047l0.137,-0.048l0.137,-0.049l0.136,-0.051l0.136,-0.052l0.135,-0.053l0.134,-0.055l0.134,-0.056l0.133,-0.058l0.133,-0.058l0.131,-0.06l0.131,-0.062l0.13,-0.062l0.13,-0.064l0.129,-0.065l0.128,-0.067l0.127,-0.068l0.126,-0.069l0.126,-0.07l0.124,-0.072l0.124,-0.073l0.124,-0.074l0.122,-0.075l0.121,-0.077l0.121,-0.078l0.119,-0.079l0.119,-0.081l0.118,-0.081l0.116,-0.083l0.116,-0.085l0.115,-0.085l0.114,-0.087l0.113,-0.088l0.112,-0.089l0.111,-0.09l0.11,-0.091l0.109,-0.093l0.108,-0.094l0.107,-0.095l0.105,-0.097l0.105,-0.097l0.103,-0.099l0.103,-0.1l0.101,-0.101l0.1,-0.102l0.099,-0.103l0.098,-0.105l0.097,-0.105l0.095,-0.107l0.094,-0.108l0.093,-0.109l0.092,-0.111l0.092,0.111l0.093,0.109l0.094,0.108l0.096,0.107l0.096,0.105l0.098,0.105l0.099,0.103l0.1,0.102l0.102,0.101l0.102,0.1l0.104,0.099l0.104,0.097l0.106,0.097l0.107,0.095l0.108,0.094l0.109,0.093l0.109,0.091l0.111,0.09l0.112,0.089l0.113,0.088l0.114,0.087l0.115,0.085l0.116,0.085l0.117,0.083l0.118,0.081l0.118,0.081l0.12,0.079l0.12,0.078l0.122,0.077l0.122,0.075l0.123,0.074l0.124,0.073l0.125,0.072l0.125,0.07l0.127,0.069l0.127,0.068l0.128,0.067l0.129,0.065l0.129,0.064l0.13,0.062l0.131,0.062l0.132,0.06l0.132,0.058l0.133,0.058l0.134,0.056l0.134,0.055l0.136,0.053l0.135,0.052l0.137,0.051l0.136,0.049l0.138,0.048l0.138,0.047l0.139,0.045l0.139,0.044l0.14,0.042l0.14,0.041l0.141,0.04l0.141,0.039l0.142,0.037l0.142,0.035l0.143,0.035l0.144,0.032l0.143,0.032l0.144,0.03l0.145,0.029l0.145,0.027l0.145,0.026l0.146,0.024l0.146,0.023l0.147,0.021l0.146,0.02l0.148,0.019l0.147,0.017l0.148,0.016l0.148,0.014l0.148,0.013l0.149,0.011l0.149,0.01l0.149,0.009l0.149,0.007l0.15,0.005l0.149,0.004l0.15,0.003l0.15,0.001l0.151,-0.001l0.15,-0.002l0.151,-0.003l0.15,-0.005l0.151,-0.007l0.151,-0.008l0.151,-0.01l0.151,-0.011l0.151,-0.012l0.151,-0.014l0.151,-0.016l0.152,-0.017l0.151,-0.019l0.151,-0.021l0.151,-0.022l0.151,-0.023l0.151,-0.025l0.152,-0.027l0.15,-0.028l0.151,-0.03l0.151,-0.031l0.151,-0.033l0.151,-0.034l0.15,-0.037l0.15,-0.037l0.15,-0.04l0.15,-0.04l0.15,-0.043l0.15,-0.044l0.149,-0.046l0.149,-0.047l0.149,-0.049l0.149,-0.051l0.148,-0.052l0.149,-0.054l0.148,-0.056l0.147,-0.057l0.147,-0.059l0.147,-0.061l0.147,-0.062l0.146,-0.064l0.146,-0.066l0.145,-0.067l0.146,-0.069l0.144,-0.07l0.143,-0.072l0.143,-0.073l0.141,-0.075l0.14,-0.075l0.139,-0.078l0.138,-0.078l0.136,-0.08l0.136,-0.081l0.135,-0.082l0.133,-0.083l0.132,-0.085l0.132,-0.086l0.13,-0.087l0.129,-0.088l0.127,-0.089l0.127,-0.091l0.126,-0.092l0.124,-0.093l0.123,-0.094l0.122,-0.095l0.121,-0.096l0.12,-0.097l0.118,-0.099l0.118,-0.099l0.116,-0.101l0.115,-0.101l0.114,-0.103l0.112,-0.103l0.112,-0.105l0.11,-0.105l0.109,-0.107l0.108,-0.107l0.106,-0.109l0.106,-0.109l0.104,-0.11l0.102,-0.111l0.102,-0.112l0.1,-0.113l0.1,-0.114l0.097,-0.115l0.097,-0.115l0.095,-0.117l0.094,-0.117l0.093,-0.118l0.092,-0.119l0.09,-0.119l0.089,-0.121l0.088,-0.121l0.086,-0.121l0.085,-0.123l0.084,-0.123l0.082,-0.124l0.081,-0.125l0.08,-0.125l0.079,-0.126l0.077,-0.127l0.076,-0.127l0.074,-0.128l0.074,-0.129l0.071,-0.129l0.071,-0.129l0.069,-0.131l0.068,-0.131l0.066,-0.131l0.065,-0.132l0.064,-0.132l0.062,-0.133l0.061,-0.134l0.059,-0.134l0.058,-0.134l0.057,-0.135l0.055,-0.136l0.054,-0.136l0.053,-0.136l0.051,-0.136l0.05,-0.138l0.048,-0.137l0.047,-0.138l0.045,-0.138l0.044,-0.138l0.042,-0.139l0.041,-0.14l0.04,-0.139l0.038,-0.14l0.037,-0.14l0.035,-0.14l0.034,-0.141l0.032,-0.141l0.031,-0.141l0.029,-0.141l0.028,-0.142l0.026,-0.141l0.025,-0.142l0.023,-0.142l0.022,-0.142l0.02,-0.143l0.019,-0.142l0.017,-0.143l0.016,-0.143l0.014,-0.142l0.012,-0.143l0.011,-0.143l0.01,-0.143l0.008,-0.143l0.006,-0.143l0.005,-0.144l0.004,-0.143l0.001,-0.143l0,-0.143l-0.001,-0.143l-0.003,-0.143l-0.005,-0.143l-0.006,-0.143l-0.008,-0.143l-0.009,-0.142l-0.011,-0.143l-0.013,-0.142l-0.014,-0.143l-0.016,-0.142l-0.017,-0.142l-0.019,-0.142l-0.021,-0.141l-0.022,-0.142l-0.024,-0.141l-0.026,-0.141l-0.027,-0.141l-0.029,-0.14l0.143,-0.003l0.144,-0.005l0.143,-0.006l0.143,-0.008l0.143,-0.01l0.142,-0.011l0.143,-0.013l0.142,-0.015l0.142,-0.016l0.142,-0.018l0.142,-0.019l0.142,-0.021l0.141,-0.023l0.141,-0.024l0.14,-0.026l0.141,-0.027l0.14,-0.029l0.14,-0.031l0.139,-0.032l0.139,-0.033l0.139,-0.035l0.138,-0.037l0.139,-0.038l0.137,-0.04l0.138,-0.041l0.136,-0.042l0.137,-0.044l0.136,-0.046l0.136,-0.047l0.135,-0.048l0.135,-0.05l0.134,-0.052l0.134,-0.053l0.133,-0.054l0.133,-0.056l0.132,-0.057l0.132,-0.059l0.131,-0.059l0.131,-0.062l0.13,-0.063l0.13,-0.064l0.129,-0.065l0.128,-0.067l0.128,-0.068l0.127,-0.07l0.127,-0.071l0.126,-0.072l0.125,-0.074l0.124,-0.075l0.124,-0.076l0.124,-0.078l0.122,-0.079l0.122,-0.08l0.121,-0.081l0.121,-0.083l0.119,-0.084l0.119,-0.086l0.118,-0.086l0.118,-0.088l0.116,-0.089l0.116,-0.09l0.115,-0.092l0.114,-0.093l0.114,-0.094l0.112,-0.095l0.112,-0.096l0.111,-0.098l0.11,-0.098l0.109,-0.1l0.108,-0.101l0.107,-0.103l0.106,-0.103l0.106,-0.105l0.104,-0.105l0.104,-0.107l0.102,-0.108l0.102,-0.109l0.1,-0.111l0.1,-0.111l0.098,-0.112l0.098,-0.114l0.096,-0.114l0.096,-0.116l0.094,-0.117l0.093,-0.118l0.093,-0.118l0.091,-0.12l0.09,-0.121l0.089,-0.122l0.087,-0.123l0.087,-0.124l0.085,-0.125l0.085,-0.126l0.083,-0.127l0.082,-0.128l0.081,-0.129l0.079,-0.13l0.079,-0.131l0.077,-0.132l0.076,-0.133l0.074,-0.134l0.074,-0.134l0.072,-0.136l0.071,-0.136l0.069,-0.138l0.068,-0.138l0.067,-0.139l0.066,-0.141l0.064,-0.141l0.063,-0.142l0.061,-0.142l0.061,-0.144l0.058,-0.145l0.058,-0.145l0.056,-0.146l0.054,-0.147l0.053,-0.148l0.052,-0.149l0.05,-0.149l0.049,-0.15l0.047,-0.151l0.046,-0.152l0.044,-0.153l0.043,-0.153l0.041,-0.155l0.04,-0.155l0.038,-0.155l0.036,-0.157l0.035,-0.156l0.033,-0.157l0.032,-0.157l0.03,-0.157l0.028,-0.157l0.026,-0.156l0.025,-0.157l0.023,-0.157l0.021,-0.156l0.02,-0.157l0.018,-0.156l0.016,-0.156l0.015,-0.156l0.013,-0.156l0.011,-0.156l0.01,-0.156l0.008,-0.155l0.007,-0.156l0.005,-0.155l0.003,-0.155l0.002,-0.155l0,-0.154l-0.002,-0.154l-0.003,-0.154l-0.004,-0.154l-0.006,-0.154l-0.008,-0.153l-0.009,-0.153l-0.011,-0.152l-0.012,-0.153l-0.014,-0.151l-0.015,-0.152l-0.017,-0.151l-0.019,-0.151l-0.019,-0.151l-0.022,-0.15l-0.022,-0.15l-0.025,-0.149l-0.025,-0.149l-0.028,-0.148l-0.028,-0.148l-0.03,-0.148l-0.032,-0.147l-0.033,-0.146l-0.034,-0.147l-0.036,-0.145l-0.037,-0.145l-0.039,-0.145l-0.04,-0.144l-0.041,-0.143l-0.043,-0.143l-0.044,-0.143l-0.046,-0.141l-0.046,-0.142l-0.049,-0.14l-0.049,-0.14l-0.051,-0.139l-0.052,-0.139l-0.054,-0.138l-0.055,-0.137l-0.056,-0.137l-0.057,-0.136l-0.059,-0.135l-0.06,-0.135l-0.062,-0.134l-0.062,-0.133l-0.064,-0.132l-0.065,-0.132l-0.067,-0.131l-0.067,-0.13l-0.069,-0.129l-0.07,-0.128l-0.072,-0.128l-0.072,-0.127l-0.074,-0.126l-0.075,-0.125l-0.076,-0.124l-0.078,-0.124l-0.078,-0.122l-0.08,-0.122l-0.081,-0.12l-0.082,-0.12l-0.083,-0.119l-0.085,-0.118l-0.085,-0.117l-0.087,-0.116l-0.088,-0.115l-0.089,-0.114l-0.09,-0.113l-0.091,-0.112l-0.092,-0.111l-0.093,-0.11l-0.095,-0.109l-0.095,-0.108l-0.097,-0.106l-0.097,-0.106l-0.099,-0.105l-0.1,-0.103l-0.101,-0.103l-0.101,-0.101l-0.103,-0.1l-0.104,-0.099l-0.105,-0.098l-0.106,-0.096l-0.107,-0.096l-0.108,-0.094l-0.108,-0.093l-0.11,-0.092l-0.111,-0.09l-0.112,-0.09l-0.113,-0.088l-0.113,-0.087l-0.115,-0.085l-0.115,-0.084l-0.117,-0.083l-0.117,-0.082l-0.119,-0.08l-0.119,-0.079l-0.12,-0.078l-0.121,-0.076l-0.122,-0.075l-0.123,-0.074l-0.123,-0.072l-0.125,-0.07l-0.125,-0.07l-0.127,-0.068l-0.127,-0.066l-0.128,-0.065l0.087,-0.114l0.086,-0.115l0.084,-0.116l0.083,-0.117l0.082,-0.118l0.08,-0.118l0.079,-0.12l0.077,-0.12l0.076,-0.121l0.075,-0.122l0.073,-0.123l0.072,-0.124l0.07,-0.124l0.069,-0.126l0.067,-0.126l0.067,-0.127l0.064,-0.127l0.064,-0.128l0.062,-0.129l0.06,-0.13l0.059,-0.13l0.058,-0.131l0.056,-0.132l0.055,-0.132l0.054,-0.133l0.052,-0.134l0.05,-0.134l0.05,-0.135l0.047,-0.136l0.047,-0.135l0.045,-0.137l0.043,-0.137l0.042,-0.138l0.041,-0.138l0.039,-0.138l0.038,-0.139l0.036,-0.14l0.035,-0.14l0.034,-0.14l0.032,-0.141l0.031,-0.142l0.029,-0.141l0.027,-0.142l0.027,-0.143l0.025,-0.143l0.023,-0.143l0.022,-0.143l0.021,-0.144l0.019,-0.144l0.017,-0.145l0.016,-0.145l0.015,-0.145l0.014,-0.145l0.011,-0.146l0.011,-0.145l0.009,-0.146l0.007,-0.146l0.006,-0.147l0.005,-0.146l0.003,-0.147l0.001,-0.147l0,-0.147l-0.001,-0.147l-0.003,-0.147l-0.004,-0.147l-0.006,-0.148l-0.007,-0.147l-0.009,-0.148l-0.01,-0.147l-0.011,-0.148l-0.013,-0.148l-0.015,-0.147l-0.016,-0.148l-0.018,-0.147l-0.019,-0.148l-0.02,-0.147l-0.022,-0.148l-0.024,-0.147l-0.025,-0.147l-0.026,-0.147l-0.028,-0.147l-0.029,-0.147l-0.031,-0.147l-0.033,-0.146l-0.034,-0.147l-0.035,-0.146l-0.037,-0.146l-0.039,-0.146l-0.039,-0.145l-0.042,-0.146l-0.043,-0.145l-0.044,-0.145l-0.046,-0.144l-0.048,-0.144l-0.049,-0.144l-0.05,-0.144l-0.052,-0.143l-0.053,-0.143l-0.056,-0.142l-0.056,-0.143l-0.058,-0.141l-0.06,-0.142l-0.061,-0.141l-0.062,-0.14l-0.064,-0.14l-0.066,-0.14l-0.067,-0.139l-0.069,-0.139l-0.07,-0.138l-0.072,-0.137l-0.073,-0.137l-0.075,-0.137l-0.076,-0.136l-0.078,-0.136l-0.08,-0.134l-0.081,-0.135l-0.082,-0.133l-0.084,-0.133l-0.086,-0.133l-0.087,-0.132l-0.089,-0.131l-0.09,-0.13l-0.091,-0.13l-0.094,-0.129l-0.095,-0.128l-0.096,-0.128l-0.098,-0.127l-0.099,-0.126l-0.101,-0.125l-0.102,-0.124l-0.103,-0.122l-0.104,-0.121l-0.105,-0.12l-0.106,-0.118l-0.108,-0.117l-0.108,-0.116l-0.109,-0.114l-0.11,-0.113l-0.111,-0.112l-0.112,-0.11l-0.113,-0.109l-0.114,-0.107l-0.114,-0.106l-0.116,-0.105l-0.116,-0.103l-0.118,-0.102l-0.118,-0.101l-0.119,-0.099l-0.12,-0.098l-0.121,-0.096l-0.121,-0.095l-0.122,-0.094l-0.123,-0.092l-0.124,-0.091l-0.125,-0.09l-0.125,-0.088l-0.126,-0.086l-0.127,-0.086l-0.127,-0.084l-0.128,-0.082l-0.129,-0.081l-0.129,-0.08l-0.131,-0.079l-0.13,-0.077l-0.131,-0.075l-0.132,-0.074l-0.133,-0.073l-0.133,-0.071l-0.133,-0.07l-0.134,-0.069l-0.135,-0.067l-0.135,-0.065l-0.136,-0.065l-0.136,-0.062l-0.137,-0.062l-0.137,-0.06l-0.137,-0.058l-0.138,-0.057l-0.139,-0.056l-0.139,-0.054l-0.139,-0.053l-0.139,-0.051l-0.14,-0.05l-0.141,-0.049l-0.14,-0.047l-0.141,-0.046l-0.142,-0.044l-0.141,-0.042l-0.142,-0.042l-0.142,-0.04l-0.143,-0.038l-0.142,-0.037l-0.143,-0.035l-0.143,-0.034l-0.144,-0.033l-0.143,-0.031l-0.144,-0.03l-0.144,-0.028l-0.144,-0.027l-0.144,-0.025l-0.144,-0.024l-0.145,-0.022l-0.144,-0.021l-0.145,-0.019l-0.144,-0.018l-0.145,-0.017l-0.145,-0.014l-0.145,-0.014l-0.144,-0.012l-0.145,-0.01l-0.145,-0.009l-0.145,-0.008l-0.145,-0.006l-0.144,-0.005l-0.145,-0.003l-0.145,-0.001l-0.144,0l-0.144,0.001l-0.145,0.003l-0.144,0.004l-0.144,0.006l-0.144,0.008l-0.143,0.009l-0.144,0.01l-0.143,0.012l-0.143,0.013l-0.143,0.015l-0.143,0.017l-0.142,0.018l-0.142,0.019l-0.142,0.021l-0.142,0.023l-0.141,0.024l-0.141,0.025l-0.141,0.028l-0.14,0.028l-0.14,0.03l-0.139,0.032l-0.139,0.033l-0.139,0.035l-0.138,0.036l-0.138,0.038l-0.138,0.039l-0.137,0.041l-0.136,0.043l-0.137,0.044l-0.135,0.045l-0.135,0.047l-0.135,0.049l-0.134,0.05l-0.133,0.052l-0.133,0.053l-0.133,0.055l-0.131,0.057l-0.132,0.057l-0.13,0.06l-0.035,-0.139l-0.037,-0.139l-0.038,-0.138l-0.039,-0.138l-0.041,-0.137l-0.043,-0.137l-0.045,-0.136l-0.045,-0.135l-0.048,-0.135l-0.049,-0.135l-0.05,-0.133l-0.052,-0.134l-0.054,-0.132l-0.055,-0.132l-0.056,-0.132l-0.058,-0.13l-0.059,-0.131l-0.061,-0.129l-0.062,-0.129l-0.064,-0.128l-0.065,-0.128l-0.066,-0.126l-0.068,-0.127l-0.07,-0.125l-0.07,-0.125l-0.072,-0.124l-0.074,-0.123l-0.074,-0.123l-0.076,-0.121l-0.078,-0.121l-0.078,-0.121l-0.08,-0.119l-0.082,-0.119l-0.082,-0.118l-0.084,-0.117l-0.085,-0.116l-0.087,-0.115l-0.088,-0.115l-0.089,-0.114l-0.09,-0.113l-0.091,-0.112l-0.093,-0.111l-0.093,-0.11l-0.095,-0.11l-0.097,-0.108l-0.097,-0.108l-0.098,-0.107l-0.1,-0.105l-0.101,-0.105l-0.102,-0.104l-0.103,-0.103l-0.104,-0.102l-0.105,-0.101l-0.107,-0.1l-0.107,-0.099l-0.109,-0.098l-0.11,-0.097l-0.11,-0.096l-0.112,-0.094l-0.113,-0.094l-0.114,-0.093l-0.114,-0.092l-0.116,-0.091l-0.117,-0.089l-0.118,-0.089l-0.119,-0.087l-0.119,-0.086l-0.121,-0.086l-0.122,-0.084l-0.123,-0.083l-0.123,-0.081l-0.125,-0.081l-0.125,-0.079l-0.126,-0.079l-0.128,-0.077l-0.128,-0.076l-0.129,-0.074l-0.129,-0.074l-0.131,-0.072l-0.132,-0.071l-0.132,-0.07l-0.133,-0.069l-0.134,-0.067l-0.135,-0.066l-0.135,-0.065l-0.137,-0.063l-0.137,-0.062l-0.138,-0.061l-0.139,-0.06l-0.139,-0.058l-0.14,-0.057l-0.141,-0.055l-0.142,-0.055l-0.142,-0.052l-0.143,-0.052l-0.144,-0.05l-0.144,-0.048l-0.145,-0.048l-0.146,-0.046l-0.146,-0.044l-0.147,-0.043l-0.148,-0.042l-0.148,-0.04l-0.149,-0.038l-0.15,-0.038l-0.15,-0.035l-0.15,-0.035l-0.152,-0.032l-0.151,-0.032l-0.153,-0.029l-0.153,-0.028l-0.153,-0.027l-0.154,-0.025l-0.155,-0.024l-0.155,-0.022l-0.155,-0.02l-0.156,-0.019l-0.156,-0.017l-0.157,-0.016l-0.158,-0.014l-0.157,-0.013l-0.159,-0.01l-0.158,-0.01l-0.159,-0.007l-0.16,-0.006l-0.16,-0.004l-0.16,-0.003l-0.161,0l-0.16,0Z" style="fill:#fff;"/><g id="_-redux1" serif:id="©redux"><path d="M546.125,414.819c1.556,-0.161 2.737,-1.502 2.683,-3.112c-0.053,-1.61 -1.395,-2.898 -3.005,-2.898l-0.107,0c-1.664,0.053 -2.952,1.449 -2.898,3.112c0.053,0.805 0.375,1.503 0.858,1.986c-1.824,3.596 -4.615,6.225 -8.801,8.426c-2.844,1.502 -5.796,2.039 -8.747,1.663c-2.415,-0.322 -4.294,-1.395 -5.474,-3.166c-1.718,-2.63 -1.879,-5.474 -0.43,-8.318c1.02,-2.04 2.63,-3.542 3.65,-4.294c-0.215,-0.697 -0.537,-1.878 -0.698,-2.737c-7.782,5.635 -6.977,13.256 -4.615,16.852c1.771,2.683 5.366,4.347 9.338,4.347c1.073,0 2.146,-0.108 3.22,-0.376c6.869,-1.342 12.074,-5.42 15.026,-11.485Z" style="fill:#764abc;"/><path d="M555.57,408.165c-4.078,-4.777 -10.089,-7.406 -16.958,-7.406l-0.859,0c-0.483,-0.966 -1.503,-1.61 -2.63,-1.61l-0.107,0c-1.663,0.053 -2.951,1.449 -2.898,3.112c0.054,1.61 1.395,2.898 3.005,2.898l0.108,0c1.18,-0.053 2.2,-0.805 2.629,-1.824l0.966,0c4.079,0 7.943,1.18 11.431,3.488c2.684,1.771 4.616,4.079 5.689,6.869c0.912,2.254 0.859,4.455 -0.107,6.333c-1.503,2.844 -4.025,4.401 -7.353,4.401c-2.146,0 -4.186,-0.644 -5.259,-1.127c-0.59,0.536 -1.664,1.395 -2.415,1.932c2.308,1.073 4.669,1.663 6.923,1.663c5.152,0 8.962,-2.844 10.411,-5.688c1.557,-3.113 1.449,-8.48 -2.576,-13.041Z" style="fill:#764abc;"/><path d="M528.308,415.732c0.054,1.61 1.395,2.898 3.005,2.898l0.108,0c1.663,-0.054 2.951,-1.449 2.897,-3.113c-0.053,-1.61 -1.395,-2.898 -3.005,-2.898l-0.107,0c-0.107,0 -0.268,0 -0.376,0.054c-2.2,-3.65 -3.112,-7.621 -2.79,-11.914c0.214,-3.22 1.288,-6.011 3.166,-8.319c1.556,-1.985 4.561,-2.951 6.601,-3.005c5.688,-0.107 8.103,6.977 8.264,9.821c0.698,0.161 1.879,0.537 2.684,0.805c-0.644,-8.694 -6.011,-13.202 -11.163,-13.202c-4.83,0 -9.284,3.488 -11.055,8.64c-2.469,6.87 -0.859,13.471 2.147,18.676c-0.269,0.376 -0.43,0.966 -0.376,1.557Z" style="fill:#764abc;"/></g></g><g id="file-shared"><path d="M405.157,73.134c0,-5.523 -4.484,-10.007 -10.007,-10.007l-59.986,0c-5.523,0 -10.007,4.484 -10.007,10.007l0,79.986c0,5.523 4.484,10.007 10.007,10.007l59.986,0c5.523,0 10.007,-4.484 10.007,-10.007l0,-79.986Z" style="fill:#ffe5f2;stroke:#fff;stroke-width:3px;stroke-linecap:round;stroke-linejoin:round;stroke-miterlimit:1.5;"/><path d="M340.157,83.127l50,0" style="fill:none;stroke:#ffbfdd;stroke-width:7px;stroke-linecap:round;stroke-linejoin:round;stroke-miterlimit:1.5;"/><path d="M340.157,103.127l50,0" style="fill:none;stroke:#ffbfdd;stroke-width:7px;stroke-linecap:round;stroke-linejoin:round;stroke-miterlimit:1.5;"/><path d="M340.157,123.127l30,0" style="fill:none;stroke:#ffbfdd;stroke-width:7px;stroke-linecap:round;stroke-linejoin:round;stroke-miterlimit:1.5;"/></g><g id="cookie"><circle cx="115.228" cy="256.753" r="16" style="fill:#ff7d00;"/><text x="106.217px" y="265.886px" style="font-family:'Arial-BoldMT', 'Arial', sans-serif;font-weight:700;font-size:25.092px;fill:#ffecd9;">C</text></g><g id="jwt"><circle cx="537.99" cy="258.661" r="16" style="fill:#528cff;"/><text x="523.754px" y="263.259px" style="font-family:'Roboto-Bold', 'Roboto';font-weight:700;font-size:13.016px;fill:#f2ffe5;">JWT</text></g><defs><linearGradient id="_Linear1" x1="0" y1="0" x2="1" y2="0" gradientUnits="userSpaceOnUse" gradientTransform="matrix(257.237,0,0,2e-06,199.973,258.928)"><stop offset="0" style="stop-color:#ffa44d;stop-opacity:1"/><stop offset="1" style="stop-color:#528cff;stop-opacity:1"/></linearGradient></defs></svg>