<?xml version="1.0" encoding="UTF-8" standalone="no"?>
<!DOCTYPE svg PUBLIC "-//W3C//DTD SVG 1.1//EN" "http://www.w3.org/Graphics/SVG/1.1/DTD/svg11.dtd">
<svg width="100%" height="100%" viewBox="0 0 450 450" version="1.1" xmlns="http://www.w3.org/2000/svg" xmlns:xlink="http://www.w3.org/1999/xlink" xml:space="preserve" xmlns:serif="http://www.serif.com/" style="fill-rule:evenodd;clip-rule:evenodd;stroke-linecap:round;stroke-linejoin:round;stroke-miterlimit:1.5;">
    <g transform="matrix(1,0,0,1,-2000,0)">
        <g id="color-tweaking" transform="matrix(0.5,0,0,0.28125,2000,0)">
            <rect x="0" y="0" width="900" height="1600" style="fill:rgb(236,244,248);"/>
            <g transform="matrix(0.763388,0,0,1.60363,-2992.85,104.079)">
                <path d="M4325.16,737.678C4285.33,715.857 4367.38,679.447 4527.32,674.842C4594.76,672.9 4912.17,679.833 4949.89,692.819C4955.42,694.724 5007.39,706.284 5006.33,714.45C5004.43,728.954 4985.26,735.709 4973.4,738.908C4933.22,749.749 4565.48,768.322 4430.41,758.065C4397.88,755.594 4354.41,753.696 4325.16,737.678Z" style="fill:rgb(186,215,230);"/>
            </g>
            <g id="tail" transform="matrix(1,0,0,1.77778,-1000,0)">
                <path d="M1348.61,708.5C1297.19,709.535 1233.25,693.085 1196.35,654.688C1181.26,638.992 1129.47,583.642 1183.06,580.423C1236.39,577.22 1264.45,632.905 1298.49,661.552C1317.58,677.617 1341.89,683.503 1359.38,697.086C1367.01,703.01 1382.58,703.595 1376.12,704.918L1348.61,708.5Z" style="fill:rgb(186,215,230);"/>
                <clipPath id="_clip1">
                    <path d="M1348.61,708.5C1297.19,709.535 1233.25,693.085 1196.35,654.688C1181.26,638.992 1129.47,583.642 1183.06,580.423C1236.39,577.22 1264.45,632.905 1298.49,661.552C1317.58,677.617 1341.89,683.503 1359.38,697.086C1367.01,703.01 1382.58,703.595 1376.12,704.918L1348.61,708.5Z"/>
                </clipPath>
                <g clip-path="url(#_clip1)">
                    <g transform="matrix(1,0,0,1,-3164.7,0)">
                        <path d="M4316.11,646.942L4362.18,731.185L4543.68,736.618L4542.35,673.93L4383.92,568.315C4383.92,568.315 4405.77,613.5 4381.98,635.695C4373.14,643.94 4316.11,646.942 4316.11,646.942Z" style="fill:rgb(130,183,209);"/>
                    </g>
                </g>
            </g>
            <g id="body" transform="matrix(1,0,0,1.77778,-1000,0)">
                <path d="M1444,245.772C1473.58,241.327 1505.24,242.836 1541.92,243.596C1554.79,211.402 1576.8,175.451 1599.85,148.703C1599.85,148.703 1609.49,199.873 1634.73,254.333C1666.89,323.706 1711.75,408.829 1714.72,441.523C1720.01,499.883 1698.95,701.967 1566.5,708.654C1434.06,715.341 1401.27,715.485 1344.12,700.131C1299.31,688.096 1208.62,577.63 1241.79,479.221C1274.95,380.812 1294.33,350.73 1306.79,301.491C1319.25,252.252 1358.42,155.636 1358.42,155.636C1387.14,176.047 1415.67,205.529 1444,245.772Z" style="fill:rgb(186,215,230);"/>
                <clipPath id="_clip2">
                    <path d="M1444,245.772C1473.58,241.327 1505.24,242.836 1541.92,243.596C1554.79,211.402 1576.8,175.451 1599.85,148.703C1599.85,148.703 1609.49,199.873 1634.73,254.333C1666.89,323.706 1711.75,408.829 1714.72,441.523C1720.01,499.883 1698.95,701.967 1566.5,708.654C1434.06,715.341 1401.27,715.485 1344.12,700.131C1299.31,688.096 1208.62,577.63 1241.79,479.221C1274.95,380.812 1294.33,350.73 1306.79,301.491C1319.25,252.252 1358.42,155.636 1358.42,155.636C1387.14,176.047 1415.67,205.529 1444,245.772Z"/>
                </clipPath>
                <g clip-path="url(#_clip2)">
                    <g transform="matrix(1,0,0,1,-3164.7,0)">
                        <path d="M4511.08,140.903C4541.2,177.849 4564.32,215.223 4564.22,260.494C4587.33,247.221 4612.5,244.09 4643.66,240.833L4511.08,140.903Z" style="fill:rgb(130,183,209);"/>
                    </g>
                    <g transform="matrix(1,0,0,1,-3164.7,0)">
                        <path d="M4764.55,140.108C4764.55,140.108 4761.24,164.909 4770.83,209.916C4775.54,232.001 4815.47,354.924 4823.87,383.513C4862.33,514.428 4810.52,559.548 4749.9,615.724C4687.88,673.194 4506.71,702.49 4506.71,702.49L4598.55,729.938L4917.66,729.342L4951.24,238.497C4951.24,238.497 4769.92,132.637 4764.55,140.108Z" style="fill:rgb(130,183,209);"/>
                    </g>
                    <path d="M1567.54,711.492C1546.79,731.717 1438.06,740.733 1406.25,717.445C1394.53,708.863 1380.84,699.678 1370.33,689.726C1353.27,673.574 1342.27,650.858 1334.77,627.553C1306.68,540.282 1377.76,462.611 1465.16,452.904C1537.87,444.83 1601.03,515.99 1611.05,571.803C1615.7,597.685 1614.13,629.18 1605.05,653.411C1597.39,673.869 1583.62,695.83 1567.54,711.492Z" style="fill:white;"/>
                    <clipPath id="_clip3">
                        <path d="M1567.54,711.492C1546.79,731.717 1438.06,740.733 1406.25,717.445C1394.53,708.863 1380.84,699.678 1370.33,689.726C1353.27,673.574 1342.27,650.858 1334.77,627.553C1306.68,540.282 1377.76,462.611 1465.16,452.904C1537.87,444.83 1601.03,515.99 1611.05,571.803C1615.7,597.685 1614.13,629.18 1605.05,653.411C1597.39,673.869 1583.62,695.83 1567.54,711.492Z"/>
                    </clipPath>
                    <g clip-path="url(#_clip3)">
                        <g transform="matrix(1,0,0,1,-3164.7,0)">
                            <path d="M4764.55,140.108C4764.55,140.108 4761.24,164.909 4770.83,209.916C4775.54,232.001 4815.47,354.924 4823.87,383.513C4862.33,514.428 4810.52,559.548 4749.9,615.724C4687.88,673.194 4506.71,702.49 4506.71,702.49L4598.55,729.938L4917.66,729.342L4951.24,238.497C4951.24,238.497 4769.92,132.637 4764.55,140.108Z" style="fill:rgb(255,229,242);"/>
                        </g>
                    </g>
                    <g id="face">
                        <path d="M1410.05,328.3C1415.36,311.036 1424.87,308.476 1440.11,326.026" style="fill:none;stroke:rgb(68,68,85);stroke-width:4px;"/>
                        <path d="M1543.94,326.653C1546.98,322.287 1550,318.921 1553.15,316.883C1559.43,312.817 1566.22,314.026 1574.66,323.088" style="fill:none;stroke:rgb(68,68,85);stroke-width:4px;"/>
                        <path d="M1551.9,369.413L1615.15,332.795" style="fill:none;stroke:rgb(68,68,85);stroke-width:4px;"/>
                        <path d="M1347.28,352.403C1364.28,360.656 1382.79,367.547 1403.74,372.266" style="fill:none;stroke:rgb(68,68,85);stroke-width:4px;"/>
                        <path d="M1342.99,400.359C1361.18,397.742 1379.23,393.783 1397.04,387.518" style="fill:none;stroke:rgb(68,68,85);stroke-width:4px;"/>
                        <path d="M1559.59,385.693C1577.33,383.997 1593.42,386.204 1607.84,392.407" style="fill:none;stroke:rgb(68,68,85);stroke-width:4px;"/>
                        <path d="M1476.59,401.066C1484.34,401.238 1490.95,399.744 1493.73,392.644C1496.29,398.258 1501.31,400.547 1508.78,399.511" style="fill:none;stroke:rgb(68,68,85);stroke-width:4px;"/>
                        <path d="M1494.09,391.361C1504.05,386.807 1509.46,379.329 1510.18,370.724C1499.48,364.801 1482.85,368.414 1472.26,372.426C1476.77,380.768 1483.3,387.624 1494.09,391.361Z" style="fill:rgb(255,0,120);"/>
                    </g>
                    <g transform="matrix(1,0,0,1,-3180.5,7.13672)">
                        <path d="M4507.27,296.943C4523.47,285.763 4538.06,274.561 4562.79,262.051C4561.29,236.243 4552.93,212.657 4535.77,198.021C4525.15,226.851 4513.96,269.425 4507.27,296.943Z" style="fill:rgb(255,0,120);"/>
                    </g>
                    <g transform="matrix(-1,0,0,1,6122.73,-12.4681)">
                        <path d="M4516.43,267.213C4516.43,267.213 4544.09,260.859 4562.56,260.357C4556.48,237.027 4531.82,197.403 4531.82,197.403C4526.92,219.953 4521.78,243.245 4516.43,267.213Z" style="fill:rgb(255,0,120);"/>
                    </g>
                </g>
            </g>
            <g id="patounes">
                <g transform="matrix(1,0,0,1.77778,-1000,4.44089e-16)">
                    <path d="M1410.75,694.226C1410.75,694.226 1421.12,740.726 1441,740.726C1470.09,740.726 1461.64,689.291 1461.64,689.291" style="fill:rgb(255,229,242);"/>
                    <clipPath id="_clip4">
                        <path d="M1410.75,694.226C1410.75,694.226 1421.12,740.726 1441,740.726C1470.09,740.726 1461.64,689.291 1461.64,689.291"/>
                    </clipPath>
                    <g clip-path="url(#_clip4)">
                        <g transform="matrix(1,0,0,1,-3230.97,1.27407)">
                            <path d="M4639.55,713.599C4661.83,727.592 4685.87,725.986 4711.28,712.343L4697.94,752.05L4642.82,746.89L4639.55,713.599Z" style="fill:rgb(130,183,209);"/>
                        </g>
                    </g>
                    <path d="M1410.75,694.226C1410.75,694.226 1421.12,740.726 1441,740.726C1470.09,740.726 1461.64,689.291 1461.64,689.291" style="fill:none;stroke:rgb(130,183,209);stroke-width:4px;"/>
                </g>
                <g transform="matrix(1,0,0,1.77778,-1000,4.44089e-16)">
                    <path d="M1483.25,693.76C1483.25,693.76 1485.9,743.877 1509.05,739.94C1532.2,736.002 1530.03,688.176 1530.03,688.176" style="fill:rgb(255,229,242);"/>
                    <clipPath id="_clip5">
                        <path d="M1483.25,693.76C1483.25,693.76 1485.9,743.877 1509.05,739.94C1532.2,736.002 1530.03,688.176 1530.03,688.176"/>
                    </clipPath>
                    <g clip-path="url(#_clip5)">
                        <g transform="matrix(1,0,0,1.13473,-3096.05,-104.67)">
                            <path d="M4573.42,717.042C4594.29,737.22 4616.34,734.414 4639.46,710.682L4635.32,748.286L4580.28,747.294L4573.42,717.042Z" style="fill:rgb(130,183,209);"/>
                        </g>
                    </g>
                    <path d="M1483.25,693.76C1483.25,693.76 1485.9,743.877 1509.05,739.94C1532.2,736.002 1530.03,688.176 1530.03,688.176" style="fill:none;stroke:rgb(130,183,209);stroke-width:4px;"/>
                </g>
            </g>
        </g>
    </g>
</svg>
