<?xml version="1.0" encoding="UTF-8" standalone="no"?><!DOCTYPE svg PUBLIC "-//W3C//DTD SVG 1.1//EN" "http://www.w3.org/Graphics/SVG/1.1/DTD/svg11.dtd"><svg width="100%" height="100%" viewBox="0 0 410 180" version="1.1" xmlns="http://www.w3.org/2000/svg" xmlns:xlink="http://www.w3.org/1999/xlink" xml:space="preserve" xmlns:serif="http://www.serif.com/" style="fill-rule:evenodd;clip-rule:evenodd;stroke-linecap:round;stroke-linejoin:round;stroke-miterlimit:1.5;"><rect id="basket-of-apples" x="0" y="-0" width="410" height="180" style="fill:none;"/><path id="basket-back" d="M197.665,72.062c-48.002,-1.42 -91.097,12.156 -91.848,12.45c-4.976,1.943 -14.763,5.955 -13.63,12.981c0.883,5.472 8.533,7.623 10.589,12.457c0.497,1.169 29.918,14.775 66.741,18.919c50.733,5.71 125.814,-16.516 130.203,-23.354c9.506,-14.809 -2.885,-22.343 -15.144,-24.982c0,-0 -38.908,-7.051 -86.911,-8.471Z" style="fill:#82b7d1;"/><g id="back-apple" serif:id="back apple"><path d="M208.429,110.836c-24.5,-1.757 -59.839,-24.798 -39.423,-58.344c3.083,-5.065 8.352,-8.326 14.286,-9.4c9.492,-1.718 15.897,5.964 24.853,6.443c12.874,0.687 29.439,-12.824 40.536,1.822c9.32,12.3 3.698,62.629 -40.252,59.479Z" style="fill:#ff0078;"/><path d="M210.27,51.804c-1.27,0.3 -2.571,-3.518 -2.647,-3.731c-0.482,-1.362 -0.943,-2.732 -1.363,-4.113c-0.89,-2.919 -5.695,-13.922 0.206,-15.266c2.545,-0.579 3.653,2.766 4.07,4.637c1.099,4.931 1.455,10.794 1.348,15.882c-0,0 -0.345,2.291 -1.614,2.591Z" style="fill:#445;"/><path d="M209.552,44.932c-0.646,-1.824 6.296,-9.152 8.072,-10.863c6.13,-5.908 13.57,-10.66 21.636,-13.453c2.243,-0.777 5.462,-2.226 7.938,-1.91c0.765,0.097 -0.683,3.364 -0.805,3.7c-1.463,4.013 -3.658,7.713 -6.545,10.862c-7.4,8.069 -29.649,13.487 -30.296,11.664Z" style="fill:#bad7e6;"/><path d="M197.273,55.852c-2.265,-0.305 -3.676,1.359 -4.02,1.968c-1.57,2.774 1.775,5.876 4.544,5.089c4.494,-1.277 2.124,-6.701 -0.524,-7.057Z" style="fill:#445;"/><path d="M223.933,57.255c-3.285,-1.384 -4.849,-0.13 -5.953,1.621c-1.253,1.987 -0.067,4.712 2.478,5.018c3.396,0.407 6.76,-5.255 3.475,-6.639Z" style="fill:#445;"/><path d="M204.698,63.594c-1.934,1.002 -1.34,3.38 -0.619,4.326c0.53,0.696 1.47,1.058 2.33,0.996c1.377,-0.099 1.604,-0.936 2.463,-1.531c1.06,2.101 3.599,1.539 4.407,0.687c1.405,-1.481 1.461,-4.823 -0.981,-5.348" style="fill:none;stroke:#445;stroke-width:2px;"/></g><g id="right-apple"><path d="M266.066,129.237c0,-0 7.006,-2.664 14.013,-10.174c7.006,-7.51 12.878,-27.056 5.334,-41.098c-2.707,-5.039 -6.935,-8.974 -12.806,-9.714c-9.429,-1.188 -16.584,4.868 -25.516,5.752c-4.915,0.487 -9.628,-2.938 -14.165,-4.35c-7.551,-2.348 -18.414,0.98 -23.892,6.401c-9.955,9.851 -6.754,27.116 -0.459,37.739c8.889,15 24.971,19.304 41.504,18.429c4.877,-0.258 11.563,-0.546 15.987,-2.985Z" style="fill:#ff0078;"/><path d="M248.168,74.139c0.489,-3.481 2.418,-7.233 3.82,-10.403c1.002,-2.265 2.182,-4.456 3.621,-6.475c1.508,-2.115 3.901,-5.08 6.818,-4.915c1.22,0.07 3.792,0.626 3.653,2.265c-0.416,4.905 -7.057,10.497 -10.223,13.793c-0.247,0.257 -6.337,6.886 -7.229,7.028c-0.891,0.142 -0.46,-1.293 -0.46,-1.293Z" style="fill:#445;"/><path d="M246.802,84.049c-3.065,-0.775 -5.221,1.966 -5.589,3.355c-0.828,3.132 2.426,5.604 5.301,4.421c3.7,-1.522 3.352,-7 0.288,-7.776Z" style="fill:#445;"/><path d="M274.576,80.684c-3.221,-1.415 -4.354,-0.422 -4.883,0.044c-2.155,1.901 -3.229,6.219 0.024,7.669c5.231,2.334 8.081,-6.298 4.859,-7.713Z" style="fill:#445;"/><path d="M254.491,92.116c-1.86,1.843 -1.567,4.788 0.565,5.188c2.709,0.507 3.879,-2.849 3.879,-2.849c0,-0 0.474,1.383 0.987,1.862c1.017,0.952 2.459,1.269 3.732,0.479c1.925,-1.193 1.901,-4.629 -0.285,-5.603" style="fill:none;stroke:#445;stroke-width:2px;"/></g><g id="left-apple"><path d="M109.77,73.435c-11.232,20.845 1.386,46.515 26.918,53.001c10.654,2.707 17.027,2.493 26.318,-0.922c18.848,-6.928 29.566,-31.24 25.057,-50.227c-2.642,-11.124 -14.177,-17.532 -25.247,-15.038c-5.639,1.27 -10.26,5.129 -16.043,6.032c-12.516,1.954 -28.849,-7.981 -37.003,7.154Z" style="fill:#ff0078;"/><path d="M144.849,69.869c-1.356,-4.73 -7.798,-10.05 -10.594,-14.129c-1.343,-1.96 -3.457,-4.715 -0.696,-6.343c8.486,-5.004 10.48,5.852 11.957,12.028c0.054,0.227 2.058,8.604 0.782,9.183c-0.884,0.402 -1.449,-0.739 -1.449,-0.739Z" style="fill:#445;"/><path d="M137.147,57.758c-0.017,-1.73 -7.778,-2.484 -9.062,-2.88c-6.164,-1.902 -12.415,-3.437 -18.86,-3.985c-1.905,-0.162 -5.095,-0.882 -6.71,0.437c-1.396,1.139 8.68,5.973 9.365,6.247c7.461,2.983 25.285,1.912 25.267,0.181Z" style="fill:#bad7e6;"/><path d="M135.475,82.281c-2.357,-0.747 -4.662,1.273 -5.015,1.924c-1.611,2.974 1.644,6.428 4.765,5.744c4.707,-1.031 2.606,-6.921 0.25,-7.668Z" style="fill:#445;"/><path d="M164.65,77.091c-0,-0 -1.38,-0.065 -2.587,0.411c-1.285,0.507 -2.357,1.627 -2.758,2.97c-0.292,0.976 -0.236,1.988 0.324,2.859c0.399,0.62 1.012,1.119 1.661,1.461c5.893,3.103 8.642,-7.589 3.36,-7.701Z" style="fill:#445;"/><path d="M143.976,86.743c-0.006,-0.113 -0.344,0.619 -0.383,0.728c-0.197,0.549 -0.299,1.118 -0.327,1.701c-0.079,1.661 0.64,3.761 2.576,3.931c1.343,0.117 2.643,-0.708 3.402,-1.766c0.185,-0.258 0.556,-1.357 0.839,-1.467c0.15,-0.058 2.25,1.71 2.757,1.803c3.57,0.656 4.525,-3.889 3.057,-6.313" style="fill:none;stroke:#445;stroke-width:2px;"/></g><g id="basket-front"><path d="M297.204,85.628c-2.075,-0.298 -3.813,-0.287 -4.766,0.26c-3.849,2.211 4.409,2.977 6.664,8.318c2.255,5.341 -26.039,14.265 -35.036,16.742c-38.077,10.482 -78.349,12.686 -117.145,4.229c-11.854,-2.583 -24.28,-5.274 -34.917,-11.335c-1.419,-0.809 -14.115,-7.637 -12.048,-11.83c2.066,-4.194 6.244,-5.21 4.063,-5.992c-0.385,-0.139 -0.776,-0.223 -1.164,-0.253c-5.111,2.188 -11.603,5.933 -10.668,11.726c0.883,5.472 8.533,7.623 10.589,12.457c1.182,2.779 0.976,6.262 1.656,9.186c1.754,7.537 4.917,14.628 10.45,20.157c9.412,9.404 21.857,12.998 34.498,15.825c26.152,5.849 54.103,7.672 80.613,3.435c11.331,-1.811 36.969,-8.33 46.967,-14.362c11.794,-7.115 10.781,-19.736 18.55,-30.489c4.817,-6.666 6.279,-3.487 10.878,-10.186c4.321,-6.294 -1.313,-13.202 -9.184,-17.888Z" style="fill:#bad7e6;"/><path d="M181.651,139.634c-2.377,-3.721 -6.534,-3.248 -8.423,-1.368c-1.338,1.331 -2.715,3.201 -2.679,5.338c0.122,7.211 15.883,3.512 11.102,-3.97Z" style="fill:#445;"/><path d="M224.747,135.999c-1.466,-0.915 -5.396,-1.006 -7.948,2.068c-2.203,2.654 -2.204,6.54 1.132,8.068c6.535,2.994 12.301,-6.712 6.816,-10.136Z" style="fill:#445;"/><path d="M194.099,146.311c0.277,10.976 8.586,9.904 8.998,0.278" style="fill:none;stroke:#445;stroke-width:2px;"/></g><g id="parent-arrow"><path d="M27.195,50.851c2.439,15.425 6.797,30.648 15.14,43.981c10.237,16.361 28.766,29.742 48.484,30.949" style="fill:none;stroke:#ff0078;stroke-width:2px;"/><path d="M86.563,120.466c1.635,1.192 5.711,3.955 5.895,5.429c0.2,1.611 -5.18,4.362 -6.501,5.023" style="fill:none;stroke:#ff0078;stroke-width:2px;"/></g><g id="children-arrows"><path d="M253.2,45.851c19.114,-14.65 35.888,-20.404 57.519,-16.492" style="fill:none;stroke:#ff0078;stroke-width:2px;"/><path d="M281.199,66.184c9.103,-14.73 14.077,-27.147 31.723,-31.952" style="fill:none;stroke:#ff0078;stroke-width:2px;"/><path d="M255.856,38.037c-2.211,3.054 -3.921,7.694 -3.533,8.178c0.63,0.787 6.007,1.793 6.967,2.033" style="fill:none;stroke:#ff0078;stroke-width:2px;"/><path d="M278.866,61.183c-0.077,0 1.15,6.857 2.012,7.001c0.903,0.15 5.585,-3.21 6.745,-3.824" style="fill:none;stroke:#ff0078;stroke-width:2px;"/></g><g id="parent"><path d="M21.666,45.115c-1.206,-2.417 -2.387,-4.867 -3.553,-7.306c-0.49,-1.026 -1.27,-2.425 0.127,-3.067c0.812,-0.373 1.737,-0.447 2.614,-0.533c1.071,-0.105 2.542,-0.176 3.433,0.56c1.702,1.406 -0.1,3.9 -1.434,4.726c-0.15,0.093 -3.054,1.374 -3.053,1.227" style="fill:none;stroke:#ff0078;stroke-width:2px;"/><path d="M29.338,42.25c-0.663,-1.329 -0.997,-2.885 -1.232,-4.339c-0.153,-0.943 -0.3,-1.89 -0.3,-2.847c-0,-0.557 0.052,-1.112 0.153,-1.66c0.367,-1.995 1.697,-2.823 3.147,-1.093c1.274,1.52 4.258,7.457 4.258,7.457" style="fill:none;stroke:#ff0078;stroke-width:2px;"/><path d="M28.131,37.988c-0.201,-0.038 0.381,-0.228 0.573,-0.338c0.379,-0.216 0.764,-0.42 1.153,-0.6c1.132,-0.524 1.974,-0.62 3.087,-1.16" style="fill:none;stroke:#ff0078;stroke-width:2px;"/><path d="M39.17,38.266c-0.35,-0.616 -0.791,-1.553 -1.127,-2.176c-0.921,-1.705 -1.822,-3.402 -2.687,-5.133c-0.102,-0.204 -0.715,-1.373 -0.493,-1.546c1.619,-1.258 7.559,-1.37 6.887,1.873c-0.426,2.053 -3.75,2.89 -3.75,2.89c-0,-0 0.818,-0.092 1.063,-0.077c0.509,0.031 4.084,1.542 5.641,1.852" style="fill:none;stroke:#ff0078;stroke-width:2px;"/><path d="M49.939,24.683c-3.769,1.721 -3.763,4.271 -3.576,5.628c0.684,4.948 5.724,4.243 8.333,1.633" style="fill:none;stroke:#ff0078;stroke-width:2px;"/><path d="M47.359,30.938c1.092,-0.672 2.933,-1.63 4.061,-2.167" style="fill:none;stroke:#ff0078;stroke-width:2px;"/><path d="M57.612,31.284c0.039,0 -0.589,-1.356 -0.676,-1.54c-0.471,-0.993 -2.916,-5.478 -2.032,-6.539c0.565,-0.677 1.937,0.576 2.334,0.913c1.464,1.243 2.585,2.741 3.89,4.13c0.313,0.333 1.046,1.219 1.607,1.046c0.71,-0.218 0.18,-1.919 0.066,-2.326c-0.496,-1.769 -1.339,-4.525 -2.151,-6.197" style="fill:none;stroke:#ff0078;stroke-width:2px;"/><path d="M63.754,19.607c1.881,-1.028 6.208,-2.456 8.785,-3.315" style="fill:none;stroke:#ff0078;stroke-width:2px;"/><path d="M67.946,18.448c1.4,1.394 3.078,7.697 3.399,8.305" style="fill:none;stroke:#ff0078;stroke-width:2px;"/></g><g id="children"><path d="M326.397,19.836c-1.356,0.015 -2.696,0.177 -3.917,0.812c-1.352,0.703 -2.914,1.933 -3.526,3.382c-0.934,2.215 0.52,4.602 2.787,5.164c1.758,0.437 3.557,-0.208 5.11,-1.018" style="fill:none;stroke:#ff0078;stroke-width:2px;"/><path d="M319.119,24.798c1.985,-0.056 3.952,-0.443 5.939,-0.498" style="fill:none;stroke:#ff0078;stroke-width:2px;"/><path d="M331.025,29.083c-0.801,-2.6 -0.78,-4.329 -0.482,-7.005c0.099,-0.889 0.224,-2.654 1.592,-2.032c0.139,0.063 0.289,0.195 0.387,0.287c1.172,1.098 2.731,6.365 3.207,7.358c0.261,0.543 0.892,2.057 1.054,2.037c0.09,-0.011 0.843,-3.337 0.95,-4.007c0.367,-2.296 0.382,-3.116 0.532,-5.44" style="fill:none;stroke:#ff0078;stroke-width:2px;"/><path d="M342.202,30.156c-0.283,-2.197 -0.405,-4.5 -0.276,-6.714c0.059,-1.021 0.186,-2.152 0.996,-2.869c1.171,-1.037 2.76,-1.044 4.217,-1.196c0.969,-0.101 1.875,-0.052 2.831,0.08" style="fill:none;stroke:#ff0078;stroke-width:2px;"/><path d="M342.149,26.245c1.893,-0.207 3.695,-0.977 5.588,-1.103" style="fill:none;stroke:#ff0078;stroke-width:2px;"/><path d="M352.461,30.161c-0.732,-3.172 0.299,-6.919 2.448,-9.152c0.64,-0.665 2.03,-1.976 3.021,-1.337c0.752,0.485 0.958,1.823 1.094,2.669c0.363,2.26 0.049,4.915 -0.367,7.166" style="fill:none;stroke:#ff0078;stroke-width:1.75px;"/><path d="M352.73,25.854c1.31,0.096 2.649,0.077 3.965,0.11c0.518,0.013 1.059,-0.201 1.57,-0.08" style="fill:none;stroke:#ff0078;stroke-width:1.75px;"/><path d="M362.796,30.047c-0.49,-2.636 -0.08,-5.323 0.713,-7.845c0.309,-0.982 1.014,-3.127 2.328,-1.806c0.513,0.516 0.77,1.274 0.966,1.979c0.155,0.561 0.284,1.13 0.437,1.691c0.119,0.438 0.231,0.88 0.342,1.32c0.097,0.383 0.194,0.766 0.296,1.147c0.093,0.352 0.175,0.707 0.264,1.061c0.069,0.277 0.148,0.554 0.227,0.828c0.235,0.808 0.992,3.315 1.97,1.637c0.157,-0.271 0.267,-0.576 0.353,-0.881c0.118,-0.418 0.187,-0.852 0.247,-1.283c0.137,-0.976 0.265,-1.944 0.474,-2.906c0.313,-1.439 0.552,-2.886 0.787,-4.34" style="fill:none;stroke:#ff0078;stroke-width:1.93px;"/><path d="M374.97,21.04c3.69,-0.043 7.415,-0.545 11.108,-0.163" style="fill:none;stroke:#ff0078;stroke-width:1.92px;"/><path d="M380.817,20.811c-1.021,3.317 -2.021,6.832 -2.29,10.286" style="fill:none;stroke:#ff0078;stroke-width:1.92px;"/><path d="M394.125,22.056c-1.697,-0.717 -3.968,-0.135 -5.046,1.37c-0.336,0.47 -0.704,1.095 -0.564,1.695c0.173,0.745 1.042,0.994 1.701,1.163c0.7,0.18 1.523,0.239 2.151,0.617c1.109,0.665 1.993,2.096 1.347,3.319c-0.829,1.57 -3.287,2.542 -4.991,1.92c-1.097,-0.399 -2.808,-1.549 -2.046,-2.844" style="fill:none;stroke:#ff0078;stroke-width:2px;"/></g></svg>