<?xml version="1.0" encoding="UTF-8" standalone="no"?><!DOCTYPE svg PUBLIC "-//W3C//DTD SVG 1.1//EN" "http://www.w3.org/Graphics/SVG/1.1/DTD/svg11.dtd"><svg width="100%" height="100%" viewBox="0 0 120 63" version="1.1" xmlns="http://www.w3.org/2000/svg" xmlns:xlink="http://www.w3.org/1999/xlink" xml:space="preserve" xmlns:serif="http://www.serif.com/" style="fill-rule:evenodd;clip-rule:evenodd;stroke-linecap:round;stroke-linejoin:round;stroke-miterlimit:1.5;"><rect id="indentation" x="0" y="0" width="120" height="62.401" style="fill:none;"/><path d="M52.736,48.997c-0.095,-4.886 -0.525,-21.444 -0.542,-28.031c-0.005,-1.921 -0.475,-5.719 1.44,-6.99c3.014,-2.003 50.806,-1.243 53.366,-1.058c0.953,0.069 2.287,0.036 3.139,0.539c1.118,0.66 1.853,2.03 2.229,3.224c0.334,1.06 0.41,2.191 0.475,3.293c0.609,10.226 1.39,30.836 0.995,33.164c-0.218,1.285 -0.432,2.588 -1.469,3.493c-3.527,3.078 -42.908,0.819 -46.248,0.848c-2.753,0.025 -10.237,-0.109 -11.577,-1.916c-1.351,-1.82 -1.766,-4.414 -1.808,-6.566Z" style="fill:#82b7d1;"/><clipPath id="_clip1"><path d="M52.736,48.997c-0.095,-4.886 -0.525,-21.444 -0.542,-28.031c-0.005,-1.921 -0.475,-5.719 1.44,-6.99c3.014,-2.003 50.806,-1.243 53.366,-1.058c0.953,0.069 2.287,0.036 3.139,0.539c1.118,0.66 1.853,2.03 2.229,3.224c0.334,1.06 0.41,2.191 0.475,3.293c0.609,10.226 1.39,30.836 0.995,33.164c-0.218,1.285 -0.432,2.588 -1.469,3.493c-3.527,3.078 -42.908,0.819 -46.248,0.848c-2.753,0.025 -10.237,-0.109 -11.577,-1.916c-1.351,-1.82 -1.766,-4.414 -1.808,-6.566Z"/></clipPath><g clip-path="url(#_clip1)"><path d="M72.216,59.922c-2.377,-0.086 -3.368,-2.006 -4.042,-3.405c-1.685,-3.501 -1.614,-9.328 -1.618,-13.088c-0.006,-5.152 -0.055,-5.507 0.145,-10.659c0.086,-2.222 0.245,-4.425 0.464,-6.638c0.132,-1.333 0.363,-2.814 1.511,-3.667c1.371,-1.018 3.33,-1.199 4.973,-1.335c2.181,-0.181 38.036,-1.061 40.894,0.521c2.869,1.588 1.626,37.618 1.626,37.618l-43.953,0.653Z" style="fill:#bad7e6;"/><path d="M80.459,36.512c0.101,-1.862 0.188,-4.403 1.557,-5.832c1.213,-1.268 3.123,-1.302 4.76,-1.266c2.526,0.054 5.078,-0.056 7.596,0.16c8.819,0.757 20.796,0.267 20.796,0.267l-0.543,28.366c-0,0 -25.975,1.335 -28.238,1.001c-2.422,-0.358 -2.83,2.087 -5.458,-2.274c-0.975,-1.617 -1.032,-3.61 -1.07,-5.441c-0.056,-2.688 0.345,-10.272 0.6,-14.981Z" style="fill:#ffe5f2;"/><path d="M96.29,47.826l-0.246,-0.005c-1.102,-0.336 -2.152,-0.854 -2.866,-1.79c-1.517,-1.99 -1.287,-5.938 1.241,-6.997c2.203,-0.922 5.057,-0.366 7.371,-0.317c1.705,0.037 12.123,0.189 13.611,0.285c0.6,0.039 1.232,18.569 1.232,18.569c0,0 -16.949,1.845 -20.784,0.641c-1.067,-0.336 -2.097,-0.843 -2.922,-1.607c-0.373,-0.345 -0.66,-0.767 -0.886,-1.219c-1.818,-3.626 0.794,-7.193 4.17,-7.558l0.079,-0.002Z" style="fill:#ff0078;"/></g><g id="kitchen"><path d="M54.694,19.288c-0.131,-0.553 -0.23,-1.139 -0.21,-1.71c0.002,-0.053 -0.017,-0.499 0.119,-0.479c0.225,0.032 0.392,0.283 0.52,0.449c0.036,0.045 0.106,0.189 0.167,0.207c0.079,0.023 0.212,-0.092 0.26,-0.139c0.127,-0.124 0.324,-0.665 0.514,-0.707c0.128,-0.029 0.282,0.482 0.306,0.562c0.17,0.543 0.202,1.14 0.235,1.707" style="fill:none;stroke:#444456;stroke-width:0.48px;"/><path d="M57.445,19.138c-0.187,-0.612 -0.266,-1.462 0.037,-2.057c0.155,-0.306 0.466,-0.608 0.821,-0.389c0.279,0.174 0.365,0.49 0.427,0.793c0.104,0.506 0.159,1.064 0.175,1.584" style="fill:none;stroke:#444456;stroke-width:0.48px;"/><path d="M57.401,18.043c0.385,-0.025 0.774,-0.087 1.16,-0.1" style="fill:none;stroke:#444456;stroke-width:0.48px;"/><path d="M59.921,16.545c0.007,0.786 0.013,1.611 0.103,2.396" style="fill:none;stroke:#444456;stroke-width:0.48px;"/><path d="M62.296,16.588c-0.664,-0.356 -1.115,-0.03 -1.243,0.171c-0.133,0.208 -0.092,0.522 0.086,0.703c0.246,0.25 1.376,0.287 1.389,0.795c0.021,0.747 -1.248,0.713 -1.563,0.164" style="fill:none;stroke:#444456;stroke-width:0.48px;"/><path d="M64.275,16.603c-0.615,0.069 -1.025,0.678 -1.054,1.269c-0.027,0.553 0.326,1.036 0.923,0.969c0.527,-0.059 1.019,-0.632 1.105,-1.142c0.097,-0.58 -0.287,-1.065 -0.877,-1.033" style="fill:none;stroke:#444456;stroke-width:0.48px;"/><path d="M66.143,18.954c-0.139,-0.554 -0.181,-1.145 -0.13,-1.721c0.016,-0.176 -0.021,-0.631 0.201,-0.523c0.162,0.08 0.294,0.227 0.397,0.396c0.079,0.129 0.137,0.275 0.198,0.416c0.172,0.403 0.698,1.956 1.087,0.857c0.039,-0.109 0.061,-0.223 0.07,-0.342c0.017,-0.222 0.006,-0.452 0.001,-0.676c-0.007,-0.346 0.002,-0.693 0.001,-1.039" style="fill:none;stroke:#444456;stroke-width:0.48px;"/></g><g id="table"><path d="M73.088,24.472c-0.488,-0.229 -1.019,-0.041 -1.368,0.347c-0.112,0.124 -0.278,0.324 -0.237,0.506c0.05,0.225 0.359,0.235 0.538,0.265c0.522,0.088 1.143,0.273 0.956,0.946c-0.138,0.5 -0.671,0.769 -1.164,0.689c-0.226,-0.036 -0.642,-0.24 -0.646,-0.527" style="fill:none;stroke:#444456;stroke-width:0.48px;"/><path d="M73.863,27.087c-0.265,-0.691 -0.188,-1.488 0.1,-2.16c0.166,-0.387 0.584,-0.86 0.963,-0.357c0.127,0.168 0.192,0.383 0.247,0.584c0.063,0.232 0.097,0.472 0.111,0.712c0.02,0.358 0.054,0.727 0.003,1.085" style="fill:none;stroke:#444456;stroke-width:0.48px;"/><path d="M73.781,25.988c0.399,-0.095 0.815,-0.153 1.226,-0.16" style="fill:none;stroke:#444456;stroke-width:0.48px;"/><path d="M76.108,24.211c-0.035,0.479 -0.055,0.958 -0.088,1.437c-0.04,0.593 -0.15,1.071 0.55,1.178c0.111,0.017 0.223,0.01 0.335,0.003c0.22,-0.014 0.438,-0.029 0.655,-0.065" style="fill:none;stroke:#444456;stroke-width:0.48px;"/><path d="M79.59,24.353c-0.67,-0.019 -1.32,0.653 -1.415,1.297c-0.079,0.528 0.248,1.151 0.842,1.152c0.678,0.001 1.324,-0.81 1.415,-1.432c0.066,-0.448 -0.257,-1.016 -0.767,-0.933" style="fill:none;stroke:#444456;stroke-width:0.48px;"/><path d="M81.508,26.905c0,-0.299 -0.007,-0.598 -0.009,-0.897c-0.001,-0.205 -0.001,-0.41 0.004,-0.616c0.004,-0.186 0.014,-0.372 0.036,-0.557c0.007,-0.062 -0.026,-0.173 0.036,-0.183c0.192,-0.031 0.37,0.168 0.465,0.305c0.249,0.356 0.394,0.777 0.526,1.187c0.047,0.147 0.098,0.292 0.153,0.437c0.001,0.003 0.041,0.112 0.051,0.109c0.18,-0.064 0.287,-0.399 0.339,-0.561c0.175,-0.553 0.144,-1.128 0.193,-1.698" style="fill:none;stroke:#444456;stroke-width:0.48px;"/></g><g id="basket"><path d="M83.175,33.636c0.197,-0.013 0.512,-0.041 0.708,-0.051c0.489,-0.026 1.022,0.029 1.505,-0.068" style="fill:none;stroke:#444456;stroke-width:0.48px;"/><path d="M84.226,33.586c-0,0.681 0.071,1.918 0.145,2.384" style="fill:none;stroke:#444456;stroke-width:0.48px;"/><path d="M85.7,35.926c0,-0.697 0.053,-1.19 0.276,-1.855c0.07,-0.211 0.168,-0.568 0.407,-0.65c0.285,-0.097 0.535,0.279 0.643,0.484c0.309,0.584 0.34,1.384 0.34,2.045" style="fill:none;stroke:#444456;stroke-width:0.48px;"/><path d="M85.897,34.962c0,-0.027 0.322,-0.035 0.346,-0.036c0.372,-0.015 0.623,0.005 0.994,0.005" style="fill:none;stroke:#444456;stroke-width:0.48px;"/><path d="M88.334,35.894c0,-0.696 -0.335,-1.44 -0.249,-2.137c0.025,-0.202 0.283,-0.338 0.455,-0.362c1.52,-0.211 1.244,1.007 0.578,1.171c1.2,-0.031 1.092,1.031 0.445,1.283c-0.316,0.123 -1.229,0.045 -1.229,0.045Z" style="fill:none;stroke:#444456;stroke-width:0.48px;"/><path d="M90.86,33.415c-0.003,0.572 -0.053,2.266 0.096,2.363c0.111,0.071 0.798,-0.018 1.259,-0.018" style="fill:none;stroke:#444456;stroke-width:0.48px;"/><path d="M94.126,33.484c-0.272,0.003 -0.529,0.088 -0.656,0.153c-0.384,0.197 -0.638,0.533 -0.662,0.972c-0.047,0.851 0.855,1.388 1.574,0.962" style="fill:none;stroke:#444456;stroke-width:0.48px;"/><path d="M92.82,34.539c0.002,-0.009 0.296,0.021 0.313,0.022c0.322,0.019 0.658,-0.002 0.976,0.042" style="fill:none;stroke:#444456;stroke-width:0.48px;"/></g><g id="apple"><g><path d="M98.191,42.217c-0.711,-0.013 -1.395,0.451 -1.731,1.066c-0.372,0.68 -0.125,1.37 0.686,1.472c0.174,0.021 0.357,0.042 0.532,0.022c0.335,-0.039 0.665,-0.197 0.966,-0.346" style="fill:none;stroke:#444456;stroke-width:0.48px;"/><path d="M99.345,42.048c0.048,0.776 -0.061,1.732 0.24,2.471" style="fill:none;stroke:#444456;stroke-width:0.48px;"/><path d="M100.868,41.795c0.017,0.996 0.057,1.988 0.08,2.983" style="fill:none;stroke:#444456;stroke-width:0.48px;"/><path d="M99.366,43.306c0.414,-0.01 0.827,-0.046 1.24,-0.067" style="fill:none;stroke:#444456;stroke-width:0.48px;"/><path d="M102.175,44.778c-0.171,-0.779 -0.094,-1.637 0.274,-2.355c0.107,-0.209 0.31,-0.602 0.609,-0.551c0.239,0.041 0.392,0.384 0.478,0.576c0.282,0.635 0.316,1.393 0.263,2.077" style="fill:none;stroke:#444456;stroke-width:0.48px;"/><path d="M102.048,43.58c0.578,-0.069 1.143,-0.151 1.712,-0.266" style="fill:none;stroke:#444456;stroke-width:0.48px;"/><path d="M104.766,41.96c0.026,0.744 0.019,1.833 0.076,2.68" style="fill:none;stroke:#444456;stroke-width:0.48px;"/><path d="M107.461,42.164c-0.294,-0.208 -1.571,-0.176 -1.518,0.615c0.046,0.683 1.664,0.326 1.49,1.438c-0.092,0.588 -1.406,0.475 -1.672,0.035" style="fill:none;stroke:#444456;stroke-width:0.48px;"/><path d="M110.178,42.09c-0.366,0.03 -0.719,0.155 -1.033,0.373c-0.336,0.234 -0.638,0.597 -0.728,1.04c-0.196,0.966 0.507,1.546 1.314,1.257c0.268,-0.095 0.51,-0.265 0.722,-0.469" style="fill:none;stroke:#444456;stroke-width:0.48px;"/><path d="M108.433,43.813c0.511,-0.103 1.019,-0.245 1.53,-0.351" style="fill:none;stroke:#444456;stroke-width:0.48px;"/></g></g><g id="apple1" serif:id="apple"><g><path d="M98.191,51.817c-0.711,-0.013 -1.395,0.451 -1.731,1.066c-0.372,0.681 -0.125,1.371 0.686,1.472c0.174,0.022 0.357,0.043 0.532,0.022c0.335,-0.039 0.665,-0.196 0.966,-0.345" style="fill:none;stroke:#444456;stroke-width:0.48px;"/><path d="M99.345,51.648c0.048,0.776 -0.061,1.732 0.24,2.471" style="fill:none;stroke:#444456;stroke-width:0.48px;"/><path d="M100.868,51.395c0.017,0.997 0.057,1.988 0.08,2.983" style="fill:none;stroke:#444456;stroke-width:0.48px;"/><path d="M99.366,52.907c0.414,-0.011 0.827,-0.046 1.24,-0.067" style="fill:none;stroke:#444456;stroke-width:0.48px;"/><path d="M102.175,54.378c-0.171,-0.779 -0.094,-1.636 0.274,-2.355c0.107,-0.209 0.31,-0.601 0.609,-0.55c0.239,0.04 0.392,0.383 0.478,0.575c0.282,0.636 0.316,1.394 0.263,2.078" style="fill:none;stroke:#444456;stroke-width:0.48px;"/><path d="M102.048,53.18c0.578,-0.069 1.143,-0.15 1.712,-0.266" style="fill:none;stroke:#444456;stroke-width:0.48px;"/><path d="M104.766,51.56c0.026,0.745 0.019,1.833 0.076,2.681" style="fill:none;stroke:#444456;stroke-width:0.48px;"/><path d="M107.461,51.764c-0.294,-0.208 -1.571,-0.176 -1.518,0.616c0.046,0.683 1.664,0.325 1.49,1.437c-0.092,0.589 -1.406,0.476 -1.672,0.036" style="fill:none;stroke:#444456;stroke-width:0.48px;"/><path d="M110.178,51.691c-0.366,0.03 -0.719,0.154 -1.033,0.372c-0.336,0.234 -0.638,0.597 -0.728,1.04c-0.196,0.966 0.507,1.546 1.314,1.258c0.268,-0.096 0.51,-0.265 0.722,-0.47" style="fill:none;stroke:#444456;stroke-width:0.48px;"/><path d="M108.433,53.413c0.511,-0.103 1.019,-0.245 1.53,-0.351" style="fill:none;stroke:#444456;stroke-width:0.48px;"/></g></g><g id="THIRD-SPACE" serif:id="THIRD SPACE"><path d="M82.662,43.955c0,0.148 -0.343,0.436 -0.432,0.536c-0.056,0.063 -0.114,0.124 -0.174,0.184c-0.161,0.161 -0.33,0.292 -0.501,0.436c-0.029,0.025 -0.105,0.143 -0.15,0.138c-0.13,-0.017 -0.466,-0.437 -0.564,-0.73" style="fill:none;stroke:#fff;stroke-width:0.48px;"/><path d="M88.284,41.989c-0.062,0 0.108,-0.055 0.117,-0.057c0.109,-0.02 0.219,-0.039 0.328,-0.059c0.299,-0.055 0.598,-0.11 0.896,-0.173c0.13,-0.028 0.259,-0.062 0.387,-0.097c0.071,-0.019 0.143,-0.037 0.215,-0.056c0.317,-0.085 -0.098,-1.173 1.041,-1.177" style="fill:none;stroke:#fff;stroke-width:0.48px;"/><path d="M84.598,45.246c0.023,-0 -0.162,0.081 -0.192,0.098c-0.133,0.077 -0.248,0.206 -0.298,0.352c-0.064,0.191 0.034,0.398 0.176,0.524c0.015,0.014 0.272,0.176 0.271,0.178c-0.105,0.13 -0.651,-0.076 -1.277,0.012" style="fill:none;stroke:#fff;stroke-width:0.48px;"/><path d="M87.113,45.201c-0,0.143 0.329,0.378 0.419,0.452c0.461,0.378 1.018,0.685 1.628,0.685" style="fill:none;stroke:#fff;stroke-width:0.48px;"/><path d="M86.843,39.896c-1.179,-0.44 -3.662,-0.118 -4.34,1.195c-0.367,0.71 -0.674,1.648 -0.382,2.446c0.798,2.184 4.787,2.966 6.253,1.099c1.224,-1.558 0.203,-4.092 -1.531,-4.74Z" style="fill:#fff;"/><path d="M83.148,43.883c0.118,0.175 0.607,0.328 0.936,0.274" style="fill:none;stroke:#445;stroke-width:0.48px;"/><path d="M85.814,43.909c0.483,-0.215 0.72,-0.506 0.913,-0.699" style="fill:none;stroke:#445;stroke-width:0.48px;"/><path d="M84.945,45.02c0.122,-0.127 0.398,-0.097 0.43,-0.099" style="fill:none;stroke:#445;stroke-width:0.48px;"/></g><g id="SECOND-SPACE" serif:id="SECOND SPACE"><path d="M75.386,37.126c-1.287,0.386 -3.693,0.629 -4.72,-1.831c-1.344,-3.22 3.53,-5.216 5.659,-3.067c1.484,1.499 1.207,4.253 -0.939,4.898Z" style="fill:#fff;"/><path d="M72.299,34.669c0.24,0.19 0.616,0.452 0.832,0.575" style="fill:none;stroke:#445;stroke-width:0.48px;"/><path d="M74.871,35.053c0.137,-0.086 0.608,-0.535 0.757,-0.782" style="fill:none;stroke:#445;stroke-width:0.48px;"/><path d="M73.182,36.666c0.131,-0.3 0.115,-0.544 0.478,-0.573c0.362,-0.03 0.348,0.521 0.794,0.5c0.227,-0.011 0.517,-0.262 0.512,-0.568" style="fill:none;stroke:#445;stroke-width:0.48px;"/><path d="M70.878,34.748c0,0.317 -0.798,0.126 -0.937,0.066c-0.585,-0.254 -0.942,-0.912 -0.637,-1.522l-0.71,-0.247" style="fill:none;stroke:#fff;stroke-width:0.48px;"/><path d="M77.06,34.594c0.341,0 0.647,0.016 0.957,-0.167c0.562,-0.333 0.884,-1.411 0.563,-2.008l0.856,-0.11" style="fill:none;stroke:#fff;stroke-width:0.48px;"/><path d="M75.448,36.801c0.971,0.413 0.313,1.095 0.325,1.104c0.097,0.064 0.874,0.028 1.242,-0.027" style="fill:none;stroke:#fff;stroke-width:0.48px;"/><path d="M72.296,36.902c-0.873,0.324 -0.098,0.913 -0.148,0.983c-0.032,0.044 -0.662,-0.087 -1.062,0.048" style="fill:none;stroke:#fff;stroke-width:0.48px;"/></g><g id="FIRST-SPACE" serif:id="FIRST SPACE"><path d="M58.907,24.34c0,-0 -1.204,0.237 -1.701,0.598c-0.705,0.512 -2.026,2.196 -0.708,4.386c0.382,0.635 0.89,1.193 1.528,1.576c0.472,0.283 0.995,0.464 1.544,0.512c4.936,0.429 3.84,-7.835 -0.663,-7.072Z" style="fill:#fff;"/><path d="M61.071,30.523c0.067,0.007 0.164,0.184 0.199,0.227c0.442,0.543 0.14,1.272 0.069,1.3c-0.034,0.013 0.256,0.008 0.329,0.012c0.224,0.012 0.464,0.002 0.684,0.023" style="fill:none;stroke:#fff;stroke-width:0.48px;"/><path d="M58.631,30.621c0,0.051 -0.18,0.177 -0.212,0.219c-0.123,0.162 -0.213,0.35 -0.226,0.556c-0.011,0.161 0.043,0.313 0.123,0.451c0.007,0.013 0.134,0.183 0.129,0.188c-0.111,0.11 -0.554,-0.074 -1.157,-0" style="fill:none;stroke:#fff;stroke-width:0.48px;"/><path d="M62.751,27.683c-0.014,-0.015 0.123,-0.005 0.134,-0.004c0.099,0.007 0.2,0.012 0.3,0.018c0.301,0.019 0.602,0.04 0.903,0.053c0.148,0.007 0.297,0.015 0.445,0.017c0.168,0.001 0.512,0.063 0.671,-0.023c0.08,-0.043 0.063,-0.217 0.068,-0.29c0.02,-0.259 0.06,-0.527 0.06,-0.787" style="fill:none;stroke:#fff;stroke-width:0.48px;"/><path d="M56.269,28.512c-0.472,-0 -1.063,0.287 -1.518,0.412c-0.057,0.015 -0.469,0.188 -0.534,0.14c-0.104,-0.078 -0.374,-0.852 -0.374,-0.971" style="fill:none;stroke:#fff;stroke-width:0.48px;"/><path d="M57.558,28.095c0.331,0.025 0.684,0.147 0.985,0.402" style="fill:none;stroke:#445;stroke-width:0.48px;"/><path d="M60.601,28.297c0.051,-0.246 0.319,-0.669 0.761,-0.897" style="fill:none;stroke:#445;stroke-width:0.48px;"/><path d="M59.341,29.71c0.29,-0.472 1.276,-0.538 1.534,-0.176" style="fill:none;stroke:#445;stroke-width:0.48px;"/></g><path d="M45.016,48.997c0.095,-4.886 0.525,-21.444 0.542,-28.031c0.005,-1.921 0.476,-5.719 -1.439,-6.99c-3.015,-2.003 -28.624,-1.243 -31.184,-1.058c-0.953,0.069 -2.287,0.036 -3.139,0.539c-1.118,0.66 -1.853,2.03 -2.229,3.224c-0.333,1.06 -0.409,2.191 -0.475,3.293c-0.608,10.226 -0.27,30.836 0.125,33.164c0.218,1.285 0.432,2.588 1.469,3.493c3.527,3.078 19.605,0.819 22.945,0.848c2.754,0.025 10.238,-0.109 11.578,-1.916c1.35,-1.82 1.766,-4.414 1.807,-6.566Z" style="fill:#82b7d1;"/><clipPath id="_clip2"><path d="M45.016,48.997c0.095,-4.886 0.525,-21.444 0.542,-28.031c0.005,-1.921 0.476,-5.719 -1.439,-6.99c-3.015,-2.003 -28.624,-1.243 -31.184,-1.058c-0.953,0.069 -2.287,0.036 -3.139,0.539c-1.118,0.66 -1.853,2.03 -2.229,3.224c-0.333,1.06 -0.409,2.191 -0.475,3.293c-0.608,10.226 -0.27,30.836 0.125,33.164c0.218,1.285 0.432,2.588 1.469,3.493c3.527,3.078 19.605,0.819 22.945,0.848c2.754,0.025 10.238,-0.109 11.578,-1.916c1.35,-1.82 1.766,-4.414 1.807,-6.566Z"/></clipPath><g clip-path="url(#_clip2)"><path d="M47.526,59.573l0.452,-37.428c-0,0 -5.082,-0.879 -6.406,-1.015c-1.756,-0.181 -33.035,-0.501 -35.336,1.081c-2.311,1.588 -0.35,36.898 -0.35,36.898l41.64,0.464Z" style="fill:#bad7e6;"/><path d="M45.613,58.251c-0,-0 2.42,-26.142 0.797,-27.571c-1.439,-1.268 -3.703,-1.302 -5.643,-1.266c-2.994,0.054 -6.019,-0.056 -9.005,0.16c-10.454,0.757 -26.491,0.267 -26.491,0.267l1.123,27.966l39.219,0.444Z" style="fill:#ffe5f2;"/><path d="M45.003,58.251c-0,-0 5.073,-18.158 0.449,-19.217c-4.028,-0.922 -9.249,-0.366 -13.48,-0.317c-3.119,0.037 -22.172,0.189 -24.895,0.285c-1.096,0.039 -0.812,20.33 -0.812,20.33l38.738,-1.081Z" style="fill:#ff0078;"/></g><g id="kitchen1" serif:id="kitchen"><path d="M9.665,19.288c-0.132,-0.553 -0.23,-1.139 -0.21,-1.71c0.002,-0.053 -0.018,-0.499 0.118,-0.479c0.226,0.032 0.392,0.283 0.521,0.449c0.035,0.045 0.106,0.189 0.167,0.207c0.078,0.023 0.211,-0.092 0.259,-0.139c0.128,-0.124 0.325,-0.665 0.515,-0.707c0.128,-0.029 0.281,0.482 0.306,0.562c0.17,0.543 0.202,1.14 0.235,1.707" style="fill:none;stroke:#444456;stroke-width:0.48px;"/><path d="M12.416,19.138c-0.188,-0.612 -0.266,-1.462 0.036,-2.057c0.156,-0.306 0.467,-0.608 0.821,-0.389c0.28,0.174 0.366,0.49 0.428,0.793c0.103,0.506 0.158,1.064 0.175,1.584" style="fill:none;stroke:#444456;stroke-width:0.48px;"/><path d="M12.371,18.043c0.386,-0.025 0.774,-0.087 1.161,-0.1" style="fill:none;stroke:#444456;stroke-width:0.48px;"/><path d="M14.892,16.545c0.006,0.786 0.013,1.611 0.102,2.396" style="fill:none;stroke:#444456;stroke-width:0.48px;"/><path d="M17.267,16.588c-0.665,-0.356 -1.115,-0.03 -1.244,0.171c-0.132,0.208 -0.092,0.522 0.087,0.703c0.246,0.25 1.375,0.287 1.389,0.795c0.02,0.747 -1.249,0.713 -1.564,0.164" style="fill:none;stroke:#444456;stroke-width:0.48px;"/><path d="M19.246,16.603c-0.616,0.069 -1.025,0.678 -1.054,1.269c-0.027,0.553 0.326,1.036 0.922,0.969c0.528,-0.059 1.02,-0.632 1.106,-1.142c0.097,-0.58 -0.287,-1.065 -0.877,-1.033" style="fill:none;stroke:#444456;stroke-width:0.48px;"/><path d="M21.113,18.954c-0.138,-0.554 -0.18,-1.145 -0.129,-1.721c0.015,-0.176 -0.021,-0.631 0.2,-0.523c0.163,0.08 0.295,0.227 0.398,0.396c0.078,0.129 0.137,0.275 0.197,0.416c0.173,0.403 0.698,1.956 1.088,0.857c0.038,-0.109 0.06,-0.223 0.069,-0.342c0.017,-0.222 0.006,-0.452 0.002,-0.676c-0.008,-0.346 0.001,-0.693 0,-1.039" style="fill:none;stroke:#444456;stroke-width:0.48px;"/></g><g id="table1" serif:id="table"><path d="M11.919,24.472c-0.488,-0.229 -1.019,-0.041 -1.367,0.347c-0.112,0.124 -0.278,0.324 -0.238,0.506c0.05,0.225 0.36,0.235 0.539,0.265c0.522,0.088 1.142,0.273 0.956,0.946c-0.139,0.5 -0.671,0.769 -1.164,0.689c-0.226,-0.036 -0.643,-0.24 -0.646,-0.527" style="fill:none;stroke:#444456;stroke-width:0.48px;"/><path d="M12.694,27.087c-0.264,-0.691 -0.188,-1.488 0.1,-2.16c0.167,-0.387 0.584,-0.86 0.964,-0.357c0.126,0.168 0.192,0.383 0.246,0.584c0.063,0.232 0.098,0.472 0.111,0.712c0.021,0.358 0.055,0.727 0.004,1.085" style="fill:none;stroke:#444456;stroke-width:0.48px;"/><path d="M12.613,25.988c0.399,-0.095 0.815,-0.153 1.226,-0.16" style="fill:none;stroke:#444456;stroke-width:0.48px;"/><path d="M14.94,24.211c-0.035,0.479 -0.056,0.958 -0.088,1.437c-0.04,0.593 -0.15,1.071 0.55,1.178c0.111,0.017 0.223,0.01 0.334,0.003c0.22,-0.014 0.438,-0.029 0.656,-0.065" style="fill:none;stroke:#444456;stroke-width:0.48px;"/><path d="M18.421,24.353c-0.669,-0.019 -1.319,0.653 -1.415,1.297c-0.078,0.528 0.249,1.151 0.843,1.152c0.677,0.001 1.324,-0.81 1.415,-1.432c0.066,-0.448 -0.257,-1.016 -0.767,-0.933" style="fill:none;stroke:#444456;stroke-width:0.48px;"/><path d="M20.34,26.905c-0,-0.299 -0.007,-0.598 -0.009,-0.897c-0.001,-0.205 -0.001,-0.41 0.004,-0.616c0.004,-0.186 0.014,-0.372 0.035,-0.557c0.008,-0.062 -0.025,-0.173 0.036,-0.183c0.192,-0.031 0.37,0.168 0.466,0.305c0.248,0.356 0.394,0.777 0.525,1.187c0.048,0.147 0.099,0.292 0.153,0.437c0.001,0.003 0.042,0.112 0.051,0.109c0.181,-0.064 0.288,-0.399 0.339,-0.561c0.176,-0.553 0.144,-1.128 0.194,-1.698" style="fill:none;stroke:#444456;stroke-width:0.48px;"/></g><g id="basket1" serif:id="basket"><path d="M11.266,33.636c0.197,-0.013 0.511,-0.041 0.708,-0.051c0.489,-0.026 1.022,0.029 1.504,-0.068" style="fill:none;stroke:#444456;stroke-width:0.48px;"/><path d="M12.316,33.586c0,0.681 0.072,1.918 0.146,2.384" style="fill:none;stroke:#444456;stroke-width:0.48px;"/><path d="M13.791,35.926c0,-0.697 0.052,-1.19 0.275,-1.855c0.071,-0.211 0.168,-0.568 0.408,-0.65c0.284,-0.097 0.535,0.279 0.643,0.484c0.308,0.584 0.34,1.384 0.339,2.045" style="fill:none;stroke:#444456;stroke-width:0.48px;"/><path d="M13.987,34.962c0.001,-0.027 0.323,-0.035 0.347,-0.036c0.372,-0.015 0.622,0.005 0.993,0.005" style="fill:none;stroke:#444456;stroke-width:0.48px;"/><path d="M16.425,35.894c0,-0.696 -0.335,-1.44 -0.249,-2.137c0.025,-0.202 0.282,-0.338 0.455,-0.362c1.52,-0.211 1.243,1.007 0.578,1.171c1.199,-0.031 1.092,1.031 0.445,1.283c-0.317,0.123 -1.229,0.045 -1.229,0.045Z" style="fill:none;stroke:#444456;stroke-width:0.48px;"/><path d="M18.95,33.415c-0.002,0.572 -0.053,2.266 0.097,2.363c0.111,0.071 0.798,-0.018 1.259,-0.018" style="fill:none;stroke:#444456;stroke-width:0.48px;"/><path d="M22.216,33.484c-0.272,0.003 -0.528,0.088 -0.655,0.153c-0.384,0.197 -0.638,0.533 -0.663,0.972c-0.047,0.851 0.855,1.388 1.574,0.962" style="fill:none;stroke:#444456;stroke-width:0.48px;"/><path d="M20.91,34.539c0.003,-0.009 0.296,0.021 0.314,0.022c0.321,0.019 0.658,-0.002 0.975,0.042" style="fill:none;stroke:#444456;stroke-width:0.48px;"/></g><g id="apple2" serif:id="apple"><g><path d="M13.293,42.217c-0.711,-0.013 -1.395,0.451 -1.731,1.066c-0.372,0.68 -0.125,1.37 0.686,1.472c0.174,0.021 0.357,0.042 0.532,0.022c0.335,-0.039 0.665,-0.197 0.966,-0.346" style="fill:none;stroke:#444456;stroke-width:0.48px;"/><path d="M14.447,42.048c0.049,0.776 -0.061,1.732 0.241,2.471" style="fill:none;stroke:#444456;stroke-width:0.48px;"/><path d="M15.97,41.795c0.018,0.996 0.057,1.988 0.08,2.983" style="fill:none;stroke:#444456;stroke-width:0.48px;"/><path d="M14.468,43.306c0.414,-0.01 0.827,-0.046 1.24,-0.067" style="fill:none;stroke:#444456;stroke-width:0.48px;"/><path d="M17.277,44.778c-0.171,-0.779 -0.093,-1.637 0.274,-2.355c0.107,-0.209 0.31,-0.602 0.609,-0.551c0.239,0.041 0.393,0.384 0.478,0.576c0.282,0.635 0.316,1.393 0.263,2.077" style="fill:none;stroke:#444456;stroke-width:0.48px;"/><path d="M17.15,43.58c0.578,-0.069 1.143,-0.151 1.712,-0.266" style="fill:none;stroke:#444456;stroke-width:0.48px;"/><path d="M19.868,41.96c0.026,0.744 0.019,1.833 0.076,2.68" style="fill:none;stroke:#444456;stroke-width:0.48px;"/><path d="M22.563,42.164c-0.294,-0.208 -1.571,-0.176 -1.518,0.615c0.046,0.683 1.664,0.326 1.49,1.438c-0.092,0.588 -1.406,0.475 -1.672,0.035" style="fill:none;stroke:#444456;stroke-width:0.48px;"/><path d="M25.28,42.09c-0.366,0.03 -0.719,0.155 -1.032,0.373c-0.337,0.234 -0.639,0.597 -0.729,1.04c-0.196,0.966 0.507,1.546 1.315,1.257c0.267,-0.095 0.51,-0.265 0.722,-0.469" style="fill:none;stroke:#444456;stroke-width:0.48px;"/><path d="M23.535,43.813c0.511,-0.103 1.019,-0.245 1.53,-0.351" style="fill:none;stroke:#444456;stroke-width:0.48px;"/></g></g><g id="apple3" serif:id="apple"><g><path d="M13.293,49.898c-0.711,-0.014 -1.395,0.45 -1.731,1.065c-0.372,0.681 -0.125,1.371 0.686,1.472c0.174,0.022 0.357,0.043 0.532,0.023c0.335,-0.039 0.665,-0.197 0.966,-0.346" style="fill:none;stroke:#444456;stroke-width:0.48px;"/><path d="M14.447,49.728c0.049,0.777 -0.061,1.732 0.241,2.471" style="fill:none;stroke:#444456;stroke-width:0.48px;"/><path d="M15.97,49.476c0.018,0.996 0.057,1.987 0.08,2.982" style="fill:none;stroke:#444456;stroke-width:0.48px;"/><path d="M14.468,50.987c0.414,-0.011 0.827,-0.046 1.24,-0.067" style="fill:none;stroke:#444456;stroke-width:0.48px;"/><path d="M17.277,52.458c-0.171,-0.779 -0.093,-1.636 0.274,-2.354c0.107,-0.209 0.31,-0.602 0.609,-0.551c0.239,0.041 0.393,0.384 0.478,0.576c0.282,0.635 0.316,1.393 0.263,2.077" style="fill:none;stroke:#444456;stroke-width:0.48px;"/><path d="M17.15,51.261c0.578,-0.069 1.143,-0.151 1.712,-0.266" style="fill:none;stroke:#444456;stroke-width:0.48px;"/><path d="M19.868,49.641c0.026,0.744 0.019,1.832 0.076,2.68" style="fill:none;stroke:#444456;stroke-width:0.48px;"/><path d="M22.563,49.844c-0.294,-0.207 -1.571,-0.175 -1.518,0.616c0.046,0.683 1.664,0.325 1.49,1.438c-0.092,0.588 -1.406,0.475 -1.672,0.035" style="fill:none;stroke:#444456;stroke-width:0.48px;"/><path d="M25.28,49.771c-0.366,0.03 -0.719,0.154 -1.032,0.373c-0.337,0.234 -0.639,0.597 -0.729,1.04c-0.196,0.966 0.507,1.546 1.315,1.257c0.267,-0.096 0.51,-0.265 0.722,-0.469" style="fill:none;stroke:#444456;stroke-width:0.48px;"/><path d="M23.535,51.494c0.511,-0.103 1.019,-0.245 1.53,-0.351" style="fill:none;stroke:#444456;stroke-width:0.48px;"/></g></g><g id="space-yeah"><path d="M98.134,2.64c-0.529,-0.309 -1.261,-0.399 -1.774,-0.413c-0.512,-0.014 -1.122,0.202 -1.417,0.331c-0.927,0.408 -1.654,1.281 -1.809,2.292c-0.504,3.284 3.834,3.4 5.565,1.668c0.824,-0.825 1.343,-2.069 0.477,-3.053c-0.291,-0.331 -0.662,-0.603 -1.042,-0.825Z" style="fill:none;stroke:#82b7d1;stroke-width:0.48px;"/><path d="M94.447,3.706c0.281,0.196 0.581,0.245 0.886,0.37" style="fill:none;stroke:#445;stroke-width:0.48px;"/><path d="M97.38,3.059c-0.119,0.201 -0.407,0.546 -0.532,0.681" style="fill:none;stroke:#445;stroke-width:0.48px;"/><path d="M95.735,4.698c0.2,0.403 0.424,0.427 0.59,0.442c0.419,0.039 0.536,-0.423 0.587,-0.656" style="fill:none;stroke:#445;stroke-width:0.48px;"/><path d="M93.099,5.003c-1.116,0.084 -1.438,2.035 -0.356,1.694" style="fill:none;stroke:#82b7d1;stroke-width:0.48px;"/><path d="M99.504,3.963c0.336,-0.113 0.587,0.06 0.713,0.158c0.437,0.34 0.422,1.016 0.082,1.35" style="fill:none;stroke:#82b7d1;stroke-width:0.48px;"/><path d="M95.083,7.611c-0.765,0.4 -0.571,1.229 -0.516,1.495c0.005,0.023 0.077,0.234 0.048,0.254c-0.07,0.046 -0.862,-0.03 -1.144,0.026" style="fill:none;stroke:#82b7d1;stroke-width:0.48px;"/><path d="M97.3,7.417c0.775,1.083 0.267,1.547 0.269,1.967c-0,0.038 0.826,-0.072 1.298,-0.002" style="fill:none;stroke:#82b7d1;stroke-width:0.48px;"/></g><g id="yeah"><path d="M102.151,1.534c-0,-0.03 -0.023,1.087 0.293,1.263c0.144,0.081 0.888,-0.454 1.183,-0.731" style="fill:none;stroke:#82b7d1;stroke-width:0.48px;"/><path d="M102.439,2.83c0,0.289 -0.212,0.687 -0.349,0.947" style="fill:none;stroke:#82b7d1;stroke-width:0.48px;"/><path d="M105.162,2.685c-0.601,-0.288 -0.987,-0.004 -1.034,0.033c-0.878,0.691 -0.282,1.742 0.747,1.686" style="fill:none;stroke:#82b7d1;stroke-width:0.48px;"/><path d="M103.868,3.263c-0.042,0.001 0.083,0.014 0.124,0.023c0.07,0.016 0.14,0.034 0.209,0.053c0.198,0.056 0.394,0.117 0.589,0.182" style="fill:none;stroke:#82b7d1;stroke-width:0.48px;"/><path d="M105.651,4.642c0.048,-0.482 0.442,-1.1 0.754,-1.447c0.112,-0.125 0.303,-0.313 0.49,-0.238c0.613,0.248 0.257,1.69 0.05,2.112" style="fill:none;stroke:#82b7d1;stroke-width:0.48px;"/><path d="M106.08,3.914c0.418,0.165 0.754,0.325 0.99,0.473" style="fill:none;stroke:#82b7d1;stroke-width:0.48px;"/><path d="M108.378,3.56c-0.002,0.535 -0.431,1.242 -0.626,1.73" style="fill:none;stroke:#82b7d1;stroke-width:0.48px;"/><path d="M109.769,3.927c-0.095,0.225 -0.761,1.446 -1.014,1.857" style="fill:none;stroke:#82b7d1;stroke-width:0.48px;"/><path d="M108.186,4.616c0.3,0.15 0.621,0.266 0.923,0.417" style="fill:none;stroke:#82b7d1;stroke-width:0.48px;"/><path d="M111.374,4.139c-0.294,0.587 -0.667,0.965 -1.104,1.445" style="fill:none;stroke:#82b7d1;stroke-width:0.48px;"/><path d="M109.832,6.105c-0.056,0.06 -0.138,0.154 -0.138,0.154" style="fill:none;stroke:#82b7d1;stroke-width:0.48px;"/></g><g id="BEFORE"><path d="M15.567,7.765c-0.198,-0.262 -0.232,-0.588 -0.233,-0.908c-0.002,-0.716 0.103,-1.635 0.553,-2.226c0.409,-0.537 1.213,-0.805 1.675,-0.176c0.144,0.196 0.236,0.442 0.327,0.664c0.139,0.341 0.149,0.688 0.181,1.05c0.043,0.494 0.073,0.988 -0.016,1.477" style="fill:none;stroke:#444456;stroke-width:0.48px;"/><path d="M15.294,6.273c0.881,-0.229 1.772,-0.324 2.677,-0.286" style="fill:none;stroke:#444456;stroke-width:0.48px;"/><path d="M18.854,4.191c0.218,0.429 0.35,0.89 0.538,1.332c0.111,0.262 0.219,0.526 0.33,0.789c0.12,0.281 0.243,0.561 0.36,0.843c0.036,0.087 0.073,0.173 0.109,0.259c0.019,0.046 0.017,0.042 0.037,0.092c0.004,0.011 0.005,0.045 0.014,0.035c0.08,-0.096 0.1,-0.264 0.133,-0.381c0.071,-0.244 0.141,-0.483 0.188,-0.734c0.081,-0.438 0.194,-0.866 0.295,-1.3c0.117,-0.503 0.185,-0.967 0.517,-1.374" style="fill:none;stroke:#444456;stroke-width:0.48px;"/><path d="M22.416,7.487c-0.287,-0.909 -0.376,-2.11 0.098,-2.974c0.16,-0.29 0.593,-0.82 0.988,-0.653c0.319,0.135 0.495,0.569 0.581,0.876c0.216,0.775 0.154,1.682 0.116,2.484" style="fill:none;stroke:#444456;stroke-width:0.48px;"/><path d="M22.185,6.027c0.552,-0.058 1.09,-0.217 1.644,-0.242" style="fill:none;stroke:#444456;stroke-width:0.48px;"/><path d="M25.58,7.397c-0.091,-0.418 -0.142,-0.842 -0.156,-1.269c-0.009,-0.3 0.004,-0.601 0.019,-0.901c0.007,-0.151 0.02,-0.302 0.038,-0.453c0.029,-0.236 0.042,-0.866 0.423,-0.572c0.065,0.05 0.123,0.108 0.175,0.172c0.062,0.075 0.089,0.12 0.135,0.207c0.317,0.591 0.503,1.274 0.686,1.917c0.047,0.167 0.128,0.688 0.284,0.802c0.015,0.011 0.113,-0.152 0.116,-0.158c0.116,-0.21 0.162,-0.45 0.205,-0.683c0.148,-0.804 0.048,-1.621 0.161,-2.422" style="fill:none;stroke:#444456;stroke-width:0.48px;"/><path d="M28.579,4.239c1.215,-0.136 2.413,-0.249 3.632,-0.324" style="fill:none;stroke:#444456;stroke-width:0.48px;"/><path d="M30.413,4.079c-0.066,0.502 -0.028,0.992 -0.017,1.495c0.011,0.53 -0.021,1.07 0.049,1.597" style="fill:none;stroke:#444456;stroke-width:0.48px;"/><path d="M35.175,4.217c-0.132,0.217 -0.165,0.414 -0.229,0.682" style="fill:none;stroke:#444456;stroke-width:0.48px;"/><path d="M34.953,6.336c-0.002,0.339 0.082,0.629 0.256,0.879" style="fill:none;stroke:#444456;stroke-width:0.48px;"/><path d="M37.704,3.903c-1.894,0.538 -1.89,3.431 0.257,3.255" style="fill:none;stroke:#444456;stroke-width:0.48px;"/></g><g id="AFTER"><path d="M73.882,7.642c-0.252,-0.984 -0.091,-2.006 0.388,-2.896c0.217,-0.403 0.66,-0.846 1.158,-0.596c0.366,0.184 0.531,0.619 0.629,0.987c0.202,0.764 0.361,1.48 0.352,2.273" style="fill:none;stroke:#444456;stroke-width:0.48px;"/><path d="M73.777,6.223c0.788,-0.029 1.565,-0.116 2.348,0.011" style="fill:none;stroke:#444456;stroke-width:0.48px;"/><path d="M77.465,7.606c-0.115,-0.479 -0.214,-0.957 -0.266,-1.447c-0.036,-0.334 -0.06,-0.673 -0.032,-1.008c0.071,-0.839 1.216,-1.562 1.844,-0.75c0.737,0.951 -0.505,2.075 -1.471,1.824" style="fill:none;stroke:#444456;stroke-width:0.48px;"/><path d="M80.242,4.23c-0.019,1.155 0.044,2.327 0.143,3.48" style="fill:none;stroke:#444456;stroke-width:0.48px;"/><path d="M80.242,4.239c0.315,-0.127 0.638,-0.188 0.977,-0.212c0.84,-0.059 1.492,0.776 1.168,1.578c-0.265,0.657 -1.215,0.954 -1.844,0.682" style="fill:none;stroke:#444456;stroke-width:0.48px;"/><path d="M81.457,6.356c0.127,0.428 0.335,0.926 0.58,1.307" style="fill:none;stroke:#444456;stroke-width:0.48px;"/><path d="M85.464,4.452c-0.507,0.022 -0.978,0.135 -1.41,0.41c-0.237,0.15 -0.456,0.354 -0.622,0.581c-0.138,0.188 -0.262,0.396 -0.339,0.618c-0.172,0.499 0.071,1.147 0.592,1.334c0.557,0.199 1.282,0.146 1.814,-0.112" style="fill:none;stroke:#444456;stroke-width:0.48px;"/><path d="M83.106,6.346c0.529,-0.034 1.088,-0.104 1.608,-0.226" style="fill:none;stroke:#444456;stroke-width:0.48px;"/><path d="M86.021,2.244c-0.343,0.405 -0.721,0.781 -1.097,1.157" style="fill:none;stroke:#444456;stroke-width:0.48px;"/><path d="M88.921,4.252c-0.318,-0.026 -0.631,-0.022 -0.938,0.075c-0.217,0.068 -0.418,0.171 -0.599,0.308c-0.355,0.269 -0.662,0.903 -0.102,1.149c0.477,0.211 1.042,0.11 1.531,0.315c0.217,0.091 0.465,0.24 0.486,0.499c0.031,0.38 -0.314,0.655 -0.607,0.826c-0.657,0.385 -1.425,0.418 -1.837,-0.279" style="fill:none;stroke:#444456;stroke-width:0.48px;"/></g></svg>