<?xml version="1.0" encoding="UTF-8" standalone="no"?><!DOCTYPE svg PUBLIC "-//W3C//DTD SVG 1.1//EN" "http://www.w3.org/Graphics/SVG/1.1/DTD/svg11.dtd"><svg width="100%" height="100%" viewBox="0 0 525 200" version="1.1" xmlns="http://www.w3.org/2000/svg" xmlns:xlink="http://www.w3.org/1999/xlink" xml:space="preserve" xmlns:serif="http://www.serif.com/" style="fill-rule:evenodd;clip-rule:evenodd;stroke-linecap:round;stroke-linejoin:round;stroke-miterlimit:1.5;"><rect id="browser-ask-server" x="0" y="0" width="525" height="200" style="fill:none;"/><g id="server"><path d="M337.785,153.992c-1.777,-6.213 3.692,-55.462 8.675,-78.725c2.06,-9.616 2.868,-21.392 11.788,-27.518c9.07,-6.228 23.946,-3.763 34.75,-3.79c16.611,-0.04 61.407,5.343 74.796,7.114c7.103,0.94 25.624,2.362 29.833,8.464c9.157,13.279 0.749,88.246 0.035,93.016c-0.715,4.769 -10.695,5.397 -17.03,6.759c-8.228,1.768 -90.544,12.998 -107.379,9.214c-10.08,-2.265 -33.691,-8.321 -35.468,-14.534Z" style="fill:#82b7d1;"/><clipPath id="_clip1"><path d="M337.785,153.992c-1.777,-6.213 3.692,-55.462 8.675,-78.725c2.06,-9.616 2.868,-21.392 11.788,-27.518c9.07,-6.228 23.946,-3.763 34.75,-3.79c16.611,-0.04 61.407,5.343 74.796,7.114c7.103,0.94 25.624,2.362 29.833,8.464c9.157,13.279 0.749,88.246 0.035,93.016c-0.715,4.769 -10.695,5.397 -17.03,6.759c-8.228,1.768 -90.544,12.998 -107.379,9.214c-10.08,-2.265 -33.691,-8.321 -35.468,-14.534Z"/></clipPath><g clip-path="url(#_clip1)"><path d="M339.565,82.181c0,0 7.35,-21.922 12.75,-27.681c3.118,-3.326 23.573,-2.497 31.666,-0.126c4.287,1.256 6.177,2.87 6.319,7.915c0.239,8.46 -0.942,33.618 -2.219,46.869c-1.276,13.251 -5.836,47.536 -9.143,56.307c-2.401,6.368 -17.098,2.138 -17.098,2.138l-32.657,-12.469c0,0 5.451,-58.185 10.382,-72.953Z" style="fill:#bad7e6;"/></g><path d="M341.979,145.84c0.073,-0.873 0.546,-1.629 1.454,-2.343c1.8,-1.416 5.402,-0.917 6.302,0.583c0.403,0.672 0.698,1.646 0.747,2.606" style="fill:none;stroke:#445;stroke-width:2px;"/><path d="M362.929,150.873c0.146,-0.959 0.568,-1.841 1.205,-2.365c1.393,-1.147 5.488,-1.312 6.553,0.901c0.466,0.968 0.728,1.967 0.731,2.861" style="fill:none;stroke:#445;stroke-width:2px;"/><path d="M352.401,152.458c0,0 -0.064,2.708 2.588,2.966c3.019,0.293 3.51,-2.117 3.51,-2.117" style="fill:none;stroke:#445;stroke-width:2px;"/><path d="M377.132,61.856c0,0 -0.671,2.406 -0.078,3.249c0.631,0.898 2.137,0.983 3.117,1.112c2.199,0.289 5.306,1.238 6.099,-1.568c0.116,-0.409 0.193,-0.85 0.199,-1.276c0.041,-2.935 -2.529,-2.906 -4.818,-3.112c-1.835,-0.165 -3.802,-0.592 -4.519,1.595Z" style="fill:#ff0078;"/><path d="M376.042,72.963c0.13,-0.638 0.146,-1.515 0.643,-2.001c1.373,-1.341 4.603,-0.956 6.284,-0.521c0.59,0.153 1.323,0.278 1.769,0.719c0.94,0.927 0.862,2.968 0.707,4.176c-0.138,1.079 -1.656,1.395 -2.564,1.371c-1.422,-0.037 -2.802,-0.356 -4.205,-0.546c-1.43,-0.195 -2.415,-0.16 -2.684,-1.889l0.05,-1.309Z" style="fill:#ff0078;"/><path d="M375.013,83.748c0,0 0.404,-2.152 1.199,-2.787c0.867,-0.692 2.415,-0.536 3.443,-0.463c2.549,0.18 5.43,0.387 5.124,3.618c-0.055,0.582 -0.132,1.277 -0.345,1.822c-0.798,2.042 -3.659,1.193 -5.252,0.95c-2.104,-0.322 -4.567,-0.35 -4.169,-3.14Z" style="fill:#ff0078;"/></g><g id="browser"><path d="M40.815,65.899c13.642,-2.984 59.312,-3.492 88.042,-7.949c5.024,-0.779 10.086,-1.286 15.111,-2.059c6.055,-0.932 13.494,-2.397 19.255,0.598c3.998,2.078 6.425,6.37 8.317,10.286c4.155,8.598 17.077,47.2 20.313,57.445c1.382,4.376 5.514,15.056 3.918,19.637c-1.844,5.29 -8.249,5.642 -13.46,6.484c-4.209,0.68 -61.818,10.95 -86.746,13.967c-7.644,0.926 -15.238,1.722 -22.878,2.778c-17.198,2.377 -31.003,7.253 -34.286,-15.13c-1.638,-11.163 -11.249,-52.551 -13.208,-60.519c-1.007,-4.093 -2.306,-8.712 -1.332,-12.928c1.405,-6.088 3.312,-9.626 16.954,-12.61Z" style="fill:#bad7e6;"/><path d="M31.248,77.571c0.868,-2.659 5.038,-4.768 8.709,-2.734c3.756,2.081 3.799,4.88 2.336,7.515c-1.818,3.275 -6.429,3.992 -9.067,2.073c-2.639,-1.919 -2.846,-4.195 -1.978,-6.854Z" style="fill:#ecf4f8;"/><path d="M34.247,80.947c2.084,-0.937 4.144,-1.653 6.379,-2.153" style="fill:none;stroke:#82b7d1;stroke-width:2px;"/><path d="M34.881,77.911c0,0 -1.569,2.218 -1.101,3.153c0.467,0.935 2.846,1.636 2.846,1.636" style="fill:none;stroke:#82b7d1;stroke-width:2px;"/><path d="M47.175,75.455c0.314,3.012 0.429,6.006 2.796,7.043c3.831,1.678 11.044,0.115 15.743,-0.698c10.581,-1.831 21.125,-3.07 31.817,-4.187c12.405,-1.296 24.898,-2.498 37.294,-3.991c6.173,-0.744 12.253,-2.067 18.402,-2.967c2.317,-0.339 5.682,-0.406 6.908,-2.78c0.427,-0.826 0.582,-1.865 0.719,-2.773c1.461,-9.625 -13.106,-5.221 -18.397,-4.456c-13.46,1.947 -27.274,4.038 -40.789,5.558c-10.067,1.133 -19.873,1.707 -29.901,2.944c-5.807,0.717 -11.592,1.564 -17.386,2.338c-2.291,0.305 -7.65,-0.282 -7.206,3.969Z" style="fill:#ecf4f8;"/><path d="M31.844,96.128c0.679,5.046 1.963,9.202 3.531,15.727c2.693,11.201 4.258,22.053 6.929,33.263c1.356,5.688 2.228,16.167 8.453,18.528c3.02,1.146 6.423,0.04 9.489,-0.289c7.483,-0.802 14.547,-1.965 21.876,-3.789c9.855,-2.453 66.193,-9.517 76.834,-11.5c3.657,-0.681 10.716,-1.847 14.372,-2.562c8.285,-1.621 16.696,-1.368 16.726,-7.637c0.008,-1.529 -2.161,-9.659 -2.433,-11.154c-0.826,-4.551 -1.673,-7.845 -3.381,-12.079c-3.606,-8.939 -5.415,-16.827 -8.466,-25.974c-1.491,-4.469 -3.834,-12.842 -8.441,-15.077c-2.09,-1.015 -6.231,-0.22 -8.371,0.198c-5.188,1.015 -11.61,0.837 -16.835,1.908c-10.633,2.181 -19.764,3.583 -30.527,4.764c-7.464,0.819 -60.301,8.742 -67.178,9.136c-4.884,0.279 -13.258,1.492 -12.578,6.537Z" style="fill:#ecf4f8;"/><path d="M91.324,137.67c1.11,-2.383 6.629,-4.126 8.517,-1.318c1.887,2.807 2.076,5.183 0.376,6.911c-1.699,1.728 -5.286,2.808 -7.363,1.296c-2.076,-1.512 -2.639,-4.505 -1.53,-6.889Z" style="fill:#445;"/><path d="M142.01,129.291c2.234,-2.272 6.449,-2.097 7.691,0c1.242,2.096 1.746,4.465 -0.039,6.563c-1.917,2.252 -5.631,2.097 -7.379,0.35c-1.748,-1.748 -2.488,-4.661 -0.273,-6.913Z" style="fill:#445;"/><path d="M121.775,135.099c-2.688,1.152 -6.816,6.958 -2.458,9.312c0.622,0.335 1.297,0.529 1.994,0.63c1.516,0.22 4.068,0.054 5.257,-1.115c2.477,-2.435 1.91,-6.04 0.543,-7.497c-1.368,-1.457 -2.648,-2.482 -5.336,-1.33Z" style="fill:none;stroke:#445;stroke-width:2px;"/></g><g id="address"><path d="M50.772,74.371c0.51,2.241 1.277,4.399 1.846,6.621" style="fill:none;stroke:#445;stroke-width:2px;"/><path d="M54.458,73.388c0.661,2.309 1.232,4.648 1.884,6.961" style="fill:none;stroke:#445;stroke-width:2px;"/><path d="M52.327,78.074c0.7,-0.182 1.394,-0.369 2.099,-0.527" style="fill:none;stroke:#445;stroke-width:2px;"/><path d="M56.997,73.469c1.751,-0.249 3.525,-0.262 5.274,-0.545" style="fill:none;stroke:#445;stroke-width:2px;"/><path d="M59.619,73.224c0.72,2.117 1.475,4.259 1.98,6.444" style="fill:none;stroke:#445;stroke-width:2px;"/><path d="M64.779,73.06c1.701,-0.215 3.395,-0.424 5.057,-0.977" style="fill:none;stroke:#445;stroke-width:2px;"/><path d="M67.401,73.06c0.402,1.866 0.659,3.762 1.087,5.623" style="fill:none;stroke:#445;stroke-width:2px;"/><path d="M73.463,78.221c-0.302,-1.33 -0.55,-2.672 -0.883,-3.995c-0.102,-0.401 -0.445,-1.192 -0.305,-1.587c0.199,-0.562 0.961,-0.79 1.458,-0.975c0.992,-0.368 2.216,-0.548 3.169,0.038c0.722,0.444 1.285,1.671 0.557,2.364c-0.423,0.403 -1.016,0.553 -1.575,0.653c-0.703,0.125 -1.405,0.137 -2.111,0.211" style="fill:none;stroke:#445;stroke-width:2px;"/><path d="M80.345,74.289c0.521,-0.183 1.062,-0.309 1.582,-0.493" style="fill:none;stroke:#445;stroke-width:2px;"/><path d="M80.509,77.32c0.366,-0.07 0.729,-0.153 1.096,-0.214" style="fill:none;stroke:#445;stroke-width:2px;"/><path d="M86.981,69.374c-0.552,2.206 -1.191,4.411 -1.914,6.568" style="fill:none;stroke:#445;stroke-width:2px;"/><path d="M90.093,69.209c-0.735,2.206 -1.596,4.391 -2.233,6.628" style="fill:none;stroke:#445;stroke-width:2px;"/><path d="M93.856,69.394c0,2.193 0.094,4.388 0.317,6.57" style="fill:none;stroke:#445;stroke-width:2px;"/><path d="M93.611,69.312c0.845,-0.115 2.175,-0.507 2.989,-0.058c1.741,0.962 -0.481,2.694 -1.557,2.913" style="fill:none;stroke:#445;stroke-width:2px;"/><path d="M102.734,68.294c0,0 -1.831,-0.021 -2.786,1.446c-1.03,1.585 -0.88,4.815 1.538,4.95c1.78,0.099 3.47,-1.613 3.762,-3.283c0.272,-1.554 -0.942,-3.011 -2.514,-3.113Z" style="fill:none;stroke:#445;stroke-width:2px;"/><path d="M108.431,68.002c-0.202,0.423 -0.247,0.821 -0.322,1.172c-0.214,0.996 -0.338,2.146 0.02,3.122c0.602,1.641 2.959,1.656 3.867,0.282c1.05,-1.587 0.481,-3.487 -0.404,-4.966" style="fill:none;stroke:#445;stroke-width:2px;"/><path d="M115.268,66.84c0,-0.063 -0.002,0.124 0,0.186c0.003,0.141 0.009,0.283 0.017,0.424c0.019,0.378 0.048,0.755 0.073,1.133c0.077,1.156 0.168,2.31 0.317,3.46c0.038,0.297 0.07,0.596 0.115,0.893" style="fill:none;stroke:#445;stroke-width:2px;"/><path d="M121.703,66.243c-0.722,-0.328 -2.782,-0.268 -3.323,2.229c-0.09,0.418 -0.17,0.843 -0.143,1.273c0.191,3.058 3.229,2.775 4.878,1.276" style="fill:none;stroke:#445;stroke-width:2px;"/><path d="M125.589,70.69l0.601,-0.182" style="fill:none;stroke:#445;stroke-width:2px;"/><path d="M131.894,64.791c-1.898,-0.139 -2.622,1.109 -2.926,1.8c-0.747,1.701 0.165,3.871 2.198,3.895c0.885,0.011 1.685,-0.439 2.325,-1.011" style="fill:none;stroke:#445;stroke-width:2px;"/><path d="M137.767,64.113c0,0 -2.202,0.33 -2.226,2.808c-0.015,1.503 1.287,2.656 2.794,2.427c1.567,-0.238 2.506,-1.924 2.214,-3.421c-0.231,-1.187 -1.58,-2.145 -2.782,-1.814Z" style="fill:none;stroke:#445;stroke-width:2px;"/><path d="M144.245,68.471c-0.68,-1.088 -1.55,-3.917 -0.499,-5.045c0.752,-0.806 2.495,-0.54 2.921,1.144c-0.009,-2.376 5.477,-3.48 2.935,3.464" style="fill:none;stroke:#445;stroke-width:2px;"/></g><g id="arrow"><path d="M204.035,115.417c13.261,-12.012 29.725,-22.311 47.03,-25.657c26.435,-5.113 52.808,7.366 70.408,28.207" style="fill:none;stroke:#ff0078;stroke-width:6.5px;"/><path d="M321.495,104.127c0.991,3.392 2.023,6.998 2.36,10.538c0.103,1.089 0.359,2.609 -0.264,3.608c-1.473,2.364 -4.902,3.287 -7.344,4.087c-1.948,0.638 -3.932,1.094 -5.905,1.639" style="fill:none;stroke:#ff0078;stroke-width:6.5px;"/></g><g id="question-mark"><path d="M243.162,41.349c-2.837,-8.868 3.715,-17.094 11.352,-20.895c5.894,-2.933 12.872,-3.064 15.492,3.957c6.513,17.456 -19.922,24.115 -16.219,41.552" style="fill:none;stroke:#82b7d1;stroke-width:6.5px;"/><path d="M255.098,75.367l0.34,2.187" style="fill:none;stroke:#82b7d1;stroke-width:6.5px;"/><path d="M243.296,41.349c-2.837,-8.868 3.715,-17.094 11.353,-20.895c5.893,-2.933 12.872,-3.064 15.491,3.957c6.514,17.456 -19.921,24.115 -16.218,41.552" style="fill:none;stroke:#82b7d1;stroke-width:6.5px;"/><path d="M255.233,75.367l0.339,2.187" style="fill:none;stroke:#82b7d1;stroke-width:6.5px;"/></g><g id="server-address"><path d="M402.119,153.797c-0.032,3.088 0.069,6.18 0.352,9.256" style="fill:none;stroke:#445;stroke-width:2px;"/><path d="M401.774,153.678c1.193,-0.15 3.071,-0.682 4.21,-0.038c2.437,1.379 -0.716,3.786 -2.235,4.078" style="fill:none;stroke:#445;stroke-width:2px;"/><path d="M414.633,152.377c0,0 -2.577,-0.056 -3.942,1.996c-1.473,2.216 -1.309,6.767 2.093,6.991c2.505,0.165 4.91,-2.222 5.345,-4.567c0.404,-2.184 -1.283,-4.254 -3.496,-4.42Z" style="fill:none;stroke:#445;stroke-width:2px;"/><path d="M422.658,152.048c-0.289,0.593 -0.359,1.152 -0.47,1.646c-0.315,1.398 -0.507,3.016 -0.017,4.395c0.824,2.319 4.142,2.374 5.441,0.454c1.501,-2.22 0.727,-4.904 -0.498,-6.998" style="fill:none;stroke:#445;stroke-width:2px;"/><path d="M432.301,150.51c0.001,-0.087 -0.004,0.175 -0.003,0.263c0.003,0.199 0.01,0.398 0.018,0.597c0.022,0.532 0.057,1.064 0.087,1.595c0.091,1.629 0.203,3.256 0.396,4.877c0.049,0.419 0.09,0.84 0.15,1.258" style="fill:none;stroke:#445;stroke-width:2px;"/><path d="M441.37,149.763c-1.012,-0.472 -3.913,-0.418 -4.71,3.09c-0.134,0.588 -0.253,1.185 -0.221,1.791c0.225,4.308 4.506,3.953 6.85,1.867" style="fill:none;stroke:#445;stroke-width:2px;"/><path d="M446.777,156.079l0.848,-0.246" style="fill:none;stroke:#445;stroke-width:2px;"/><path d="M455.739,147.866c-2.671,-0.223 -3.709,1.523 -4.146,2.492c-1.077,2.383 0.176,5.452 3.039,5.516c1.245,0.028 2.379,-0.594 3.287,-1.39" style="fill:none;stroke:#445;stroke-width:2px;"/><path d="M464.016,146.997c0,0 -3.104,0.432 -3.174,3.921c-0.042,2.115 1.773,3.758 3.899,3.457c2.209,-0.313 3.555,-2.673 3.167,-4.785c-0.309,-1.675 -2.194,-3.043 -3.892,-2.593Z" style="fill:none;stroke:#445;stroke-width:2px;"/><path d="M473.074,153.226c-0.942,-1.542 -2.125,-5.538 -0.629,-7.111c1.069,-1.124 3.52,-0.724 4.095,1.653c0.022,-3.345 7.761,-4.82 4.083,4.92" style="fill:none;stroke:#445;stroke-width:2px;"/></g></svg>