<?xml version="1.0" encoding="UTF-8" standalone="no"?><!DOCTYPE svg PUBLIC "-//W3C//DTD SVG 1.1//EN" "http://www.w3.org/Graphics/SVG/1.1/DTD/svg11.dtd"><svg width="100%" height="100%" viewBox="0 0 550 200" version="1.1" xmlns="http://www.w3.org/2000/svg" xmlns:xlink="http://www.w3.org/1999/xlink" xml:space="preserve" xmlns:serif="http://www.serif.com/" style="fill-rule:evenodd;clip-rule:evenodd;stroke-linecap:round;stroke-linejoin:round;stroke-miterlimit:1.5;"><rect id="server-give-css-and-js" x="0" y="0" width="550" height="200" style="fill:none;"/><g id="js"><path d="M327.77,144.289l2.202,2.128c-0.72,1.2 -3.58,5.09 -4.769,5.916c-2.486,1.724 -8.863,1.471 -9.478,-2.144c-0.308,-1.81 1.139,-3.706 2.435,-4.777c2.86,-2.361 6.576,-3.491 9.61,-1.123Z" style="fill:#82b7d1;"/><path d="M347.78,158.047c0.441,-0.043 0.846,-0.261 1.124,-0.605c0.279,-0.345 0.407,-0.786 0.357,-1.226c-0.569,-4.409 -1.888,-9.795 -3.103,-14.086c-0.644,-2.275 -1.305,-3.568 -2.386,-5.723c-3.76,-7.503 -18.797,-20.714 -23.114,-22.956c-3.255,-1.69 -14.985,-4.483 -18.756,-4.432c-3.531,0.048 -11.948,-0.614 -14.277,4.485c-3.823,8.37 -7.112,15.676 -8.425,23.943c-0.562,3.54 2.233,10.426 5.523,12.905c1.725,1.299 9.206,0.362 9.038,-1.643c-0.176,-2.104 -2.848,-2.736 -1.182,-3.797c1.978,-1.261 9.356,1.92 11.55,2.33c1.944,0.364 -2.343,4.002 -1.452,5.359c1.717,2.611 7.877,3.263 10.796,2.846c2.645,-0.379 4.386,-2.245 5.837,-4.111c1.62,-2.083 4.172,-3.203 6.676,-3.358c1.988,-0.123 5.807,-0.66 7.403,0.831c1.986,1.856 2.034,5.667 3.227,7.895c1.094,2.043 7.95,1.648 11.164,1.343Z" style="fill:#bad7e6;"/><path d="M292.312,112.339c2.128,-6.63 3.605,-13.497 6.01,-20.036c0.816,-2.22 1.679,-5.562 3.467,-7.233c2.838,-2.651 7.934,-2.217 11.387,-1.251c2.125,0.595 4.001,2.227 3.885,4.665c-0.131,2.751 -2.85,5.154 -4.445,7.179c-3.633,4.613 -7.455,8.987 -9.56,14.575l-10.744,2.101Z" style="fill:#bad7e6;"/><clipPath id="_clip1"><path d="M292.312,112.339c2.128,-6.63 3.605,-13.497 6.01,-20.036c0.816,-2.22 1.679,-5.562 3.467,-7.233c2.838,-2.651 7.934,-2.217 11.387,-1.251c2.125,0.595 4.001,2.227 3.885,4.665c-0.131,2.751 -2.85,5.154 -4.445,7.179c-3.633,4.613 -7.455,8.987 -9.56,14.575l-10.744,2.101Z"/></clipPath><g clip-path="url(#_clip1)"><path d="M295.775,94.622c0,0 5.448,-5.844 11.646,-4.869c4.699,0.739 10.105,3.575 10.105,3.575l1.316,-12.481l-21.226,-1.605l-1.841,15.38Z" style="fill:#82b7d1;"/></g><path d="M316.705,114.054c3.019,-5.871 7.588,-11.566 12.102,-16.354c1.649,-1.75 3.488,-4.315 5.647,-5.427c3.723,-1.916 13.381,1.402 12.098,6.675c-0.79,3.247 -5.011,4.985 -7.505,6.616c-5.893,3.852 -11.724,7.156 -15.894,12.979l-6.448,-4.489Z" style="fill:#bad7e6;"/><clipPath id="_clip2"><path d="M316.705,114.054c3.019,-5.871 7.588,-11.566 12.102,-16.354c1.649,-1.75 3.488,-4.315 5.647,-5.427c3.723,-1.916 13.381,1.402 12.098,6.675c-0.79,3.247 -5.011,4.985 -7.505,6.616c-5.893,3.852 -11.724,7.156 -15.894,12.979l-6.448,-4.489Z"/></clipPath><g clip-path="url(#_clip2)"><path d="M326.736,98.719c2.715,-4.526 19.173,-0.042 16.569,6.396c-0.727,1.796 8.164,-8.704 8.164,-8.704l-12.964,-11.976l-11.769,14.284Z" style="fill:#82b7d1;"/></g><path d="M285.847,125.864c-1.748,0.762 -3.521,4.461 0.07,5.465c0.557,0.156 1.147,0.183 1.718,0.091c1.952,-0.316 3.586,-2.39 2.838,-4.346c-0.622,-1.625 -2.878,-1.971 -4.626,-1.21Z" style="fill:#445;"/><path d="M305.884,128.341c-2.632,-0.363 -4.816,2.698 -3.368,4.986c0.609,0.963 1.68,1.373 2.74,1.485c4.109,0.435 4.334,-5.96 0.628,-6.471Z" style="fill:#445;"/><path d="M290.336,132.726c-0.114,0.837 -0.356,2.227 0.714,3.122c1.071,0.895 3.205,0.405 4.026,-0.98c0.017,-0.028 0.496,1.953 1.891,1.936c1.262,-0.016 2.888,-1.875 2.621,-3.499" style="fill:none;stroke:#445;stroke-width:2px;"/><path d="M299.21,96.792c2.058,-1.342 4.493,-2.065 6.882,-2.532" style="fill:none;stroke:#82b7d1;stroke-width:1.5px;"/><path d="M302.796,95.231c0.279,1.84 1.141,4.231 0.294,6.034c-0.848,1.805 -3.509,1.463 -4.002,-0.34" style="fill:none;stroke:#82b7d1;stroke-width:1.5px;"/><path d="M335.715,100.717c-1.218,-1.411 -3.373,-2.095 -5.093,-1.211c-0.477,0.245 -0.986,0.575 -1.188,1.099c-0.313,0.809 0.384,1.501 1.003,1.899c1.159,0.746 2.766,1.407 2.274,3.139c-0.391,1.376 -1.905,1.909 -3.192,1.864c-1.796,-0.061 -3.242,-1.227 -3.724,-2.942" style="fill:none;stroke:#82b7d1;stroke-width:1.5px;"/></g><g id="browser-with-address"><g id="browser"><path d="M28.798,65.899c13.642,-2.984 59.312,-3.492 88.042,-7.949c5.024,-0.779 10.086,-1.286 15.111,-2.059c6.056,-0.932 13.494,-2.397 19.256,0.598c3.997,2.078 6.424,6.37 8.317,10.286c4.154,8.598 17.077,47.2 20.312,57.445c1.383,4.376 5.514,15.056 3.918,19.637c-1.843,5.29 -8.249,5.642 -13.459,6.484c-4.209,0.68 -61.819,10.95 -86.747,13.967c-7.644,0.926 -15.238,1.722 -22.877,2.778c-17.198,2.377 -31.003,7.253 -34.287,-15.13c-1.638,-11.163 -11.248,-52.551 -13.208,-60.519c-1.006,-4.093 -2.305,-8.712 -1.332,-12.928c1.406,-6.088 3.312,-9.626 16.954,-12.61Z" style="fill:#bad7e6;"/><path d="M19.232,77.571c0.868,-2.659 5.037,-4.768 8.708,-2.734c3.757,2.081 3.8,4.88 2.337,7.515c-1.819,3.275 -6.429,3.992 -9.068,2.073c-2.638,-1.919 -2.845,-4.195 -1.977,-6.854Z" style="fill:#ecf4f8;"/><path d="M22.23,80.947c2.084,-0.937 4.145,-1.653 6.379,-2.153" style="fill:none;stroke:#82b7d1;stroke-width:2px;"/><path d="M22.864,77.911c0,0 -1.569,2.218 -1.101,3.153c0.468,0.935 2.847,1.636 2.847,1.636" style="fill:none;stroke:#82b7d1;stroke-width:2px;"/><path d="M35.158,75.455c0.314,3.012 0.43,6.006 2.796,7.043c3.831,1.678 11.044,0.115 15.744,-0.698c10.581,-1.831 21.124,-3.07 31.816,-4.187c12.406,-1.296 24.898,-2.498 37.294,-3.991c6.173,-0.744 12.253,-2.067 18.403,-2.967c2.317,-0.339 5.681,-0.406 6.907,-2.78c0.427,-0.826 0.582,-1.865 0.72,-2.773c1.46,-9.625 -13.107,-5.221 -18.397,-4.456c-13.461,1.947 -27.274,4.038 -40.789,5.558c-10.068,1.132 -19.874,1.707 -29.901,2.944c-5.807,0.717 -11.592,1.564 -17.387,2.338c-2.291,0.305 -7.649,-0.282 -7.206,3.969Z" style="fill:#ecf4f8;"/><path d="M19.827,96.128c0.68,5.046 1.963,9.202 3.532,15.727c2.692,11.201 4.258,22.053 6.929,33.263c1.355,5.688 2.227,16.167 8.452,18.528c3.02,1.146 6.424,0.04 9.49,-0.289c7.482,-0.802 14.546,-1.965 21.876,-3.789c9.855,-2.453 66.193,-9.517 76.834,-11.5c3.656,-0.681 10.716,-1.847 14.372,-2.562c8.285,-1.621 16.696,-1.368 16.726,-7.637c0.007,-1.529 -2.162,-9.659 -2.433,-11.154c-0.826,-4.551 -1.674,-7.845 -3.381,-12.079c-3.607,-8.939 -5.416,-16.827 -8.467,-25.974c-1.491,-4.469 -3.834,-12.842 -8.44,-15.077c-2.091,-1.015 -6.232,-0.22 -8.372,0.198c-5.188,1.015 -11.609,0.837 -16.834,1.908c-10.634,2.181 -19.765,3.583 -30.528,4.764c-7.464,0.819 -60.3,8.742 -67.177,9.136c-4.884,0.279 -13.259,1.492 -12.579,6.537Z" style="fill:#ecf4f8;"/><path d="M75.808,137.059c1.11,-2.383 6.629,-4.127 8.517,-1.319c1.887,2.808 2.076,5.184 0.376,6.912c-1.699,1.728 -5.286,2.808 -7.363,1.296c-2.076,-1.512 -2.639,-4.506 -1.53,-6.889Z" style="fill:#445;"/><path d="M126.494,128.679c2.234,-2.271 6.449,-2.096 7.691,0c1.242,2.096 1.746,4.465 -0.039,6.563c-1.917,2.253 -5.631,2.098 -7.379,0.35c-1.748,-1.748 -2.488,-4.66 -0.273,-6.913Z" style="fill:#445;"/><path d="M100.928,141.39c1.62,2.356 6.628,4.168 7.325,4.269c1.515,0.219 4.547,-5.191 4.654,-6.426" style="fill:none;stroke:#445;stroke-width:2px;"/></g><g id="address"><path d="M38.914,74.36c0.51,2.242 1.277,4.4 1.847,6.621" style="fill:none;stroke:#445;stroke-width:2px;"/><path d="M42.6,73.377c0.661,2.309 1.233,4.649 1.884,6.962" style="fill:none;stroke:#445;stroke-width:2px;"/><path d="M40.47,78.063c0.699,-0.182 1.393,-0.368 2.098,-0.526" style="fill:none;stroke:#445;stroke-width:2px;"/><path d="M45.139,73.459c1.752,-0.25 3.526,-0.263 5.274,-0.546" style="fill:none;stroke:#445;stroke-width:2px;"/><path d="M47.761,73.213c0.721,2.117 1.476,4.26 1.98,6.445" style="fill:none;stroke:#445;stroke-width:2px;"/><path d="M52.922,73.049c1.701,-0.215 3.395,-0.424 5.057,-0.977" style="fill:none;stroke:#445;stroke-width:2px;"/><path d="M55.543,73.049c0.402,1.867 0.66,3.762 1.088,5.623" style="fill:none;stroke:#445;stroke-width:2px;"/><path d="M61.605,78.21c-0.302,-1.33 -0.549,-2.671 -0.883,-3.994c-0.101,-0.402 -0.444,-1.193 -0.304,-1.587c0.199,-0.562 0.96,-0.791 1.457,-0.976c0.992,-0.367 2.216,-0.548 3.169,0.038c0.722,0.445 1.285,1.672 0.557,2.365c-0.423,0.402 -1.016,0.553 -1.574,0.652c-0.704,0.125 -1.406,0.138 -2.111,0.211" style="fill:none;stroke:#445;stroke-width:2px;"/><path d="M68.487,74.278c0.522,-0.182 1.063,-0.308 1.582,-0.492" style="fill:none;stroke:#445;stroke-width:2px;"/><path d="M68.651,77.309c0.366,-0.07 0.729,-0.153 1.097,-0.213" style="fill:none;stroke:#445;stroke-width:2px;"/><path d="M75.123,69.363c-0.552,2.206 -1.191,4.412 -1.913,6.569" style="fill:none;stroke:#445;stroke-width:2px;"/><path d="M78.236,69.199c-0.735,2.206 -1.596,4.39 -2.234,6.628" style="fill:none;stroke:#445;stroke-width:2px;"/><path d="M81.998,69.383c0,2.193 0.094,4.389 0.318,6.571" style="fill:none;stroke:#445;stroke-width:2px;"/><path d="M81.753,69.301c0.846,-0.115 2.176,-0.507 2.989,-0.058c1.741,0.962 -0.481,2.695 -1.557,2.913" style="fill:none;stroke:#445;stroke-width:2px;"/><path d="M90.876,68.283c0,0 -1.831,-0.021 -2.785,1.447c-1.03,1.584 -0.881,4.815 1.537,4.949c1.78,0.099 3.471,-1.613 3.762,-3.282c0.272,-1.554 -0.941,-3.012 -2.514,-3.114Z" style="fill:none;stroke:#445;stroke-width:2px;"/><path d="M96.573,67.992c-0.201,0.423 -0.247,0.82 -0.322,1.172c-0.213,0.995 -0.338,2.146 0.02,3.121c0.602,1.642 2.959,1.656 3.867,0.283c1.05,-1.588 0.481,-3.488 -0.404,-4.966" style="fill:none;stroke:#445;stroke-width:2px;"/><path d="M103.41,66.829c0,-0.062 -0.001,0.124 0,0.186c0.003,0.142 0.01,0.283 0.017,0.424c0.02,0.378 0.049,0.755 0.074,1.133c0.076,1.156 0.168,2.311 0.316,3.46c0.038,0.298 0.07,0.597 0.116,0.893" style="fill:none;stroke:#445;stroke-width:2px;"/><path d="M109.846,66.232c-0.722,-0.328 -2.782,-0.268 -3.323,2.229c-0.091,0.419 -0.171,0.844 -0.144,1.274c0.191,3.057 3.229,2.774 4.879,1.276" style="fill:none;stroke:#445;stroke-width:2px;"/><path d="M113.732,70.679l0.6,-0.181" style="fill:none;stroke:#445;stroke-width:2px;"/><path d="M120.037,64.781c-1.899,-0.14 -2.623,1.108 -2.927,1.799c-0.747,1.701 0.165,3.871 2.199,3.896c0.885,0.011 1.685,-0.439 2.324,-1.011" style="fill:none;stroke:#445;stroke-width:2px;"/><path d="M125.909,64.103c0,0 -2.202,0.329 -2.226,2.808c-0.014,1.502 1.287,2.656 2.795,2.426c1.566,-0.238 2.505,-1.924 2.214,-3.421c-0.231,-1.187 -1.58,-2.145 -2.783,-1.813Z" style="fill:none;stroke:#445;stroke-width:2px;"/><path d="M132.388,68.461c-0.681,-1.089 -1.55,-3.918 -0.499,-5.046c0.751,-0.806 2.494,-0.54 2.92,1.144c-0.009,-2.376 5.477,-3.479 2.936,3.465" style="fill:none;stroke:#445;stroke-width:2px;"/></g></g><g id="server"><path d="M368.747,156.621c-1.777,-6.211 3.692,-55.443 8.674,-78.698c2.06,-9.613 2.869,-21.385 11.789,-27.509c9.069,-6.226 23.946,-3.762 34.749,-3.788c16.611,-0.041 61.408,5.34 74.796,7.111c7.103,0.94 25.625,2.361 29.833,8.461c9.158,13.274 0.75,88.216 0.035,92.984c-0.714,4.769 -10.694,5.396 -17.03,6.757c-8.228,1.768 -90.543,12.994 -107.378,9.212c-10.081,-2.265 -33.691,-8.318 -35.468,-14.53Z" style="fill:#82b7d1;"/><clipPath id="_clip3"><path d="M368.747,156.621c-1.777,-6.211 3.692,-55.443 8.674,-78.698c2.06,-9.613 2.869,-21.385 11.789,-27.509c9.069,-6.226 23.946,-3.762 34.749,-3.788c16.611,-0.041 61.408,5.34 74.796,7.111c7.103,0.94 25.625,2.361 29.833,8.461c9.158,13.274 0.75,88.216 0.035,92.984c-0.714,4.769 -10.694,5.396 -17.03,6.757c-8.228,1.768 -90.543,12.994 -107.378,9.212c-10.081,-2.265 -33.691,-8.318 -35.468,-14.53Z"/></clipPath><g clip-path="url(#_clip3)"><path d="M370.526,84.835c0,0 7.35,-21.915 12.75,-27.672c3.118,-3.325 23.573,-2.497 31.667,-0.126c4.286,1.256 6.177,2.869 6.319,7.912c0.238,8.457 -0.943,33.607 -2.219,46.853c-1.277,13.247 -5.836,47.52 -9.143,56.289c-2.401,6.365 -17.098,2.137 -17.098,2.137l-32.657,-12.465c0,0 5.45,-58.165 10.381,-72.928Z" style="fill:#bad7e6;"/></g><path d="M374.394,146.13c1.801,-1.416 5.402,-0.917 6.302,0.583c0.9,1.499 1.261,4.498 -0.45,5.497c-1.711,0.999 -5.042,1.582 -6.393,-0.75c-1.35,-2.332 -1.259,-3.914 0.541,-5.33Z" style="fill:#445;"/><path d="M393.924,153.982c0.234,-1.044 0.795,-1.986 1.56,-2.47c1.525,-0.964 5.609,-0.617 6.39,1.711c0.38,1.132 0.505,2.271 0.324,3.22" style="fill:none;stroke:#445;stroke-width:2px;"/><path d="M383.363,155.088c0,0 -0.064,2.707 2.587,2.964c3.02,0.294 3.51,-2.115 3.51,-2.115" style="fill:none;stroke:#445;stroke-width:2px;"/><path d="M408.094,64.516c0,0 -0.671,2.406 -0.079,3.248c0.631,0.898 2.138,0.983 3.117,1.112c2.199,0.289 5.307,1.237 6.1,-1.567c0.115,-0.409 0.192,-0.85 0.198,-1.276c0.042,-2.934 -2.528,-2.905 -4.817,-3.111c-1.835,-0.165 -3.803,-0.592 -4.519,1.594Z" style="fill:#ff0078;"/><path d="M407.004,75.62c0.13,-0.638 0.145,-1.515 0.643,-2c1.373,-1.341 4.602,-0.956 6.284,-0.521c0.589,0.153 1.322,0.277 1.769,0.718c0.94,0.927 0.861,2.967 0.707,4.175c-0.138,1.078 -1.657,1.395 -2.564,1.371c-1.422,-0.038 -2.802,-0.356 -4.205,-0.547c-1.43,-0.194 -2.415,-0.159 -2.685,-1.888l0.051,-1.308Z" style="fill:#ff0078;"/><path d="M405.975,86.401c0,0 0.403,-2.151 1.198,-2.786c0.868,-0.692 2.416,-0.536 3.444,-0.463c2.549,0.18 5.43,0.387 5.124,3.617c-0.055,0.582 -0.132,1.276 -0.345,1.822c-0.798,2.041 -3.659,1.192 -5.253,0.949c-2.104,-0.321 -4.566,-0.35 -4.168,-3.139Z" style="fill:#ff0078;"/></g><g id="html-file"><path d="M63.435,104.351c-1.444,-1.798 -3.247,-2.018 -3.696,-2.096c-8.75,-1.519 -21.101,0.088 -29.552,2.061c-4.22,0.985 -12.608,2.715 -16.182,5.519c-3.755,2.948 -0.745,22.751 -0.272,33.347c0.359,8.032 0.722,16.232 1.609,24.23c0.413,3.717 0.639,7.854 4.502,9.605c5.068,2.296 10.994,0.724 16.287,0.46c3.912,-0.195 28.311,-55.909 27.913,-56.253c-1.91,-1.656 2.529,-12.965 -0.609,-16.873Z" style="fill:#bad7e6;"/><path d="M65.992,107.788c-0.111,0 -7.592,-2.521 -9.498,-3.164c-0.292,-0.096 -0.601,-0.136 -0.908,-0.117c-2.079,0.139 -10.665,0.755 -18.041,1.931c-8.461,1.349 -21.984,5.71 -21.984,5.71c0,0 4.052,20.213 4.408,31.489c0.302,9.531 3.035,24.654 3.874,29.109c0.153,0.801 0.677,1.482 1.411,1.835c2.477,1.192 8.036,3.866 8.036,3.866c0,0 32.828,-70.659 32.702,-70.659Z" style="fill:#ecf4f8;"/><path d="M15.993,112.085l7.04,2.372c0,0 2.465,-1.546 0.539,-2.938c-2.384,-1.723 -7.579,0.566 -7.579,0.566Z" style="fill:#82b7d1;"/><path d="M30.251,111.628c2.572,-1.029 5.818,-1.304 8.185,-1.833c7.013,-1.568 14.58,-2.271 21.745,-2.781c5.925,-0.421 11.593,-1.751 12.23,3.659l0.057,1.82c1.108,13.853 2.866,27.698 3.36,41.593c0.173,4.851 1.437,12.073 -1.332,16.426c-3.391,5.329 -11.985,4.909 -17.651,6.108c-7.032,1.487 -18.963,3.139 -26.359,3.709c-5.346,0.413 -7.059,0.046 -11.572,-3.743c-4.229,-3.551 -4.997,-52.573 -4.997,-52.573l0.256,-14.208c0,0 1.611,4.719 16.078,1.823Z" style="fill:#bad7e6;"/><g id="sticker-couv"><path d="M66.507,116.578c0.32,2.258 0.777,6.881 1.2,10.327c0.112,0.913 0.628,3.027 -0.17,3.731c-0.658,0.582 -1.658,0.742 -2.496,0.862c-1.72,0.245 -3.469,0.306 -5.194,0.531c-5.522,0.721 -11.058,1.386 -16.598,1.941c-1.743,0.175 -4.879,0.871 -6.584,0.446c-1.433,-0.358 -1.241,-1.779 -1.53,-3.03c-0.656,-2.837 -0.646,-10.33 -0.47,-11.338c0.266,-1.522 1.641,-1.482 3.03,-1.673c1.361,-0.187 22.502,-2.664 23.995,-2.923c2.532,-0.44 4.497,-1.131 4.817,1.126Z" style="fill:#ecf4f8;"/><g id="html"><g id="h"><path d="M41.682,123.012c0.144,2.227 0.353,4.605 0.544,6.83" style="fill:none;stroke:#82b7d1;stroke-width:1.5px;"/><path d="M38.164,123.13c0.378,2.517 0.715,4.504 0.924,7.041" style="fill:none;stroke:#82b7d1;stroke-width:1.5px;"/><path d="M41.479,126.578c-0.794,0 -1.577,0.151 -2.368,0.198" style="fill:none;stroke:#82b7d1;stroke-width:1.5px;"/></g><g id="t"><path d="M49.185,122.049c-1.981,0.001 -3.338,0.139 -5.262,0.686" style="fill:none;stroke:#82b7d1;stroke-width:1.5px;"/><path d="M46.796,122.518c0,1.995 0.288,4.72 0.476,6.709" style="fill:none;stroke:#82b7d1;stroke-width:1.5px;"/></g><path id="m" d="M57.59,127.962c-0.178,-1.596 -0.216,-3.168 -0.565,-4.743c-0.041,-0.183 -0.395,-2.094 -0.603,-1.998c-0.823,0.379 -1.151,2.045 -1.382,2.859c-0.044,0.157 -0.169,1.13 -0.275,1.182c-0.01,0.004 -0.339,-1.039 -0.372,-1.153c-0.241,-0.827 -0.703,-1.46 -1.185,-2.183c-0.059,-0.088 -0.433,-0.672 -0.543,-0.652c-0.616,0.109 -0.81,0.984 -0.933,1.468c-0.434,1.705 -0.075,4.18 0.1,5.918" style="fill:none;stroke:#82b7d1;stroke-width:1.5px;"/><path id="l" d="M60.586,120.21c-0.254,2.147 -0.013,5.485 0.452,7.504c0.034,0.147 0.977,-0.026 1.101,-0.042c1.122,-0.143 2.163,-0.657 3.273,-0.84" style="fill:none;stroke:#82b7d1;stroke-width:1.5px;"/></g></g><g id="face"><path d="M65.997,158.537c0.687,0.603 1.446,1.375 1.485,2.731c0.075,2.553 -2.879,4.119 -5.051,2.95c-1.96,-1.054 -2.883,-4.355 -0.688,-5.721c1.23,-0.766 3.356,-0.748 4.254,0.04Z" style="fill:#445;"/><path d="M43.876,160.78c1.235,0.823 2.412,1.93 2.131,3.588c-0.399,2.359 -3.703,4.623 -5.849,2.934c-2.045,-1.61 -1.66,-5.482 0.697,-6.637c1.626,-0.797 3.021,0.115 3.021,0.115Z" style="fill:#445;"/><path d="M57.969,169.409c-0.898,1.981 -4.335,2.607 -6.07,0.908c-1.423,-1.393 -1.606,-3.351 -0.331,-5.04c1.354,-1.795 4.247,-1.406 5.442,-0.42c1.194,0.986 1.827,2.635 0.959,4.552Z" style="fill:none;stroke:#445;stroke-width:2px;"/></g><path d="M15.087,140.885c1.865,1.358 3.605,1.338 5.98,0.538" style="fill:none;stroke:#82b7d1;stroke-width:1.5px;"/><path d="M14.145,123.148c0.307,-0.027 1.447,0.333 2.598,0.425c1.016,0.082 2.049,-0.111 2.393,-0.037c0.735,0.158 1.206,0.157 1.259,1.049c0.052,0.891 0.524,9.909 0.524,10.486c0,0.576 -0.314,0.524 -1.468,0.734c-1.153,0.209 -3.827,-0.693 -4.719,-0.892c-0.891,-0.199 -0.996,-1.101 -0.943,-1.835c0.052,-0.734 -0.42,-8.325 -0.42,-8.85c0,-0.524 0.2,-1.027 0.776,-1.08Z" style="fill:#ecf4f8;"/><path d="M13.347,116.942c1.731,1.51 4.009,1.62 6.4,1.44" style="fill:none;stroke:#82b7d1;stroke-width:1.5px;"/></g><g id="arrow"><path d="M348.91,171.33c-23.593,24.965 -132.422,24.367 -162.042,-6.549" style="fill:none;stroke:#ff0078;stroke-width:6.5px;"/><path d="M185.313,180.247c-0.813,-3.523 -1.386,-8.494 -1.073,-12.164c0.093,-1.09 -0.396,-2.609 0.291,-3.608c1.626,-2.364 12.442,-1.989 14.619,-2.534" style="fill:none;stroke:#ff0078;stroke-width:6.5px;"/></g><g id="arrow1" serif:id="arrow"><path d="M163.796,55.715c39.237,-43.891 159.954,-55.409 188.872,-8.544" style="fill:none;stroke:#82b7d1;stroke-width:6.5px;"/><path d="M359.656,36.439c-0.129,3.578 -0.29,7.374 -1.26,10.861c-0.299,1.072 -0.583,2.61 -1.718,3.34c-2.686,1.728 -7.159,1.393 -10.402,1.29c-2.586,-0.081 -5.143,-0.349 -7.723,-0.528" style="fill:none;stroke:#82b7d1;stroke-width:6.5px;"/></g><g id="css"><path d="M212.164,83.077c-2.534,10.405 -3.826,13.599 -6.1,24.058c-1.144,5.262 -3.043,11.071 -0.052,16.058c3.178,5.299 9.626,7.16 15.105,9.151c10.278,3.735 24.347,7.94 30.619,-4.119c1.352,-2.599 2.424,-5.483 3.172,-8.314c2.568,-9.712 2.981,-12.438 4.417,-22.359c0.697,-4.823 1.34,-10.827 -1.857,-14.979c-2.245,-2.914 -5.718,-4.841 -9.165,-5.978c-2.236,-0.737 -4.429,-1.418 -6.741,-1.88c-9.67,-1.931 -22.365,-5.99 -28.506,5.587l-0.892,2.775Z" style="fill:#bad7e6;"/><path d="M218.217,79.11c-0.231,3.451 12.816,9.05 20.52,9.872c7.704,0.822 15.405,1.117 16.951,0.176c1.547,-0.941 0.526,-5.405 -2.405,-7.436c-2.93,-2.032 -20.006,-7.113 -26.12,-6.889c-4.696,0.172 -8.746,1.296 -8.946,4.277Z" style="fill:#82b7d1;"/><clipPath id="_clip4"><path d="M218.217,79.11c-0.231,3.451 12.816,9.05 20.52,9.872c7.704,0.822 15.405,1.117 16.951,0.176c1.547,-0.941 0.526,-5.405 -2.405,-7.436c-2.93,-2.032 -20.006,-7.113 -26.12,-6.889c-4.696,0.172 -8.746,1.296 -8.946,4.277Z"/></clipPath><g clip-path="url(#_clip4)"><path d="M221.1,88.644c0,0 8.519,-4.116 15.552,-4.445c7.033,-0.328 17.311,0.216 18.685,2.202c1.374,1.986 0.604,4.712 0.604,4.712l-33.484,2.214l-1.357,-4.683Z" style="fill:#ff0078;"/></g><path d="M211.251,115.663c-0.588,0.534 -1.044,1.413 -1.113,2.651c-0.103,1.827 2.012,3.206 3.648,2.545c3.519,-1.422 2.64,-6.739 -1.113,-5.916c0,0 -0.834,0.187 -1.422,0.72Z" style="fill:#445;"/><path d="M229.202,119.601c-4.539,1.038 -3.076,7.359 1.504,6.27c4.159,-0.99 2.929,-6.268 -0.947,-6.288l-0.557,0.018Z" style="fill:#445;"/><path d="M216.976,124.217c0.632,2.617 2.85,3.113 5.119,1.953" style="fill:none;stroke:#445;stroke-width:2px;"/><path d="M240.798,86.485c0,0 10.147,-21.111 14.921,-22.32c4.773,-1.209 7.387,-0.046 7,2.627c-0.387,2.673 -11.628,17.457 -13.416,19.393c-1.789,1.936 -2.802,1.987 -3.03,2.16c-1.015,0.768 -6.595,-0.789 -5.475,-1.86Zm15.491,-20.274c1.251,-0.88 2.497,0.271 1.741,1.436c-0.756,1.165 -2.707,4.467 -3.398,3.152c-0.692,-1.315 0.517,-3.786 1.657,-4.588Z" style="fill:#445;"/><path d="M233.905,99.97c0,0 0.768,-3.292 1.431,-5.368c0.348,-1.092 0.257,-1.552 1.278,-2.087c0.926,-0.485 5.576,0.532 10.125,0.656c4.206,0.115 7.967,-0.753 8.902,-0.364c0.936,0.389 1.698,0.792 1.659,1.991c-0.046,1.439 0.079,4.567 -0.5,6.601c-0.294,1.03 -1.345,2.273 -2.262,2.62c-1.861,0.702 -10.265,-0.164 -12.364,-0.347c-2.813,-0.244 -9.286,0.26 -8.269,-3.702Z" style="fill:#82b7d1;"/><path d="M241.824,95.772c-0.49,-0.32 -1.115,-0.55 -1.705,-0.563c-0.562,-0.013 -1.093,0.161 -1.583,0.429c-0.861,0.468 -1.692,1.391 -1.726,2.414c-0.077,2.253 2.719,3.849 4.514,2.478" style="fill:none;stroke:#ecf4f8;stroke-width:1.5px;"/><path d="M248.472,96.214c-1.234,-0.953 -3.54,-1.551 -3.781,0.741c-0.078,0.744 0.64,1.087 1.215,1.258c1.074,0.319 2.158,0.298 2.445,1.661c0.19,0.903 -0.647,1.808 -1.486,1.909c-1.059,0.126 -2.188,-0.406 -2.866,-1.223" style="fill:none;stroke:#ecf4f8;stroke-width:1.5px;"/><path d="M254.266,96.289c-0.892,-0.881 -3.402,-1.025 -3.231,0.767c0.112,1.161 1.534,1.067 2.37,1.215c0.868,0.153 1.324,0.946 1.327,1.773c0.008,2.187 -3.236,2.91 -3.852,0.704" style="fill:none;stroke:#ecf4f8;stroke-width:1.5px;"/><g id="splats"><path d="M255.596,81.501c-1.028,0.685 -2.072,1.707 -2.125,3.038c-0.1,2.516 2.735,4.297 5.013,3.386c4.396,-1.757 2.183,-7.361 -2.217,-6.606l-0.671,0.182Z" style="fill:#ff0078;"/><path d="M262.247,86.776c-2.015,0.112 -2.057,3.422 -0.101,3.646c2.119,0.243 2.657,-2.901 0.719,-3.555l-0.618,-0.091Z" style="fill:#ff0078;"/><path d="M267.259,78.72c-1.374,0.601 -1.158,3.045 0.534,2.68c1.687,-0.364 1.705,-2.802 -0.061,-2.726l-0.473,0.046Z" style="fill:#ff0078;"/></g></g><g id="server-address"><path d="M434.468,155.77c-0.032,3.087 0.069,6.18 0.351,9.255" style="fill:none;stroke:#445;stroke-width:2px;"/><path d="M434.123,155.651c1.193,-0.15 3.071,-0.683 4.209,-0.039c2.438,1.379 -0.715,3.787 -2.234,4.079" style="fill:none;stroke:#445;stroke-width:2px;"/><path d="M446.982,154.35c0,0 -2.577,-0.057 -3.942,1.996c-1.473,2.215 -1.309,6.766 2.093,6.99c2.505,0.165 4.909,-2.221 5.344,-4.567c0.405,-2.184 -1.282,-4.254 -3.495,-4.419Z" style="fill:none;stroke:#445;stroke-width:2px;"/><path d="M455.007,154.021c-0.289,0.592 -0.359,1.152 -0.47,1.645c-0.315,1.399 -0.507,3.017 -0.017,4.396c0.824,2.319 4.142,2.373 5.441,0.453c1.501,-2.22 0.727,-4.903 -0.498,-6.997" style="fill:none;stroke:#445;stroke-width:2px;"/><path d="M464.65,152.483c0.001,-0.088 -0.004,0.175 -0.003,0.262c0.003,0.199 0.009,0.398 0.018,0.597c0.022,0.532 0.057,1.064 0.087,1.596c0.091,1.629 0.203,3.256 0.395,4.876c0.05,0.419 0.091,0.841 0.15,1.259" style="fill:none;stroke:#445;stroke-width:2px;"/><path d="M473.719,151.735c-1.012,-0.472 -3.913,-0.418 -4.71,3.091c-0.134,0.587 -0.253,1.185 -0.221,1.79c0.225,4.308 4.506,3.953 6.85,1.867" style="fill:none;stroke:#445;stroke-width:2px;"/><path d="M479.126,158.052l0.848,-0.247" style="fill:none;stroke:#445;stroke-width:2px;"/><path d="M488.087,149.839c-2.67,-0.224 -3.708,1.522 -4.145,2.491c-1.077,2.384 0.176,5.453 3.038,5.516c1.246,0.028 2.379,-0.593 3.288,-1.39" style="fill:none;stroke:#445;stroke-width:2px;"/><path d="M496.365,148.969c0,0 -3.105,0.432 -3.174,3.921c-0.042,2.115 1.773,3.758 3.899,3.457c2.209,-0.313 3.555,-2.673 3.166,-4.784c-0.308,-1.675 -2.193,-3.044 -3.891,-2.594Z" style="fill:none;stroke:#445;stroke-width:2px;"/><path d="M505.423,155.198c-0.942,-1.542 -2.126,-5.538 -0.629,-7.111c1.069,-1.124 3.519,-0.724 4.095,1.653c0.022,-3.345 7.761,-4.82 4.083,4.92" style="fill:none;stroke:#445;stroke-width:2px;"/></g></svg>