<?xml version="1.0" standalone="no"?><!DOCTYPE svg PUBLIC "-//W3C//DTD SVG 1.1//EN" "http://www.w3.org/Graphics/SVG/1.1/DTD/svg11.dtd"><svg width="100%" height="100%" viewBox="0 0 366 230" version="1.1" xmlns="http://www.w3.org/2000/svg" xmlns:xlink="http://www.w3.org/1999/xlink" xml:space="preserve" style="fill-rule:evenodd;clip-rule:evenodd;stroke-linejoin:round;stroke-miterlimit:1.41421;"><clipPath id="_clip1"><rect id="AD-zoning" x="0.656" y="0" width="365" height="230"/></clipPath><g clip-path="url(#_clip1)"><rect x="0.656" y="0" width="365" height="230" style="fill:#808493;"/><rect x="0.656" y="60" width="38" height="170" style="fill:#abb2c9;"/><g><path d="M18.656,68.5c0,-1.932 -1.568,-3.5 -3.5,-3.5l-7,0c-1.931,0 -3.5,1.568 -3.5,3.5l0,7c0,1.932 1.569,3.5 3.5,3.5l7,0c1.932,0 3.5,-1.568 3.5,-3.5l0,-7Z" style="fill:#000;fill-opacity:0.25;"/><path d="M18.656,85.526c0,-1.932 -1.568,-3.5 -3.5,-3.5l-7,0c-1.931,0 -3.5,1.568 -3.5,3.5l0,7c0,1.931 1.569,3.5 3.5,3.5l7,0c1.932,0 3.5,-1.569 3.5,-3.5l0,-7Z" style="fill:#000;fill-opacity:0.25;"/><path d="M18.656,102.551c0,-1.931 -1.568,-3.5 -3.5,-3.5l-7,0c-1.931,0 -3.5,1.569 -3.5,3.5l0,7c0,1.932 1.569,3.5 3.5,3.5l7,0c1.932,0 3.5,-1.568 3.5,-3.5l0,-7Z" style="fill:#000;fill-opacity:0.25;"/><path d="M18.656,119.577c0,-1.932 -1.568,-3.5 -3.5,-3.5l-7,0c-1.931,0 -3.5,1.568 -3.5,3.5l0,7c0,1.932 1.569,3.5 3.5,3.5l7,0c1.932,0 3.5,-1.568 3.5,-3.5l0,-7Z" style="fill:#000;fill-opacity:0.25;"/><path d="M18.656,136.603c0,-1.932 -1.568,-3.5 -3.5,-3.5l-7,0c-1.931,0 -3.5,1.568 -3.5,3.5l0,7c0,1.931 1.569,3.5 3.5,3.5l7,0c1.932,0 3.5,-1.569 3.5,-3.5l0,-7Z" style="fill:#000;fill-opacity:0.25;"/><path d="M18.656,153.628c0,-1.932 -1.568,-3.5 -3.5,-3.5l-7,0c-1.931,0 -3.5,1.568 -3.5,3.5l0,7c0,1.932 1.569,3.5 3.5,3.5l7,0c1.932,0 3.5,-1.568 3.5,-3.5l0,-7Z" style="fill:#000;fill-opacity:0.25;"/><path d="M18.656,170.654c0,-1.932 -1.568,-3.5 -3.5,-3.5l-7,0c-1.931,0 -3.5,1.568 -3.5,3.5l0,7c0,1.931 1.569,3.5 3.5,3.5l7,0c1.932,0 3.5,-1.569 3.5,-3.5l0,-7Z" style="fill:#000;fill-opacity:0.25;"/><path d="M18.656,187.679c0,-1.931 -1.568,-3.5 -3.5,-3.5l-7,0c-1.931,0 -3.5,1.569 -3.5,3.5l0,7c0,1.932 1.569,3.5 3.5,3.5l7,0c1.932,0 3.5,-1.568 3.5,-3.5l0,-7Z" style="fill:#000;fill-opacity:0.25;"/><path d="M18.656,204.705c0,-1.932 -1.568,-3.5 -3.5,-3.5l-7,0c-1.931,0 -3.5,1.568 -3.5,3.5l0,7c0,1.932 1.569,3.5 3.5,3.5l7,0c1.932,0 3.5,-1.568 3.5,-3.5l0,-7Z" style="fill:#000;fill-opacity:0.25;"/><path d="M35.656,68.5c0,-1.932 -1.568,-3.5 -3.5,-3.5l-7,0c-1.931,0 -3.5,1.568 -3.5,3.5l0,7c0,1.932 1.569,3.5 3.5,3.5l7,0c1.932,0 3.5,-1.568 3.5,-3.5l0,-7Z" style="fill:#000;fill-opacity:0.25;"/><path d="M35.656,85.526c0,-1.932 -1.568,-3.5 -3.5,-3.5l-7,0c-1.931,0 -3.5,1.568 -3.5,3.5l0,7c0,1.931 1.569,3.5 3.5,3.5l7,0c1.932,0 3.5,-1.569 3.5,-3.5l0,-7Z" style="fill:#000;fill-opacity:0.25;"/><path d="M35.656,102.551c0,-1.931 -1.568,-3.5 -3.5,-3.5l-7,0c-1.931,0 -3.5,1.569 -3.5,3.5l0,7c0,1.932 1.569,3.5 3.5,3.5l7,0c1.932,0 3.5,-1.568 3.5,-3.5l0,-7Z" style="fill:#000;fill-opacity:0.25;"/><path d="M35.656,119.577c0,-1.932 -1.568,-3.5 -3.5,-3.5l-7,0c-1.931,0 -3.5,1.568 -3.5,3.5l0,7c0,1.932 1.569,3.5 3.5,3.5l7,0c1.932,0 3.5,-1.568 3.5,-3.5l0,-7Z" style="fill:#000;fill-opacity:0.25;"/><path d="M35.656,136.603c0,-1.932 -1.568,-3.5 -3.5,-3.5l-7,0c-1.931,0 -3.5,1.568 -3.5,3.5l0,7c0,1.931 1.569,3.5 3.5,3.5l7,0c1.932,0 3.5,-1.569 3.5,-3.5l0,-7Z" style="fill:#000;fill-opacity:0.25;"/><path d="M35.656,153.628c0,-1.932 -1.568,-3.5 -3.5,-3.5l-7,0c-1.931,0 -3.5,1.568 -3.5,3.5l0,7c0,1.932 1.569,3.5 3.5,3.5l7,0c1.932,0 3.5,-1.568 3.5,-3.5l0,-7Z" style="fill:#000;fill-opacity:0.25;"/><path d="M35.656,170.654c0,-1.932 -1.568,-3.5 -3.5,-3.5l-7,0c-1.931,0 -3.5,1.568 -3.5,3.5l0,7c0,1.931 1.569,3.5 3.5,3.5l7,0c1.932,0 3.5,-1.569 3.5,-3.5l0,-7Z" style="fill:#000;fill-opacity:0.25;"/><path d="M35.656,187.679c0,-1.931 -1.568,-3.5 -3.5,-3.5l-7,0c-1.931,0 -3.5,1.569 -3.5,3.5l0,7c0,1.932 1.569,3.5 3.5,3.5l7,0c1.932,0 3.5,-1.568 3.5,-3.5l0,-7Z" style="fill:#000;fill-opacity:0.25;"/><path d="M35.656,204.705c0,-1.932 -1.568,-3.5 -3.5,-3.5l-7,0c-1.931,0 -3.5,1.568 -3.5,3.5l0,7c0,1.932 1.569,3.5 3.5,3.5l7,0c1.932,0 3.5,-1.568 3.5,-3.5l0,-7Z" style="fill:#000;fill-opacity:0.25;"/></g><rect x="0.656" y="0" width="365" height="20" style="fill:#abb2c9;"/><rect x="0.656" y="40" width="365" height="20" style="fill:#c5cbdf;"/><rect x="0.656" y="20" width="365" height="20" style="fill:#656c84;"/><rect x="265.656" y="60" width="100" height="170" style="fill:#abb2c9;"/><g transform="matrix(1,1.00974e-28,-1.21169e-27,1,219.669,-134.677)"><text x="-64.293px" y="147.703px" style="font-family:'ArialMT';font-size:10.135px;fill:#000;">MENU</text><text x="-30.562px" y="147.703px" style="font-family:'ArialMT';font-size:10.135px;fill:#000;">BAR</text></g><g transform="matrix(1,1.26218e-28,-2.22143e-27,1,219.669,-94.6768)"><text x="-95.702px" y="147.703px" style="font-family:'ArialMT';font-size:10.135px;fill:#000;">CONTEXT</text><text x="-43.389px" y="147.703px" style="font-family:'ArialMT';font-size:10.135px;fill:#000;">PROPER<tspan x="-0.84px 5.35px " y="147.703px 147.703px ">TI</tspan>ES</text></g><g transform="matrix(-1.60812e-16,-1,1,-1.60812e-16,-233.013,-17.0283)"><text x="-186.118px" y="255.695px" style="font-family:'ArialMT';font-size:10.135px;fill:#000;">T<tspan x="-180.18px -172.297px " y="255.695px 255.695px ">OO</tspan>LBAR</text></g><text x="7.656px" y="13.026px" style="font-family:'ArialMT';font-size:12px;fill:#000;fill-opacity:0.25;">File Edit…</text><path d="M21.656,26.5c0,-1.932 -1.568,-3.5 -3.5,-3.5l-7,0c-1.931,0 -3.5,1.568 -3.5,3.5l0,7c0,1.932 1.569,3.5 3.5,3.5l7,0c1.932,0 3.5,-1.568 3.5,-3.5l0,-7Z" style="fill:#000;fill-opacity:0.25;"/><path d="M39.374,26.5c0,-1.932 -1.568,-3.5 -3.5,-3.5l-7,0c-1.931,0 -3.5,1.568 -3.5,3.5l0,7c0,1.932 1.569,3.5 3.5,3.5l7,0c1.932,0 3.5,-1.568 3.5,-3.5l0,-7Z" style="fill:#000;fill-opacity:0.25;"/><path d="M57.092,26.5c0,-1.932 -1.568,-3.5 -3.5,-3.5l-7,0c-1.932,0 -3.5,1.568 -3.5,3.5l0,7c0,1.932 1.568,3.5 3.5,3.5l7,0c1.932,0 3.5,-1.568 3.5,-3.5l0,-7Z" style="fill:#000;fill-opacity:0.25;"/><path d="M121.656,26.5c0,-1.932 -1.568,-3.5 -3.5,-3.5l-37,0c-1.931,0 -3.5,1.568 -3.5,3.5l0,7c0,1.932 1.569,3.5 3.5,3.5l37,0c1.932,0 3.5,-1.568 3.5,-3.5l0,-7Z" style="fill:#000;fill-opacity:0.25;"/><path d="M181.676,26.5c0,-1.932 -1.569,-3.5 -3.5,-3.5l-37,0c-1.932,0 -3.5,1.568 -3.5,3.5l0,7c0,1.932 1.568,3.5 3.5,3.5l37,0c1.931,0 3.5,-1.568 3.5,-3.5l0,-7Z" style="fill:#000;fill-opacity:0.25;"/><path d="M241.695,26.5c0,-1.932 -1.568,-3.5 -3.5,-3.5l-37,0c-1.931,0 -3.5,1.568 -3.5,3.5l0,7c0,1.932 1.569,3.5 3.5,3.5l37,0c1.932,0 3.5,-1.568 3.5,-3.5l0,-7Z" style="fill:#000;fill-opacity:0.25;"/><path d="M301.715,26.5c0,-1.932 -1.568,-3.5 -3.5,-3.5l-37,0c-1.932,0 -3.5,1.568 -3.5,3.5l0,7c0,1.932 1.568,3.5 3.5,3.5l37,0c1.932,0 3.5,-1.568 3.5,-3.5l0,-7Z" style="fill:#000;fill-opacity:0.25;"/><g transform="matrix(1,1.00974e-28,-1.41364e-27,1,219.669,-114.677)"><text x="-85.122px" y="147.703px" style="font-family:'ArialMT';font-size:10.135px;fill:#f4f4f4;">COMMON</text><text x="-33.942px" y="147.703px" style="font-family:'ArialMT';font-size:10.135px;fill:#f4f4f4;">ACTIONS</text></g><g><path d="M51.656,46.5c0,-1.932 -1.568,-3.5 -3.5,-3.5l-37,0c-1.931,0 -3.5,1.568 -3.5,3.5l0,7c0,1.932 1.569,3.5 3.5,3.5l37,0c1.932,0 3.5,-1.568 3.5,-3.5l0,-7Z" style="fill:none;stroke-width:1px;stroke:#000;stroke-opacity:0.25;"/><path d="M111.637,46.5c0,-1.932 -1.569,-3.5 -3.5,-3.5l-37,0c-1.932,0 -3.5,1.568 -3.5,3.5l0,7c0,1.932 1.568,3.5 3.5,3.5l37,0c1.931,0 3.5,-1.568 3.5,-3.5l0,-7Z" style="fill:none;stroke-width:1px;stroke:#000;stroke-opacity:0.25;"/><path d="M171.617,46.5c0,-1.932 -1.568,-3.5 -3.5,-3.5l-37,0c-1.932,0 -3.5,1.568 -3.5,3.5l0,7c0,1.932 1.568,3.5 3.5,3.5l37,0c1.932,0 3.5,-1.568 3.5,-3.5l0,-7Z" style="fill:none;stroke-width:1px;stroke:#000;stroke-opacity:0.25;"/><path d="M44.656,53.026l-3,-4.224l6,0l-3,4.224Z" style="fill:#000;fill-opacity:0.25;"/><path d="M104.637,53.026l-3,-4.224l6,0l-3,4.224Z" style="fill:#000;fill-opacity:0.25;"/><path d="M164.617,53.026l-3,-4.224l6,0l-3,4.224Z" style="fill:#000;fill-opacity:0.25;"/></g><g><path d="M264.666,115l100.99,0" style="fill:none;stroke-width:2px;stroke-linecap:round;stroke:#808493;"/><path d="M264.666,175.522l100.99,0" style="fill:none;stroke-width:2px;stroke-linecap:round;stroke:#808493;"/></g><text x="295.683px" y="148.026px" style="font-family:'ArialMT';font-size:10.135px;fill:#000;">P<tspan x="301.404px 308.164px " y="148.026px 148.026px ">AN</tspan>ELS</text><rect x="50" y="72" width="203" height="148" style="fill:#c5cbdf;"/><g transform="matrix(1,1.51461e-28,-2.42338e-27,1,190.008,1.32324)"><text x="-73.079px" y="147.703px" style="font-family:'ArialMT';font-size:10.135px;fill:#000;">AR<tspan x="-59.253px -53.062px " y="147.703px 147.703px ">TB</tspan>OARD</text><text x="-17.021px" y="147.703px" style="font-family:'ArialMT';font-size:14px;fill:#000;">(</text><text x="-12.359px" y="147.703px" style="font-family:'ArialMT';font-size:10.135px;fill:#000;">S</text><text x="-5.599px" y="147.703px" style="font-family:'ArialMT';font-size:14px;fill:#000;">)</text></g></g></svg>