<?xml version="1.0" standalone="no"?><!DOCTYPE svg PUBLIC "-//W3C//DTD SVG 1.1//EN" "http://www.w3.org/Graphics/SVG/1.1/DTD/svg11.dtd"><svg width="100%" height="100%" viewBox="0 0 365 230" version="1.1" xmlns="http://www.w3.org/2000/svg" xmlns:xlink="http://www.w3.org/1999/xlink" xml:space="preserve" style="fill-rule:evenodd;clip-rule:evenodd;stroke-linejoin:round;stroke-miterlimit:1.41421;"><clipPath id="_clip1"><rect id="AI–zoning" x="0" y="0" width="365" height="230"/></clipPath><g clip-path="url(#_clip1)"><rect x="0" y="0" width="365" height="230" style="fill:#958c81;"/><rect x="0" y="0" width="365" height="20" style="fill:#ccbeac;"/><rect x="0" y="20" width="365" height="20" style="fill:#dbd4cb;"/><g transform="matrix(1,1.00974e-28,2.01948e-28,1,219.013,-134.677)"><text x="-64.293px" y="147.703px" style="font-family:'ArialMT';font-size:10.135px;fill:#000;">MENU</text><text x="-30.562px" y="147.703px" style="font-family:'ArialMT';font-size:10.135px;fill:#000;">BAR</text></g><text x="6.59px" y="13.026px" style="font-family:'ArialMT';font-size:12px;fill:#000;fill-opacity:0.25;">File Edit…</text><rect x="0" y="40" width="38" height="190" style="fill:#ccbeac;"/><g><path d="M50,26.5c0,-1.932 -1.568,-3.5 -3.5,-3.5l-37,0c-1.932,0 -3.5,1.568 -3.5,3.5l0,7c0,1.932 1.568,3.5 3.5,3.5l37,0c1.932,0 3.5,-1.568 3.5,-3.5l0,-7Z" style="fill:none;stroke-width:1px;stroke:#000;stroke-opacity:0.25;"/><path d="M109.98,26.5c0,-1.932 -1.568,-3.5 -3.5,-3.5l-37,0c-1.931,0 -3.5,1.568 -3.5,3.5l0,7c0,1.932 1.569,3.5 3.5,3.5l37,0c1.932,0 3.5,-1.568 3.5,-3.5l0,-7Z" style="fill:none;stroke-width:1px;stroke:#000;stroke-opacity:0.25;"/><path d="M169.961,26.5c0,-1.932 -1.568,-3.5 -3.5,-3.5l-37,0c-1.932,0 -3.5,1.568 -3.5,3.5l0,7c0,1.932 1.568,3.5 3.5,3.5l37,0c1.932,0 3.5,-1.568 3.5,-3.5l0,-7Z" style="fill:none;stroke-width:1px;stroke:#000;stroke-opacity:0.25;"/><path d="M43,33.026l-3,-4.224l6,0l-3,4.224Z" style="fill:#000;fill-opacity:0.25;"/><path d="M102.98,33.026l-3,-4.224l6,0l-3,4.224Z" style="fill:#000;fill-opacity:0.25;"/><path d="M162.961,33.026l-3,-4.224l6,0l-3,4.224Z" style="fill:#000;fill-opacity:0.25;"/></g><g transform="matrix(1,1.51461e-28,-1.41364e-27,1,219.013,-114.677)"><text x="-95.702px" y="147.703px" style="font-family:'ArialMT';font-size:10.135px;fill:#000;">CONTEXT</text><text x="-43.389px" y="147.703px" style="font-family:'ArialMT';font-size:10.135px;fill:#000;">PROPER<tspan x="-0.84px 5.35px " y="147.703px 147.703px ">TI</tspan>ES</text></g><g><path d="M18,47.5c0,-1.932 -1.568,-3.5 -3.5,-3.5l-7,0c-1.932,0 -3.5,1.568 -3.5,3.5l0,7c0,1.932 1.568,3.5 3.5,3.5l7,0c1.932,0 3.5,-1.568 3.5,-3.5l0,-7Z" style="fill:#000;fill-opacity:0.25;"/><path d="M18,64.526c0,-1.932 -1.568,-3.5 -3.5,-3.5l-7,0c-1.932,0 -3.5,1.568 -3.5,3.5l0,7c0,1.931 1.568,3.5 3.5,3.5l7,0c1.932,0 3.5,-1.569 3.5,-3.5l0,-7Z" style="fill:#000;fill-opacity:0.25;"/><path d="M18,81.551c0,-1.931 -1.568,-3.5 -3.5,-3.5l-7,0c-1.932,0 -3.5,1.569 -3.5,3.5l0,7c0,1.932 1.568,3.5 3.5,3.5l7,0c1.932,0 3.5,-1.568 3.5,-3.5l0,-7Z" style="fill:#000;fill-opacity:0.25;"/><path d="M18,98.577c0,-1.932 -1.568,-3.5 -3.5,-3.5l-7,0c-1.932,0 -3.5,1.568 -3.5,3.5l0,7c0,1.932 1.568,3.5 3.5,3.5l7,0c1.932,0 3.5,-1.568 3.5,-3.5l0,-7Z" style="fill:#000;fill-opacity:0.25;"/><path d="M18,115.603c0,-1.932 -1.568,-3.5 -3.5,-3.5l-7,0c-1.932,0 -3.5,1.568 -3.5,3.5l0,7c0,1.931 1.568,3.5 3.5,3.5l7,0c1.932,0 3.5,-1.569 3.5,-3.5l0,-7Z" style="fill:#000;fill-opacity:0.25;"/><path d="M18,132.628c0,-1.932 -1.568,-3.5 -3.5,-3.5l-7,0c-1.932,0 -3.5,1.568 -3.5,3.5l0,7c0,1.932 1.568,3.5 3.5,3.5l7,0c1.932,0 3.5,-1.568 3.5,-3.5l0,-7Z" style="fill:#000;fill-opacity:0.25;"/><path d="M18,149.654c0,-1.932 -1.568,-3.5 -3.5,-3.5l-7,0c-1.932,0 -3.5,1.568 -3.5,3.5l0,7c0,1.931 1.568,3.5 3.5,3.5l7,0c1.932,0 3.5,-1.569 3.5,-3.5l0,-7Z" style="fill:#000;fill-opacity:0.25;"/><path d="M18,166.679c0,-1.931 -1.568,-3.5 -3.5,-3.5l-7,0c-1.932,0 -3.5,1.569 -3.5,3.5l0,7c0,1.932 1.568,3.5 3.5,3.5l7,0c1.932,0 3.5,-1.568 3.5,-3.5l0,-7Z" style="fill:#000;fill-opacity:0.25;"/><path d="M18,183.705c0,-1.932 -1.568,-3.5 -3.5,-3.5l-7,0c-1.932,0 -3.5,1.568 -3.5,3.5l0,7c0,1.932 1.568,3.5 3.5,3.5l7,0c1.932,0 3.5,-1.568 3.5,-3.5l0,-7Z" style="fill:#000;fill-opacity:0.25;"/><path d="M35,47.5c0,-1.932 -1.568,-3.5 -3.5,-3.5l-7,0c-1.932,0 -3.5,1.568 -3.5,3.5l0,7c0,1.932 1.568,3.5 3.5,3.5l7,0c1.932,0 3.5,-1.568 3.5,-3.5l0,-7Z" style="fill:#000;fill-opacity:0.25;"/><path d="M35,64.526c0,-1.932 -1.568,-3.5 -3.5,-3.5l-7,0c-1.932,0 -3.5,1.568 -3.5,3.5l0,7c0,1.931 1.568,3.5 3.5,3.5l7,0c1.932,0 3.5,-1.569 3.5,-3.5l0,-7Z" style="fill:#000;fill-opacity:0.25;"/><path d="M35,81.551c0,-1.931 -1.568,-3.5 -3.5,-3.5l-7,0c-1.932,0 -3.5,1.569 -3.5,3.5l0,7c0,1.932 1.568,3.5 3.5,3.5l7,0c1.932,0 3.5,-1.568 3.5,-3.5l0,-7Z" style="fill:#000;fill-opacity:0.25;"/><path d="M35,98.577c0,-1.932 -1.568,-3.5 -3.5,-3.5l-7,0c-1.932,0 -3.5,1.568 -3.5,3.5l0,7c0,1.932 1.568,3.5 3.5,3.5l7,0c1.932,0 3.5,-1.568 3.5,-3.5l0,-7Z" style="fill:#000;fill-opacity:0.25;"/><path d="M35,115.603c0,-1.932 -1.568,-3.5 -3.5,-3.5l-7,0c-1.932,0 -3.5,1.568 -3.5,3.5l0,7c0,1.931 1.568,3.5 3.5,3.5l7,0c1.932,0 3.5,-1.569 3.5,-3.5l0,-7Z" style="fill:#000;fill-opacity:0.25;"/><path d="M35,132.628c0,-1.932 -1.568,-3.5 -3.5,-3.5l-7,0c-1.932,0 -3.5,1.568 -3.5,3.5l0,7c0,1.932 1.568,3.5 3.5,3.5l7,0c1.932,0 3.5,-1.568 3.5,-3.5l0,-7Z" style="fill:#000;fill-opacity:0.25;"/><path d="M35,149.654c0,-1.932 -1.568,-3.5 -3.5,-3.5l-7,0c-1.932,0 -3.5,1.568 -3.5,3.5l0,7c0,1.931 1.568,3.5 3.5,3.5l7,0c1.932,0 3.5,-1.569 3.5,-3.5l0,-7Z" style="fill:#000;fill-opacity:0.25;"/><path d="M35,166.679c0,-1.931 -1.568,-3.5 -3.5,-3.5l-7,0c-1.932,0 -3.5,1.569 -3.5,3.5l0,7c0,1.932 1.568,3.5 3.5,3.5l7,0c1.932,0 3.5,-1.568 3.5,-3.5l0,-7Z" style="fill:#000;fill-opacity:0.25;"/><path d="M35,183.705c0,-1.932 -1.568,-3.5 -3.5,-3.5l-7,0c-1.932,0 -3.5,1.568 -3.5,3.5l0,7c0,1.932 1.568,3.5 3.5,3.5l7,0c1.932,0 3.5,-1.568 3.5,-3.5l0,-7Z" style="fill:#000;fill-opacity:0.25;"/></g><rect x="265" y="40" width="100" height="190" style="fill:#ccbeac;"/><g><path d="M264.009,104.739l100.991,0" style="fill:none;stroke-width:2px;stroke-linecap:round;stroke:#958d81;"/><path d="M264.009,165.261l100.991,0" style="fill:none;stroke-width:2px;stroke-linecap:round;stroke:#958d81;"/></g><text x="295.026px" y="138.026px" style="font-family:'ArialMT';font-size:10.135px;fill:#000;">P<tspan x="300.747px 307.507px " y="138.026px 138.026px ">AN</tspan>ELS</text><rect x="52" y="51" width="196" height="169" style="fill:#dbd4cb;"/><g transform="matrix(1,1.51461e-28,-1.41364e-27,1,187.008,-9.17676)"><text x="-73.079px" y="147.703px" style="font-family:'ArialMT';font-size:10.135px;fill:#000;">AR<tspan x="-59.253px -53.062px " y="147.703px 147.703px ">TB</tspan>OARD</text><text x="-17.021px" y="147.703px" style="font-family:'ArialMT';font-size:14px;fill:#000;">(</text><text x="-12.359px" y="147.703px" style="font-family:'ArialMT';font-size:10.135px;fill:#000;">S</text><text x="-5.599px" y="147.703px" style="font-family:'ArialMT';font-size:14px;fill:#000;">)</text></g><g transform="matrix(-1.60812e-16,-1,1,-1.60812e-16,-223.669,-27.6846)"><text x="-186.775px" y="245.695px" style="font-family:'ArialMT';font-size:10.135px;fill:#000;">T<tspan x="-180.837px -172.953px " y="245.695px 245.695px ">OO</tspan>LBAR</text></g></g></svg>