<svg class="svg-icon-library" xmlns="http://www.w3.org/2000/svg">
<symbol id="icon-rss-feed" viewBox="0 0 24 24"> <circle cx="6.18" cy="17.82" r="2.18"/> <path d="M4 4.44v2.83c7.03 0 12.73 5.7 12.73 12.73h2.83c0-8.59-6.97-15.56-15.56-15.56zm0 5.66v2.83c3.9 0 7.07 3.17 7.07 7.07h2.83c0-5.47-4.43-9.9-9.9-9.9z"/> </symbol>
<symbol id="icon-access-time" viewBox="0 0 24 24"> <path d="M11.99 2C6.47 2 2 6.48 2 12s4.47 10 9.99 10C17.52 22 22 17.52 22 12S17.52 2 11.99 2zM12 20c-4.42 0-8-3.58-8-8s3.58-8 8-8 8 3.58 8 8-3.58 8-8 8z"/> <path d="M12.5 7H11v6l5.25 3.15.75-1.23-4.5-2.67z"/> </symbol>
<symbol id="icon-add-circle" viewBox="0 0 24 24"> <path d="M12 2C6.48 2 2 6.48 2 12s4.48 10 10 10 10-4.48 10-10S17.52 2 12 2zm5 11h-4v4h-2v-4H7v-2h4V7h2v4h4v2z"/> </symbol>
<symbol id="icon-chevron-right" viewBox="0 0 24 24"> <path d="M10 6L8.59 7.41 13.17 12l-4.58 4.59L10 18l6-6z"/> </symbol>
<symbol id="icon-folder" viewBox="0 0 24 24"> <path d="M10 4H4c-1.1 0-1.99.9-1.99 2L2 18c0 1.1.9 2 2 2h16c1.1 0 2-.9 2-2V8c0-1.1-.9-2-2-2h-8l-2-2z"/> </symbol>
<symbol id="icon-local-offer" viewBox="0 0 24 24"> <path d="M21.41 11.58l-9-9C12.05 2.22 11.55 2 11 2H4c-1.1 0-2 .9-2 2v7c0 .55.22 1.05.59 1.42l9 9c.36.36.86.58 1.41.58.55 0 1.05-.22 1.41-.59l7-7c.37-.36.59-.86.59-1.41 0-.55-.23-1.06-.59-1.42zM5.5 7C4.67 7 4 6.33 4 5.5S4.67 4 5.5 4 7 4.67 7 5.5 6.33 7 5.5 7z"/> </symbol>
<symbol id="icon-remove-circle" viewBox="0 0 24 24"> <path d="M12 2C6.48 2 2 6.48 2 12s4.48 10 10 10 10-4.48 10-10S17.52 2 12 2zm5 11H7v-2h10v2z"/> </symbol>
<symbol id="icon-c-medium" viewBox="0 0 195 195"> <rect id="Rectangle-path" x="0" y="0" width="195" height="195"/> <path d="M46.5340803,65.2157554 C46.6968378,63.6076572 46.0836,62.018231 44.8828198,60.93592 L32.6512605,46.2010582 L32.6512605,44 L70.6302521,44 L99.9859944,108.380952 L125.794585,44 L162,44 L162,46.2010582 L151.542017,56.2281011 C150.640424,56.9153477 150.193188,58.0448862 150.380019,59.1628454 L150.380019,132.837155 C150.193188,133.955114 150.640424,135.084652 151.542017,135.771899 L161.755369,145.798942 L161.755369,148 L110.38282,148 L110.38282,145.798942 L120.963119,135.527337 C122.002801,134.487948 122.002801,134.182246 122.002801,132.592593 L122.002801,73.0417402 L92.585901,147.755438 L88.6106443,147.755438 L54.3622782,73.0417402 L54.3622782,123.115814 C54.0767278,125.221069 54.7759199,127.3406 56.2581699,128.863022 L70.0186741,145.55438 L70.0186741,147.755438 L31,147.755438 L31,145.55438 L44.7605042,128.863022 C46.2319621,127.338076 46.8903838,125.204485 46.5340803,123.115814 L46.5340803,65.2157554 Z" id="Shape" fill="#FFFFFF"/> </symbol>
</svg>