<svg class="svg-icon-library" xmlns="http://www.w3.org/2000/svg">
<symbol id="icon-access-time" viewBox="0 0 24 24"> <path d="M11.99 2C6.47 2 2 6.48 2 12s4.47 10 9.99 10C17.52 22 22 17.52 22 12S17.52 2 11.99 2zM12 20c-4.42 0-8-3.58-8-8s3.58-8 8-8 8 3.58 8 8-3.58 8-8 8z"/> <path d="M12.5 7H11v6l5.25 3.15.75-1.23-4.5-2.67z"/> </symbol>
<symbol id="icon-add-circle" viewBox="0 0 24 24"> <path d="M12 2C6.48 2 2 6.48 2 12s4.48 10 10 10 10-4.48 10-10S17.52 2 12 2zm5 11h-4v4h-2v-4H7v-2h4V7h2v4h4v2z"/> </symbol>
<symbol id="icon-chevron-right" viewBox="0 0 24 24"> <path d="M10 6L8.59 7.41 13.17 12l-4.58 4.59L10 18l6-6z"/> </symbol>
<symbol id="icon-folder" viewBox="0 0 24 24"> <path d="M10 4H4c-1.1 0-1.99.9-1.99 2L2 18c0 1.1.9 2 2 2h16c1.1 0 2-.9 2-2V8c0-1.1-.9-2-2-2h-8l-2-2z"/> </symbol>
<symbol id="icon-local-offer" viewBox="0 0 24 24"> <path d="M21.41 11.58l-9-9C12.05 2.22 11.55 2 11 2H4c-1.1 0-2 .9-2 2v7c0 .55.22 1.05.59 1.42l9 9c.36.36.86.58 1.41.58.55 0 1.05-.22 1.41-.59l7-7c.37-.36.59-.86.59-1.41 0-.55-.23-1.06-.59-1.42zM5.5 7C4.67 7 4 6.33 4 5.5S4.67 4 5.5 4 7 4.67 7 5.5 6.33 7 5.5 7z"/> </symbol>
<symbol id="icon-remove-circle" viewBox="0 0 24 24"> <path d="M12 2C6.48 2 2 6.48 2 12s4.48 10 10 10 10-4.48 10-10S17.52 2 12 2zm5 11H7v-2h10v2z"/> </symbol>
</svg>