<?xml version="1.0" encoding="UTF-8" standalone="no"?>
<!DOCTYPE svg PUBLIC "-//W3C//DTD SVG 1.1//EN" "http://www.w3.org/Graphics/SVG/1.1/DTD/svg11.dtd">
<svg width="450" height="450" viewBox="0 0 450 450" version="1.1" xmlns="http://www.w3.org/2000/svg" xmlns:xlink="http://www.w3.org/1999/xlink" xml:space="preserve" xmlns:serif="http://www.serif.com/" style="fill-rule:evenodd;clip-rule:evenodd;stroke-linecap:round;stroke-linejoin:round;stroke-miterlimit:1.5;">
    <g transform="matrix(1,0,0,1,-500,0)">
        <g id="lineart" transform="matrix(0.5,0,0,0.28125,500,0)">
            <rect x="0" y="0" width="900" height="1600" style="fill:#ECF4F8;"/>
            <g clip-path="url(#_clip1)">
                <g transform="matrix(1,0,0,1.77778,-1000,0)">
                    <path d="M1410.47,694.941C1410.47,694.941 1421.12,740.726 1441,740.726C1470.09,740.726 1461.64,689.291 1461.64,689.291" style="fill:none;stroke:#ff0078;stroke-width:4px;"/>
                </g>
                <g transform="matrix(1,0,0,1.77778,-1000,0)">
                    <path d="M1444,245.772C1473.58,241.327 1505.24,242.836 1541.92,243.596C1554.79,211.402 1576.8,175.451 1599.85,148.703C1599.85,148.703 1609.49,199.873 1634.73,254.333C1666.89,323.706 1711.75,408.829 1714.72,441.523C1720.01,499.883 1698.95,701.967 1566.5,708.654C1434.06,715.341 1401.27,715.485 1344.12,700.131C1299.31,688.096 1208.62,577.63 1241.79,479.221C1274.95,380.812 1294.33,350.73 1306.79,301.491C1319.25,252.252 1358.42,155.636 1358.42,155.636C1387.14,176.047 1415.67,205.529 1444,245.772Z" style="fill:none;stroke:#ff0078;stroke-width:4px;"/>
                </g>
                <g transform="matrix(1,0,0,1.77778,-1000,0)">
                    <path d="M1567.54,711.492C1546.79,731.717 1438.06,740.733 1406.25,717.445C1394.53,708.863 1380.84,699.678 1370.33,689.726C1353.27,673.574 1342.27,650.858 1334.77,627.553C1306.68,540.282 1377.76,462.611 1465.16,452.904C1537.87,444.83 1601.03,515.99 1611.05,571.803C1615.7,597.685 1614.13,629.18 1605.05,653.411C1597.39,673.869 1583.62,695.83 1567.54,711.492Z" style="fill:none;stroke:#ff0078;stroke-width:4px;"/>
                </g>
                <g transform="matrix(1,0,0,1.77778,-1000,0)">
                    <path d="M1410.05,328.3C1415.36,311.036 1424.87,308.476 1440.11,326.026" style="fill:none;stroke:#ff0078;stroke-width:4px;"/>
                </g>
                <g transform="matrix(1,0,0,1.77778,-1000,0)">
                    <path d="M1543.94,326.653C1553.05,313.579 1561.99,309.482 1574.66,323.088" style="fill:none;stroke:#ff0078;stroke-width:4px;"/>
                </g>
                <g transform="matrix(1,0,0,1.77778,-1000,0)">
                    <path d="M1551.9,369.413L1615.15,332.795" style="fill:none;stroke:#ff0078;stroke-width:4px;"/>
                </g>
                <g transform="matrix(1,0,0,1.77778,-1000,0)">
                    <path d="M1347.28,352.403C1364.28,360.656 1382.79,367.547 1403.74,372.266" style="fill:none;stroke:#ff0078;stroke-width:4px;"/>
                </g>
                <g transform="matrix(1,0,0,1.77778,-1000,0)">
                    <path d="M1342.99,400.359C1361.18,397.742 1379.23,393.783 1397.04,387.518" style="fill:none;stroke:#ff0078;stroke-width:4px;"/>
                </g>
                <g transform="matrix(1,0,0,1.77778,-1000,0)">
                    <path d="M1559.59,385.693C1577.33,383.997 1593.42,386.204 1607.84,392.407" style="fill:none;stroke:#ff0078;stroke-width:4px;"/>
                </g>
                <g transform="matrix(1,0,0,1.77778,-1000,0)">
                    <path d="M1476.59,401.066C1484.34,401.238 1490.95,399.744 1493.73,392.644C1496.29,398.258 1501.31,400.547 1508.78,399.511" style="fill:none;stroke:#ff0078;stroke-width:4px;"/>
                </g>
                <g transform="matrix(1,0,0,1.77778,-1000,0)">
                    <path d="M1348.61,708.5C1297.19,709.535 1233.25,693.085 1196.35,654.688C1181.26,638.992 1129.47,583.642 1183.06,580.423C1236.39,577.22 1264.45,632.905 1298.49,661.552C1317.58,677.617 1341.89,683.503 1359.38,697.086C1367.01,703.01 1382.58,703.595 1376.12,704.918L1348.61,708.5Z" style="fill:none;stroke:#ff0078;stroke-width:4px;"/>
                </g>
                <g transform="matrix(1,0,0,1.77778,-1000,0)">
                    <path d="M1483.25,693.76C1483.25,693.76 1485.9,743.877 1509.05,739.94C1532.2,736.002 1530.03,688.176 1530.03,688.176" style="fill:none;stroke:#ff0078;stroke-width:4px;"/>
                </g>
                <g transform="matrix(1,0,0,1.77778,-1000,0)">
                    <path d="M1494.09,391.361C1504.05,386.807 1508.12,380.043 1506.56,371.167C1494.17,367.516 1482.85,368.414 1472.26,372.426C1476.77,380.768 1483.3,387.624 1494.09,391.361Z" style="fill:none;stroke:#ff0078;stroke-width:4px;"/>
                </g>
            </g>
        </g>
    </g>
</svg>
