<?xml version="1.0" encoding="UTF-8" standalone="no"?><!DOCTYPE svg PUBLIC "-//W3C//DTD SVG 1.1//EN" "http://www.w3.org/Graphics/SVG/1.1/DTD/svg11.dtd"><svg width="100%" height="100%" viewBox="0 0 260 140" version="1.1" xmlns="http://www.w3.org/2000/svg" xmlns:xlink="http://www.w3.org/1999/xlink" xml:space="preserve" xmlns:serif="http://www.serif.com/" style="fill-rule:evenodd;clip-rule:evenodd;stroke-linecap:round;stroke-linejoin:round;stroke-miterlimit:1.5;"><rect id="browser-love" x="0" y="0" width="260" height="140" style="fill:none;"/><g id="browser"><path d="M44.263,28.272c13.642,-2.984 59.312,-3.492 88.042,-7.949c5.024,-0.78 10.086,-1.287 15.111,-2.06c6.055,-0.932 13.494,-2.397 19.256,0.598c3.997,2.078 6.424,6.37 8.317,10.287c4.154,8.597 17.077,47.199 20.312,57.444c1.382,4.377 5.514,15.057 3.918,19.637c-1.843,5.291 -8.249,5.643 -13.46,6.485c-4.208,0.679 -61.818,10.95 -86.746,13.967c-7.644,0.925 -15.238,1.722 -22.877,2.778c-17.198,2.376 -31.003,7.252 -34.287,-15.13c-1.638,-11.163 -11.248,-52.551 -13.208,-60.519c-1.006,-4.094 -2.306,-8.712 -1.332,-12.928c1.406,-6.088 3.312,-9.626 16.954,-12.61Z" style="fill:#bad7e6;"/><path d="M34.697,39.944c0.868,-2.659 5.037,-4.769 8.708,-2.734c3.757,2.081 3.8,4.879 2.337,7.514c-1.819,3.276 -6.43,3.992 -9.068,2.073c-2.639,-1.919 -2.846,-4.194 -1.977,-6.853Z" style="fill:#ecf4f8;"/><path d="M37.695,43.319c2.084,-0.937 4.145,-1.653 6.379,-2.153" style="fill:none;stroke:#82b7d1;stroke-width:2px;"/><path d="M38.329,40.283c0,0 -1.569,2.218 -1.101,3.153c0.468,0.935 2.847,1.636 2.847,1.636" style="fill:none;stroke:#82b7d1;stroke-width:2px;"/><path d="M50.623,37.827c0.314,3.013 0.43,6.007 2.796,7.043c3.831,1.679 11.044,0.116 15.744,-0.698c10.581,-1.831 21.124,-3.069 31.816,-4.186c12.406,-1.296 24.898,-2.498 37.294,-3.992c6.173,-0.744 12.253,-2.066 18.403,-2.966c2.317,-0.34 5.681,-0.406 6.907,-2.781c0.427,-0.826 0.582,-1.865 0.72,-2.772c1.46,-9.625 -13.107,-5.222 -18.397,-4.456c-13.461,1.947 -27.274,4.037 -40.79,5.558c-10.067,1.132 -19.873,1.707 -29.9,2.944c-5.807,0.717 -11.592,1.564 -17.387,2.337c-2.291,0.306 -7.649,-0.281 -7.206,3.969Z" style="fill:#ecf4f8;"/><path d="M35.292,58.501c0.68,5.045 1.963,9.201 3.532,15.726c2.692,11.201 4.258,22.053 6.929,33.263c1.355,5.689 2.227,16.167 8.452,18.529c3.02,1.145 6.423,0.039 9.49,-0.289c7.482,-0.803 14.546,-1.965 21.876,-3.789c9.854,-2.453 66.193,-9.517 76.834,-11.5c3.656,-0.682 10.716,-1.847 14.371,-2.562c8.285,-1.622 16.697,-1.368 16.727,-7.637c0.007,-1.529 -2.162,-9.659 -2.433,-11.155c-0.826,-4.55 -1.674,-7.845 -3.381,-12.078c-3.607,-8.939 -5.416,-16.828 -8.467,-25.974c-1.491,-4.47 -3.834,-12.843 -8.44,-15.078c-2.091,-1.014 -6.232,-0.22 -8.372,0.199c-5.188,1.014 -11.61,0.836 -16.834,1.908c-10.634,2.18 -19.765,3.583 -30.528,4.764c-7.464,0.819 -60.3,8.742 -67.177,9.135c-4.885,0.28 -13.259,1.492 -12.579,6.538Z" style="fill:#ecf4f8;"/><path d="M91.273,99.431c1.11,-2.383 6.629,-4.126 8.516,-1.318c1.888,2.807 2.077,5.183 0.377,6.911c-1.699,1.728 -5.286,2.808 -7.363,1.296c-2.076,-1.512 -2.64,-4.505 -1.53,-6.889Z" style="fill:#445;"/><path d="M141.959,91.052c2.234,-2.272 6.449,-2.097 7.691,0c1.241,2.096 1.746,4.465 -0.039,6.563c-1.917,2.252 -5.632,2.097 -7.379,0.35c-1.748,-1.748 -2.488,-4.661 -0.273,-6.913Z" style="fill:#445;"/><path d="M116.393,103.762c1.62,2.357 6.628,4.168 7.325,4.269c1.515,0.22 4.547,-5.19 4.654,-6.426" style="fill:none;stroke:#445;stroke-width:2px;"/></g><path d="M200.852,21.088c5.239,-4.217 11.604,-1.804 13.758,2.114c2.155,3.918 0.099,9.342 -5.14,13.558c-3.769,3.223 -11.04,5.119 -16.842,6.021c-3.745,-4.521 -7.932,-10.76 -8.618,-15.672c-1.126,-6.63 0.93,-12.053 5.14,-13.559c4.211,-1.505 10.576,0.908 11.702,7.538Z" style="fill:#ffe5f2;"/><path d="M248.035,34.222c2.037,0.06 3.028,1.868 2.753,3.195c-0.274,1.326 -1.815,2.171 -3.852,2.111c-1.502,0.001 -3.55,-0.993 -5.064,-1.927c0.027,-1.778 0.29,-4.039 1.099,-5.306c1.045,-1.749 2.586,-2.593 3.852,-2.112c1.266,0.482 2.257,2.29 1.212,4.039Z" style="fill:#ffe5f2;"/><path d="M12.033,36.507c-0.713,-2.257 0.889,-4.022 2.448,-4.217c1.558,-0.196 3.072,1.179 3.784,3.435c0.575,1.649 0.269,4.268 -0.176,6.279c-1.959,0.636 -4.536,1.194 -6.232,0.781c-2.315,-0.492 -3.829,-1.866 -3.785,-3.436c0.044,-1.569 1.646,-3.334 3.961,-2.842Z" style="fill:#ffe5f2;"/><path d="M220.633,39.339c5.735,-6.185 14.073,-4.346 17.458,0.126c3.386,4.472 1.819,11.576 -3.917,17.761c-4.094,4.684 -12.773,8.357 -19.81,10.53c-5.47,-4.932 -11.798,-11.915 -13.541,-17.887c-2.602,-8.024 -1.035,-15.128 3.918,-17.761c4.952,-2.632 13.29,-0.793 15.892,7.231Z" style="fill:#ff0078;"/><path d="M238.195,19.891c2.469,-1.881 5.375,-0.69 6.321,1.144c0.946,1.834 -0.069,4.311 -2.537,6.192c-1.779,1.441 -5.156,2.226 -7.843,2.571c-1.673,-2.131 -3.528,-5.061 -3.784,-7.336c-0.439,-3.072 0.576,-5.549 2.537,-6.191c1.961,-0.643 4.868,0.548 5.306,3.62Z" style="fill:#ff0078;"/><path d="M235.222,75.518c3.727,-1.607 7.013,0.82 7.615,3.443c0.601,2.624 -1.482,5.444 -5.208,7.051c-2.712,1.266 -7.232,1.197 -10.738,0.787c-1.423,-3.23 -2.819,-7.53 -2.407,-10.495c0.44,-4.034 2.523,-6.854 5.207,-7.051c2.685,-0.196 5.971,2.231 5.531,6.265Z" style="fill:#ff0078;"/><path d="M15.759,12.976c0.097,-3.811 3.473,-5.68 5.958,-5.176c2.484,0.504 4.076,3.381 3.98,7.193c0.013,2.812 -1.832,6.651 -3.569,9.491c-3.328,-0.037 -7.561,-0.513 -9.937,-2.016c-3.281,-1.943 -4.873,-4.82 -3.981,-7.193c0.892,-2.373 4.269,-4.242 7.549,-2.299Z" style="fill:#ff0078;"/></svg>