<?xml version="1.0" encoding="UTF-8" standalone="no"?><!DOCTYPE svg PUBLIC "-//W3C//DTD SVG 1.1//EN" "http://www.w3.org/Graphics/SVG/1.1/DTD/svg11.dtd"><svg width="100%" height="100%" viewBox="0 0 525 200" version="1.1" xmlns="http://www.w3.org/2000/svg" xmlns:xlink="http://www.w3.org/1999/xlink" xml:space="preserve" xmlns:serif="http://www.serif.com/" style="fill-rule:evenodd;clip-rule:evenodd;stroke-linecap:round;stroke-linejoin:round;stroke-miterlimit:1.5;"><rect id="computer-ask-server" x="0.414" y="0" width="524.159" height="200" style="fill:none;"/><g id="server"><path d="M338.199,153.997c-1.777,-6.212 3.692,-55.444 8.675,-78.698c2.06,-9.613 2.868,-21.385 11.788,-27.509c9.07,-6.226 23.946,-3.762 34.75,-3.789c16.611,-0.04 61.407,5.341 74.796,7.112c7.103,0.939 25.624,2.361 29.833,8.461c9.158,13.274 0.749,88.216 0.035,92.984c-0.715,4.768 -10.695,5.396 -17.03,6.757c-8.228,1.768 -90.544,12.993 -107.378,9.211c-10.081,-2.265 -33.692,-8.318 -35.469,-14.529Z" style="fill:#82b7d1;"/><clipPath id="_clip1"><path d="M338.199,153.997c-1.777,-6.212 3.692,-55.444 8.675,-78.698c2.06,-9.613 2.868,-21.385 11.788,-27.509c9.07,-6.226 23.946,-3.762 34.75,-3.789c16.611,-0.04 61.407,5.341 74.796,7.112c7.103,0.939 25.624,2.361 29.833,8.461c9.158,13.274 0.749,88.216 0.035,92.984c-0.715,4.768 -10.695,5.396 -17.03,6.757c-8.228,1.768 -90.544,12.993 -107.378,9.211c-10.081,-2.265 -33.692,-8.318 -35.469,-14.529Z"/></clipPath><g clip-path="url(#_clip1)"><path d="M339.979,82.21c0,0 7.35,-21.915 12.75,-27.672c3.118,-3.324 23.573,-2.496 31.666,-0.125c4.287,1.255 6.177,2.869 6.319,7.911c0.239,8.458 -0.942,33.607 -2.219,46.854c-1.276,13.246 -5.836,47.52 -9.143,56.288c-2.401,6.366 -17.098,2.137 -17.098,2.137l-32.657,-12.464c0,0 5.451,-58.166 10.382,-72.929Z" style="fill:#bad7e6;"/></g><path d="M342.393,145.847c0.073,-0.872 0.546,-1.628 1.454,-2.342c1.8,-1.416 5.402,-0.916 6.302,0.583c0.403,0.672 0.698,1.645 0.747,2.605" style="fill:none;stroke:#445;stroke-width:2px;"/><path d="M363.343,150.879c0.146,-0.959 0.568,-1.84 1.205,-2.365c1.393,-1.146 5.488,-1.311 6.553,0.901c0.466,0.968 0.728,1.967 0.732,2.86" style="fill:none;stroke:#445;stroke-width:2px;"/><path d="M352.815,152.463c0,0 -0.064,2.707 2.588,2.965c3.02,0.293 3.51,-2.116 3.51,-2.116" style="fill:none;stroke:#445;stroke-width:2px;"/><path d="M377.547,61.892c0,0 -0.672,2.405 -0.079,3.248c0.631,0.898 2.137,0.983 3.117,1.111c2.199,0.289 5.306,1.237 6.099,-1.567c0.116,-0.409 0.193,-0.85 0.199,-1.276c0.041,-2.934 -2.529,-2.905 -4.818,-3.111c-1.835,-0.164 -3.802,-0.591 -4.518,1.595Z" style="fill:#ff0078;"/><path d="M376.457,72.995c0.129,-0.638 0.145,-1.514 0.642,-2c1.373,-1.341 4.603,-0.956 6.284,-0.521c0.59,0.153 1.323,0.278 1.77,0.719c0.939,0.926 0.861,2.966 0.706,4.174c-0.138,1.079 -1.656,1.395 -2.564,1.371c-1.422,-0.037 -2.802,-0.356 -4.205,-0.546c-1.43,-0.195 -2.415,-0.16 -2.684,-1.888l0.051,-1.309Z" style="fill:#ff0078;"/><path d="M375.427,83.776c0,0 0.404,-2.151 1.199,-2.785c0.867,-0.692 2.415,-0.537 3.443,-0.464c2.549,0.18 5.43,0.387 5.124,3.618c-0.055,0.581 -0.132,1.276 -0.345,1.821c-0.797,2.042 -3.659,1.192 -5.252,0.949c-2.104,-0.321 -4.567,-0.35 -4.169,-3.139Z" style="fill:#ff0078;"/></g><g id="browser"><path d="M41.229,65.855c13.642,-2.984 59.312,-3.492 88.042,-7.949c5.024,-0.779 10.086,-1.286 15.111,-2.059c6.055,-0.932 13.494,-2.397 19.255,0.598c3.998,2.078 6.425,6.37 8.317,10.286c4.155,8.598 17.077,47.2 20.313,57.445c1.382,4.376 5.514,15.056 3.918,19.637c-1.844,5.29 -8.249,5.642 -13.46,6.484c-4.209,0.68 -61.818,10.951 -86.746,13.967c-7.644,0.926 -15.238,1.722 -22.877,2.778c-17.198,2.377 -31.003,7.253 -34.287,-15.13c-1.638,-11.163 -11.249,-52.551 -13.208,-60.519c-1.006,-4.093 -2.306,-8.712 -1.332,-12.927c1.405,-6.088 3.312,-9.627 16.954,-12.611Z" style="fill:#bad7e6;"/><path d="M31.662,77.527c0.868,-2.659 5.038,-4.768 8.709,-2.734c3.756,2.082 3.799,4.88 2.337,7.515c-1.819,3.275 -6.43,3.992 -9.068,2.073c-2.639,-1.919 -2.846,-4.195 -1.978,-6.854Z" style="fill:#ecf4f8;"/><path d="M34.661,80.903c2.084,-0.937 4.144,-1.653 6.379,-2.153" style="fill:none;stroke:#82b7d1;stroke-width:2px;"/><path d="M35.295,77.867c0,0 -1.569,2.218 -1.101,3.153c0.467,0.935 2.846,1.636 2.846,1.636" style="fill:none;stroke:#82b7d1;stroke-width:2px;"/><path d="M47.589,75.411c0.314,3.012 0.429,6.006 2.796,7.043c3.831,1.678 11.044,0.115 15.743,-0.698c10.581,-1.831 21.125,-3.07 31.817,-4.187c12.405,-1.296 24.898,-2.498 37.294,-3.991c6.173,-0.744 12.253,-2.067 18.402,-2.967c2.317,-0.339 5.682,-0.406 6.908,-2.78c0.427,-0.826 0.582,-1.865 0.719,-2.772c1.461,-9.625 -13.106,-5.222 -18.397,-4.457c-13.46,1.947 -27.274,4.038 -40.789,5.558c-10.067,1.133 -19.873,1.707 -29.901,2.945c-5.807,0.716 -11.592,1.563 -17.386,2.337c-2.291,0.305 -7.65,-0.282 -7.206,3.969Z" style="fill:#ecf4f8;"/><path d="M32.258,96.084c0.679,5.046 1.963,9.202 3.531,15.727c2.693,11.201 4.259,22.053 6.93,33.263c1.355,5.688 2.227,16.167 8.452,18.528c3.02,1.146 6.423,0.04 9.489,-0.289c7.483,-0.802 14.547,-1.965 21.876,-3.789c9.855,-2.453 66.193,-9.517 76.834,-11.5c3.657,-0.681 10.716,-1.846 14.372,-2.562c8.285,-1.621 16.697,-1.368 16.726,-7.636c0.008,-1.53 -2.161,-9.66 -2.433,-11.155c-0.825,-4.551 -1.673,-7.845 -3.381,-12.078c-3.606,-8.94 -5.415,-16.828 -8.466,-25.975c-1.491,-4.469 -3.834,-12.842 -8.441,-15.077c-2.09,-1.015 -6.231,-0.22 -8.371,0.198c-5.188,1.015 -11.61,0.837 -16.835,1.908c-10.633,2.181 -19.764,3.583 -30.527,4.764c-7.464,0.819 -60.301,8.742 -67.178,9.136c-4.884,0.279 -13.258,1.492 -12.578,6.537Z" style="fill:#ecf4f8;"/><path d="M91.738,137.627c1.11,-2.384 6.629,-4.127 8.517,-1.319c1.887,2.808 2.076,5.184 0.377,6.911c-1.7,1.728 -5.287,2.808 -7.364,1.296c-2.076,-1.512 -2.639,-4.505 -1.53,-6.888Z" style="fill:#445;"/><path d="M142.424,129.247c2.234,-2.272 6.449,-2.097 7.691,0c1.242,2.096 1.746,4.465 -0.039,6.563c-1.917,2.252 -5.631,2.097 -7.379,0.35c-1.748,-1.748 -2.488,-4.661 -0.273,-6.913Z" style="fill:#445;"/><path d="M122.189,135.055c-2.688,1.152 -6.816,6.958 -2.458,9.312c0.622,0.335 1.297,0.529 1.994,0.63c1.516,0.22 4.068,0.054 5.257,-1.115c2.477,-2.435 1.91,-6.04 0.543,-7.497c-1.368,-1.457 -2.648,-2.482 -5.336,-1.33Z" style="fill:none;stroke:#445;stroke-width:2px;"/></g><path d="M51.328,74.326c0.51,2.241 1.277,4.4 1.847,6.621" style="fill:none;stroke:#445;stroke-width:2px;"/><path d="M55.014,73.343c0.661,2.309 1.233,4.649 1.884,6.961" style="fill:none;stroke:#445;stroke-width:2px;"/><path d="M52.884,78.029c0.699,-0.182 1.393,-0.369 2.098,-0.526" style="fill:none;stroke:#445;stroke-width:2px;"/><path d="M57.553,73.425c1.752,-0.25 3.526,-0.263 5.274,-0.546" style="fill:none;stroke:#445;stroke-width:2px;"/><path d="M60.175,73.179c0.721,2.117 1.476,4.26 1.98,6.445" style="fill:none;stroke:#445;stroke-width:2px;"/><path d="M65.336,73.015c1.701,-0.215 3.395,-0.424 5.057,-0.977" style="fill:none;stroke:#445;stroke-width:2px;"/><path d="M67.957,73.015c0.402,1.866 0.66,3.762 1.088,5.623" style="fill:none;stroke:#445;stroke-width:2px;"/><path d="M74.02,78.176c-0.303,-1.33 -0.55,-2.671 -0.884,-3.994c-0.101,-0.402 -0.444,-1.193 -0.304,-1.588c0.199,-0.562 0.96,-0.79 1.458,-0.975c0.991,-0.368 2.215,-0.548 3.168,0.038c0.722,0.445 1.285,1.672 0.557,2.364c-0.423,0.403 -1.015,0.554 -1.574,0.653c-0.704,0.125 -1.406,0.137 -2.111,0.211" style="fill:none;stroke:#445;stroke-width:2px;"/><path d="M80.901,74.244c0.522,-0.182 1.063,-0.308 1.582,-0.493" style="fill:none;stroke:#445;stroke-width:2px;"/><path d="M81.065,77.275c0.366,-0.07 0.729,-0.153 1.097,-0.214" style="fill:none;stroke:#445;stroke-width:2px;"/><path d="M87.537,69.329c-0.552,2.206 -1.191,4.411 -1.913,6.568" style="fill:none;stroke:#445;stroke-width:2px;"/><path d="M90.65,69.165c-0.735,2.206 -1.596,4.39 -2.234,6.627" style="fill:none;stroke:#445;stroke-width:2px;"/><path d="M94.746,68.898c-1.003,1.395 -1.398,3.862 -1.011,5.394c0.486,1.922 2.736,-0.036 3.572,-1.487c0.022,-0.038 1.793,2.203 2.313,2.029c2.7,-0.907 1.468,-4.716 0.021,-6.264" style="fill:none;stroke:#445;stroke-width:2px;"/><path d="M108.017,67.526c-0.877,0.049 -1.804,0.304 -2.578,0.801c-1.566,1.005 -2.881,4.376 -0.784,5.667c1.171,0.721 2.971,-0.085 4.026,-0.83" style="fill:none;stroke:#445;stroke-width:2px;"/><path d="M103.839,71.841c0.781,-0.174 1.552,-0.408 2.333,-0.583" style="fill:none;stroke:#445;stroke-width:2px;"/><path d="M111.212,66.789c0,2.193 0.094,4.389 0.318,6.571" style="fill:none;stroke:#445;stroke-width:2px;"/><path d="M110.967,66.707c0.846,-0.115 2.176,-0.507 2.989,-0.058c1.741,0.962 -0.481,2.695 -1.557,2.913" style="fill:none;stroke:#445;stroke-width:2px;"/><path d="M111.949,69.82c1.373,-0.261 3.156,-0.766 4.466,0.021c0.831,0.499 0.782,1.774 0.139,2.409c-0.972,0.959 -3.675,0.996 -4.973,1.148" style="fill:none;stroke:#445;stroke-width:2px;"/><path d="M123.172,65.56c-0.984,-0.281 -2.303,-0.199 -3.178,0.387c-0.811,0.543 -1.155,1.43 -0.299,2.147c1.41,1.182 3.677,0.116 4.841,1.737c0.719,1.001 -0.173,2 -1.037,2.476c-1.213,0.669 -2.559,0.204 -3.739,-0.28" style="fill:none;stroke:#445;stroke-width:2px;"/><path d="M127.105,65.314c0.185,1.941 0.562,3.857 0.917,5.772" style="fill:none;stroke:#445;stroke-width:2px;"/><path d="M129.645,64.905c1.82,-0.429 3.612,-0.974 5.441,-1.34" style="fill:none;stroke:#445;stroke-width:2px;"/><path d="M132.367,64.496c0,2.051 -0.248,4.253 0.496,6.278" style="fill:none;stroke:#445;stroke-width:2px;"/><path d="M140.784,63.266c-1.183,0.376 -2.326,1.048 -3.042,2.091c-0.98,1.427 -1.022,3.789 0.993,4.301c0.977,0.248 2.214,-0.206 3.11,-0.61" style="fill:none;stroke:#445;stroke-width:2px;"/><path d="M137.262,67.116c1.327,-0.241 2.625,-0.642 3.922,-1.009" style="fill:none;stroke:#445;stroke-width:2px;"/><path d="M204.449,115.417c13.261,-12.012 29.725,-22.311 47.03,-25.657c26.435,-5.113 52.808,7.366 70.408,28.207" style="fill:none;stroke:#ff0078;stroke-width:6.5px;"/><path d="M321.909,104.127c0.991,3.392 2.023,6.998 2.36,10.538c0.103,1.089 0.359,2.609 -0.264,3.608c-1.473,2.364 -4.902,3.287 -7.344,4.087c-1.948,0.638 -3.932,1.094 -5.905,1.639" style="fill:none;stroke:#ff0078;stroke-width:6.5px;"/><path d="M243.576,41.349c-2.837,-8.868 3.715,-17.094 11.352,-20.895c5.894,-2.933 12.872,-3.064 15.492,3.957c6.513,17.456 -19.922,24.115 -16.219,41.552" style="fill:none;stroke:#82b7d1;stroke-width:6.5px;"/><path d="M255.512,75.367l0.34,2.187" style="fill:none;stroke:#82b7d1;stroke-width:6.5px;"/></svg>