<?xml version="1.0" encoding="UTF-8" standalone="no"?><!DOCTYPE svg PUBLIC "-//W3C//DTD SVG 1.1//EN" "http://www.w3.org/Graphics/SVG/1.1/DTD/svg11.dtd"><svg width="100%" height="100%" viewBox="0 0 525 200" version="1.1" xmlns="http://www.w3.org/2000/svg" xmlns:xlink="http://www.w3.org/1999/xlink" xml:space="preserve" xmlns:serif="http://www.serif.com/" style="fill-rule:evenodd;clip-rule:evenodd;stroke-linecap:round;stroke-linejoin:round;stroke-miterlimit:1.5;"><rect id="server-give-html" x="0" y="0" width="525" height="200" style="fill:none;"/><g id="browser"><path d="M40.798,65.899c13.642,-2.984 59.312,-3.492 88.042,-7.949c5.024,-0.779 10.086,-1.286 15.111,-2.059c6.056,-0.932 13.494,-2.397 19.256,0.598c3.997,2.078 6.424,6.37 8.317,10.286c4.154,8.598 17.077,47.2 20.312,57.445c1.383,4.376 5.514,15.056 3.918,19.637c-1.843,5.29 -8.249,5.642 -13.459,6.484c-4.209,0.68 -61.819,10.95 -86.747,13.967c-7.644,0.926 -15.238,1.722 -22.877,2.778c-17.198,2.377 -31.003,7.253 -34.287,-15.13c-1.638,-11.163 -11.248,-52.551 -13.208,-60.519c-1.006,-4.093 -2.305,-8.712 -1.332,-12.928c1.406,-6.088 3.312,-9.626 16.954,-12.61Z" style="fill:#bad7e6;"/><path d="M31.232,77.571c0.868,-2.659 5.037,-4.768 8.708,-2.734c3.757,2.081 3.8,4.88 2.337,7.515c-1.819,3.275 -6.429,3.992 -9.068,2.073c-2.638,-1.919 -2.845,-4.195 -1.977,-6.854Z" style="fill:#ecf4f8;"/><path d="M34.23,80.947c2.084,-0.937 4.145,-1.653 6.379,-2.153" style="fill:none;stroke:#82b7d1;stroke-width:2px;"/><path d="M34.864,77.911c0,0 -1.569,2.218 -1.101,3.153c0.468,0.935 2.847,1.636 2.847,1.636" style="fill:none;stroke:#82b7d1;stroke-width:2px;"/><path d="M47.158,75.455c0.314,3.012 0.43,6.006 2.796,7.043c3.831,1.678 11.044,0.115 15.744,-0.698c10.581,-1.831 21.124,-3.07 31.816,-4.187c12.406,-1.296 24.898,-2.498 37.294,-3.991c6.173,-0.744 12.253,-2.067 18.403,-2.967c2.317,-0.339 5.681,-0.406 6.907,-2.78c0.427,-0.826 0.582,-1.865 0.72,-2.773c1.46,-9.625 -13.107,-5.221 -18.397,-4.456c-13.461,1.947 -27.274,4.038 -40.789,5.558c-10.068,1.133 -19.874,1.707 -29.901,2.944c-5.807,0.717 -11.592,1.564 -17.387,2.338c-2.291,0.305 -7.649,-0.282 -7.206,3.969Z" style="fill:#ecf4f8;"/><path d="M31.827,96.128c0.68,5.046 1.963,9.202 3.532,15.727c2.692,11.201 4.258,22.053 6.929,33.263c1.355,5.688 2.227,16.167 8.452,18.528c3.02,1.146 6.424,0.04 9.49,-0.289c7.482,-0.802 14.546,-1.965 21.876,-3.789c9.855,-2.453 66.193,-9.517 76.834,-11.5c3.656,-0.681 10.716,-1.847 14.372,-2.562c8.285,-1.621 16.696,-1.368 16.726,-7.637c0.007,-1.529 -2.162,-9.659 -2.433,-11.154c-0.826,-4.551 -1.674,-7.845 -3.381,-12.079c-3.607,-8.939 -5.416,-16.827 -8.467,-25.974c-1.491,-4.469 -3.834,-12.842 -8.44,-15.077c-2.091,-1.015 -6.232,-0.22 -8.372,0.198c-5.188,1.015 -11.609,0.837 -16.834,1.908c-10.634,2.181 -19.765,3.583 -30.528,4.764c-7.464,0.819 -60.3,8.742 -67.177,9.136c-4.884,0.279 -13.259,1.492 -12.579,6.537Z" style="fill:#ecf4f8;"/><path d="M91.308,137.67c1.109,-2.383 6.629,-4.126 8.516,-1.318c1.887,2.807 2.076,5.183 0.377,6.911c-1.699,1.728 -5.286,2.808 -7.363,1.296c-2.077,-1.512 -2.64,-4.505 -1.53,-6.889Z" style="fill:#445;"/><path d="M141.994,129.291c2.233,-2.272 6.449,-2.097 7.69,0c1.242,2.096 1.746,4.465 -0.039,6.563c-1.916,2.252 -5.631,2.097 -7.379,0.35c-1.747,-1.748 -2.487,-4.661 -0.272,-6.913Z" style="fill:#445;"/><path d="M117.288,141.677c0,0 5.435,6.018 6.796,5.242c1.36,-0.776 2.524,-6.602 2.524,-6.602" style="fill:none;stroke:#445;stroke-width:2px;"/></g><g id="address"><path d="M50.914,74.36c0.51,2.242 1.277,4.4 1.847,6.621" style="fill:none;stroke:#445;stroke-width:2px;"/><path d="M54.6,73.377c0.661,2.309 1.233,4.649 1.884,6.962" style="fill:none;stroke:#445;stroke-width:2px;"/><path d="M52.47,78.063c0.699,-0.182 1.393,-0.368 2.098,-0.526" style="fill:none;stroke:#445;stroke-width:2px;"/><path d="M57.139,73.459c1.752,-0.25 3.526,-0.263 5.274,-0.546" style="fill:none;stroke:#445;stroke-width:2px;"/><path d="M59.761,73.213c0.721,2.117 1.476,4.26 1.98,6.445" style="fill:none;stroke:#445;stroke-width:2px;"/><path d="M64.922,73.049c1.701,-0.215 3.395,-0.424 5.057,-0.977" style="fill:none;stroke:#445;stroke-width:2px;"/><path d="M67.543,73.049c0.402,1.867 0.66,3.762 1.088,5.623" style="fill:none;stroke:#445;stroke-width:2px;"/><path d="M73.605,78.21c-0.302,-1.33 -0.549,-2.671 -0.883,-3.994c-0.101,-0.401 -0.444,-1.193 -0.304,-1.587c0.199,-0.562 0.96,-0.791 1.457,-0.976c0.992,-0.367 2.216,-0.548 3.169,0.038c0.722,0.445 1.285,1.672 0.557,2.365c-0.423,0.402 -1.016,0.553 -1.574,0.652c-0.704,0.125 -1.406,0.138 -2.111,0.211" style="fill:none;stroke:#445;stroke-width:2px;"/><path d="M80.487,74.278c0.522,-0.182 1.063,-0.308 1.582,-0.492" style="fill:none;stroke:#445;stroke-width:2px;"/><path d="M80.651,77.309c0.366,-0.07 0.729,-0.153 1.097,-0.213" style="fill:none;stroke:#445;stroke-width:2px;"/><path d="M87.123,69.363c-0.552,2.206 -1.191,4.412 -1.913,6.569" style="fill:none;stroke:#445;stroke-width:2px;"/><path d="M90.236,69.199c-0.735,2.206 -1.596,4.39 -2.234,6.628" style="fill:none;stroke:#445;stroke-width:2px;"/><path d="M94.332,68.932c-1.003,1.395 -1.398,3.862 -1.011,5.395c0.486,1.922 2.736,-0.037 3.572,-1.488c0.022,-0.038 1.793,2.204 2.313,2.029c2.699,-0.906 1.468,-4.716 0.021,-6.264" style="fill:none;stroke:#445;stroke-width:2px;"/><path d="M107.603,67.56c-0.877,0.049 -1.804,0.305 -2.578,0.801c-1.566,1.005 -2.881,4.376 -0.784,5.667c1.171,0.721 2.971,-0.085 4.026,-0.829" style="fill:none;stroke:#445;stroke-width:2px;"/><path d="M103.425,71.876c0.781,-0.175 1.552,-0.409 2.333,-0.584" style="fill:none;stroke:#445;stroke-width:2px;"/><path d="M110.798,66.823c0,2.193 0.094,4.389 0.318,6.571" style="fill:none;stroke:#445;stroke-width:2px;"/><path d="M110.553,66.741c0.846,-0.115 2.176,-0.507 2.989,-0.058c1.741,0.962 -0.481,2.695 -1.557,2.913" style="fill:none;stroke:#445;stroke-width:2px;"/><path d="M111.535,69.854c1.373,-0.261 3.156,-0.765 4.466,0.021c0.831,0.499 0.782,1.775 0.139,2.409c-0.972,0.96 -3.676,0.996 -4.973,1.148" style="fill:none;stroke:#445;stroke-width:2px;"/><path d="M122.758,65.594c-0.984,-0.281 -2.303,-0.199 -3.178,0.387c-0.811,0.543 -1.156,1.43 -0.299,2.148c1.41,1.181 3.677,0.115 4.841,1.736c0.719,1.001 -0.173,2 -1.037,2.476c-1.213,0.669 -2.559,0.204 -3.739,-0.28" style="fill:none;stroke:#445;stroke-width:2px;"/><path d="M126.691,65.349c0.185,1.941 0.561,3.856 0.917,5.771" style="fill:none;stroke:#445;stroke-width:2px;"/><path d="M129.231,64.939c1.82,-0.429 3.612,-0.974 5.441,-1.34" style="fill:none;stroke:#445;stroke-width:2px;"/><path d="M131.952,64.53c0,2.051 -0.247,4.254 0.497,6.278" style="fill:none;stroke:#445;stroke-width:2px;"/><path d="M140.37,63.3c-1.183,0.376 -2.326,1.048 -3.042,2.091c-0.98,1.428 -1.022,3.789 0.993,4.301c0.977,0.248 2.214,-0.206 3.11,-0.609" style="fill:none;stroke:#445;stroke-width:2px;"/><path d="M136.848,67.151c1.327,-0.242 2.625,-0.643 3.922,-1.009" style="fill:none;stroke:#445;stroke-width:2px;"/></g><g id="arrow"><path d="M323.995,152.175c-13.261,12.012 -29.725,22.311 -47.03,25.658c-26.435,5.112 -52.808,-7.367 -70.408,-28.208" style="fill:none;stroke:#ff0078;stroke-width:6.5px;"/><path d="M205.147,165.091c-0.737,-3.523 -1.255,-8.494 -0.972,-12.164c0.085,-1.09 -0.359,-2.609 0.264,-3.608c1.473,-2.364 11.276,-1.989 13.249,-2.534" style="fill:none;stroke:#ff0078;stroke-width:6.5px;"/></g><g id="server"><path d="M337.743,153.955c-1.777,-6.212 3.692,-55.444 8.675,-78.698c2.059,-9.613 2.868,-21.385 11.788,-27.509c9.069,-6.226 23.946,-3.762 34.749,-3.789c16.611,-0.04 61.408,5.341 74.796,7.112c7.103,0.939 25.625,2.361 29.833,8.461c9.158,13.274 0.75,88.216 0.035,92.984c-0.714,4.768 -10.694,5.395 -17.03,6.757c-8.227,1.768 -90.543,12.993 -107.378,9.211c-10.081,-2.265 -33.691,-8.318 -35.468,-14.529Z" style="fill:#82b7d1;"/><clipPath id="_clip1"><path d="M337.743,153.955c-1.777,-6.212 3.692,-55.444 8.675,-78.698c2.059,-9.613 2.868,-21.385 11.788,-27.509c9.069,-6.226 23.946,-3.762 34.749,-3.789c16.611,-0.04 61.408,5.341 74.796,7.112c7.103,0.939 25.625,2.361 29.833,8.461c9.158,13.274 0.75,88.216 0.035,92.984c-0.714,4.768 -10.694,5.395 -17.03,6.757c-8.227,1.768 -90.543,12.993 -107.378,9.211c-10.081,-2.265 -33.691,-8.318 -35.468,-14.529Z"/></clipPath><g clip-path="url(#_clip1)"><path d="M339.523,82.168c0,0 7.35,-21.915 12.749,-27.672c3.119,-3.324 23.573,-2.496 31.667,-0.125c4.287,1.255 6.177,2.869 6.319,7.911c0.238,8.458 -0.943,33.607 -2.219,46.854c-1.277,13.246 -5.836,47.52 -9.143,56.288c-2.401,6.366 -17.098,2.137 -17.098,2.137l-32.657,-12.464c0,0 5.45,-58.166 10.382,-72.929Z" style="fill:#bad7e6;"/></g><path d="M343.39,143.463c1.801,-1.416 5.403,-0.916 6.302,0.583c0.9,1.499 1.261,4.498 -0.45,5.497c-1.711,1 -5.042,1.582 -6.393,-0.75c-1.35,-2.332 -1.259,-3.914 0.541,-5.33Z" style="fill:#445;"/><path d="M364.091,148.472c1.393,-1.146 5.488,-1.311 6.554,0.901c1.065,2.212 1.064,4.587 -0.656,5.489c-1.72,0.901 -3.522,1.393 -5.734,-0.164c-1.998,-1.406 -1.749,-4.921 -0.164,-6.226Z" style="fill:#445;"/><path d="M352.359,152.421c0,0 -0.064,2.707 2.587,2.965c3.02,0.293 3.51,-2.116 3.51,-2.116" style="fill:none;stroke:#445;stroke-width:2px;"/><path d="M377.09,61.85c0,0 -0.671,2.405 -0.079,3.248c0.631,0.897 2.138,0.983 3.117,1.111c2.199,0.289 5.307,1.237 6.1,-1.567c0.116,-0.409 0.193,-0.85 0.199,-1.276c0.041,-2.934 -2.529,-2.905 -4.818,-3.111c-1.835,-0.164 -3.803,-0.591 -4.519,1.595Z" style="fill:#ff0078;"/><path d="M376,72.953c0.13,-0.638 0.145,-1.514 0.643,-2c1.373,-1.341 4.602,-0.956 6.284,-0.521c0.589,0.153 1.322,0.278 1.769,0.719c0.94,0.926 0.861,2.966 0.707,4.174c-0.138,1.078 -1.657,1.395 -2.564,1.371c-1.422,-0.038 -2.802,-0.356 -4.205,-0.546c-1.43,-0.195 -2.415,-0.16 -2.684,-1.888l0.05,-1.309Z" style="fill:#ff0078;"/><path d="M374.971,83.734c0,0 0.403,-2.151 1.198,-2.785c0.868,-0.692 2.416,-0.537 3.444,-0.464c2.549,0.18 5.43,0.387 5.124,3.618c-0.055,0.581 -0.132,1.275 -0.345,1.821c-0.798,2.041 -3.659,1.192 -5.253,0.949c-2.104,-0.321 -4.566,-0.35 -4.168,-3.139Z" style="fill:#ff0078;"/></g><path d="M251.7,60.921c0.4,-0.099 0.823,-0.188 1.273,-0.266c8.749,-1.519 21.1,0.088 29.551,2.061c4.221,0.985 12.609,2.715 16.182,5.519c3.755,2.948 0.745,22.751 0.272,33.347c-0.359,8.032 -0.721,16.232 -1.609,24.23c-0.413,3.717 -0.639,7.854 -4.502,9.605c-5.068,2.296 -10.994,0.724 -16.287,0.46c-3.912,-0.195 -7.906,-0.06 -11.671,-1.284c0,0 -24.192,-67.297 -23.794,-67.641c1.91,-1.656 6.369,-5.349 10.19,-5.986c0.125,-0.021 0.257,-0.036 0.395,-0.045Z" style="fill:#bad7e6;"/><path d="M246.72,66.188c0.114,0 8.103,-2.694 9.67,-3.222c0.176,-0.059 0.361,-0.083 0.546,-0.071c1.683,0.109 10.603,0.727 18.231,1.943c6.132,0.978 12.986,3.053 16.295,4.122c1.189,0.391 1.985,1.511 1.962,2.763c-0.099,5.617 -0.394,21.191 -0.682,30.314c-0.302,9.531 -3.035,24.654 -3.874,29.109c-0.153,0.801 -0.676,1.482 -1.411,1.835c-2.477,1.192 -8.035,3.866 -8.035,3.866c0,0 -32.829,-70.659 -32.702,-70.659Z" style="fill:#ecf4f8;"/><path d="M249.236,65.333l7.041,-2.373c0,0 2.465,1.546 0.538,2.939c-2.383,1.723 -7.579,-0.566 -7.579,-0.566Z" style="fill:#82b7d1;"/><path d="M240.243,70.893c-1.108,13.853 -2.866,27.698 -3.36,41.593c-0.173,4.851 -1.437,12.073 1.332,16.426c3.391,5.329 11.602,6.829 17.268,8.027c10.176,2.153 24.449,6.114 27.405,-2.128c0.759,-2.116 1.339,-8.065 1.699,-10.28c1.922,-11.8 3.699,-48.043 1.254,-51.945c-2.107,-3.361 -7.894,-3.57 -11.565,-4.391c-7.014,-1.568 -14.581,-2.271 -21.746,-2.781c-5.925,-0.421 -11.593,-1.751 -12.23,3.659l-0.057,1.82Z" style="fill:#bad7e6;"/><path d="M245.532,120.089c-0.687,0.603 -1.446,1.375 -1.485,2.731c-0.075,2.553 2.878,4.119 5.051,2.95c1.96,-1.054 2.883,-4.354 0.688,-5.721c-1.23,-0.766 -3.356,-0.748 -4.254,0.04Z" style="fill:#445;"/><path d="M267.653,122.332c-1.235,0.823 -2.412,1.93 -2.131,3.588c0.399,2.359 3.703,4.623 5.849,2.934c2.045,-1.61 1.66,-5.482 -0.697,-6.637c-1.626,-0.797 -3.021,0.115 -3.021,0.115Z" style="fill:#445;"/><path d="M253.076,128.962c1.921,2.689 5.026,4.283 7.593,1.362" style="fill:none;stroke:#445;stroke-width:2px;"/><path d="M246.204,74.978c-0.319,2.258 -0.777,6.881 -1.2,10.327c-0.112,0.913 -0.628,3.027 0.17,3.731c0.658,0.582 1.658,0.742 2.497,0.862c1.719,0.245 3.468,0.306 5.193,0.531c5.522,0.721 11.058,1.386 16.598,1.941c1.743,0.175 4.879,0.871 6.584,0.446c1.433,-0.358 1.241,-1.779 1.531,-3.03c0.655,-2.837 0.646,-10.33 0.469,-11.338c-0.266,-1.522 -1.64,-1.482 -3.029,-1.673c-1.362,-0.187 -22.503,-2.664 -23.996,-2.923c-2.532,-0.44 -4.497,-1.131 -4.817,1.126Z" style="fill:#ecf4f8;"/><path d="M248.971,78.64c-0.143,2.227 -0.353,4.605 -0.544,6.83" style="fill:none;stroke:#82b7d1;stroke-width:1.5px;"/><path d="M252.49,78.758c-0.378,2.517 -0.716,4.504 -0.925,7.042" style="fill:none;stroke:#82b7d1;stroke-width:1.5px;"/><path d="M249.175,82.207c0.793,0 1.577,0.15 2.367,0.197" style="fill:none;stroke:#82b7d1;stroke-width:1.5px;"/><path d="M254.744,79.401c1.981,0 3.338,0.138 5.262,0.685" style="fill:none;stroke:#82b7d1;stroke-width:1.5px;"/><path d="M257.133,79.869c0,1.996 -0.288,4.721 -0.476,6.709" style="fill:none;stroke:#82b7d1;stroke-width:1.5px;"/><path d="M261.61,87.41c0.177,-1.596 0.215,-3.168 0.565,-4.742c0.04,-0.184 0.394,-2.094 0.602,-1.999c0.823,0.379 1.152,2.046 1.382,2.86c0.045,0.156 0.169,1.129 0.276,1.181c0.009,0.004 0.338,-1.039 0.371,-1.153c0.242,-0.827 0.704,-1.459 1.186,-2.182c0.058,-0.088 0.432,-0.672 0.543,-0.653c0.616,0.109 0.809,0.984 0.933,1.469c0.434,1.704 0.075,4.179 -0.101,5.917" style="fill:none;stroke:#82b7d1;stroke-width:1.5px;"/><path d="M271.188,81.025c-0.573,2.085 -0.833,5.422 -0.675,7.487c0.011,0.151 0.969,0.121 1.095,0.123c1.13,0.026 2.237,-0.326 3.362,-0.341" style="fill:none;stroke:#82b7d1;stroke-width:1.5px;"/></svg>