<?xml version="1.0" standalone="no"?>
<!DOCTYPE svg PUBLIC "-//W3C//DTD SVG 1.1//EN" "http://www.w3.org/Graphics/SVG/1.1/DTD/svg11.dtd">
<svg width="100%" height="100%" viewBox="0 0 236 77" version="1.1" xmlns="http://www.w3.org/2000/svg" xmlns:xlink="http://www.w3.org/1999/xlink" xml:space="preserve" style="fill-rule:evenodd;clip-rule:evenodd;stroke-linecap:round;stroke-linejoin:round;stroke-miterlimit:1.41421;">
    <g transform="matrix(1,0,0,1,-553.868,-114.012)">
        <g id="point-basic" transform="matrix(0.196621,4.13143e-13,7.64779e-14,0.0127088,553.868,114.012)">
            <g transform="matrix(5.08592,-1.65336e-10,-3.06057e-11,78.6858,-2835.62,-9559.82)">
                <path d="M592.367,151.881L626.897,130.755L641.925,181.262L590.024,182.174L592.367,151.881Z" style="fill:none;stroke-width:2px;stroke:rgb(67,250,255);"/>
            </g>
            <g transform="matrix(5.08592,-1.65336e-10,-3.06057e-11,78.6858,-2327.74,-9141.68)">
                <path d="M592.367,151.881C604.779,124.805 625.919,179.477 626.897,130.755C659.998,140.964 642.027,181.342 641.925,181.262C615.963,161.008 590.024,182.174 590.024,182.174C590.024,182.174 586.256,165.21 592.367,151.881Z" style="fill:none;stroke-width:2px;stroke:rgb(67,250,255);"/>
            </g>
            <g transform="matrix(5.08592,-1.65336e-10,-3.06057e-11,78.6858,-79.0378,23.6338)">
                <rect x="46.896" y="26.651" width="6.511" height="6.511" style="fill:white;stroke-width:0.5px;stroke-linejoin:miter;stroke:rgb(187,30,98);"/>
            </g>
            <g transform="matrix(5.08592,-1.65336e-10,-3.06057e-11,78.6858,429.676,448.221)">
                <rect x="46.896" y="26.651" width="6.511" height="6.511" style="fill:white;stroke-width:0.5px;stroke-linejoin:miter;stroke:rgb(187,30,98);"/>
            </g>
            <g transform="matrix(5.08592,-1.65336e-10,-3.06057e-11,78.6858,93.9818,-1624.5)">
                <rect x="46.896" y="26.651" width="6.511" height="6.511" style="fill:white;stroke-width:0.5px;stroke-linejoin:miter;stroke:rgb(4,51,255);"/>
            </g>
            <g transform="matrix(5.08592,-1.65336e-10,-3.06057e-11,78.6858,605.486,-1198.65)">
                <rect x="46.896" y="26.651" width="6.511" height="6.511" style="fill:white;stroke-width:0.5px;stroke-linejoin:miter;stroke:rgb(4,51,255);"/>
            </g>
            <g transform="matrix(5.08592,-1.65336e-10,-3.06057e-11,78.6858,173.191,2346.79)">
                <rect x="46.896" y="26.651" width="6.511" height="6.511" style="fill:white;stroke-width:0.5px;stroke-linejoin:miter;stroke:rgb(4,51,255);"/>
            </g>
            <g transform="matrix(5.08592,-1.65336e-10,-3.06057e-11,78.6858,681.28,2764.93)">
                <rect x="46.896" y="26.651" width="6.511" height="6.511" style="fill:white;stroke-width:0.5px;stroke-linejoin:miter;stroke:rgb(4,51,255);"/>
            </g>
            <g transform="matrix(5.08592,-1.65336e-10,-3.06057e-11,78.6858,-89.0519,2435.16)">
                <rect x="46.896" y="26.651" width="6.511" height="6.511" style="fill:white;stroke-width:0.5px;stroke-linejoin:miter;stroke:rgb(4,51,255);"/>
            </g>
            <g transform="matrix(5.08592,-1.65336e-10,-3.06057e-11,78.6858,418.17,2840.27)">
                <rect x="46.896" y="26.651" width="6.511" height="6.511" style="fill:white;stroke-width:0.5px;stroke-linejoin:miter;stroke:rgb(4,51,255);"/>
            </g>
            <g transform="matrix(5.08592,-1.65336e-10,-3.06057e-11,78.6858,-2722.68,-9141.68)">
                <path d="M719.593,181.266L693.033,160.754" style="fill:none;stroke-width:0.5px;stroke:rgb(2,95,210);"/>
            </g>
            <g transform="matrix(5.08592,-1.65336e-10,-3.06057e-11,78.6858,-2721.06,-9132.82)">
                <path d="M664.311,163.681L681.475,125.75" style="fill:none;stroke-width:0.5px;stroke:rgb(2,95,210);"/>
            </g>
            <g transform="matrix(5.08592,-1.65336e-10,-3.06057e-11,78.6858,-2722.68,-9141.68)">
                <path d="M703.699,179.487L704.556,130.81L737.824,141.295" style="fill:none;stroke-width:0.5px;stroke:rgb(2,95,210);"/>
            </g>
            <g transform="matrix(4.07014,-1.32314e-10,-2.3884e-11,61.4045,-2028.77,-6982.48)">
                <rect x="680.215" y="124.987" width="2.396" height="2.396" style="fill:rgb(2,95,210);"/>
            </g>
            <g transform="matrix(4.07014,-1.32314e-10,-2.3884e-11,61.4045,-2115.8,-4004.01)">
                <rect x="680.215" y="124.987" width="2.396" height="2.396" style="fill:rgb(2,95,210);"/>
            </g>
            <g transform="matrix(4.07014,-1.32314e-10,-2.3884e-11,61.4045,-1971.4,-4237.34)">
                <rect x="680.215" y="124.987" width="2.396" height="2.396" style="fill:rgb(2,95,210);"/>
            </g>
            <g transform="matrix(4.07014,-1.32314e-10,-2.3884e-11,61.4045,-1743.98,-5771.49)">
                <rect x="680.215" y="124.987" width="2.396" height="2.396" style="fill:rgb(2,95,210);"/>
            </g>
            <g transform="matrix(4.07014,-1.32314e-10,-2.3884e-11,61.4045,-1917.25,-2768.57)">
                <rect x="680.215" y="124.987" width="2.396" height="2.396" style="fill:rgb(2,95,210);"/>
            </g>
            <g transform="matrix(5.08592,-1.65336e-10,-3.06057e-11,78.6858,-2825.38,-7821.84)">
                <text x="675.246px" y="138.212px" style="font-family:'Arial-BoldMT';font-size:12px;fill:black;">A</text>
            </g>
            <g transform="matrix(5.08592,-1.65336e-10,-3.06057e-11,78.6858,-2543.56,-9858.88)">
                <text x="675.246px" y="138.212px" style="font-family:'Arial-BoldMT';font-size:12px;fill:black;">B</text>
            </g>
            <g transform="matrix(5.08592,-1.65336e-10,-3.06057e-11,78.6858,-2467.45,-5446.08)">
                <text x="675.246px" y="138.212px" style="font-family:'Arial-BoldMT';font-size:12px;fill:black;">C</text>
            </g>
            <g transform="matrix(5.08592,-1.65336e-10,-3.06057e-11,78.6858,-2842.9,-5355.17)">
                <text x="675.246px" y="138.212px" style="font-family:'Arial-BoldMT';font-size:12px;fill:black;">D</text>
            </g>
        </g>
    </g>
</svg>
