<?xml version="1.0" standalone="no"?>
<!DOCTYPE svg PUBLIC "-//W3C//DTD SVG 1.1//EN" "http://www.w3.org/Graphics/SVG/1.1/DTD/svg11.dtd">
<svg width="100%" height="100%" viewBox="0 0 231 77" version="1.1" xmlns="http://www.w3.org/2000/svg" xmlns:xlink="http://www.w3.org/1999/xlink" xml:space="preserve" style="fill-rule:evenodd;clip-rule:evenodd;stroke-linecap:round;stroke-linejoin:round;stroke-miterlimit:1.41421;">
    <g transform="matrix(1,0,0,1,-553.868,-382.399)">
        <g id="shape-style" transform="matrix(0.192192,4.03836e-13,7.64779e-14,0.0127088,553.868,382.399)">
            <g transform="matrix(4.33925,-43.4198,2.87115,65.6215,-3283,1925.47)">
                <path d="M598.092,408.705C601.446,402.333 608.154,402.333 611.508,405.519C614.862,408.705 614.862,415.078 611.508,421.451C609.16,426.23 603.123,431.01 598.092,434.196C593.061,431.01 587.024,426.23 584.676,421.451C581.322,415.078 581.322,408.705 584.676,405.519C588.03,402.333 594.738,402.333 598.092,408.705Z" style="fill:rgb(144,224,255);stroke-width:2px;stroke:rgb(255,49,159);"/>
            </g>
            <g transform="matrix(4.84603,28.6479,-1.89435,73.2855,-1862.96,-45327.1)">
                <path d="M598.092,408.705C601.446,402.333 608.154,402.333 611.508,405.519C614.862,408.705 614.862,415.078 611.508,421.451C609.16,426.23 603.123,431.01 598.092,434.196C593.061,431.01 587.024,426.23 584.676,421.451C581.322,415.078 581.322,408.705 584.676,405.519C588.03,402.333 594.738,402.333 598.092,408.705Z" style="fill:rgb(255,49,159);"/>
            </g>
            <g transform="matrix(4.93001,25.1586,-1.66362,74.5554,-1594.09,-44290.1)">
                <path d="M598.092,434.196C593.061,431.01 587.024,426.23 584.676,421.451C581.322,415.078 581.322,408.705 584.676,405.519C588.03,402.333 594.738,402.333 598.092,408.705C601.446,402.333 608.154,402.333 611.508,405.519C614.862,408.705 614.862,415.078 611.508,421.451" style="fill:rgb(144,224,255);stroke-width:2px;stroke:rgb(255,49,159);"/>
            </g>
            <g transform="matrix(5.8,-8.89617,0.588263,87.7121,-2800.29,-29752.5)">
                <path d="M598.092,408.705C601.446,402.333 608.154,402.333 611.508,405.519C614.862,408.705 614.862,415.078 611.508,421.451C609.16,426.23 603.123,431.01 598.092,434.196C593.061,431.01 587.024,426.23 584.676,421.451C581.322,415.078 581.322,408.705 584.676,405.519C588.03,402.333 594.738,402.333 598.092,408.705Z" style="fill:url(#_Linear1);"/>
            </g>
            <g transform="matrix(5.59404,43.844,-2.8992,84.5974,-1081.58,-59184.3)">
                <path d="M598.092,408.705C601.446,402.333 608.154,402.333 611.508,405.519C614.862,408.705 614.862,415.078 611.508,421.451C609.16,426.23 603.123,431.01 598.092,434.196C593.061,431.01 587.024,426.23 584.676,421.451C581.322,415.078 581.322,408.705 584.676,405.519C588.03,402.333 594.738,402.333 598.092,408.705Z" style="fill:url(#_Linear2);"/>
            </g>
            <g transform="matrix(5.8252,-29.7699,1.96855,88.0931,-3409.52,-15531.7)">
                <path d="M598.092,408.705C601.446,402.333 608.154,402.333 611.508,405.519C614.862,408.705 614.862,415.078 611.508,421.451C609.16,426.23 603.123,431.01 598.092,434.196C593.061,431.01 587.024,426.23 584.676,421.451C581.322,415.078 581.322,408.705 584.676,405.519C588.03,402.333 594.738,402.333 598.092,408.705Z" style="fill:url(#_Linear3);"/>
            </g>
            <g transform="matrix(5.29949,31.2594,-2.06704,80.143,-1273.83,-47845.3)">
                <path d="M598.092,408.705C601.446,402.333 608.154,402.333 611.508,405.519C614.862,408.705 614.862,415.078 611.508,421.451C609.16,426.23 603.123,431.01 598.092,434.196C593.061,431.01 587.024,426.23 584.676,421.451C581.322,415.078 581.322,408.705 584.676,405.519C588.03,402.333 594.738,402.333 598.092,408.705Z" style="fill:url(#_Linear4);"/>
            </g>
            <g transform="matrix(4.71638,-33.2302,2.19736,71.3247,-3580.27,-6582.44)">
                <path d="M598.092,408.705C601.446,402.333 608.154,402.333 611.508,405.519C614.862,408.705 614.862,415.078 611.508,421.451C609.16,426.23 603.123,431.01 598.092,434.196C593.061,431.01 587.024,426.23 584.676,421.451C581.322,415.078 581.322,408.705 584.676,405.519C588.03,402.333 594.738,402.333 598.092,408.705Z" style="fill:none;stroke-width:2px;stroke:rgb(0,174,255);"/>
            </g>
        </g>
    </g>
    <defs>
        <linearGradient id="_Linear1" x1="0" y1="0" x2="1" y2="0" gradientUnits="userSpaceOnUse" gradientTransform="matrix(17.1773,18.1223,-18.1223,17.1773,589.105,405.957)"><stop offset="0%" style="stop-color:rgb(216,38,120);stop-opacity:1"/><stop offset="100%" style="stop-color:rgb(71,13,83);stop-opacity:1"/></linearGradient>
        <linearGradient id="_Linear2" x1="0" y1="0" x2="1" y2="0" gradientUnits="userSpaceOnUse" gradientTransform="matrix(-5.81046,35.2446,-35.2446,-5.81046,601.245,402.752)"><stop offset="0%" style="stop-color:rgb(6,186,251);stop-opacity:1"/><stop offset="100%" style="stop-color:rgb(4,24,144);stop-opacity:1"/></linearGradient>
        <linearGradient id="_Linear3" x1="0" y1="0" x2="1" y2="0" gradientUnits="userSpaceOnUse" gradientTransform="matrix(17.2168,27.9101,-27.9101,17.2168,590.936,404.912)"><stop offset="0%" style="stop-color:rgb(235,228,85);stop-opacity:1"/><stop offset="100%" style="stop-color:rgb(25,105,16);stop-opacity:1"/></linearGradient>
        <linearGradient id="_Linear4" x1="0" y1="0" x2="1" y2="0" gradientUnits="userSpaceOnUse" gradientTransform="matrix(-8.14508,32.2965,-32.2965,-8.14508,601.765,401.453)"><stop offset="0%" style="stop-color:rgb(255,199,0);stop-opacity:1"/><stop offset="100%" style="stop-color:rgb(225,48,41);stop-opacity:1"/></linearGradient>
    </defs>
</svg>
