<?xml version="1.0" encoding="UTF-8" standalone="no"?><!DOCTYPE svg PUBLIC "-//W3C//DTD SVG 1.1//EN" "http://www.w3.org/Graphics/SVG/1.1/DTD/svg11.dtd"><svg width="100%" height="100%" viewBox="0 0 900 640" version="1.1" xmlns="http://www.w3.org/2000/svg" xmlns:xlink="http://www.w3.org/1999/xlink" xml:space="preserve" xmlns:serif="http://www.serif.com/" style="fill-rule:evenodd;clip-rule:evenodd;stroke-linecap:round;stroke-linejoin:round;stroke-miterlimit:1.5;"><rect id="build" x="0" y="0" width="900" height="640" style="fill:none;"/><path d="M570,30c0,-5.519 -4.481,-10 -10,-10l-130,0c-5.519,0 -10,4.481 -10,10l0,580c0,5.519 4.481,10 10,10l130,0c5.519,0 10,-4.481 10,-10l0,-580Z" style="fill:#e8f7fe;"/><path d="M370,30c0,-5.519 -4.481,-10 -10,-10l-130,0c-5.519,0 -10,4.481 -10,10l0,580c0,5.519 4.481,10 10,10l130,0c5.519,0 10,-4.481 10,-10l0,-580Z" style="fill:#f5da55;fill-opacity:0.196078;"/><circle cx="295" cy="140.7" r="27.737" style="fill:#fff;"/><circle cx="295" cy="212.144" r="27.737" style="fill:#fff;"/><circle cx="495" cy="212.144" r="27.737" style="fill:#fff;"/><circle cx="495" cy="323.184" r="27.737" style="fill:#fff;"/><circle cx="495" cy="394.629" r="27.737" style="fill:#fff;"/><circle cx="495" cy="554.781" r="27.737" style="fill:#fff;"/><circle cx="495" cy="488.649" r="27.737" style="fill:#fff;"/><circle cx="295" cy="394.629" r="27.737" style="fill:#fff;"/><circle cx="295" cy="323.184" r="27.737" style="fill:#fff;"/><g><path d="M495,24.519l28.887,16.339l0,32.686l-28.887,16.339l-28.887,-16.339l0,-32.686l28.887,-16.339Z" style="fill:#fff;fill-rule:nonzero;"/><path d="M518.729,72.417l-22.774,12.883l0,-10.032l14.19,-7.808l8.584,4.957Zm1.56,-1.411l0,-26.939l-8.33,4.815l0,17.317l8.33,4.807Zm-49.107,1.411l22.773,12.883l0,-10.032l-14.197,-7.808l-8.576,4.957Zm-1.56,-1.411l0,-26.939l8.33,4.815l0,17.317l-8.33,4.807Zm0.977,-28.685l23.356,-13.212l0,9.696l-14.966,8.233l-0.119,0.067l-8.271,-4.784Zm48.712,0l-23.356,-13.212l0,9.696l14.966,8.226l0.12,0.067l8.27,-4.777Z" style="fill:#8ed6fb;fill-rule:nonzero;"/><path d="M493.955,72.984l-14.003,-7.703l0,-15.25l14.003,8.084l0,14.869Zm2,0l14.003,-7.696l0,-15.257l-14.003,8.084l0,14.869Zm-15.055,-24.714l14.055,-7.726l14.055,7.726l-14.055,8.113l-14.055,-8.113Z" style="fill:#1c78c0;fill-rule:nonzero;"/><path d="M455.805,108.712l4.01,0l4.088,-13.619l-3.908,0l-2.421,9.663l-2.581,-9.663l-3.383,0l-2.605,9.663l-2.396,-9.663l-3.908,0l4.063,13.619l4.01,0l2.528,-8.724l2.503,8.724Zm8.307,-6.77c0,4.087 2.785,7.111 7.164,7.111c3.388,0 5.21,-2.032 5.73,-2.994l-2.371,-1.799c-0.389,0.574 -1.459,1.667 -3.31,1.667c-2.008,0 -3.466,-1.302 -3.544,-3.125l9.59,0c0.024,-0.262 0.024,-0.52 0.024,-0.782c0,-4.453 -2.396,-7.267 -6.615,-7.267c-3.883,0 -6.668,3.072 -6.668,7.189Zm3.776,-1.488c0.156,-1.56 1.249,-2.76 2.946,-2.76c1.642,0 2.838,1.093 2.916,2.76l-5.862,0Zm10.863,8.258l3.388,0l0,-1.404c0.365,0.442 1.721,1.745 4.039,1.745c3.908,0 6.669,-2.941 6.669,-7.136c0,-4.218 -2.552,-7.159 -6.46,-7.159c-2.343,0 -3.699,1.303 -4.039,1.769l0,-6.644l-3.592,0l0,18.829l-0.005,0Zm3.49,-6.77c0,-2.552 1.512,-4.01 3.49,-4.01c2.085,0 3.49,1.643 3.49,4.01c0,2.42 -1.458,3.932 -3.49,3.932c-2.187,0 -3.49,-1.774 -3.49,-3.932Zm12.006,11.641l3.592,0l0,-6.28c0.34,0.442 1.691,1.745 4.039,1.745c3.907,0 6.459,-2.941 6.459,-7.16c0,-4.165 -2.761,-7.135 -6.668,-7.135c-2.319,0 -3.675,1.303 -4.039,1.769l0,-1.434l-3.388,0l0,18.495l0.005,0Zm3.489,-11.719c0,-2.163 1.303,-3.932 3.49,-3.932c2.032,0 3.49,1.511 3.49,3.932c0,2.372 -1.405,4.01 -3.49,4.01c-1.978,0 -3.49,-1.458 -3.49,-4.01Zm11.252,2.63c0,2.862 2.343,4.559 5.104,4.559c1.565,0 2.605,-0.467 3.31,-1.225l0.233,0.884l3.179,0l0,-8.622c0,-3.048 -1.303,-5.337 -5.677,-5.337c-2.085,0 -4.141,0.783 -5.366,1.614l1.356,2.449c1.016,-0.52 2.265,-0.962 3.621,-0.962c1.59,0 2.474,0.807 2.474,2.007l0,0.885c-0.496,-0.34 -1.565,-0.753 -2.945,-0.753c-3.179,-0.005 -5.289,1.818 -5.289,4.501Zm3.592,-0.107c0,-1.118 0.963,-1.901 2.343,-1.901c1.381,0 2.372,0.705 2.372,1.901c0,1.147 -0.991,1.876 -2.343,1.876c-1.351,0 -2.372,-0.754 -2.372,-1.876Zm16.959,1.487c-2.265,0 -3.879,-1.643 -3.879,-3.957c0,-2.187 1.434,-3.985 3.752,-3.985c1.536,0 2.581,0.753 3.179,1.302l1.016,-3.023c-0.885,-0.675 -2.294,-1.458 -4.297,-1.458c-4.141,0 -7.242,3.048 -7.242,7.189c0,4.141 3.023,7.111 7.267,7.111c1.978,0 3.465,-0.832 4.243,-1.459l-0.963,-2.94c-0.602,0.491 -1.696,1.22 -3.076,1.22Zm5.39,2.838l3.592,0l0,-7.033l4.559,7.033l4.219,0l-5.157,-7.451l4.792,-6.173l-4.039,0l-4.374,5.731l0,-10.936l-3.592,0l0,18.829Z" style="fill:#1c78c0;fill-rule:nonzero;"/></g><g id="js-files"><path d="M121.95,318.191c0,-5.523 -4.484,-10.007 -10.007,-10.007l-59.987,0c-5.523,0 -10.006,4.484 -10.006,10.007l0,79.987c0,5.523 4.483,10.006 10.006,10.006l59.987,0c5.523,0 10.007,-4.483 10.007,-10.006l0,-79.987Z" style="fill:#fdf5bc;"/><text x="49.713px" y="431.712px" style="font-family:'ArialMT', 'Arial', sans-serif;font-size:20px;">JS ﬁles</text><g id="_-JS" serif:id="©JS"><rect x="55.995" y="332.229" width="51.91" height="51.91" style="fill:#f7df1e;"/><path d="M90.865,372.784c1.046,1.708 2.406,2.962 4.812,2.962c2.021,0 3.312,-1.01 3.312,-2.406c0,-1.672 -1.326,-2.265 -3.551,-3.238l-1.22,-0.523c-3.519,-1.5 -5.858,-3.378 -5.858,-7.35c0,-3.658 2.788,-6.443 7.144,-6.443c3.101,0 5.331,1.079 6.938,3.905l-3.799,2.439c-0.836,-1.499 -1.738,-2.09 -3.139,-2.09c-1.429,0 -2.334,0.906 -2.334,2.09c0,1.464 0.906,2.056 2.999,2.963l1.219,0.522c4.145,1.777 6.485,3.589 6.485,7.663c0,4.392 -3.45,6.798 -8.083,6.798c-4.53,0 -7.457,-2.159 -8.889,-4.989l3.964,-2.303Zm-17.232,0.423c0.767,1.359 1.464,2.509 3.14,2.509c1.602,0 2.613,-0.627 2.613,-3.065l0,-16.587l4.878,0l0,16.653c0,5.051 -2.961,7.349 -7.284,7.349c-3.905,0 -6.167,-2.021 -7.317,-4.455l3.97,-2.404Z" style="fill-rule:nonzero;"/></g></g><g id="scss-files"><path d="M121.891,136.706c0,-5.522 -4.484,-10.006 -10.007,-10.006l-59.986,0c-5.523,0 -10.007,4.484 -10.007,10.006l0,79.987c0,5.523 4.484,10.007 10.007,10.007l59.986,0c5.523,0 10.007,-4.484 10.007,-10.007l0,-79.987Z" style="fill:#f5e0eb;"/><clipPath id="_clip1"><path d="M121.891,136.706c0,-5.522 -4.484,-10.006 -10.007,-10.006l-59.986,0c-5.523,0 -10.007,4.484 -10.007,10.006l0,79.987c0,5.523 4.484,10.007 10.007,10.007l59.986,0c5.523,0 10.007,-4.484 10.007,-10.007l0,-79.987Z"/></clipPath><g clip-path="url(#_clip1)"><g id="_-SASS" serif:id="©SASS"><path d="M81.891,150.745c14.335,0 25.955,11.62 25.955,25.955c0,14.334 -11.62,25.955 -25.955,25.955c-14.334,0 -25.955,-11.621 -25.955,-25.955c0,-14.335 11.621,-25.955 25.955,-25.955Z" style="fill:#cd6699;"/><path d="M76.733,185.345c0.378,1.397 0.336,2.7 -0.054,3.879c-0.043,0.131 -0.091,0.261 -0.143,0.389c-0.052,0.128 -0.108,0.255 -0.168,0.379c-0.301,0.624 -0.704,1.209 -1.199,1.748c-1.508,1.645 -3.615,2.267 -4.518,1.743c-0.976,-0.565 -0.487,-2.885 1.261,-4.733c1.881,-1.989 4.588,-3.267 4.588,-3.267l-0.004,-0.008c0.077,-0.042 0.157,-0.085 0.237,-0.13Zm21.439,-23.491c-1.176,-4.61 -8.819,-6.125 -16.053,-3.555c-4.305,1.529 -8.966,3.93 -12.317,7.064c-3.984,3.727 -4.62,6.971 -4.358,8.326c0.924,4.783 7.477,7.909 10.171,10.228l0,0.014c-0.794,0.391 -6.608,3.333 -7.969,6.341c-1.435,3.174 0.229,5.451 1.33,5.757c3.414,0.95 6.917,-0.758 8.8,-3.566c1.816,-2.71 1.665,-6.209 0.875,-7.95c1.089,-0.287 2.359,-0.416 3.973,-0.227c4.553,0.531 5.446,3.374 5.275,4.564c-0.171,1.19 -1.126,1.844 -1.445,2.041c-0.319,0.198 -0.417,0.266 -0.39,0.413c0.039,0.214 0.187,0.206 0.459,0.16c0.375,-0.064 2.391,-0.968 2.477,-3.164c0.11,-2.789 -2.562,-5.908 -7.294,-5.826c-1.948,0.033 -3.174,0.219 -4.059,0.548c-0.065,-0.075 -0.132,-0.149 -0.2,-0.222c-2.926,-3.121 -8.333,-5.328 -8.104,-9.524c0.084,-1.525 0.614,-5.541 10.391,-10.413c8.008,-3.991 14.42,-2.892 15.528,-0.459c1.582,3.477 -3.427,9.94 -11.744,10.872c-3.169,0.355 -4.837,-0.873 -5.252,-1.33c-0.437,-0.482 -0.502,-0.503 -0.665,-0.413c-0.266,0.147 -0.098,0.572 0,0.826c0.248,0.646 1.267,1.792 3.004,2.362c1.529,0.502 5.249,0.777 9.748,-0.963c5.04,-1.949 8.975,-7.372 7.819,-11.904Z" style="fill:#fff;fill-rule:nonzero;"/></g></g><text x="34.093px" y="250.227px" style="font-family:'ArialMT', 'Arial', sans-serif;font-size:20px;fill:#cd6699;">SCSS ﬁles</text></g><path d="M122.964,483.656c0,-5.523 -4.484,-10.007 -10.007,-10.007l-59.986,0c-5.523,0 -10.007,4.484 -10.007,10.007l0,79.986c0,5.523 4.484,10.007 10.007,10.007l59.986,0c5.523,0 10.007,-4.484 10.007,-10.007l0,-79.986Z" style="fill:#f5d8d8;"/><clipPath id="_clip2"><path d="M122.964,483.656c0,-5.523 -4.484,-10.007 -10.007,-10.007l-59.986,0c-5.523,0 -10.007,4.484 -10.007,10.007l0,79.986c0,5.523 4.484,10.007 10.007,10.007l59.986,0c5.523,0 10.007,-4.484 10.007,-10.007l0,-79.986Z"/></clipPath><g clip-path="url(#_clip2)"><g id="_-npm" serif:id="©npm"><path d="M51.406,511.376l0,21.039l17.532,0l0,3.507l14.026,0l0,-3.507l31.558,0l0,-21.039" style="fill:#cb3837;fill-rule:nonzero;"/><path d="M54.912,514.883l0,14.026l7.013,0l0,-10.52l3.506,0l0,10.52l3.507,0l0,-14.026l3.506,0l0,17.532l7.013,0l0,-14.026l3.507,0l0,7.013l-3.507,0l0,3.507l7.013,0l0,-14.026l3.507,0l0,14.026l7.013,0l0,-10.52l3.506,0l0,10.52l3.507,0l0,-10.52l3.506,0l0,10.52l3.507,0l0,-14.026" style="fill:#fff;fill-rule:nonzero;"/></g></g><text x="18.477px" y="597.177px" style="font-family:'ArialMT', 'Arial', sans-serif;font-size:20px;fill:#cb3837;">Node Modules</text><path id="_-babel" serif:id="©babel" d="M246.107,42.731c5.124,-1.983 9.297,-3.099 12.458,-3.388c3.843,0.062 6.508,0.599 7.996,1.611c2.52,1.137 3.843,2.624 4.008,4.463l0.062,0.62c-0.186,2.624 -0.744,4.525 -1.653,5.702l-4.111,3.616c-1.447,0.826 -2.17,1.446 -2.128,1.88c2.007,2.231 3.06,3.526 3.117,3.886l0.787,-0.188l0.062,0.262c-0.029,0.067 -0.085,0.111 -0.165,0.131l0.186,-0.042l-0.021,-0.089c0.031,-0.07 0.032,-0.165 0,-0.282l0.104,-0.021c0.041,0.227 0.372,0.289 0.95,0.145l0.95,-0.228c0.269,-0.082 -0.433,0.042 -0.33,-0.062l0.764,-0.041l1.467,-0.331l0.827,-0.31l-0.021,-0.103l-0.372,0.083l-0.021,-0.124c0,-0.165 0.062,-0.269 0.186,-0.289l0.971,-0.228c0.93,-0.227 1.612,-0.702 2.087,-1.467c0.021,0.083 0.083,0.124 0.165,0.104c-0.041,-0.207 0.083,-0.393 0.372,-0.579c-0.062,-0.227 0.475,-0.909 1.571,-2.045c0.103,-0.351 1.487,-2.108 4.173,-5.31c3.533,-4.504 5.93,-7.665 7.128,-9.483l0.103,-0.021l0.021,0.104l0,0.495c0.351,0.455 0.744,0.806 1.136,1.054l0.021,0.124c-0.207,1.901 -0.599,4.07 -1.178,6.549l-0.16,0.687c0.392,-0.409 0.787,-0.636 1.193,-0.666c0.165,0.083 0.31,0.103 0.393,0.103l-0.269,-0.33l0,-0.103c0.248,-0.021 0.351,-0.083 0.351,-0.166l0.269,0.104l0.103,0l-0.124,-0.248c1.694,-1.199 2.562,-1.86 2.542,-1.984l0,-0.103l-0.104,0l-0.227,0.124c-0.021,-0.145 -0.103,-0.227 -0.269,-0.207c-0.165,0.104 -0.289,0.166 -0.372,0.166l-0.02,-0.228c1.363,-0.764 2.582,-1.549 3.657,-2.314c3.905,-1.529 7.066,-2.396 9.421,-2.562c2.913,0.083 4.938,0.496 6.074,1.261c1.901,0.867 2.913,1.983 3.037,3.367l0.042,0.455c-0.124,2.004 -0.538,3.45 -1.24,4.339l-3.14,2.727c-1.095,0.62 -1.633,1.095 -1.612,1.425c1.57,1.736 2.355,2.728 2.376,2.975c0.207,2.438 -1.488,4.959 -5.083,7.604c-1.177,0.723 -2.892,1.962 -5.165,3.718c-0.434,0.352 -1.239,0.62 -2.417,0.786l0.021,0.124l0.124,-0.021l0.62,-0.186l0.02,0.124c-0.826,0.682 -2.025,1.095 -3.636,1.24c-1.591,0.847 -3.864,1.694 -6.859,2.582c-0.538,1.116 -1.302,2.231 -2.335,3.388l-0.248,0.021l-0.021,-0.124c0.29,-0.93 0.579,-1.549 0.847,-1.839c0.269,-0.495 0.414,-0.847 0.393,-1.074l-0.021,-0.248c-0.165,0.021 -0.248,-0.021 -0.248,-0.083l-0.227,0.124l-0.268,0.021l-0.021,-0.227l-0.103,0c-0.166,0.144 -0.558,0.31 -1.199,0.454c-0.103,-0.144 -0.165,-0.268 -0.165,-0.351c2.562,-4.256 5.723,-10.826 9.504,-19.689c1.653,-3.823 2.458,-5.889 2.438,-6.199c-0.083,-0.144 -0.124,-0.289 -0.145,-0.454c0.124,-0.021 0.351,-0.269 0.682,-0.765l-0.021,-0.227c-1.797,0.599 -3.615,1.57 -5.475,2.934l-0.248,0.021c0,-0.104 -0.186,-0.207 -0.516,-0.31c-0.661,0.434 -1.281,0.95 -1.839,1.57l-0.31,-0.434c0.165,-0.103 0.289,-0.165 0.372,-0.165l-0.021,-0.351c-0.072,0 -0.285,0.172 -0.652,0.503l-1.641,7.017c0.641,0.165 0.971,0.289 0.992,0.372c-0.145,0.206 -0.413,0.351 -0.785,0.434l0.02,0.103l0.186,0.186c-0.847,0.537 -1.301,1.302 -1.405,2.273c-3.285,11.115 -5.785,18.553 -7.541,22.313l-0.124,0.021l-0.206,-0.909c0.723,-1.818 1.446,-4.298 2.148,-7.417l0.393,-1.054l-0.062,-0.248c-0.269,0.062 -0.661,1.095 -1.219,3.078c-0.186,0.228 -0.455,1.095 -0.826,2.624c-0.083,0.021 -0.331,0.806 -0.724,2.335c-0.289,0.083 -0.413,0.434 -0.392,1.074c-0.124,0.434 -0.289,0.682 -0.475,0.723l-0.641,0.021l0.083,0.351c-0.103,0 -0.145,-0.02 -0.165,-0.103l-0.207,0.186c-0.165,-0.041 -0.31,-0.062 -0.393,-0.041c0.496,-2.728 1.219,-5.31 2.17,-7.769l1.467,-4.793c-0.042,-0.165 0.268,-1.24 0.929,-3.244c-0.02,-0.124 0.207,-0.95 0.723,-2.458c0.786,-2.5 1.096,-4.071 0.951,-4.711l-0.124,0.021c-4.132,0.95 -6.136,1.694 -6.012,2.231c-3.843,4.959 -8.616,12.252 -10.579,14.38l-0.123,0.02l-0.021,-0.124c0.021,-0.309 0.144,-0.495 0.372,-0.557l-0.021,-0.124c-0.124,0.02 -0.372,0 -0.764,-0.062c0.041,0.248 -0.104,0.537 -0.455,0.847l-0.248,0.062l-0.02,-0.124c-0.021,-0.083 0,-0.124 0.082,-0.145l-0.165,-0.206l-0.062,-0.228l0.186,-0.764l-0.579,0.248l-0.103,0.02l0.579,-1.962l1.198,-1.488l5.392,-8.553l-0.082,-0.352c-0.148,0.033 -0.282,0.053 -0.414,0.039l0.104,-0.059l-0.195,0.044c0.03,0.007 0.061,0.012 0.091,0.015l-0.186,0.106c-0.017,-0.051 0.009,-0.089 0.054,-0.112l0.041,-0.009l-0.012,-0.003c-0.01,0.004 -0.02,0.008 -0.029,0.012l-1.128,0.257c-0.434,0.103 -0.103,-0.021 -0.806,0.062c-0.082,0.02 -0.124,0.062 -0.103,0.144c-0.062,0.021 -0.31,0.021 -0.744,0.042c-0.198,0.046 -0.388,0.089 -0.571,0.132c-0.936,2.186 -2.976,4.439 -6.123,6.748c-1.529,0.971 -3.781,2.603 -6.776,4.917c-0.579,0.454 -1.653,0.806 -3.182,1.033l0.021,0.165l0.185,-0.021l0.786,-0.227l0.02,0.165c-1.074,0.909 -2.686,1.447 -4.772,1.633c-2.087,1.115 -5.083,2.252 -9.029,3.409c-0.702,1.446 -1.736,2.933 -3.078,4.442l-0.31,0.02l-0.021,-0.144c0.393,-1.219 0.744,-2.025 1.095,-2.418c0.393,-0.64 0.558,-1.115 0.537,-1.425l-0.021,-0.31c-0.206,0.021 -0.33,-0.021 -0.33,-0.124l-0.331,0.186l-0.31,0.021l-0.02,-0.31l-0.186,0.02c-0.227,0.207 -0.765,0.393 -1.591,0.599c-0.103,-0.186 -0.186,-0.351 -0.186,-0.454c3.368,-5.62 7.541,-14.256 12.541,-25.95c2.19,-5.041 3.264,-7.747 3.223,-8.161c-0.124,-0.186 -0.207,-0.372 -0.227,-0.599c0.165,-0.02 0.475,-0.351 0.909,-1.012l-0.021,-0.31c-2.376,0.806 -4.772,2.087 -7.19,3.884l-0.33,0.021c0,-0.166 -0.228,-0.29 -0.682,-0.413c-0.909,0.557 -1.715,1.239 -2.459,2.045l-0.392,-0.579c0.206,-0.103 0.372,-0.186 0.475,-0.186l-0.041,-0.454c-0.104,0 -0.455,0.289 -1.075,0.847l-0.186,-0.289c0.703,-0.992 1.426,-1.529 2.149,-1.591c0.207,0.083 0.372,0.103 0.496,0.103l-0.372,-0.413l-0.021,-0.165c0.331,-0.021 0.476,-0.083 0.476,-0.186l0.351,0.124l0.165,-0.021l-0.186,-0.289c2.252,-1.591 3.388,-2.479 3.368,-2.624l-0.021,-0.145l-0.165,0.021l-0.331,0.186c0,-0.207 -0.124,-0.289 -0.33,-0.269c-0.207,0.104 -0.352,0.186 -0.475,0.186l-0.021,-0.31c1.797,-0.991 3.409,-2.004 4.814,-3.037Zm29.503,39.255l-0.145,0.021c0.021,0.083 0.021,0.207 -0.02,0.372l0.475,-0.103l-0.021,-0.124c-0.041,-0.145 -0.124,-0.207 -0.289,-0.166Zm-40.205,-1.694m0,0l0.351,0.145c-0.124,0.93 -0.393,1.405 -0.868,1.446c-0.372,-0.165 -0.702,-0.227 -1.012,-0.207l-0.042,-0.454c-0.02,-0.186 0.083,-0.289 0.31,-0.351c0.207,-0.021 0.331,0.124 0.352,0.434c0.557,-0.682 0.867,-1.013 0.909,-1.013Zm8.656,-2.438c0,0.063 -0.31,0.29 -0.909,0.703c-0.206,0.02 -0.31,-0.083 -0.33,-0.269c0.103,-0.434 0.578,-0.702 1.405,-0.764l-0.021,-0.145l-0.496,0.041c-1.777,0.723 -2.706,1.157 -2.83,1.323l0.971,-0.083l0.02,0.31c-1.219,0.289 -2.066,0.578 -2.562,0.826c-0.413,-0.186 -0.867,-0.248 -1.322,-0.206c-0.537,0.351 -0.764,0.785 -0.723,1.322c0.372,0.165 0.661,0.248 0.847,0.227c0.827,-0.475 2.562,-1.239 5.207,-2.293c-0.021,-0.248 1.446,-0.888 4.421,-1.921c0.475,-0.476 2.087,-1.405 4.835,-2.748c0.929,-0.682 1.404,-1.075 1.384,-1.199l-0.021,-0.289c-5.392,3.202 -8.677,4.938 -9.876,5.165Zm-5.371,0.599l0.495,-0.041l0.021,0.165c-0.124,0 -0.268,0.083 -0.475,0.186l-0.31,0.021c-0.021,-0.145 0.062,-0.269 0.269,-0.331Zm23.739,-0.02l0.206,-0.186l0.248,-0.062l0.021,0.124c0.041,0.165 -0.021,0.248 -0.186,0.289c-0.165,0.041 -0.248,-0.021 -0.289,-0.165Zm-16.653,-14.649c-4.215,8.389 -6.384,12.851 -6.549,13.43l0.186,-0.021c1.177,-0.103 4.235,-1.487 9.132,-4.194c0.248,-0.021 1.9,-1.033 4.979,-3.058l4.132,-3.285c0.888,-0.392 1.715,-1.632 2.459,-3.781l-0.062,-0.619c-0.992,-0.951 -2.5,-1.323 -4.525,-1.157l-0.971,0.082c-3.988,1.57 -6.921,2.438 -8.781,2.603Zm0.93,12.438c-0.393,0.041 -1.116,0.351 -2.211,0.971l-0.165,0.021l-0.021,-0.31c0.785,-0.062 1.467,-0.372 2.025,-0.93c0.227,-0.041 0.351,0.062 0.372,0.248Zm101.911,-11.125c-0.032,0.018 -0.023,0.061 -0.096,0.134l0.165,-0.145l0.012,0c0.055,0.005 0.092,0.046 0.092,0.124c0.082,-0.083 0.165,-0.145 0.227,-0.145c0.186,-0.02 0.207,0.062 0.95,-0.082l0,0.103c0.786,-0.227 1.529,-0.062 4.36,-0.64l0.02,0.247c-0.103,0.021 -0.475,0.042 -0.454,0.29l-0.248,0.02l-0.269,0.124l0,-0.103c-1.611,0.455 -1.9,0.289 -2.706,0.351l-0.165,0.021c-0.124,0 -0.248,0.062 -0.331,0.145c-0.041,0 -0.083,-0.042 -0.083,-0.124c-0.785,0.227 0,0.062 -2.334,0.351l0.02,0.227l0.083,0c1.818,-0.145 1.24,0.041 2.686,-0.248l0.021,0.227c-0.228,0.021 -0.248,0.104 -0.662,0.31c-0.289,-0.062 -0.309,-0.103 -0.351,-0.103l-0.516,0.062c0.017,0.119 0.075,0.196 0.187,0.208c-0.048,0.068 0.138,-0.001 0.081,-0.001c-0.029,0.003 -0.056,0.004 -0.081,0.001c0.005,-0.006 0.011,-0.014 0.019,-0.022c0.042,0 0.124,0.021 0.248,0.103c1.013,-0.186 1.013,-0.103 2.48,-0.475l0,-0.103l-0.269,0.124c-0.124,0 -0.248,-0.021 -0.351,-0.083l-0.29,0.021l-0.33,-0.083l-0.021,-0.227l0.145,-0.021l0.62,0.041l0.02,0.124l0.166,-0.144c0.041,0 0.082,0.041 0.082,0.124l0.269,-0.145l0.454,-0.041c0.042,0 0.083,0.041 0.083,0.124c0.227,-0.186 0.455,-0.165 0.93,-0.207l0.413,-0.041c0.103,0 0.165,0.103 0.186,0.351l0.785,-0.083l0.021,0.124c0.516,-0.289 0.826,-0.309 1.467,-0.371l0.103,0.227c0,0.165 -0.041,0.248 -0.145,0.248l-0.165,0.02c-0.103,0.021 0.083,-0.041 -0.021,-0.103c-0.496,0.289 -0.867,0.31 -1.033,0.331l-0.95,-0.042l0,0.104c0.041,0.165 0.103,0.227 0.186,0.227c0.992,-0.165 1.26,-0.062 1.777,-0.269c0.103,0.062 0.206,0.083 0.33,0.083c-0.206,0.578 -0.186,0.868 -0.516,0.888c-6.26,1.323 -6.736,0.971 -8.079,1.095l-0.02,-0.124l-0.186,0.145l-0.351,0.021l-0.951,0.124l0.021,0.124l1.715,-0.083c0.285,-0.036 0.309,0.021 0.724,-0.056l-0.001,-0.006l0.028,0.001l-0.012,0.002l-0.015,0.003l0.019,0.118l0.089,0.162c-0.266,0.093 -0.482,0.137 -2.299,0.437l0,-0.103c-0.062,0 -0.083,0.041 -0.083,0.103c-1.178,0.186 -1.157,0.227 -1.715,0.269l-0.702,0.062l-0.372,0.144c-0.062,0 -0.103,-0.041 -0.103,-0.103l-0.785,0.165l-2.046,0.186c-0.022,0 -0.041,-0.003 -0.057,-0.008l0.14,-0.012l-0.207,-0.083c0,0.045 0.022,0.08 0.067,0.095l-0.335,0.029c-0.145,0.021 -0.207,-0.062 -0.228,-0.207c0.062,-0.02 0.083,-0.062 0.083,-0.124l0.393,0.083c0.247,-0.021 0.165,-0.041 0.557,-0.145l0.248,0.083c0.29,-0.083 0.537,-0.145 0.765,-0.165c-0.021,-0.166 -0.104,-0.248 -0.248,-0.228c-0.124,0.104 -0.269,0.145 -0.434,0.166l-0.021,-0.228l0.558,-0.041l-0.021,-0.124c-0.785,-0.103 -0.867,-0.165 -1.859,-0.082l-0.021,-0.124l-0.206,0.144l-0.393,0.042c-0.971,0.082 -1.136,0.041 -2.252,0.061l-0.909,0.31c-1.818,0 -2.851,0.021 -3.14,0.042c-0.269,0.165 -0.517,0.268 -0.744,0.289c-0.331,-0.207 -0.641,-0.289 -0.93,-0.269l-0.02,-0.124l0.309,-0.743l-0.124,-0.228c-0.02,-0.206 0.083,-0.495 0.31,-0.847l-0.268,-0.103l-0.496,0.041c0.021,0.31 -0.124,0.558 -0.455,0.765l-0.248,0.02c0.166,-0.661 0.414,-1.239 0.724,-1.735l0.124,-0.021c0.247,-0.02 0.392,0.166 0.433,0.558l0.248,-0.021c0.166,0 0.248,-0.103 0.228,-0.247l-0.228,-1.426c0.352,-0.289 1.033,-1.942 2.087,-4.938c0.351,-0.64 0.517,-1.281 0.455,-1.942c-0.166,0.021 -0.248,-0.062 -0.269,-0.207c0.31,-0.144 0.661,-0.888 1.074,-2.231c2.252,-5.227 3.347,-8.388 5.785,-15.186l0.124,-0.02c0.083,0.144 0.124,0.289 0.145,0.475l0.269,-0.021c0.139,-0.447 0.267,-0.794 0.381,-1.041c-0.03,-0.004 -0.061,-0.008 -0.092,-0.012c-0.166,0.124 -0.289,0.186 -0.393,0.186c-0.062,0 -0.124,-0.042 -0.124,-0.145l-0.929,0.227l-2.005,0.186c-0.186,0.042 -0.268,0.145 -0.247,0.289c0.371,0.062 0.681,0.083 0.95,0.062l0,0.124c0.021,0.145 -0.103,0.29 -0.372,0.455l-1.074,0.103c-0.372,0.042 -0.847,0.124 -1.447,0.289c-0.165,-0.082 -0.392,-0.103 -0.681,-0.082c-0.166,0.124 -0.29,0.186 -0.393,0.186l-0.021,-0.145c-0.144,0.124 -0.309,0.186 -0.516,0.207l0.021,0.268l1.735,-0.165l0.021,0.269c-3.244,0.392 -5.765,0.764 -7.583,1.136c-0.082,0.021 -0.227,-0.021 -0.413,-0.103c-4.628,0.723 -2.169,0.867 -4.318,1.053c-0.517,0.042 -1.116,0.93 -1.839,2.666l-0.289,0.02l-0.021,-0.124c0.166,-0.33 0.248,-0.578 0.228,-0.723c-0.31,0.021 -1.385,1.984 -3.203,5.847l0.186,0.289c0.186,-0.124 0.331,-0.186 0.434,-0.186c0.021,0.207 3.45,0.145 10.33,-0.186c0,0.124 0.496,0.166 1.488,0.145c0.021,0.165 -0.083,0.269 -0.269,0.289l-0.744,0.062l0.021,0.29c0.723,0.02 1.095,0.02 1.178,0.02l0.02,0.269l-1.9,0.165l-0.723,0.207l0.02,0.268c0.682,-0.062 1.033,0.083 1.075,0.455c0.02,0.186 0.268,0.268 0.764,0.227l0.021,0.269c-1.302,0.392 -2.521,0.64 -3.637,0.743l-2.623,0.228l-0.889,0.206c-0.165,-0.062 -0.413,-0.082 -0.744,-0.062c-1.322,0.476 -2.479,0.765 -3.471,0.847l-0.599,-0.103l-1.157,0.393c-0.206,-0.083 -0.351,-0.104 -0.454,-0.104c-0.476,0.331 -0.992,1.219 -1.55,2.645c-1.921,4.235 -2.851,6.591 -2.81,7.066l0.744,0.082l1.632,-0.144c0.765,-0.062 1.447,-0.062 2.066,-0.021c0.455,-0.144 1.137,-0.248 2.046,-0.33l0.33,0.124c0.145,-0.124 0.331,-0.186 0.558,-0.207l0.889,0.083c0.103,-0.021 0.144,-0.062 0.144,-0.166l7.231,-0.206l0.021,0.268l-0.888,0.228c-0.021,-0.186 -0.124,-0.29 -0.31,-0.269c0.041,0.496 -1.467,0.909 -4.484,1.24l0.021,0.144l0.579,-0.041l0.289,-0.165c0.496,0.062 0.744,0.124 0.744,0.206l0.309,-0.144l0.124,-0.021c0.104,-0.021 0.166,0.021 0.166,0.103l0.289,-0.144l2.355,-0.083c0.104,0 0.248,-0.062 0.434,-0.165c0.186,0.082 0.641,0.124 1.343,0.165c0.393,-0.124 0.744,-0.207 1.033,-0.227l0.021,0.268c-0.331,0.021 -0.517,0.331 -0.537,0.889c-1.075,0.103 -1.591,0.186 -1.591,0.268c-0.207,-0.062 -0.352,-0.082 -0.455,-0.082c-1.074,0.144 -1.611,0.289 -1.591,0.413c0.042,0.454 -0.392,0.723 -1.281,0.806l-3.367,0.289c-0.104,0.021 -0.166,-0.021 -0.166,-0.124l-0.268,0.165l-0.289,0.021c-0.104,0.021 -0.166,-0.021 -0.166,-0.124l-0.268,0.165c-4.463,0.475 -7.583,0.785 -9.401,0.951c-0.351,0.371 -1.219,2.314 -2.603,5.805l-0.165,0.021l-0.166,-0.269c1.116,-2.913 1.777,-4.4 1.963,-4.483c-0.186,-0.372 -0.351,-0.558 -0.496,-0.537l-0.124,0.02c0.021,0.331 -0.268,0.91 -0.888,1.757l-0.165,0.02c0.227,-0.991 0.309,-1.653 0.289,-1.983c-0.103,0.02 -0.145,0.062 -0.145,0.165c-1.487,-0.165 -2.252,-0.372 -2.272,-0.661l-0.042,-0.537l0.269,-0.455l-0.021,-0.268c-0.599,-0.062 -0.909,-0.166 -0.93,-0.352c0.166,-0.557 0.786,-0.991 1.819,-1.281c0.165,-0.681 1.756,-4.483 4.793,-11.425c3.512,-7.21 5.268,-10.909 5.248,-11.074l-0.042,-0.537l-0.33,-0.393l-0.29,0.145l-0.165,0.021l-0.02,-0.124c0,-0.207 0.516,-0.537 1.549,-0.992c0.103,-0.599 0.517,-1.054 1.198,-1.364l0.104,-0.702l-0.744,-0.062c-0.186,0.103 -0.331,0.165 -0.434,0.165l-0.165,-0.268l2.128,-0.889c0.558,-0.144 0.929,-0.227 1.177,-0.248c0.228,-0.02 0.434,0.021 0.6,0.104l4.4,-0.682l0.269,0.103c1.116,-0.206 1.777,-0.372 2.004,-0.434c0.145,0.083 0.331,0.124 0.537,0.104c0.31,-0.021 0.517,-0.104 0.661,-0.207c0.496,0.062 0.909,0.062 1.24,0.041l0.124,-0.02l0.685,-0.194c0.094,-0.013 0.138,-0.025 0.121,-0.034l-0.121,0.034c-0.773,0.112 -4.898,0.357 -4.714,0.338c0.207,-0.02 0.372,-0.103 0.517,-0.206c0.516,0.041 0.888,0.062 1.095,0.041l0.929,-0.227l0.269,0.124c0.186,0 0.268,-0.062 0.268,-0.166c0.765,0.021 1.219,0.021 1.323,0.021c0.847,-0.083 4.421,-0.372 10.723,-0.888l0.02,0.144l0.248,-0.165c0.785,0.021 1.281,0.021 1.467,0l0.021,0.269l-0.124,0.02c-0.083,0.021 -0.145,-0.02 -0.145,-0.103l-0.248,0.145c-0.082,0.02 -0.144,-0.021 -0.144,-0.104l-0.248,0.145l-0.269,-0.103c-0.62,0.124 -0.909,0.248 -0.909,0.371c0.083,0.186 0.145,0.31 0.145,0.414l1.343,-0.124c0.018,0.128 0.102,0.273 0.265,0.449l0.086,-0.015c-0.021,0.723 -0.042,1.157 -0.021,1.322l0.227,-0.145c0.186,0.021 0.269,0.083 0.29,0.207c-0.124,0.599 -0.186,0.909 -0.186,0.971l-0.248,0.021l-0.207,-0.806l-0.103,0c-0.455,0.682 -0.661,1.26 -0.62,1.735l0,0.104c0.083,0 0.227,0.041 0.393,0.103c0.082,-0.145 0.124,-0.31 0.103,-0.475l0.248,-0.021c-0.289,1.302 -0.207,1.901 -2.273,7.459c-1.074,3.14 -1.901,5.247 -2.479,6.301c-0.186,0.826 -0.434,1.322 -0.765,1.508c0,-0.082 -0.041,-0.124 -0.124,-0.124c0.042,0.434 -0.123,0.847 -0.516,1.24c-0.062,0.144 -0.103,0.31 -0.083,0.496l0,0.103l0.248,-0.021c0.021,0.166 -0.062,0.248 -0.227,0.269l-0.248,-0.103c0.021,0.227 -0.33,1.095 -1.033,2.582l0.021,0.351l0.351,-0.02l0.021,0.124c-0.124,0 -0.29,0.103 -0.476,0.268l0.145,0.228l0.021,0.227l-0.269,0.021l-0.021,-0.228l-0.557,0.889c-0.062,0.144 -0.083,0.289 -0.062,0.475l0.02,0.227l0.248,-0.021l0.021,0.248c0,0.124 -0.103,0.248 -0.351,0.372l-0.124,0.021l0.124,-0.248l-0.124,0.021c-0.269,0.041 -0.434,0.413 -0.537,1.136c0.02,0.145 0.413,0.269 1.177,0.372c0.083,-0.021 0.103,-0.062 0.103,-0.124l0.682,0.041c0.207,-0.02 0,-0.041 1.818,-0.268c1.033,-0.021 0.868,0.02 1.178,0l0.207,-0.124c0.124,0.062 -0.124,0.124 0.041,0.103l0.021,0c0.268,-0.021 0.599,-0.083 0.991,-0.186c0.083,0 0.124,0.041 0.124,0.103l0.682,-0.165l1.033,-0.083c0.083,0 0.124,0.042 0.124,0.104c0.124,-0.083 0.227,-0.124 0.31,-0.124c1.674,-0.145 1.343,-0.186 2.583,-0.455c0.062,0 0.103,0.042 0.103,0.104l2.389,-0.382c0.013,-0.007 0.033,-0.011 0.069,-0.011l-0.069,0.011Zm-86.684,11.27l0.02,0.124c0.166,-0.042 0.228,-0.124 0.186,-0.29l-0.02,-0.124c-0.145,0.042 -0.207,0.124 -0.186,0.29Zm-22.954,-2.252l0.021,0.144c0.02,0.207 -0.083,0.331 -0.29,0.352l-0.02,-0.145c-0.021,-0.186 0.082,-0.31 0.289,-0.351Zm0.95,-2.087m0,0c-0.206,1.054 -0.434,1.591 -0.661,1.611l-0.021,-0.144c-0.041,-0.537 0.186,-1.013 0.682,-1.467Zm46.693,0.227l0.248,0.104c-0.083,0.723 -0.31,1.095 -0.64,1.115c-0.29,-0.124 -0.538,-0.186 -0.765,-0.165l-0.021,-0.351c-0.02,-0.124 0.062,-0.207 0.228,-0.248c0.165,-0.021 0.248,0.103 0.268,0.33c0.414,-0.516 0.641,-0.785 0.682,-0.785Zm6.57,-1.859c0,0.062 -0.228,0.248 -0.744,0.496c-0.165,0.02 -0.248,-0.062 -0.268,-0.207c0.082,-0.331 0.434,-0.517 1.074,-0.578l0,-0.104l-0.372,0.042c-1.343,0.537 -2.066,0.867 -2.148,1.012l0.764,-0.062l0.021,0.227c-0.93,0.248 -1.571,0.455 -1.942,0.641c-0.31,-0.124 -0.641,-0.166 -0.992,-0.145c-0.393,0.248 -0.579,0.558 -0.537,0.971c0.268,0.145 0.496,0.207 0.64,0.186c0.641,-0.372 1.942,-0.95 3.946,-1.735c-0.02,-0.186 1.095,-0.682 3.347,-1.467c0.372,-0.352 1.612,-1.033 3.678,-2.066c0.723,-0.496 1.054,-0.806 1.054,-0.909l-0.021,-0.228c-4.091,2.459 -6.591,3.76 -7.5,3.926Zm-4.07,0.475c-0.165,0.041 -0.248,0.124 -0.227,0.248l0.248,-0.021c0.165,-0.082 0.289,-0.144 0.372,-0.144l-0.021,-0.124l-0.372,0.041Zm45.04,-0.579l0.021,0.124l3.801,-0.309l-0.02,-0.228l-3.037,0.248l-0.641,-0.082l-0.124,0.247Zm4.256,-0.454l0.021,0.227l-0.041,0l-0.021,-0.227l0.041,0Zm-43.222,-0.661c-0.02,-0.145 -0.103,-0.207 -0.268,-0.186c-0.414,0.413 -0.951,0.64 -1.55,0.702l0.021,0.228l0.124,-0.021c0.826,-0.455 1.384,-0.703 1.673,-0.723Zm-0.682,-9.442c-3.223,6.363 -4.875,9.752 -4.958,10.186l0.124,-0.021c0.909,-0.083 3.223,-1.136 6.942,-3.182c0.206,-0.02 1.467,-0.785 3.801,-2.314l3.12,-2.52c0.682,-0.29 1.302,-1.24 1.86,-2.852l-0.042,-0.454c-0.764,-0.723 -1.9,-1.012 -3.429,-0.888l-0.765,0.061c-3.037,1.199 -5.248,1.86 -6.653,1.984Zm20.909,9.338c0.021,0.145 -0.227,0.31 -0.702,0.476l-0.91,-0.062l-0.289,0.02l-0.02,-0.268l1.921,-0.166Zm25.206,0.434l-0.083,0l-0.02,-0.227l0.082,0l0.021,0.227Zm-24.318,-0.351l0.021,0.124l-0.744,0.062l-0.02,-0.124l0.743,-0.062Zm25.772,-0.27l-0.008,0.002l0.021,0.124l0.62,-0.062c0.082,0 0.124,0.041 0.124,0.123c0.082,-0.082 0.351,-0.144 0.764,-0.185l-0.021,-0.124l-1.446,0.124c-0.048,0.006 -0.06,0.005 -0.054,-0.002l0.035,-0.024c0.029,-0.02 0.056,-0.049 -0.002,-0.078c-0.067,0.045 -0.024,0.066 0.002,0.078c-0.015,0.011 -0.031,0.019 -0.035,0.024Zm-9.842,-0.205l-0.248,0.021l0,0.103c0.041,0.165 0.144,0.248 0.268,0.227l-0.02,-0.351Zm16.796,-0.18l0.621,0.015l0.02,0.248l-0.33,0.02c-0.042,0 -0.083,-0.041 -0.083,-0.124c-0.124,0.104 0.145,0.083 -0.331,0.186l-0.035,-0.065c0.063,-0.022 0.13,-0.047 0.221,-0.079l-0.083,-0.201l-0.219,-0.005c0.058,-0.012 0.124,-0.025 0.199,-0.042l0.02,0.047Zm0.889,-0.13c0.599,-0.062 0.971,0.062 3.822,-0.578l0,0.103c0.042,0.33 -0.289,0.206 -3.119,0.516l-0.305,0.122l0.036,0.023l-0.124,0.012l-0.021,0.009l-0.001,-0.006l0.022,-0.003l0.088,-0.035l-0.129,-0.08l0.019,0.118l-0.267,0.026l-0.021,-0.227Zm4.421,-0.393l0.414,0.083l-0.021,-0.227l-0.413,-0.083l0.02,0.227Zm-65.018,-0.413m0,0l0,0.104c0.02,0.165 -0.062,0.268 -0.228,0.268l-0.02,-0.124c0,-0.103 0.082,-0.206 0.248,-0.248Zm52.85,-0.471l1.941,-0.169c-0.02,-0.145 -0.082,-0.227 -0.206,-0.207c-0.372,0.042 -0.289,0.062 -1.054,0.207c-0.082,0 -0.124,-0.042 -0.124,-0.104l-0.661,0.145l-0.723,0.062l0.021,0.124l0.805,-0.062l0.001,0.004l-0.187,0.017l0.207,0.103l-0.02,-0.12Zm-52.107,-1.12c-0.165,0.786 -0.33,1.199 -0.495,1.199l0,-0.104c-0.062,-0.371 0.103,-0.743 0.495,-1.095Zm54.854,0.662l0,0.103c-0.062,0 0.207,0.021 0.083,0.124c-0.455,-0.042 -0.475,-0.083 -0.806,-0.062l0,-0.103l0.723,-0.062Zm-34.482,-1.881m0,0c0.02,0.269 -0.166,0.93 -0.537,2.005l-0.455,0.041c-0.021,-0.186 0.227,-0.847 0.703,-2.004l0.289,-0.042Zm35.019,1.819l0,0.103l-0.392,0.041l0,-0.103l0.392,-0.041Zm1.054,0.082c0,-0.165 -0.124,-0.289 -0.31,-0.268c-0.103,0.103 -0.206,0.144 -0.268,0.165l0,0.103l0.578,0Zm1.384,-0.454l0.166,0.206c0,-0.062 0.02,-0.103 0.082,-0.103l0.124,0.227l-0.516,-0.062c-0.042,-0.165 0.02,-0.248 0.144,-0.268Zm-0.372,0.124l0.021,0.124l-0.475,0.041l-0.021,-0.124l0.475,-0.041Zm10.31,-0.558c0.124,0 0.475,0.041 0.496,0.186l-0.558,0.041l-0.021,-0.227l0.083,0Zm-0.661,-0.537l0.021,0.227l-0.042,0l-0.392,0.145l0.206,-0.248l0,-0.018l0.051,-0.044c0.034,-0.02 0.074,-0.041 0.104,-0.062l0.052,0Zm-0.207,0.096l0,-0.076c0.186,-0.02 0.021,-0.041 0.083,-0.144c0.165,0.031 0.139,0.077 0.072,0.124l-0.031,0l-0.073,0.062c-0.02,0.012 -0.038,0.023 -0.051,0.034l0,0.01l-0.02,0.018c0,-0.009 0.008,-0.018 0.02,-0.028Zm-20.908,-0.799c0,-0.104 0.083,-0.413 0.289,-0.971l0.248,0.083c-0.165,0.64 -0.351,0.971 -0.537,0.991l0,-0.103Zm-25.351,-0.351l0.021,0.124c0.021,0.186 -0.083,0.289 -0.289,0.31l-0.021,-0.124c-0.021,-0.165 0.083,-0.248 0.289,-0.31Zm-43.883,-0.599l0.579,-0.124l0.062,0.227c-0.248,0.062 -0.062,0.062 -0.372,0.207c-0.599,0.062 -0.475,-0.021 -1.426,0.206l-0.02,-0.124l1.177,-0.392Zm1.571,-0.269l-0.372,0.083c0.062,0.165 0.165,0.227 0.31,0.186l0.351,-0.083c-0.021,-0.165 -0.124,-0.227 -0.289,-0.186Zm-1.364,-0.289c-0.752,0.178 -0.943,0.202 -1.369,0.263c-0.016,0.063 -0.033,0.126 -0.051,0.188l1.441,-0.327l-0.021,-0.124Zm-16.797,-0.992l0.021,0.145l-0.662,0.062l-0.02,-0.145l0.661,-0.062Zm14.875,-0.02l0.021,0.124l-0.392,0.082l-0.021,-0.124l0.392,-0.082Zm67.685,-0.186l0.123,0.227c0.186,-0.021 0.269,-0.103 0.248,-0.248l-0.02,-0.124l-0.124,0.021l-0.227,0.124Zm-68.21,-0.271l0.009,0.002l0.227,-0.186c0.034,-0.008 0.063,-0.014 0.09,-0.017l-0.007,-0.004l0.15,-0.035c-0.052,-0.126 -0.216,-0.252 -0.522,-0.378l0.053,0.618Zm0.486,-0.163c-0.027,-0.035 -0.079,-0.048 -0.16,-0.038l0.163,0.072l-0.003,-0.034Zm13.345,-1.013l0.186,0.207c-0.269,0.062 -0.475,0.145 -0.579,0.248l-0.268,-0.041c-0.413,0.165 -0.785,0.289 -1.075,0.351l-0.248,0.062c-0.144,0.041 -0.247,-0.021 -0.309,-0.165l1.714,-0.393l0.579,-0.269Zm-19.008,0.062c0.455,0.207 0.682,0.414 0.703,0.579l0.02,0.144c-0.434,0.042 -0.826,-0.185 -1.198,-0.681l0.475,-0.042Zm9.153,0.186l0.289,-0.062l-0.062,-0.248l-0.289,0.062l0.062,0.248Zm11.074,-0.516l1.219,-0.289l0.021,0.124c-0.662,0.144 -1.178,0.309 -1.55,0.495l-0.021,-0.124c0.104,-0.02 0.207,-0.103 0.331,-0.206Zm-7.293,-0.475l0.062,0.227l-0.62,0.041l-0.021,-0.124l0.579,-0.144Zm-23.512,-0.269l0.021,0.289l-0.641,0.062l-0.021,-0.289l0.641,-0.062Zm60.308,-1.488l0.083,0.951c-0.124,0.227 -0.227,0.351 -0.351,0.372l-0.145,-1.612c0.269,0.083 0.413,0.186 0.413,0.289Zm-11.26,0.517l0.021,0.124l-0.496,0.041l-0.021,-0.124l0.496,-0.041Zm-35.929,-0.785l0.682,0.413c0.021,0.207 -0.082,0.331 -0.289,0.351c-0.289,-0.186 -0.517,-0.268 -0.682,-0.268l-0.041,-0.455l0.33,-0.041Zm-12.251,-1.88c-0.599,0.909 -0.847,1.653 -0.806,2.252l0.021,0.289c0.248,-0.021 0.454,0 0.661,0.103c4.111,-1.797 6.487,-2.706 7.128,-2.768c1.942,-1.24 3.119,-2.128 3.553,-2.645c0.145,-0.02 0.496,-0.413 1.054,-1.177c0.62,-0.062 1.611,-1.116 2.996,-3.182l0.082,-0.93l0.331,-0.021c0.021,0.31 0.145,0.455 0.351,0.434c0.517,-0.64 0.744,-1.177 0.703,-1.611c-0.042,-0.641 -0.476,-1.178 -1.281,-1.612l-0.331,0.021l0.062,0.785l-0.31,0.021c-0.124,-1.343 -1.529,-1.88 -4.256,-1.653c-0.351,0.041 -1.26,0.165 -2.748,0.392l-0.041,-0.433l-0.496,0.041c-1.508,0.248 -2.231,0.62 -2.19,1.095l-3.43,7.706c-0.392,0.228 -0.743,1.199 -1.053,2.893Zm31.693,1.425c-1.859,0.434 -2.768,0.765 -2.707,0.992c0.331,-0.062 0.496,-0.062 0.517,0.021c0.145,-0.124 0.269,-0.186 0.351,-0.207c0.145,-0.041 0.868,-0.248 2.17,-0.64l-0.062,-0.228l-0.269,0.062Zm-36.197,-0.103l-0.083,0.764l-0.165,0.021l-0.062,-0.764l0.31,-0.021Zm59.667,0.145c0.352,0.165 0.517,0.31 0.538,0.434l0,0.103c-0.331,0.02 -0.641,-0.145 -0.93,-0.517l0.392,-0.02Zm-21.569,-5.207l-0.289,-0.041c-2.438,3.161 -3.616,4.814 -3.595,4.938l0.082,0.33c0.166,0.062 0.331,0.062 0.517,0.021l0.372,-0.083l0.826,-0.31l0.021,0.124c0.929,-0.227 1.467,-1.074 1.591,-2.562c0.413,-1.177 0.578,-1.983 0.475,-2.417Zm13.532,4.36l0.021,0.227l-0.496,0.041l-0.02,-0.227l0.495,-0.041Zm-50.928,-0.744m0,0l0.021,0.144l-0.289,0.496l-0.31,0.021l-0.021,-0.145c0.31,-0.02 0.455,-0.186 0.434,-0.496l0.165,-0.02Zm60.887,-0.579l-0.227,0.021l0,0.351c0.124,-0.02 0.289,0.042 0.516,0.186c0.165,0 0.248,-0.103 0.227,-0.248l-0.516,-0.31Zm-9.318,-1.425c-0.434,0.702 -0.641,1.26 -0.599,1.694l0.02,0.227c0.166,-0.021 0.352,0 0.496,0.062c3.12,-1.363 4.918,-2.066 5.413,-2.107c1.467,-0.93 2.356,-1.612 2.686,-2.004c0.124,0 0.393,-0.29 0.806,-0.868c0.475,-0.041 1.219,-0.847 2.273,-2.438l0.082,-0.702l0.248,-0.021c0.021,0.227 0.104,0.351 0.269,0.33c0.351,-0.495 0.516,-0.909 0.496,-1.239c-0.042,-0.475 -0.352,-0.868 -0.951,-1.198l-0.248,0.02l0.042,0.558l-0.248,0.021c-0.083,-0.992 -1.157,-1.426 -3.223,-1.24c-0.29,0.021 -0.971,0.124 -2.087,0.31l-0.021,-0.351l-0.372,0.041c-1.136,0.207 -1.673,0.496 -1.652,0.847l-2.624,5.868c-0.29,0.165 -0.558,0.888 -0.806,2.19Zm-3.492,1.591l0.083,-0.6l-0.227,0l0.041,0.6l0.103,0Zm-47.395,-1.199c-0.041,0.517 -0.165,0.785 -0.434,0.806l-0.165,0.021c0.186,-0.352 0.289,-0.599 0.268,-0.785l0.331,-0.042Zm47.994,-0.496l-0.103,0c0.021,0.248 -0.103,0.372 -0.351,0.393l0.021,0.124l0.248,-0.021l0.206,-0.372l-0.021,-0.124Zm-47.601,-0.619l0.061,0.619l-0.165,0.021l-0.062,-0.62l0.166,-0.02Zm48.139,-0.6m0,0c-0.021,0.393 -0.124,0.6 -0.31,0.62l-0.124,0.021c0.144,-0.269 0.206,-0.475 0.186,-0.62l0.248,-0.021Zm0.289,-0.847l0.041,0.455l-0.124,0.021l-0.041,-0.455l0.124,-0.021Zm-46.9,-1.776l0.042,0.454c-0.145,0.021 -0.352,0.227 -0.599,0.661l-0.021,-0.31c0.289,-0.351 0.434,-0.619 0.434,-0.805l0.144,0Zm-9.979,0.247l0.021,0.145c-0.103,0 -0.269,0.083 -0.475,0.186l-0.165,0.021l-0.021,-0.29l0.64,-0.062Zm58.057,-0.909l-0.145,0c0,0.145 -0.103,0.352 -0.31,0.62l0.021,0.228c0.186,-0.31 0.33,-0.496 0.454,-0.496l-0.02,-0.352Zm-7.934,0.455c0.165,-0.083 0.289,-0.145 0.372,-0.145l-0.021,-0.124l-0.475,0.042l0.021,0.227l0.103,0Zm32.706,-0.723c0.103,-0.372 0.248,-0.558 0.413,-0.579l0.02,0.269c-0.082,0.186 -0.103,0.33 -0.103,0.434l-0.31,0.02l-0.02,-0.144Zm18.243,-1.922c0.02,0.145 -0.083,0.476 -0.269,0.971l-0.124,0.021l-0.02,-0.351c0.144,-0.413 0.289,-0.62 0.413,-0.641Zm0.392,-1.343c-0.082,0.248 -0.206,0.372 -0.33,0.393l0.062,0.826l0.124,-0.02c-0.021,-0.186 0.082,-0.434 0.31,-0.744l-0.042,-0.599c0.29,-0.041 0.496,-0.517 0.62,-1.467l-0.021,-0.124c-0.227,0.145 -0.475,0.723 -0.723,1.735Zm-28.098,0.91l0.021,0.247c-0.124,0 -0.352,-0.371 -0.723,-1.115l-0.021,-0.227c0.227,-0.021 0.475,0.351 0.723,1.095Zm-43.201,-0.145l0.02,0.289c-0.165,0.021 -0.475,-0.475 -0.929,-1.467l-0.021,-0.289c0.289,-0.041 0.599,0.455 0.93,1.467Zm42.87,-2.293c-0.062,-0.724 -1.26,-1.116 -3.594,-1.219l3.47,1.467l0.124,-0.248Zm29.462,-0.951l0.124,-0.02c-0.186,0.33 -0.33,0.516 -0.475,0.537l-0.02,-0.352c0.103,-0.02 0.227,-0.062 0.371,-0.165Zm-12.747,0.269l0,0.124l-1.054,0.103l0,-0.124l1.054,-0.103Zm-60.019,-0.248c-0.083,-0.951 -1.653,-1.488 -4.711,-1.612l4.587,1.922l0.124,-0.31Zm61.362,-0.041l-0.517,0.062l0.021,0.268l0.785,-0.083c-0.021,-0.185 -0.103,-0.268 -0.289,-0.247Zm1.999,-0.254l0.935,-0.263c0.371,0.041 0.557,0.124 0.557,0.227c0.331,-0.124 0.724,-0.206 1.178,-0.248l-0.021,-0.144l-0.95,-0.042l-1.859,0.31l-0.806,-0.062c0,0.062 0.081,0.148 0.244,0.256l-2.909,0.137l0.02,0.145l4.835,-0.228l-0.021,-0.144l-1.203,0.056l-0.532,0.15c-0.073,-0.041 -0.136,-0.08 -0.19,-0.116l0.722,-0.034Zm12.348,-3.155c-0.382,0.183 -0.733,0.431 -1.042,0.723c-0.032,0.01 -0.124,0.01 -0.27,-0.001c-0.096,0.391 -0.351,1.117 -0.763,2.17l0.517,0.331c0.699,-0.72 1.225,-1.788 1.558,-3.223Zm-15.07,2.789l0.02,0.144l-0.537,0.042l-0.021,-0.145l0.538,-0.041Zm2.665,-0.393l0,0.124l-0.93,0.083l0,-0.124l0.93,-0.083Zm-10.392,-0.599l0.165,-0.021l0.31,0.124c0.02,0.186 -0.083,0.29 -0.269,0.29l-0.454,0.041l-0.021,-0.145c-0.021,-0.144 0.083,-0.227 0.269,-0.289Zm-3.244,0.289l0.454,-0.041l-0.02,-0.269l-0.455,0.042l0.021,0.268Zm9.462,-1.115c-0.516,0.144 -0.805,0.248 -1.714,0.309l0.02,0.124l0.7,0.078c-0.013,0.002 -0.026,0.004 -0.039,0.005l0.083,0l-0.044,-0.005c0.173,-0.024 0.343,-0.086 0.478,-0.202c0.145,0.083 0.33,0.124 0.537,0.104l0.269,-0.021l-0.021,-0.268c-0.165,0.02 -0.269,-0.021 -0.269,-0.124Zm0.682,-0.062l0.145,-0.021l0.021,0.269l-0.414,0.041c0,-0.145 0.062,-0.248 0.248,-0.289Zm1.591,-0.166l-1.178,0.124l-0.124,0.29l0.145,-0.021c0.475,-0.145 0.868,-0.227 1.178,-0.248l-0.021,-0.145Z" style="fill-rule:nonzero;"/><path d="M146.67,488.649l293.974,0" style="fill:none;stroke:#a0c9dc;stroke-width:7px;"/><path d="M457.559,488.649l-18,15l0,-30l18,15Z" style="fill:#a0c9dc;"/><path d="M146.67,554.781l293.974,0" style="fill:none;stroke:#b5ace7;stroke-width:7px;"/><path d="M146.67,141.7l93.916,0" style="fill:none;stroke:#a0c9dc;stroke-width:7px;"/><path d="M146.67,212.144l66.76,0" style="fill:none;stroke:#b5ace7;stroke-width:7px;"/><path d="M146.67,212.144l93.916,0" style="fill:none;stroke:#b5ace7;stroke-width:7px;"/><path d="M146.67,394.629l93.916,0" style="fill:none;stroke:#b5ace7;stroke-width:7px;"/><path d="M336.181,323.184l103.378,0" style="fill:none;stroke:#a0c9dc;stroke-width:7px;"/><path d="M334.962,212.144l104.597,0" style="fill:none;stroke:#b5ace7;stroke-width:7px;"/><path d="M334.962,212.144l104.597,0" style="fill:none;stroke:#b5ace7;stroke-width:7px;"/><path d="M334.962,394.629l104.597,0" style="fill:none;stroke:#b5ace7;stroke-width:7px;"/><path d="M540.499,323.184l68.103,0" style="fill:none;stroke:#a0c9dc;stroke-width:7px;"/><path d="M540.499,212.144l68.103,0" style="fill:none;stroke:#b5ace7;stroke-width:7px;"/><path d="M540.499,394.629l68.103,0" style="fill:none;stroke:#b5ace7;stroke-width:7px;"/><path d="M540.499,554.781l68.103,0" style="fill:none;stroke:#b5ace7;stroke-width:7px;"/><path d="M146.67,323.184l93.916,0" style="fill:none;stroke:#a0c9dc;stroke-width:7px;"/><path d="M457.559,554.781l-18,15l0,-30l18,15Z" style="fill:#b5ace7;"/><path d="M256.247,141.7l-18,15l0,-30l18,15Z" style="fill:#a0c9dc;"/><path d="M256.247,212.144l-18,15l0,-30l18,15Z" style="fill:#b5ace7;"/><path d="M256.247,212.144l-18,15l0,-30l18,15Z" style="fill:#b5ace7;"/><path d="M256.247,394.629l-18,15l0,-30l18,15Z" style="fill:#b5ace7;"/><path d="M457.559,323.184l-18,15l0,-30l18,15Z" style="fill:#a0c9dc;"/><path d="M457.559,212.144l-18,15l0,-30l18,15Z" style="fill:#b5ace7;"/><path d="M457.559,212.144l-18,15l0,-30l18,15Z" style="fill:#b5ace7;"/><path d="M457.559,394.629l-18,15l0,-30l18,15Z" style="fill:#b5ace7;"/><path d="M626.602,323.184l-18,15l0,-30l18,15Z" style="fill:#a0c9dc;"/><path d="M626.602,212.144l-18,15l0,-30l18,15Z" style="fill:#b5ace7;"/><path d="M626.602,394.629l-18,15l0,-30l18,15Z" style="fill:#b5ace7;"/><path d="M626.602,554.781l-18,15l0,-30l18,15Z" style="fill:#b5ace7;"/><path d="M256.247,323.184l-18,15l0,-30l18,15Z" style="fill:#a0c9dc;"/><g id="check"><path id="check1" serif:id="check" d="M288.586,332.521l-8.344,-8.345l-2.842,2.822l11.186,11.186l24.014,-24.013l-2.822,-2.822l-21.192,21.172Z" style="fill:#0da200;"/></g><g id="check2" serif:id="check"><path id="check3" serif:id="check" d="M288.586,221.481l-8.344,-8.345l-2.842,2.822l11.186,11.186l24.014,-24.013l-2.822,-2.822l-21.192,21.172Z" style="fill:#0da200;"/></g><g id="check4" serif:id="check"><path id="check5" serif:id="check" d="M288.586,221.481l-8.344,-8.345l-2.842,2.822l11.186,11.186l24.014,-24.013l-2.822,-2.822l-21.192,21.172Z" style="fill:#0da200;"/></g><g id="check6" serif:id="check"><path id="check7" serif:id="check" d="M288.586,403.966l-8.344,-8.345l-2.842,2.822l11.186,11.186l24.014,-24.014l-2.822,-2.821l-21.192,21.172Z" style="fill:#0da200;"/></g><g id="check8" serif:id="check"><path id="check9" serif:id="check" d="M488.586,221.481l-8.344,-8.345l-2.842,2.822l11.186,11.186l24.014,-24.013l-2.822,-2.822l-21.192,21.172Z" style="fill:#0da200;"/></g><g id="check10" serif:id="check"><path id="check11" serif:id="check" d="M488.586,332.521l-8.344,-8.345l-2.842,2.822l11.186,11.186l24.014,-24.013l-2.822,-2.822l-21.192,21.172Z" style="fill:#0da200;"/></g><g id="check12" serif:id="check"><path id="check13" serif:id="check" d="M488.586,403.966l-8.344,-8.345l-2.842,2.822l11.186,11.186l24.014,-24.014l-2.822,-2.821l-21.192,21.172Z" style="fill:#0da200;"/></g><g id="check14" serif:id="check"><path id="check15" serif:id="check" d="M488.586,564.118l-8.344,-8.345l-2.842,2.822l11.186,11.186l24.014,-24.013l-2.822,-2.822l-21.192,21.172Z" style="fill:#0da200;"/></g><g id="cross"><path id="cross1" serif:id="cross" d="M309,129.52l-2.82,-2.82l-11.18,11.18l-11.18,-11.18l-2.82,2.82l11.18,11.18l-11.18,11.18l2.82,2.82l11.18,-11.18l11.18,11.18l2.82,-2.82l-11.18,-11.18l11.18,-11.18Z" style="fill:#f00;"/></g><g id="cross2" serif:id="cross"><path id="cross3" serif:id="cross" d="M509,477.469l-2.82,-2.82l-11.18,11.18l-11.18,-11.18l-2.82,2.82l11.18,11.18l-11.18,11.18l2.82,2.82l11.18,-11.18l11.18,11.18l2.82,-2.82l-11.18,-11.18l11.18,-11.18Z" style="fill:#f00;"/></g><text x="640.667px" y="328.238px" style="font-family:'ArialMT', 'Arial', sans-serif;font-size:20px;fill:#5498b9;">application-server<tspan x="797.415px 802.971px " y="328.238px 328.238px ">.j</tspan>s</text><text x="581.721px" y="493.942px" style="font-family:'ArialMT', 'Arial', sans-serif;font-size:20px;fill:#5498b9;">will use node_modules folder</text><text x="146.055px" y="165.305px" style="font-family:'ArialMT', 'Arial', sans-serif;font-size:20px;fill:#5498b9;">server</text><text x="640.667px" y="218.78px" style="font-family:'ArialMT', 'Arial', sans-serif;font-size:20px;fill:#7e6ed6;">application-client.css</text><text x="145.177px" y="242.461px" style="font-family:'ArialMT', 'Arial', sans-serif;font-size:20px;fill:#7e6ed6;">client</text><text x="640.667px" y="401.265px" style="font-family:'ArialMT', 'Arial', sans-serif;font-size:20px;fill:#7e6ed6;">application-client.js</text><text x="640.667px" y="561.418px" style="font-family:'ArialMT', 'Arial', sans-serif;font-size:20px;fill:#7e6ed6;">vendor<tspan x="700.716px 706.272px " y="561.418px 561.418px ">.a</tspan>pplication-client.js</text></svg>