<?xml version="1.0" encoding="UTF-8" standalone="no"?><!DOCTYPE svg PUBLIC "-//W3C//DTD SVG 1.1//EN" "http://www.w3.org/Graphics/SVG/1.1/DTD/svg11.dtd"><svg width="100%" height="100%" viewBox="0 0 860 500" version="1.1" xmlns="http://www.w3.org/2000/svg" xmlns:xlink="http://www.w3.org/1999/xlink" xml:space="preserve" xmlns:serif="http://www.serif.com/" style="fill-rule:evenodd;clip-rule:evenodd;stroke-linecap:round;stroke-linejoin:round;stroke-miterlimit:1.5;"><rect id="configuration" x="0" y="0" width="860" height="500" style="fill:none;"/><g id="file-shared"><path d="M410,110.007c0,-5.523 -4.484,-10.007 -10.007,-10.007l-59.986,0c-5.523,0 -10.007,4.484 -10.007,10.007l0,79.986c0,5.523 4.484,10.007 10.007,10.007l59.986,0c5.523,0 10.007,-4.484 10.007,-10.007l0,-79.986Z" style="fill:#ffe5f2;"/><path d="M345,120l50,0" style="fill:none;stroke:#ffbfdd;stroke-width:7px;"/><path d="M345,140l50,0" style="fill:none;stroke:#ffbfdd;stroke-width:7px;"/><path d="M345,160l30,0" style="fill:none;stroke:#ffbfdd;stroke-width:7px;"/></g><text x="486.636px" y="304.561px" style="font-family:'ArialMT', 'Arial', sans-serif;font-size:20px;fill:#7e6ed6;">conﬁg-client.js</text><text x="482.749px" y="154.561px" style="font-family:'ArialMT', 'Arial', sans-serif;font-size:20px;fill:#5498b9;">conﬁg-server<tspan x="597.241px 602.798px " y="154.561px 154.561px ">.j</tspan>s</text><text x="694.253px" y="139.561px" style="font-family:'ArialMT', 'Arial', sans-serif;font-size:20px;fill:#5498b9;">server bundle</text><text x="698.691px" y="291.426px" style="font-family:'ArialMT', 'Arial', sans-serif;font-size:20px;fill:#7e6ed6;">client bundle</text><text x="703.706px" y="470.16px" style="font-family:'ArialMT', 'Arial', sans-serif;font-size:20px;fill:#4b4b77;">test context</text><g id="_-webpack" serif:id="©webpack"><path d="M66.474,115.696l28.886,16.339l0,32.686l-28.886,16.34l-28.887,-16.34l0,-32.686l28.887,-16.339Z" style="fill:#fff;"/><path d="M90.202,163.594l-22.773,12.884l0,-10.032l14.19,-7.808l8.583,4.956Zm1.56,-1.411l0,-26.938l-8.33,4.814l0,17.318l8.33,4.806Zm-49.107,1.411l22.774,12.884l0,-10.032l-14.197,-7.808l-8.577,4.956Zm-1.56,-1.411l0,-26.938l8.33,4.814l0,17.318l-8.33,4.806Zm0.978,-28.685l23.356,-13.211l0,9.696l-14.966,8.233l-0.12,0.067l-8.27,-4.785Zm48.712,0l-23.356,-13.211l0,9.696l14.966,8.225l0.119,0.068l8.271,-4.778Z" style="fill:#8ed6fb;"/><path d="M65.429,164.162l-14.003,-7.704l0,-15.249l14.003,8.084l0,14.869Zm2,0l14.003,-7.696l0,-15.257l-14.003,8.084l0,14.869Zm-15.055,-24.715l14.055,-7.725l14.055,7.725l-14.055,8.114l-14.055,-8.114Z" style="fill:#1c78c0;"/><path d="M124.493,158.713l6.158,0l6.278,-20.915l-6.002,0l-3.717,14.839l-3.963,-14.839l-5.196,0l-4,14.839l-3.68,-14.839l-6.001,0l6.24,20.915l6.158,0l3.881,-13.399l3.844,13.399Zm12.757,-10.398c0,6.277 4.277,10.92 11.002,10.92c5.202,0 8.001,-3.12 8.8,-4.598l-3.642,-2.762c-0.598,0.881 -2.24,2.561 -5.084,2.561c-3.082,0 -5.322,-2.001 -5.441,-4.8l14.727,0c0.037,-0.403 0.037,-0.799 0.037,-1.202c0,-6.837 -3.68,-11.159 -10.159,-11.159c-5.963,0 -10.24,4.718 -10.24,11.04Zm5.799,-2.284c0.239,-2.396 1.919,-4.24 4.524,-4.24c2.522,0 4.359,1.68 4.478,4.24l-9.002,0Zm16.683,12.682l5.202,0l0,-2.158c0.56,0.68 2.643,2.68 6.203,2.68c6.001,0 10.241,-4.516 10.241,-10.957c0,-6.479 -3.919,-10.995 -9.92,-10.995c-3.598,0 -5.68,2 -6.203,2.717l0,-10.204l-5.516,0l0,28.917l-0.007,0Zm5.359,-10.398c0,-3.919 2.322,-6.158 5.359,-6.158c3.203,0 5.36,2.523 5.36,6.158c0,3.717 -2.239,6.039 -5.36,6.039c-3.358,0 -5.359,-2.725 -5.359,-6.039Zm18.437,17.877l5.516,0l0,-9.644c0.522,0.679 2.597,2.68 6.203,2.68c6.001,0 9.92,-4.516 9.92,-10.995c0,-6.397 -4.24,-10.958 -10.241,-10.958c-3.561,0 -5.643,2.001 -6.203,2.717l0,-2.202l-5.203,0l0,28.402l0.008,0Zm5.359,-17.996c0,-3.322 2.001,-6.039 5.359,-6.039c3.121,0 5.36,2.321 5.36,6.039c0,3.642 -2.157,6.158 -5.36,6.158c-3.037,0 -5.359,-2.24 -5.359,-6.158Zm17.28,4.038c0,4.396 3.598,7.001 7.837,7.001c2.404,0 4.001,-0.716 5.083,-1.881l0.359,1.359l4.881,0l0,-13.242c0,-4.68 -2,-8.196 -8.718,-8.196c-3.202,0 -6.359,1.202 -8.24,2.478l2.082,3.762c1.56,-0.798 3.478,-1.477 5.561,-1.477c2.441,0 3.799,1.239 3.799,3.082l0,1.359c-0.761,-0.523 -2.403,-1.157 -4.523,-1.157c-4.882,-0.008 -8.121,2.791 -8.121,6.912Zm5.516,-0.165c0,-1.716 1.478,-2.918 3.598,-2.918c2.12,0 3.642,1.082 3.642,2.918c0,1.762 -1.522,2.882 -3.598,2.882c-2.075,0 -3.642,-1.157 -3.642,-2.882Zm26.043,2.285c-3.479,0 -5.957,-2.523 -5.957,-6.076c0,-3.359 2.202,-6.121 5.763,-6.121c2.358,0 3.963,1.157 4.881,2l1.56,-4.642c-1.358,-1.038 -3.523,-2.24 -6.598,-2.24c-6.36,0 -11.122,4.68 -11.122,11.04c0,6.359 4.643,10.92 11.159,10.92c3.038,0 5.322,-1.276 6.516,-2.239l-1.477,-4.516c-0.926,0.754 -2.605,1.874 -4.725,1.874Zm8.278,4.359l5.516,0l0,-10.801l7.001,10.801l6.479,0l-7.92,-11.443l7.36,-9.48l-6.203,0l-6.717,8.801l0,-16.795l-5.516,0l0,28.917Z" style="fill:#1c78c0;fill-rule:nonzero;"/></g><g id="bundle-server"><path d="M754.736,40.401l35,19.797l0,39.604l-35,19.797l-35,-19.797l0,-39.604l35,-19.797Z" style="fill:#fff;fill-rule:nonzero;"/><path d="M783.487,98.436l-27.593,15.61l0,-12.155l17.192,-9.46l10.401,6.005Zm1.89,-1.709l0,-32.64l-10.093,5.834l0,20.981l10.093,5.825Zm-59.5,1.709l27.593,15.61l0,-12.155l-17.201,-9.46l-10.392,6.005Zm-1.89,-1.709l0,-32.64l10.093,5.834l0,20.981l-10.093,5.825Zm1.185,-34.756l28.298,-16.008l0,11.748l-18.133,9.976l-0.145,0.081l-10.02,-5.797Zm59.02,0l-28.298,-16.008l0,11.748l18.133,9.967l0.145,0.081l10.02,-5.788Z" style="fill:#dcebf2;fill-rule:nonzero;"/><path d="M753.47,99.123l-16.966,-9.333l0,-18.477l16.966,9.795l0,18.015Zm2.424,0l16.966,-9.324l0,-18.486l-16.966,9.795l0,18.015Zm-18.242,-29.944l17.03,-9.361l17.03,9.361l-17.03,9.831l-17.03,-9.831Z" style="fill:#5498b9;fill-rule:nonzero;"/></g><g id="bundle-server1" serif:id="bundle-server"><path d="M754.736,190.401l35,19.797l0,39.604l-35,19.797l-35,-19.797l0,-39.604l35,-19.797Z" style="fill:#fff;fill-rule:nonzero;"/><path d="M783.487,248.436l-27.593,15.61l0,-12.155l17.192,-9.46l10.401,6.005Zm1.89,-1.709l0,-32.64l-10.093,5.834l0,20.981l10.093,5.825Zm-59.5,1.709l27.593,15.61l0,-12.155l-17.201,-9.46l-10.392,6.005Zm-1.89,-1.709l0,-32.64l10.093,5.834l0,20.981l-10.093,5.825Zm1.185,-34.756l28.298,-16.008l0,11.748l-18.133,9.976l-0.145,0.081l-10.02,-5.797Zm59.02,0l-28.298,-16.008l0,11.748l18.133,9.967l0.145,0.081l10.02,-5.788Z" style="fill:#d9d3f9;fill-rule:nonzero;"/><path d="M753.47,249.123l-16.966,-9.333l0,-18.477l16.966,9.795l0,18.015Zm2.424,0l16.966,-9.324l0,-18.486l-16.966,9.795l0,18.015Zm-18.242,-29.944l17.03,-9.361l17.03,9.361l-17.03,9.831l-17.03,-9.831Z" style="fill:#7e6ed6;fill-rule:nonzero;"/></g><g id="_-ava" serif:id="©ava"><path d="M60.702,376.16c1.236,0.769 2.106,1.715 2.623,2.812c0.769,1.766 1.627,3.683 2.56,5.763c0.933,2.081 1.879,4.187 2.812,6.318c0.933,2.131 1.841,4.212 2.698,6.23c0.858,2.017 1.64,3.871 2.321,5.548c0.681,1.677 1.223,3.102 1.627,4.275c0.403,1.173 0.605,1.955 0.605,2.32c0,0.631 -0.088,1.236 -0.252,1.842c-0.164,0.605 -0.467,1.16 -0.908,1.651c-0.442,0.492 -1.06,0.896 -1.841,1.186c-0.795,0.29 -1.816,0.441 -3.065,0.441c-1.324,0 -2.396,-0.176 -3.228,-0.529c-0.832,-0.354 -1.513,-0.795 -2.068,-1.35c-0.555,-0.555 -1.009,-1.135 -1.375,-1.74c-0.365,-0.605 -0.744,-1.185 -1.135,-1.74c-0.391,-0.555 -0.832,-0.996 -1.324,-1.35c-0.492,-0.353 -1.172,-0.529 -2.017,-0.529l-3.531,0c-1.034,0 -1.841,0.176 -2.459,0.529c-0.606,0.354 -1.097,0.795 -1.488,1.35c-0.391,0.555 -0.744,1.135 -1.072,1.74c-0.328,0.605 -0.757,1.185 -1.274,1.74c-0.517,0.555 -1.185,0.996 -2.018,1.35c-0.832,0.353 -1.942,0.529 -3.341,0.529c-2.056,0 -3.569,-0.454 -4.527,-1.374c-0.959,-0.921 -1.438,-2.005 -1.438,-3.254c0,-0.479 0.189,-1.311 0.58,-2.509c0.391,-1.198 0.908,-2.623 1.576,-4.275c0.694,-1.665 1.451,-3.493 2.295,-5.524c0.845,-2.017 1.741,-4.111 2.699,-6.254c0.958,-2.157 1.917,-4.3 2.863,-6.457c0.958,-2.156 1.879,-4.224 2.761,-6.204c0.517,-1.135 1.375,-2.043 2.56,-2.699c1.198,-0.656 2.522,-0.996 3.998,-0.996c1.286,0 2.547,0.391 3.783,1.16Zm44.603,0.189c0.958,0.87 1.437,1.98 1.437,3.342c0,0.769 -0.189,1.778 -0.58,3.039c-0.391,1.249 -0.882,2.661 -1.488,4.25c-0.605,1.576 -1.311,3.291 -2.093,5.132c-0.794,1.841 -1.589,3.708 -2.396,5.625c-1.097,2.61 -2.055,4.955 -2.837,7.036c-0.795,2.081 -1.602,3.846 -2.422,5.297c-0.832,1.45 -1.727,2.572 -2.698,3.367c-0.971,0.794 -2.182,1.185 -3.607,1.185c-1.475,0 -2.698,-0.315 -3.669,-0.971c-0.971,-0.643 -1.854,-1.614 -2.649,-2.926c-0.794,-1.299 -1.563,-2.951 -2.32,-4.93c-0.756,-1.98 -1.639,-4.338 -2.673,-7.062c-0.769,-2.056 -1.564,-4.073 -2.371,-6.041c-0.807,-1.967 -1.538,-3.783 -2.207,-5.435c-0.656,-1.652 -1.198,-3.14 -1.627,-4.439c-0.416,-1.298 -0.63,-2.32 -0.63,-3.064c0,-1.69 0.567,-2.9 1.715,-3.644c1.135,-0.732 2.56,-1.097 4.25,-1.097c1.538,0 2.749,0.189 3.606,0.58c0.858,0.391 1.614,0.895 2.232,1.513c0.442,0.441 0.883,1.084 1.324,1.929c0.442,0.845 0.858,1.778 1.236,2.787c0.391,1.009 0.769,2.031 1.16,3.065c0.391,1.034 0.744,1.979 1.072,2.837c0.328,0.87 0.656,1.564 0.971,2.093c0.315,0.53 0.593,0.795 0.858,0.795c0.29,0 0.592,-0.265 0.908,-0.795c0.315,-0.529 0.63,-1.223 0.971,-2.068c0.328,-0.845 0.668,-1.778 1.021,-2.787c0.353,-1.009 0.719,-2.017 1.097,-3.001c0.379,-0.984 0.795,-1.904 1.211,-2.724c0.416,-0.832 0.857,-1.463 1.299,-1.904c0.403,-0.404 0.794,-0.744 1.185,-1.022c0.391,-0.277 0.807,-0.504 1.274,-0.693c0.454,-0.189 0.983,-0.315 1.576,-0.416c0.593,-0.089 1.299,-0.139 2.156,-0.139c1.501,0 2.749,0.429 3.708,1.286Zm18.726,-0.189c1.236,0.769 2.106,1.715 2.623,2.812c0.769,1.766 1.627,3.683 2.56,5.763c0.933,2.081 1.879,4.187 2.812,6.318c0.933,2.131 1.841,4.212 2.699,6.23c0.857,2.017 1.639,3.871 2.32,5.548c0.681,1.677 1.223,3.102 1.627,4.275c0.403,1.173 0.605,1.955 0.605,2.32c0,0.631 -0.088,1.236 -0.252,1.842c-0.164,0.605 -0.467,1.16 -0.908,1.651c-0.441,0.492 -1.059,0.896 -1.841,1.186c-0.794,0.29 -1.816,0.441 -3.064,0.441c-1.324,0 -2.396,-0.176 -3.229,-0.529c-0.832,-0.354 -1.513,-0.795 -2.068,-1.35c-0.555,-0.555 -1.009,-1.135 -1.374,-1.74c-0.366,-0.605 -0.744,-1.185 -1.135,-1.74c-0.391,-0.555 -0.832,-0.996 -1.324,-1.35c-0.492,-0.353 -1.173,-0.529 -2.018,-0.529l-3.531,0c-1.034,0 -1.841,0.176 -2.459,0.529c-0.605,0.354 -1.097,0.795 -1.488,1.35c-0.391,0.555 -0.744,1.135 -1.072,1.74c-0.328,0.605 -0.756,1.185 -1.273,1.74c-0.517,0.555 -1.186,0.996 -2.018,1.35c-0.832,0.353 -1.942,0.529 -3.342,0.529c-2.055,0 -3.569,-0.454 -4.527,-1.374c-0.958,-0.921 -1.438,-2.005 -1.438,-3.254c0,-0.479 0.19,-1.311 0.58,-2.509c0.391,-1.198 0.908,-2.623 1.577,-4.275c0.656,-1.652 1.412,-3.493 2.257,-5.511c0.845,-2.018 1.74,-4.111 2.699,-6.255c0.958,-2.156 1.916,-4.3 2.862,-6.456c0.959,-2.157 1.879,-4.225 2.762,-6.205c0.517,-1.134 1.374,-2.042 2.56,-2.698c1.198,-0.656 2.522,-0.996 3.997,-0.996c1.324,-0.013 2.585,0.378 3.821,1.147Z" style="fill:#4b4b77;"/><path d="M56.793,430.473c0.302,0 0.592,-0.164 0.731,-0.441c0,-0.013 1.198,-2.22 2.383,-4.83c0.593,-1.311 1.198,-2.711 1.652,-4.01c0.227,-0.656 0.416,-1.274 0.555,-1.841c0.139,-0.58 0.227,-1.11 0.227,-1.589c0,-1.879 -0.693,-3.556 -1.854,-4.716c-0.971,-0.971 -2.282,-1.564 -3.707,-1.564c-1.425,0 -2.736,0.593 -3.707,1.564c-1.148,1.147 -1.854,2.824 -1.854,4.716c0,0.492 0.088,1.021 0.227,1.589c0.239,1.009 0.656,2.156 1.122,3.342c1.425,3.543 3.468,7.326 3.468,7.351c0.164,0.253 0.441,0.429 0.757,0.429Zm63.329,0c0.303,0 0.593,-0.164 0.731,-0.441c0,-0.013 1.198,-2.22 2.384,-4.83c0.593,-1.311 1.198,-2.711 1.652,-4.01c0.227,-0.656 0.416,-1.274 0.555,-1.841c0.138,-0.58 0.227,-1.11 0.227,-1.589c0,-1.879 -0.694,-3.556 -1.854,-4.716c-0.971,-0.971 -2.283,-1.564 -3.708,-1.564c-1.425,0 -2.736,0.593 -3.707,1.564c-1.148,1.147 -1.854,2.824 -1.854,4.716c0,0.492 0.089,1.021 0.227,1.589c0.24,1.009 0.656,2.156 1.123,3.342c1.425,3.543 3.467,7.326 3.467,7.351c0.164,0.253 0.442,0.429 0.757,0.429Z" style="fill:#e0c7c1;"/></g><g id="file-server"><path d="M590,40.007c0,-5.523 -4.484,-10.007 -10.007,-10.007l-59.986,0c-5.523,0 -10.007,4.484 -10.007,10.007l0,79.986c0,5.523 4.484,10.007 10.007,10.007l59.986,0c5.523,0 10.007,-4.484 10.007,-10.007l0,-79.986Z" style="fill:#dcebf2;"/><path d="M525,50l50,0" style="fill:none;stroke:#a0c9dc;stroke-width:7px;"/><path d="M525,70l50,0" style="fill:none;stroke:#a0c9dc;stroke-width:7px;"/><path d="M525,90l30,0" style="fill:none;stroke:#a0c9dc;stroke-width:7px;"/></g><g id="file-server1" serif:id="file-server"><path d="M590,190.007c0,-5.523 -4.484,-10.007 -10.007,-10.007l-59.986,0c-5.523,0 -10.007,4.484 -10.007,10.007l0,79.986c0,5.523 4.484,10.007 10.007,10.007l59.986,0c5.523,0 10.007,-4.484 10.007,-10.007l0,-79.986Z" style="fill:#d9d3f9;"/><path d="M525,200l50,0" style="fill:#d9d3f9;stroke:#b5ace7;stroke-width:7px;"/><path d="M525,220l50,0" style="fill:#d9d3f9;stroke:#b5ace7;stroke-width:7px;"/><path d="M525,240l30,0" style="fill:#d9d3f9;stroke:#b5ace7;stroke-width:7px;"/></g><g id="file-test"><path d="M794.819,352.273c0,-5.523 -4.484,-10.007 -10.006,-10.007l-59.987,0c-5.523,0 -10.007,4.484 -10.007,10.007l0,79.987c0,5.523 4.484,10.006 10.007,10.006l59.987,0c5.522,0 10.006,-4.483 10.006,-10.006l0,-79.987Z" style="fill:#e0c7c1;"/><path d="M729.819,362.266l50,0" style="fill:none;stroke:#b1938b;stroke-width:7px;"/><path d="M729.819,382.266l50,0" style="fill:none;stroke:#b1938b;stroke-width:7px;"/><path d="M729.819,402.266l30,0" style="fill:none;stroke:#b1938b;stroke-width:7px;"/></g><path d="M314,150l-42,0" style="fill:none;stroke:#8ed6fb;stroke-width:7px;"/><path d="M670,397.208l-511,0" style="fill:none;stroke:#e0c7c1;stroke-width:7px;"/><path d="M495,79.527c-32.299,0.802 -39.818,50.73 -73.122,55.473" style="fill:none;stroke:url(#_Linear1);stroke-width:7px;"/><path d="M605,79.527l74.868,0" style="fill:none;stroke:#a0c9dc;stroke-width:7px;"/><path d="M495,227.737c-32.299,-0.803 -39.818,-50.731 -73.122,-55.474" style="fill:none;stroke:url(#_Linear2);stroke-width:7px;"/><path d="M370,236.704c1.866,81.711 29.933,156.267 148,160.504" style="fill:none;stroke:url(#_Linear3);stroke-width:7px;"/><path d="M605,227.737l65,0" style="fill:none;stroke:#b5ace7;stroke-width:7px;"/><path d="M323,150l-18,15l0,-30l18,15Z" style="fill:#8ed6fb;"/><path d="M688,397.208l-18,15l0,-30l18,15Z" style="fill:#e0c7c1;"/><path d="M504,80l-18,15l0,-30l18,15Z" style="fill:#a0c9dc;"/><path d="M504,227.737l-18,15l0,-30l18,15Z" style="fill:#b5ace7;"/><path d="M688,79.527l-18,15l0,-30l18,15Z" style="fill:#a0c9dc;"/><path d="M688,227.737l-18,15l0,-30l18,15Z" style="fill:#b5ace7;"/><text x="333.311px" y="223.528px" style="font-family:'ArialMT', 'Arial', sans-serif;font-size:20px;fill:#ff0078;">conﬁg.js</text><defs><linearGradient id="_Linear1" x1="0" y1="0" x2="1" y2="0" gradientUnits="userSpaceOnUse" gradientTransform="matrix(61.6527,0,0,-61.6527,421.878,107.263)"><stop offset="0" style="stop-color:#ffbfdd;stop-opacity:1"/><stop offset="1" style="stop-color:#a0c9dc;stop-opacity:1"/></linearGradient><linearGradient id="_Linear2" x1="0" y1="0" x2="1" y2="0" gradientUnits="userSpaceOnUse" gradientTransform="matrix(61.6527,0,0,61.6527,421.878,200)"><stop offset="0" style="stop-color:#ffbfdd;stop-opacity:1"/><stop offset="1" style="stop-color:#b5ace7;stop-opacity:1"/></linearGradient><linearGradient id="_Linear3" x1="0" y1="0" x2="1" y2="0" gradientUnits="userSpaceOnUse" gradientTransform="matrix(-105,1.28588e-14,-1.28588e-14,-105,475,316.956)"><stop offset="0" style="stop-color:#e0c7c1;stop-opacity:1"/><stop offset="1" style="stop-color:#ffbfdd;stop-opacity:1"/></linearGradient></defs></svg>