<?xml version="1.0" encoding="UTF-8" standalone="no"?><!DOCTYPE svg PUBLIC "-//W3C//DTD SVG 1.1//EN" "http://www.w3.org/Graphics/SVG/1.1/DTD/svg11.dtd"><svg width="100%" height="100%" viewBox="0 0 1000 330" version="1.1" xmlns="http://www.w3.org/2000/svg" xmlns:xlink="http://www.w3.org/1999/xlink" xml:space="preserve" xmlns:serif="http://www.serif.com/" style="fill-rule:evenodd;clip-rule:evenodd;"><rect id="hoc-authentication" x="0" y="0" width="1000" height="330" style="fill:none;"/><path d="M826.644,40c0,-11.038 -8.962,-20 -20,-20l-260,0c-11.038,0 -20,8.962 -20,20l0,250c0,11.038 8.962,20 20,20l260,0c11.038,0 20,-8.962 20,-20l0,-250Z" style="fill:#ffe5f2;"/><path d="M346.644,40c0,-11.038 -8.962,-20 -20,-20l-100,0c-11.038,0 -20,8.962 -20,20l0,250c0,11.038 8.962,20 20,20l100,0c11.038,0 20,-8.962 20,-20l0,-250Z" style="fill:#ffe5f2;"/><path d="M506.644,40c0,-11.038 -8.962,-20 -20,-20l-100,0c-11.038,0 -20,8.962 -20,20l0,250c0,11.038 8.962,20 20,20l100,0c11.038,0 20,-8.962 20,-20l0,-250Z" style="fill:#ffe5f2;"/><text x="539.136px" y="59.203px" style="font-family:'Roboto-Bold', 'Roboto';font-weight:700;font-size:31.724px;fill:#445;">HoC authentication</text><text x="228.136px" y="59.203px" style="font-family:'Roboto-Bold', 'Roboto';font-weight:700;font-size:31.724px;fill:#445;">Router</text><text x="376.96px" y="59.203px" style="font-family:'Roboto-Bold', 'Roboto';font-weight:700;font-size:31.724px;fill:#445;">Connect</text><text x="628.929px" y="243.14px" style="font-family:'Menlo-Bold', 'Menlo', monospace;font-weight:700;font-size:20px;">render()</text><text x="616.888px" y="155.605px" style="font-family:'Menlo-Bold', 'Menlo', monospace;font-weight:700;font-size:20px;">redirect()</text><path d="M435.241,174.555l0,-43.983l127.806,0l0,-13.009l35,35l-35,35l0,-13.008l-127.806,0Z" style="fill:url(#_Linear1);"/><g id="_-react-router" serif:id="©react-router"><path d="M275.507,72.92c-0.625,0.149 -1.578,0.745 -2.144,1.31c-0.923,0.953 -1.102,1.37 -1.489,3.306c-0.179,0.952 0.923,3.215 1.906,3.9c1.012,0.715 2.441,1.132 4.645,1.37c3.216,0.357 4.139,1.429 4.139,4.943c0,3.097 -0.864,3.931 -4.407,4.288c-3.841,0.387 -5.807,1.876 -6.223,4.764c-0.239,1.757 0.923,3.961 2.531,4.705c3.662,1.727 7.087,-0.447 7.801,-4.943c0.477,-2.888 1.4,-3.692 4.497,-3.931c3.573,-0.297 5.419,-1.518 6.104,-4.019c0.625,-2.293 -0.685,-4.854 -2.918,-5.747c-0.596,-0.239 -1.966,-0.536 -3.038,-0.655c-3.364,-0.358 -4.228,-0.953 -4.585,-3.127c-0.506,-3.007 -0.715,-3.514 -1.787,-4.705c-1.25,-1.399 -3.156,-1.965 -5.032,-1.459Z" style="fill:#ba514f;"/><path d="M253.383,92.484c-4.854,1.072 -5.033,8.158 -0.239,9.409c1.191,0.328 1.311,0.328 2.502,0.03c2.68,-0.715 4.198,-3.276 3.484,-5.866c-0.715,-2.621 -3.157,-4.139 -5.747,-3.573Zm43.801,0.268c-3.126,1.072 -4.198,4.704 -2.203,7.503c1.251,1.787 4.407,2.383 6.342,1.162c3.187,-1.966 3.067,-6.879 -0.208,-8.427c-1.519,-0.745 -2.352,-0.774 -3.931,-0.238Zm-32.159,-10.095c-3.305,0.715 -4.883,4.616 -3.037,7.415c2.65,3.99 8.874,2.144 8.933,-2.65c0.03,-3.067 -2.888,-5.42 -5.896,-4.765Z" style="fill:#252525;"/></g><path d="M278.449,174.555l0,-43.983l127.806,0l0,-13.009l35,35l-35,35l0,-13.008l-127.806,0Z" style="fill:url(#_Linear2);"/><path d="M435.241,255.72l0,-43.983l127.806,0l0,-13.009l35,35l-35,35l0,-13.008l-127.806,0Z" style="fill:url(#_Linear3);"/><text x="320.233px" y="158.436px" style="font-family:'ArialMT', 'Arial', sans-serif;font-size:16px;">ROUTES</text><text x="472.675px" y="239.601px" style="font-family:'ArialMT', 'Arial', sans-serif;font-size:16px;">ST<tspan x="492.831px 505.277px " y="239.601px 239.601px ">OR</tspan>E</text><g id="routes"><path d="M424.927,151.138l-13.235,-13.235c-0.574,-0.574 -1.5,-0.574 -2.074,0l-13.235,13.235c-0.574,0.574 -0.574,1.5 0,2.074l13.235,13.235c0.574,0.574 1.5,0.574 2.074,0l13.235,-13.235c0.574,-0.559 0.574,-1.486 0,-2.074Z" style="fill:#ba514f;"/><path d="M413.589,155.859l0,-3.677l-5.882,0l0,4.412l-2.942,0l0,-5.882c0,-0.809 0.662,-1.471 1.471,-1.471l7.353,0l0,-3.676l5.147,5.147l-5.147,5.147Z" style="fill:#fff;"/></g><g id="routes1" serif:id="routes"><path d="M577.15,151.138l-13.236,-13.235c-0.573,-0.574 -1.5,-0.574 -2.073,0l-13.236,13.235c-0.573,0.574 -0.573,1.5 0,2.074l13.236,13.235c0.573,0.574 1.5,0.574 2.073,0l13.236,-13.235c0.574,-0.559 0.574,-1.486 0,-2.074Z" style="fill:#ba514f;"/><path d="M565.812,155.859l0,-3.677l-5.883,0l0,4.412l-2.941,0l0,-5.882c0,-0.809 0.662,-1.471 1.47,-1.471l7.354,0l0,-3.676l5.147,5.147l-5.147,5.147Z" style="fill:#fff;"/></g><g id="react-component" serif:id="react component"><path d="M951.696,247.154c3.892,-3.892 3.892,-10.211 0,-14.103l-32.897,-32.897c-3.892,-3.892 -10.211,-3.892 -14.103,0l-32.897,32.897c-3.892,3.892 -3.892,10.211 0,14.103l32.897,32.897c3.892,3.892 10.211,3.892 14.103,0l32.897,-32.897Z" style="fill:#ffe5f2;"/><g id="_-react" serif:id="©react"><circle cx="911.747" cy="240.103" r="4.746" style="fill:#61dafb;"/><ellipse cx="911.747" cy="240.103" rx="25.468" ry="9.724" style="fill:none;stroke:#61dafb;stroke-width:2.32px;"/><path d="M920.169,235.241c7.028,12.173 8.96,24.234 4.312,26.917c-4.648,2.684 -14.127,-5.02 -21.155,-17.193c-7.028,-12.173 -8.96,-24.235 -4.313,-26.918c4.648,-2.683 14.128,5.021 21.156,17.194Z" style="fill:none;stroke:#61dafb;stroke-width:2.32px;"/><path d="M920.169,244.965c-7.028,12.173 -16.508,19.877 -21.156,17.193c-4.647,-2.683 -2.715,-14.744 4.313,-26.917c7.028,-12.173 16.507,-19.877 21.155,-17.194c4.648,2.683 2.716,14.745 -4.312,26.918Z" style="fill:none;stroke:#61dafb;stroke-width:2.32px;"/></g></g><text x="839.321px" y="180.617px" style="font-family:'ArialMT', 'Arial', sans-serif;font-size:20px;fill:#ff0078;">page component</text><text x="9.191px" y="158.007px" style="font-family:'Roboto-Bold', 'Roboto';font-weight:700;font-size:24px;fill:#5498b9;">SER<tspan x="52.539px " y="158.007px ">V</tspan>ER</text><path d="M238,149.476l-18,15l0,-30l18,15Z" style="fill:#a0c9dc;"/><path d="M110,149.506l120,0" style="fill:none;stroke:#a0c9dc;stroke-width:7px;stroke-linecap:round;stroke-linejoin:round;stroke-miterlimit:1.5;"/><g transform="matrix(1,0,0,1,-1988.82,-1516.95)"><text x="2002.39px" y="1702.65px" style="font-family:'ArialMT', 'Arial', sans-serif;font-size:16px;fill:#4b4b77;">• provide a serverContext</text><text x="2002.39px" y="1726.65px" style="font-family:'ArialMT', 'Arial', sans-serif;font-size:16px;fill:#4b4b77;">• this allow us to give the</text><text x="2014.39px" y="1750.65px" style="font-family:'ArialMT', 'Arial', sans-serif;font-size:16px;fill:#4b4b77;">right HTTP<tspan x="2091.44px 2095.89px " y="1750.65px 1750.65px "> c</tspan>ode</text></g><text x="8.992px" y="275.286px" style="font-family:'Roboto-Bold', 'Roboto';font-weight:700;font-size:24px;fill:#7e6ed6;">CLIEN<tspan x="74.793px " y="275.286px ">T</tspan></text><path d="M238,266.754l-18,15l0,-30l18,15Z" style="fill:#b5ace7;"/><path d="M110,266.784l120,0" style="fill:none;stroke:#b5ace7;stroke-width:7px;stroke-linecap:round;stroke-linejoin:round;stroke-miterlimit:1.5;"/><path d="M755.241,239.797l18,-15l0,30l-18,-15Z" style="fill:#8a8aa6;"/><path d="M857.229,239.767l-92.988,0" style="fill:none;stroke:#8a8aa7;stroke-width:7px;stroke-linecap:round;stroke-linejoin:round;stroke-miterlimit:1.5;"/><text x="655.236px" y="204.37px" style="font-family:'Roboto-Bold', 'Roboto';font-weight:700;font-size:31.724px;fill:#ff0078;">OR</text><text x="614.617px" y="93.621px" style="font-family:'Roboto-Regular', 'Roboto';font-size:16px;">contr<tspan x="651.429px " y="93.621px ">o</tspan>l st<tspan x="681.718px 690.843px 696.109px " y="93.621px 93.621px 93.621px ">ore</tspan> and:</text><g id="redux--store" serif:id="redux -store"><path d="M558.251,223.179c0.586,-2.399 2.946,-4.263 5.713,-4.263c2.766,0 5.126,1.864 5.712,4.263c2.24,-1.037 5.169,-0.355 6.894,1.808c1.725,2.163 1.739,5.17 0.229,7.124c2.208,1.105 3.5,3.82 2.885,6.517c-0.616,2.697 -2.959,4.583 -5.427,4.621c0.512,2.415 -0.805,5.118 -3.297,6.319c-2.493,1.2 -5.428,0.544 -6.996,-1.362c-1.569,1.906 -4.504,2.562 -6.996,1.362c-2.493,-1.201 -3.81,-3.904 -3.297,-6.319c-2.469,-0.038 -4.812,-1.924 -5.427,-4.621c-0.616,-2.697 0.677,-5.412 2.884,-6.517c-1.509,-1.954 -1.496,-4.961 0.229,-7.124c1.725,-2.163 4.654,-2.845 6.894,-1.808Z" style="fill:#cee3ed;"/><path d="M564.128,217.305l0.162,0.005l0.161,0.009l0.161,0.012l0.161,0.015l0.159,0.018l0.158,0.022l0.157,0.025l0.156,0.028l0.156,0.031l0.153,0.034l0.153,0.037l0.152,0.04l0.151,0.044l0.149,0.046l0.146,0.048l0.146,0.052l0.145,0.054l0.145,0.058l0.142,0.061l0.139,0.062l0.139,0.065l0.137,0.068l0.135,0.071l0.134,0.073l0.132,0.075l0.132,0.079l0.127,0.08l0.127,0.083l0.125,0.086l0.123,0.087l0.122,0.091l0.118,0.092l0.117,0.094l0.115,0.097l0.114,0.099l0.112,0.102l0.109,0.104l0.106,0.105l0.104,0.107l0.102,0.109l0.101,0.113l0.097,0.113l0.095,0.115l0.094,0.119l0.09,0.119l0.088,0.121l0.086,0.124l0.082,0.125l0.08,0.126l0.078,0.129l0.075,0.131l0.051,0.095l0.108,-0.019l0.147,-0.023l0.15,-0.019l0.149,-0.017l0.149,-0.013l0.149,-0.01l0.151,-0.007l0.15,-0.004l0.15,-0.001l0.149,0.003l0.15,0.005l0.149,0.009l0.151,0.011l0.149,0.015l0.148,0.018l0.149,0.02l0.149,0.024l0.147,0.027l0.148,0.03l0.148,0.032l0.146,0.036l0.146,0.038l0.144,0.042l0.145,0.044l0.144,0.048l0.144,0.05l0.142,0.053l0.141,0.056l0.142,0.059l0.14,0.063l0.137,0.064l0.138,0.068l0.137,0.071l0.134,0.072l0.136,0.077l0.133,0.08l0.131,0.081l0.13,0.085l0.129,0.088l0.128,0.091l0.126,0.093l0.123,0.096l0.124,0.1l0.121,0.101l0.119,0.105l0.117,0.107l0.116,0.111l0.113,0.112l0.112,0.116l0.11,0.119l0.107,0.121l0.106,0.124l0.102,0.126l0.101,0.129l0.098,0.131l0.094,0.132l0.091,0.133l0.087,0.133l0.086,0.137l0.082,0.138l0.078,0.137l0.076,0.141l0.072,0.141l0.069,0.141l0.066,0.142l0.064,0.144l0.06,0.144l0.056,0.145l0.054,0.146l0.051,0.147l0.048,0.148l0.044,0.148l0.042,0.148l0.038,0.148l0.035,0.149l0.033,0.149l0.029,0.151l0.026,0.151l0.023,0.149l0.021,0.151l0.017,0.152l0.014,0.149l0.011,0.151l0.008,0.153l0.005,0.151l0.002,0.149l0,0.151l-0.004,0.151l-0.007,0.149l-0.01,0.15l-0.013,0.15l-0.016,0.15l-0.019,0.148l-0.022,0.148l-0.025,0.149l-0.028,0.146l-0.031,0.147l-0.034,0.146l-0.037,0.145l-0.04,0.145l-0.043,0.144l-0.046,0.142l-0.049,0.142l-0.053,0.141l-0.055,0.14l-0.042,0.1l0.081,0.071l0.111,0.103l0.108,0.104l0.105,0.105l0.105,0.11l0.101,0.11l0.098,0.113l0.097,0.115l0.094,0.117l0.091,0.118l0.089,0.121l0.087,0.122l0.084,0.124l0.082,0.126l0.079,0.128l0.076,0.128l0.074,0.131l0.071,0.132l0.069,0.135l0.067,0.135l0.063,0.137l0.061,0.138l0.058,0.139l0.056,0.141l0.052,0.142l0.05,0.144l0.047,0.144l0.045,0.146l0.041,0.147l0.039,0.147l0.036,0.148l0.033,0.151l0.03,0.151l0.027,0.151l0.024,0.153l0.021,0.153l0.018,0.155l0.014,0.154l0.012,0.156l0.009,0.156l0.005,0.156l0.002,0.158l-0.001,0.156l-0.004,0.159l-0.007,0.159l-0.011,0.16l-0.014,0.158l-0.017,0.158l-0.021,0.16l-0.025,0.161l-0.028,0.159l-0.031,0.16l-0.034,0.159l-0.038,0.159l-0.042,0.158l-0.044,0.154l-0.047,0.154l-0.051,0.154l-0.053,0.152l-0.056,0.149l-0.059,0.147l-0.063,0.147l-0.064,0.143l-0.068,0.143l-0.07,0.141l-0.073,0.139l-0.076,0.137l-0.078,0.135l-0.08,0.132l-0.083,0.132l-0.086,0.129l-0.087,0.126l-0.09,0.126l-0.093,0.123l-0.095,0.121l-0.097,0.118l-0.098,0.116l-0.101,0.115l-0.104,0.111l-0.104,0.109l-0.108,0.109l-0.109,0.105l-0.111,0.103l-0.113,0.1l-0.114,0.098l-0.117,0.095l-0.119,0.094l-0.12,0.091l-0.12,0.087l-0.125,0.087l-0.125,0.083l-0.126,0.08l-0.129,0.078l-0.129,0.076l-0.131,0.072l-0.133,0.07l-0.133,0.067l-0.136,0.065l-0.137,0.061l-0.137,0.059l-0.14,0.056l-0.14,0.053l-0.142,0.05l-0.143,0.047l-0.144,0.044l-0.104,0.029l-0.005,0.108l-0.011,0.15l-0.014,0.149l-0.017,0.151l-0.021,0.148l-0.023,0.147l-0.027,0.149l-0.029,0.146l-0.033,0.146l-0.035,0.145l-0.039,0.145l-0.042,0.145l-0.045,0.143l-0.047,0.142l-0.05,0.141l-0.053,0.141l-0.057,0.139l-0.059,0.139l-0.062,0.137l-0.064,0.136l-0.068,0.135l-0.069,0.134l-0.073,0.132l-0.076,0.131l-0.077,0.129l-0.082,0.129l-0.084,0.128l-0.085,0.124l-0.089,0.124l-0.092,0.124l-0.094,0.121l-0.097,0.118l-0.098,0.117l-0.102,0.116l-0.105,0.114l-0.106,0.112l-0.109,0.11l-0.113,0.109l-0.113,0.105l-0.117,0.104l-0.12,0.102l-0.121,0.101l-0.125,0.097l-0.125,0.095l-0.129,0.093l-0.13,0.09l-0.134,0.089l-0.135,0.085l-0.138,0.083l-0.141,0.081l-0.142,0.078l-0.143,0.075l-0.146,0.072l-0.148,0.07l-0.149,0.065l-0.15,0.063l-0.151,0.06l-0.15,0.055l-0.15,0.052l-0.154,0.05l-0.152,0.046l-0.151,0.042l-0.155,0.04l-0.153,0.036l-0.154,0.033l-0.155,0.029l-0.152,0.026l-0.155,0.023l-0.155,0.02l-0.153,0.017l-0.154,0.014l-0.156,0.011l-0.154,0.007l-0.152,0.004l-0.154,0.002l-0.154,-0.002l-0.151,-0.005l-0.152,-0.008l-0.152,-0.011l-0.152,-0.014l-0.152,-0.017l-0.149,-0.019l-0.15,-0.023l-0.148,-0.026l-0.148,-0.028l-0.148,-0.032l-0.147,-0.034l-0.146,-0.038l-0.145,-0.04l-0.143,-0.042l-0.143,-0.046l-0.143,-0.049l-0.141,-0.052l-0.139,-0.054l-0.139,-0.058l-0.137,-0.059l-0.135,-0.063l-0.136,-0.066l-0.134,-0.069l-0.13,-0.07l-0.131,-0.074l-0.129,-0.077l-0.129,-0.08l-0.124,-0.082l-0.124,-0.085l-0.088,-0.063l-0.088,0.063l-0.125,0.085l-0.124,0.082l-0.128,0.079l-0.13,0.078l-0.131,0.074l-0.13,0.071l-0.134,0.068l-0.135,0.066l-0.136,0.063l-0.137,0.059l-0.139,0.058l-0.139,0.054l-0.141,0.052l-0.142,0.049l-0.143,0.045l-0.144,0.044l-0.144,0.039l-0.146,0.038l-0.148,0.034l-0.147,0.032l-0.148,0.028l-0.149,0.026l-0.149,0.023l-0.15,0.019l-0.151,0.017l-0.152,0.014l-0.152,0.011l-0.153,0.008l-0.151,0.005l-0.154,0.002l-0.154,-0.002l-0.152,-0.004l-0.154,-0.007l-0.156,-0.011l-0.154,-0.014l-0.153,-0.017l-0.155,-0.02l-0.155,-0.023l-0.152,-0.026l-0.155,-0.03l-0.153,-0.032l-0.154,-0.036l-0.154,-0.04l-0.152,-0.042l-0.152,-0.046l-0.154,-0.05l-0.15,-0.052l-0.15,-0.055l-0.152,-0.06l-0.149,-0.063l-0.148,-0.065l-0.149,-0.07l-0.145,-0.072l-0.144,-0.075l-0.142,-0.078l-0.141,-0.081l-0.137,-0.083l-0.136,-0.085l-0.134,-0.089l-0.129,-0.09l-0.129,-0.093l-0.127,-0.095l-0.124,-0.098l-0.121,-0.1l-0.119,-0.101l-0.117,-0.105l-0.114,-0.106l-0.113,-0.109l-0.108,-0.109l-0.107,-0.112l-0.105,-0.114l-0.101,-0.115l-0.099,-0.118l-0.097,-0.119l-0.093,-0.12l-0.092,-0.123l-0.089,-0.124l-0.087,-0.126l-0.083,-0.127l-0.081,-0.128l-0.078,-0.13l-0.076,-0.131l-0.072,-0.132l-0.07,-0.134l-0.068,-0.136l-0.064,-0.136l-0.062,-0.136l-0.059,-0.139l-0.056,-0.139l-0.053,-0.141l-0.05,-0.14l-0.048,-0.143l-0.045,-0.144l-0.041,-0.143l-0.039,-0.145l-0.036,-0.146l-0.033,-0.147l-0.029,-0.147l-0.026,-0.145l-0.024,-0.149l-0.021,-0.149l-0.017,-0.15l-0.014,-0.149l-0.011,-0.15l-0.005,-0.108l-0.104,-0.029l-0.144,-0.044l-0.142,-0.047l-0.143,-0.05l-0.14,-0.053l-0.14,-0.056l-0.137,-0.059l-0.137,-0.061l-0.135,-0.065l-0.134,-0.067l-0.132,-0.07l-0.131,-0.072l-0.13,-0.076l-0.128,-0.078l-0.126,-0.08l-0.125,-0.083l-0.125,-0.087l-0.121,-0.088l-0.119,-0.089l-0.12,-0.095l-0.117,-0.096l-0.113,-0.097l-0.113,-0.1l-0.111,-0.103l-0.11,-0.105l-0.107,-0.108l-0.105,-0.11l-0.104,-0.112l-0.1,-0.114l-0.099,-0.116l-0.098,-0.119l-0.094,-0.12l-0.092,-0.123l-0.09,-0.125l-0.088,-0.127l-0.086,-0.129l-0.083,-0.132l-0.081,-0.133l-0.077,-0.134l-0.075,-0.136l-0.074,-0.14l-0.07,-0.142l-0.067,-0.141l-0.065,-0.144l-0.062,-0.147l-0.059,-0.147l-0.057,-0.15l-0.053,-0.151l-0.05,-0.152l-0.048,-0.156l-0.044,-0.155l-0.041,-0.156l-0.038,-0.16l-0.035,-0.16l-0.031,-0.159l-0.028,-0.159l-0.024,-0.161l-0.021,-0.159l-0.018,-0.159l-0.014,-0.16l-0.01,-0.158l-0.008,-0.158l-0.004,-0.16l-0.001,-0.157l0.002,-0.156l0.006,-0.157l0.008,-0.156l0.012,-0.156l0.015,-0.155l0.018,-0.154l0.021,-0.153l0.024,-0.153l0.027,-0.151l0.03,-0.151l0.032,-0.149l0.036,-0.149l0.039,-0.149l0.042,-0.146l0.044,-0.146l0.047,-0.145l0.05,-0.143l0.052,-0.141l0.056,-0.141l0.059,-0.141l0.061,-0.138l0.063,-0.136l0.065,-0.134l0.07,-0.136l0.071,-0.132l0.074,-0.131l0.077,-0.129l0.078,-0.126l0.082,-0.127l0.085,-0.125l0.087,-0.122l0.088,-0.12l0.091,-0.118l0.095,-0.117l0.096,-0.115l0.099,-0.113l0.101,-0.11l0.104,-0.11l0.105,-0.105l0.108,-0.104l0.111,-0.103l0.081,-0.071l-0.042,-0.1l-0.055,-0.14l-0.052,-0.141l-0.049,-0.142l-0.047,-0.142l-0.043,-0.144l-0.04,-0.144l-0.037,-0.146l-0.034,-0.147l-0.031,-0.146l-0.028,-0.146l-0.025,-0.148l-0.022,-0.149l-0.019,-0.149l-0.016,-0.149l-0.013,-0.15l-0.009,-0.148l-0.007,-0.151l-0.004,-0.151l-0.001,-0.151l0.002,-0.151l0.005,-0.149l0.008,-0.151l0.011,-0.153l0.015,-0.151l0.017,-0.149l0.02,-0.152l0.023,-0.15l0.026,-0.15l0.03,-0.149l0.032,-0.15l0.035,-0.15l0.039,-0.15l0.041,-0.147l0.045,-0.147l0.047,-0.148l0.051,-0.147l0.054,-0.146l0.057,-0.145l0.06,-0.144l0.063,-0.144l0.066,-0.142l0.069,-0.141l0.073,-0.141l0.075,-0.14l0.078,-0.138l0.082,-0.138l0.085,-0.136l0.089,-0.135l0.091,-0.133l0.094,-0.131l0.097,-0.13l0.101,-0.13l0.103,-0.126l0.105,-0.124l0.108,-0.121l0.109,-0.118l0.112,-0.116l0.114,-0.113l0.116,-0.111l0.117,-0.107l0.119,-0.105l0.121,-0.101l0.123,-0.1l0.124,-0.096l0.125,-0.093l0.129,-0.091l0.129,-0.088l0.129,-0.084l0.131,-0.082l0.133,-0.08l0.136,-0.077l0.135,-0.073l0.136,-0.07l0.138,-0.068l0.138,-0.064l0.14,-0.063l0.141,-0.059l0.141,-0.056l0.142,-0.053l0.144,-0.051l0.145,-0.047l0.144,-0.044l0.144,-0.042l0.147,-0.038l0.146,-0.036l0.147,-0.032l0.148,-0.03l0.147,-0.027l0.15,-0.024l0.148,-0.02l0.148,-0.018l0.15,-0.015l0.15,-0.011l0.15,-0.009l0.149,-0.005l0.149,-0.003l0.15,0.001l0.151,0.004l0.15,0.007l0.149,0.01l0.149,0.013l0.15,0.017l0.149,0.019l0.148,0.023l0.107,0.019l0.052,-0.096l0.075,-0.13l0.077,-0.128l0.08,-0.127l0.083,-0.126l0.085,-0.122l0.089,-0.122l0.09,-0.12l0.093,-0.118l0.095,-0.115l0.097,-0.113l0.101,-0.113l0.103,-0.109l0.104,-0.107l0.106,-0.105l0.109,-0.104l0.112,-0.102l0.113,-0.099l0.115,-0.096l0.117,-0.095l0.119,-0.092l0.121,-0.09l0.123,-0.088l0.126,-0.086l0.126,-0.083l0.128,-0.08l0.131,-0.078l0.132,-0.076l0.135,-0.074l0.135,-0.07l0.137,-0.068l0.138,-0.065l0.14,-0.062l0.142,-0.061l0.145,-0.058l0.144,-0.054l0.146,-0.052l0.147,-0.048l0.148,-0.046l0.151,-0.044l0.152,-0.04l0.153,-0.037l0.154,-0.034l0.155,-0.031l0.157,-0.028l0.156,-0.025l0.158,-0.022l0.159,-0.018l0.162,-0.015l0.16,-0.012l0.161,-0.009l0.162,-0.005l0.165,-0.002l0.164,0.002Zm-0.294,1.612l-0.128,0.004l-0.129,0.007l-0.127,0.01l-0.127,0.012l-0.126,0.014l-0.125,0.017l-0.124,0.02l-0.123,0.022l-0.123,0.024l-0.122,0.027l-0.121,0.03l-0.119,0.032l-0.119,0.034l-0.118,0.036l-0.117,0.039l-0.115,0.041l-0.115,0.043l-0.113,0.045l-0.112,0.048l-0.111,0.049l-0.109,0.052l-0.109,0.054l-0.107,0.055l-0.106,0.058l-0.104,0.06l-0.103,0.062l-0.101,0.063l-0.1,0.066l-0.099,0.067l-0.097,0.069l-0.095,0.071l-0.094,0.073l-0.092,0.074l-0.091,0.076l-0.088,0.078l-0.087,0.079l-0.086,0.081l-0.083,0.083l-0.082,0.084l-0.08,0.086l-0.078,0.087l-0.076,0.088l-0.074,0.09l-0.072,0.092l-0.071,0.092l-0.068,0.095l-0.066,0.095l-0.064,0.097l-0.062,0.097l-0.059,0.099l-0.058,0.101l-0.055,0.101l-0.053,0.103l-0.051,0.103l-0.048,0.105l-0.046,0.106l-0.044,0.106l-0.041,0.108l-0.039,0.109l-0.037,0.109l-0.033,0.11l-0.032,0.112l-0.029,0.112l-0.105,-0.048l-0.107,-0.045l-0.107,-0.042l-0.108,-0.04l-0.109,-0.037l-0.11,-0.035l-0.111,-0.032l-0.111,-0.03l-0.112,-0.028l-0.113,-0.024l-0.113,-0.023l-0.114,-0.02l-0.114,-0.017l-0.115,-0.016l-0.115,-0.012l-0.115,-0.01l-0.116,-0.008l-0.116,-0.006l-0.116,-0.003l-0.117,0l-0.116,0.002l-0.117,0.004l-0.117,0.007l-0.117,0.009l-0.116,0.011l-0.117,0.014l-0.117,0.016l-0.116,0.019l-0.116,0.021l-0.116,0.023l-0.116,0.026l-0.115,0.028l-0.115,0.03l-0.114,0.033l-0.114,0.035l-0.114,0.037l-0.113,0.04l-0.112,0.042l-0.112,0.044l-0.111,0.047l-0.11,0.049l-0.11,0.051l-0.109,0.053l-0.108,0.056l-0.107,0.058l-0.106,0.061l-0.105,0.062l-0.104,0.065l-0.103,0.067l-0.102,0.07l-0.1,0.071l-0.1,0.074l-0.098,0.076l-0.097,0.078l-0.096,0.081l-0.094,0.083l-0.093,0.085l-0.091,0.087l-0.09,0.089l-0.089,0.092l-0.086,0.094l-0.086,0.096l-0.083,0.098l-0.082,0.1l-0.079,0.102l-0.077,0.103l-0.075,0.104l-0.072,0.106l-0.07,0.106l-0.067,0.108l-0.064,0.108l-0.063,0.11l-0.059,0.11l-0.058,0.111l-0.054,0.112l-0.053,0.113l-0.05,0.114l-0.047,0.114l-0.045,0.114l-0.042,0.116l-0.04,0.116l-0.038,0.116l-0.035,0.117l-0.033,0.117l-0.031,0.118l-0.027,0.118l-0.026,0.118l-0.023,0.118l-0.021,0.119l-0.018,0.119l-0.016,0.119l-0.014,0.119l-0.011,0.119l-0.009,0.119l-0.006,0.119l-0.004,0.118l-0.002,0.119l0.001,0.118l0.003,0.119l0.005,0.118l0.008,0.117l0.01,0.117l0.013,0.117l0.015,0.117l0.017,0.115l0.019,0.116l0.022,0.114l0.024,0.114l0.027,0.114l0.028,0.113l0.031,0.112l0.034,0.111l0.035,0.11l0.038,0.109l0.041,0.109l0.042,0.107l0.045,0.107l0.047,0.105l0.049,0.104l0.052,0.103l0.054,0.102l0.056,0.101l0.059,0.099l0.06,0.098l0.063,0.097l0.065,0.095l0.068,0.094l0.069,0.093l-0.102,0.053l-0.102,0.055l-0.1,0.057l-0.099,0.06l-0.097,0.062l-0.096,0.065l-0.094,0.066l-0.093,0.068l-0.091,0.071l-0.09,0.072l-0.088,0.075l-0.086,0.076l-0.085,0.079l-0.084,0.08l-0.081,0.082l-0.08,0.084l-0.078,0.086l-0.077,0.087l-0.075,0.089l-0.073,0.091l-0.071,0.092l-0.069,0.094l-0.068,0.095l-0.066,0.097l-0.064,0.099l-0.062,0.099l-0.059,0.102l-0.059,0.102l-0.056,0.104l-0.054,0.105l-0.052,0.107l-0.05,0.107l-0.048,0.109l-0.045,0.11l-0.044,0.111l-0.042,0.112l-0.039,0.113l-0.037,0.114l-0.035,0.115l-0.033,0.116l-0.031,0.117l-0.028,0.117l-0.026,0.119l-0.024,0.119l-0.021,0.12l-0.019,0.12l-0.016,0.122l-0.015,0.121l-0.011,0.123l-0.01,0.123l-0.006,0.123l-0.005,0.124l-0.002,0.124l0.001,0.125l0.004,0.125l0.005,0.125l0.009,0.126l0.011,0.125l0.014,0.126l0.016,0.127l0.02,0.126l0.022,0.126l0.024,0.127l0.028,0.126l0.03,0.126l0.032,0.125l0.036,0.123l0.037,0.122l0.04,0.121l0.042,0.119l0.045,0.119l0.046,0.116l0.049,0.116l0.052,0.114l0.053,0.113l0.056,0.111l0.057,0.11l0.06,0.108l0.062,0.106l0.063,0.106l0.066,0.103l0.067,0.102l0.07,0.101l0.071,0.098l0.073,0.097l0.075,0.096l0.076,0.093l0.079,0.092l0.079,0.091l0.082,0.088l0.083,0.087l0.084,0.084l0.086,0.083l0.088,0.081l0.089,0.079l0.09,0.078l0.092,0.075l0.093,0.073l0.094,0.072l0.096,0.069l0.097,0.067l0.098,0.065l0.099,0.063l0.1,0.061l0.101,0.059l0.103,0.057l0.103,0.054l0.104,0.053l0.105,0.05l0.106,0.047l0.107,0.046l0.108,0.043l0.108,0.041l0.109,0.039l0.11,0.036l0.111,0.033l0.111,0.032l0.112,0.029l0.112,0.026l0.113,0.024l0.113,0.021l0.114,0.019l0.114,0.016l0.115,0.014l0.114,0.011l0.116,0.009l0.115,0.006l0.116,0.003l-0.023,0.113l-0.02,0.114l-0.017,0.114l-0.015,0.114l-0.012,0.115l-0.01,0.115l-0.007,0.115l-0.004,0.115l-0.002,0.116l0.001,0.115l0.003,0.115l0.006,0.116l0.008,0.115l0.011,0.115l0.013,0.115l0.016,0.115l0.018,0.115l0.021,0.114l0.023,0.114l0.025,0.114l0.028,0.113l0.03,0.113l0.033,0.112l0.034,0.112l0.038,0.111l0.039,0.111l0.042,0.11l0.044,0.109l0.046,0.109l0.049,0.107l0.05,0.107l0.053,0.107l0.055,0.105l0.058,0.104l0.059,0.104l0.062,0.102l0.064,0.101l0.066,0.101l0.068,0.099l0.07,0.098l0.072,0.096l0.075,0.096l0.076,0.094l0.078,0.093l0.081,0.091l0.082,0.09l0.085,0.088l0.086,0.087l0.088,0.086l0.091,0.084l0.092,0.082l0.094,0.081l0.096,0.079l0.098,0.077l0.1,0.075l0.101,0.074l0.104,0.071l0.105,0.07l0.107,0.068l0.109,0.065l0.111,0.064l0.112,0.062l0.115,0.059l0.116,0.058l0.117,0.054l0.118,0.053l0.118,0.049l0.119,0.047l0.119,0.044l0.12,0.042l0.12,0.039l0.121,0.036l0.12,0.034l0.121,0.031l0.122,0.028l0.121,0.026l0.122,0.023l0.122,0.021l0.122,0.018l0.122,0.016l0.122,0.014l0.121,0.01l0.122,0.009l0.122,0.006l0.121,0.003l0.121,0.001l0.121,-0.001l0.121,-0.004l0.12,-0.006l0.12,-0.009l0.12,-0.011l0.119,-0.013l0.118,-0.016l0.118,-0.018l0.117,-0.02l0.117,-0.022l0.116,-0.025l0.116,-0.027l0.114,-0.03l0.114,-0.031l0.113,-0.034l0.112,-0.036l0.111,-0.038l0.11,-0.04l0.109,-0.043l0.108,-0.044l0.107,-0.047l0.106,-0.049l0.105,-0.051l0.103,-0.053l0.102,-0.055l0.101,-0.058l0.1,-0.059l0.098,-0.061l0.097,-0.064l0.095,-0.065l0.094,-0.067l0.092,-0.07l0.091,-0.071l0.089,-0.073l0.087,-0.076l0.086,-0.077l0.084,-0.079l0.082,-0.081l0.08,-0.083l0.079,-0.084l0.076,-0.087l0.075,-0.088l0.074,0.088l0.077,0.087l0.078,0.084l0.08,0.083l0.082,0.081l0.084,0.079l0.086,0.077l0.087,0.076l0.089,0.073l0.091,0.071l0.092,0.07l0.094,0.067l0.095,0.065l0.097,0.064l0.098,0.061l0.1,0.059l0.101,0.058l0.102,0.055l0.104,0.053l0.104,0.051l0.106,0.049l0.107,0.047l0.108,0.044l0.109,0.043l0.11,0.04l0.112,0.038l0.112,0.036l0.113,0.034l0.113,0.031l0.115,0.03l0.115,0.027l0.116,0.025l0.117,0.022l0.117,0.02l0.118,0.018l0.119,0.016l0.119,0.013l0.119,0.011l0.12,0.009l0.12,0.006l0.121,0.004l0.121,0.001l0.121,-0.001l0.122,-0.003l0.121,-0.006l0.122,-0.009l0.122,-0.01l0.122,-0.014l0.122,-0.016l0.121,-0.018l0.122,-0.021l0.122,-0.023l0.122,-0.026l0.121,-0.028l0.121,-0.031l0.121,-0.034l0.12,-0.036l0.121,-0.039l0.119,-0.042l0.12,-0.044l0.118,-0.047l0.119,-0.049l0.118,-0.053l0.117,-0.054l0.116,-0.058l0.114,-0.059l0.112,-0.062l0.111,-0.064l0.109,-0.065l0.107,-0.068l0.105,-0.07l0.104,-0.071l0.102,-0.074l0.099,-0.075l0.098,-0.077l0.096,-0.079l0.095,-0.081l0.092,-0.082l0.09,-0.084l0.088,-0.086l0.087,-0.087l0.084,-0.088l0.083,-0.09l0.08,-0.091l0.078,-0.093l0.077,-0.094l0.074,-0.096l0.072,-0.096l0.071,-0.098l0.068,-0.099l0.066,-0.101l0.063,-0.101l0.062,-0.102l0.06,-0.104l0.057,-0.104l0.055,-0.105l0.053,-0.107l0.051,-0.107l0.048,-0.107l0.047,-0.109l0.044,-0.109l0.041,-0.11l0.04,-0.111l0.037,-0.111l0.035,-0.112l0.032,-0.112l0.03,-0.113l0.028,-0.113l0.026,-0.114l0.023,-0.114l0.02,-0.114l0.018,-0.115l0.016,-0.115l0.013,-0.115l0.011,-0.115l0.008,-0.115l0.006,-0.116l0.004,-0.115l0,-0.115l-0.002,-0.116l-0.004,-0.115l-0.007,-0.115l-0.009,-0.115l-0.012,-0.115l-0.015,-0.114l-0.018,-0.114l-0.02,-0.114l-0.022,-0.113l0.115,-0.003l0.116,-0.006l0.115,-0.009l0.115,-0.011l0.114,-0.014l0.114,-0.016l0.114,-0.019l0.113,-0.021l0.113,-0.024l0.113,-0.026l0.111,-0.029l0.111,-0.032l0.111,-0.033l0.11,-0.036l0.109,-0.039l0.109,-0.041l0.107,-0.043l0.107,-0.046l0.106,-0.047l0.105,-0.05l0.104,-0.053l0.104,-0.054l0.102,-0.057l0.101,-0.059l0.1,-0.061l0.1,-0.063l0.098,-0.065l0.096,-0.067l0.096,-0.069l0.094,-0.072l0.093,-0.073l0.092,-0.075l0.09,-0.078l0.089,-0.079l0.088,-0.081l0.086,-0.083l0.085,-0.084l0.083,-0.087l0.081,-0.088l0.08,-0.091l0.078,-0.092l0.077,-0.093l0.074,-0.096l0.073,-0.097l0.072,-0.098l0.069,-0.101l0.067,-0.102l0.066,-0.103l0.064,-0.106l0.061,-0.106l0.06,-0.108l0.058,-0.11l0.055,-0.111l0.054,-0.113l0.051,-0.114l0.049,-0.116l0.047,-0.116l0.044,-0.119l0.042,-0.119l0.04,-0.121l0.038,-0.122l0.035,-0.123l0.032,-0.125l0.031,-0.126l0.027,-0.126l0.025,-0.127l0.022,-0.126l0.019,-0.126l0.016,-0.127l0.014,-0.126l0.011,-0.125l0.009,-0.126l0.006,-0.125l0.003,-0.125l0.001,-0.125l-0.002,-0.124l-0.004,-0.124l-0.007,-0.123l-0.009,-0.123l-0.012,-0.123l-0.014,-0.121l-0.017,-0.122l-0.019,-0.12l-0.021,-0.12l-0.024,-0.119l-0.026,-0.119l-0.028,-0.117l-0.031,-0.117l-0.032,-0.116l-0.035,-0.115l-0.038,-0.114l-0.039,-0.113l-0.042,-0.112l-0.043,-0.111l-0.046,-0.11l-0.048,-0.109l-0.05,-0.107l-0.052,-0.107l-0.054,-0.105l-0.056,-0.104l-0.058,-0.102l-0.06,-0.102l-0.062,-0.099l-0.064,-0.099l-0.066,-0.097l-0.067,-0.095l-0.07,-0.094l-0.071,-0.092l-0.073,-0.091l-0.075,-0.089l-0.076,-0.087l-0.078,-0.086l-0.08,-0.084l-0.082,-0.082l-0.083,-0.08l-0.085,-0.079l-0.087,-0.076l-0.088,-0.075l-0.09,-0.072l-0.091,-0.071l-0.093,-0.068l-0.094,-0.066l-0.096,-0.065l-0.097,-0.062l-0.099,-0.06l-0.1,-0.057l-0.101,-0.055l-0.103,-0.053l0.07,-0.093l0.067,-0.094l0.065,-0.095l0.063,-0.097l0.061,-0.098l0.058,-0.099l0.056,-0.101l0.054,-0.102l0.052,-0.103l0.049,-0.104l0.047,-0.105l0.045,-0.107l0.043,-0.107l0.04,-0.109l0.038,-0.109l0.036,-0.11l0.033,-0.111l0.031,-0.112l0.029,-0.113l0.026,-0.114l0.024,-0.114l0.022,-0.114l0.02,-0.116l0.017,-0.115l0.015,-0.117l0.012,-0.117l0.01,-0.117l0.008,-0.117l0.005,-0.118l0.003,-0.119l0.001,-0.118l-0.002,-0.119l-0.004,-0.118l-0.006,-0.119l-0.009,-0.119l-0.011,-0.119l-0.013,-0.119l-0.016,-0.119l-0.019,-0.119l-0.02,-0.119l-0.024,-0.118l-0.025,-0.118l-0.028,-0.118l-0.03,-0.118l-0.033,-0.117l-0.036,-0.117l-0.037,-0.116l-0.04,-0.116l-0.043,-0.116l-0.045,-0.114l-0.047,-0.114l-0.05,-0.114l-0.052,-0.113l-0.055,-0.112l-0.057,-0.111l-0.06,-0.11l-0.062,-0.11l-0.065,-0.108l-0.067,-0.108l-0.07,-0.106l-0.072,-0.106l-0.074,-0.104l-0.077,-0.103l-0.08,-0.102l-0.082,-0.1l-0.083,-0.098l-0.085,-0.096l-0.087,-0.094l-0.088,-0.092l-0.09,-0.089l-0.092,-0.087l-0.092,-0.085l-0.095,-0.083l-0.095,-0.081l-0.097,-0.078l-0.099,-0.076l-0.099,-0.074l-0.101,-0.071l-0.102,-0.07l-0.103,-0.067l-0.104,-0.065l-0.105,-0.062l-0.106,-0.061l-0.107,-0.058l-0.108,-0.056l-0.109,-0.053l-0.109,-0.051l-0.111,-0.049l-0.111,-0.047l-0.111,-0.044l-0.113,-0.042l-0.113,-0.04l-0.113,-0.037l-0.114,-0.035l-0.115,-0.033l-0.115,-0.03l-0.115,-0.028l-0.116,-0.026l-0.116,-0.023l-0.116,-0.021l-0.116,-0.019l-0.117,-0.016l-0.116,-0.014l-0.117,-0.011l-0.117,-0.009l-0.117,-0.007l-0.116,-0.004l-0.117,-0.002l-0.116,0l-0.117,0.003l-0.116,0.006l-0.115,0.008l-0.116,0.01l-0.115,0.012l-0.115,0.016l-0.114,0.017l-0.114,0.02l-0.113,0.023l-0.112,0.024l-0.112,0.028l-0.112,0.03l-0.11,0.032l-0.11,0.035l-0.109,0.037l-0.109,0.04l-0.107,0.042l-0.107,0.045l-0.105,0.048l-0.029,-0.112l-0.031,-0.112l-0.034,-0.11l-0.036,-0.109l-0.039,-0.109l-0.042,-0.108l-0.043,-0.106l-0.046,-0.106l-0.049,-0.105l-0.05,-0.103l-0.053,-0.103l-0.056,-0.101l-0.057,-0.101l-0.06,-0.099l-0.062,-0.097l-0.064,-0.097l-0.066,-0.095l-0.068,-0.095l-0.07,-0.092l-0.072,-0.092l-0.075,-0.09l-0.076,-0.088l-0.078,-0.087l-0.08,-0.086l-0.081,-0.084l-0.084,-0.083l-0.085,-0.081l-0.087,-0.079l-0.089,-0.078l-0.091,-0.076l-0.092,-0.074l-0.094,-0.073l-0.095,-0.071l-0.097,-0.069l-0.098,-0.067l-0.1,-0.066l-0.102,-0.063l-0.103,-0.062l-0.104,-0.06l-0.106,-0.058l-0.107,-0.055l-0.108,-0.054l-0.11,-0.052l-0.111,-0.049l-0.112,-0.048l-0.113,-0.045l-0.115,-0.043l-0.115,-0.041l-0.117,-0.039l-0.118,-0.036l-0.118,-0.034l-0.12,-0.032l-0.121,-0.03l-0.122,-0.027l-0.122,-0.024l-0.124,-0.022l-0.124,-0.02l-0.125,-0.017l-0.126,-0.014l-0.127,-0.012l-0.127,-0.01l-0.128,-0.007l-0.129,-0.004l-0.129,-0.001l-0.13,0.001Z" style="fill:#fff;"/><g id="_-redux" serif:id="©redux"><path d="M567.243,237.746c0.627,-0.065 1.103,-0.606 1.082,-1.255c-0.022,-0.649 -0.563,-1.168 -1.212,-1.168l-0.043,0c-0.671,0.021 -1.19,0.584 -1.168,1.255c0.021,0.324 0.151,0.605 0.346,0.8c-0.736,1.449 -1.861,2.509 -3.548,3.396c-1.147,0.606 -2.336,0.822 -3.526,0.671c-0.974,-0.13 -1.731,-0.562 -2.207,-1.276c-0.692,-1.06 -0.757,-2.207 -0.173,-3.354c0.411,-0.822 1.06,-1.427 1.471,-1.73c-0.086,-0.281 -0.216,-0.757 -0.281,-1.103c-3.137,2.271 -2.812,5.343 -1.861,6.792c0.714,1.082 2.164,1.753 3.765,1.753c0.432,0 0.865,-0.044 1.298,-0.152c2.769,-0.541 4.867,-2.185 6.057,-4.629Z" style="fill:#764abc;fill-rule:nonzero;"/><path d="M571.05,235.063c-1.644,-1.925 -4.067,-2.985 -6.836,-2.985l-0.346,0c-0.195,-0.39 -0.606,-0.649 -1.06,-0.649l-0.043,0c-0.671,0.021 -1.19,0.584 -1.168,1.255c0.021,0.649 0.562,1.168 1.211,1.168l0.043,0c0.476,-0.022 0.887,-0.325 1.06,-0.736l0.39,0c1.644,0 3.201,0.476 4.608,1.406c1.081,0.714 1.86,1.644 2.293,2.769c0.368,0.909 0.346,1.796 -0.044,2.553c-0.605,1.147 -1.622,1.774 -2.963,1.774c-0.866,0 -1.688,-0.26 -2.12,-0.454c-0.238,0.216 -0.671,0.562 -0.974,0.779c0.93,0.432 1.882,0.67 2.791,0.67c2.077,0 3.613,-1.146 4.197,-2.293c0.627,-1.255 0.584,-3.418 -1.039,-5.257Z" style="fill:#764abc;fill-rule:nonzero;"/><path d="M560.061,238.113c0.021,0.649 0.562,1.169 1.211,1.169l0.043,0c0.671,-0.022 1.19,-0.584 1.169,-1.255c-0.022,-0.649 -0.563,-1.168 -1.212,-1.168l-0.043,0c-0.043,0 -0.108,0 -0.152,0.021c-0.887,-1.471 -1.254,-3.072 -1.125,-4.802c0.087,-1.298 0.52,-2.423 1.277,-3.353c0.627,-0.801 1.839,-1.19 2.661,-1.212c2.293,-0.043 3.266,2.813 3.331,3.959c0.281,0.065 0.757,0.216 1.082,0.325c-0.26,-3.505 -2.423,-5.322 -4.5,-5.322c-1.947,0 -3.742,1.406 -4.456,3.483c-0.995,2.769 -0.346,5.43 0.865,7.528c-0.108,0.152 -0.173,0.39 -0.151,0.627Z" style="fill:#764abc;fill-rule:nonzero;"/></g></g><g id="_-redux1" serif:id="©redux"><path d="M444.243,95.119c1.454,-0.151 2.557,-1.404 2.506,-2.908c-0.05,-1.504 -1.303,-2.707 -2.807,-2.707l-0.1,0c-1.554,0.05 -2.757,1.353 -2.707,2.907c0.05,0.752 0.351,1.404 0.802,1.855c-1.705,3.359 -4.311,5.816 -8.222,7.871c-2.657,1.404 -5.414,1.905 -8.171,1.554c-2.256,-0.301 -4.011,-1.303 -5.114,-2.958c-1.604,-2.456 -1.754,-5.113 -0.401,-7.77c0.953,-1.905 2.457,-3.309 3.409,-4.011c-0.2,-0.651 -0.501,-1.754 -0.651,-2.556c-7.269,5.263 -6.517,12.382 -4.312,15.741c1.655,2.506 5.013,4.061 8.723,4.061c1.003,0 2.005,-0.101 3.008,-0.351c6.417,-1.254 11.28,-5.064 14.037,-10.728Z" style="fill:#764abc;"/><path d="M453.066,88.902c-3.81,-4.462 -9.425,-6.918 -15.842,-6.918l-0.802,0c-0.451,-0.902 -1.403,-1.504 -2.456,-1.504l-0.1,0c-1.554,0.05 -2.758,1.354 -2.707,2.908c0.05,1.504 1.303,2.707 2.807,2.707l0.1,0c1.103,-0.05 2.056,-0.752 2.457,-1.705l0.902,0c3.81,0 7.419,1.103 10.678,3.259c2.507,1.654 4.311,3.81 5.314,6.417c0.852,2.105 0.802,4.161 -0.1,5.915c-1.404,2.657 -3.76,4.111 -6.868,4.111c-2.006,0 -3.911,-0.602 -4.913,-1.053c-0.552,0.502 -1.554,1.304 -2.256,1.805c2.156,1.003 4.361,1.554 6.467,1.554c4.812,0 8.372,-2.657 9.725,-5.314c1.454,-2.907 1.354,-7.921 -2.406,-12.182Z" style="fill:#764abc;"/><path d="M427.599,95.971c0.05,1.504 1.304,2.707 2.808,2.707l0.1,0c1.554,-0.05 2.757,-1.354 2.707,-2.908c-0.05,-1.504 -1.303,-2.707 -2.807,-2.707l-0.101,0c-0.1,0 -0.25,0 -0.351,0.05c-2.055,-3.409 -2.907,-7.118 -2.606,-11.129c0.2,-3.008 1.203,-5.615 2.957,-7.77c1.454,-1.855 4.262,-2.758 6.167,-2.808c5.313,-0.1 7.569,6.517 7.72,9.174c0.651,0.151 1.754,0.502 2.506,0.752c-0.601,-8.121 -5.614,-12.332 -10.427,-12.332c-4.512,0 -8.673,3.259 -10.327,8.071c-2.306,6.417 -0.802,12.583 2.005,17.446c-0.25,0.351 -0.401,0.902 -0.351,1.454Z" style="fill:#764abc;"/></g><defs><linearGradient id="_Linear1" x1="0" y1="0" x2="1" y2="0" gradientUnits="userSpaceOnUse" gradientTransform="matrix(72.3162,4.0971e-14,4.0971e-14,-72.3162,435.741,148.726)"><stop offset="0" style="stop-color:#ffe5f2;stop-opacity:1"/><stop offset="1" style="stop-color:#ffbfdd;stop-opacity:1"/></linearGradient><linearGradient id="_Linear2" x1="0" y1="0" x2="1" y2="0" gradientUnits="userSpaceOnUse" gradientTransform="matrix(72.3162,4.0971e-14,4.0971e-14,-72.3162,278.949,148.726)"><stop offset="0" style="stop-color:#ffe5f2;stop-opacity:1"/><stop offset="1" style="stop-color:#ffbfdd;stop-opacity:1"/></linearGradient><linearGradient id="_Linear3" x1="0" y1="0" x2="1" y2="0" gradientUnits="userSpaceOnUse" gradientTransform="matrix(72.3162,4.0971e-14,4.0971e-14,-72.3162,435.741,229.891)"><stop offset="0" style="stop-color:#ffe5f2;stop-opacity:1"/><stop offset="1" style="stop-color:#ffbfdd;stop-opacity:1"/></linearGradient></defs></svg>