<?xml version="1.0" encoding="UTF-8" standalone="no"?><!DOCTYPE svg PUBLIC "-//W3C//DTD SVG 1.1//EN" "http://www.w3.org/Graphics/SVG/1.1/DTD/svg11.dtd"><svg width="100%" height="100%" viewBox="0 0 600 500" version="1.1" xmlns="http://www.w3.org/2000/svg" xmlns:xlink="http://www.w3.org/1999/xlink" xml:space="preserve" xmlns:serif="http://www.serif.com/" style="fill-rule:evenodd;clip-rule:evenodd;stroke-linecap:round;stroke-linejoin:round;stroke-miterlimit:1.5;"><rect id="isomorphic-fetch" x="0" y="0" width="600" height="500" style="fill:none;"/><path d="M370,310c0,-11.038 -8.962,-20 -20,-20l-290,0c-11.038,0 -20,8.962 -20,20l0,140c0,11.038 8.962,20 20,20l290,0c11.038,0 20,-8.962 20,-20l0,-140Z" style="fill:#e4e0fb;"/><path d="M370,60c0,-11.038 -8.962,-20 -20,-20l-290,0c-11.038,0 -20,8.962 -20,20l0,170c0,11.038 8.962,20 20,20l290,0c11.038,0 20,-8.962 20,-20l0,-170Z" style="fill:#dcebf2;"/><text x="149.9px" y="67.803px" style="font-family:'Roboto-Bold', 'Roboto';font-weight:700;font-size:30px;fill:#5498b9;">SER<tspan x="204.084px " y="67.803px ">V</tspan>ER</text><text x="154.265px" y="403.681px" style="font-family:'Roboto-Bold', 'Roboto';font-weight:700;font-size:30px;fill:#7e6ed6;">CLIEN<tspan x="236.516px " y="403.681px ">T</tspan></text><path d="M180,270l148.576,0" style="fill:none;stroke:#528cff;stroke-width:7px;"/><path d="M205,167.035c61.317,-3.364 63.991,103.021 118.712,102.965" style="fill:none;stroke:#528cff;stroke-width:7px;"/><path d="M205,218l-15,-18l30,0l-15,18Z" style="fill:#528cff;"/><path d="M345,270l-18,15l0,-30l18,15Z" style="fill:#528cff;"/><path d="M292,393.017l18,-15l0,30l-18,-15Z" style="fill:#ffab5a;"/><path d="M189,116.728l-18,-15l0,30l18,-15Z" style="fill:#ffab5a;"/><path d="M560,60c0,-11.038 -8.962,-20 -20,-20l-110,0c-11.038,0 -20,8.962 -20,20l0,390c0,11.038 8.962,20 20,20l110,0c11.038,0 20,-8.962 20,-20l0,-390Z" style="fill:#efffd9;"/><text x="461.892px" y="72.55px" style="font-family:'Roboto-Bold', 'Roboto';font-weight:700;font-size:30px;fill:#8abe4f;">API</text><path d="M400,242.143l60,0" style="fill:none;stroke:#528cff;stroke-width:7px;"/><path d="M469,242l-18,15l0,-30l18,15Z" style="fill:#528cff;"/><text x="80.796px" y="91.609px" style="font-family:'ArialMT', 'Arial', sans-serif;font-size:20px;fill:#5498b9;">get cookie from Koa context</text><text x="437.866px" y="91.609px" style="font-family:'ArialMT', 'Arial', sans-serif;font-size:20px;fill:#8abe4f;">issue JWT</text><text x="97.832px" y="433.763px" style="font-family:'ArialMT', 'Arial', sans-serif;font-size:20px;fill:#7e6ed6;">get cookie from browser</text><text x="97.861px" y="454.432px" style="font-family:'ArialMT', 'Arial', sans-serif;font-size:20px;fill:#7e6ed6;">set JWT<tspan x="170.83px 176.387px " y="454.432px 454.432px "> i</tspan>n cookie</text><text x="107.773px" y="347.561px" style="font-family:'ArialMT', 'Arial', sans-serif;font-size:20px;fill:#ff0078;">dispatch-fetch-actions</text><g id="file-shared"><path d="M430,230.007c0,-5.523 -4.484,-10.007 -10.007,-10.007l-59.986,0c-5.523,0 -10.007,4.484 -10.007,10.007l0,79.986c0,5.523 4.484,10.007 10.007,10.007l59.986,0c5.523,0 10.007,-4.484 10.007,-10.007l0,-79.986Z" style="fill:#ffe5f2;stroke:#fff;stroke-width:3px;"/><path d="M365,240l50,0" style="fill:none;stroke:#ffbfdd;stroke-width:7px;"/><path d="M365,260l50,0" style="fill:none;stroke:#ffbfdd;stroke-width:7px;"/><path d="M365,280l30,0" style="fill:none;stroke:#ffbfdd;stroke-width:7px;"/></g><g id="file-shared1" serif:id="file-shared"><path d="M245,230.007c0,-5.523 -4.484,-10.007 -10.007,-10.007l-59.986,0c-5.523,0 -10.007,4.484 -10.007,10.007l0,79.986c0,5.523 4.484,10.007 10.007,10.007l59.986,0c5.523,0 10.007,-4.484 10.007,-10.007l0,-79.986Z" style="fill:#ffe5f2;stroke:#fff;stroke-width:3px;"/><path d="M180,240l50,0" style="fill:none;stroke:#ffbfdd;stroke-width:7px;"/><path d="M180,260l50,0" style="fill:none;stroke:#ffbfdd;stroke-width:7px;"/><path d="M180,280l30,0" style="fill:none;stroke:#ffbfdd;stroke-width:7px;"/></g><path d="M205,131l0,21.914" style="fill:none;stroke:url(#_Linear1);stroke-width:7px;"/><g id="_-redux" serif:id="©redux"><path d="M212.966,277.778c1.524,-0.158 2.681,-1.471 2.628,-3.048c-0.053,-1.577 -1.366,-2.838 -2.943,-2.838l-0.105,0c-1.629,0.053 -2.891,1.419 -2.838,3.048c0.052,0.788 0.368,1.472 0.841,1.945c-1.787,3.521 -4.52,6.096 -8.619,8.251c-2.786,1.471 -5.676,1.997 -8.567,1.629c-2.364,-0.315 -4.204,-1.367 -5.36,-3.101c-1.682,-2.575 -1.839,-5.36 -0.421,-8.146c0.999,-1.997 2.576,-3.468 3.574,-4.204c-0.21,-0.683 -0.525,-1.84 -0.683,-2.68c-7.62,5.518 -6.832,12.981 -4.52,16.502c1.735,2.627 5.256,4.257 9.145,4.257c1.051,0 2.102,-0.105 3.153,-0.368c6.727,-1.314 11.825,-5.308 14.715,-11.247Z" style="fill:#764abc;"/><path d="M222.216,271.261c-3.994,-4.677 -9.88,-7.252 -16.607,-7.252l-0.841,0c-0.473,-0.946 -1.472,-1.577 -2.575,-1.577l-0.105,0c-1.63,0.053 -2.891,1.419 -2.838,3.048c0.052,1.577 1.366,2.838 2.943,2.838l0.105,0c1.156,-0.052 2.154,-0.788 2.575,-1.787l0.946,0c3.994,0 7.778,1.157 11.194,3.416c2.628,1.735 4.52,3.995 5.571,6.727c0.893,2.208 0.841,4.362 -0.105,6.202c-1.472,2.785 -3.942,4.309 -7.2,4.309c-2.102,0 -4.1,-0.63 -5.151,-1.103c-0.578,0.525 -1.629,1.366 -2.365,1.892c2.26,1.051 4.573,1.629 6.78,1.629c5.045,0 8.777,-2.786 10.196,-5.571c1.524,-3.048 1.419,-8.304 -2.523,-12.771Z" style="fill:#764abc;"/><path d="M195.518,278.671c0.053,1.577 1.367,2.838 2.943,2.838l0.105,0c1.63,-0.052 2.891,-1.419 2.838,-3.048c-0.052,-1.576 -1.366,-2.838 -2.943,-2.838l-0.105,0c-0.105,0 -0.263,0 -0.368,0.053c-2.154,-3.574 -3.048,-7.463 -2.733,-11.667c0.211,-3.153 1.262,-5.886 3.101,-8.146c1.524,-1.945 4.467,-2.891 6.464,-2.943c5.571,-0.105 7.936,6.832 8.094,9.617c0.683,0.158 1.839,0.526 2.627,0.789c-0.63,-8.514 -5.886,-12.929 -10.931,-12.929c-4.73,0 -9.092,3.416 -10.826,8.461c-2.418,6.727 -0.841,13.192 2.102,18.289c-0.263,0.368 -0.42,0.946 -0.368,1.524Z" style="fill:#764abc;"/></g><text x="316.655px" y="208.025px" style="font-family:'ArialMT', 'Arial', sans-serif;font-size:20px;fill:#ff0078;">isomorphic-fetch</text><path d="M205,181l0,28" style="fill:none;stroke:#528cff;stroke-width:7px;"/><path d="M406,295l18,-15l0,30l-18,-15Z" style="fill:#528cff;"/><path d="M390,311l15,18l-30,0l15,-18Z" style="fill:#528cff;"/><path d="M485,250l0,45l-67,0" style="fill:none;stroke:#528cff;stroke-width:7px;"/><path d="M103.22,290l0,-173.272l76.78,0" style="fill:none;stroke:#ffab5a;stroke-width:7px;stroke-linecap:butt;"/><g id="cookie"><circle cx="276" cy="393.017" r="16" style="fill:#ff7d00;"/><text x="266.989px" y="402.149px" style="font-family:'Arial-BoldMT', 'Arial', sans-serif;font-weight:700;font-size:25.092px;fill:#ffecd9;">C</text></g><g id="cookie1" serif:id="cookie"><circle cx="205" cy="116.728" r="16" style="fill:#ff7d00;"/><text x="195.989px" y="125.86px" style="font-family:'Arial-BoldMT', 'Arial', sans-serif;font-weight:700;font-size:25.092px;fill:#ffecd9;">C</text></g><path d="M390,328l0,65.017l-80,0" style="fill:none;stroke:url(#_Linear2);stroke-width:7px;"/><g id="jwt"><circle cx="485" cy="243" r="16" style="fill:#528cff;"/><text x="470.764px" y="247.598px" style="font-family:'Roboto-Bold', 'Roboto';font-weight:700;font-size:13.016px;fill:#f2ffe5;">JWT</text></g><g id="jwt1" serif:id="jwt"><circle cx="205" cy="166" r="16" style="fill:#528cff;"/><text x="190.764px" y="170.598px" style="font-family:'Roboto-Bold', 'Roboto';font-weight:700;font-size:13.016px;fill:#f2ffe5;">JWT</text></g><g id="jwt2" serif:id="jwt"><circle cx="390" cy="295" r="16" style="fill:#528cff;"/><text x="375.764px" y="299.598px" style="font-family:'Roboto-Bold', 'Roboto';font-weight:700;font-size:13.016px;fill:#f2ffe5;">JWT</text></g><defs><linearGradient id="_Linear1" x1="0" y1="0" x2="1" y2="0" gradientUnits="userSpaceOnUse" gradientTransform="matrix(1.61421e-15,16.5057,-26.362,1.01068e-15,211.543,133.424)"><stop offset="0" style="stop-color:#ffa44d;stop-opacity:1"/><stop offset="1" style="stop-color:#528cff;stop-opacity:1"/></linearGradient><linearGradient id="_Linear2" x1="0" y1="0" x2="1" y2="0" gradientUnits="userSpaceOnUse" gradientTransform="matrix(53.8589,0,0,58.658,329.432,369.051)"><stop offset="0" style="stop-color:#ffa44d;stop-opacity:1"/><stop offset="1" style="stop-color:#528cff;stop-opacity:1"/></linearGradient></defs></svg>