<?xml version="1.0" encoding="UTF-8" standalone="no"?><!DOCTYPE svg PUBLIC "-//W3C//DTD SVG 1.1//EN" "http://www.w3.org/Graphics/SVG/1.1/DTD/svg11.dtd"><svg width="100%" height="100%" viewBox="0 0 300 260" version="1.1" xmlns="http://www.w3.org/2000/svg" xmlns:xlink="http://www.w3.org/1999/xlink" xml:space="preserve" xmlns:serif="http://www.serif.com/" style="fill-rule:evenodd;clip-rule:evenodd;stroke-linejoin:round;stroke-miterlimit:1.41421;"><rect id="loc-chart" x="0" y="0" width="300" height="260" style="fill:none;"/><g><clipPath id="_clip1"><path d="M70,120c0,-44.153 35.847,-80 80,-80c44.153,0 80,35.847 80,80c0,44.153 -35.847,80 -80,80c-44.153,0 -80,-35.847 -80,-80Z"/></clipPath><g clip-path="url(#_clip1)"><path d="M172.987,43.374c33.743,10.122 57.013,41.397 57.013,76.626c0,43.887 -36.113,80 -80,80c-43.887,0 -80,-36.113 -80,-80c0,-43.887 36.113,-80 80,-80" style="fill:none;stroke:#ffbfdd;stroke-width:45px;"/><path d="M152.664,40.044c6.89,0.23 13.72,1.349 20.323,3.33" style="fill:none;stroke:#82b7d1;stroke-width:45px;"/><path d="M150,40c0.888,0 1.776,0.015 2.664,0.044" style="fill:none;stroke:#7e6ed6;stroke-width:45px;"/></g></g><g transform="matrix(0.702425,0,0,0.702425,37.0828,12.6184)"><text x="-39.494px" y="28.373px" style="font-family:'Roboto-Bold', 'Roboto';font-weight:700;font-size:34.167px;fill:#7e6ed6;">CLIEN<tspan x="54.183px " y="28.373px ">T</tspan></text><text x="2.971px" y="51.151px" style="font-family:'Roboto-Bold', 'Roboto';font-weight:700;font-size:22.778px;fill:#7e6ed6;">1%</text></g><g transform="matrix(1.37926,0,0,1.37926,217.332,-6.58542)"><text x="-12.18px" y="28.373px" style="font-family:'Roboto-Bold', 'Roboto';font-weight:700;font-size:17.401px;fill:#5498b9;">SER<tspan x="19.248px " y="28.373px ">V</tspan>ER</text><text x="12.059px" y="39.973px" style="font-family:'Roboto-Bold', 'Roboto';font-weight:700;font-size:11.6px;fill:#5498b9;">4%</text></g><g transform="matrix(1.37926,0,0,1.37926,28.6544,194.559)"><text x="-13.858px" y="28.373px" style="font-family:'Roboto-Bold', 'Roboto';font-weight:700;font-size:17.401px;fill:#ff4ca0;">SH<tspan x="9.286px " y="28.373px ">A</tspan>RED</text><text x="8.731px" y="39.973px" style="font-family:'Roboto-Bold', 'Roboto';font-weight:700;font-size:11.6px;fill:#ff4ca0;">95%</text></g><path d="M96.128,24.035l39.879,0l12.399,12.398" style="fill:none;stroke:#b5ace7;stroke-width:2px;stroke-linecap:round;stroke-miterlimit:1.5;"/><path d="M106.962,225.609l20.832,0l20.612,-20.612" style="fill:none;stroke:#ffbfdd;stroke-width:2px;stroke-linecap:round;stroke-miterlimit:1.5;"/><path d="M197.371,24.035l-15.42,0l-14.027,14.027" style="fill:none;stroke:#82b7d1;stroke-width:2px;stroke-linecap:round;stroke-miterlimit:1.5;"/></svg>