<?xml version="1.0" encoding="UTF-8" standalone="no"?><!DOCTYPE svg PUBLIC "-//W3C//DTD SVG 1.1//EN" "http://www.w3.org/Graphics/SVG/1.1/DTD/svg11.dtd"><svg width="100%" height="100%" viewBox="0 0 900 510" version="1.1" xmlns="http://www.w3.org/2000/svg" xmlns:xlink="http://www.w3.org/1999/xlink" xml:space="preserve" xmlns:serif="http://www.serif.com/" style="fill-rule:evenodd;clip-rule:evenodd;"><rect id="page-fetch-actions" x="0" y="0" width="900" height="510" style="fill:none;"/><path d="M627.224,39.268c0,-11.038 -8.961,-20 -20,-20l-434.115,0c-11.039,0 -20,8.962 -20,20l0,422.017c0,11.038 8.961,20 20,20l434.115,0c11.039,0 20,-8.962 20,-20l0,-422.017Z" style="fill:#fff3f9;"/><g transform="matrix(1,0,0,1,-1362.79,-1545.03)"><text x="2002.39px" y="1702.65px" style="font-family:'ArialMT', 'Arial', sans-serif;font-size:16px;fill:#4b4b77;">• declare all redux actions needed</text><text x="2014.39px" y="1726.65px" style="font-family:'ArialMT', 'Arial', sans-serif;font-size:16px;fill:#4b4b77;">for subsequent components</text><text x="2002.39px" y="1750.65px" style="font-family:'ArialMT', 'Arial', sans-serif;font-size:16px;fill:#4b4b77;">• will be called in fetchData</text></g><g id="redux-action"><path d="M722.436,218.419c-3.405,-0.505 -6.866,-0.505 -10.271,0l-1.525,5.627c-3.234,0.742 -6.32,2.021 -9.132,3.782l-5.057,-2.9c-2.765,2.051 -5.212,4.498 -7.263,7.263l2.9,5.057c-1.761,2.812 -3.039,5.898 -3.782,9.132l-5.627,1.525c-0.505,3.405 -0.505,6.866 0,10.271l5.627,1.525c0.743,3.234 2.021,6.32 3.782,9.132l-2.9,5.057c2.051,2.765 4.498,5.212 7.263,7.263l5.057,-2.9c2.812,1.761 5.898,3.039 9.132,3.782l1.525,5.627c3.405,0.505 6.866,0.505 10.271,0l1.525,-5.627c3.234,-0.743 6.32,-2.021 9.132,-3.782l5.057,2.9c2.765,-2.051 5.212,-4.498 7.263,-7.263l-2.9,-5.057c1.761,-2.812 3.04,-5.898 3.782,-9.132l5.627,-1.525c0.505,-3.405 0.505,-6.866 0,-10.271l-5.627,-1.525c-0.742,-3.234 -2.021,-6.32 -3.782,-9.132l2.9,-5.057c-2.051,-2.765 -4.498,-5.212 -7.263,-7.263l-5.057,2.9c-2.812,-1.761 -5.898,-3.04 -9.132,-3.782l-1.525,-5.627Zm-5.135,14.827c10.924,0 19.794,8.87 19.794,19.794c0,10.925 -8.87,19.795 -19.794,19.795c-10.925,0 -19.795,-8.87 -19.795,-19.795c0,-10.924 8.87,-19.794 19.795,-19.794Z" style="fill:#dbdbe3;"/><g id="_-redux" serif:id="©redux"><path d="M722.604,257.218c1.015,-0.105 1.784,-0.979 1.749,-2.029c-0.035,-1.049 -0.909,-1.889 -1.959,-1.889l-0.07,0c-1.085,0.035 -1.924,0.945 -1.889,2.029c0.035,0.525 0.245,0.98 0.56,1.295c-1.19,2.344 -3.009,4.058 -5.738,5.493c-1.855,0.979 -3.779,1.329 -5.703,1.084c-1.574,-0.21 -2.799,-0.91 -3.569,-2.064c-1.119,-1.714 -1.224,-3.569 -0.28,-5.423c0.665,-1.33 1.715,-2.309 2.379,-2.799c-0.139,-0.455 -0.349,-1.224 -0.454,-1.784c-5.073,3.673 -4.549,8.641 -3.009,10.986c1.154,1.749 3.498,2.833 6.087,2.833c0.7,0 1.4,-0.07 2.1,-0.244c4.478,-0.875 7.872,-3.534 9.796,-7.488Z" style="fill:#764abc;"/><path d="M728.762,252.88c-2.659,-3.114 -6.578,-4.828 -11.056,-4.828l-0.56,0c-0.315,-0.63 -0.98,-1.05 -1.714,-1.05l-0.07,0c-1.085,0.035 -1.925,0.945 -1.89,2.03c0.035,1.049 0.91,1.889 1.96,1.889l0.07,0c0.769,-0.035 1.434,-0.525 1.714,-1.19l0.63,0c2.659,0 5.178,0.77 7.452,2.274c1.749,1.155 3.009,2.659 3.708,4.479c0.595,1.469 0.56,2.904 -0.07,4.128c-0.979,1.854 -2.624,2.869 -4.793,2.869c-1.399,0 -2.729,-0.42 -3.428,-0.735c-0.385,0.35 -1.085,0.91 -1.575,1.26c1.505,0.7 3.044,1.084 4.513,1.084c3.359,0 5.843,-1.854 6.788,-3.708c1.015,-2.029 0.945,-5.528 -1.679,-8.502Z" style="fill:#764abc;"/><path d="M710.988,257.813c0.035,1.05 0.91,1.889 1.96,1.889l0.07,0c1.084,-0.035 1.924,-0.944 1.889,-2.029c-0.035,-1.049 -0.91,-1.889 -1.959,-1.889l-0.07,0c-0.07,0 -0.175,0 -0.245,0.035c-1.435,-2.379 -2.03,-4.968 -1.82,-7.767c0.14,-2.099 0.84,-3.919 2.065,-5.423c1.014,-1.295 2.973,-1.924 4.303,-1.959c3.709,-0.07 5.283,4.548 5.388,6.402c0.455,0.105 1.224,0.35 1.749,0.525c-0.42,-5.668 -3.918,-8.607 -7.277,-8.607c-3.149,0 -6.053,2.275 -7.207,5.633c-1.61,4.479 -0.56,8.782 1.399,12.176c-0.175,0.244 -0.28,0.629 -0.245,1.014Z" style="fill:#764abc;"/></g></g><g id="redux-action1" serif:id="redux-action"><path d="M722.436,218.419c-3.405,-0.505 -6.866,-0.505 -10.271,0l-1.525,5.627c-3.234,0.742 -6.32,2.021 -9.132,3.782l-5.057,-2.9c-2.765,2.051 -5.212,4.498 -7.263,7.263l2.9,5.057c-1.761,2.812 -3.039,5.898 -3.782,9.132l-5.627,1.525c-0.505,3.405 -0.505,6.866 0,10.271l5.627,1.525c0.743,3.234 2.021,6.32 3.782,9.132l-2.9,5.057c2.051,2.765 4.498,5.212 7.263,7.263l5.057,-2.9c2.812,1.761 5.898,3.039 9.132,3.782l1.525,5.627c3.405,0.505 6.866,0.505 10.271,0l1.525,-5.627c3.234,-0.743 6.32,-2.021 9.132,-3.782l5.057,2.9c2.765,-2.051 5.212,-4.498 7.263,-7.263l-2.9,-5.057c1.761,-2.812 3.04,-5.898 3.782,-9.132l5.627,-1.525c0.505,-3.405 0.505,-6.866 0,-10.271l-5.627,-1.525c-0.742,-3.234 -2.021,-6.32 -3.782,-9.132l2.9,-5.057c-2.051,-2.765 -4.498,-5.212 -7.263,-7.263l-5.057,2.9c-2.812,-1.761 -5.898,-3.04 -9.132,-3.782l-1.525,-5.627Zm-5.135,14.827c10.924,0 19.794,8.87 19.794,19.794c0,10.925 -8.87,19.795 -19.794,19.795c-10.925,0 -19.795,-8.87 -19.795,-19.795c0,-10.924 8.87,-19.794 19.795,-19.794Z" style="fill:#dbdbe3;"/><g id="_-redux1" serif:id="©redux"><path d="M722.604,257.218c1.015,-0.105 1.784,-0.979 1.749,-2.029c-0.035,-1.049 -0.909,-1.889 -1.959,-1.889l-0.07,0c-1.085,0.035 -1.924,0.945 -1.889,2.029c0.035,0.525 0.245,0.98 0.56,1.295c-1.19,2.344 -3.009,4.058 -5.738,5.493c-1.855,0.979 -3.779,1.329 -5.703,1.084c-1.574,-0.21 -2.799,-0.91 -3.569,-2.064c-1.119,-1.714 -1.224,-3.569 -0.28,-5.423c0.665,-1.33 1.715,-2.309 2.379,-2.799c-0.139,-0.455 -0.349,-1.224 -0.454,-1.784c-5.073,3.673 -4.549,8.641 -3.009,10.986c1.154,1.749 3.498,2.833 6.087,2.833c0.7,0 1.4,-0.07 2.1,-0.244c4.478,-0.875 7.872,-3.534 9.796,-7.488Z" style="fill:#764abc;"/><path d="M728.762,252.88c-2.659,-3.114 -6.578,-4.828 -11.056,-4.828l-0.56,0c-0.315,-0.63 -0.98,-1.05 -1.714,-1.05l-0.07,0c-1.085,0.035 -1.925,0.945 -1.89,2.03c0.035,1.049 0.91,1.889 1.96,1.889l0.07,0c0.769,-0.035 1.434,-0.525 1.714,-1.19l0.63,0c2.659,0 5.178,0.77 7.452,2.274c1.749,1.155 3.009,2.659 3.708,4.479c0.595,1.469 0.56,2.904 -0.07,4.128c-0.979,1.854 -2.624,2.869 -4.793,2.869c-1.399,0 -2.729,-0.42 -3.428,-0.735c-0.385,0.35 -1.085,0.91 -1.575,1.26c1.505,0.7 3.044,1.084 4.513,1.084c3.359,0 5.843,-1.854 6.788,-3.708c1.015,-2.029 0.945,-5.528 -1.679,-8.502Z" style="fill:#764abc;"/><path d="M710.988,257.813c0.035,1.05 0.91,1.889 1.96,1.889l0.07,0c1.084,-0.035 1.924,-0.944 1.889,-2.029c-0.035,-1.049 -0.91,-1.889 -1.959,-1.889l-0.07,0c-0.07,0 -0.175,0 -0.245,0.035c-1.435,-2.379 -2.03,-4.968 -1.82,-7.767c0.14,-2.099 0.84,-3.919 2.065,-5.423c1.014,-1.295 2.973,-1.924 4.303,-1.959c3.709,-0.07 5.283,4.548 5.388,6.402c0.455,0.105 1.224,0.35 1.749,0.525c-0.42,-5.668 -3.918,-8.607 -7.277,-8.607c-3.149,0 -6.053,2.275 -7.207,5.633c-1.61,4.479 -0.56,8.782 1.399,12.176c-0.175,0.244 -0.28,0.629 -0.245,1.014Z" style="fill:#764abc;"/></g></g><g id="redux-action2" serif:id="redux-action"><path d="M802.701,218.419c-3.405,-0.505 -6.866,-0.505 -10.271,0l-1.525,5.627c-3.234,0.742 -6.321,2.021 -9.132,3.782l-5.057,-2.9c-2.765,2.051 -5.212,4.498 -7.263,7.263l2.9,5.057c-1.761,2.812 -3.04,5.898 -3.783,9.132l-5.626,1.525c-0.505,3.405 -0.505,6.866 0,10.271l5.626,1.525c0.743,3.234 2.022,6.32 3.783,9.132l-2.9,5.057c2.051,2.765 4.498,5.212 7.263,7.263l5.057,-2.9c2.811,1.761 5.898,3.039 9.132,3.782l1.525,5.627c3.405,0.505 6.866,0.505 10.271,0l1.525,-5.627c3.233,-0.743 6.32,-2.021 9.132,-3.782l5.057,2.9c2.765,-2.051 5.212,-4.498 7.262,-7.263l-2.9,-5.057c1.762,-2.812 3.04,-5.898 3.783,-9.132l5.626,-1.525c0.505,-3.405 0.505,-6.866 0,-10.271l-5.626,-1.525c-0.743,-3.234 -2.021,-6.32 -3.783,-9.132l2.9,-5.057c-2.05,-2.765 -4.497,-5.212 -7.262,-7.263l-5.057,2.9c-2.812,-1.761 -5.899,-3.04 -9.132,-3.782l-1.525,-5.627Zm-5.136,14.827c10.925,0 19.794,8.87 19.794,19.794c0,10.925 -8.869,19.795 -19.794,19.795c-10.924,0 -19.794,-8.87 -19.794,-19.795c0,-10.924 8.87,-19.794 19.794,-19.794Z" style="fill:#dbdbe3;"/><g id="_-redux2" serif:id="©redux"><path d="M802.869,257.218c1.014,-0.105 1.784,-0.979 1.749,-2.029c-0.035,-1.049 -0.91,-1.889 -1.959,-1.889l-0.07,0c-1.085,0.035 -1.925,0.945 -1.89,2.029c0.035,0.525 0.245,0.98 0.56,1.295c-1.189,2.344 -3.009,4.058 -5.738,5.493c-1.854,0.979 -3.778,1.329 -5.702,1.084c-1.575,-0.21 -2.799,-0.91 -3.569,-2.064c-1.12,-1.714 -1.225,-3.569 -0.28,-5.423c0.665,-1.33 1.714,-2.309 2.379,-2.799c-0.14,-0.455 -0.35,-1.224 -0.455,-1.784c-5.073,3.673 -4.548,8.641 -3.009,10.986c1.155,1.749 3.499,2.833 6.088,2.833c0.7,0 1.4,-0.07 2.099,-0.244c4.479,-0.875 7.872,-3.534 9.797,-7.488Z" style="fill:#764abc;"/><path d="M809.026,252.88c-2.659,-3.114 -6.577,-4.828 -11.056,-4.828l-0.559,0c-0.315,-0.63 -0.98,-1.05 -1.715,-1.05l-0.07,0c-1.084,0.035 -1.924,0.945 -1.889,2.03c0.035,1.049 0.91,1.889 1.959,1.889l0.07,0c0.77,-0.035 1.435,-0.525 1.715,-1.19l0.629,0c2.659,0 5.178,0.77 7.453,2.274c1.749,1.155 3.008,2.659 3.708,4.479c0.595,1.469 0.56,2.904 -0.07,4.128c-0.98,1.854 -2.624,2.869 -4.793,2.869c-1.4,0 -2.729,-0.42 -3.429,-0.735c-0.385,0.35 -1.084,0.91 -1.574,1.26c1.504,0.7 3.044,1.084 4.513,1.084c3.359,0 5.843,-1.854 6.788,-3.708c1.014,-2.029 0.944,-5.528 -1.68,-8.502Z" style="fill:#764abc;"/><path d="M791.253,257.813c0.035,1.05 0.91,1.889 1.959,1.889l0.07,0c1.085,-0.035 1.924,-0.944 1.889,-2.029c-0.034,-1.049 -0.909,-1.889 -1.959,-1.889l-0.07,0c-0.07,0 -0.175,0 -0.245,0.035c-1.434,-2.379 -2.029,-4.968 -1.819,-7.767c0.14,-2.099 0.84,-3.919 2.064,-5.423c1.015,-1.295 2.974,-1.924 4.304,-1.959c3.708,-0.07 5.283,4.548 5.388,6.402c0.454,0.105 1.224,0.35 1.749,0.525c-0.42,-5.668 -3.919,-8.607 -7.277,-8.607c-3.149,0 -6.053,2.275 -7.208,5.633c-1.609,4.479 -0.559,8.782 1.4,12.176c-0.175,0.244 -0.28,0.629 -0.245,1.014Z" style="fill:#764abc;"/></g></g><g id="react-component" serif:id="react component"><path d="M799.852,425.527c3.892,-3.892 3.892,-10.211 0,-14.103l-32.897,-32.897c-3.892,-3.892 -10.211,-3.892 -14.103,0l-32.897,32.897c-3.892,3.892 -3.892,10.211 0,14.103l32.897,32.897c3.892,3.892 10.211,3.892 14.103,0l32.897,-32.897Z" style="fill:#ffe5f2;"/><g id="_-react" serif:id="©react"><circle cx="759.904" cy="418.475" r="4.746" style="fill:#61dafb;"/><ellipse cx="759.904" cy="418.475" rx="25.468" ry="9.724" style="fill:none;stroke:#61dafb;stroke-width:2.32px;"/><path d="M768.325,413.613c7.028,12.173 8.96,24.235 4.312,26.918c-4.647,2.683 -14.127,-5.021 -21.155,-17.194c-7.028,-12.173 -8.96,-24.234 -4.312,-26.917c4.648,-2.684 14.127,5.02 21.155,17.193Z" style="fill:none;stroke:#61dafb;stroke-width:2.32px;"/><path d="M768.325,423.337c-7.028,12.173 -16.507,19.877 -21.155,17.194c-4.648,-2.683 -2.716,-14.745 4.312,-26.918c7.028,-12.173 16.508,-19.877 21.155,-17.193c4.648,2.683 2.716,14.744 -4.312,26.917Z" style="fill:none;stroke:#61dafb;stroke-width:2.32px;"/></g></g><text x="687.477px" y="358.99px" style="font-family:'ArialMT', 'Arial', sans-serif;font-size:20px;fill:#ff0078;">page component</text><text x="691.818px" y="130.831px" style="font-family:'ArialMT', 'Arial', sans-serif;font-size:20px;fill:#4b4b77;">actionCreators</text><path d="M601.457,201.155c0,-11.039 -8.962,-20 -20,-20l-382.581,0c-11.038,0 -20,8.961 -20,20l0,234.726c0,11.038 8.962,20 20,20l382.581,0c11.038,0 20,-8.962 20,-20l0,-234.726Z" style="fill:#ffe5f2;"/><text x="218.944px" y="220.845px" style="font-family:'Roboto-Bold', 'Roboto';font-weight:700;font-size:31.724px;fill:#445;">HoC page-f<tspan x="381.376px " y="220.845px ">e</tspan>tch-actions</text><text x="196.042px" y="62.876px" style="font-family:'Roboto-Bold', 'Roboto';font-weight:700;font-size:31.724px;fill:#ff0078;">Module page-f<tspan x="404.278px " y="62.876px ">e</tspan>tch-actions</text><text x="282.568px" y="95.941px" style="font-family:'Menlo-Bold', 'Menlo', monospace;font-weight:700;font-size:20px;fill:#0064ff;">SKIP_FIRST = true</text><text x="422.928px" y="375.214px" style="font-family:'Menlo-Bold', 'Menlo', monospace;font-weight:700;font-size:20px;fill:#0064ff;">!SKIP_FIRST</text><text x="195.382px" y="259.852px" style="font-family:'Menlo-Bold', 'Menlo', monospace;font-weight:700;font-size:20px;">static fetchData()</text><text x="195.421px" y="374.177px" style="font-family:'Menlo-Bold', 'Menlo', monospace;font-weight:700;font-size:20px;">componentDidMount()</text><text x="195.421px" y="425.76px" style="font-family:'Menlo-Bold', 'Menlo', monospace;font-weight:700;font-size:20px;">render()</text><text x="16.535px" y="263.266px" style="font-family:'Roboto-Bold', 'Roboto';font-weight:700;font-size:24px;fill:#5498b9;">SER<tspan x="59.883px " y="263.266px ">V</tspan>ER</text><path d="M119.498,255l18,15l0,-30l-18,15Z" style="fill:#a0c9dc;"/><path d="M418.645,253.04l18,-15l0,30l-18,-15Z" style="fill:#8a8aa6;"/><path d="M418.645,420.268l18,-15l0,30l-18,-15Z" style="fill:#8a8aa6;"/><path d="M428.279,348.476l15,-18l-30,0l15,18Z" style="fill:#ff81bc;"/><path d="M418.645,288.04l18,15l0,-30l-18,15Z" style="fill:#ff81bc;"/><path d="M119.498,368.127l18,15l0,-30l-18,15Z" style="fill:#b5ace7;"/><path d="M186.797,255.03l-58.299,0" style="fill:none;stroke:#a0c9dc;stroke-width:7px;stroke-linecap:round;stroke-linejoin:round;stroke-miterlimit:1.5;"/><path d="M666.69,253.01l-238.411,0" style="fill:none;stroke:#8a8aa7;stroke-width:7px;stroke-linecap:round;stroke-linejoin:round;stroke-miterlimit:1.5;"/><path d="M666.69,420.238l-238.411,0" style="fill:none;stroke:#8a8aa7;stroke-width:7px;stroke-linecap:round;stroke-linejoin:round;stroke-miterlimit:1.5;"/><path d="M561.685,369.697l21.815,0l0,-81.657l-155.221,0" style="fill:none;stroke:#ff7fbb;stroke-width:7px;stroke-linecap:round;stroke-linejoin:round;stroke-miterlimit:1.5;"/><path d="M428.279,311.21l0,22.29" style="fill:none;stroke:#ff7fbb;stroke-width:7px;stroke-linecap:round;stroke-linejoin:round;stroke-miterlimit:1.5;"/><path d="M186.797,368.157l-58.299,0" style="fill:none;stroke:#b5ace7;stroke-width:7px;stroke-linecap:round;stroke-linejoin:round;stroke-miterlimit:1.5;"/><text x="16.336px" y="375.214px" style="font-family:'Roboto-Bold', 'Roboto';font-weight:700;font-size:24px;fill:#7e6ed6;">CLIEN<tspan x="82.137px " y="375.214px ">T</tspan></text><g transform="matrix(1,0,0,1,-246.864,-267.659)"><text x="544.095px" y="394.195px" style="font-family:'ArialMT', 'Arial', sans-serif;font-size:20px;">will be set to</text><text x="659.7px" y="394.195px" style="font-family:'Menlo-Bold', 'Menlo', monospace;font-weight:700;font-size:20px;">false</text><text x="462.4px" y="418.195px" style="font-family:'ArialMT', 'Arial', sans-serif;font-size:20px;">on the ﬁrst</text><text x="561.336px" y="418.195px" style="font-family:'Menlo-Bold', 'Menlo', monospace;font-weight:700;font-size:20px;">componentDidMount</text><text x="771.59px" y="418.195px" style="font-family:'ArialMT', 'Arial', sans-serif;font-size:20px;">call</text></g><g id="redux-action3" serif:id="redux-action"><path d="M238.83,277.092c-3.405,-0.505 -6.866,-0.505 -10.271,0l-1.525,5.626c-3.234,0.743 -6.32,2.022 -9.132,3.783l-5.057,-2.9c-2.765,2.05 -5.212,4.498 -7.263,7.263l2.9,5.056c-1.761,2.812 -3.039,5.899 -3.782,9.132l-5.627,1.525c-0.505,3.406 -0.505,6.867 0,10.272l5.627,1.525c0.743,3.233 2.021,6.32 3.782,9.132l-2.9,5.057c2.051,2.764 4.498,5.212 7.263,7.262l5.057,-2.9c2.812,1.761 5.898,3.04 9.132,3.783l1.525,5.626c3.405,0.505 6.866,0.505 10.271,0l1.525,-5.626c3.234,-0.743 6.32,-2.022 9.132,-3.783l5.057,2.9c2.765,-2.05 5.212,-4.498 7.263,-7.262l-2.9,-5.057c1.761,-2.812 3.039,-5.899 3.782,-9.132l5.627,-1.525c0.505,-3.405 0.505,-6.866 0,-10.272l-5.627,-1.525c-0.743,-3.233 -2.021,-6.32 -3.782,-9.132l2.9,-5.056c-2.051,-2.765 -4.498,-5.213 -7.263,-7.263l-5.057,2.9c-2.812,-1.761 -5.898,-3.04 -9.132,-3.783l-1.525,-5.626Zm-5.135,14.827c10.924,0 19.794,8.869 19.794,19.794c0,10.925 -8.87,19.794 -19.794,19.794c-10.925,0 -19.795,-8.869 -19.795,-19.794c0,-10.925 8.87,-19.794 19.795,-19.794Z" style="fill:#dbdbe3;"/><g id="_-redux3" serif:id="©redux"><path d="M238.998,315.891c1.014,-0.105 1.784,-0.98 1.749,-2.029c-0.035,-1.05 -0.909,-1.889 -1.959,-1.889l-0.07,0c-1.085,0.035 -1.924,0.944 -1.889,2.029c0.035,0.525 0.245,0.979 0.559,1.294c-1.189,2.344 -3.008,4.059 -5.737,5.493c-1.855,0.98 -3.779,1.33 -5.703,1.085c-1.575,-0.21 -2.799,-0.91 -3.569,-2.064c-1.119,-1.715 -1.224,-3.569 -0.28,-5.423c0.665,-1.33 1.715,-2.309 2.379,-2.799c-0.14,-0.455 -0.349,-1.225 -0.454,-1.785c-5.073,3.674 -4.549,8.642 -3.009,10.986c1.154,1.749 3.498,2.834 6.087,2.834c0.7,0 1.4,-0.07 2.1,-0.245c4.478,-0.874 7.872,-3.533 9.796,-7.487Z" style="fill:#764abc;"/><path d="M245.156,311.553c-2.659,-3.114 -6.578,-4.828 -11.056,-4.828l-0.56,0c-0.315,-0.63 -0.98,-1.05 -1.714,-1.05l-0.07,0c-1.085,0.035 -1.925,0.945 -1.89,2.029c0.035,1.05 0.91,1.889 1.96,1.889l0.07,0c0.769,-0.035 1.434,-0.524 1.714,-1.189l0.63,0c2.659,0 5.178,0.77 7.452,2.274c1.749,1.155 3.009,2.659 3.708,4.478c0.595,1.47 0.56,2.904 -0.07,4.129c-0.979,1.854 -2.624,2.869 -4.793,2.869c-1.399,0 -2.729,-0.42 -3.428,-0.735c-0.385,0.35 -1.085,0.91 -1.575,1.259c1.505,0.7 3.044,1.085 4.513,1.085c3.359,0 5.843,-1.854 6.788,-3.709c1.014,-2.029 0.944,-5.527 -1.679,-8.501Z" style="fill:#764abc;"/><path d="M227.382,316.486c0.035,1.049 0.91,1.889 1.96,1.889l0.07,0c1.084,-0.035 1.924,-0.945 1.889,-2.029c-0.035,-1.05 -0.91,-1.889 -1.959,-1.889l-0.07,0c-0.07,0 -0.175,0 -0.245,0.035c-1.435,-2.38 -2.03,-4.969 -1.82,-7.767c0.14,-2.1 0.84,-3.919 2.065,-5.423c1.014,-1.295 2.973,-1.925 4.303,-1.96c3.709,-0.07 5.283,4.549 5.388,6.403c0.455,0.105 1.224,0.35 1.749,0.525c-0.42,-5.668 -3.918,-8.607 -7.277,-8.607c-3.149,0 -6.053,2.274 -7.207,5.633c-1.61,4.478 -0.56,8.782 1.399,12.175c-0.175,0.245 -0.28,0.63 -0.245,1.015Z" style="fill:#764abc;"/></g></g><g transform="matrix(1,0,0,1,-1567,-842.986)"><text x="1845.11px" y="1143.03px" style="font-family:'Roboto-Regular', 'Roboto';font-size:16px;">add</text><text x="1845.11px" y="1160.03px" style="font-family:'Roboto-Regular', 'Roboto';font-size:16px;">authentication</text><text x="1845.11px" y="1177.03px" style="font-family:'Roboto-Regular', 'Roboto';font-size:16px;">action</text></g></svg>