<?xml version="1.0" standalone="no"?>
<!DOCTYPE svg PUBLIC "-//W3C//DTD SVG 1.1//EN" "http://www.w3.org/Graphics/SVG/1.1/DTD/svg11.dtd">
<svg width="100%" height="100%" viewBox="0 0 236 77" version="1.1" xmlns="http://www.w3.org/2000/svg" xmlns:xlink="http://www.w3.org/1999/xlink" xml:space="preserve" style="fill-rule:evenodd;clip-rule:evenodd;stroke-linecap:round;stroke-linejoin:round;stroke-miterlimit:1.41421;">
    <g transform="matrix(1,0,0,1,-579.486,-5.16988e-25)">
        <g id="shape-basic" transform="matrix(0.196621,4.13143e-13,7.64779e-14,0.0127088,579.486,5.16988e-25)">
            <g transform="matrix(6.28452,-2.043e-10,-3.06057e-11,78.6858,-18.9761,-709.675)">
                <path d="M21.068,66.238L44.053,25.044L66.978,65.641" style="fill:none;stroke-width:1.78px;stroke:rgb(67,250,255);"/>
            </g>
            <g transform="matrix(6.28452,-2.043e-10,-3.06057e-11,78.6858,499.507,-1553.89)">
                <path d="M21.068,66.238L44.053,25.044L66.978,65.641L83.379,50.239L82.535,88.489L21.068,66.238Z" style="fill:none;stroke-width:1.78px;stroke:rgb(67,250,255);"/>
            </g>
            <g transform="matrix(5.08592,-1.65336e-10,-3.06057e-11,78.6858,2.61829,-1008.22)">
                <rect x="46.896" y="26.651" width="6.511" height="6.511" style="fill:white;stroke-width:0.5px;stroke-linejoin:miter;stroke:rgb(4,51,255);"/>
            </g>
            <g transform="matrix(5.08592,-1.65336e-10,-3.06057e-11,78.6858,521.101,-1852.43)">
                <rect x="46.896" y="26.651" width="6.511" height="6.511" style="fill:white;stroke-width:0.5px;stroke-linejoin:miter;stroke:rgb(4,51,255);"/>
            </g>
            <g transform="matrix(5.08592,-1.65336e-10,-3.06057e-11,78.6858,768.438,45.9812)">
                <rect x="46.896" y="26.651" width="6.511" height="6.511" style="fill:white;stroke-width:0.5px;stroke-linejoin:miter;stroke:rgb(4,51,255);"/>
            </g>
            <g transform="matrix(5.08592,-1.65336e-10,-3.06057e-11,78.6858,-141.193,2127.44)">
                <rect x="46.896" y="26.651" width="6.511" height="6.511" style="fill:white;stroke-width:0.5px;stroke-linejoin:miter;stroke:rgb(4,51,255);"/>
            </g>
            <g transform="matrix(5.08592,-1.65336e-10,-3.06057e-11,78.6858,664.205,1226.69)">
                <rect x="46.896" y="26.651" width="6.511" height="6.511" style="fill:white;stroke-width:0.5px;stroke-linejoin:miter;stroke:rgb(4,51,255);"/>
            </g>
            <g transform="matrix(5.08592,-1.65336e-10,-3.06057e-11,78.6858,147.349,2127.44)">
                <rect x="46.896" y="26.651" width="6.511" height="6.511" style="fill:white;stroke-width:0.5px;stroke-linejoin:miter;stroke:rgb(187,30,98);"/>
            </g>
            <g transform="matrix(5.08592,-1.65336e-10,-3.06057e-11,78.6858,376.843,1331.63)">
                <rect x="46.896" y="26.651" width="6.511" height="6.511" style="fill:white;stroke-width:0.5px;stroke-linejoin:miter;stroke:rgb(187,30,98);"/>
            </g>
            <g transform="matrix(5.08592,-1.65336e-10,-3.06057e-11,78.6858,763.431,3039.54)">
                <rect x="46.896" y="26.651" width="6.511" height="6.511" style="fill:white;stroke-width:0.5px;stroke-linejoin:miter;stroke:rgb(4,51,255);"/>
            </g>
        </g>
    </g>
</svg>
