<?xml version="1.0" encoding="UTF-8" standalone="no"?><!DOCTYPE svg PUBLIC "-//W3C//DTD SVG 1.1//EN" "http://www.w3.org/Graphics/SVG/1.1/DTD/svg11.dtd"><svg width="100%" height="100%" viewBox="0 0 400 190" version="1.1" xmlns="http://www.w3.org/2000/svg" xmlns:xlink="http://www.w3.org/1999/xlink" xml:space="preserve" xmlns:serif="http://www.serif.com/" style="fill-rule:evenodd;clip-rule:evenodd;stroke-linecap:round;stroke-linejoin:round;stroke-miterlimit:1.5;"><rect id="browser-dont-understand-word" x="0" y="0" width="400" height="190" style="fill:none;"/><g id="docx-bubble"><path d="M255.192,109.693c-1.91,0.662 -3.929,1.161 -6.163,1.556c-31.922,5.653 -48.279,-8.348 -52.425,-12.636c-7.283,-7.53 -13.749,-15.284 -16.556,-25.44c-3.998,-14.466 5.005,-33.267 15.085,-43.936c11.386,-12.051 30.098,-18.749 46.902,-16.307c8.973,1.304 17.766,5.738 25.139,10.634c6.302,4.184 11.206,10.199 14.547,16.982c3.392,6.888 4.864,13.706 4.324,21.19c-0.977,13.522 -2.36,24.502 -12.16,34.411c-3.846,3.89 -7.047,6.795 -10.087,8.991c-0.126,0.835 -0.254,1.636 -0.281,2.301c-0.142,3.544 0.375,7.526 1.552,10.871c0.617,1.755 1.412,3.48 2.371,5.077c0.117,0.196 0.531,1.103 0.872,1.334c0.172,0.032 0.272,0.054 0.145,0.054c-0.046,0 -0.095,-0.019 -0.145,-0.054c-0.21,-0.038 -0.526,-0.091 -0.674,-0.135c-0.579,-0.174 -1.137,-0.39 -1.689,-0.638c-1.628,-0.733 -3.089,-1.556 -4.465,-2.716c-3.004,-2.532 -5.596,-7.284 -6.292,-11.539Z" style="fill:#ffe5f2;"/><path d="M200.28,38.272c0,-1.024 -3.694,7.656 1.57,7.948c1.505,0.084 4.623,-2.029 3.344,-3.759c-0.779,-1.053 -2.559,-1.518 -3.794,-1.621c-0.675,-0.057 -2.52,0.472 -2.033,0c2.688,-2.607 10.91,-4.234 12.483,0.156c1.941,5.419 -2.789,11.332 -5.64,15.499c-0.619,0.905 -3.623,4.45 -2.515,5.621c1.216,1.287 4.314,-0.66 5.381,-1.275c3.04,-1.756 12.105,-6.822 11.032,-11.346c-1.278,-5.382 -13.614,-1.498 -15.863,1.19c-2.222,2.655 0.024,4.4 -0.913,6.672c-0.209,0.507 -4.133,3.013 -3.707,3.19c1.723,0.718 5.25,-0.84 6.727,-1.499c5.6,-2.504 13.854,-8.317 14.446,-15.053c0.182,-2.071 -1.462,-4.949 -3.674,-5.328c-0.841,-0.144 -1.65,0.308 -1.861,1.156c-0.098,0.394 0.174,1.613 0.173,1.207c-0.012,-2.964 -2.163,-7.027 1.794,-8.931c2.383,-1.147 5.434,-0.018 7.38,1.483c3.242,2.501 3.959,6.513 6.757,9.207c2.848,2.741 13.937,3.215 8.171,10.671c-2.919,3.775 -14.348,6.12 -12.947,-1.62c0.841,-4.644 5.351,-8.674 9.64,-10.206c1.547,-0.553 7.235,0.252 6.118,-2.501c-1.645,-4.053 -9.449,-6.064 -13.019,-4.173c-0.875,0.463 -4.371,4.217 -1.359,3.777c3.997,-0.584 5.871,-4.427 6.241,-8.087c0.114,-1.134 0.119,-2.291 -0.087,-3.414c-0.115,-0.626 -0.95,-2.294 -0.5,-1.844c1.764,1.761 0.812,5.536 -0.363,7.241c-3.33,4.834 -9.864,7.544 -12.483,12.707c-1.944,3.834 2.596,6.147 4.019,9.414c0.96,2.204 0.186,4.229 0.482,6.5c0.154,1.172 1.09,1.249 2.088,1.138" style="fill:none;stroke:#82b7d1;stroke-width:2px;"/><path d="M243.282,24.272c-0.007,1.939 0.267,3.675 -0.191,5.637" style="fill:none;stroke:#82b7d1;stroke-width:2px;"/><path d="M250.278,50.27c-1.171,0 -1.899,-1.879 -3.258,-1.879c-4.176,0 -3.394,4.097 -0.635,5.777c2.839,1.728 6.224,0.104 9.259,0.293c2.111,0.132 3.728,1.622 5.741,2.087c1.129,0.26 2.417,0.167 3.328,-0.604c6.704,-5.677 -1.931,-12.75 -6.727,-15.105c-1.18,-0.579 -5.346,-2.549 -4.378,-4.481c0.834,-1.665 4.11,-0.515 5.26,0.017c3.359,1.554 6.506,5.277 5.895,9.189c-0.885,5.662 -8.396,5.334 -12.054,2.879c-1.312,-0.881 -5.253,-8.502 -5.447,-8.431c-5.948,2.189 -8.017,14.241 -8.534,19.466c-0.155,1.575 0.674,6.895 -1.018,7.793c-1.882,0.999 -5.266,-0.02 -7.226,-0.294c-1.955,-0.274 -3.901,-0.594 -5.846,-0.931c-5.802,-1.008 -23.112,-6.344 -20.461,5.26c0.315,1.378 0.861,2.708 1.57,3.931c2.18,3.76 6.84,7.836 11.225,8.638c1.331,0.243 2.987,-0.46 4.223,-0.069c0.876,0.276 1.198,2.853 2.087,3.568c2.535,2.042 6.574,-1.046 8.069,-3.051c4.791,-6.426 -4.409,-8.95 -8.866,-9.346c-1.577,-0.14 -3.151,-0.296 -4.724,-0.483c-0.735,-0.087 -2.747,-0.556 -2.222,-0.033c1.245,1.239 7.328,0.439 8.917,0.483c6.154,0.169 17.124,0.08 20.791,-6.224c2.155,-3.705 0.831,-9.531 4.535,-12.328c3.172,-2.395 8.18,-0.023 8.309,3.948c0.045,1.393 -1.352,3.308 -2.501,1.482c-3.147,-5 6.621,-16.84 10.605,-8.671c0.575,1.177 0.916,2.516 1.103,3.81c0.621,4.306 -1.831,9.033 -6.71,9.033c-9.404,0.001 -16.968,-6.105 -26.827,-1.913c-2.87,1.22 -4.938,3.519 -5.205,6.69c-0.036,0.435 0.828,4.334 0.707,4.414c-0.36,0.239 -3.175,-2.218 -3.467,-2.432c-3.025,-2.203 -6.735,-4.925 -10.656,-4.879c-5.81,0.068 -4.816,6.729 -2.565,10.104" style="fill:none;stroke:#82b7d1;stroke-width:2px;"/><path d="M195.782,62.272c0.116,-0.116 0.954,-0.932 1.068,-0.759c0.143,0.216 -0.986,3.338 -0.966,3.844c0.128,3.286 1.274,6.715 3.312,9.311c1.307,1.665 11.991,8.682 12.153,2.861c0.101,-3.624 -7.115,2.763 -2.274,3.225c8.703,0.83 9.134,-11.489 11.275,-16.879c1.767,-4.448 6.341,-5.417 10.157,-2.672c6.766,4.865 7.229,12.993 5.014,20.395c-0.799,2.671 -3.051,6.004 -2.775,8.863c0.394,4.075 6.485,2.787 8.691,1.38c2.375,-1.515 9.263,-10.967 4.946,-13.605c-1.369,-0.837 -0.244,4.046 -0.067,4.432c1.045,2.283 3.482,3.309 5.811,2.311c3.929,-1.684 5.241,-6.296 4.912,-10.242c-0.121,-1.454 -1.021,-3.915 -0.051,-5.241c3.247,-4.44 7.307,4.501 7.499,6.792c0.647,7.685 -6.412,12.18 -12.484,14.879c-1.46,0.649 -3.306,2.224 -4.931,2.224c-4.805,0 -10.548,-3.72 -14.605,-5.914c-2.711,-1.466 -5.541,-2.624 -8.291,-3.999c-0.454,-0.227 -1.909,-1.738 -2.379,-1.638c-3.324,0.711 -1.126,8.973 -0.343,10.414c4.371,8.044 13.894,-0.155 15.69,-5.862c0.433,-1.377 0.657,-6.248 2.586,-6.621c1.804,-0.349 4.709,2.476 6.156,3.294c3.666,2.07 8.012,3.613 12.276,2.638c8.475,-1.938 4.276,-14.337 9.015,-19.259c3.942,-4.092 8.629,11.736 10.742,3.017c0.197,-0.815 0.331,-1.645 0.396,-2.483c0.089,-1.149 0.026,-2.313 -0.173,-3.448c-1.861,-10.624 -13.072,-5.44 -15.777,1.775c-0.588,1.57 -0.874,6.814 -2.292,7.742c-2.768,1.811 -11.151,-6.532 -13.017,-2.328c-0.956,2.153 1.682,5.404 2.83,6.966c2.018,2.747 4.274,5.726 7.017,7.794c2,1.507 4.903,2.205 6.395,4.293" style="fill:none;stroke:#82b7d1;stroke-width:2px;"/></g><g id="browser"><path d="M30.582,73.964c13.642,-2.863 59.312,-3.351 88.042,-7.627c5.024,-0.748 10.086,-1.234 15.111,-1.976c6.055,-0.894 13.494,-2.299 19.255,0.574c3.998,1.994 6.425,6.112 8.317,9.869c4.155,8.248 17.077,45.284 20.313,55.113c1.382,4.198 5.514,14.445 3.918,18.84c-1.844,5.076 -8.249,5.413 -13.46,6.221c-4.209,0.652 -61.818,10.506 -86.746,13.4c-7.644,0.888 -15.238,1.652 -22.878,2.665c-17.198,2.28 -31.003,6.959 -34.286,-14.516c-1.638,-10.709 -11.249,-50.417 -13.208,-58.062c-1.007,-3.928 -2.306,-8.358 -1.332,-12.403c1.405,-5.841 3.312,-9.235 16.954,-12.098Z" style="fill:#bad7e6;"/><path d="M21.015,85.162c0.868,-2.551 5.037,-4.575 8.709,-2.623c3.756,1.997 3.799,4.681 2.336,7.209c-1.818,3.143 -6.429,3.83 -9.067,1.989c-2.639,-1.841 -2.846,-4.024 -1.978,-6.575Z" style="fill:#ecf4f8;"/><path d="M24.014,88.4c2.084,-0.899 4.144,-1.586 6.379,-2.065" style="fill:none;stroke:#82b7d1;stroke-width:2px;"/><path d="M24.648,85.488c0,0 -1.569,2.127 -1.101,3.024c0.467,0.897 2.846,1.57 2.846,1.57" style="fill:none;stroke:#82b7d1;stroke-width:2px;"/><path d="M36.942,83.131c0.314,2.89 0.429,5.763 2.796,6.757c3.831,1.611 11.043,0.111 15.743,-0.669c10.581,-1.757 21.125,-2.945 31.817,-4.017c12.405,-1.243 24.898,-2.396 37.294,-3.829c6.173,-0.714 12.253,-1.983 18.402,-2.847c2.317,-0.325 5.682,-0.389 6.908,-2.667c0.427,-0.793 0.582,-1.789 0.719,-2.66c1.461,-9.234 -13.106,-5.01 -18.397,-4.275c-13.461,1.868 -27.274,3.873 -40.789,5.332c-10.067,1.087 -19.873,1.638 -29.901,2.825c-5.807,0.687 -11.592,1.5 -17.386,2.242c-2.291,0.294 -7.65,-0.27 -7.206,3.808Z" style="fill:#ecf4f8;"/><path d="M21.611,102.965c0.679,4.841 1.963,8.829 3.531,15.089c2.693,10.746 4.258,21.158 6.929,31.912c1.356,5.458 2.228,15.511 8.453,17.777c3.02,1.099 6.423,0.038 9.489,-0.278c7.483,-0.769 14.546,-1.884 21.876,-3.635c9.855,-2.353 66.193,-9.13 76.834,-11.033c3.657,-0.653 10.716,-1.771 14.372,-2.458c8.285,-1.555 16.696,-1.312 16.726,-7.326c0.007,-1.468 -2.161,-9.268 -2.433,-10.702c-0.826,-4.366 -1.673,-7.527 -3.381,-11.588c-3.606,-8.577 -5.415,-16.145 -8.466,-24.921c-1.491,-4.288 -3.834,-12.321 -8.441,-14.465c-2.09,-0.973 -6.231,-0.211 -8.372,0.191c-5.187,0.973 -11.609,0.802 -16.834,1.83c-10.633,2.092 -19.765,3.437 -30.527,4.571c-7.464,0.786 -60.301,8.387 -67.178,8.764c-4.884,0.269 -13.258,1.432 -12.578,6.272Z" style="fill:#ecf4f8;"/><path d="M142.879,135.371c-4.81,0.875 -13.674,2.536 -18.458,3.534" style="fill:none;stroke:#445;stroke-width:2px;"/><path d="M89.877,144.572c-6.26,1.956 -12.857,2.542 -19.256,3.877" style="fill:none;stroke:#445;stroke-width:2px;"/><path d="M97.843,152.921c0.336,-0.748 1.01,-4.534 2.619,-5.192c2.015,-0.826 2.14,3.211 4.049,2.87c1.908,-0.34 1.07,-3.928 3.167,-4.797c2.097,-0.87 3.19,3.593 5.056,3.127c1.349,-0.337 0.833,-4.155 3.341,-4.705c2.508,-0.55 3.658,2.598 4.736,3.676" style="fill:none;stroke:#445;stroke-width:2px;"/><g id="vein"><path d="M43.239,100.377c0.732,3.137 2.14,6.782 1.127,10.009c-1.21,3.855 -6.97,4.659 -10.375,5.342" style="fill:none;stroke:#82b7d1;stroke-width:2px;"/><path d="M48.039,99.417c0.724,3.739 1.347,9.893 5.5,11.464c1.139,0.43 2.457,0.421 3.656,0.38c1.696,-0.059 3.368,-0.447 5.033,-0.743" style="fill:none;stroke:#82b7d1;stroke-width:2px;"/><path d="M34.759,120.857c4.35,-1.449 9.112,-2.99 12.333,1.232c0.566,0.742 1.046,1.537 1.408,2.398c0.589,1.4 1.002,2.882 1.336,4.363" style="fill:none;stroke:#82b7d1;stroke-width:2px;"/><path d="M63.399,115.257c-3.689,1.071 -8.394,1.384 -9.154,6.04c-0.166,1.012 -0.067,2.104 0.033,3.136c0.13,1.34 0.434,2.693 0.787,3.99" style="fill:none;stroke:#82b7d1;stroke-width:2px;"/></g></g><g id="doc-x-file"><path d="M302.331,84.282c0.406,-0.068 0.834,-0.125 1.288,-0.17c8.833,-0.871 21.044,1.489 29.338,3.939c4.142,1.224 12.389,3.438 15.759,6.36c3.542,3.07 -0.834,21.824 -2.041,31.934c-0.915,7.663 -1.846,15.487 -3.286,23.083c-0.67,3.53 -1.182,7.475 -5.157,8.893c-5.215,1.86 -11.018,-0.038 -16.28,-0.643c-3.889,-0.447 -7.883,-0.583 -11.554,-2.005c0,0 -19.466,-66.02 -19.045,-66.323c2.021,-1.458 6.725,-4.696 10.581,-5.051c0.126,-0.012 0.258,-0.017 0.397,-0.017Z" style="fill:#82b7d1;"/><path d="M296.997,88.991c0.115,0.008 8.306,-2.047 9.881,-2.442c0.173,-0.043 0.352,-0.054 0.529,-0.031c1.643,0.213 10.521,1.4 18.063,3.075c6.018,1.336 12.675,3.761 15.921,5.01c1.184,0.463 1.919,1.653 1.803,2.919c-0.498,5.471 -1.858,20.198 -2.772,28.844c-0.958,9.063 -4.705,23.273 -5.869,27.548c-0.217,0.79 -0.797,1.429 -1.562,1.721c-2.559,0.978 -8.271,3.16 -8.271,3.16c0,0 -27.849,-69.812 -27.723,-69.804Z" style="fill:#ecf4f8;"/><path d="M299.568,88.34l7.187,-1.802c0,0 2.352,1.644 0.334,2.849c-2.497,1.49 -7.521,-1.047 -7.521,-1.047Z" style="fill:#bad7e6;"/><path d="M290.21,93.064c-2.066,13.185 -4.78,26.319 -6.237,39.585c-0.509,4.631 -2.271,11.459 0.19,15.81c3.013,5.326 11.099,7.308 16.669,8.832c10.003,2.737 23.966,7.478 27.487,-0.214c0.904,-1.974 1.895,-7.63 2.408,-9.726c2.736,-11.165 7.023,-45.735 4.853,-49.633c-1.868,-3.357 -7.627,-3.942 -11.232,-4.972c-6.888,-1.967 -14.388,-3.144 -21.5,-4.108c-5.882,-0.798 -11.444,-2.448 -12.455,2.688l-0.183,1.738Z" style="fill:#82b7d1;"/><path d="M292.074,140.501c-0.728,0.531 -1.538,1.22 -1.671,2.516c-0.252,2.437 2.586,4.133 4.834,3.159c2.029,-0.879 3.179,-3.976 1.084,-5.43c-1.175,-0.815 -3.297,-0.939 -4.247,-0.245Z" style="fill:#445;"/><path d="M313.986,144.12c-1.289,0.706 -2.54,1.687 -2.375,3.292c0.235,2.285 3.374,4.671 5.632,3.198c2.152,-1.405 2.036,-5.137 -0.235,-6.399c-1.567,-0.871 -3.022,-0.091 -3.022,-0.091Z" style="fill:#445;"/><path d="M298.984,149.495c0.018,3.063 5.728,4.038 7.097,2.065c1.368,-1.972 1.24,-5.557 -1.96,-5.812c-3.199,-0.256 -5.154,0.711 -5.137,3.747Z" style="fill:none;stroke:#445;stroke-width:2px;"/><g id="_.docx" serif:id=".docx"><path d="M350.461,149.326c0,0.578 -2.074,8.575 -2.048,8.601c0.079,0.078 1.808,0.529 2.387,0.687c0.9,0.245 1.938,0.676 2.879,0.449c2.174,-0.525 2.834,-2.68 2.641,-4.661c-0.266,-2.722 -1.709,-4.179 -4.855,-4.902l-1.004,-0.174Z" style="fill:none;stroke:#ff0078;stroke-width:2px;"/><path d="M366.254,155.156c-0.5,-1.293 -2.701,-2.845 -4.842,-1.76c-1.194,0.605 -2.12,1.695 -2.573,2.938c-0.437,1.195 -0.395,2.589 0.398,3.63c1.245,1.634 4.189,2.171 5.726,0.672c1.332,-1.299 1.979,-3.699 1.291,-5.48Z" style="fill:none;stroke:#ff0078;stroke-width:2px;"/><path d="M375.398,155.855c-1.89,-1.296 -4.111,-0.384 -5.031,0.592c-1.13,1.198 -1.906,2.937 -1.333,4.541c0.798,2.231 2.865,3.183 5.215,2.807" style="fill:none;stroke:#ff0078;stroke-width:2px;"/><path d="M378.951,156.675c0.563,2.329 4.608,7.354 6.162,9.427" style="fill:none;stroke:#ff0078;stroke-width:2px;"/><path d="M386.068,158.265c-0.555,0.552 -8.635,6.768 -8.727,6.679" style="fill:none;stroke:#ff0078;stroke-width:2px;"/><path d="M343.024,155.923c-0.124,0 0.258,0.068 0.291,0.073c0.231,0.036 0.462,0.076 0.692,0.113" style="fill:none;stroke:#ff0078;stroke-width:2px;"/></g><path d="M308.465,103.39c1.792,0.231 3.578,0.489 5.368,0.728c0.058,6.53 0.147,13.056 0.313,19.577c2.27,-6.276 4.649,-12.513 6.99,-18.766c1.878,0.285 3.763,0.533 5.641,0.769c-3.805,8.644 -7.364,17.412 -11.355,25.963c-1.711,0.519 -3.884,-0.768 -5.755,-0.984c-0.082,-6.408 -0.375,-12.819 -0.321,-19.231c-2.222,5.822 -4.761,11.526 -7.136,17.281c-1.774,-0.429 -3.553,-0.879 -5.331,-1.339c-0.007,-8.5 -0.296,-16.995 -0.197,-25.495c1.609,0.225 3.226,0.461 4.832,0.704c-0.155,6.123 -0.174,12.243 -0.451,18.352c2.462,-5.853 4.95,-11.702 7.402,-17.559Z" style="fill:#ecf4f8;"/></g></svg>