<?xml version="1.0" encoding="UTF-8" standalone="no"?><!DOCTYPE svg PUBLIC "-//W3C//DTD SVG 1.1//EN" "http://www.w3.org/Graphics/SVG/1.1/DTD/svg11.dtd"><svg width="100%" height="100%" viewBox="0 0 700 280" version="1.1" xmlns="http://www.w3.org/2000/svg" xmlns:xlink="http://www.w3.org/1999/xlink" xml:space="preserve" xmlns:serif="http://www.serif.com/" style="fill-rule:evenodd;clip-rule:evenodd;"><rect id="jsx-vue-template" x="0" y="0" width="700" height="280" style="fill:none;"/><path d="M658.824,158.244c0,-2.841 -2.307,-5.147 -5.148,-5.147l-607.352,0c-2.841,0 -5.148,2.306 -5.148,5.147l0,10.294c0,2.841 2.307,5.147 5.148,5.147l607.352,0c2.841,0 5.148,-2.306 5.148,-5.147l0,-10.294Z" style="fill:url(#_Linear1);"/><g transform="matrix(2.05882,0,0,2.05882,4.82591,-794.922)"><text x="17.011px" y="489.83px" style="font-family:'Monaco';font-size:12px;fill:#ff0078;">100%</text><text x="17.011px" y="505.83px" style="font-family:'Monaco';font-size:12px;fill:#ff0078;">JAVASCRIPT</text></g><text x="327.387px" y="60.454px" style="font-family:'Monaco';font-size:24.706px;fill:#445;">JSX</text><text x="591.839px" y="60.454px" style="font-family:'Monaco';font-size:24.706px;fill:#445;">VUE</text><g transform="matrix(2.05882,0,0,2.05882,475.553,-794.922)"><text x="60.218px" y="489.83px" style="font-family:'Monaco';font-size:12px;fill:#82b7d1;">100%</text><text x="60.218px" y="505.83px" style="font-family:'Monaco';font-size:12px;fill:#82b7d1;">HTML</text></g><g id="_-react" serif:id="©react"><circle cx="350" cy="112.811" r="5.534" style="fill:#61dafb;"/><ellipse cx="350" cy="112.811" rx="29.697" ry="11.339" style="fill:none;stroke:#61dafb;stroke-width:2.7px;"/><path d="M359.82,107.142c8.195,14.194 10.448,28.258 5.029,31.387c-5.42,3.129 -16.474,-5.854 -24.669,-20.049c-8.195,-14.194 -10.448,-28.258 -5.029,-31.387c5.42,-3.129 16.474,5.854 24.669,20.049Z" style="fill:none;stroke:#61dafb;stroke-width:2.7px;"/><path d="M359.82,118.48c-8.195,14.195 -19.249,23.178 -24.669,20.049c-5.419,-3.129 -3.166,-17.193 5.029,-31.387c8.195,-14.195 19.249,-23.178 24.669,-20.049c5.419,3.129 3.166,17.193 -5.029,31.387Z" style="fill:none;stroke:#61dafb;stroke-width:2.7px;"/></g><path d="M617.036,118.519l18.163,-31.481l12.109,0l-30.272,52.218l-30.271,-52.218l11.957,0l18.314,31.481Z" style="fill:#41b883;fill-rule:nonzero;"/><path d="M609.923,87.038l-11.201,0l18.314,31.481l18.163,-31.481l-11.2,0l-6.963,12.108l-7.113,-12.108Z" style="fill:#34495d;"/><defs><linearGradient id="_Linear1" x1="0" y1="0" x2="1" y2="0" gradientUnits="userSpaceOnUse" gradientTransform="matrix(617.647,0,0,617.647,41.1765,161.332)"><stop offset="0" style="stop-color:#ffe5f2;stop-opacity:1"/><stop offset="1" style="stop-color:#82b7d1;stop-opacity:1"/></linearGradient></defs></svg>