<?xml version="1.0" encoding="UTF-8" standalone="no"?><!DOCTYPE svg PUBLIC "-//W3C//DTD SVG 1.1//EN" "http://www.w3.org/Graphics/SVG/1.1/DTD/svg11.dtd"><svg width="100%" height="100%" viewBox="0 0 525 200" version="1.1" xmlns="http://www.w3.org/2000/svg" xmlns:xlink="http://www.w3.org/1999/xlink" xml:space="preserve" xmlns:serif="http://www.serif.com/" style="fill-rule:evenodd;clip-rule:evenodd;stroke-linecap:round;stroke-linejoin:round;stroke-miterlimit:1.5;"><rect id="server-give-html" x="0" y="0" width="525" height="200" style="fill:none;"/><g id="browser"><path d="M40.798,65.899c13.642,-2.984 59.312,-3.492 88.042,-7.949c5.024,-0.779 10.086,-1.286 15.111,-2.059c6.056,-0.932 13.494,-2.397 19.256,0.598c3.997,2.078 6.424,6.37 8.317,10.286c4.154,8.598 17.077,47.2 20.312,57.445c1.383,4.376 5.514,15.056 3.918,19.637c-1.843,5.29 -8.249,5.642 -13.459,6.484c-4.209,0.68 -61.819,10.95 -86.747,13.967c-7.644,0.926 -15.238,1.722 -22.877,2.778c-17.198,2.377 -31.003,7.253 -34.287,-15.13c-1.638,-11.163 -11.248,-52.551 -13.208,-60.519c-1.006,-4.093 -2.305,-8.712 -1.332,-12.928c1.406,-6.088 3.312,-9.626 16.954,-12.61Z" style="fill:#bad7e6;"/><path d="M31.232,77.571c0.868,-2.659 5.037,-4.768 8.708,-2.734c3.757,2.081 3.8,4.88 2.337,7.515c-1.819,3.275 -6.429,3.992 -9.068,2.073c-2.638,-1.919 -2.845,-4.195 -1.977,-6.854Z" style="fill:#ecf4f8;"/><path d="M34.23,80.947c2.084,-0.937 4.145,-1.653 6.379,-2.153" style="fill:none;stroke:#82b7d1;stroke-width:2px;"/><path d="M34.864,77.911c0,0 -1.569,2.218 -1.101,3.153c0.468,0.935 2.847,1.636 2.847,1.636" style="fill:none;stroke:#82b7d1;stroke-width:2px;"/><path d="M47.158,75.455c0.314,3.012 0.43,6.006 2.796,7.043c3.831,1.678 11.044,0.115 15.744,-0.698c10.581,-1.831 21.124,-3.07 31.816,-4.187c12.406,-1.296 24.898,-2.498 37.294,-3.991c6.173,-0.744 12.253,-2.067 18.403,-2.967c2.317,-0.339 5.681,-0.406 6.907,-2.78c0.427,-0.826 0.582,-1.865 0.72,-2.773c1.46,-9.625 -13.107,-5.221 -18.397,-4.456c-13.461,1.947 -27.274,4.038 -40.789,5.558c-10.068,1.133 -19.874,1.707 -29.901,2.944c-5.807,0.717 -11.592,1.564 -17.387,2.338c-2.291,0.305 -7.649,-0.282 -7.206,3.969Z" style="fill:#ecf4f8;"/><path d="M31.827,96.128c0.68,5.046 1.963,9.202 3.532,15.727c2.692,11.201 4.258,22.053 6.929,33.263c1.355,5.688 2.227,16.167 8.452,18.528c3.02,1.146 6.424,0.04 9.49,-0.289c7.482,-0.802 14.546,-1.965 21.876,-3.789c9.855,-2.453 66.193,-9.517 76.834,-11.5c3.656,-0.681 10.716,-1.847 14.372,-2.562c8.285,-1.621 16.696,-1.368 16.726,-7.637c0.007,-1.529 -2.162,-9.659 -2.433,-11.154c-0.826,-4.551 -1.674,-7.845 -3.381,-12.079c-3.607,-8.939 -5.416,-16.827 -8.467,-25.974c-1.491,-4.469 -3.834,-12.842 -8.44,-15.077c-2.091,-1.015 -6.232,-0.22 -8.372,0.198c-5.188,1.015 -11.609,0.837 -16.834,1.908c-10.634,2.181 -19.765,3.583 -30.528,4.764c-7.464,0.819 -60.3,8.742 -67.177,9.136c-4.884,0.279 -13.259,1.492 -12.579,6.537Z" style="fill:#ecf4f8;"/><path d="M87.808,137.059c1.11,-2.383 6.629,-4.127 8.517,-1.319c1.887,2.808 2.076,5.184 0.376,6.912c-1.699,1.728 -5.286,2.808 -7.363,1.296c-2.076,-1.512 -2.639,-4.506 -1.53,-6.889Z" style="fill:#445;"/><path d="M138.494,128.679c2.234,-2.271 6.449,-2.096 7.691,0c1.242,2.096 1.746,4.465 -0.039,6.563c-1.917,2.253 -5.631,2.098 -7.379,0.35c-1.748,-1.748 -2.488,-4.66 -0.273,-6.913Z" style="fill:#445;"/><path d="M112.928,141.39c1.62,2.356 6.628,4.168 7.325,4.269c1.515,0.219 4.547,-5.191 4.654,-6.426" style="fill:none;stroke:#445;stroke-width:2px;"/></g><g id="arrow"><path d="M323.995,152.175c-13.261,12.012 -29.725,22.311 -47.03,25.658c-26.435,5.112 -52.808,-7.367 -70.408,-28.208" style="fill:none;stroke:#ff0078;stroke-width:6.5px;"/><path d="M205.147,165.091c-0.737,-3.523 -1.255,-8.494 -0.972,-12.164c0.085,-1.09 -0.359,-2.609 0.264,-3.608c1.473,-2.364 11.276,-1.989 13.249,-2.534" style="fill:none;stroke:#ff0078;stroke-width:6.5px;"/></g><path d="M251.7,60.921c0.4,-0.099 0.823,-0.188 1.273,-0.266c8.749,-1.519 21.1,0.088 29.551,2.061c4.221,0.985 12.609,2.715 16.182,5.519c3.755,2.948 0.745,22.751 0.272,33.347c-0.359,8.032 -0.721,16.232 -1.609,24.23c-0.413,3.717 -0.639,7.854 -4.502,9.605c-5.068,2.296 -10.994,0.724 -16.287,0.46c-3.912,-0.195 -7.906,-0.06 -11.671,-1.284c0,0 -24.192,-67.297 -23.794,-67.641c1.91,-1.656 6.369,-5.349 10.19,-5.986c0.125,-0.021 0.257,-0.036 0.395,-0.045Z" style="fill:#bad7e6;"/><path d="M246.72,66.188c0.114,0 8.103,-2.694 9.67,-3.222c0.176,-0.059 0.361,-0.083 0.546,-0.071c1.683,0.109 10.603,0.727 18.231,1.943c6.132,0.978 12.986,3.053 16.295,4.122c1.189,0.391 1.985,1.511 1.962,2.763c-0.099,5.617 -0.394,21.191 -0.682,30.314c-0.302,9.531 -3.035,24.654 -3.874,29.109c-0.153,0.801 -0.676,1.482 -1.411,1.835c-2.477,1.192 -8.035,3.866 -8.035,3.866c0,0 -32.829,-70.659 -32.702,-70.659Z" style="fill:#ecf4f8;"/><path d="M249.236,65.333l7.041,-2.373c0,0 2.465,1.546 0.538,2.939c-2.383,1.723 -7.579,-0.566 -7.579,-0.566Z" style="fill:#82b7d1;"/><path d="M240.243,70.893c-1.108,13.853 -2.866,27.698 -3.36,41.593c-0.173,4.851 -1.437,12.073 1.332,16.426c3.391,5.329 11.602,6.829 17.268,8.027c10.176,2.153 24.449,6.114 27.405,-2.128c0.759,-2.116 1.339,-8.065 1.699,-10.28c1.922,-11.8 3.699,-48.043 1.254,-51.945c-2.107,-3.361 -7.894,-3.57 -11.565,-4.391c-7.014,-1.568 -14.581,-2.271 -21.746,-2.781c-5.925,-0.421 -11.593,-1.751 -12.23,3.659l-0.057,1.82Z" style="fill:#bad7e6;"/><path d="M245.532,120.089c-0.687,0.603 -1.446,1.375 -1.485,2.731c-0.075,2.553 2.878,4.119 5.051,2.95c1.96,-1.054 2.883,-4.354 0.688,-5.721c-1.23,-0.766 -3.356,-0.748 -4.254,0.04Z" style="fill:#445;"/><path d="M267.653,122.332c-1.235,0.823 -2.412,1.93 -2.131,3.588c0.399,2.359 3.703,4.623 5.849,2.934c2.045,-1.61 1.66,-5.482 -0.697,-6.637c-1.626,-0.797 -3.021,0.115 -3.021,0.115Z" style="fill:#445;"/><path d="M253.076,128.962c1.921,2.689 5.026,4.283 7.593,1.362" style="fill:none;stroke:#445;stroke-width:2px;"/><path d="M246.204,74.978c-0.319,2.258 -0.777,6.881 -1.2,10.327c-0.112,0.913 -0.628,3.027 0.17,3.731c0.658,0.582 1.658,0.742 2.497,0.862c1.719,0.245 3.468,0.306 5.193,0.531c5.522,0.721 11.058,1.386 16.598,1.941c1.743,0.175 4.879,0.871 6.584,0.446c1.433,-0.358 1.241,-1.779 1.531,-3.03c0.655,-2.837 0.646,-10.33 0.469,-11.338c-0.266,-1.522 -1.64,-1.482 -3.029,-1.673c-1.362,-0.187 -22.503,-2.664 -23.996,-2.923c-2.532,-0.44 -4.497,-1.131 -4.817,1.126Z" style="fill:#ecf4f8;"/><path d="M248.971,78.64c-0.143,2.227 -0.353,4.605 -0.544,6.83" style="fill:none;stroke:#82b7d1;stroke-width:1.5px;"/><path d="M252.49,78.758c-0.378,2.517 -0.716,4.504 -0.925,7.042" style="fill:none;stroke:#82b7d1;stroke-width:1.5px;"/><path d="M249.175,82.207c0.793,0 1.577,0.15 2.367,0.197" style="fill:none;stroke:#82b7d1;stroke-width:1.5px;"/><path d="M254.744,79.401c1.981,0 3.338,0.138 5.262,0.685" style="fill:none;stroke:#82b7d1;stroke-width:1.5px;"/><path d="M257.133,79.869c0,1.996 -0.288,4.721 -0.476,6.709" style="fill:none;stroke:#82b7d1;stroke-width:1.5px;"/><path d="M261.61,87.41c0.177,-1.596 0.215,-3.168 0.565,-4.742c0.04,-0.184 0.394,-2.094 0.602,-1.999c0.823,0.379 1.152,2.046 1.382,2.86c0.045,0.156 0.169,1.129 0.276,1.181c0.009,0.004 0.338,-1.039 0.371,-1.153c0.242,-0.827 0.704,-1.459 1.186,-2.182c0.058,-0.088 0.432,-0.672 0.543,-0.653c0.616,0.109 0.809,0.984 0.933,1.469c0.434,1.704 0.075,4.179 -0.101,5.917" style="fill:none;stroke:#82b7d1;stroke-width:1.5px;"/><path d="M271.188,81.025c-0.573,2.085 -0.833,5.422 -0.675,7.487c0.011,0.151 0.969,0.121 1.095,0.123c1.13,0.026 2.237,-0.326 3.362,-0.341" style="fill:none;stroke:#82b7d1;stroke-width:1.5px;"/><g id="server"><path d="M337.743,153.955c-1.777,-6.212 3.692,-55.444 8.675,-78.698c2.059,-9.613 2.868,-21.385 11.788,-27.509c9.069,-6.226 23.946,-3.762 34.749,-3.789c16.611,-0.04 61.408,5.341 74.796,7.112c7.103,0.939 25.625,2.361 29.833,8.461c9.158,13.274 0.75,88.216 0.035,92.984c-0.714,4.768 -10.694,5.395 -17.03,6.757c-8.227,1.768 -90.543,12.993 -107.378,9.211c-10.081,-2.265 -33.691,-8.318 -35.468,-14.529Z" style="fill:#82b7d1;"/><clipPath id="_clip1"><path d="M337.743,153.955c-1.777,-6.212 3.692,-55.444 8.675,-78.698c2.059,-9.613 2.868,-21.385 11.788,-27.509c9.069,-6.226 23.946,-3.762 34.749,-3.789c16.611,-0.04 61.408,5.341 74.796,7.112c7.103,0.939 25.625,2.361 29.833,8.461c9.158,13.274 0.75,88.216 0.035,92.984c-0.714,4.768 -10.694,5.395 -17.03,6.757c-8.227,1.768 -90.543,12.993 -107.378,9.211c-10.081,-2.265 -33.691,-8.318 -35.468,-14.529Z"/></clipPath><g clip-path="url(#_clip1)"><path d="M339.523,82.168c0,0 7.35,-21.915 12.749,-27.672c3.119,-3.324 23.573,-2.496 31.667,-0.125c4.287,1.255 6.177,2.869 6.319,7.911c0.238,8.458 -0.943,33.607 -2.219,46.854c-1.277,13.246 -5.836,47.52 -9.143,56.288c-2.401,6.366 -17.098,2.137 -17.098,2.137l-32.657,-12.464c0,0 5.45,-58.166 10.382,-72.929Z" style="fill:#bad7e6;"/></g><path d="M343.39,143.463c1.801,-1.416 5.403,-0.916 6.302,0.583c0.9,1.499 1.261,4.498 -0.45,5.497c-1.711,1 -5.042,1.582 -6.393,-0.75c-1.35,-2.332 -1.259,-3.914 0.541,-5.33Z" style="fill:#445;"/><path d="M364.091,148.472c1.393,-1.146 5.488,-1.311 6.554,0.901c1.065,2.212 1.064,4.587 -0.656,5.489c-1.72,0.901 -3.522,1.393 -5.734,-0.164c-1.998,-1.406 -1.749,-4.921 -0.164,-6.226Z" style="fill:#445;"/><path d="M352.359,152.421c0,0 -0.064,2.707 2.587,2.965c3.02,0.293 3.51,-2.116 3.51,-2.116" style="fill:none;stroke:#445;stroke-width:2px;"/><path d="M377.09,61.85c0,0 -0.671,2.405 -0.079,3.248c0.631,0.897 2.138,0.983 3.117,1.111c2.199,0.289 5.307,1.237 6.1,-1.567c0.116,-0.409 0.193,-0.85 0.199,-1.276c0.041,-2.934 -2.529,-2.905 -4.818,-3.111c-1.835,-0.164 -3.803,-0.591 -4.519,1.595Z" style="fill:#ff0078;"/><path d="M376,72.953c0.13,-0.638 0.145,-1.514 0.643,-2c1.373,-1.341 4.602,-0.956 6.284,-0.521c0.589,0.153 1.322,0.278 1.769,0.719c0.94,0.926 0.861,2.966 0.707,4.174c-0.138,1.078 -1.657,1.395 -2.564,1.371c-1.422,-0.038 -2.802,-0.356 -4.205,-0.546c-1.43,-0.195 -2.415,-0.16 -2.684,-1.888l0.05,-1.309Z" style="fill:#ff0078;"/><path d="M374.971,83.734c0,0 0.403,-2.151 1.198,-2.785c0.868,-0.692 2.416,-0.537 3.444,-0.464c2.549,0.18 5.43,0.387 5.124,3.618c-0.055,0.581 -0.132,1.275 -0.345,1.821c-0.798,2.041 -3.659,1.192 -5.253,0.949c-2.104,-0.321 -4.566,-0.35 -4.168,-3.139Z" style="fill:#ff0078;"/></g><g id="server-address"><path d="M407.972,149.272c-0.032,3.087 0.069,6.18 0.351,9.255" style="fill:none;stroke:#445;stroke-width:2px;"/><path d="M407.627,149.153c1.193,-0.15 3.071,-0.683 4.209,-0.039c2.438,1.379 -0.715,3.787 -2.234,4.079" style="fill:none;stroke:#445;stroke-width:2px;"/><path d="M420.486,147.851c0,0 -2.577,-0.056 -3.942,1.997c-1.473,2.215 -1.309,6.766 2.093,6.99c2.505,0.165 4.909,-2.221 5.344,-4.567c0.405,-2.184 -1.282,-4.254 -3.495,-4.42Z" style="fill:none;stroke:#445;stroke-width:2px;"/><path d="M428.511,147.523c-0.289,0.592 -0.359,1.152 -0.47,1.645c-0.315,1.399 -0.507,3.017 -0.017,4.395c0.824,2.32 4.142,2.374 5.44,0.454c1.502,-2.22 0.728,-4.903 -0.497,-6.997" style="fill:none;stroke:#445;stroke-width:2px;"/><path d="M438.154,145.985c0,-0.088 -0.004,0.175 -0.003,0.262c0.003,0.199 0.009,0.398 0.018,0.597c0.022,0.532 0.057,1.064 0.087,1.596c0.091,1.629 0.203,3.255 0.395,4.876c0.05,0.419 0.09,0.841 0.15,1.259" style="fill:none;stroke:#445;stroke-width:2px;"/><path d="M447.223,145.237c-1.012,-0.472 -3.913,-0.418 -4.711,3.091c-0.133,0.587 -0.252,1.185 -0.22,1.79c0.225,4.308 4.506,3.953 6.85,1.867" style="fill:none;stroke:#445;stroke-width:2px;"/><path d="M452.63,151.554l0.848,-0.247" style="fill:none;stroke:#445;stroke-width:2px;"/><path d="M461.591,143.341c-2.67,-0.224 -3.708,1.522 -4.146,2.491c-1.076,2.384 0.177,5.453 3.039,5.516c1.246,0.028 2.379,-0.593 3.288,-1.39" style="fill:none;stroke:#445;stroke-width:2px;"/><path d="M469.869,142.471c0,0 -3.105,0.432 -3.174,3.921c-0.042,2.115 1.773,3.758 3.899,3.457c2.209,-0.313 3.555,-2.673 3.166,-4.784c-0.308,-1.676 -2.193,-3.044 -3.891,-2.594Z" style="fill:none;stroke:#445;stroke-width:2px;"/><path d="M478.927,148.7c-0.942,-1.542 -2.126,-5.538 -0.629,-7.111c1.069,-1.124 3.519,-0.724 4.095,1.653c0.022,-3.345 7.761,-4.82 4.083,4.92" style="fill:none;stroke:#445;stroke-width:2px;"/></g><g id="address"><path d="M50.984,74.486c0.51,2.242 1.278,4.4 1.847,6.622" style="fill:none;stroke:#445;stroke-width:2px;"/><path d="M54.67,73.503c0.661,2.309 1.233,4.649 1.884,6.962" style="fill:none;stroke:#445;stroke-width:2px;"/><path d="M52.54,78.19c0.699,-0.183 1.393,-0.369 2.098,-0.527" style="fill:none;stroke:#445;stroke-width:2px;"/><path d="M57.209,73.585c1.752,-0.25 3.526,-0.263 5.274,-0.545" style="fill:none;stroke:#445;stroke-width:2px;"/><path d="M59.831,73.34c0.721,2.116 1.476,4.259 1.981,6.444" style="fill:none;stroke:#445;stroke-width:2px;"/><path d="M64.992,73.175c1.701,-0.215 3.395,-0.423 5.057,-0.977" style="fill:none;stroke:#445;stroke-width:2px;"/><path d="M67.613,73.175c0.402,1.867 0.66,3.763 1.088,5.624" style="fill:none;stroke:#445;stroke-width:2px;"/><path d="M73.676,78.337c-0.303,-1.33 -0.55,-2.672 -0.884,-3.995c-0.101,-0.401 -0.444,-1.192 -0.304,-1.587c0.199,-0.562 0.96,-0.791 1.458,-0.975c0.991,-0.368 2.215,-0.549 3.168,0.038c0.722,0.444 1.285,1.671 0.557,2.364c-0.423,0.403 -1.015,0.553 -1.574,0.653c-0.704,0.125 -1.406,0.137 -2.111,0.211" style="fill:none;stroke:#445;stroke-width:2px;"/><path d="M80.558,74.404c0.521,-0.182 1.062,-0.308 1.581,-0.492" style="fill:none;stroke:#445;stroke-width:2px;"/><path d="M80.721,77.435c0.366,-0.069 0.729,-0.153 1.097,-0.213" style="fill:none;stroke:#445;stroke-width:2px;"/><path d="M87.193,69.489c-0.551,2.206 -1.19,4.412 -1.913,6.569" style="fill:none;stroke:#445;stroke-width:2px;"/><path d="M90.306,69.325c-0.735,2.206 -1.596,4.391 -2.234,6.628" style="fill:none;stroke:#445;stroke-width:2px;"/><path d="M94.069,69.51c0,2.192 0.094,4.388 0.317,6.57" style="fill:none;stroke:#445;stroke-width:2px;"/><path d="M93.823,69.428c0.846,-0.116 2.176,-0.508 2.989,-0.058c1.741,0.961 -0.48,2.694 -1.557,2.912" style="fill:none;stroke:#445;stroke-width:2px;"/><path d="M102.946,68.41c0,0 -1.831,-0.021 -2.785,1.446c-1.03,1.584 -0.881,4.815 1.537,4.95c1.781,0.098 3.471,-1.614 3.763,-3.283c0.271,-1.554 -0.942,-3.012 -2.515,-3.113Z" style="fill:none;stroke:#445;stroke-width:2px;"/><path d="M108.643,68.118c-0.201,0.423 -0.246,0.821 -0.322,1.172c-0.213,0.996 -0.338,2.146 0.02,3.122c0.602,1.641 2.959,1.656 3.868,0.282c1.049,-1.587 0.481,-3.488 -0.405,-4.966" style="fill:none;stroke:#445;stroke-width:2px;"/><path d="M115.48,66.955c0,-0.062 -0.001,0.125 0,0.187c0.004,0.141 0.01,0.282 0.017,0.423c0.02,0.378 0.049,0.756 0.074,1.133c0.076,1.157 0.168,2.311 0.316,3.461c0.039,0.297 0.07,0.596 0.116,0.892" style="fill:none;stroke:#445;stroke-width:2px;"/><path d="M121.916,66.358c-0.722,-0.328 -2.782,-0.268 -3.323,2.23c-0.09,0.418 -0.171,0.843 -0.144,1.273c0.192,3.058 3.229,2.774 4.879,1.276" style="fill:none;stroke:#445;stroke-width:2px;"/><path d="M125.802,70.805l0.601,-0.181" style="fill:none;stroke:#445;stroke-width:2px;"/><path d="M132.107,64.907c-1.898,-0.139 -2.623,1.108 -2.926,1.8c-0.748,1.7 0.164,3.871 2.198,3.895c0.885,0.011 1.685,-0.439 2.324,-1.011" style="fill:none;stroke:#445;stroke-width:2px;"/><path d="M137.979,64.229c0,0 -2.201,0.33 -2.225,2.808c-0.015,1.503 1.286,2.656 2.794,2.427c1.566,-0.239 2.505,-1.924 2.214,-3.421c-0.231,-1.188 -1.58,-2.146 -2.783,-1.814Z" style="fill:none;stroke:#445;stroke-width:2px;"/><path d="M144.458,68.587c-0.68,-1.088 -1.55,-3.918 -0.499,-5.045c0.751,-0.807 2.495,-0.54 2.921,1.144c-0.009,-2.376 5.477,-3.48 2.935,3.464" style="fill:none;stroke:#445;stroke-width:2px;"/></g></svg>