<?xml version="1.0" standalone="no"?>
<!DOCTYPE svg PUBLIC "-//W3C//DTD SVG 1.1//EN" "http://www.w3.org/Graphics/SVG/1.1/DTD/svg11.dtd">
<svg width="100%" height="100%" viewBox="0 0 231 77" version="1.1" xmlns="http://www.w3.org/2000/svg" xmlns:xlink="http://www.w3.org/1999/xlink" xml:space="preserve" style="fill-rule:evenodd;clip-rule:evenodd;stroke-linecap:round;stroke-linejoin:round;stroke-miterlimit:1.41421;">
    <g transform="matrix(1,0,0,1,-553.868,-382.399)">
        <g id="shape-style" transform="matrix(0.192192,4.03836e-13,7.64779e-14,0.0127088,553.868,382.399)">
            <g transform="matrix(4.33925,-43.4198,2.87115,65.6215,-3283,1925.47)">
                <path d="M598.092,408.705C601.446,402.333 608.154,402.333 611.508,405.519C614.862,408.705 614.862,415.078 611.508,421.451C609.16,426.23 603.123,431.01 598.092,434.196C593.061,431.01 587.024,426.23 584.676,421.451C581.322,415.078 581.322,408.705 584.676,405.519C588.03,402.333 594.738,402.333 598.092,408.705Z" style="fill:rgb(144,224,255);stroke-width:2px;stroke:rgb(2,49,159);"/>
            </g>
            <g transform="matrix(4.84603,28.6479,-1.89435,73.2855,-1862.96,-45327.1)">
                <path d="M598.092,408.705C601.446,402.333 608.154,402.333 611.508,405.519C614.862,408.705 614.862,415.078 611.508,421.451C609.16,426.23 603.123,431.01 598.092,434.196C593.061,431.01 587.024,426.23 584.676,421.451C581.322,415.078 581.322,408.705 584.676,405.519C588.03,402.333 594.738,402.333 598.092,408.705Z" style="fill:rgb(2,49,159);"/>
            </g>
            <g transform="matrix(4.93001,25.1586,-1.66362,74.5554,-1594.09,-44290.1)">
                <path d="M598.092,434.196C593.061,431.01 587.024,426.23 584.676,421.451C581.322,415.078 581.322,408.705 584.676,405.519C588.03,402.333 594.738,402.333 598.092,408.705C601.446,402.333 608.154,402.333 611.508,405.519C614.862,408.705 614.862,415.078 611.508,421.451" style="fill:rgb(144,224,255);stroke-width:2px;stroke:rgb(2,49,159);"/>
            </g>
            <g transform="matrix(5.8,-8.89617,0.588263,87.7121,-2800.29,-29752.5)">
                <path d="M598.092,408.705C601.446,402.333 608.154,402.333 611.508,405.519C614.862,408.705 614.862,415.078 611.508,421.451C609.16,426.23 603.123,431.01 598.092,434.196C593.061,431.01 587.024,426.23 584.676,421.451C581.322,415.078 581.322,408.705 584.676,405.519C588.03,402.333 594.738,402.333 598.092,408.705Z" style="fill:url(#_Radial1);"/>
            </g>
            <g transform="matrix(5.59404,43.844,-2.8992,84.5974,-1081.58,-59184.3)">
                <path d="M598.092,408.705C601.446,402.333 608.154,402.333 611.508,405.519C614.862,408.705 614.862,415.078 611.508,421.451C609.16,426.23 603.123,431.01 598.092,434.196C593.061,431.01 587.024,426.23 584.676,421.451C581.322,415.078 581.322,408.705 584.676,405.519C588.03,402.333 594.738,402.333 598.092,408.705Z" style="fill:url(#_Radial2);"/>
            </g>
            <g transform="matrix(5.8252,-29.7699,1.96855,88.0931,-3409.52,-15531.7)">
                <path d="M598.092,408.705C601.446,402.333 608.154,402.333 611.508,405.519C614.862,408.705 614.862,415.078 611.508,421.451C609.16,426.23 603.123,431.01 598.092,434.196C593.061,431.01 587.024,426.23 584.676,421.451C581.322,415.078 581.322,408.705 584.676,405.519C588.03,402.333 594.738,402.333 598.092,408.705Z" style="fill:url(#_Radial3);"/>
            </g>
            <g transform="matrix(5.29949,31.2594,-2.06704,80.143,-1273.83,-47845.3)">
                <path d="M598.092,408.705C601.446,402.333 608.154,402.333 611.508,405.519C614.862,408.705 614.862,415.078 611.508,421.451C609.16,426.23 603.123,431.01 598.092,434.196C593.061,431.01 587.024,426.23 584.676,421.451C581.322,415.078 581.322,408.705 584.676,405.519C588.03,402.333 594.738,402.333 598.092,408.705Z" style="fill:url(#_Radial4);"/>
            </g>
            <g transform="matrix(4.71638,-33.2302,2.19736,71.3247,-3580.27,-6582.44)">
                <path d="M598.092,408.705C601.446,402.333 608.154,402.333 611.508,405.519C614.862,408.705 614.862,415.078 611.508,421.451C609.16,426.23 603.123,431.01 598.092,434.196C593.061,431.01 587.024,426.23 584.676,421.451C581.322,415.078 581.322,408.705 584.676,405.519C588.03,402.333 594.738,402.333 598.092,408.705Z" style="fill:none;stroke-width:2px;stroke:rgb(225,174,255);"/>
            </g>
        </g>
    </g>
    <defs>
        <radialGradient id="_Radial1" cx="0" cy="0" r="1" gradientUnits="userSpaceOnUse" gradientTransform="matrix(-2.7526,26.3763,-385.194,-40.1985,601.261,407.689)"><stop offset="0%" style="stop-color:rgb(224,39,122);stop-opacity:1"/><stop offset="100%" style="stop-color:rgb(65,12,82);stop-opacity:1"/></radialGradient>
        <radialGradient id="_Radial2" cx="0" cy="0" r="1" gradientUnits="userSpaceOnUse" gradientTransform="matrix(11.5609,26.5544,-397.151,172.907,593.884,406.216)"><stop offset="0%" style="stop-color:rgb(255,191,255);stop-opacity:1"/><stop offset="100%" style="stop-color:rgb(71,52,126);stop-opacity:1"/></radialGradient>
        <radialGradient id="_Radial3" cx="0" cy="0" r="1" gradientUnits="userSpaceOnUse" gradientTransform="matrix(2.19209e-15,35.7995,-522.808,3.20128e-14,602.64,406.174)"><stop offset="0%" style="stop-color:rgb(239,231,70);stop-opacity:1"/><stop offset="100%" style="stop-color:rgb(1,128,65);stop-opacity:1"/></radialGradient>
        <radialGradient id="_Radial4" cx="0" cy="0" r="1" gradientUnits="userSpaceOnUse" gradientTransform="matrix(-1.29672,27.9027,-407.486,-18.937,602.64,406.174)"><stop offset="0%" style="stop-color:rgb(0,199,248);stop-opacity:1"/><stop offset="100%" style="stop-color:rgb(224,45,43);stop-opacity:1"/></radialGradient>
    </defs>
</svg>
