<?xml version="1.0" encoding="UTF-8" standalone="no"?><!DOCTYPE svg PUBLIC "-//W3C//DTD SVG 1.1//EN" "http://www.w3.org/Graphics/SVG/1.1/DTD/svg11.dtd"><svg width="100%" height="100%" viewBox="0 0 320 220" version="1.1" xmlns="http://www.w3.org/2000/svg" xmlns:xlink="http://www.w3.org/1999/xlink" xml:space="preserve" xmlns:serif="http://www.serif.com/" style="fill-rule:evenodd;clip-rule:evenodd;stroke-linecap:round;stroke-linejoin:round;stroke-miterlimit:1.5;"><rect id="auto-closing-tag" x="0" y="0.004" width="320" height="220" style="fill:none;"/><g id="self-closing-element"><path d="M96.928,29.443c-20.506,21.517 -39.622,43.658 -57.499,66.774c-5.653,7.309 -10.6,14.911 -14.949,22.832c-1.88,3.424 -4.448,7.618 -4.48,11.471c-0.034,4.141 2.578,8.445 4.796,12c7.703,12.348 65.501,43.579 77.892,49.936c7.462,3.829 14.724,7.532 23.642,8.041c11.475,0.654 22.858,-5.469 31.601,-11.05c9.184,-5.863 50.234,-43.266 63.616,-57.389c6.633,-7 11.707,-16.854 6.469,-25.527c-8.627,-14.283 -59.877,-57.144 -69.127,-65.644c-11.484,-10.554 -31.254,-29.468 -51.03,-19.606c-4.145,2.067 -7.741,5.245 -10.936,8.25" style="fill:#bad7e6;"/><path d="M133.546,96.323c-14.052,-1.496 -43.803,0.29 -61.141,12.352c-3.58,2.491 -6.891,5.468 -9.645,8.912c-1.999,2.501 -3.697,5.302 -4.956,8.286c-0.957,2.265 -1.668,4.638 -1.954,7.11c-1.685,14.559 14.579,21.101 25.403,24.786c8.563,2.916 17.334,5.785 26.293,6.021c38.992,1.028 73.613,-8.833 81.343,-14.712c2.524,-1.918 4.763,-4.213 6.506,-6.919c8.615,-13.378 3.852,-22.472 -8.042,-31.048c-14.18,-10.225 -39.756,-13.292 -53.807,-14.788Z" style="fill:#ffe5f2;"/><g id="face"><path d="M113.544,70.133c0,0.202 -1.327,1.375 -1.495,1.634c-1.103,1.699 -1.913,3.858 -0.91,5.744c2.283,4.295 9.191,2.82 9.175,-1.713c-0.002,-0.393 0.043,0.787 0.116,1.175c0.15,0.791 0.573,1.58 1.215,2.16c1.68,1.519 4.319,1.17 6.051,-0.074c3.677,-2.639 2.206,-7.765 -1.621,-9.728" style="fill:none;stroke:#445;stroke-width:2px;"/><path d="M91.433,65.29c0,0 -3.691,-1.681 -5.854,-0.506c-5.538,3.009 -7.531,10.233 -0.903,13.403c7.062,3.377 14.136,-9.07 6.757,-12.897Z" style="fill:#445;"/><path d="M153.437,62.7c-2.143,-0.158 -4.817,1.204 -6.072,2.443c-4.192,4.138 -1.993,11.1 3.66,11.798c4.843,0.597 8.729,-5.107 7.948,-9.524c-0.411,-2.326 -3.392,-4.559 -5.536,-4.717Z" style="fill:#445;"/></g><g id="self-closing-text"><path d="M90.884,121.495c0.537,6.615 1.172,13.219 1.95,19.81" style="fill:none;stroke:#445;stroke-width:3px;"/><path d="M103.241,140.624c-0.791,-1.104 -1.621,-2.623 -2.259,-3.808c-2.259,-4.198 -4.44,-10.993 -0.256,-14.842c2.466,-2.269 5.698,-1.064 7.103,1.483c0.634,1.149 0.903,2.41 1.131,3.669c0.076,0.419 0.127,0.841 0.183,1.262c0.005,0.038 0.063,0.707 0.114,0.684c0.43,-0.198 0.48,-2.639 0.572,-3.044c0.59,-2.619 2.342,-5.842 5.966,-5.923c2.129,-0.048 4.784,2.327 5.494,4.456c1.375,4.124 -0.023,7.215 -1.572,11.227c-0.142,0.369 -0.286,0.738 -0.44,1.104c-0.047,0.113 -1.122,2.931 -1.777,3.664" style="fill:none;stroke:#445;stroke-width:3px;"/><path d="M143.586,119.87c-6.736,-1.221 -10.818,0.802 -13.182,3.973c-4.593,6.162 -1.35,16.721 7.688,16.721c1.893,0 3.832,-0.594 5.239,-1.81c4.295,-3.713 0.74,-9.36 -4.63,-8.976c-1.137,0.081 -2.343,0.301 -3.371,0.785" style="fill:none;stroke:#445;stroke-width:3px;"/><path d="M170.767,117.285c-3.608,5.758 -7.731,16.181 -9.492,21.463" style="fill:none;stroke:#ff0078;stroke-width:3px;"/><path d="M177.116,117.492c0,-0.028 6.649,3.656 7.316,4.057c1.491,0.897 5.903,2.697 5.902,5.034c-0.001,1.93 -2.173,3.47 -3.544,4.463c-3.438,2.487 -7.156,4.623 -10.679,6.971" style="fill:none;stroke:#445;stroke-width:3px;"/><path d="M82.279,122.685c-1.76,1.76 -3.662,3.405 -5.469,5.12c-1.882,1.785 -3.787,3.549 -5.645,5.36c-0.538,0.523 -1.666,1.286 -1.731,2.12c-0.11,1.401 3.215,2.131 4.11,2.418c4.438,1.42 9.074,2.157 13.41,3.891" style="fill:none;stroke:#445;stroke-width:3px;"/></g></g><g id="bottom-arrow"><path d="M164.653,148.724c-0.145,-0.145 16.318,46.552 61.284,29.075" style="fill:none;stroke:#ff0078;stroke-width:2px;"/><path d="M173.595,152.543c0.686,0.474 -7.172,-5.603 -8.954,-4.628c-2.659,1.454 -2.04,10.157 -1.908,10.879" style="fill:none;stroke:#ff0078;stroke-width:2px;"/></g><g id="self-close-text"><path d="M242.708,175.893c-0.912,-0.32 -2.328,-0.209 -2.724,-0.097c-1.669,0.474 -2.984,1.943 -3.783,3.727c-0.309,0.69 -0.559,1.455 -0.657,2.223c-0.761,6.013 6.295,5.399 9.267,3.358" style="fill:none;stroke:#ff0078;stroke-width:2px;"/><path d="M247.765,175.007c0.031,-0.264 0.21,7.472 0.9,9.443c0.16,0.457 3.083,-0.972 7.193,-0.554" style="fill:none;stroke:#ff0078;stroke-width:2px;"/><path d="M265.491,174.561c-3.66,-1.72 -6.837,0.544 -7.606,2.937c-0.85,2.644 0.418,5.793 3.702,6.368c6.413,1.124 7.607,-7.565 3.904,-9.305Z" style="fill:none;stroke:#ff0078;stroke-width:2px;"/><path d="M277.798,173.851c-0.322,-0.1 -0.478,-0.199 -0.726,-0.275c-0.557,-0.168 -1.126,-0.299 -1.71,-0.343c-1.635,-0.123 -3.688,0.467 -4.289,2.021c-0.504,1.305 0.063,2.788 1.69,2.898c1.658,0.112 5.62,-0.449 5.973,2.124c0.552,4.026 -5.551,4.599 -7.765,1.485" style="fill:none;stroke:#ff0078;stroke-width:2px;"/><path d="M288.643,172.676c-1.653,-0.319 -3.419,-0.202 -4.741,0.932c-3.594,3.081 -1.62,8.82 2.825,9.158c1.185,0.091 2.267,-0.161 3.342,-0.666" style="fill:none;stroke:#ff0078;stroke-width:2px;"/><path d="M282.486,178.266c-0.007,-0.096 1.503,-0.212 1.587,-0.217c1.6,-0.109 3.205,-0.137 4.806,-0.246" style="fill:none;stroke:#ff0078;stroke-width:2px;"/><path d="M293.83,172.039c0,1.77 0.299,7.441 0.413,8.601c0.029,0.301 0.008,1.069 0.254,1.315c0.068,0.069 1.448,0.158 1.938,0.148c2.224,-0.048 4.803,-0.42 5.757,-2.749c1.41,-3.441 -0.38,-6.037 -3.519,-7.364c-2.201,-0.93 -4.843,0.049 -4.843,0.049Z" style="fill:none;stroke:#ff0078;stroke-width:2px;"/><path d="M223.502,159.638c-1.31,-0.294 -2.283,-0.545 -3.706,-0.279c-1.423,0.267 -4.147,1.965 -3.091,4.418c1.193,2.772 3.879,1.375 6.286,1.534c1.713,0.112 3.085,0.961 3.041,2.375c-0.111,3.531 -4.426,3.721 -6.899,2.946c-0.551,-0.173 -1.313,-0.35 -1.971,-0.982" style="fill:none;stroke:#ff0078;stroke-width:2px;"/><path d="M236.663,157.476c-5.572,0.183 -7.351,4.002 -7.741,5.984c-0.391,1.982 0.641,4.158 3.237,4.976c3.207,1.011 6.115,-1.046 6.513,-1.685" style="fill:none;stroke:#ff0078;stroke-width:2px;"/><path d="M229.142,164.356c0.918,0 6.034,-1.076 7.593,-1.24" style="fill:none;stroke:#ff0078;stroke-width:2px;"/><path d="M241.035,156.703c0.07,1.34 0.953,8.867 2.01,9.986c0.371,0.391 5.622,-0.757 7.393,-1.213" style="fill:none;stroke:#ff0078;stroke-width:2px;"/><path d="M253.704,160.461c0.013,-0.117 0.837,-0.168 0.92,-0.18c1.029,-0.144 2.063,-0.233 3.093,-0.366" style="fill:none;stroke:#ff0078;stroke-width:2px;"/><path d="M253.844,164.868c-0.072,-0.353 -0.275,-1.149 -0.296,-1.233c-0.34,-1.377 -0.623,-2.79 -0.737,-4.201c-0.071,-0.872 -0.011,-1.754 0.361,-2.566c1.199,-2.622 5.113,-2.814 7.585,-2.039" style="fill:none;stroke:#ff0078;stroke-width:2px;"/></g><g id="top-arrow" serif:id="top arrow"><path d="M159.314,91.765c15.11,-21.221 37.131,-38.83 63.478,-42.951" style="fill:none;stroke:#ff0078;stroke-width:2px;"/><path d="M156.697,86.313c-0.104,-0.766 0.418,1.375 0.452,1.527c0.295,1.332 0.545,2.679 0.764,4.026c0.03,0.188 0.071,1.573 0.333,1.661c0.141,0.048 5.989,-1.857 7.969,-2.012" style="fill:none;stroke:#ff0078;stroke-width:2px;"/></g><g id="single-tag"><path d="M226.833,24.825c0,-0.081 -0.513,-0.337 -0.57,-0.373c-0.603,-0.375 -1.262,-0.716 -1.966,-0.848c-2.035,-0.381 -4.553,1.397 -4.415,3.568c0.096,1.515 1.352,2.095 2.671,2.335c2.091,0.38 4.491,0.67 4.534,3.301c0.007,0.452 -0.025,0.922 -0.189,1.348c-1.19,3.08 -5.832,1.597 -7.299,-0.435c-0.311,-0.429 -0.844,-1.203 -0.844,-1.773" style="fill:none;stroke:#ff0078;stroke-width:2px;"/><path d="M230.765,23.842c0,3.949 0.246,7.902 0.246,11.85" style="fill:none;stroke:#ff0078;stroke-width:2px;"/><path d="M235.064,35.362c-0.255,-0.511 0.159,-9.226 0.207,-10.224c0.031,-0.65 1.017,-1.407 1.33,-1.169c0.612,0.465 0.83,1.755 1.033,2.429c0.204,0.68 1.816,6.184 1.9,6.439c0.187,0.566 0.93,3.499 1.802,1.974c0.106,-0.186 1.161,-2.096 1.053,-6.333c-0.038,-1.463 -0.074,-2.927 -0.074,-4.391" style="fill:none;stroke:#ff0078;stroke-width:2px;"/><path d="M253.172,24.583c-0.462,-0.304 -1.052,-0.475 -1.18,-0.504c-1.013,-0.23 -2.106,-0.087 -2.994,0.385c-3.422,1.819 -4.08,6.947 -1.471,9.555c1.875,1.873 5.41,0.791 5.879,0.554c3.515,-1.771 0.094,-6.507 -3.197,-4.903" style="fill:none;stroke:#ff0078;stroke-width:2px;"/><path d="M258.089,24.416c-0.034,0.626 -0.05,5.878 0.085,7.6c0.049,0.638 -0.055,1.74 0.303,2.321c0.215,0.35 4.449,0.24 5.918,0.146" style="fill:none;stroke:#ff0078;stroke-width:2px;"/><path d="M274.301,25.055c-0.46,-0.277 -0.938,-0.364 -1.315,-0.423c-1.551,-0.242 -3.062,0.145 -4.264,1.114c-3.421,2.755 -1.971,7.962 2.459,8.632c1.23,0.186 2.356,0.007 3.415,-0.57" style="fill:none;stroke:#ff0078;stroke-width:2px;"/><path d="M267.219,29.644c1.75,0 3.486,0.063 4.975,-0.02" style="fill:none;stroke:#ff0078;stroke-width:2px;"/><path d="M233.228,43.129c0,3.169 0.414,6.357 0.41,9.519" style="fill:none;stroke:#ff0078;stroke-width:2px;"/><path d="M228.777,43.347c2.102,-0.027 4.242,-0.128 6.296,-0.433c0.484,-0.072 1.529,-0.299 2.171,-0.444" style="fill:none;stroke:#ff0078;stroke-width:2px;"/><path d="M239.454,52.222c0,-2.42 0.001,-4.953 0.766,-7.275c0.319,-0.966 0.901,-2.252 1.958,-2.502c4.5,-1.065 4.125,7.248 4.115,9.628" style="fill:none;stroke:#ff0078;stroke-width:2px;"/><path d="M240.11,47.716c1.969,0 4.161,-0.029 6.094,0.357" style="fill:none;stroke:#ff0078;stroke-width:2px;"/><path d="M256.624,42.999c-2.136,-1.385 -5.177,-0.104 -6.15,1.518c-1.27,2.116 -1.069,5.035 1.13,6.668c0.571,0.424 1.48,0.816 2.237,0.894c2.42,0.249 4.175,-0.787 4.164,-2.706c-0.011,-1.919 -2.674,-2.844 -3.91,-1.986" style="fill:none;stroke:#ff0078;stroke-width:2px;"/></g></svg>