<?xml version="1.0" encoding="UTF-8" standalone="no"?><!DOCTYPE svg PUBLIC "-//W3C//DTD SVG 1.1//EN" "http://www.w3.org/Graphics/SVG/1.1/DTD/svg11.dtd"><svg width="100%" height="100%" viewBox="0 0 270 180" version="1.1" xmlns="http://www.w3.org/2000/svg" xmlns:xlink="http://www.w3.org/1999/xlink" xml:space="preserve" xmlns:serif="http://www.serif.com/" style="fill-rule:evenodd;clip-rule:evenodd;stroke-linecap:round;stroke-linejoin:round;stroke-miterlimit:1.5;"><rect id="basket-of-colored-apples" x="0" y="0" width="270" height="180" style="fill:none;"/><path id="basket-back" d="M136.665,72.062c-48.002,-1.42 -91.097,12.156 -91.848,12.45c-4.976,1.943 -14.763,5.955 -13.63,12.981c0.883,5.472 8.533,7.623 10.589,12.457c0.497,1.169 29.918,14.775 66.741,18.919c50.733,5.71 125.814,-16.516 130.203,-23.354c9.506,-14.809 -2.885,-22.343 -15.144,-24.982c0,0 -38.908,-7.051 -86.911,-8.471Z" style="fill:#82b7d1;"/><g id="back-apple" serif:id="back apple"><path d="M147.429,110.836c-24.5,-1.757 -59.839,-24.798 -39.423,-58.344c3.083,-5.065 8.352,-8.326 14.286,-9.4c9.492,-1.718 15.897,5.964 24.853,6.443c12.874,0.687 29.439,-12.824 40.536,1.822c9.32,12.3 3.698,62.629 -40.252,59.479Z" style="fill:#bad7e6;"/><path d="M149.27,51.804c-1.27,0.3 -2.571,-3.518 -2.647,-3.731c-0.482,-1.362 -0.943,-2.732 -1.363,-4.113c-0.89,-2.919 -5.695,-13.922 0.206,-15.266c2.545,-0.579 3.653,2.766 4.07,4.637c1.099,4.931 1.455,10.794 1.348,15.882c0,0 -0.345,2.291 -1.614,2.591Z" style="fill:#445;"/><path d="M148.552,44.932c-0.646,-1.824 6.296,-9.152 8.072,-10.863c6.13,-5.908 13.57,-10.66 21.636,-13.453c2.243,-0.777 5.462,-2.226 7.938,-1.91c0.765,0.097 -0.683,3.364 -0.805,3.7c-1.463,4.013 -3.658,7.713 -6.545,10.862c-7.4,8.069 -29.649,13.487 -30.296,11.664Z" style="fill:#bad7e6;"/><path d="M136.273,55.852c-2.265,-0.305 -3.676,1.359 -4.02,1.968c-1.57,2.774 1.775,5.876 4.544,5.089c4.494,-1.277 2.124,-6.701 -0.524,-7.057Z" style="fill:#445;"/><path d="M162.933,57.255c-3.285,-1.384 -4.849,-0.13 -5.953,1.621c-1.253,1.987 -0.067,4.712 2.478,5.018c3.396,0.407 6.76,-5.255 3.475,-6.639Z" style="fill:#445;"/><path d="M143.698,63.594c-1.934,1.002 -1.34,3.38 -0.619,4.326c0.53,0.696 1.47,1.058 2.33,0.996c1.377,-0.099 1.604,-0.936 2.463,-1.531c1.06,2.101 3.599,1.539 4.407,0.687c1.405,-1.481 1.461,-4.823 -0.981,-5.348" style="fill:none;stroke:#445;stroke-width:2px;"/></g><g id="right-apple"><path d="M205.066,129.237c0,0 7.006,-2.664 14.013,-10.174c7.006,-7.51 12.878,-27.056 5.334,-41.098c-2.707,-5.039 -6.935,-8.974 -12.806,-9.714c-9.429,-1.188 -16.584,4.868 -25.516,5.752c-4.915,0.487 -9.628,-2.938 -14.165,-4.35c-7.551,-2.348 -18.414,0.98 -23.892,6.401c-9.955,9.851 -6.754,27.116 -0.459,37.739c8.889,15 24.971,19.304 41.504,18.429c4.877,-0.258 11.563,-0.546 15.987,-2.985Z" style="fill:#ff0078;"/><path d="M187.168,74.139c0.489,-3.481 2.418,-7.233 3.82,-10.403c1.002,-2.265 2.182,-4.456 3.621,-6.475c1.508,-2.115 3.901,-5.08 6.818,-4.915c1.22,0.07 3.792,0.626 3.653,2.265c-0.416,4.905 -7.057,10.497 -10.223,13.793c-0.247,0.257 -6.337,6.886 -7.229,7.028c-0.891,0.142 -0.46,-1.293 -0.46,-1.293Z" style="fill:#445;"/><path d="M185.802,84.049c-3.065,-0.775 -5.221,1.966 -5.589,3.355c-0.828,3.132 2.426,5.604 5.301,4.421c3.7,-1.522 3.352,-7 0.288,-7.776Z" style="fill:#445;"/><path d="M213.576,80.684c-3.221,-1.415 -4.354,-0.422 -4.883,0.044c-2.155,1.901 -3.229,6.219 0.024,7.669c5.231,2.334 8.081,-6.298 4.859,-7.713Z" style="fill:#445;"/><path d="M193.491,92.116c-1.86,1.843 -1.567,4.788 0.565,5.188c2.709,0.507 3.879,-2.849 3.879,-2.849c0,0 0.474,1.383 0.987,1.862c1.017,0.952 2.459,1.269 3.732,0.479c1.925,-1.193 1.901,-4.629 -0.285,-5.603" style="fill:none;stroke:#445;stroke-width:2px;"/></g><g id="left-apple"><path d="M48.77,73.435c-11.232,20.845 1.386,46.515 26.918,53.001c10.654,2.707 17.027,2.493 26.318,-0.922c18.848,-6.928 29.566,-31.24 25.057,-50.227c-2.642,-11.124 -14.177,-17.532 -25.247,-15.038c-5.639,1.27 -10.26,5.129 -16.043,6.032c-12.516,1.954 -28.849,-7.981 -37.003,7.154Z" style="fill:#ffe5f2;"/><path d="M83.849,69.869c-1.356,-4.73 -7.798,-10.05 -10.594,-14.129c-1.343,-1.96 -3.457,-4.715 -0.696,-6.343c8.486,-5.004 10.48,5.852 11.957,12.028c0.054,0.227 2.058,8.604 0.782,9.183c-0.884,0.402 -1.449,-0.739 -1.449,-0.739Z" style="fill:#445;"/><path d="M76.147,57.758c-0.017,-1.73 -7.778,-2.484 -9.062,-2.88c-6.164,-1.902 -12.415,-3.437 -18.86,-3.985c-1.905,-0.162 -5.095,-0.882 -6.71,0.437c-1.396,1.139 8.68,5.973 9.365,6.247c7.461,2.983 25.285,1.912 25.267,0.181Z" style="fill:#bad7e6;"/><path d="M74.475,82.281c-2.357,-0.747 -4.662,1.273 -5.015,1.924c-1.611,2.974 1.644,6.428 4.765,5.744c4.707,-1.031 2.606,-6.921 0.25,-7.668Z" style="fill:#445;"/><path d="M103.65,77.091c0,0 -1.38,-0.065 -2.587,0.411c-1.285,0.507 -2.357,1.627 -2.758,2.97c-0.292,0.976 -0.236,1.988 0.324,2.859c0.399,0.62 1.012,1.119 1.661,1.461c5.893,3.103 8.642,-7.589 3.36,-7.701Z" style="fill:#445;"/><path d="M82.976,86.743c-0.006,-0.113 -0.344,0.619 -0.383,0.728c-0.197,0.549 -0.299,1.118 -0.327,1.701c-0.079,1.661 0.64,3.761 2.576,3.931c1.343,0.117 2.643,-0.708 3.402,-1.766c0.185,-0.258 0.556,-1.357 0.839,-1.467c0.15,-0.058 2.25,1.71 2.757,1.803c3.57,0.656 4.525,-3.889 3.057,-6.313" style="fill:none;stroke:#445;stroke-width:2px;"/></g><g id="basket-front"><path d="M236.204,85.628c7.878,4.694 13.502,11.598 9.184,17.888c-4.599,6.699 -6.061,3.52 -10.878,10.186c-7.769,10.753 -6.756,23.374 -18.55,30.489c-9.998,6.032 -35.636,12.551 -46.967,14.362c-26.51,4.237 -54.461,2.414 -80.613,-3.435c-12.641,-2.827 -25.086,-6.421 -34.498,-15.825c-5.533,-5.529 -8.696,-12.62 -10.45,-20.157c-0.68,-2.924 -0.474,-6.407 -1.656,-9.186c-2.056,-4.834 -9.706,-6.985 -10.589,-12.457c-0.934,-5.79 5.548,-9.533 10.668,-11.726c0.39,0.031 0.78,0.115 1.164,0.253c2.181,0.782 -1.997,1.798 -4.063,5.992c-2.067,4.193 10.629,11.021 12.048,11.83c10.637,6.061 23.063,8.752 34.917,11.335c38.796,8.457 79.068,6.253 117.145,-4.229c8.997,-2.477 37.291,-11.401 35.036,-16.742c-2.255,-5.341 -10.513,-6.107 -6.664,-8.318c0.955,-0.548 2.696,-0.558 4.766,-0.26Z" style="fill:#bad7e6;"/><path d="M120.651,139.634c-2.377,-3.721 -6.534,-3.248 -8.423,-1.368c-1.338,1.331 -2.715,3.201 -2.679,5.338c0.122,7.211 15.883,3.512 11.102,-3.97Z" style="fill:#445;"/><path d="M163.747,135.999c-1.466,-0.915 -5.396,-1.006 -7.948,2.068c-2.203,2.654 -2.204,6.54 1.132,8.068c6.535,2.994 12.301,-6.712 6.816,-10.136Z" style="fill:#445;"/><path d="M133.099,146.311c0.277,10.976 8.586,9.904 8.998,0.278" style="fill:none;stroke:#445;stroke-width:2px;"/></g></svg>