<?xml version="1.0" encoding="UTF-8" standalone="no"?><!DOCTYPE svg PUBLIC "-//W3C//DTD SVG 1.1//EN" "http://www.w3.org/Graphics/SVG/1.1/DTD/svg11.dtd"><svg width="100%" height="100%" viewBox="0 0 320 210" version="1.1" xmlns="http://www.w3.org/2000/svg" xmlns:xlink="http://www.w3.org/1999/xlink" xml:space="preserve" xmlns:serif="http://www.serif.com/" style="fill-rule:evenodd;clip-rule:evenodd;stroke-linecap:round;stroke-linejoin:round;stroke-miterlimit:1.5;"><rect id="what-is-this" x="0" y="0" width="320" height="210" style="fill:none;"/><g id="polaroid"><path d="M137.874,167.622c0,0 -19.856,-80.205 -24.387,-82.27c-1.099,-0.501 -10.963,3.406 -23.878,2.508c-20.775,-1.444 -48.629,-7.658 -54.475,-7.15c-2.588,0.225 -7.418,0.001 -9.067,2.803c-1.912,3.248 -0.362,8.507 0.476,11.822c2.485,9.821 10.297,46.766 11.818,57.243c1.565,10.789 1.953,22.224 5.499,30.078c1.268,2.807 23.394,6.403 44.695,3.899c10.022,-1.178 20.444,-4.563 29.953,-6.719c10.704,-2.426 19.946,-3.601 20.316,-4.215c0.958,-1.593 -0.704,-6.23 -0.95,-7.999Z" style="fill:#ecf4f8;"/><clipPath id="_clip1"><path d="M137.874,167.622c0,0 -19.856,-80.205 -24.387,-82.27c-1.099,-0.501 -10.963,3.406 -23.878,2.508c-20.775,-1.444 -48.629,-7.658 -54.475,-7.15c-2.588,0.225 -7.418,0.001 -9.067,2.803c-1.912,3.248 -0.362,8.507 0.476,11.822c2.485,9.821 10.297,46.766 11.818,57.243c1.565,10.789 1.953,22.224 5.499,30.078c1.268,2.807 23.394,6.403 44.695,3.899c10.022,-1.178 20.444,-4.563 29.953,-6.719c10.704,-2.426 19.946,-3.601 20.316,-4.215c0.958,-1.593 -0.704,-6.23 -0.95,-7.999Z"/></clipPath><g clip-path="url(#_clip1)"><path d="M114.151,85.453c0,0 6.967,20.136 8.577,27.04c1.61,6.905 7.899,30.293 8.599,33.226c0.202,0.849 0.875,2.4 0.344,3.217c-0.546,0.841 -1.859,0.975 -2.75,1.151c-1.094,0.216 -36.156,6.91 -54.273,8.48c-18.692,1.62 -25.13,-0.71 -31.094,-1.385c-3.267,-0.37 -3.869,-0.481 -4.81,-4.82c-2.708,-12.485 -7.47,-38.312 -9.602,-51.033c-0.748,-4.464 -3.137,-11.648 -2.745,-16.29c0.301,-3.549 8.827,-3.236 10.876,-3.106c11.953,0.763 20.478,3.411 31.794,4.541c11.224,1.12 24.925,2.938 36.1,1.281c2.63,-0.39 8.984,-2.302 8.984,-2.302Z" style="fill:#82b7d1;"/></g><path d="M137.874,167.622c0,0 -19.856,-80.205 -24.387,-82.27c-1.099,-0.501 -10.963,3.406 -23.878,2.508c-20.775,-1.444 -48.629,-7.658 -54.475,-7.15c-2.588,0.225 -7.418,0.001 -9.067,2.803c-1.912,3.248 -0.362,8.507 0.476,11.822c2.485,9.821 10.297,46.766 11.818,57.243c1.565,10.789 1.953,22.224 5.499,30.078c1.268,2.807 23.394,6.403 44.695,3.899c10.022,-1.178 20.444,-4.563 29.953,-6.719c10.704,-2.426 19.946,-3.601 20.316,-4.215c0.958,-1.593 -0.704,-6.23 -0.95,-7.999Z" style="fill:none;stroke:#bad7e6;stroke-width:2px;"/><path d="M103.2,127.072c3.837,-0.625 5.908,4.587 6.93,8.254c0.825,2.963 -0.751,6.66 -4.967,6.451c-9.176,-0.455 -5.8,-14.08 -1.963,-14.705Z" style="fill:#445;"/><path d="M62.965,129.525c4.027,-1.52 8.805,8.166 6.926,12.103c-3.457,7.24 -10.34,2.192 -10.611,-1.738c-0.252,-3.655 -0.341,-8.845 3.685,-10.365Z" style="fill:#445;"/><path d="M80.629,146.702c0.53,-1.391 1.656,-2.871 2.326,-3.728c2.988,-3.825 8.714,-2.968 9.599,1.082" style="fill:none;stroke:#445;stroke-width:2px;"/><g id="with-luv"><path d="M129.414,167.034c0.347,-1.406 1.767,-1.841 2.658,-1.464c0.892,0.377 1.256,1.566 0.91,2.972c-0.225,1.043 -1.23,2.326 -2.113,3.246c-1.247,-0.268 -2.798,-0.769 -3.568,-1.508c-1.073,-0.971 -1.437,-2.16 -0.909,-2.972c0.529,-0.811 1.949,-1.246 3.022,-0.274Z" style="fill:#ff0078;"/><g id="with"><path d="M105.191,172.302c-1.624,1.544 -1.221,4.261 0.185,4.737c0.771,0.261 1.531,0.022 1.71,-0.637c0.089,-0.326 0.155,-1.003 0.155,-1.003c0,0 0.422,0.782 0.783,1.009c0.59,0.372 1.198,0.217 1.559,-0.381c0.916,-1.514 -0.093,-3.808 -1.863,-4.029" style="fill:none;stroke:#82b7d1;stroke-width:1px;"/><path d="M111.342,171.447c0.339,1.425 0.942,2.787 1.515,3.803" style="fill:none;stroke:#82b7d1;stroke-width:1px;"/><path d="M113.486,170.766c0.287,-0.14 2.907,-0.911 3.882,-1.203" style="fill:none;stroke:#82b7d1;stroke-width:1px;"/><path d="M115.526,170.49c0.163,0.162 0.556,2.922 0.732,3.852" style="fill:none;stroke:#82b7d1;stroke-width:1px;"/><path d="M119.479,169.086c0,1.303 0.494,2.75 0.743,4.026" style="fill:none;stroke:#82b7d1;stroke-width:1px;"/><path d="M122.446,168.415c0,1.447 0.328,2.97 0.537,4.399" style="fill:none;stroke:#82b7d1;stroke-width:1px;"/><path d="M120.207,170.99c0,-0.026 0.542,-0.155 0.575,-0.165c0.605,-0.176 1.214,-0.312 1.833,-0.43" style="fill:none;stroke:#82b7d1;stroke-width:1px;"/></g></g></g><g id="question-mark"><path d="M72.261,40.939c-2.257,1.073 -4.461,-1.083 -4.551,-1.204c-1.604,-2.151 -1.616,-4.517 -0.719,-6.975c4.072,-11.151 16.572,-9.195 19.866,-3.484c6.259,10.855 -2.241,15.743 -9.652,20.514c-2.823,1.817 -6.446,4.884 -5.821,9.227" style="fill:none;stroke:#ff0078;stroke-width:4px;"/><path d="M71.393,67.346c-0.061,0.734 0.084,2.066 0.084,2.066" style="fill:none;stroke:#ff0078;stroke-width:4px;"/></g><g id="html-file-detail"><path d="M196.844,170.604c-4.711,-1.807 -7.198,-6.609 -6.047,-10.069c5.324,-16.005 20.529,-52.734 23.123,-66.363c3.206,-16.837 -0.097,-36.455 11.007,-36.455c2.143,0 27.223,0.813 32.856,1.134c4.806,0.274 14.419,1.645 22.55,3.374c6.862,1.459 14.593,22.515 14.328,26.226c-0.694,9.735 -0.945,11.32 -2.993,20.845c-3.865,17.97 -19.857,74.647 -25.735,78.827c-6.356,4.52 -22.934,-1.139 -30.928,-3.477c-5.684,-1.662 -26.567,-9.596 -38.161,-14.042Z" style="fill:#bad7e6;"/><clipPath id="_clip2"><path d="M196.844,170.604c-4.711,-1.807 -7.198,-6.609 -6.047,-10.069c5.324,-16.005 20.529,-52.734 23.123,-66.363c3.206,-16.837 -0.097,-36.455 11.007,-36.455c2.143,0 27.223,0.813 32.856,1.134c4.806,0.274 14.419,1.645 22.55,3.374c6.862,1.459 14.593,22.515 14.328,26.226c-0.694,9.735 -0.945,11.32 -2.993,20.845c-3.865,17.97 -19.857,74.647 -25.735,78.827c-6.356,4.52 -22.934,-1.139 -30.928,-3.477c-5.684,-1.662 -26.567,-9.596 -38.161,-14.042Z"/></clipPath><g clip-path="url(#_clip2)"><path d="M226.335,76.543c-0.441,0 1.384,0.331 1.654,0.392c1.228,0.278 2.471,0.468 3.718,0.639c3.837,0.527 7.728,0.846 11.589,1.133c9.711,0.722 36.302,-0.49 39.403,-0.322" style="fill:none;stroke:#82b7d1;stroke-width:4px;"/><path d="M225.935,89.466c0,-0.023 9.709,1.451 19.277,2.155c5.797,0.427 11.867,0.112 14.767,0.322" style="fill:none;stroke:#82b7d1;stroke-width:4px;"/><path d="M221.537,101.986c19.66,4.065 39.646,5.188 53.188,5.185" style="fill:none;stroke:#82b7d1;stroke-width:4px;"/><path d="M270.447,92.16c0.001,-0.062 8.9,-0.233 10.385,-0.097" style="fill:none;stroke:#82b7d1;stroke-width:4px;"/><path d="M218.652,116.222c5.186,2.618 45.948,6.776 59.97,4.888" style="fill:none;stroke:#82b7d1;stroke-width:4px;"/><path d="M215.538,128.235c2.958,0.827 5.853,1.592 7.89,2.145" style="fill:none;stroke:#82b7d1;stroke-width:4px;"/><path d="M234.93,132.159c-0.057,0 6.607,1.514 13.307,1.99c6.701,0.477 17.705,0.942 26.437,0.391" style="fill:none;stroke:#82b7d1;stroke-width:4px;"/><path d="M211.675,138.367c12.324,4.791 45.175,9.919 59.311,9.552" style="fill:none;stroke:#82b7d1;stroke-width:4px;"/></g><path d="M294.662,88.045c-6.904,-5.606 -15.696,-9.205 -17.606,-11.26c-1.91,-2.055 -0.832,-15.434 3.277,-14.56c6.862,1.459 14.714,22.119 14.329,25.82Z" style="fill:#ecf4f8;"/><path d="M216.213,150.212c-3.486,-0.342 -6.309,1.455 -7.046,4.855c-0.563,2.594 1.689,6.788 4.784,6.912c3.558,0.143 6.856,-2.598 7.346,-6.023c0.356,-2.486 -1.598,-5.402 -5.084,-5.744Z" style="fill:#445;"/><path d="M252.443,164.065c-0.864,-1.556 -4.148,-3.908 -7.744,-2.012c-5.93,3.127 -2.15,11.001 3.606,10.037c3.528,-0.591 5.845,-4.952 4.138,-8.025Z" style="fill:#445;"/><path d="M222.974,165.866c-0.101,1.061 -0.07,2.091 0.19,3.138c1.645,6.633 8.817,4.177 11.555,-0.073" style="fill:none;stroke:#445;stroke-width:2px;"/></g></svg>