<?xml version="1.0" encoding="UTF-8" standalone="no"?><!DOCTYPE svg PUBLIC "-//W3C//DTD SVG 1.1//EN" "http://www.w3.org/Graphics/SVG/1.1/DTD/svg11.dtd"><svg width="100%" height="100%" viewBox="0 0 480 280" version="1.1" xmlns="http://www.w3.org/2000/svg" xmlns:xlink="http://www.w3.org/1999/xlink" xml:space="preserve" xmlns:serif="http://www.serif.com/" style="fill-rule:evenodd;clip-rule:evenodd;stroke-linecap:round;stroke-linejoin:round;stroke-miterlimit:1.5;"><rect id="anatomy-of-an-attribute" x="0" y="0.004" width="480" height="280" style="fill:none;"/><g id="machine"><path d="M141.19,167.877c0.106,-17.974 -0.715,-68.769 0.086,-87.188c0.406,-9.328 9.208,-13.368 24.815,-14.09c18.152,-0.839 73.237,1.617 123.583,1.003c38.695,-0.472 74.91,-1.985 87.454,-2.708c10.489,-0.604 24.435,-2.864 34.05,1.844c13.983,6.847 11.988,11.245 12.81,22.659c1.63,22.661 -0.176,100.451 -4.503,110.804c-5.843,13.98 -13.024,11.94 -29.421,12.645c-37.694,1.622 -94.047,1.042 -131.539,-0.228c-23.887,-0.81 -47.996,-0.921 -71.882,0.09c-11.88,0.503 -27.434,2.565 -38.316,-2.397c-11.051,-5.039 -7.243,-24.461 -7.137,-42.434Z" style="fill:#445;stroke:#82b7d1;stroke-width:9px;"/><path d="M427.024,100.713c-1.189,-0.043 -1.719,-16.403 -1.446,-16.378c2.691,0.245 6.838,1.18 8.501,-1.863c2.127,-3.892 1.444,-10.651 1.334,-15c-0.073,-2.863 -0.344,-5.894 2.524,-7.431c1.338,-0.718 8.764,-1.276 10.019,0c2.28,2.317 4.784,38.051 -5.927,39.587c-4.653,0.667 -10.382,1.249 -15.005,1.085Z" style="fill:#82b7d1;"/><path d="M428.783,105.817c0,2.221 0.403,3.036 0.549,7.98c0.131,4.427 7.438,4.154 11.154,4.045c2.908,-0.085 8.594,1.853 10.144,5.376c3.561,8.094 3.093,65.732 -1.941,81.942c-4.1,13.205 -40.542,11.272 -43.865,11.513c-2.097,0.152 16.371,-15.623 16.371,-15.623l7.588,-95.233Z" style="fill:#82b7d1;"/><path d="M443.591,124.523c-0.936,0.084 -1.712,0.884 -1.894,1.137c-1.363,1.893 -0.873,5.235 1.948,5.161c1.984,-0.052 3.371,-1.872 3.305,-3.802c-0.066,-1.937 -2.423,-2.581 -3.359,-2.496Z" style="fill:#ff0078;"/><path d="M443.334,135.552c-0.869,0.13 -1.962,0.706 -2.427,1.353c-1.894,2.632 0.161,6.257 3.36,5.734c2.497,-0.407 3.311,-3.36 2.095,-5.378c-0.716,-1.187 -2.159,-1.838 -3.028,-1.709Z" style="fill:#ff0078;"/><path d="M445.446,148.251c-0.542,-0.274 -2.508,-0.812 -3.732,0.196c-0.807,0.664 -1.466,1.489 -1.613,2.52c-0.31,2.169 1.349,3.859 3.509,3.725c3.514,-0.218 5.319,-4.685 1.836,-6.441Z" style="fill:#ff0078;"/><path d="M420.9,201.036c4.493,0 19.372,-0.167 23.606,0.116" style="fill:none;stroke:#bad7e6;stroke-width:2px;"/><path d="M422.209,193.499c4.442,0 19.144,0.044 21.984,0.044" style="fill:none;stroke:#bad7e6;stroke-width:2px;"/><path d="M422.291,186.045c5.051,0 10.101,-0.126 15.152,-0.073c2.301,0.024 4.786,-0.192 7.073,0.159" style="fill:none;stroke:#bad7e6;stroke-width:2px;"/></g><g id="tag"><g opacity="0.102408"><path d="M176.967,132.22c-1.573,1.114 -4.599,3.053 -6.156,4.188c-3.078,2.244 -6.235,4.391 -9.152,6.782c-0.722,0.591 -2.468,2.616 -3.437,2.62c-0.005,0 1.937,1.467 2.149,1.583c1.577,0.863 3.082,1.847 4.663,2.7c3.761,2.031 8.633,5.575 12.583,7.298" style="fill:none;stroke:#ecf4f8;stroke-width:8px;"/><path d="M185.795,132.693c0,-0.498 0,1.488 0,1.685c0,1.381 0,2.761 0,4.142c0,4.195 0.127,14.911 0.193,16.039c0.035,0.583 0.172,2.33 0.172,1.746" style="fill:none;stroke:#ecf4f8;stroke-width:8px;"/><path d="M182.629,133.038c-0.604,-1.144 6.54,-0.679 6.949,-0.69c3.438,-0.096 12.458,1.969 10.999,7.126c-1.174,4.152 -8.061,5.428 -11.711,5.684c-1.29,0.09 -2.794,0.119 -4.06,-0.162c-0.611,-0.136 -2.496,-0.223 -1.869,-0.223" style="fill:none;stroke:#ecf4f8;stroke-width:8px;"/><path d="M233.431,135.372c-0.42,0.001 0.418,14.967 0.85,19.249" style="fill:none;stroke:#ecf4f8;stroke-width:8px;"/><path d="M227.167,135.527c0.001,-0.138 12.154,-1.108 11.891,-1.108" style="fill:none;stroke:#ecf4f8;stroke-width:8px;"/><path d="M228.498,156.211c1.048,0 2.162,-0.43 3.194,-0.602c1.763,-0.294 3.527,-0.41 5.312,-0.446c0.714,-0.015 1.432,-0.039 2.144,0.03c0.145,0.014 0.661,0.2 0.801,0.06" style="fill:none;stroke:#ecf4f8;stroke-width:8px;"/><path d="M246.594,132.848c0,5 0.603,10.385 1.096,15.389c0.177,1.79 0.388,3.539 0.623,5.319c0.109,0.819 0.473,3.262 0.473,2.437" style="fill:none;stroke:#ecf4f8;stroke-width:8px;"/><path d="M244.037,134.228c7.372,0 13.872,-1.755 20.607,2.335c2.137,1.299 4.834,3.104 4.833,5.786c-0.002,6.385 -7.239,10.728 -13.172,11.693c-2.004,0.326 -4.26,0.514 -6.295,0.427c-0.689,-0.03 -1.377,-0.057 -2.063,-0.121c-0.315,-0.03 -1.261,-0.101 -0.944,-0.101" style="fill:none;stroke:#ecf4f8;stroke-width:8px;"/><path d="M277.641,143.546c1.397,-0.344 18.257,-0.634 17.72,-0.634" style="fill:none;stroke:#ecf4f8;stroke-width:8px;"/><path d="M278.372,153.9c-0.355,0 4.702,-0.041 5.847,-0.161c3.249,-0.341 12.526,-0.164 13.341,-0.934" style="fill:none;stroke:#ecf4f8;stroke-width:8px;"/><path d="M302.676,128.247c0.005,-0.695 0.143,1.383 0.238,2.072c0.215,1.581 0.467,3.231 0.902,4.771c0.199,0.706 0.687,2.821 0.687,2.092" style="fill:none;stroke:#ecf4f8;stroke-width:8px;"/><path d="M308.156,127.213c0,2.028 0.613,4.13 0.817,6.152c0.066,0.654 0.192,1.303 0.322,1.949c0.071,0.353 0.322,1.395 0.322,1.035" style="fill:none;stroke:#ecf4f8;stroke-width:8px;"/><path d="M361.596,124.348c-0.797,2.189 -2.231,6.474 -3.924,9.179" style="fill:none;stroke:#ecf4f8;stroke-width:8px;"/><path d="M367,125.764c0,2.251 -1.468,4.897 -2.386,6.902c-0.316,0.691 -0.622,1.371 -1.009,2.03c-0.201,0.342 -0.623,1.407 -0.623,1.016" style="fill:none;stroke:#ecf4f8;stroke-width:8px;"/><path d="M382.055,124.907c3.033,1.974 17.07,11.473 19.36,15.817c0.527,1 -20.321,15.933 -21.55,15.937" style="fill:none;stroke:#ecf4f8;stroke-width:8px;"/><path d="M333.597,126.798c-0.977,0 -1.855,-0.504 -2.909,-0.278c-12.717,2.728 -18.015,22.443 -3.903,26.887c2.307,0.726 4.916,0.717 7.312,0.505c6.009,-0.533 12.804,-2.846 15.192,-8.614c3.535,-8.535 -7.266,-21.391 -16.981,-20.014" style="fill:none;stroke:#ecf4f8;stroke-width:8px;"/><path d="M325.458,135.97c0,-2.776 0.021,2.223 0.313,2.958" style="fill:none;stroke:#ecf4f8;stroke-width:8px;"/><path d="M337.668,131.237c0,1.29 -0.107,2.577 -0.221,3.863" style="fill:none;stroke:#ecf4f8;stroke-width:8px;"/><path d="M329.84,139.519c-0.589,0.002 1.129,2.508 2.267,2.559c2.097,0.095 2.568,-1.443 3.333,-2.889" style="fill:none;stroke:#ecf4f8;stroke-width:8px;"/></g></g><g id="tag1" serif:id="tag"><path d="M176.967,132.22c-1.573,1.114 -4.599,3.053 -6.156,4.188c-3.078,2.244 -6.235,4.391 -9.152,6.782c-0.722,0.591 -2.468,2.616 -3.437,2.62c-0.005,0 1.937,1.467 2.149,1.583c1.577,0.863 3.082,1.847 4.663,2.7c3.761,2.031 8.633,5.575 12.583,7.298" style="fill:none;stroke:#bad7e6;stroke-width:3px;"/><path d="M185.795,132.693c0,-0.498 0,1.488 0,1.685c0,1.381 0,2.761 0,4.142c0,4.195 0.127,14.911 0.193,16.039c0.035,0.583 0.172,2.33 0.172,1.746" style="fill:none;stroke:#ff0078;stroke-width:3px;"/><path d="M182.629,133.038c-0.604,-1.144 6.54,-0.679 6.949,-0.69c3.438,-0.096 12.458,1.969 10.999,7.126c-1.174,4.152 -8.061,5.428 -11.711,5.684c-1.29,0.09 -2.794,0.119 -4.06,-0.162c-0.611,-0.136 -2.496,-0.223 -1.869,-0.223" style="fill:none;stroke:#ff0078;stroke-width:3px;"/><path d="M233.431,135.372c-0.42,0.001 0.418,14.967 0.85,19.249" style="fill:none;stroke:#fff;stroke-width:3px;"/><path d="M227.167,135.527c0.001,-0.138 12.154,-1.108 11.891,-1.108" style="fill:none;stroke:#fff;stroke-width:3px;"/><path d="M228.498,156.211c1.048,0 2.162,-0.43 3.194,-0.602c1.763,-0.294 3.527,-0.41 5.312,-0.446c0.714,-0.015 1.432,-0.039 2.144,0.03c0.145,0.014 0.661,0.2 0.801,0.06" style="fill:none;stroke:#fff;stroke-width:3px;"/><path d="M246.594,132.848c0,5 0.603,10.385 1.096,15.389c0.177,1.79 0.388,3.539 0.623,5.319c0.109,0.819 0.473,3.262 0.473,2.437" style="fill:none;stroke:#fff;stroke-width:3px;"/><path d="M244.037,134.228c7.372,0 13.872,-1.755 20.607,2.335c2.137,1.299 4.834,3.104 4.833,5.786c-0.002,6.385 -7.239,10.728 -13.172,11.693c-2.004,0.326 -4.26,0.514 -6.295,0.427c-0.689,-0.03 -1.377,-0.057 -2.063,-0.121c-0.315,-0.03 -1.261,-0.101 -0.944,-0.101" style="fill:none;stroke:#fff;stroke-width:3px;"/><path d="M277.641,143.546c1.397,-0.344 18.257,-0.634 17.72,-0.634" style="fill:none;stroke:#bad7e6;stroke-width:3px;"/><path d="M278.372,153.9c-0.355,0 4.702,-0.041 5.847,-0.161c3.249,-0.341 12.526,-0.164 13.341,-0.934" style="fill:none;stroke:#bad7e6;stroke-width:3px;"/><path d="M302.676,128.247c0.005,-0.695 0.143,1.383 0.238,2.072c0.215,1.581 0.467,3.231 0.902,4.771c0.199,0.706 0.687,2.821 0.687,2.092" style="fill:none;stroke:#ffe5f2;stroke-width:3px;"/><path d="M308.156,127.213c0,2.028 0.613,4.13 0.817,6.152c0.066,0.654 0.192,1.303 0.322,1.949c0.071,0.353 0.322,1.395 0.322,1.035" style="fill:none;stroke:#ffe5f2;stroke-width:3px;"/><path d="M361.596,124.348c-0.797,2.189 -2.231,6.474 -3.924,9.179" style="fill:none;stroke:#ffe5f2;stroke-width:3px;"/><path d="M367,125.764c0,2.251 -1.468,4.897 -2.386,6.902c-0.316,0.691 -0.622,1.371 -1.009,2.03c-0.201,0.342 -0.623,1.407 -0.623,1.016" style="fill:none;stroke:#ffe5f2;stroke-width:3px;"/><path d="M382.055,124.907c3.033,1.974 17.07,11.473 19.36,15.817c0.527,1 -20.321,15.933 -21.55,15.937" style="fill:none;stroke:#bad7e6;stroke-width:3px;"/><path d="M333.597,126.798c-0.977,0 -1.855,-0.504 -2.909,-0.278c-12.717,2.728 -18.015,22.443 -3.903,26.887c2.307,0.726 4.916,0.717 7.312,0.505c6.009,-0.533 12.804,-2.846 15.192,-8.614c3.535,-8.535 -7.266,-21.391 -16.981,-20.014" style="fill:none;stroke:#ffe5f2;stroke-width:3px;"/><path d="M325.458,135.97c0,-2.776 0.021,2.223 0.313,2.958" style="fill:none;stroke:#ffe5f2;stroke-width:3px;"/><path d="M337.668,131.237c0,1.29 -0.107,2.577 -0.221,3.863" style="fill:none;stroke:#ffe5f2;stroke-width:3px;"/><path d="M329.84,139.519c-0.589,0.002 1.129,2.508 2.267,2.559c2.097,0.095 2.568,-1.443 3.333,-2.889" style="fill:none;stroke:#ffe5f2;stroke-width:3px;"/></g><g id="arrow-quotes"><path d="M316.309,124.228l0,-9.997l-22.001,0l0,9.997" style="fill:none;stroke:#ff0078;stroke-width:2px;"/><path d="M316.309,124.228l0,-9.997l-22.001,0l0,9.997" style="fill:none;stroke:#ff0078;stroke-width:2px;"/><path d="M362.982,113.913l0,-18.254l-57.674,0l0,18.254" style="fill:none;stroke:#ff0078;stroke-width:2px;"/><path d="M374.023,124.228l0,-9.997l-22.001,0l0,9.997" style="fill:none;stroke:#ff0078;stroke-width:2px;"/><path d="M347.451,32.427l-13.306,0l0,63.232" style="fill:none;stroke:#ff0078;stroke-width:2px;"/></g><g id="arrow-attribute"><path d="M277.385,124.228l0,-9.997l-57.673,0l0,9.997" style="fill:none;stroke:#ff0078;stroke-width:2px;"/><path d="M277.385,124.228l0,-9.997l-57.673,0l0,9.997" style="fill:none;stroke:#ff0078;stroke-width:2px;"/><path d="M218.208,32.427l30.34,0l0,81.486" style="fill:none;stroke:#ff0078;stroke-width:2px;"/></g><g id="arrow-equal"><path d="M303.387,155.093l0,9.998l-31.007,0l0,-9.998" style="fill:none;stroke:#ff0078;stroke-width:2px;"/><path d="M257.543,250.895l30.34,0l0,-85.486" style="fill:none;stroke:#ff0078;stroke-width:2px;"/></g><g id="arrow-content"><path d="M316.309,155.093l0,9.998l36.577,0l0,-9.998" style="fill:none;stroke:#ff0078;stroke-width:2px;"/><path d="M362.721,250.895l-28.124,0l0,-85.486" style="fill:none;stroke:#ff0078;stroke-width:2px;"/></g><g transform="matrix(1.41005,0,0,1.64841,-174.656,-2734.33)"><text x="373.667px" y="1676.58px" style="font-family:'Courier-Bold', 'Courier';font-size:12.133px;fill:#82b7d1;">double</text><text x="373.667px" y="1685.68px" style="font-family:'Courier-Bold', 'Courier';font-size:12.133px;fill:#82b7d1;">quotes</text></g><g transform="matrix(1.41005,0,0,1.64841,-407.373,-2734.33)"><text x="373.667px" y="1676.58px" style="font-family:'Courier-Bold', 'Courier';font-size:12.133px;fill:#82b7d1;">attribute</text><text x="410.072px" y="1685.68px" style="font-family:'Courier-Bold', 'Courier';font-size:12.133px;fill:#82b7d1;">name</text></g><g transform="matrix(1.41005,0,0,1.64841,-326.267,-2516.37)"><text x="373.667px" y="1676.58px" style="font-family:'Courier-Bold', 'Courier';font-size:12.133px;fill:#82b7d1;">equal</text><text x="380.948px" y="1686.29px" style="font-family:'Courier-Bold', 'Courier';font-size:12.133px;fill:#82b7d1;">sign</text></g><g transform="matrix(1.41005,0,0,1.64841,-162.562,-2516.37)"><text x="373.667px" y="1676.58px" style="font-family:'Courier-Bold', 'Courier';font-size:12.133px;fill:#82b7d1;">text</text><text x="373.667px" y="1686.29px" style="font-family:'Courier-Bold', 'Courier';font-size:12.133px;fill:#82b7d1;">content</text></g><g id="professor"><path d="M57.394,196.432c-1.72,2.503 -3.549,7.43 0.67,12.521c0.921,1.113 -5.117,-0.069 -10.231,0.586" style="fill:none;stroke:#82b7d1;stroke-width:3px;"/><path d="M76.778,199.289c3.027,2.585 2.991,7.362 -0.285,10.639c-0.337,0.337 5.221,-0.563 9.467,0.175" style="fill:none;stroke:#82b7d1;stroke-width:3px;"/><path d="M71.028,145.75c0,0 -3.869,0.411 4.762,0.705c4.205,0.142 4.051,0.876 7.273,2.969c6.964,4.524 8.344,24.278 8.588,30.301c0.458,11.291 4.231,18.546 -9.315,20.917c-3.271,0.572 -46.301,-0.407 -44.535,-8.343c1.264,-5.681 1.524,-18.894 8.081,-30.07c6.557,-11.177 10.98,-16.921 25.146,-16.479Z" style="fill:#ecf4f8;"/><path d="M41.581,114.678c7.898,-12.142 30.826,-19.678 42.375,-10.17c11.263,9.272 22.978,28.426 10.17,40.68c-12.807,12.254 -31.355,13.29 -40.68,6.78c-9.324,-6.51 -19.763,-25.149 -11.865,-37.29Z" style="fill:#ffe5f2;"/><path d="M95.719,123.276c0,0 4.936,-6.527 9.911,-5.67c5.3,0.913 11.001,6.438 10.294,11.538c-0.707,5.1 -4.343,11.248 -11.438,11.739c-7.095,0.49 -14.776,-6.233 -14.776,-6.233" style="fill:#ffe5f2;"/><path d="M43.149,121.848c0,0 -3.566,-6.661 -10.678,-6.55c-7.111,0.111 -8.771,4.872 -10.105,9.367c-1.334,4.494 2.091,15.676 10.47,17.308c7.301,1.423 17.542,-7.165 17.542,-7.165" style="fill:#ffe5f2;"/><path d="M70.606,140.523c13.574,-19.39 28.905,6.363 48.347,1.504c0.34,-0.09 0.697,0.06 0.872,0.365c0.174,0.305 0.122,0.689 -0.128,0.936c-23.415,23.842 -43.551,14.436 -48.974,13.962c-4.857,-0.426 -17.881,12.067 -47.161,-11.545c-0.341,-0.258 -0.471,-0.71 -0.32,-1.11c0.151,-0.4 0.547,-0.653 0.973,-0.622c18.933,1.155 30.007,-19.756 46.391,-3.49Z" style="fill:#bad7e6;"/><path d="M55.656,124.831c-2.65,-1.013 -5.596,1.261 -6.476,3.596c-1.405,3.729 2.605,5.02 5.721,4.346c4.766,-1.031 3.404,-6.928 0.755,-7.942Z" style="fill:#445;"/><path d="M89.143,126.02c-1.45,-2.755 -5.974,-2.35 -6.953,-1.226c-1.964,2.254 -0.876,6.75 2.627,7.118c3.996,0.421 5.73,-3.224 4.326,-5.892Z" style="fill:#445;"/><path d="M75.692,165.711c-2.096,1.711 -3.499,6.651 1.381,9.29c2.171,1.174 5.723,-0.27 6.442,-1.019c2.379,-2.477 2.749,-5.939 -1.206,-8.34c-1.415,-0.86 -4.521,-1.643 -6.617,0.069Z" style="fill:#82b7d1;"/><path d="M88.019,172.708c8.082,5.044 15.704,4.789 22.6,-3.8c2.458,1.975 7.25,0.914 7.305,-3.142" style="fill:none;stroke:#ecf4f8;stroke-width:3.5px;"/><path d="M107.989,166.506c-0.5,-1.45 3.439,-3.399 4.448,-3.799c3.081,-1.22 37.864,-13.291 38.859,-12.39c0.528,0.477 0.943,1.309 1.125,3.306c0.067,0.733 -16.577,6.575 -20.05,7.889c-5.695,2.154 -21.801,8.169 -23.162,7.452c-0.832,-0.438 -0.72,-1.008 -1.22,-2.458Z" style="fill:#bad7e6;"/><path d="M113.695,169.87c2.118,-0.071 4.193,-1.443 4.229,-4.104" style="fill:none;stroke:#ecf4f8;stroke-width:3.5px;"/></g></svg>