<?xml version="1.0" encoding="UTF-8" standalone="no"?><!DOCTYPE svg PUBLIC "-//W3C//DTD SVG 1.1//EN" "http://www.w3.org/Graphics/SVG/1.1/DTD/svg11.dtd"><svg width="100%" height="100%" viewBox="0 0 220 160" version="1.1" xmlns="http://www.w3.org/2000/svg" xmlns:xlink="http://www.w3.org/1999/xlink" xml:space="preserve" xmlns:serif="http://www.serif.com/" style="fill-rule:evenodd;clip-rule:evenodd;stroke-linecap:round;stroke-linejoin:round;stroke-miterlimit:1.5;"><rect id="website-title" x="0" y="0" width="220" height="160" style="fill:none;"/><g id="browser"><path d="M106.981,31.245c5.675,-0.707 15.894,-2.225 20.417,-2.386c6.534,-0.232 24.146,-1.505 30.3,-2.115c4.729,-0.468 11.031,-0.194 12.968,0.676c1.9,0.854 4.844,5.425 5.613,7.115c1.778,3.904 4.647,10.569 2.104,12.688c-2.68,2.234 -66.309,5.327 -66.309,5.327l-5.093,-21.305Z" style="fill:#ecf4f8;"/><path d="M121.652,44.053c10.538,-1.619 10.775,-1.714 17.737,-2.551c5.043,-0.607 10.086,-1.235 15.111,-1.976c6.056,-0.894 13.495,-2.3 19.256,0.574c3.998,1.993 6.425,6.111 8.317,9.869c4.154,8.248 17.077,45.283 20.313,55.112c1.382,4.199 5.514,14.446 3.918,18.84c-1.844,5.076 -8.25,5.414 -13.46,6.221c-4.209,0.653 -61.819,10.506 -86.746,13.401c-7.644,0.887 -15.238,1.652 -22.878,2.665c-17.198,2.28 -31.003,6.958 -34.287,-14.516c-1.637,-10.71 -11.248,-50.418 -13.207,-58.063c-1.007,-3.927 -5.75,-28.539 -4.777,-32.583c0.883,-3.668 65.099,-10.345 77.852,-10.189c7.851,0.097 5.948,14.257 12.851,13.196Z" style="fill:#bad7e6;"/><path d="M41.781,60.326c0.868,-2.551 5.037,-4.575 8.709,-2.623c3.756,1.997 3.799,4.682 2.336,7.21c-1.818,3.142 -6.429,3.83 -9.068,1.989c-2.638,-1.841 -2.845,-4.024 -1.977,-6.576Z" style="fill:#ecf4f8;"/><path d="M44.78,63.565c2.084,-0.899 4.144,-1.586 6.379,-2.066" style="fill:none;stroke:#82b7d1;stroke-width:2px;"/><path d="M45.414,60.652c0,0 -1.569,2.128 -1.101,3.025c0.467,0.897 2.846,1.569 2.846,1.569" style="fill:none;stroke:#82b7d1;stroke-width:2px;"/><path d="M57.708,58.296c0.314,2.89 0.429,5.762 2.796,6.757c3.831,1.61 11.043,0.11 15.743,-0.67c10.581,-1.756 21.125,-2.945 31.816,-4.016c12.406,-1.244 24.899,-2.397 37.295,-3.83c6.173,-0.714 12.253,-1.983 18.402,-2.846c2.317,-0.326 5.682,-0.39 6.908,-2.668c0.427,-0.792 0.582,-1.789 0.719,-2.659c1.461,-9.235 -13.107,-5.01 -18.397,-4.276c-13.461,1.868 -27.274,3.874 -40.789,5.332c-10.068,1.087 -19.873,1.638 -29.901,2.825c-5.807,0.688 -11.592,1.501 -17.387,2.243c-2.29,0.293 -7.649,-0.27 -7.205,3.808Z" style="fill:#ecf4f8;"/><path d="M42.376,78.13c0.68,4.841 1.964,8.828 3.532,15.088c2.693,10.746 4.258,21.158 6.929,31.913c1.356,5.458 2.227,15.511 8.453,17.776c3.019,1.099 6.423,0.038 9.489,-0.277c7.483,-0.77 14.546,-1.885 21.876,-3.635c9.855,-2.354 66.193,-9.131 76.834,-11.033c3.656,-0.654 10.716,-1.772 14.372,-2.458c8.285,-1.556 16.696,-1.313 16.726,-7.327c0.007,-1.467 -2.161,-9.267 -2.433,-10.702c-0.826,-4.366 -1.673,-7.527 -3.381,-11.588c-3.606,-8.576 -5.415,-16.145 -8.467,-24.92c-1.491,-4.288 -3.833,-12.321 -8.44,-14.466c-2.09,-0.973 -6.231,-0.21 -8.372,0.191c-5.187,0.973 -11.609,0.803 -16.834,1.831c-10.633,2.091 -19.765,3.437 -30.527,4.57c-7.464,0.786 -60.301,8.387 -67.178,8.765c-4.884,0.268 -13.258,1.431 -12.579,6.272Z" style="fill:#ecf4f8;"/><path d="M116.905,74.696c0,0 -2.972,1.172 -3.638,3.805c-1.218,4.811 4.06,9.385 8.543,7.143c6.278,-3.14 1.181,-12.87 -4.905,-10.948Z" style="fill:none;stroke:#445;stroke-width:2px;"/><path d="M86.644,78.258c1.11,-2.287 6.63,-3.96 8.517,-1.266c1.887,2.694 2.076,4.974 0.377,6.632c-1.7,1.657 -5.287,2.694 -7.363,1.243c-2.077,-1.451 -2.64,-4.323 -1.531,-6.609Z" style="fill:#445;"/><path d="M137.331,70.218c2.233,-2.179 6.448,-2.011 7.69,0c1.242,2.011 1.746,4.284 -0.039,6.297c-1.916,2.161 -5.631,2.012 -7.379,0.335c-1.748,-1.676 -2.488,-4.471 -0.272,-6.632Z" style="fill:#445;"/></g><g id="wolf-story"><path d="M38.38,46.201c-0.138,0.377 -0.211,0.776 -0.261,1.173c-0.178,1.416 -0.091,3.072 0.849,4.228c0.589,0.725 1.558,1.174 2.445,0.704c0.672,-0.356 0.933,-1.017 0.971,-1.742c0.013,-0.253 -0.063,-1.151 -0.031,-1.15c0.04,0.002 0.369,0.635 0.525,0.84c0.438,0.573 1.248,1.703 2.411,1.135c2.714,-1.326 1.168,-5.046 -1.29,-6.521" style="fill:none;stroke:#445;stroke-width:1.5px;"/><path d="M101.631,37.162c0,0.4 0.228,0.825 0.427,1.155c0.787,1.308 2.261,1.869 3.676,1.162c1.017,-0.509 1.867,-1.929 1.2,-3.038" style="fill:none;stroke:#445;stroke-width:1.5px;"/><path d="M104.811,39.892c0,1.045 0.431,2.13 0.559,3.175" style="fill:none;stroke:#445;stroke-width:1.5px;"/><path d="M53.342,44.675c-0.893,-0.813 -3.507,-1.184 -4.525,0.94c-1.114,2.322 1.121,5.586 4.092,4.651c2.664,-0.838 2.024,-4.141 0.433,-5.591Z" style="fill:none;stroke:#445;stroke-width:1.5px;"/><path d="M56.434,43.182c0.198,0.955 1.005,5.673 1.489,5.885c0.403,0.176 2.715,-0.422 3.131,-0.483" style="fill:none;stroke:#445;stroke-width:1.5px;"/><path d="M63.368,47.993c-0.992,-1.549 -1.872,-3.491 -1.11,-4.949c0.761,-1.457 2.828,-1.849 3.934,-0.882" style="fill:none;stroke:#445;stroke-width:1.5px;"/><path d="M62.95,45.483c0.002,-0.038 1.269,-0.202 1.707,-0.258" style="fill:none;stroke:#445;stroke-width:1.5px;"/><path d="M77.48,40.244c0,0.005 -0.555,-0.113 -0.582,-0.118c-0.404,-0.082 -0.82,-0.129 -1.231,-0.121c-0.975,0.018 -2.5,0.604 -2.236,1.892c0.127,0.618 0.743,0.997 1.294,1.144c1.08,0.29 2.223,0.024 3.302,0.3c0.819,0.21 1.527,1.097 1.228,1.996c-0.19,0.575 -0.796,0.852 -1.341,0.933c-1.04,0.155 -2.17,0.006 -3.136,-0.419c-0.372,-0.164 -0.811,-0.364 -1.098,-0.668" style="fill:none;stroke:#445;stroke-width:1.5px;"/><path d="M79.433,39.755c0,-0.014 1.3,-0.19 1.749,-0.241c1.512,-0.171 3.011,-0.321 4.507,-0.555" style="fill:none;stroke:#445;stroke-width:1.5px;"/><path d="M82.379,39.813c-0.036,0.412 0.828,4.256 0.833,5.651" style="fill:none;stroke:#445;stroke-width:1.5px;"/><path d="M90.022,38.473c-1.563,0.272 -2.051,1.105 -2.34,1.604c-0.935,1.614 -0.939,4.03 1.207,4.608c0.314,0.085 0.642,0.113 0.967,0.095c1.341,-0.075 3.082,-0.999 3.298,-2.464c0.266,-1.808 -1.443,-4.137 -3.132,-3.843Z" style="fill:none;stroke:#445;stroke-width:1.5px;"/><path d="M95.641,43.915c0.03,-0.647 -1.523,-5.995 0.421,-6.29c0.787,-0.119 3.043,-0.667 3.122,1.467c0.079,2.134 -3.203,1.9 -3.176,1.969c0.05,0.127 3.165,2.458 3.582,2.66" style="fill:none;stroke:#445;stroke-width:1.5px;"/></g><path d="M14.044,40.612c-0.035,-0.239 3.038,0.779 3.225,0.845c2.018,0.713 4.005,1.545 6.044,2.194" style="fill:none;stroke:#ff0078;stroke-width:2px;"/><path d="M25.166,24.501c0.021,-0.282 3.481,5.274 4.662,6.623" style="fill:none;stroke:#ff0078;stroke-width:2px;"/><path d="M58.479,13.929c0.809,3.082 1.33,5.593 1.785,7.811" style="fill:none;stroke:#ff0078;stroke-width:2px;"/><path d="M79.273,13.731c-0.347,2.809 -0.942,5.635 -1.478,8.321" style="fill:none;stroke:#ff0078;stroke-width:2px;"/><path d="M97.342,20.609c-1.37,2.641 -3.215,5.916 -4.269,7.325" style="fill:none;stroke:#ff0078;stroke-width:2px;"/><path d="M40.397,17.177c1.001,2.268 1.999,4.543 3.02,6.802" style="fill:none;stroke:#ff0078;stroke-width:2px;"/><path d="M16.642,56.889c2.841,-0.951 5.671,-1.803 8.486,-2.529" style="fill:none;stroke:#ff0078;stroke-width:2px;"/></svg>