<?xml version="1.0" encoding="UTF-8" standalone="no"?><!DOCTYPE svg PUBLIC "-//W3C//DTD SVG 1.1//EN" "http://www.w3.org/Graphics/SVG/1.1/DTD/svg11.dtd"><svg width="100%" height="100%" viewBox="0 0 350 200" version="1.1" xmlns="http://www.w3.org/2000/svg" xmlns:xlink="http://www.w3.org/1999/xlink" xml:space="preserve" xmlns:serif="http://www.serif.com/" style="fill-rule:evenodd;clip-rule:evenodd;stroke-linecap:round;stroke-linejoin:round;stroke-miterlimit:1.5;"><rect id="computer-and-phone" x="0" y="0" width="350" height="200" style="fill:none;"/><g><path d="M59.668,145.789c-4.998,-1 -19.997,-30.338 -27.069,-48.112c-2.91,-7.313 -10.668,-25.961 -8.3,-34.092c2.369,-8.131 82.908,-26.654 93.661,-23.898c6.193,1.587 11.421,8.557 14.627,13.632c8.562,13.549 15.404,29.086 21.592,43.868c2.913,6.959 6.502,14.201 2.88,21.579c-5.564,11.334 -92.392,28.023 -97.391,27.023Z" style="fill:#bad7e6;"/><path d="M72.046,139.777c0,0 40.036,-11.203 60.138,-16.757c7.981,-2.204 16.15,-6.175 24.493,-6.912c11.749,-1.038 55.494,8.783 64.755,11.545c2.876,0.858 8.39,1.678 8.79,5.147c1.035,8.991 -88.163,40.951 -95.564,40.838c-11.953,-0.182 -59.621,-16.211 -70.371,-22.187c-9.143,-5.083 0.757,-8.921 7.759,-11.674Z" style="fill:#bad7e6;"/><path d="M63.49,143.718c2.333,-1.503 5.687,-2.813 8.556,-3.941c0,0 40.036,-11.203 60.138,-16.757c7.981,-2.204 16.15,-6.175 24.493,-6.912" style="fill:none;stroke:#82b7d1;stroke-width:1px;"/><path d="M31.148,77.984c-2.346,-7.53 6.18,-10.31 10.649,-12.491c8.024,-3.916 53.484,-16.22 66.9,-17.909c7.003,-0.882 12.228,-1.009 17.36,4.302c7.526,7.788 11.656,17.915 16.086,27.243c3.251,6.846 7.632,14.815 7.176,22.61c-0.616,10.512 -12.743,12.702 -20.621,15.335c-10.749,3.593 -59.901,20.314 -70.954,14.211c-5.33,-2.943 -10.334,-10.937 -12.934,-16.141c-5.965,-11.942 -11.317,-29.631 -13.662,-37.16Z" style="fill:#ecf4f8;"/><path d="M148.306,147.873c0,0 19.14,-6.72 25.666,-9.439c5.153,-2.147 7.773,-0.13 13.107,0.546c4.253,0.538 6.579,0.897 11.706,1.88c5.127,0.983 2.974,3.278 2.461,3.627c-2.133,1.453 -18.709,8.507 -30.306,11.314c-3.458,0.837 -5.156,0.056 -7.639,-0.505c-4.003,-0.906 -12.1,-2.808 -15.872,-4.362c-2.292,-0.945 -1.362,-2.515 0.877,-3.061Z" style="fill:#82b7d1;"/><path d="M76.978,142.597c0,0 38.535,-11.023 54.812,-16.311c9.362,-3.042 21.126,-7.84 31.131,-6.722c6.48,0.725 12.027,1.927 18.421,3.235c1.642,0.336 9.101,0.915 9.334,3.061c0.263,2.414 -3.162,3.038 -5.043,4.241c-4.196,2.681 -61.699,24.002 -69.303,25.957c-3.819,0.982 -7.424,1.914 -11.413,1.221c-7.616,-1.324 -25.033,-8.586 -27.032,-9.536c-2.645,-1.257 -2.865,-3.949 -0.907,-5.146Z" style="fill:#82b7d1;"/><path d="M73.588,115.26c0.889,-1.885 5.185,-2.813 7.373,-1.399c2.188,1.414 1.82,4.828 0.658,6.444c-1.163,1.615 -5.199,2.453 -6.84,0.971c-1.642,-1.481 -2.08,-4.131 -1.191,-6.016Z" style="fill:#445;"/><path d="M131.699,99.552c2.112,-0.101 4.567,1.535 4.409,3.842c-0.158,2.306 -1.607,3.719 -4.548,3.592c-2.945,-0.127 -4.107,-2.24 -3.914,-4.14c0.193,-1.9 1.941,-3.192 4.053,-3.294Z" style="fill:#445;"/><path d="M101.914,114.658c0,0 3.586,2.868 8.091,1.229c4.505,-1.638 4.198,-5.12 4.198,-5.12" style="fill:none;stroke:#445;stroke-width:2px;"/></g><g><path d="M325.672,82.722c0,0 -9.819,52.879 -12.598,63.884c-4.385,17.364 -23.266,14.742 -30.151,13.836c-7.782,-1.024 -18.223,-0.822 -21.159,-10.072c-0.723,-2.277 -0.93,-4.608 -0.935,-6.987c-0.006,-2.746 0.377,-5.501 0.844,-8.201c2.787,-16.121 12.146,-53.965 13.761,-61.926c1.564,-7.706 8.362,-10.738 17.203,-9.674c22.228,2.676 36.311,-0.264 33.035,19.14Z" style="fill:#bad7e6;"/><path d="M320.138,87.19c0.827,-3.736 2.673,-7.983 -3.5,-10.733c-6.173,-2.749 -32.664,-7.546 -36.551,-3.048c-3.887,4.499 -14.842,67.054 -14.842,67.054c0,0 -1.92,7.243 6.768,9.493c8.688,2.249 21.319,3.197 26.138,3.39c4.66,0.187 8.459,0.25 9.602,-4.998c1.143,-5.249 11.557,-57.422 12.385,-61.158Z" style="fill:#ecf4f8;"/><path d="M300.249,137.247c1.078,2.284 -0.255,4.315 -2.285,5.013c-2.031,0.698 -4.442,-0.953 -4.696,-2.349c-0.254,-1.396 0.444,-3.934 1.967,-4.378c1.523,-0.444 3.935,-0.571 5.014,1.714Z" style="fill:#445;"/><path d="M280.308,134.043c-0.664,-2.54 -4.407,-2.286 -5.734,-0.826c-1.328,1.46 -1.268,2.921 -0.363,4.318c0.906,1.397 4.044,1.651 5.01,0.952c0.966,-0.698 1.751,-1.905 1.087,-4.444Z" style="fill:#445;"/><path d="M289.077,143.537c0,0 -1.28,2.726 -4.376,1.915c-3.097,-0.812 -2.82,-3.77 -2.82,-3.77" style="fill:none;stroke:#445;stroke-width:2px;"/></g></svg>